<?xml version="1.0" standalone="no"?>
<!DOCTYPE svg PUBLIC "-//W3C//DTD SVG 1.1//EN" "http://www.w3.org/Graphics/SVG/1.1/DTD/svg11.dtd" >
<svg xmlns="http://www.w3.org/2000/svg" xmlns:xlink="http://www.w3.org/1999/xlink" version="1.1">
<metadata>
Created by FontForge 20161116 at Tue Feb  7 14:54:25 2017
 By Jimmy Warting
Copyright (c) 2010 by Dassault Systmes Company. All rights reserved.
</metadata>
<defs>
<font id="3ds-BoldItalic" horiz-adv-x="575" >
  <font-face 
    font-family="3ds"
    font-weight="700"
    font-style="italic"
    font-stretch="normal"
    units-per-em="1000"
    panose-1="2 0 8 3 3 0 0 9 0 4"
    ascent="800"
    descent="-200"
    x-height="487"
    cap-height="665"
    bbox="-87 -232 1192 1013"
    underline-thickness="50"
    underline-position="-100"
    unicode-range="U+000D-FB02"
  />
<missing-glyph horiz-adv-x="529" 
d="M581 665l-145 -665h-383l145 665h383zM201 108h132l98 450h-132z" />
    <glyph glyph-name="fi" unicode="fi" horiz-adv-x="610" 
d="M167 487l13 63q12 60 42.5 98t72 59t91 28.5t100.5 7.5q22 0 46.5 -2t47.5 -5t43.5 -6.5t34.5 -6.5l-38 -121q-14 3 -33.5 6.5t-41 6.5t-44 5t-41.5 2q-26 0 -44.5 -2.5t-31 -10t-20.5 -21.5t-13 -38l-13 -63h295l-75 -335q-2 -10 -2 -17q0 -15 8 -20.5t20 -5.5
q11 0 23.5 3.5t22.5 5.5l-21 -117q-17 -5 -36.5 -9t-42.5 -4q-28 0 -54.5 4.5t-47.5 17t-33.5 34t-12.5 54.5q0 8 1.5 21.5t3.5 23.5l49 230h-123l-63 -287q-21 -97 -81 -170.5t-170 -132.5l-57 96q32 24 55 47.5t39.5 48.5t26.5 51.5t17 58.5l62 288h-70l25 114h70z" />
    <glyph glyph-name="fl" unicode="fl" horiz-adv-x="622" 
d="M167 487l14 68q10 49 35.5 85t63.5 58.5t87.5 33.5t108.5 11q57 0 110 -6t99 -17l-124 -558q-2 -10 -2 -17q0 -20 9.5 -27t25.5 -7q10 0 24.5 1.5t39.5 5.5l-25 -117q-18 -5 -44 -9t-54 -4t-55 5t-48.5 17.5t-34.5 34.5t-13 55q0 9 0.5 19t3.5 24l103 478q-7 1 -15 1h-14
q-27 0 -45.5 -2.5t-31.5 -10t-21 -21.5t-13 -38l-13 -63h73l-25 -114h-73l-63 -287q-21 -97 -81 -170.5t-170 -132.5l-57 96q32 24 55 47.5t39.5 48.5t26.5 51.5t17 58.5l62 288h-69l24 114h70z" />
    <glyph glyph-name=".notdef" horiz-adv-x="529" 
d="M581 665l-145 -665h-383l145 665h383zM201 108h132l98 450h-132z" />
    <glyph glyph-name=".null" horiz-adv-x="0" 
 />
    <glyph glyph-name=".null" horiz-adv-x="0" 
 />
    <glyph glyph-name="nonmarkingreturn" unicode="&#xd;" horiz-adv-x="276" 
 />
    <glyph glyph-name="space" unicode=" " horiz-adv-x="276" 
 />
    <glyph glyph-name="A" unicode="A" horiz-adv-x="633" 
d="M207 0h-171l92 432q12 56 34.5 101.5t59.5 77.5t90.5 49t127.5 17q61 0 104.5 -11.5t71 -33t40 -52t12.5 -69.5q0 -37 -9 -79l-93 -432h-177l48 222h-182zM463 340l22 104q5 23 5 38q0 37 -16.5 55.5t-54.5 18.5q-47 0 -75 -28.5t-40 -83.5l-23 -104h182z" />
    <glyph glyph-name="B" unicode="B" horiz-adv-x="609" 
d="M427 665q103 0 164.5 -35.5t61.5 -113.5q0 -41 -11.5 -70t-31 -49.5t-47 -34t-58.5 -23.5q42 -9 72.5 -40.5t30.5 -83.5q0 -66 -28 -110t-74 -70.5t-104.5 -37t-118.5 -10.5q-50 0 -109.5 7t-120.5 21l143 650h231zM248 104q9 -2 26.5 -2.5t28.5 -0.5q59 0 87.5 27
t28.5 86q0 28 -15.5 45.5t-52.5 17.5h-66zM311 393h63q19 0 36 5t30 17t20.5 31.5t7.5 48.5t-14 43t-46 14h-62z" />
    <glyph glyph-name="C" unicode="C" horiz-adv-x="543" 
d="M601 534q-13 4 -30.5 8t-37 7t-39.5 5t-37 2q-38 0 -68 -12t-53 -38.5t-40.5 -68t-29.5 -101.5q-7 -35 -11 -63t-4 -51q0 -33 4 -54.5t15 -35t30.5 -19t51.5 -5.5q18 0 39 3t42.5 7t42 9t37.5 9l-14 -121q-16 -5 -38 -10t-47 -9t-50.5 -6.5t-49.5 -2.5q-124 0 -185 53.5
t-61 172.5q0 31 3.5 57.5t12.5 65.5q21 94 56 159t84 105.5t112 58.5t140 18q47 0 88.5 -7t67.5 -14z" />
    <glyph glyph-name="D" unicode="D" horiz-adv-x="654" 
d="M450 665q116 0 178.5 -55t62.5 -164q0 -27 -3 -49t-10 -54q-16 -75 -42.5 -140t-72.5 -113t-115.5 -75.5t-172.5 -27.5q-46 0 -103.5 6t-117.5 20l143 652h253zM250 111q11 -2 28 -2.5t29 -0.5q44 0 74.5 15.5t52 45.5t36.5 73t27 98q6 28 9.5 52.5t3.5 44.5
q0 60 -21.5 85t-65.5 25h-77z" />
    <glyph glyph-name="E" unicode="E" horiz-adv-x="542" 
d="M616 665l-26 -118h-250l-33 -151h233l-25 -118h-234l-20 -92q-3 -11 -3 -20q0 -29 18 -38.5t46 -9.5h185l-26 -118h-193q-49 0 -87.5 6.5t-65.5 21.5t-41 40t-14 62q0 14 1.5 30t4.5 30l104 475h426z" />
    <glyph glyph-name="F" unicode="F" horiz-adv-x="534" 
d="M636 665l-25 -118h-265l-37 -174h229l-25 -118h-229l-56 -255h-175l145 665h438z" />
    <glyph glyph-name="G" unicode="G" horiz-adv-x="670" 
d="M684 533q-18 4 -40.5 8t-48 7.5t-52.5 5.5t-54 2q-47 0 -82.5 -12t-61.5 -38t-45 -68t-33 -102q-8 -33 -12 -59t-4 -51q0 -69 22.5 -93.5t74.5 -24.5q19 0 42 2.5t51 6.5l30 143h-109l27 123h283l-77 -355q-23 -7 -53 -14.5t-64.5 -13.5t-71 -9.5t-71.5 -3.5
q-62 0 -111.5 12.5t-84 40.5t-53 72t-18.5 106q0 29 3.5 57t11.5 60q23 97 63 162.5t94.5 105.5t122.5 57t146 17q25 0 53.5 -2t55.5 -5t51 -7.5t41 -8.5z" />
    <glyph glyph-name="H" unicode="H" horiz-adv-x="711" 
d="M373 665l-57 -262h214l57 262h176l-145 -665h-176l60 278h-214l-60 -278h-175l145 665h175z" />
    <glyph glyph-name="I" unicode="I" horiz-adv-x="321" 
d="M373 665l-145 -665h-175l145 665h175z" />
    <glyph glyph-name="J" unicode="J" horiz-adv-x="321" 
d="M375 665l-121 -559q-13 -58 -42.5 -105t-68 -84.5t-82.5 -67t-86 -52.5l-58 94q31 24 57 46t46 46t34.5 52t22.5 65l122 565h176z" />
    <glyph glyph-name="K" unicode="K" horiz-adv-x="644" 
d="M373 665l-66 -297l294 297h179l-300 -296q27 -11 45.5 -27.5t31.5 -39t21.5 -51.5t15.5 -63l35 -188h-179l-25 151q-8 48 -23.5 74.5t-46.5 34.5l-91 -89l-36 -171h-175l145 665h175z" />
    <glyph glyph-name="L" unicode="L" horiz-adv-x="499" 
d="M373 665l-119 -547h238l-25 -118h-414l145 665h175z" />
    <glyph glyph-name="M" unicode="M" horiz-adv-x="883" 
d="M401 200l-86 205l-87 -405h-175l145 665h162l130 -304l260 304h185l-145 -665h-176l90 406l-177 -206h-126z" />
    <glyph glyph-name="N" unicode="N" horiz-adv-x="719" 
d="M338 665l189 -343l73 343h171l-145 -665h-171l28 133l-166 293l-93 -426h-171l145 665h140z" />
    <glyph glyph-name="O" unicode="O" horiz-adv-x="657" 
d="M457 677q236 0 236 -220q0 -31 -4 -59.5t-12 -66.5q-39 -178 -130.5 -261t-241.5 -83q-121 0 -179 55.5t-58 166.5q0 29 4 57.5t12 64.5q41 176 132 261t241 85zM431 556q-57 0 -98 -52t-66 -172q-8 -35 -12 -64.5t-4 -52.5q0 -60 20 -83.5t62 -23.5q28 0 51.5 11
t43.5 37.5t36.5 69.5t30.5 106q15 70 15 116q0 60 -19 84t-60 24z" />
    <glyph glyph-name="P" unicode="P" horiz-adv-x="591" 
d="M305 346q11 -2 22 -3t22 -1q51 0 86 34t35 109q0 37 -18 49.5t-56 12.5h-49zM421 665q112 0 168 -38t56 -130q0 -64 -21.5 -115t-60.5 -87t-93.5 -55t-120.5 -19q-36 0 -72 6l-49 -227h-175l145 665h223z" />
    <glyph glyph-name="Q" unicode="Q" horiz-adv-x="657" 
d="M231 -52q38 0 81 -9.5t83 -19.5q29 -8 53.5 -13t36.5 -5q20 0 36.5 9t35.5 23l40 -108q-20 -20 -53 -35.5t-81 -15.5q-35 0 -73.5 10.5t-76.5 21.5q-31 10 -58 17t-49 7zM457 677q236 0 236 -220q0 -31 -4 -59.5t-12 -66.5q-39 -178 -130.5 -261t-241.5 -83
q-121 0 -179 55.5t-58 166.5q0 29 4 57.5t12 64.5q41 176 132 261t241 85zM431 556q-57 0 -98 -52t-66 -172q-8 -35 -12 -64.5t-4 -52.5q0 -60 20 -83.5t62 -23.5q28 0 51.5 11t43.5 37.5t36.5 69.5t30.5 106q15 70 15 116q0 60 -19 84t-60 24z" />
    <glyph glyph-name="R" unicode="R" horiz-adv-x="606" 
d="M421 665q112 0 168 -38.5t56 -125.5q0 -56 -15.5 -93t-39 -60.5t-51 -37.5t-52.5 -22q38 -14 57 -42t23 -79l12 -167h-182l-9 131q-2 30 -5.5 48t-10 27.5t-18 12.5t-28.5 3q-10 0 -23.5 1.5t-25.5 3.5l-49 -227h-175l145 665h223zM305 347q8 -2 20.5 -3t23.5 -1
q51 0 86 34t35 109q0 36 -18 48.5t-56 12.5h-49z" />
    <glyph glyph-name="S" unicode="S" horiz-adv-x="531" 
d="M566 537q-34 6 -78.5 12.5t-79.5 6.5q-21 0 -42 -1t-37.5 -6.5t-26.5 -16.5t-10 -30t16.5 -39t41 -42t53.5 -46t53.5 -51.5t41 -59t16.5 -67.5q0 -57 -19.5 -97t-55.5 -65t-87.5 -36.5t-115.5 -11.5q-63 0 -113.5 8t-86.5 20l27 123q42 -12 87.5 -21t97.5 -9q17 0 33 2
t28 8t19.5 17t7.5 30q0 21 -15.5 43.5t-39.5 46t-51 49t-51 53t-39.5 57.5t-15.5 63q0 61 24 99.5t63.5 61t91 31t106.5 8.5q53 0 102.5 -6t81.5 -13z" />
    <glyph glyph-name="T" unicode="T" horiz-adv-x="562" 
d="M681 665l-26 -118h-187l-119 -547h-175l119 547h-187l25 118h550z" />
    <glyph glyph-name="U" unicode="U" horiz-adv-x="672" 
d="M361 665l-100 -456q-2 -8 -3 -16.5t-1 -14.5q0 -21 7.5 -34.5t20.5 -22t29.5 -11.5t34.5 -3q23 0 45.5 3t39.5 8l119 547h176l-141 -635q-56 -17 -125.5 -29.5t-137.5 -12.5q-49 0 -93.5 8.5t-78.5 28.5t-54 53.5t-20 83.5q0 17 1.5 28.5t5.5 29.5l99 445h176z" />
    <glyph glyph-name="V" unicode="V" horiz-adv-x="623" 
d="M204 0l-94 665h171l56 -474q30 45 61.5 100.5t61.5 117t58 126.5t52 130h168q-69 -198 -163 -364t-193 -301h-178z" />
    <glyph glyph-name="W" unicode="W" horiz-adv-x="879" 
d="M522 0l-27 347l-179 -347h-177l-19 665h172l-1 -454l162 337h162l29 -337q27 47 53 103.5t51 116t47.5 119.5t40.5 115h168q-74 -200 -149 -365t-166 -300h-167z" />
    <glyph glyph-name="X" unicode="X" horiz-adv-x="583" 
d="M125 665h186l71 -207l164 207h187l-280 -331l135 -334h-189l-73 211l-165 -211h-184l278 336z" />
    <glyph glyph-name="Y" unicode="Y" horiz-adv-x="595" 
d="M245 232l-142 433h178l86 -290q53 57 98 133.5t78 156.5h167q-26 -54 -55 -112.5t-65 -116t-79 -110t-95 -94.5l-52 -232h-171z" />
    <glyph glyph-name="Z" unicode="Z" horiz-adv-x="572" 
d="M634 665v-111l-395 -435h310l-25 -119h-490v111l396 436h-292l25 118h471z" />
    <glyph glyph-name="Agrave" unicode="&#xc0;" horiz-adv-x="633" 
d="M207 0h-171l92 432q12 56 34.5 101.5t59.5 77.5t90.5 49t127.5 17q61 0 104.5 -11.5t71 -33t40 -52t12.5 -69.5q0 -37 -9 -79l-93 -432h-177l48 222h-182zM463 340l22 104q5 23 5 38q0 37 -16.5 55.5t-54.5 18.5q-47 0 -75 -28.5t-40 -83.5l-23 -104h182zM482 916
l40 -161h-120l-88 161h168z" />
    <glyph glyph-name="Aacute" unicode="&#xc1;" horiz-adv-x="633" 
d="M207 0h-171l92 432q12 56 34.5 101.5t59.5 77.5t90.5 49t127.5 17q61 0 104.5 -11.5t71 -33t40 -52t12.5 -69.5q0 -37 -9 -79l-93 -432h-177l48 222h-182zM463 340l22 104q5 23 5 38q0 37 -16.5 55.5t-54.5 18.5q-47 0 -75 -28.5t-40 -83.5l-23 -104h182zM657 916
l-145 -161h-125l95 161h175z" />
    <glyph glyph-name="Acircumflex" unicode="&#xc2;" horiz-adv-x="633" 
d="M207 0h-171l92 432q12 56 34.5 101.5t59.5 77.5t90.5 49t127.5 17q61 0 104.5 -11.5t71 -33t40 -52t12.5 -69.5q0 -37 -9 -79l-93 -432h-177l48 222h-182zM463 340l22 104q5 23 5 38q0 37 -16.5 55.5t-54.5 18.5q-47 0 -75 -28.5t-40 -83.5l-23 -104h182zM569 916
l69 -161h-123l-30 80l-62 -80h-138l139 161h145z" />
    <glyph glyph-name="Atilde" unicode="&#xc3;" horiz-adv-x="633" 
d="M207 0h-171l92 432q12 56 34.5 101.5t59.5 77.5t90.5 49t127.5 17q61 0 104.5 -11.5t71 -33t40 -52t12.5 -69.5q0 -37 -9 -79l-93 -432h-177l48 222h-182zM463 340l22 104q5 23 5 38q0 37 -16.5 55.5t-54.5 18.5q-47 0 -75 -28.5t-40 -83.5l-23 -104h182zM304 811
q16 36 41 62t70 26q23 0 40.5 -5t31 -11.5t23.5 -11.5t18 -5q13 0 21 10.5t16 27.5l89 -42q-20 -41 -46 -67.5t-68 -26.5q-23 0 -40.5 5.5t-30.5 12.5t-22.5 12.5t-16.5 5.5q-14 0 -23 -12t-15 -25z" />
    <glyph glyph-name="Adieresis" unicode="&#xc4;" horiz-adv-x="633" 
d="M207 0h-171l92 432q12 56 34.5 101.5t59.5 77.5t90.5 49t127.5 17q61 0 104.5 -11.5t71 -33t40 -52t12.5 -69.5q0 -37 -9 -79l-93 -432h-177l48 222h-182zM463 340l22 104q5 23 5 38q0 37 -16.5 55.5t-54.5 18.5q-47 0 -75 -28.5t-40 -83.5l-23 -104h182zM371 771
q-32 0 -50 13t-18 36q0 35 27 57t69 22q32 0 50 -13t18 -36q0 -35 -27 -57t-69 -22zM560 771q-32 0 -50 13t-18 36q0 35 27 57t69 22q32 0 50 -13t18 -36q0 -35 -27 -57t-69 -22z" />
    <glyph glyph-name="Amacron" unicode="&#x100;" horiz-adv-x="633" 
d="M207 0h-171l92 432q12 56 34.5 101.5t59.5 77.5t90.5 49t127.5 17q61 0 104.5 -11.5t71 -33t40 -52t12.5 -69.5q0 -37 -9 -79l-93 -432h-177l48 222h-182zM463 340l22 104q5 23 5 38q0 37 -16.5 55.5t-54.5 18.5q-47 0 -75 -28.5t-40 -83.5l-23 -104h182zM640 880
l-20 -90h-299l20 90h299z" />
    <glyph glyph-name="Abreve" unicode="&#x102;" horiz-adv-x="633" 
d="M207 0h-171l92 432q12 56 34.5 101.5t59.5 77.5t90.5 49t127.5 17q61 0 104.5 -11.5t71 -33t40 -52t12.5 -69.5q0 -37 -9 -79l-93 -432h-177l48 222h-182zM463 340l22 104q5 23 5 38q0 37 -16.5 55.5t-54.5 18.5q-47 0 -75 -28.5t-40 -83.5l-23 -104h182zM453 908
q-1 -5 -1.5 -9t-0.5 -8q0 -37 31 -37q18 0 32 12.5t22 41.5h122q-22 -82 -68 -113.5t-117 -31.5q-65 0 -103.5 26.5t-38.5 87.5q0 6 0.5 15t1.5 16h120z" />
    <glyph glyph-name="Aring" unicode="&#xc5;" horiz-adv-x="633" 
d="M207 0h-171l92 432q12 56 34.5 101.5t59.5 77.5t90.5 49t127.5 17q61 0 104.5 -11.5t71 -33t40 -52t12.5 -69.5q0 -37 -9 -79l-93 -432h-177l48 222h-182zM463 340l22 104q5 23 5 38q0 37 -16.5 55.5t-54.5 18.5q-47 0 -75 -28.5t-40 -83.5l-23 -104h182zM473 803
q16 0 26.5 9t10.5 29q0 26 -24 26q-16 0 -25.5 -9.5t-9.5 -29.5q0 -12 4.5 -18.5t17.5 -6.5zM460 742q-50 0 -79 19.5t-29 56.5q0 31 11.5 52t32 34t47.5 18.5t57 5.5q49 0 78.5 -19.5t29.5 -56.5q0 -31 -12 -52t-32 -34t-47 -18.5t-57 -5.5z" />
    <glyph glyph-name="Aringacute" unicode="&#x1fa;" horiz-adv-x="633" 
d="M644 1013l-90 -91q26 -9 41.5 -26.5t15.5 -43.5q0 -31 -12 -52t-32 -34t-47.5 -18.5t-57.5 -5.5q-49 0 -78 19.5t-29 56.5q0 48 28 73t69 33l57 89h135zM477 803q16 0 25.5 9t9.5 29q0 26 -22 26q-17 0 -27 -9.5t-10 -29.5q0 -25 24 -25zM207 0h-171l92 432
q12 56 34.5 101.5t59.5 77.5t90.5 49t127.5 17q61 0 104.5 -11.5t71 -33t40 -52t12.5 -69.5q0 -37 -9 -79l-93 -432h-177l48 222h-182zM463 340l22 104q5 23 5 38q0 37 -16.5 55.5t-54.5 18.5q-47 0 -75 -28.5t-40 -83.5l-23 -104h182z" />
    <glyph glyph-name="Aogonek" unicode="&#x104;" horiz-adv-x="633" 
d="M556 -182q-36 -18 -85 -18t-79 21.5t-30 59.5q0 22 7.5 40t20 32.5t28.5 26t34 20.5h-63l48 222h-182l-48 -222h-171l92 432q12 56 34.5 101.5t59.5 77.5t90.5 49t127.5 17q61 0 104.5 -11.5t71 -33t40 -52t12.5 -69.5q0 -37 -9 -79l-93 -432q-12 -9 -24.5 -19.5t-23 -22
t-17 -23t-6.5 -22.5q0 -18 20 -18q10 0 24.5 3t34.5 11zM463 340l22 104q5 23 5 38q0 37 -16.5 55.5t-54.5 18.5q-47 0 -75 -28.5t-40 -83.5l-23 -104h182z" />
    <glyph glyph-name="AE" unicode="&#xc6;" horiz-adv-x="886" 
d="M960 665l-25 -118h-250l-34 -151h234l-26 -118h-233l-20 -92q-3 -11 -3 -20q0 -29 18 -38.5t46 -9.5h185l-26 -118h-193q-50 0 -88.5 6.5t-65.5 21.5t-41 40t-14 62q0 28 7 60l17 78h-182l-59 -268h-171l92 432q12 56 35 101.5t58.5 77.5t84.5 49t113 17q45 0 73.5 -9.5
t48.5 -29.5l5 27h414zM473 386q5 24 11 50.5t6 46.5q0 36 -16.5 54.5t-54.5 18.5q-90 0 -115 -112l-13 -58h182z" />
    <glyph glyph-name="AEacute" unicode="&#x1fc;" horiz-adv-x="886" 
d="M960 665l-25 -118h-250l-34 -151h234l-26 -118h-233l-20 -92q-3 -11 -3 -20q0 -29 18 -38.5t46 -9.5h185l-26 -118h-193q-50 0 -88.5 6.5t-65.5 21.5t-41 40t-14 62q0 28 7 60l17 78h-182l-59 -268h-171l92 432q12 56 35 101.5t58.5 77.5t84.5 49t113 17q45 0 73.5 -9.5
t48.5 -29.5l5 27h414zM473 386q5 24 11 50.5t6 46.5q0 36 -16.5 54.5t-54.5 18.5q-90 0 -115 -112l-13 -58h182zM838 916l-145 -161h-125l95 161h175z" />
    <glyph glyph-name="Cacute" unicode="&#x106;" horiz-adv-x="543" 
d="M601 534q-13 4 -30.5 8t-37 7t-39.5 5t-37 2q-38 0 -68 -12t-53 -38.5t-40.5 -68t-29.5 -101.5q-7 -35 -11 -63t-4 -51q0 -33 4 -54.5t15 -35t30.5 -19t51.5 -5.5q18 0 39 3t42.5 7t42 9t37.5 9l-14 -121q-16 -5 -38 -10t-47 -9t-50.5 -6.5t-49.5 -2.5q-124 0 -185 53.5
t-61 172.5q0 31 3.5 57.5t12.5 65.5q21 94 56 159t84 105.5t112 58.5t140 18q47 0 88.5 -7t67.5 -14zM634 916l-145 -161h-125l95 161h175z" />
    <glyph glyph-name="Ccircumflex" unicode="&#x108;" horiz-adv-x="543" 
d="M601 534q-13 4 -30.5 8t-37 7t-39.5 5t-37 2q-38 0 -68 -12t-53 -38.5t-40.5 -68t-29.5 -101.5q-7 -35 -11 -63t-4 -51q0 -33 4 -54.5t15 -35t30.5 -19t51.5 -5.5q18 0 39 3t42.5 7t42 9t37.5 9l-14 -121q-16 -5 -38 -10t-47 -9t-50.5 -6.5t-49.5 -2.5q-124 0 -185 53.5
t-61 172.5q0 31 3.5 57.5t12.5 65.5q21 94 56 159t84 105.5t112 58.5t140 18q47 0 88.5 -7t67.5 -14zM539 916l69 -161h-123l-30 80l-62 -80h-138l139 161h145z" />
    <glyph glyph-name="Ccaron" unicode="&#x10c;" horiz-adv-x="543" 
d="M601 534q-13 4 -30.5 8t-37 7t-39.5 5t-37 2q-38 0 -68 -12t-53 -38.5t-40.5 -68t-29.5 -101.5q-7 -35 -11 -63t-4 -51q0 -33 4 -54.5t15 -35t30.5 -19t51.5 -5.5q18 0 39 3t42.5 7t42 9t37.5 9l-14 -121q-16 -5 -38 -10t-47 -9t-50.5 -6.5t-49.5 -2.5q-124 0 -185 53.5
t-61 172.5q0 31 3.5 57.5t12.5 65.5q21 94 56 159t84 105.5t112 58.5t140 18q47 0 88.5 -7t67.5 -14zM357 755l-68 161h123l31 -80l62 80h138l-138 -161h-148z" />
    <glyph glyph-name="Cdotaccent" unicode="&#x10a;" horiz-adv-x="543" 
d="M601 534q-13 4 -30.5 8t-37 7t-39.5 5t-37 2q-38 0 -68 -12t-53 -38.5t-40.5 -68t-29.5 -101.5q-7 -35 -11 -63t-4 -51q0 -33 4 -54.5t15 -35t30.5 -19t51.5 -5.5q18 0 39 3t42.5 7t42 9t37.5 9l-14 -121q-16 -5 -38 -10t-47 -9t-50.5 -6.5t-49.5 -2.5q-124 0 -185 53.5
t-61 172.5q0 31 3.5 57.5t12.5 65.5q21 94 56 159t84 105.5t112 58.5t140 18q47 0 88.5 -7t67.5 -14zM436 768q-35 0 -54.5 13t-19.5 39q0 38 29 60t73 22q35 0 54.5 -13t19.5 -39q0 -38 -29 -60t-73 -22z" />
    <glyph glyph-name="Ccedilla" unicode="&#xc7;" horiz-adv-x="543" 
d="M601 534q-13 4 -30.5 8t-37 7t-39.5 5t-37 2q-38 0 -68 -12t-53 -38.5t-40.5 -68t-29.5 -101.5q-7 -35 -11 -63t-4 -51q0 -33 4 -54.5t15 -35t30.5 -19t51.5 -5.5q18 0 39 3t42.5 7t42 9t37.5 9l-14 -121q-16 -5 -38 -10t-47 -9t-50.5 -6.5t-49.5 -2.5q-124 0 -185 53.5
t-61 172.5q0 31 3.5 57.5t12.5 65.5q21 94 56 159t84 105.5t112 58.5t140 18q47 0 88.5 -7t67.5 -14zM346 -35q16 -27 16 -60q-1 -48 -34.5 -78.5t-102.5 -30.5q-26 0 -50 5t-40 12l21 90q14 -5 27.5 -8.5t24.5 -3.5q17 0 23 9t6 28q0 6 -2 16.5t-6 20.5h117z" />
    <glyph glyph-name="Dcaron" unicode="&#x10e;" horiz-adv-x="654" 
d="M450 665q116 0 178.5 -55t62.5 -164q0 -27 -3 -49t-10 -54q-16 -75 -42.5 -140t-72.5 -113t-115.5 -75.5t-172.5 -27.5q-46 0 -103.5 6t-117.5 20l143 652h253zM250 111q11 -2 28 -2.5t29 -0.5q44 0 74.5 15.5t52 45.5t36.5 73t27 98q6 28 9.5 52.5t3.5 44.5
q0 60 -21.5 85t-65.5 25h-77zM386 755l-68 161h123l31 -80l62 80h138l-138 -161h-148z" />
    <glyph glyph-name="Dcroat" unicode="&#x110;" horiz-adv-x="678" 
d="M474 665q116 0 178.5 -55t62.5 -164q0 -27 -3 -49t-10 -54q-16 -75 -44 -140t-76 -113t-119 -75.5t-174 -27.5q-46 0 -98.5 6t-112.5 20l57 263h-80l26 117h80l60 272h253zM336 393h124l-25 -117h-125l-36 -164q11 -2 28 -3t29 -1q44 0 74.5 15.5t52 45.5t36.5 73t27 98
q6 28 9.5 52.5t3.5 44.5q0 60 -21.5 85t-65.5 25h-78z" />
    <glyph glyph-name="Egrave" unicode="&#xc8;" horiz-adv-x="542" 
d="M616 665l-26 -118h-250l-33 -151h233l-25 -118h-234l-20 -92q-3 -11 -3 -20q0 -29 18 -38.5t46 -9.5h185l-26 -118h-193q-49 0 -87.5 6.5t-65.5 21.5t-41 40t-14 62q0 14 1.5 30t4.5 30l104 475h426zM450 916l40 -161h-120l-88 161h168z" />
    <glyph glyph-name="Eacute" unicode="&#xc9;" horiz-adv-x="542" 
d="M616 665l-26 -118h-250l-33 -151h233l-25 -118h-234l-20 -92q-3 -11 -3 -20q0 -29 18 -38.5t46 -9.5h185l-26 -118h-193q-49 0 -87.5 6.5t-65.5 21.5t-41 40t-14 62q0 14 1.5 30t4.5 30l104 475h426zM596 916l-145 -161h-125l95 161h175z" />
    <glyph glyph-name="Ecircumflex" unicode="&#xca;" horiz-adv-x="542" 
d="M616 665l-26 -118h-250l-33 -151h233l-25 -118h-234l-20 -92q-3 -11 -3 -20q0 -29 18 -38.5t46 -9.5h185l-26 -118h-193q-49 0 -87.5 6.5t-65.5 21.5t-41 40t-14 62q0 14 1.5 30t4.5 30l104 475h426zM523 916l69 -161h-123l-30 80l-62 -80h-138l139 161h145z" />
    <glyph glyph-name="Ecaron" unicode="&#x11a;" horiz-adv-x="542" 
d="M616 665l-26 -118h-250l-33 -151h233l-25 -118h-234l-20 -92q-3 -11 -3 -20q0 -29 18 -38.5t46 -9.5h185l-26 -118h-193q-49 0 -87.5 6.5t-65.5 21.5t-41 40t-14 62q0 14 1.5 30t4.5 30l104 475h426zM337 755l-68 161h123l31 -80l62 80h138l-138 -161h-148z" />
    <glyph glyph-name="Edieresis" unicode="&#xcb;" horiz-adv-x="542" 
d="M616 665l-26 -118h-250l-33 -151h233l-25 -118h-234l-20 -92q-3 -11 -3 -20q0 -29 18 -38.5t46 -9.5h185l-26 -118h-193q-49 0 -87.5 6.5t-65.5 21.5t-41 40t-14 62q0 14 1.5 30t4.5 30l104 475h426zM326 771q-32 0 -50 13t-18 36q0 35 27 57t69 22q32 0 50 -13t18 -36
q0 -35 -27 -57t-69 -22zM515 771q-32 0 -50 13t-18 36q0 35 27 57t69 22q32 0 50 -13t18 -36q0 -35 -27 -57t-69 -22z" />
    <glyph glyph-name="Emacron" unicode="&#x112;" horiz-adv-x="542" 
d="M616 665l-26 -118h-250l-33 -151h233l-25 -118h-234l-20 -92q-3 -11 -3 -20q0 -29 18 -38.5t46 -9.5h185l-26 -118h-193q-49 0 -87.5 6.5t-65.5 21.5t-41 40t-14 62q0 14 1.5 30t4.5 30l104 475h426zM594 880l-20 -90h-299l20 90h299z" />
    <glyph glyph-name="Ebreve" unicode="&#x114;" horiz-adv-x="542" 
d="M616 665l-26 -118h-250l-33 -151h233l-25 -118h-234l-20 -92q-3 -11 -3 -20q0 -29 18 -38.5t46 -9.5h185l-26 -118h-193q-49 0 -87.5 6.5t-65.5 21.5t-41 40t-14 62q0 14 1.5 30t4.5 30l104 475h426zM408 907q-1 -5 -1.5 -9t-0.5 -8q0 -37 31 -37q18 0 32 12.5t22 41.5
h122q-22 -82 -68 -113.5t-117 -31.5q-65 0 -103.5 26.5t-38.5 87.5q0 6 0.5 15t1.5 16h120z" />
    <glyph glyph-name="Edotaccent" unicode="&#x116;" horiz-adv-x="542" 
d="M616 665l-26 -118h-250l-33 -151h233l-25 -118h-234l-20 -92q-3 -11 -3 -20q0 -29 18 -38.5t46 -9.5h185l-26 -118h-193q-49 0 -87.5 6.5t-65.5 21.5t-41 40t-14 62q0 14 1.5 30t4.5 30l104 475h426zM421 768q-35 0 -54.5 13t-19.5 39q0 38 29 60t73 22q35 0 54.5 -13
t19.5 -39q0 -38 -29 -60t-73 -22z" />
    <glyph glyph-name="Eogonek" unicode="&#x118;" horiz-adv-x="542" 
d="M471 -182q-36 -18 -85 -18t-79 21.5t-30 59.5q0 22 7.5 40t20 32.5t28.5 26t34 20.5h-79q-49 0 -87.5 6.5t-65.5 21.5t-41 40t-14 62q0 14 1.5 30t4.5 30l104 475h426l-26 -118h-250l-33 -151h233l-25 -118h-234l-20 -92q-3 -11 -3 -20q0 -29 18 -38.5t46 -9.5h185
l-26 -118q-12 -9 -24.5 -19.5t-23 -22t-17 -23t-6.5 -22.5q0 -18 20 -18q10 0 24.5 3t34.5 11z" />
    <glyph glyph-name="Gcircumflex" unicode="&#x11c;" horiz-adv-x="670" 
d="M684 533q-18 4 -40.5 8t-48 7.5t-52.5 5.5t-54 2q-47 0 -82.5 -12t-61.5 -38t-45 -68t-33 -102q-8 -33 -12 -59t-4 -51q0 -69 22.5 -93.5t74.5 -24.5q19 0 42 2.5t51 6.5l30 143h-109l27 123h283l-77 -355q-23 -7 -53 -14.5t-64.5 -13.5t-71 -9.5t-71.5 -3.5
q-62 0 -111.5 12.5t-84 40.5t-53 72t-18.5 106q0 29 3.5 57t11.5 60q23 97 63 162.5t94.5 105.5t122.5 57t146 17q25 0 53.5 -2t55.5 -5t51 -7.5t41 -8.5zM574 916l69 -161h-123l-30 80l-62 -80h-138l139 161h145z" />
    <glyph glyph-name="Gbreve" unicode="&#x11e;" horiz-adv-x="670" 
d="M684 533q-18 4 -40.5 8t-48 7.5t-52.5 5.5t-54 2q-47 0 -82.5 -12t-61.5 -38t-45 -68t-33 -102q-8 -33 -12 -59t-4 -51q0 -69 22.5 -93.5t74.5 -24.5q19 0 42 2.5t51 6.5l30 143h-109l27 123h283l-77 -355q-23 -7 -53 -14.5t-64.5 -13.5t-71 -9.5t-71.5 -3.5
q-62 0 -111.5 12.5t-84 40.5t-53 72t-18.5 106q0 29 3.5 57t11.5 60q23 97 63 162.5t94.5 105.5t122.5 57t146 17q25 0 53.5 -2t55.5 -5t51 -7.5t41 -8.5zM459 907q-1 -5 -1.5 -9t-0.5 -8q0 -37 31 -37q18 0 32 12.5t22 41.5h122q-22 -82 -68 -113.5t-117 -31.5
q-65 0 -103.5 26.5t-38.5 87.5q0 6 0.5 15t1.5 16h120z" />
    <glyph glyph-name="Gdotaccent" unicode="&#x120;" horiz-adv-x="670" 
d="M684 533q-18 4 -40.5 8t-48 7.5t-52.5 5.5t-54 2q-47 0 -82.5 -12t-61.5 -38t-45 -68t-33 -102q-8 -33 -12 -59t-4 -51q0 -69 22.5 -93.5t74.5 -24.5q19 0 42 2.5t51 6.5l30 143h-109l27 123h283l-77 -355q-23 -7 -53 -14.5t-64.5 -13.5t-71 -9.5t-71.5 -3.5
q-62 0 -111.5 12.5t-84 40.5t-53 72t-18.5 106q0 29 3.5 57t11.5 60q23 97 63 162.5t94.5 105.5t122.5 57t146 17q25 0 53.5 -2t55.5 -5t51 -7.5t41 -8.5zM472 769q-35 0 -54.5 13t-19.5 39q0 38 29 60t73 22q35 0 54.5 -13t19.5 -39q0 -38 -29 -60t-73 -22z" />
    <glyph glyph-name="Gcommaaccent" unicode="&#x122;" horiz-adv-x="670" 
d="M684 533q-18 4 -40.5 8t-48 7.5t-52.5 5.5t-54 2q-47 0 -82.5 -12t-61.5 -38t-45 -68t-33 -102q-8 -33 -12 -59t-4 -51q0 -69 22.5 -93.5t74.5 -24.5q19 0 42 2.5t51 6.5l30 143h-109l27 123h283l-77 -355q-23 -7 -53 -14.5t-64.5 -13.5t-71 -9.5t-71.5 -3.5
q-62 0 -111.5 12.5t-84 40.5t-53 72t-18.5 106q0 29 3.5 57t11.5 60q23 97 63 162.5t94.5 105.5t122.5 57t146 17q25 0 53.5 -2t55.5 -5t51 -7.5t41 -8.5zM453 -46l-130 -142h-127l91 142h166z" />
    <glyph glyph-name="Hcircumflex" unicode="&#x124;" horiz-adv-x="711" 
d="M373 665l-57 -262h214l57 262h176l-145 -665h-176l60 278h-214l-60 -278h-175l145 665h175zM597 916l69 -161h-123l-30 80l-62 -80h-138l139 161h145z" />
    <glyph glyph-name="Hbar" unicode="&#x126;" horiz-adv-x="738" 
d="M386 665l-17 -80h214l17 80h176l-17 -80h79l-19 -86h-80l-108 -499h-176l60 278h-214l-60 -278h-175l109 499h-80l19 86h80l17 80h175zM543 403l21 96h-214l-21 -96h214z" />
    <glyph glyph-name="Igrave" unicode="&#xcc;" horiz-adv-x="321" 
d="M373 665l-145 -665h-175l145 665h175zM315 916l40 -161h-120l-88 161h168z" />
    <glyph glyph-name="Iacute" unicode="&#xcd;" horiz-adv-x="321" 
d="M373 665l-145 -665h-175l145 665h175zM500 916l-145 -161h-125l95 161h175z" />
    <glyph glyph-name="Icircumflex" unicode="&#xce;" horiz-adv-x="321" 
d="M373 665l-145 -665h-175l145 665h175zM403 916l69 -161h-123l-30 80l-62 -80h-138l139 161h145z" />
    <glyph glyph-name="Itilde" unicode="&#x128;" horiz-adv-x="321" 
d="M373 665l-145 -665h-175l145 665h175zM138 810q16 36 41 62t70 26q23 0 40.5 -5t31 -11.5t23.5 -11.5t18 -5q13 0 21 10.5t16 27.5l89 -42q-20 -41 -46 -67.5t-68 -26.5q-23 0 -40.5 5.5t-30.5 12.5t-22.5 12.5t-16.5 5.5q-14 0 -23 -12t-15 -25z" />
    <glyph glyph-name="Idieresis" unicode="&#xcf;" horiz-adv-x="321" 
d="M373 665l-145 -665h-175l145 665h175zM205 771q-32 0 -50 13t-18 36q0 35 27 57t69 22q32 0 50 -13t18 -36q0 -35 -27 -57t-69 -22zM394 771q-32 0 -50 13t-18 36q0 35 27 57t69 22q32 0 50 -13t18 -36q0 -35 -27 -57t-69 -22z" />
    <glyph glyph-name="Imacron" unicode="&#x12a;" horiz-adv-x="321" 
d="M373 665l-145 -665h-175l145 665h175zM473 881l-20 -90h-299l20 90h299z" />
    <glyph glyph-name="Ibreve" unicode="&#x12c;" horiz-adv-x="321" 
d="M373 665l-145 -665h-175l145 665h175zM287 908q-1 -5 -1.5 -9t-0.5 -8q0 -37 31 -37q18 0 32 12.5t22 41.5h122q-22 -82 -68 -113.5t-117 -31.5q-65 0 -103.5 26.5t-38.5 87.5q0 6 0.5 15t1.5 16h120z" />
    <glyph glyph-name="Idotaccent" unicode="&#x130;" horiz-adv-x="321" 
d="M373 665l-145 -665h-175l145 665h175zM300 769q-35 0 -54.5 13t-19.5 39q0 38 29 60t73 22q35 0 54.5 -13t19.5 -39q0 -38 -29 -60t-73 -22z" />
    <glyph glyph-name="Iogonek" unicode="&#x12e;" horiz-adv-x="321" 
d="M218 -182q-36 -18 -85 -18t-79 21.5t-30 59.5q0 22 7.5 40t20 32.5t28.5 26t34 20.5h-61l145 665h175l-145 -665q-12 -9 -24.5 -19.5t-23 -22t-17 -23t-6.5 -22.5q0 -18 20 -18q10 0 24.5 3t34.5 11z" />
    <glyph glyph-name="Jcircumflex" unicode="&#x134;" horiz-adv-x="321" 
d="M375 665l-121 -559q-13 -58 -42.5 -105t-68 -84.5t-82.5 -67t-86 -52.5l-58 94q31 24 57 46t46 46t34.5 52t22.5 65l122 565h176zM410 916l69 -161h-123l-30 80l-62 -80h-138l139 161h145z" />
    <glyph glyph-name="Kcommaaccent" unicode="&#x136;" horiz-adv-x="644" 
d="M373 665l-66 -297l294 297h179l-300 -296q27 -11 45.5 -27.5t31.5 -39t21.5 -51.5t15.5 -63l35 -188h-179l-25 151q-8 48 -23.5 74.5t-46.5 34.5l-91 -89l-36 -171h-175l145 665h175zM413 -46l-130 -142h-127l91 142h166z" />
    <glyph glyph-name="Lacute" unicode="&#x139;" horiz-adv-x="499" 
d="M373 665l-119 -547h238l-25 -118h-414l145 665h175zM499 916l-145 -161h-125l95 161h175z" />
    <glyph glyph-name="Lcaron" unicode="&#x13d;" horiz-adv-x="499" 
d="M373 665l-119 -547h238l-25 -118h-414l145 665h175zM219 755l-68 161h123l31 -80l62 80h138l-138 -161h-148z" />
    <glyph glyph-name="Lcommaaccent" unicode="&#x13b;" horiz-adv-x="499" 
d="M373 665l-119 -547h238l-25 -118h-414l145 665h175zM351 -46l-130 -142h-127l91 142h166z" />
    <glyph glyph-name="Lslash" unicode="&#x141;" horiz-adv-x="518" 
d="M392 665l-52 -240l174 65l-27 -121l-174 -67l-40 -184h238l-25 -118h-414l50 230l-86 -32l26 121l87 33l68 313h175z" />
    <glyph glyph-name="Nacute" unicode="&#x143;" horiz-adv-x="719" 
d="M338 665l189 -343l73 343h171l-145 -665h-171l28 133l-166 293l-93 -426h-171l145 665h140zM680 916l-145 -161h-125l95 161h175z" />
    <glyph glyph-name="Ncaron" unicode="&#x147;" horiz-adv-x="719" 
d="M338 665l189 -343l73 343h171l-145 -665h-171l28 133l-166 293l-93 -426h-171l145 665h140zM420 755l-68 161h123l31 -80l62 80h138l-138 -161h-148z" />
    <glyph glyph-name="Ntilde" unicode="&#xd1;" horiz-adv-x="719" 
d="M338 665l189 -343l73 343h171l-145 -665h-171l28 133l-166 293l-93 -426h-171l145 665h140zM337 810q16 36 41 62t70 26q23 0 40.5 -5t31 -11.5t23.5 -11.5t18 -5q13 0 21 10.5t16 27.5l89 -42q-20 -41 -46 -67.5t-68 -26.5q-23 0 -40.5 5.5t-30.5 12.5t-22.5 12.5
t-16.5 5.5q-14 0 -23 -12t-15 -25z" />
    <glyph glyph-name="Ncommaaccent" unicode="&#x145;" horiz-adv-x="719" 
d="M338 665l189 -343l73 343h171l-145 -665h-171l28 133l-166 293l-93 -426h-171l145 665h140zM433 -46l-130 -142h-127l91 142h166z" />
    <glyph glyph-name="Ograve" unicode="&#xd2;" horiz-adv-x="657" 
d="M457 677q236 0 236 -220q0 -31 -4 -59.5t-12 -66.5q-39 -178 -130.5 -261t-241.5 -83q-121 0 -179 55.5t-58 166.5q0 29 4 57.5t12 64.5q41 176 132 261t241 85zM431 556q-57 0 -98 -52t-66 -172q-8 -35 -12 -64.5t-4 -52.5q0 -60 20 -83.5t62 -23.5q28 0 51.5 11
t43.5 37.5t36.5 69.5t30.5 106q15 70 15 116q0 60 -19 84t-60 24zM470 916l40 -161h-120l-88 161h168z" />
    <glyph glyph-name="Oacute" unicode="&#xd3;" horiz-adv-x="657" 
d="M457 677q236 0 236 -220q0 -31 -4 -59.5t-12 -66.5q-39 -178 -130.5 -261t-241.5 -83q-121 0 -179 55.5t-58 166.5q0 29 4 57.5t12 64.5q41 176 132 261t241 85zM431 556q-57 0 -98 -52t-66 -172q-8 -35 -12 -64.5t-4 -52.5q0 -60 20 -83.5t62 -23.5q28 0 51.5 11
t43.5 37.5t36.5 69.5t30.5 106q15 70 15 116q0 60 -19 84t-60 24zM662 916l-145 -161h-125l95 161h175z" />
    <glyph glyph-name="Ocircumflex" unicode="&#xd4;" horiz-adv-x="657" 
d="M457 677q236 0 236 -220q0 -31 -4 -59.5t-12 -66.5q-39 -178 -130.5 -261t-241.5 -83q-121 0 -179 55.5t-58 166.5q0 29 4 57.5t12 64.5q41 176 132 261t241 85zM431 556q-57 0 -98 -52t-66 -172q-8 -35 -12 -64.5t-4 -52.5q0 -60 20 -83.5t62 -23.5q28 0 51.5 11
t43.5 37.5t36.5 69.5t30.5 106q15 70 15 116q0 60 -19 84t-60 24zM571 916l69 -161h-123l-30 80l-62 -80h-138l139 161h145z" />
    <glyph glyph-name="Otilde" unicode="&#xd5;" horiz-adv-x="657" 
d="M457 677q236 0 236 -220q0 -31 -4 -59.5t-12 -66.5q-39 -178 -130.5 -261t-241.5 -83q-121 0 -179 55.5t-58 166.5q0 29 4 57.5t12 64.5q41 176 132 261t241 85zM431 556q-57 0 -98 -52t-66 -172q-8 -35 -12 -64.5t-4 -52.5q0 -60 20 -83.5t62 -23.5q28 0 51.5 11
t43.5 37.5t36.5 69.5t30.5 106q15 70 15 116q0 60 -19 84t-60 24zM306 810q16 36 41 62t70 26q23 0 40.5 -5t31 -11.5t23.5 -11.5t18 -5q13 0 21 10.5t16 27.5l89 -42q-20 -41 -46 -67.5t-68 -26.5q-23 0 -40.5 5.5t-30.5 12.5t-22.5 12.5t-16.5 5.5q-14 0 -23 -12t-15 -25z
" />
    <glyph glyph-name="Odieresis" unicode="&#xd6;" horiz-adv-x="657" 
d="M457 677q236 0 236 -220q0 -31 -4 -59.5t-12 -66.5q-39 -178 -130.5 -261t-241.5 -83q-121 0 -179 55.5t-58 166.5q0 29 4 57.5t12 64.5q41 176 132 261t241 85zM431 556q-57 0 -98 -52t-66 -172q-8 -35 -12 -64.5t-4 -52.5q0 -60 20 -83.5t62 -23.5q28 0 51.5 11
t43.5 37.5t36.5 69.5t30.5 106q15 70 15 116q0 60 -19 84t-60 24zM373 771q-32 0 -50 13t-18 36q0 35 27 57t69 22q32 0 50 -13t18 -36q0 -35 -27 -57t-69 -22zM562 771q-32 0 -50 13t-18 36q0 35 27 57t69 22q32 0 50 -13t18 -36q0 -35 -27 -57t-69 -22z" />
    <glyph glyph-name="Omacron" unicode="&#x14c;" horiz-adv-x="657" 
d="M457 677q236 0 236 -220q0 -31 -4 -59.5t-12 -66.5q-39 -178 -130.5 -261t-241.5 -83q-121 0 -179 55.5t-58 166.5q0 29 4 57.5t12 64.5q41 176 132 261t241 85zM431 556q-57 0 -98 -52t-66 -172q-8 -35 -12 -64.5t-4 -52.5q0 -60 20 -83.5t62 -23.5q28 0 51.5 11
t43.5 37.5t36.5 69.5t30.5 106q15 70 15 116q0 60 -19 84t-60 24zM641 880l-20 -90h-299l20 90h299z" />
    <glyph glyph-name="Obreve" unicode="&#x14e;" horiz-adv-x="657" 
d="M457 677q236 0 236 -220q0 -31 -4 -59.5t-12 -66.5q-39 -178 -130.5 -261t-241.5 -83q-121 0 -179 55.5t-58 166.5q0 29 4 57.5t12 64.5q41 176 132 261t241 85zM431 556q-57 0 -98 -52t-66 -172q-8 -35 -12 -64.5t-4 -52.5q0 -60 20 -83.5t62 -23.5q28 0 51.5 11
t43.5 37.5t36.5 69.5t30.5 106q15 70 15 116q0 60 -19 84t-60 24zM455 907q-1 -5 -1.5 -9t-0.5 -8q0 -37 31 -37q18 0 32 12.5t22 41.5h122q-22 -82 -68 -113.5t-117 -31.5q-65 0 -103.5 26.5t-38.5 87.5q0 6 0.5 15t1.5 16h120z" />
    <glyph glyph-name="Ohungarumlaut" unicode="&#x150;" horiz-adv-x="657" 
d="M457 677q236 0 236 -220q0 -31 -4 -59.5t-12 -66.5q-39 -178 -130.5 -261t-241.5 -83q-121 0 -179 55.5t-58 166.5q0 29 4 57.5t12 64.5q41 176 132 261t241 85zM431 556q-57 0 -98 -52t-66 -172q-8 -35 -12 -64.5t-4 -52.5q0 -60 20 -83.5t62 -23.5q28 0 51.5 11
t43.5 37.5t36.5 69.5t30.5 106q15 70 15 116q0 60 -19 84t-60 24zM703 916l-111 -161h-112l75 161h148zM512 916l-75 -161h-110l52 161h133z" />
    <glyph glyph-name="Oslash" unicode="&#xd8;" horiz-adv-x="657" 
d="M457 677q84 0 139 -29l79 93l61 -49l-81 -96q38 -53 38 -139q0 -31 -4 -59.5t-12 -66.5q-39 -178 -130.5 -261t-241.5 -83q-89 0 -143 30l-78 -92l-60 49l80 95q-36 52 -36 140q0 29 4 57.5t12 64.5q41 176 132 261t241 85zM495 332q5 27 8.5 50t5.5 43l-243 -286
q18 -31 67 -31q28 0 51.5 11t43.5 37.5t36.5 69.5t30.5 106zM431 556q-57 0 -98 -52t-66 -172q-10 -50 -15 -89l241 284q-19 29 -62 29z" />
    <glyph glyph-name="Oslashacute" unicode="&#x1fe;" horiz-adv-x="657" 
d="M457 677q84 0 139 -29l79 93l61 -49l-81 -96q38 -53 38 -139q0 -31 -4 -59.5t-12 -66.5q-39 -178 -130.5 -261t-241.5 -83q-89 0 -143 30l-78 -92l-60 49l80 95q-36 52 -36 140q0 29 4 57.5t12 64.5q41 176 132 261t241 85zM495 332q5 27 8.5 50t5.5 43l-243 -286
q18 -31 67 -31q28 0 51.5 11t43.5 37.5t36.5 69.5t30.5 106zM431 556q-57 0 -98 -52t-66 -172q-10 -50 -15 -89l241 284q-19 29 -62 29zM662 916l-145 -161h-125l95 161h175z" />
    <glyph glyph-name="OE" unicode="&#x152;" horiz-adv-x="921" 
d="M995 665l-26 -118h-250l-33 -151h233l-26 -118h-233l-20 -92q-3 -11 -3 -20q0 -29 18 -38.5t46 -9.5h185l-26 -118h-193q-65 0 -106.5 9.5t-62.5 36.5q-67 -58 -193 -58q-121 0 -179 55t-58 165q0 29 4 58t12 65q41 176 132 261t241 85q42 0 73.5 -12t51.5 -31l6 31h407z
M495 332q15 70 15 116q0 60 -19 84t-60 24q-57 0 -98 -52t-66 -172q-8 -35 -12 -64.5t-4 -52.5q0 -60 20 -83.5t62 -23.5q28 0 51.5 11t43.5 37.5t36.5 69.5t30.5 106z" />
    <glyph glyph-name="Racute" unicode="&#x154;" horiz-adv-x="606" 
d="M421 665q112 0 168 -38.5t56 -125.5q0 -56 -15.5 -93t-39 -60.5t-51 -37.5t-52.5 -22q38 -14 57 -42t23 -79l12 -167h-182l-9 131q-2 30 -5.5 48t-10 27.5t-18 12.5t-28.5 3q-10 0 -23.5 1.5t-25.5 3.5l-49 -227h-175l145 665h223zM305 347q8 -2 20.5 -3t23.5 -1
q51 0 86 34t35 109q0 36 -18 48.5t-56 12.5h-49zM645 916l-145 -161h-125l95 161h175z" />
    <glyph glyph-name="Rcaron" unicode="&#x158;" horiz-adv-x="606" 
d="M421 665q112 0 168 -38.5t56 -125.5q0 -56 -15.5 -93t-39 -60.5t-51 -37.5t-52.5 -22q38 -14 57 -42t23 -79l12 -167h-182l-9 131q-2 30 -5.5 48t-10 27.5t-18 12.5t-28.5 3q-10 0 -23.5 1.5t-25.5 3.5l-49 -227h-175l145 665h223zM305 347q8 -2 20.5 -3t23.5 -1
q51 0 86 34t35 109q0 36 -18 48.5t-56 12.5h-49zM371 755l-68 161h123l31 -80l62 80h138l-138 -161h-148z" />
    <glyph glyph-name="Rcommaaccent" unicode="&#x156;" horiz-adv-x="606" 
d="M421 665q112 0 168 -38.5t56 -125.5q0 -56 -15.5 -93t-39 -60.5t-51 -37.5t-52.5 -22q38 -14 57 -42t23 -79l12 -167h-182l-9 131q-2 30 -5.5 48t-10 27.5t-18 12.5t-28.5 3q-10 0 -23.5 1.5t-25.5 3.5l-49 -227h-175l145 665h223zM305 347q8 -2 20.5 -3t23.5 -1
q51 0 86 34t35 109q0 36 -18 48.5t-56 12.5h-49zM390 -46l-130 -142h-127l91 142h166z" />
    <glyph glyph-name="Sacute" unicode="&#x15a;" horiz-adv-x="531" 
d="M566 537q-34 6 -78.5 12.5t-79.5 6.5q-21 0 -42 -1t-37.5 -6.5t-26.5 -16.5t-10 -30t16.5 -39t41 -42t53.5 -46t53.5 -51.5t41 -59t16.5 -67.5q0 -57 -19.5 -97t-55.5 -65t-87.5 -36.5t-115.5 -11.5q-63 0 -113.5 8t-86.5 20l27 123q42 -12 87.5 -21t97.5 -9q17 0 33 2
t28 8t19.5 17t7.5 30q0 21 -15.5 43.5t-39.5 46t-51 49t-51 53t-39.5 57.5t-15.5 63q0 61 24 99.5t63.5 61t91 31t106.5 8.5q53 0 102.5 -6t81.5 -13zM573 916l-145 -161h-125l95 161h175z" />
    <glyph glyph-name="Scircumflex" unicode="&#x15c;" horiz-adv-x="531" 
d="M566 537q-34 6 -78.5 12.5t-79.5 6.5q-21 0 -42 -1t-37.5 -6.5t-26.5 -16.5t-10 -30t16.5 -39t41 -42t53.5 -46t53.5 -51.5t41 -59t16.5 -67.5q0 -57 -19.5 -97t-55.5 -65t-87.5 -36.5t-115.5 -11.5q-63 0 -113.5 8t-86.5 20l27 123q42 -12 87.5 -21t97.5 -9q17 0 33 2
t28 8t19.5 17t7.5 30q0 21 -15.5 43.5t-39.5 46t-51 49t-51 53t-39.5 57.5t-15.5 63q0 61 24 99.5t63.5 61t91 31t106.5 8.5q53 0 102.5 -6t81.5 -13zM490 916l69 -161h-123l-30 80l-62 -80h-138l139 161h145z" />
    <glyph glyph-name="Scaron" unicode="&#x160;" horiz-adv-x="531" 
d="M566 537q-34 6 -78.5 12.5t-79.5 6.5q-21 0 -42 -1t-37.5 -6.5t-26.5 -16.5t-10 -30t16.5 -39t41 -42t53.5 -46t53.5 -51.5t41 -59t16.5 -67.5q0 -57 -19.5 -97t-55.5 -65t-87.5 -36.5t-115.5 -11.5q-63 0 -113.5 8t-86.5 20l27 123q42 -12 87.5 -21t97.5 -9q17 0 33 2
t28 8t19.5 17t7.5 30q0 21 -15.5 43.5t-39.5 46t-51 49t-51 53t-39.5 57.5t-15.5 63q0 61 24 99.5t63.5 61t91 31t106.5 8.5q53 0 102.5 -6t81.5 -13zM301 755l-68 161h123l31 -80l62 80h138l-138 -161h-148z" />
    <glyph glyph-name="Scedilla" unicode="&#x15e;" horiz-adv-x="531" 
d="M566 537q-34 6 -78.5 12.5t-79.5 6.5q-21 0 -42 -1t-37.5 -6.5t-26.5 -16.5t-10 -30t16.5 -39t41 -42t53.5 -46t53.5 -51.5t41 -59t16.5 -67.5q0 -57 -19.5 -97t-55.5 -65t-87.5 -36.5t-115.5 -11.5q-63 0 -113.5 8t-86.5 20l27 123q42 -12 87.5 -21t97.5 -9q17 0 33 2
t28 8t19.5 17t7.5 30q0 21 -15.5 43.5t-39.5 46t-51 49t-51 53t-39.5 57.5t-15.5 63q0 61 24 99.5t63.5 61t91 31t106.5 8.5q53 0 102.5 -6t81.5 -13zM329 -35q16 -27 16 -60q-1 -48 -34.5 -78.5t-102.5 -30.5q-26 0 -50 5t-40 12l21 90q14 -5 27.5 -8.5t24.5 -3.5
q17 0 23 9t6 28q0 6 -2 16.5t-6 20.5h117z" />
    <glyph glyph-name="Scommaaccent" unicode="&#x218;" horiz-adv-x="531" 
d="M566 537q-34 6 -78.5 12.5t-79.5 6.5q-21 0 -42 -1t-37.5 -6.5t-26.5 -16.5t-10 -30t16.5 -39t41 -42t53.5 -46t53.5 -51.5t41 -59t16.5 -67.5q0 -57 -19.5 -97t-55.5 -65t-87.5 -36.5t-115.5 -11.5q-63 0 -113.5 8t-86.5 20l27 123q42 -12 87.5 -21t97.5 -9q17 0 33 2
t28 8t19.5 17t7.5 30q0 21 -15.5 43.5t-39.5 46t-51 49t-51 53t-39.5 57.5t-15.5 63q0 61 24 99.5t63.5 61t91 31t106.5 8.5q53 0 102.5 -6t81.5 -13zM364 -46l-130 -142h-127l91 142h166z" />
    <glyph glyph-name="Tcaron" unicode="&#x164;" horiz-adv-x="562" 
d="M681 665l-26 -118h-187l-119 -547h-175l119 547h-187l25 118h550zM341 755l-68 161h123l31 -80l62 80h138l-138 -161h-148z" />
    <glyph glyph-name="Tcommaaccent" unicode="&#x162;" horiz-adv-x="562" 
d="M681 665l-26 -118h-187l-119 -547h-175l119 547h-187l25 118h550zM333 -46l-130 -142h-127l91 142h166z" />
    <glyph glyph-name="Tbar" unicode="&#x166;" horiz-adv-x="562" 
d="M253 361l40 186h-187l25 118h550l-26 -118h-187l-40 -186h138l-26 -117h-138l-53 -244h-175l53 244h-138l26 117h138z" />
    <glyph glyph-name="Ugrave" unicode="&#xd9;" horiz-adv-x="672" 
d="M361 665l-100 -456q-2 -8 -3 -16.5t-1 -14.5q0 -21 7.5 -34.5t20.5 -22t29.5 -11.5t34.5 -3q23 0 45.5 3t39.5 8l119 547h176l-141 -635q-56 -17 -125.5 -29.5t-137.5 -12.5q-49 0 -93.5 8.5t-78.5 28.5t-54 53.5t-20 83.5q0 17 1.5 28.5t5.5 29.5l99 445h176zM470 916
l40 -161h-120l-88 161h168z" />
    <glyph glyph-name="Uacute" unicode="&#xda;" horiz-adv-x="672" 
d="M361 665l-100 -456q-2 -8 -3 -16.5t-1 -14.5q0 -21 7.5 -34.5t20.5 -22t29.5 -11.5t34.5 -3q23 0 45.5 3t39.5 8l119 547h176l-141 -635q-56 -17 -125.5 -29.5t-137.5 -12.5q-49 0 -93.5 8.5t-78.5 28.5t-54 53.5t-20 83.5q0 17 1.5 28.5t5.5 29.5l99 445h176zM673 916
l-145 -161h-125l95 161h175z" />
    <glyph glyph-name="Ucircumflex" unicode="&#xdb;" horiz-adv-x="672" 
d="M361 665l-100 -456q-2 -8 -3 -16.5t-1 -14.5q0 -21 7.5 -34.5t20.5 -22t29.5 -11.5t34.5 -3q23 0 45.5 3t39.5 8l119 547h176l-141 -635q-56 -17 -125.5 -29.5t-137.5 -12.5q-49 0 -93.5 8.5t-78.5 28.5t-54 53.5t-20 83.5q0 17 1.5 28.5t5.5 29.5l99 445h176zM578 916
l69 -161h-123l-30 80l-62 -80h-138l139 161h145z" />
    <glyph glyph-name="Utilde" unicode="&#x168;" horiz-adv-x="672" 
d="M361 665l-100 -456q-2 -8 -3 -16.5t-1 -14.5q0 -21 7.5 -34.5t20.5 -22t29.5 -11.5t34.5 -3q23 0 45.5 3t39.5 8l119 547h176l-141 -635q-56 -17 -125.5 -29.5t-137.5 -12.5q-49 0 -93.5 8.5t-78.5 28.5t-54 53.5t-20 83.5q0 17 1.5 28.5t5.5 29.5l99 445h176zM313 810
q16 36 41 62t70 26q23 0 40.5 -5t31 -11.5t23.5 -11.5t18 -5q13 0 21 10.5t16 27.5l89 -42q-20 -41 -46 -67.5t-68 -26.5q-23 0 -40.5 5.5t-30.5 12.5t-22.5 12.5t-16.5 5.5q-14 0 -23 -12t-15 -25z" />
    <glyph glyph-name="Udieresis" unicode="&#xdc;" horiz-adv-x="672" 
d="M361 665l-100 -456q-2 -8 -3 -16.5t-1 -14.5q0 -21 7.5 -34.5t20.5 -22t29.5 -11.5t34.5 -3q23 0 45.5 3t39.5 8l119 547h176l-141 -635q-56 -17 -125.5 -29.5t-137.5 -12.5q-49 0 -93.5 8.5t-78.5 28.5t-54 53.5t-20 83.5q0 17 1.5 28.5t5.5 29.5l99 445h176zM380 771
q-32 0 -50 13t-18 36q0 35 27 57t69 22q32 0 50 -13t18 -36q0 -35 -27 -57t-69 -22zM569 771q-32 0 -50 13t-18 36q0 35 27 57t69 22q32 0 50 -13t18 -36q0 -35 -27 -57t-69 -22z" />
    <glyph glyph-name="Umacron" unicode="&#x16a;" horiz-adv-x="672" 
d="M361 665l-100 -456q-2 -8 -3 -16.5t-1 -14.5q0 -21 7.5 -34.5t20.5 -22t29.5 -11.5t34.5 -3q23 0 45.5 3t39.5 8l119 547h176l-141 -635q-56 -17 -125.5 -29.5t-137.5 -12.5q-49 0 -93.5 8.5t-78.5 28.5t-54 53.5t-20 83.5q0 17 1.5 28.5t5.5 29.5l99 445h176zM648 880
l-20 -90h-299l20 90h299z" />
    <glyph glyph-name="Ubreve" unicode="&#x16c;" horiz-adv-x="672" 
d="M361 665l-100 -456q-2 -8 -3 -16.5t-1 -14.5q0 -21 7.5 -34.5t20.5 -22t29.5 -11.5t34.5 -3q23 0 45.5 3t39.5 8l119 547h176l-141 -635q-56 -17 -125.5 -29.5t-137.5 -12.5q-49 0 -93.5 8.5t-78.5 28.5t-54 53.5t-20 83.5q0 17 1.5 28.5t5.5 29.5l99 445h176zM462 907
q-1 -5 -1.5 -9t-0.5 -8q0 -37 31 -37q18 0 32 12.5t22 41.5h122q-22 -82 -68 -113.5t-117 -31.5q-65 0 -103.5 26.5t-38.5 87.5q0 6 0.5 15t1.5 16h120z" />
    <glyph glyph-name="Uring" unicode="&#x16e;" horiz-adv-x="672" 
d="M361 665l-100 -456q-2 -8 -3 -16.5t-1 -14.5q0 -21 7.5 -34.5t20.5 -22t29.5 -11.5t34.5 -3q23 0 45.5 3t39.5 8l119 547h176l-141 -635q-56 -17 -125.5 -29.5t-137.5 -12.5q-49 0 -93.5 8.5t-78.5 28.5t-54 53.5t-20 83.5q0 17 1.5 28.5t5.5 29.5l99 445h176zM481 803
q16 0 26.5 9t10.5 29q0 26 -24 26q-16 0 -25.5 -9.5t-9.5 -29.5q0 -12 4.5 -18.5t17.5 -6.5zM468 742q-50 0 -79 19.5t-29 56.5q0 31 11.5 52t32 34t47.5 18.5t57 5.5q49 0 78.5 -19.5t29.5 -56.5q0 -31 -12 -52t-32 -34t-47 -18.5t-57 -5.5z" />
    <glyph glyph-name="Uhungarumlaut" unicode="&#x170;" horiz-adv-x="672" 
d="M361 665l-100 -456q-2 -8 -3 -16.5t-1 -14.5q0 -21 7.5 -34.5t20.5 -22t29.5 -11.5t34.5 -3q23 0 45.5 3t39.5 8l119 547h176l-141 -635q-56 -17 -125.5 -29.5t-137.5 -12.5q-49 0 -93.5 8.5t-78.5 28.5t-54 53.5t-20 83.5q0 17 1.5 28.5t5.5 29.5l99 445h176zM701 916
l-111 -161h-112l75 161h148zM510 916l-75 -161h-110l52 161h133z" />
    <glyph glyph-name="Uogonek" unicode="&#x172;" horiz-adv-x="672" 
d="M574 -154q-36 -18 -85 -18t-79 21.5t-30 59.5q0 28 11 48.5t28 36.5q-47 -6 -94 -6q-49 0 -93.5 8.5t-78.5 28.5t-54 53.5t-20 83.5q0 17 1.5 28.5t5.5 29.5l99 445h176l-100 -456q-2 -8 -3 -16.5t-1 -14.5q0 -21 7.5 -34.5t20.5 -22t29.5 -11.5t34.5 -3q23 0 45.5 3
t39.5 8l119 547h176l-141 -635q-27 -19 -51 -43t-24 -46q0 -18 20 -18q10 0 24.5 3t34.5 11z" />
    <glyph glyph-name="Wgrave" unicode="&#x1e80;" horiz-adv-x="879" 
d="M582 916l40 -161h-120l-88 161h168zM522 0l-27 347l-179 -347h-177l-19 665h172l-1 -454l162 337h162l29 -337q27 47 53 103.5t51 116t47.5 119.5t40.5 115h168q-74 -200 -149 -365t-166 -300h-167z" />
    <glyph glyph-name="Wacute" unicode="&#x1e82;" horiz-adv-x="879" 
d="M781 916l-145 -161h-125l95 161h175zM522 0l-27 347l-179 -347h-177l-19 665h172l-1 -454l162 337h162l29 -337q27 47 53 103.5t51 116t47.5 119.5t40.5 115h168q-74 -200 -149 -365t-166 -300h-167z" />
    <glyph glyph-name="Wcircumflex" unicode="&#x174;" horiz-adv-x="879" 
d="M680 916l69 -161h-123l-30 80l-62 -80h-138l139 161h145zM522 0l-27 347l-179 -347h-177l-19 665h172l-1 -454l162 337h162l29 -337q27 47 53 103.5t51 116t47.5 119.5t40.5 115h168q-74 -200 -149 -365t-166 -300h-167z" />
    <glyph glyph-name="Wdieresis" unicode="&#x1e84;" horiz-adv-x="879" 
d="M482 771q-32 0 -50 13t-18 36q0 35 27 57t69 22q32 0 50 -13t18 -36q0 -35 -27 -57t-69 -22zM671 771q-32 0 -50 13t-18 36q0 35 27 57t69 22q32 0 50 -13t18 -36q0 -35 -27 -57t-69 -22zM522 0l-27 347l-179 -347h-177l-19 665h172l-1 -454l162 337h162l29 -337
q27 47 53 103.5t51 116t47.5 119.5t40.5 115h168q-74 -200 -149 -365t-166 -300h-167z" />
    <glyph glyph-name="Ygrave" unicode="&#x1ef2;" horiz-adv-x="595" 
d="M459 916l40 -161h-120l-88 161h168zM245 232l-142 433h178l86 -290q53 57 98 133.5t78 156.5h167q-26 -54 -55 -112.5t-65 -116t-79 -110t-95 -94.5l-52 -232h-171z" />
    <glyph glyph-name="Yacute" unicode="&#xdd;" horiz-adv-x="612" 
d="M630 916l-145 -161h-125l95 161h175zM257 232l-142 433h178l86 -290q53 57 98 133.5t78 156.5h167q-26 -54 -55 -112.5t-65 -116t-79 -110t-95 -94.5l-52 -232h-171z" />
    <glyph glyph-name="Ycircumflex" unicode="&#x176;" horiz-adv-x="595" 
d="M524 916l69 -161h-123l-30 80l-62 -80h-138l139 161h145zM245 232l-142 433h178l86 -290q53 57 98 133.5t78 156.5h167q-26 -54 -55 -112.5t-65 -116t-79 -110t-95 -94.5l-52 -232h-171z" />
    <glyph glyph-name="Ydieresis" unicode="&#x178;" horiz-adv-x="595" 
d="M329 771q-32 0 -50 13t-18 36q0 35 27 57t69 22q32 0 50 -13t18 -36q0 -35 -27 -57t-69 -22zM518 771q-32 0 -50 13t-18 36q0 35 27 57t69 22q32 0 50 -13t18 -36q0 -35 -27 -57t-69 -22zM245 232l-142 433h178l86 -290q53 57 98 133.5t78 156.5h167q-26 -54 -55 -112.5
t-65 -116t-79 -110t-95 -94.5l-52 -232h-171z" />
    <glyph glyph-name="Zacute" unicode="&#x179;" horiz-adv-x="572" 
d="M634 665v-111l-395 -435h310l-25 -119h-490v111l396 436h-292l25 118h471zM608 916l-145 -161h-125l95 161h175z" />
    <glyph glyph-name="Zcaron" unicode="&#x17d;" horiz-adv-x="572" 
d="M634 665v-111l-395 -435h310l-25 -119h-490v111l396 436h-292l25 118h471zM348 755l-68 161h123l31 -80l62 80h138l-138 -161h-148z" />
    <glyph glyph-name="Zdotaccent" unicode="&#x17b;" horiz-adv-x="572" 
d="M634 665v-111l-395 -435h310l-25 -119h-490v111l396 436h-292l25 118h471zM428 768q-35 0 -54.5 13t-19.5 39q0 38 29 60t73 22q35 0 54.5 -13t19.5 -39q0 -38 -29 -60t-73 -22z" />
    <glyph glyph-name="Eng" unicode="&#x14a;" horiz-adv-x="719" 
d="M771 665l-123 -560q-13 -59 -42.5 -105.5t-68 -84t-82.5 -66.5t-86 -52l-59 94q31 24 57.5 46.5t47 47t35.5 52.5t25 64l9 33l-167 292l-93 -426h-171l145 665h140l189 -343l73 343h171z" />
    <glyph glyph-name="Eth" unicode="&#xd0;" horiz-adv-x="678" 
d="M474 665q116 0 178.5 -55t62.5 -164q0 -27 -3 -49t-10 -54q-16 -75 -44 -140t-76 -113t-119 -75.5t-174 -27.5q-46 0 -98.5 6t-112.5 20l57 263h-80l26 117h80l60 272h253zM336 393h124l-25 -117h-125l-36 -164q11 -2 28 -3t29 -1q44 0 74.5 15.5t52 45.5t36.5 73t27 98
q6 28 9.5 52.5t3.5 44.5q0 60 -21.5 85t-65.5 25h-78z" />
    <glyph glyph-name="Thorn" unicode="&#xde;" horiz-adv-x="591" 
d="M373 665l-24 -110h48q112 0 168 -38t56 -130q0 -64 -21.5 -115t-60.5 -87t-93.5 -55t-120.5 -19q-36 0 -72 6l-25 -117h-175l145 665h175zM281 236q11 -2 22 -3t22 -1q51 0 86 34t35 109q0 37 -18 49.5t-56 12.5h-49z" />
    <glyph glyph-name="a" unicode="a" horiz-adv-x="563" 
d="M394 377q-22 7 -42 7q-27 0 -45.5 -12t-31.5 -32.5t-21 -47.5t-13 -57q-2 -16 -3.5 -32t-1.5 -30q0 -31 8 -46.5t32 -15.5q17 0 35.5 8.5t31.5 17.5zM515 155q-1 -5 -1.5 -9t-0.5 -8q0 -13 5.5 -20t20.5 -7t26 2t22 5l-21 -117q-17 -5 -34 -9t-42 -4q-41 0 -70.5 11
t-43.5 36q-29 -22 -64 -34.5t-77 -12.5q-79 0 -125 40.5t-46 132.5q0 40 6 78q10 59 33.5 107t60.5 82t87.5 52.5t115.5 18.5q58 0 116 -12.5t100 -29.5z" />
    <glyph glyph-name="b" unicode="b" horiz-adv-x="548" 
d="M206 730h172l-52 -239q18 3 36 5.5t32 2.5q88 0 134.5 -41t46.5 -128q0 -19 -1 -40.5t-6 -46.5q-14 -75 -42.5 -124.5t-67.5 -78.5t-86 -40.5t-98 -11.5q-23 0 -52 3t-59.5 8.5t-59 13.5t-49.5 17zM242 110q12 -3 23.5 -4.5t27.5 -1.5q18 0 32.5 7t27 24.5t23 45.5
t19.5 70q9 43 9 71q0 36 -11.5 48.5t-35.5 12.5q-14 0 -31 -2t-26 -4z" />
    <glyph glyph-name="c" unicode="c" horiz-adv-x="418" 
d="M458 370q-20 5 -45.5 9.5t-55.5 4.5q-52 0 -79.5 -41t-36.5 -110q-2 -14 -3 -30.5t-1 -33.5q0 -35 13 -50t48 -15q25 0 50.5 5.5t51.5 12.5l-13 -115q-13 -5 -30.5 -8.5t-36.5 -5.5t-38.5 -3.5t-36.5 -1.5q-90 0 -135.5 41t-45.5 130q0 18 1.5 37t3.5 36q8 58 29.5 107
t58 84.5t87.5 55.5t117 20q14 0 31.5 -1t35 -3t33 -4.5t25.5 -4.5z" />
    <glyph glyph-name="d" unicode="d" horiz-adv-x="563" 
d="M515 155q-1 -5 -1.5 -9t-0.5 -8q0 -12 4.5 -19.5t18.5 -7.5q10 0 21.5 2t29.5 7l-21 -119q-17 -5 -35.5 -9t-44.5 -4q-41 0 -69 11t-41 36q-29 -22 -64 -34.5t-77 -12.5q-79 0 -125 40.5t-46 132.5q0 39 6 77q10 59 33.5 107.5t60.5 82.5t87.5 52.5t115.5 18.5
q15 0 28.5 -0.5t27.5 -2.5l51 234h169zM394 377q-22 7 -42 7q-27 0 -45.5 -12t-31.5 -32.5t-21 -47.5t-13 -57q-2 -16 -3.5 -32t-1.5 -30q0 -31 8 -46.5t32 -15.5q17 0 35.5 8.5t31.5 17.5z" />
    <glyph glyph-name="e" unicode="e" horiz-adv-x="488" 
d="M242 194q-2 -9 -2 -14v-12q0 -37 18 -50.5t66 -13.5q14 0 31 2t35 5t34.5 7t30.5 9l-9 -113q-38 -12 -80.5 -19t-91.5 -7q-47 0 -85.5 9t-66 29.5t-43 53.5t-15.5 81q0 71 18 132.5t55 107.5t94 72t134 26q85 0 126 -36t41 -102q0 -43 -16 -75t-45.5 -53.5t-70.5 -32
t-92 -10.5q-17 0 -33 1t-33 3zM259 287q5 -1 13.5 -1h13.5q45 0 66 15.5t21 54.5q0 41 -37 41q-31 0 -48.5 -27.5t-28.5 -82.5z" />
    <glyph glyph-name="f" unicode="f" horiz-adv-x="352" 
d="M167 487l16 74q20 90 86.5 135.5t160.5 45.5q24 0 48 -2.5t45 -7.5l-25 -114q-20 3 -39 5t-35 2q-24 0 -43 -13t-27 -51l-16 -74h121l-25 -114h-121l-63 -287q-21 -97 -81 -170.5t-170 -132.5l-57 96q32 24 55 47.5t39.5 48.5t26.5 51.5t17 58.5l62 288h-70l25 114h70z
" />
    <glyph glyph-name="g" unicode="g" horiz-adv-x="541" 
d="M488 18q-15 -69 -42.5 -111.5t-65 -66.5t-85 -32t-101.5 -8q-22 0 -45.5 2t-45 5.5t-39.5 8t-29 8.5l25 116q12 -4 30 -8.5t38 -8t40.5 -6t38.5 -2.5q41 0 70 18.5t37 67.5l3 21q-20 -11 -43 -16.5t-55 -5.5t-60 10t-49 30.5t-33 52t-12 75.5q0 69 19 129.5t56.5 105
t94.5 70.5t134 26q58 0 115.5 -13t99.5 -30zM394 377q-8 2 -20.5 4.5t-26.5 2.5q-30 0 -50.5 -19.5t-34 -49.5t-19.5 -65.5t-6 -67.5q0 -31 8.5 -46.5t32.5 -15.5q16 0 34.5 9.5t31.5 20.5z" />
    <glyph glyph-name="h" unicode="h" horiz-adv-x="559" 
d="M381 730l-53 -237q39 6 79 6q80 0 127 -28t47 -97q0 -13 -2 -27t-5 -30l-68 -317h-171l68 311q3 13 3 25q0 27 -13 37t-36 10q-13 0 -29 -2t-24 -4l-82 -377h-170l158 730h171z" />
    <glyph glyph-name="i" unicode="i" horiz-adv-x="297" 
d="M323 487l-75 -335q-2 -10 -2 -17q0 -15 8 -20.5t20 -5.5q11 0 23.5 3.5t22.5 5.5l-21 -117q-17 -5 -36.5 -9t-42.5 -4q-28 0 -54.5 4.5t-47.5 17t-33.5 34t-12.5 54.5q0 8 1.5 21.5t3.5 23.5l74 344h172zM370 657q-9 -42 -40 -63.5t-76 -21.5q-38 0 -59.5 15t-21.5 46
q0 27 9.5 47t25.5 34t37.5 21t45.5 7q38 0 59.5 -15.5t21.5 -45.5v-11.5t-2 -12.5z" />
    <glyph glyph-name="j" unicode="j" horiz-adv-x="284" 
d="M327 487l-89 -401q-11 -50 -30.5 -92t-50 -79t-73 -69.5t-98.5 -62.5l-57 96q34 25 57 48t38.5 46.5t25 50.5t17.5 61l89 402h171zM375 657q-9 -42 -40 -63.5t-76 -21.5q-38 0 -59.5 15.5t-21.5 46.5q0 53 35 80.5t83 27.5q38 0 60 -15.5t22 -46.5q0 -11 -3 -23z" />
    <glyph glyph-name="k" unicode="k" horiz-adv-x="530" 
d="M376 730l-91 -421l162 178h169l-192 -196q77 -23 95 -163l16 -128h-181l-8 115q-3 41 -17.5 57t-33.5 18l-47 -43l-31 -147h-171l159 730h171z" />
    <glyph glyph-name="l" unicode="l" horiz-adv-x="311" 
d="M376 730l-126 -568q-2 -10 -2 -17q0 -20 9.5 -27t25.5 -7q10 0 24 1.5t40 5.5l-25 -117q-18 -5 -44 -9t-54 -4t-55 5t-48.5 17.5t-34.5 34.5t-13 55q0 8 1 20.5t3 22.5l128 587h171z" />
    <glyph glyph-name="m" unicode="m" horiz-adv-x="822" 
d="M152 459q20 6 46 13t55.5 13t62 10t65.5 4q47 0 84 -10t61 -28q38 17 80 27.5t82 10.5q75 0 117 -27.5t42 -93.5q0 -29 -7 -61l-69 -317h-171l69 311q3 15 3 27q0 26 -11 35.5t-34 9.5q-14 0 -29.5 -4t-26.5 -10q0 -12 -1.5 -28t-3.5 -24l-70 -317h-170l68 311
q2 7 2.5 14.5t0.5 12.5q0 26 -11 35.5t-33 9.5q-12 0 -26.5 -2t-22.5 -5l-82 -376h-171l101 459v0z" />
    <glyph glyph-name="n" unicode="n" horiz-adv-x="551" 
d="M146 459q20 6 47 13t57.5 13t63.5 10t66 4q90 0 143 -33.5t53 -104.5q0 -13 -1.5 -21t-4.5 -23l-70 -317h-171l69 311q2 8 3 15t1 13q0 44 -50 44q-12 0 -29 -2t-25 -4l-82 -377h-171l101 459v0z" />
    <glyph glyph-name="o" unicode="o" horiz-adv-x="534" 
d="M361 499q99 0 150.5 -43t51.5 -130q0 -70 -18 -131.5t-54.5 -107.5t-92 -72.5t-130.5 -26.5q-98 0 -150 42.5t-52 130.5q0 70 18 131.5t54.5 107.5t92 72.5t130.5 26.5zM345 383q-31 0 -51 -22t-32 -54.5t-17 -70t-5 -69.5q0 -35 9 -49t35 -14q31 0 51 21.5t32 54
t17 70.5t5 70q0 35 -9 49t-35 14z" />
    <glyph glyph-name="p" unicode="p" horiz-adv-x="547" 
d="M151 457q53 19 115 30.5t119 11.5q97 0 145.5 -40t48.5 -130q0 -22 -2 -42.5t-5 -40.5q-9 -56 -32 -103.5t-58 -82t-82.5 -53.5t-106.5 -19q-17 0 -36.5 2.5t-35.5 6.5l-41 -185h-170zM245 110q12 -3 23.5 -4.5t27.5 -1.5q18 0 32.5 7t27 24.5t23 45.5t19.5 70q9 43 9 71
q0 36 -11.5 48.5t-35.5 12.5q-14 0 -31 -2t-26 -4z" />
    <glyph glyph-name="q" unicode="q" horiz-adv-x="542" 
d="M441 -188h-171l44 196q-35 -20 -80 -20q-78 0 -124 40.5t-46 132.5q0 38 6 74q9 59 32 108t60 83.5t88.5 53.5t116.5 19q58 0 116 -12.5t100 -29.5zM394 377q-22 7 -42 7q-27 0 -45.5 -12t-31.5 -32.5t-21 -47.5t-13 -57q-2 -16 -3.5 -32t-1.5 -30q0 -31 8 -46.5
t32 -15.5q17 0 35.5 8.5t31.5 17.5z" />
    <glyph glyph-name="r" unicode="r" horiz-adv-x="390" 
d="M434 378q-35 0 -68.5 -1.5t-62.5 -5.5l-81 -371h-171l100 458q78 25 157.5 33t151.5 8z" />
    <glyph glyph-name="s" unicode="s" horiz-adv-x="433" 
d="M456 372q-9 2 -23.5 5t-32 5.5t-36.5 4.5t-36 2q-34 0 -51.5 -7.5t-17.5 -28.5q0 -12 12.5 -23.5t32 -23.5t41.5 -26t41.5 -32t32 -40t12.5 -50q0 -50 -20.5 -82.5t-53.5 -52t-75 -27.5t-86 -8q-20 0 -42.5 2t-44 5t-41 7t-34.5 9l25 113q24 -8 60.5 -16t74.5 -8
q32 0 48 8t16 29q0 13 -12 25t-30.5 24.5t-39.5 26.5t-39.5 32t-30.5 41t-12 53q0 48 20.5 79t55 49t79.5 25t95 7q41 0 77.5 -4.5t59.5 -9.5z" />
    <glyph glyph-name="t" unicode="t" horiz-adv-x="383" 
d="M367 621l-29 -134h122l-25 -114h-122l-49 -223q-1 -4 -1.5 -7t-0.5 -6q0 -17 11 -22.5t23 -5.5q17 0 38.5 4t38.5 9l-21 -117q-30 -10 -59.5 -13.5t-58.5 -3.5q-71 0 -107.5 31.5t-36.5 89.5q0 11 1 21.5t4 23.5l47 219h-70l25 114h70l58 134h142z" />
    <glyph glyph-name="u" unicode="u" 
d="M319 487l-71 -319q-3 -12 -3 -25q0 -14 6.5 -23t23.5 -9q20 0 40 10.5t39 28.5l75 337h171l-72 -325q-2 -8 -3 -15t-1 -12q0 -14 7 -19t19 -5q10 0 22 2t25 5l-21 -117q-18 -5 -40.5 -9t-51.5 -4q-35 0 -61 12.5t-39 35.5q-60 -48 -143 -48q-85 0 -124 35t-39 105
q0 16 1 35t6 39l63 285h171z" />
    <glyph glyph-name="v" unicode="v" horiz-adv-x="509" 
d="M148 0l-53 487h170l18 -320q38 69 74.5 152t64.5 168h162q-45 -119 -103.5 -242.5t-147.5 -244.5h-185z" />
    <glyph glyph-name="w" unicode="w" horiz-adv-x="843" 
d="M484 0l-7 308l-139 -308h-204l-34 487h164l9 -322l145 322h186l5 -326q42 68 77.5 150t69.5 176h157q-44 -122 -102 -243t-144 -244h-183z" />
    <glyph glyph-name="x" unicode="x" horiz-adv-x="494" 
d="M288 487l35 -136l104 136h172l-193 -238l92 -249h-182l-47 133l-103 -133h-172l195 239l-83 248h182z" />
    <glyph glyph-name="y" unicode="y" horiz-adv-x="556" 
d="M316 487l-67 -307q-3 -14 -3 -24q0 -17 8 -26.5t27 -9.5q16 0 34.5 8t34.5 22l76 337h171l-107 -485q-14 -62 -41 -101.5t-64.5 -62t-83.5 -30.5t-98 -8q-50 0 -95 8t-67 16l27 116q12 -4 29.5 -8.5t37 -8t40 -6t38.5 -2.5q20 0 37.5 3t31 12t22.5 24.5t14 40.5l5 27
q-39 -22 -84 -22q-76 0 -118.5 35t-42.5 106q0 16 1 34.5t6 38.5l60 273h171z" />
    <glyph glyph-name="z" unicode="z" horiz-adv-x="480" 
d="M524 487v-99l-266 -274h217l-23 -114h-405v99l272 274h-201l25 114h381z" />
    <glyph glyph-name="agrave" unicode="&#xe0;" horiz-adv-x="563" 
d="M394 377q-22 7 -42 7q-27 0 -45.5 -12t-31.5 -32.5t-21 -47.5t-13 -57q-2 -16 -3.5 -32t-1.5 -30q0 -31 8 -46.5t32 -15.5q17 0 35.5 8.5t31.5 17.5zM515 155q-1 -5 -1.5 -9t-0.5 -8q0 -13 5.5 -20t20.5 -7t26 2t22 5l-21 -117q-17 -5 -34 -9t-42 -4q-41 0 -70.5 11
t-43.5 36q-29 -22 -64 -34.5t-77 -12.5q-79 0 -125 40.5t-46 132.5q0 40 6 78q10 59 33.5 107t60.5 82t87.5 52.5t115.5 18.5q58 0 116 -12.5t100 -29.5zM432 730l40 -161h-120l-88 161h168z" />
    <glyph glyph-name="aacute" unicode="&#xe1;" horiz-adv-x="563" 
d="M394 377q-22 7 -42 7q-27 0 -45.5 -12t-31.5 -32.5t-21 -47.5t-13 -57q-2 -16 -3.5 -32t-1.5 -30q0 -31 8 -46.5t32 -15.5q17 0 35.5 8.5t31.5 17.5zM515 155q-1 -5 -1.5 -9t-0.5 -8q0 -13 5.5 -20t20.5 -7t26 2t22 5l-21 -117q-17 -5 -34 -9t-42 -4q-41 0 -70.5 11
t-43.5 36q-29 -22 -64 -34.5t-77 -12.5q-79 0 -125 40.5t-46 132.5q0 40 6 78q10 59 33.5 107t60.5 82t87.5 52.5t115.5 18.5q58 0 116 -12.5t100 -29.5zM594 730l-145 -161h-125l95 161h175z" />
    <glyph glyph-name="acircumflex" unicode="&#xe2;" horiz-adv-x="563" 
d="M394 377q-22 7 -42 7q-27 0 -45.5 -12t-31.5 -32.5t-21 -47.5t-13 -57q-2 -16 -3.5 -32t-1.5 -30q0 -31 8 -46.5t32 -15.5q17 0 35.5 8.5t31.5 17.5zM515 155q-1 -5 -1.5 -9t-0.5 -8q0 -13 5.5 -20t20.5 -7t26 2t22 5l-21 -117q-17 -5 -34 -9t-42 -4q-41 0 -70.5 11
t-43.5 36q-29 -22 -64 -34.5t-77 -12.5q-79 0 -125 40.5t-46 132.5q0 40 6 78q10 59 33.5 107t60.5 82t87.5 52.5t115.5 18.5q58 0 116 -12.5t100 -29.5zM500 730l69 -161h-123l-30 80l-62 -80h-138l139 161h145z" />
    <glyph glyph-name="atilde" unicode="&#xe3;" horiz-adv-x="563" 
d="M394 377q-22 7 -42 7q-27 0 -45.5 -12t-31.5 -32.5t-21 -47.5t-13 -57q-2 -16 -3.5 -32t-1.5 -30q0 -31 8 -46.5t32 -15.5q17 0 35.5 8.5t31.5 17.5zM515 155q-1 -5 -1.5 -9t-0.5 -8q0 -13 5.5 -20t20.5 -7t26 2t22 5l-21 -117q-17 -5 -34 -9t-42 -4q-41 0 -70.5 11
t-43.5 36q-29 -22 -64 -34.5t-77 -12.5q-79 0 -125 40.5t-46 132.5q0 40 6 78q10 59 33.5 107t60.5 82t87.5 52.5t115.5 18.5q58 0 116 -12.5t100 -29.5zM243 625q16 36 41 62t70 26q23 0 40.5 -5t31 -11.5t23.5 -11.5t18 -5q13 0 21 10.5t16 27.5l89 -42q-20 -41 -46 -67.5
t-68 -26.5q-23 0 -40.5 5.5t-30.5 12.5t-22.5 12.5t-16.5 5.5q-14 0 -23 -12t-15 -25z" />
    <glyph glyph-name="adieresis" unicode="&#xe4;" horiz-adv-x="563" 
d="M394 377q-22 7 -42 7q-27 0 -45.5 -12t-31.5 -32.5t-21 -47.5t-13 -57q-2 -16 -3.5 -32t-1.5 -30q0 -31 8 -46.5t32 -15.5q17 0 35.5 8.5t31.5 17.5zM515 155q-1 -5 -1.5 -9t-0.5 -8q0 -13 5.5 -20t20.5 -7t26 2t22 5l-21 -117q-17 -5 -34 -9t-42 -4q-41 0 -70.5 11
t-43.5 36q-29 -22 -64 -34.5t-77 -12.5q-79 0 -125 40.5t-46 132.5q0 40 6 78q10 59 33.5 107t60.5 82t87.5 52.5t115.5 18.5q58 0 116 -12.5t100 -29.5zM313 587q-32 0 -50 13t-18 36q0 35 27 57t69 22q32 0 50 -13t18 -36q0 -35 -27 -57t-69 -22zM502 587q-32 0 -50 13
t-18 36q0 35 27 57t69 22q32 0 50 -13t18 -36q0 -35 -27 -57t-69 -22z" />
    <glyph glyph-name="amacron" unicode="&#x101;" horiz-adv-x="563" 
d="M394 377q-22 7 -42 7q-27 0 -45.5 -12t-31.5 -32.5t-21 -47.5t-13 -57q-2 -16 -3.5 -32t-1.5 -30q0 -31 8 -46.5t32 -15.5q17 0 35.5 8.5t31.5 17.5zM515 155q-1 -5 -1.5 -9t-0.5 -8q0 -13 5.5 -20t20.5 -7t26 2t22 5l-21 -117q-17 -5 -34 -9t-42 -4q-41 0 -70.5 11
t-43.5 36q-29 -22 -64 -34.5t-77 -12.5q-79 0 -125 40.5t-46 132.5q0 40 6 78q10 59 33.5 107t60.5 82t87.5 52.5t115.5 18.5q58 0 116 -12.5t100 -29.5zM580 694l-20 -90h-299l20 90h299z" />
    <glyph glyph-name="abreve" unicode="&#x103;" horiz-adv-x="563" 
d="M394 377q-22 7 -42 7q-27 0 -45.5 -12t-31.5 -32.5t-21 -47.5t-13 -57q-2 -16 -3.5 -32t-1.5 -30q0 -31 8 -46.5t32 -15.5q17 0 35.5 8.5t31.5 17.5zM515 155q-1 -5 -1.5 -9t-0.5 -8q0 -13 5.5 -20t20.5 -7t26 2t22 5l-21 -117q-17 -5 -34 -9t-42 -4q-41 0 -70.5 11
t-43.5 36q-29 -22 -64 -34.5t-77 -12.5q-79 0 -125 40.5t-46 132.5q0 40 6 78q10 59 33.5 107t60.5 82t87.5 52.5t115.5 18.5q58 0 116 -12.5t100 -29.5zM394 722q-1 -5 -1.5 -9t-0.5 -8q0 -37 31 -37q18 0 32 12.5t22 41.5h122q-22 -82 -68 -113.5t-117 -31.5
q-65 0 -103.5 26.5t-38.5 87.5q0 6 0.5 15t1.5 16h120z" />
    <glyph glyph-name="aring" unicode="&#xe5;" horiz-adv-x="563" 
d="M394 377q-22 7 -42 7q-27 0 -45.5 -12t-31.5 -32.5t-21 -47.5t-13 -57q-2 -16 -3.5 -32t-1.5 -30q0 -31 8 -46.5t32 -15.5q17 0 35.5 8.5t31.5 17.5zM515 155q-1 -5 -1.5 -9t-0.5 -8q0 -13 5.5 -20t20.5 -7t26 2t22 5l-21 -117q-17 -5 -34 -9t-42 -4q-41 0 -70.5 11
t-43.5 36q-29 -22 -64 -34.5t-77 -12.5q-79 0 -125 40.5t-46 132.5q0 40 6 78q10 59 33.5 107t60.5 82t87.5 52.5t115.5 18.5q58 0 116 -12.5t100 -29.5zM414 617q16 0 26.5 9t10.5 29q0 26 -24 26q-16 0 -25.5 -9.5t-9.5 -29.5q0 -12 4.5 -18.5t17.5 -6.5zM401 556
q-50 0 -79 19.5t-29 56.5q0 31 11.5 52t32 34t47.5 18.5t57 5.5q49 0 78.5 -19.5t29.5 -56.5q0 -31 -12 -52t-32 -34t-47 -18.5t-57 -5.5z" />
    <glyph glyph-name="aringacute" unicode="&#x1fb;" horiz-adv-x="563" 
d="M581 827l-93 -91q29 -9 44.5 -26.5t15.5 -43.5q0 -31 -12 -52t-32 -34t-47.5 -18.5t-57.5 -5.5q-49 0 -78 19.5t-29 56.5q0 48 28 73t68 33l58 89h135zM413 617q15 0 26 9t11 29q0 26 -24 26q-17 0 -26.5 -9.5t-9.5 -29.5q0 -25 23 -25zM394 377q-22 7 -42 7
q-27 0 -45.5 -12t-31.5 -32.5t-21 -47.5t-13 -57q-2 -16 -3.5 -32t-1.5 -30q0 -31 8 -46.5t32 -15.5q17 0 35.5 8.5t31.5 17.5zM515 155q-1 -5 -1.5 -9t-0.5 -8q0 -13 5.5 -20t20.5 -7t26 2t22 5l-21 -117q-17 -5 -34 -9t-42 -4q-41 0 -70.5 11t-43.5 36q-29 -22 -64 -34.5
t-77 -12.5q-79 0 -125 40.5t-46 132.5q0 40 6 78q10 59 33.5 107t60.5 82t87.5 52.5t115.5 18.5q58 0 116 -12.5t100 -29.5z" />
    <glyph glyph-name="aogonek" unicode="&#x105;" horiz-adv-x="563" 
d="M554 -182q-36 -18 -85 -18t-79 21.5t-30 59.5q0 41 23 67.5t55 45.5q-46 10 -62 41q-29 -22 -64 -34.5t-77 -12.5q-79 0 -125 40.5t-46 132.5q0 40 6 78q10 59 33.5 107t60.5 82t87.5 52.5t115.5 18.5q58 0 116 -12.5t100 -29.5l-68 -302q-1 -5 -1.5 -9t-0.5 -8
q0 -13 5.5 -20t20.5 -7t26 2t22 5l-21 -116q-9 -7 -21.5 -17t-24 -22t-19.5 -25t-8 -25q0 -18 20 -18q10 0 24.5 3t34.5 11zM394 377q-22 7 -42 7q-27 0 -45.5 -12t-31.5 -32.5t-21 -47.5t-13 -57q-2 -16 -3.5 -32t-1.5 -30q0 -31 8 -46.5t32 -15.5q17 0 35.5 8.5t31.5 17.5
z" />
    <glyph glyph-name="ae" unicode="&#xe6;" horiz-adv-x="717" 
d="M537 190q-17 0 -33 1t-33 3q-2 -9 -2 -14v-12q0 -37 18 -50.5t66 -13.5q14 0 31 2t35 5t34.5 7t30.5 9l-9 -113q-38 -12 -80.5 -19t-91.5 -7q-40 0 -78.5 9.5t-65.5 23.5q-72 -33 -149 -33q-83 0 -132.5 31.5t-49.5 102.5q0 55 20.5 91t53 57t73 29t81.5 8q16 0 30 -1
t28 -3q4 12 10 25t6 29q0 15 -16 22t-41 7q-34 0 -77 -7.5t-79 -15.5l17 113q38 10 85.5 16.5t89.5 6.5q43 0 80.5 -7t63.5 -22q61 29 141 29q85 0 126 -36t41 -102q0 -43 -16 -75t-45.5 -53.5t-70.5 -32t-92 -10.5zM239 89q12 0 27.5 2t32.5 13q-4 14 -5 26.5t-1 30.5v24
t2 24q-8 1 -15 1.5t-13 0.5q-14 0 -28 -3.5t-25.5 -12.5t-18.5 -24t-7 -38t14.5 -33.5t36.5 -10.5zM488 287q5 -1 13.5 -1h13.5q45 0 66 15.5t21 54.5q0 41 -37 41q-31 0 -48.5 -27.5t-28.5 -82.5z" />
    <glyph glyph-name="aeacute" unicode="&#x1fd;" horiz-adv-x="717" 
d="M537 190q-17 0 -33 1t-33 3q-2 -9 -2 -14v-12q0 -37 18 -50.5t66 -13.5q14 0 31 2t35 5t34.5 7t30.5 9l-9 -113q-38 -12 -80.5 -19t-91.5 -7q-40 0 -78.5 9.5t-65.5 23.5q-72 -33 -149 -33q-83 0 -132.5 31.5t-49.5 102.5q0 55 20.5 91t53 57t73 29t81.5 8q16 0 30 -1
t28 -3q4 12 10 25t6 29q0 15 -16 22t-41 7q-34 0 -77 -7.5t-79 -15.5l17 113q38 10 85.5 16.5t89.5 6.5q43 0 80.5 -7t63.5 -22q61 29 141 29q85 0 126 -36t41 -102q0 -43 -16 -75t-45.5 -53.5t-70.5 -32t-92 -10.5zM239 89q12 0 27.5 2t32.5 13q-4 14 -5 26.5t-1 30.5v24
t2 24q-8 1 -15 1.5t-13 0.5q-14 0 -28 -3.5t-25.5 -12.5t-18.5 -24t-7 -38t14.5 -33.5t36.5 -10.5zM488 287q5 -1 13.5 -1h13.5q45 0 66 15.5t21 54.5q0 41 -37 41q-31 0 -48.5 -27.5t-28.5 -82.5zM670 730l-145 -161h-125l95 161h175z" />
    <glyph glyph-name="cacute" unicode="&#x107;" horiz-adv-x="418" 
d="M458 370q-20 5 -45.5 9.5t-55.5 4.5q-52 0 -79.5 -41t-36.5 -110q-2 -14 -3 -30.5t-1 -33.5q0 -35 13 -50t48 -15q25 0 50.5 5.5t51.5 12.5l-13 -115q-13 -5 -30.5 -8.5t-36.5 -5.5t-38.5 -3.5t-36.5 -1.5q-90 0 -135.5 41t-45.5 130q0 18 1.5 37t3.5 36q8 58 29.5 107
t58 84.5t87.5 55.5t117 20q14 0 31.5 -1t35 -3t33 -4.5t25.5 -4.5zM548 730l-145 -161h-125l95 161h175z" />
    <glyph glyph-name="ccircumflex" unicode="&#x109;" horiz-adv-x="418" 
d="M458 370q-20 5 -45.5 9.5t-55.5 4.5q-52 0 -79.5 -41t-36.5 -110q-2 -14 -3 -30.5t-1 -33.5q0 -35 13 -50t48 -15q25 0 50.5 5.5t51.5 12.5l-13 -115q-13 -5 -30.5 -8.5t-36.5 -5.5t-38.5 -3.5t-36.5 -1.5q-90 0 -135.5 41t-45.5 130q0 18 1.5 37t3.5 36q8 58 29.5 107
t58 84.5t87.5 55.5t117 20q14 0 31.5 -1t35 -3t33 -4.5t25.5 -4.5zM446 730l69 -161h-123l-30 80l-62 -80h-138l139 161h145z" />
    <glyph glyph-name="ccaron" unicode="&#x10d;" horiz-adv-x="418" 
d="M458 370q-20 5 -45.5 9.5t-55.5 4.5q-52 0 -79.5 -41t-36.5 -110q-2 -14 -3 -30.5t-1 -33.5q0 -35 13 -50t48 -15q25 0 50.5 5.5t51.5 12.5l-13 -115q-13 -5 -30.5 -8.5t-36.5 -5.5t-38.5 -3.5t-36.5 -1.5q-90 0 -135.5 41t-45.5 130q0 18 1.5 37t3.5 36q8 58 29.5 107
t58 84.5t87.5 55.5t117 20q14 0 31.5 -1t35 -3t33 -4.5t25.5 -4.5zM265 569l-68 161h123l31 -80l62 80h138l-138 -161h-148z" />
    <glyph glyph-name="cdotaccent" unicode="&#x10b;" horiz-adv-x="418" 
d="M458 370q-20 5 -45.5 9.5t-55.5 4.5q-52 0 -79.5 -41t-36.5 -110q-2 -14 -3 -30.5t-1 -33.5q0 -35 13 -50t48 -15q25 0 50.5 5.5t51.5 12.5l-13 -115q-13 -5 -30.5 -8.5t-36.5 -5.5t-38.5 -3.5t-36.5 -1.5q-90 0 -135.5 41t-45.5 130q0 18 1.5 37t3.5 36q8 58 29.5 107
t58 84.5t87.5 55.5t117 20q14 0 31.5 -1t35 -3t33 -4.5t25.5 -4.5zM344 584q-35 0 -54.5 13t-19.5 39q0 38 29 60t73 22q35 0 54.5 -13t19.5 -39q0 -38 -29 -60t-73 -22z" />
    <glyph glyph-name="ccedilla" unicode="&#xe7;" horiz-adv-x="418" 
d="M458 370q-20 5 -45.5 9.5t-55.5 4.5q-52 0 -79.5 -41t-36.5 -110q-2 -14 -3 -30.5t-1 -33.5q0 -35 13 -50t48 -15q25 0 50.5 5.5t51.5 12.5l-13 -115q-13 -5 -30.5 -8.5t-36.5 -5.5t-38.5 -3.5t-36.5 -1.5q-90 0 -135.5 41t-45.5 130q0 18 1.5 37t3.5 36q8 58 29.5 107
t58 84.5t87.5 55.5t117 20q14 0 31.5 -1t35 -3t33 -4.5t25.5 -4.5zM285 -35q16 -27 16 -60q-1 -48 -34.5 -78.5t-102.5 -30.5q-26 0 -50 5t-40 12l21 90q14 -5 27.5 -8.5t24.5 -3.5q17 0 23 9t6 28q0 6 -2 16.5t-6 20.5h117z" />
    <glyph glyph-name="dcaron" unicode="&#x10f;" horiz-adv-x="707" 
d="M865 665l-124 -213h-119l82 213h161zM515 155q-1 -5 -1.5 -9t-0.5 -8q0 -12 4.5 -19.5t18.5 -7.5q10 0 21.5 2t29.5 7l-21 -119q-17 -5 -35.5 -9t-44.5 -4q-41 0 -69 11t-41 36q-29 -22 -64 -34.5t-77 -12.5q-79 0 -125 40.5t-46 132.5q0 39 6 77q10 59 33.5 107.5
t60.5 82.5t87.5 52.5t115.5 18.5q15 0 28.5 -0.5t27.5 -2.5l51 234h169zM394 377q-22 7 -42 7q-27 0 -45.5 -12t-31.5 -32.5t-21 -47.5t-13 -57q-2 -16 -3.5 -32t-1.5 -30q0 -31 8 -46.5t32 -15.5q17 0 35.5 8.5t31.5 17.5z" />
    <glyph glyph-name="dcroat" unicode="&#x111;" horiz-adv-x="565" 
d="M628 665h99l-22 -95h-98l-92 -415q-1 -5 -1.5 -9t-0.5 -8q0 -12 4.5 -19.5t18.5 -7.5q10 0 21.5 2t29.5 7l-21 -119q-17 -5 -35.5 -9t-44.5 -4q-41 0 -69 11t-41 36q-29 -22 -64 -34.5t-77 -12.5q-79 0 -125 40.5t-46 132.5q0 39 6 77q10 59 33.5 107.5t60.5 82.5
t87.5 52.5t115.5 18.5q15 0 28.5 -0.5t27.5 -2.5l16 74h-153l22 95h152l14 66h169zM394 377q-22 7 -42 7q-27 0 -45.5 -12t-31.5 -32.5t-21 -47.5t-13 -57q-2 -16 -3.5 -32t-1.5 -30q0 -31 8 -46.5t32 -15.5q17 0 35.5 8.5t31.5 17.5z" />
    <glyph glyph-name="egrave" unicode="&#xe8;" horiz-adv-x="488" 
d="M242 194q-2 -9 -2 -14v-12q0 -37 18 -50.5t66 -13.5q14 0 31 2t35 5t34.5 7t30.5 9l-9 -113q-38 -12 -80.5 -19t-91.5 -7q-47 0 -85.5 9t-66 29.5t-43 53.5t-15.5 81q0 71 18 132.5t55 107.5t94 72t134 26q85 0 126 -36t41 -102q0 -43 -16 -75t-45.5 -53.5t-70.5 -32
t-92 -10.5q-17 0 -33 1t-33 3zM259 287q5 -1 13.5 -1h13.5q45 0 66 15.5t21 54.5q0 41 -37 41q-31 0 -48.5 -27.5t-28.5 -82.5zM392 730l40 -161h-120l-88 161h168z" />
    <glyph glyph-name="eacute" unicode="&#xe9;" horiz-adv-x="488" 
d="M242 194q-2 -9 -2 -14v-12q0 -37 18 -50.5t66 -13.5q14 0 31 2t35 5t34.5 7t30.5 9l-9 -113q-38 -12 -80.5 -19t-91.5 -7q-47 0 -85.5 9t-66 29.5t-43 53.5t-15.5 81q0 71 18 132.5t55 107.5t94 72t134 26q85 0 126 -36t41 -102q0 -43 -16 -75t-45.5 -53.5t-70.5 -32
t-92 -10.5q-17 0 -33 1t-33 3zM259 287q5 -1 13.5 -1h13.5q45 0 66 15.5t21 54.5q0 41 -37 41q-31 0 -48.5 -27.5t-28.5 -82.5zM592 730l-145 -161h-125l95 161h175z" />
    <glyph glyph-name="ecircumflex" unicode="&#xea;" horiz-adv-x="488" 
d="M242 194q-2 -9 -2 -14v-12q0 -37 18 -50.5t66 -13.5q14 0 31 2t35 5t34.5 7t30.5 9l-9 -113q-38 -12 -80.5 -19t-91.5 -7q-47 0 -85.5 9t-66 29.5t-43 53.5t-15.5 81q0 71 18 132.5t55 107.5t94 72t134 26q85 0 126 -36t41 -102q0 -43 -16 -75t-45.5 -53.5t-70.5 -32
t-92 -10.5q-17 0 -33 1t-33 3zM259 287q5 -1 13.5 -1h13.5q45 0 66 15.5t21 54.5q0 41 -37 41q-31 0 -48.5 -27.5t-28.5 -82.5zM495 730l69 -161h-123l-30 80l-62 -80h-138l139 161h145z" />
    <glyph glyph-name="ecaron" unicode="&#x11b;" horiz-adv-x="488" 
d="M242 194q-2 -9 -2 -14v-12q0 -37 18 -50.5t66 -13.5q14 0 31 2t35 5t34.5 7t30.5 9l-9 -113q-38 -12 -80.5 -19t-91.5 -7q-47 0 -85.5 9t-66 29.5t-43 53.5t-15.5 81q0 71 18 132.5t55 107.5t94 72t134 26q85 0 126 -36t41 -102q0 -43 -16 -75t-45.5 -53.5t-70.5 -32
t-92 -10.5q-17 0 -33 1t-33 3zM259 287q5 -1 13.5 -1h13.5q45 0 66 15.5t21 54.5q0 41 -37 41q-31 0 -48.5 -27.5t-28.5 -82.5zM313 569l-68 161h123l31 -80l62 80h138l-138 -161h-148z" />
    <glyph glyph-name="edieresis" unicode="&#xeb;" horiz-adv-x="488" 
d="M242 194q-2 -9 -2 -14v-12q0 -37 18 -50.5t66 -13.5q14 0 31 2t35 5t34.5 7t30.5 9l-9 -113q-38 -12 -80.5 -19t-91.5 -7q-47 0 -85.5 9t-66 29.5t-43 53.5t-15.5 81q0 71 18 132.5t55 107.5t94 72t134 26q85 0 126 -36t41 -102q0 -43 -16 -75t-45.5 -53.5t-70.5 -32
t-92 -10.5q-17 0 -33 1t-33 3zM259 287q5 -1 13.5 -1h13.5q45 0 66 15.5t21 54.5q0 41 -37 41q-31 0 -48.5 -27.5t-28.5 -82.5zM297 587q-32 0 -50 13t-18 36q0 35 27 57t69 22q32 0 50 -13t18 -36q0 -35 -27 -57t-69 -22zM486 587q-32 0 -50 13t-18 36q0 35 27 57t69 22
q32 0 50 -13t18 -36q0 -35 -27 -57t-69 -22z" />
    <glyph glyph-name="emacron" unicode="&#x113;" horiz-adv-x="488" 
d="M242 194q-2 -9 -2 -14v-12q0 -37 18 -50.5t66 -13.5q14 0 31 2t35 5t34.5 7t30.5 9l-9 -113q-38 -12 -80.5 -19t-91.5 -7q-47 0 -85.5 9t-66 29.5t-43 53.5t-15.5 81q0 71 18 132.5t55 107.5t94 72t134 26q85 0 126 -36t41 -102q0 -43 -16 -75t-45.5 -53.5t-70.5 -32
t-92 -10.5q-17 0 -33 1t-33 3zM259 287q5 -1 13.5 -1h13.5q45 0 66 15.5t21 54.5q0 41 -37 41q-31 0 -48.5 -27.5t-28.5 -82.5zM565 694l-20 -90h-299l20 90h299z" />
    <glyph glyph-name="ebreve" unicode="&#x115;" horiz-adv-x="488" 
d="M242 194q-2 -9 -2 -14v-12q0 -37 18 -50.5t66 -13.5q14 0 31 2t35 5t34.5 7t30.5 9l-9 -113q-38 -12 -80.5 -19t-91.5 -7q-47 0 -85.5 9t-66 29.5t-43 53.5t-15.5 81q0 71 18 132.5t55 107.5t94 72t134 26q85 0 126 -36t41 -102q0 -43 -16 -75t-45.5 -53.5t-70.5 -32
t-92 -10.5q-17 0 -33 1t-33 3zM259 287q5 -1 13.5 -1h13.5q45 0 66 15.5t21 54.5q0 41 -37 41q-31 0 -48.5 -27.5t-28.5 -82.5zM379 722q-1 -5 -1.5 -9t-0.5 -8q0 -37 31 -37q18 0 32 12.5t22 41.5h122q-22 -82 -68 -113.5t-117 -31.5q-65 0 -103.5 26.5t-38.5 87.5
q0 6 0.5 15t1.5 16h120z" />
    <glyph glyph-name="edotaccent" unicode="&#x117;" horiz-adv-x="488" 
d="M242 194q-2 -9 -2 -14v-12q0 -37 18 -50.5t66 -13.5q14 0 31 2t35 5t34.5 7t30.5 9l-9 -113q-38 -12 -80.5 -19t-91.5 -7q-47 0 -85.5 9t-66 29.5t-43 53.5t-15.5 81q0 71 18 132.5t55 107.5t94 72t134 26q85 0 126 -36t41 -102q0 -43 -16 -75t-45.5 -53.5t-70.5 -32
t-92 -10.5q-17 0 -33 1t-33 3zM259 287q5 -1 13.5 -1h13.5q45 0 66 15.5t21 54.5q0 41 -37 41q-31 0 -48.5 -27.5t-28.5 -82.5zM392 584q-35 0 -54.5 13t-19.5 39q0 38 29 60t73 22q35 0 54.5 -13t19.5 -39q0 -38 -29 -60t-73 -22z" />
    <glyph glyph-name="eogonek" unicode="&#x119;" horiz-adv-x="488" 
d="M381 -182q-36 -18 -85 -18t-79 21.5t-30 59.5q0 39 20.5 64.5t49.5 43.5q-43 1 -78.5 11.5t-61 31t-39.5 52.5t-14 77q0 71 18 132.5t55 107.5t94 72t134 26q85 0 126 -36t41 -102q0 -43 -16 -75t-45.5 -53.5t-70.5 -32t-92 -10.5q-17 0 -33 1t-33 3q-2 -9 -2 -14v-12
q0 -37 18 -50.5t66 -13.5q14 0 31 2t35 5t34.5 7t30.5 9l-9 -113q-27 -9 -57 -15q-12 -9 -24 -19.5t-22 -21.5t-16.5 -22.5t-6.5 -22.5q0 -18 20 -18q10 0 24.5 3t34.5 11zM259 287q5 -1 13.5 -1h13.5q45 0 66 15.5t21 54.5q0 41 -37 41q-31 0 -48.5 -27.5t-28.5 -82.5z" />
    <glyph glyph-name="gcircumflex" unicode="&#x11d;" horiz-adv-x="541" 
d="M488 18q-15 -69 -42.5 -111.5t-65 -66.5t-85 -32t-101.5 -8q-22 0 -45.5 2t-45 5.5t-39.5 8t-29 8.5l25 116q12 -4 30 -8.5t38 -8t40.5 -6t38.5 -2.5q41 0 70 18.5t37 67.5l3 21q-20 -11 -43 -16.5t-55 -5.5t-60 10t-49 30.5t-33 52t-12 75.5q0 69 19 129.5t56.5 105
t94.5 70.5t134 26q58 0 115.5 -13t99.5 -30zM394 377q-8 2 -20.5 4.5t-26.5 2.5q-30 0 -50.5 -19.5t-34 -49.5t-19.5 -65.5t-6 -67.5q0 -31 8.5 -46.5t32.5 -15.5q16 0 34.5 9.5t31.5 20.5zM501 730l69 -161h-123l-30 80l-62 -80h-138l139 161h145z" />
    <glyph glyph-name="gbreve" unicode="&#x11f;" horiz-adv-x="541" 
d="M488 18q-15 -69 -42.5 -111.5t-65 -66.5t-85 -32t-101.5 -8q-22 0 -45.5 2t-45 5.5t-39.5 8t-29 8.5l25 116q12 -4 30 -8.5t38 -8t40.5 -6t38.5 -2.5q41 0 70 18.5t37 67.5l3 21q-20 -11 -43 -16.5t-55 -5.5t-60 10t-49 30.5t-33 52t-12 75.5q0 69 19 129.5t56.5 105
t94.5 70.5t134 26q58 0 115.5 -13t99.5 -30zM394 377q-8 2 -20.5 4.5t-26.5 2.5q-30 0 -50.5 -19.5t-34 -49.5t-19.5 -65.5t-6 -67.5q0 -31 8.5 -46.5t32.5 -15.5q16 0 34.5 9.5t31.5 20.5zM385 722q-1 -5 -1.5 -9t-0.5 -8q0 -37 31 -37q18 0 32 12.5t22 41.5h122
q-22 -82 -68 -113.5t-117 -31.5q-65 0 -103.5 26.5t-38.5 87.5q0 6 0.5 15t1.5 16h120z" />
    <glyph glyph-name="gdotaccent" unicode="&#x121;" horiz-adv-x="541" 
d="M488 18q-15 -69 -42.5 -111.5t-65 -66.5t-85 -32t-101.5 -8q-22 0 -45.5 2t-45 5.5t-39.5 8t-29 8.5l25 116q12 -4 30 -8.5t38 -8t40.5 -6t38.5 -2.5q41 0 70 18.5t37 67.5l3 21q-20 -11 -43 -16.5t-55 -5.5t-60 10t-49 30.5t-33 52t-12 75.5q0 69 19 129.5t56.5 105
t94.5 70.5t134 26q58 0 115.5 -13t99.5 -30zM394 377q-8 2 -20.5 4.5t-26.5 2.5q-30 0 -50.5 -19.5t-34 -49.5t-19.5 -65.5t-6 -67.5q0 -31 8.5 -46.5t32.5 -15.5q16 0 34.5 9.5t31.5 20.5zM399 584q-35 0 -54.5 13t-19.5 39q0 38 29 60t73 22q35 0 54.5 -13t19.5 -39
q0 -38 -29 -60t-73 -22z" />
    <glyph glyph-name="gcommaaccent" unicode="&#x123;" horiz-adv-x="541" 
d="M488 18q-15 -69 -42.5 -111.5t-65 -66.5t-85 -32t-101.5 -8q-22 0 -45.5 2t-45 5.5t-39.5 8t-29 8.5l25 116q12 -4 30 -8.5t38 -8t40.5 -6t38.5 -2.5q41 0 70 18.5t37 67.5l3 21q-20 -11 -43 -16.5t-55 -5.5t-60 10t-49 30.5t-33 52t-12 75.5q0 69 19 129.5t56.5 105
t94.5 70.5t134 26q58 0 115.5 -13t99.5 -30zM394 377q-8 2 -20.5 4.5t-26.5 2.5q-30 0 -50.5 -19.5t-34 -49.5t-19.5 -65.5t-6 -67.5q0 -31 8.5 -46.5t32.5 -15.5q16 0 34.5 9.5t31.5 20.5zM277 569l145 161h125l-95 -161h-175z" />
    <glyph glyph-name="hcircumflex" unicode="&#x125;" horiz-adv-x="559" 
d="M381 730l-53 -237q39 6 79 6q80 0 127 -28t47 -97q0 -13 -2 -27t-5 -30l-68 -317h-171l68 311q3 13 3 25q0 27 -13 37t-36 10q-13 0 -29 -2t-24 -4l-82 -377h-170l158 730h171zM402 945l69 -161h-123l-30 80l-62 -80h-138l139 161h145z" />
    <glyph glyph-name="hbar" unicode="&#x127;" horiz-adv-x="571" 
d="M393 730l-15 -65h151l-21 -96h-151l-17 -76q39 6 79 6q80 0 127 -28t47 -97q0 -13 -2 -27t-5 -30l-68 -317h-171l68 311q3 13 3 25q0 27 -13 37t-36 10q-13 0 -29 -2t-24 -4l-82 -377h-170l123 569h-107l21 96h107l14 65h171z" />
    <glyph glyph-name="igrave" unicode="&#xec;" horiz-adv-x="297" 
d="M280 730l40 -161h-120l-88 161h168zM323 487l-75 -335q-2 -10 -2 -17q0 -15 8 -20.5t20 -5.5q11 0 23.5 3.5t22.5 5.5l-21 -117q-17 -5 -36.5 -9t-42.5 -4q-28 0 -54.5 4.5t-47.5 17t-33.5 34t-12.5 54.5q0 8 1.5 21.5t3.5 23.5l74 344h172z" />
    <glyph glyph-name="iacute" unicode="&#xed;" horiz-adv-x="297" 
d="M458 730l-145 -161h-125l95 161h175zM323 487l-75 -335q-2 -10 -2 -17q0 -15 8 -20.5t20 -5.5q11 0 23.5 3.5t22.5 5.5l-21 -117q-17 -5 -36.5 -9t-42.5 -4q-28 0 -54.5 4.5t-47.5 17t-33.5 34t-12.5 54.5q0 8 1.5 21.5t3.5 23.5l74 344h172z" />
    <glyph glyph-name="icircumflex" unicode="&#xee;" horiz-adv-x="297" 
d="M323 487l-75 -335q-2 -10 -2 -17q0 -15 8 -20.5t20 -5.5q11 0 23.5 3.5t22.5 5.5l-21 -117q-17 -5 -36.5 -9t-42.5 -4q-28 0 -54.5 4.5t-47.5 17t-33.5 34t-12.5 54.5q0 8 1.5 21.5t3.5 23.5l74 344h172zM359 730l69 -161h-123l-30 80l-62 -80h-138l139 161h145z" />
    <glyph glyph-name="itilde" unicode="&#x129;" horiz-adv-x="297" 
d="M323 487l-75 -335q-2 -10 -2 -17q0 -15 8 -20.5t20 -5.5q11 0 23.5 3.5t22.5 5.5l-21 -117q-17 -5 -36.5 -9t-42.5 -4q-28 0 -54.5 4.5t-47.5 17t-33.5 34t-12.5 54.5q0 8 1.5 21.5t3.5 23.5l74 344h172zM98 625q16 36 41 62t70 26q23 0 40.5 -5t31 -11.5t23.5 -11.5
t18 -5q13 0 21 10.5t16 27.5l89 -42q-20 -41 -46 -67.5t-68 -26.5q-23 0 -40.5 5.5t-30.5 12.5t-22.5 12.5t-16.5 5.5q-14 0 -23 -12t-15 -25z" />
    <glyph glyph-name="idieresis" unicode="&#xef;" horiz-adv-x="297" 
d="M162 587q-32 0 -50 13t-18 36q0 35 27 57t69 22q32 0 50 -13t18 -36q0 -35 -27 -57t-69 -22zM351 587q-32 0 -50 13t-18 36q0 35 27 57t69 22q32 0 50 -13t18 -36q0 -35 -27 -57t-69 -22zM323 487l-75 -335q-2 -10 -2 -17q0 -15 8 -20.5t20 -5.5q11 0 23.5 3.5t22.5 5.5
l-21 -117q-17 -5 -36.5 -9t-42.5 -4q-28 0 -54.5 4.5t-47.5 17t-33.5 34t-12.5 54.5q0 8 1.5 21.5t3.5 23.5l74 344h172z" />
    <glyph glyph-name="imacron" unicode="&#x12b;" horiz-adv-x="297" 
d="M323 487l-75 -335q-2 -10 -2 -17q0 -15 8 -20.5t20 -5.5q11 0 23.5 3.5t22.5 5.5l-21 -117q-17 -5 -36.5 -9t-42.5 -4q-28 0 -54.5 4.5t-47.5 17t-33.5 34t-12.5 54.5q0 8 1.5 21.5t3.5 23.5l74 344h172zM431 694l-20 -90h-299l20 90h299z" />
    <glyph glyph-name="ibreve" unicode="&#x12d;" horiz-adv-x="297" 
d="M323 487l-75 -335q-2 -10 -2 -17q0 -15 8 -20.5t20 -5.5q11 0 23.5 3.5t22.5 5.5l-21 -117q-17 -5 -36.5 -9t-42.5 -4q-28 0 -54.5 4.5t-47.5 17t-33.5 34t-12.5 54.5q0 8 1.5 21.5t3.5 23.5l74 344h172zM242 722q-1 -5 -1.5 -9t-0.5 -8q0 -37 31 -37q18 0 32 12.5
t22 41.5h122q-22 -82 -68 -113.5t-117 -31.5q-65 0 -103.5 26.5t-38.5 87.5q0 6 0.5 15t1.5 16h120z" />
    <glyph glyph-name="iogonek" unicode="&#x12f;" horiz-adv-x="297" 
d="M255 -182q-36 -18 -85 -18t-79 21.5t-30 59.5q0 44 25.5 71t59.5 46q-32 9 -53 32t-21 68q0 8 1.5 21.5t3.5 23.5l74 344h172l-75 -334q-2 -10 -2 -17q0 -15 8 -20.5t20 -5.5q11 0 23.5 3t22.5 5l-21 -117q-11 -3 -22.5 -6t-25.5 -5q-21 -17 -39 -37.5t-18 -39.5
q0 -18 20 -18q10 0 24.5 3t34.5 11zM370 657q-9 -42 -40 -63.5t-76 -21.5q-38 0 -59.5 15t-21.5 46q0 27 9.5 47t25.5 34t37.5 21t45.5 7q38 0 59.5 -15.5t21.5 -45.5v-11.5t-2 -12.5z" />
    <glyph glyph-name="dotlessi" unicode="&#x131;" horiz-adv-x="297" 
d="M323 487l-75 -335q-2 -10 -2 -17q0 -15 8 -20.5t20 -5.5q11 0 23.5 3.5t22.5 5.5l-21 -117q-17 -5 -36.5 -9t-42.5 -4q-28 0 -54.5 4.5t-47.5 17t-33.5 34t-12.5 54.5q0 8 1.5 21.5t3.5 23.5l74 344h172z" />
    <glyph glyph-name="jcircumflex" unicode="&#x135;" horiz-adv-x="284" 
d="M327 487l-89 -401q-11 -49 -31.5 -89.5t-52.5 -75t-75.5 -65t-99.5 -60.5l-49 83q33 25 56 48t38.5 46.5t25 50.5t17.5 61l89 402h171zM363 730l69 -161h-123l-30 80l-62 -80h-138l139 161h145z" />
    <glyph glyph-name="kcommaaccent" unicode="&#x137;" horiz-adv-x="530" 
d="M376 730l-91 -421l162 178h169l-192 -196q77 -23 95 -163l16 -128h-181l-8 115q-3 41 -17.5 57t-33.5 18l-47 -43l-31 -147h-171l159 730h171zM372 -46l-130 -142h-127l91 142h166z" />
    <glyph glyph-name="lacute" unicode="&#x13a;" horiz-adv-x="311" 
d="M376 730l-126 -568q-2 -10 -2 -17q0 -20 9.5 -27t25.5 -7q10 0 24 1.5t40 5.5l-25 -117q-18 -5 -44 -9t-54 -4t-55 5t-48.5 17.5t-34.5 34.5t-13 55q0 8 1 20.5t3 22.5l128 587h171zM498 954l-145 -161h-125l95 161h175z" />
    <glyph glyph-name="lcaron" unicode="&#x13e;" horiz-adv-x="440" 
d="M376 730l-126 -568q-2 -10 -2 -17q0 -20 9.5 -27t25.5 -7q10 0 24 1.5t40 5.5l-25 -117q-18 -5 -44 -9t-54 -4t-55 5t-48.5 17.5t-34.5 34.5t-13 55q0 8 1 20.5t3 22.5l128 587h171zM598 665l-124 -213h-119l82 213h161z" />
    <glyph glyph-name="lcommaaccent" unicode="&#x13c;" horiz-adv-x="311" 
d="M376 730l-126 -568q-2 -10 -2 -17q0 -20 9.5 -27t25.5 -7q10 0 24 1.5t40 5.5l-25 -117q-18 -5 -44 -9t-54 -4t-55 5t-48.5 17.5t-34.5 34.5t-13 55q0 8 1 20.5t3 22.5l128 587h171zM254 -46l-130 -142h-127l91 142h166z" />
    <glyph glyph-name="lslash" unicode="&#x142;" horiz-adv-x="347" 
d="M396 730l-59 -267l73 28l-26 -111l-72 -29l-42 -189q-2 -10 -2 -17q0 -20 9.5 -27t25.5 -7q10 0 24 1.5t40 5.5l-25 -117q-18 -5 -44 -9t-54 -4t-55 5t-48.5 17.5t-34.5 34.5t-13 55q0 8 1 20.5t3 22.5l30 138l-71 -26l24 111l71 27l74 337h171z" />
    <glyph glyph-name="nacute" unicode="&#x144;" horiz-adv-x="551" 
d="M146 459q20 6 47 13t57.5 13t63.5 10t66 4q90 0 143 -33.5t53 -104.5q0 -13 -1.5 -21t-4.5 -23l-70 -317h-171l69 311q2 8 3 15t1 13q0 44 -50 44q-12 0 -29 -2t-25 -4l-82 -377h-171zM602 730l-145 -161h-125l95 161h175z" />
    <glyph glyph-name="ncaron" unicode="&#x148;" horiz-adv-x="551" 
d="M146 459q20 6 47 13t57.5 13t63.5 10t66 4q90 0 143 -33.5t53 -104.5q0 -13 -1.5 -21t-4.5 -23l-70 -317h-171l69 311q2 8 3 15t1 13q0 44 -50 44q-12 0 -29 -2t-25 -4l-82 -377h-171zM322 569l-68 161h123l31 -80l62 80h138l-138 -161h-148z" />
    <glyph glyph-name="ntilde" unicode="&#xf1;" horiz-adv-x="551" 
d="M146 459q20 6 47 13t57.5 13t63.5 10t66 4q90 0 143 -33.5t53 -104.5q0 -13 -1.5 -21t-4.5 -23l-70 -317h-171l69 311q2 8 3 15t1 13q0 44 -50 44q-12 0 -29 -2t-25 -4l-82 -377h-171zM239 625q16 36 41 62t70 26q23 0 40.5 -5t31 -11.5t23.5 -11.5t18 -5q13 0 21 10.5
t16 27.5l89 -42q-20 -41 -46 -67.5t-68 -26.5q-23 0 -40.5 5.5t-30.5 12.5t-22.5 12.5t-16.5 5.5q-14 0 -23 -12t-15 -25z" />
    <glyph glyph-name="ncommaaccent" unicode="&#x146;" horiz-adv-x="551" 
d="M146 459q20 6 47 13t57.5 13t63.5 10t66 4q90 0 143 -33.5t53 -104.5q0 -13 -1.5 -21t-4.5 -23l-70 -317h-171l69 311q2 8 3 15t1 13q0 44 -50 44q-12 0 -29 -2t-25 -4l-82 -377h-171zM352 -46l-130 -142h-127l91 142h166z" />
    <glyph glyph-name="ograve" unicode="&#xf2;" horiz-adv-x="534" 
d="M361 499q99 0 150.5 -43t51.5 -130q0 -70 -18 -131.5t-54.5 -107.5t-92 -72.5t-130.5 -26.5q-98 0 -150 42.5t-52 130.5q0 70 18 131.5t54.5 107.5t92 72.5t130.5 26.5zM345 383q-31 0 -51 -22t-32 -54.5t-17 -70t-5 -69.5q0 -35 9 -49t35 -14q31 0 51 21.5t32 54
t17 70.5t5 70q0 35 -9 49t-35 14zM411 730l40 -161h-120l-88 161h168z" />
    <glyph glyph-name="oacute" unicode="&#xf3;" horiz-adv-x="534" 
d="M361 499q99 0 150.5 -43t51.5 -130q0 -70 -18 -131.5t-54.5 -107.5t-92 -72.5t-130.5 -26.5q-98 0 -150 42.5t-52 130.5q0 70 18 131.5t54.5 107.5t92 72.5t130.5 26.5zM345 383q-31 0 -51 -22t-32 -54.5t-17 -70t-5 -69.5q0 -35 9 -49t35 -14q31 0 51 21.5t32 54
t17 70.5t5 70q0 35 -9 49t-35 14zM603 730l-145 -161h-125l95 161h175z" />
    <glyph glyph-name="ocircumflex" unicode="&#xf4;" horiz-adv-x="534" 
d="M361 499q99 0 150.5 -43t51.5 -130q0 -70 -18 -131.5t-54.5 -107.5t-92 -72.5t-130.5 -26.5q-98 0 -150 42.5t-52 130.5q0 70 18 131.5t54.5 107.5t92 72.5t130.5 26.5zM345 383q-31 0 -51 -22t-32 -54.5t-17 -70t-5 -69.5q0 -35 9 -49t35 -14q31 0 51 21.5t32 54
t17 70.5t5 70q0 35 -9 49t-35 14zM507 730l69 -161h-123l-30 80l-62 -80h-138l139 161h145z" />
    <glyph glyph-name="otilde" unicode="&#xf5;" horiz-adv-x="534" 
d="M361 499q99 0 150.5 -43t51.5 -130q0 -70 -18 -131.5t-54.5 -107.5t-92 -72.5t-130.5 -26.5q-98 0 -150 42.5t-52 130.5q0 70 18 131.5t54.5 107.5t92 72.5t130.5 26.5zM345 383q-31 0 -51 -22t-32 -54.5t-17 -70t-5 -69.5q0 -35 9 -49t35 -14q31 0 51 21.5t32 54
t17 70.5t5 70q0 35 -9 49t-35 14zM242 625q16 36 41 62t70 26q23 0 40.5 -5t31 -11.5t23.5 -11.5t18 -5q13 0 21 10.5t16 27.5l89 -42q-20 -41 -46 -67.5t-68 -26.5q-23 0 -40.5 5.5t-30.5 12.5t-22.5 12.5t-16.5 5.5q-14 0 -23 -12t-15 -25z" />
    <glyph glyph-name="odieresis" unicode="&#xf6;" horiz-adv-x="534" 
d="M361 499q99 0 150.5 -43t51.5 -130q0 -70 -18 -131.5t-54.5 -107.5t-92 -72.5t-130.5 -26.5q-98 0 -150 42.5t-52 130.5q0 70 18 131.5t54.5 107.5t92 72.5t130.5 26.5zM345 383q-31 0 -51 -22t-32 -54.5t-17 -70t-5 -69.5q0 -35 9 -49t35 -14q31 0 51 21.5t32 54
t17 70.5t5 70q0 35 -9 49t-35 14zM309 587q-32 0 -50 13t-18 36q0 35 27 57t69 22q32 0 50 -13t18 -36q0 -35 -27 -57t-69 -22zM498 587q-32 0 -50 13t-18 36q0 35 27 57t69 22q32 0 50 -13t18 -36q0 -35 -27 -57t-69 -22z" />
    <glyph glyph-name="omacron" unicode="&#x14d;" horiz-adv-x="534" 
d="M361 499q99 0 150.5 -43t51.5 -130q0 -70 -18 -131.5t-54.5 -107.5t-92 -72.5t-130.5 -26.5q-98 0 -150 42.5t-52 130.5q0 70 18 131.5t54.5 107.5t92 72.5t130.5 26.5zM345 383q-31 0 -51 -22t-32 -54.5t-17 -70t-5 -69.5q0 -35 9 -49t35 -14q31 0 51 21.5t32 54
t17 70.5t5 70q0 35 -9 49t-35 14zM577 694l-20 -90h-299l20 90h299z" />
    <glyph glyph-name="obreve" unicode="&#x14f;" horiz-adv-x="534" 
d="M361 499q99 0 150.5 -43t51.5 -130q0 -70 -18 -131.5t-54.5 -107.5t-92 -72.5t-130.5 -26.5q-98 0 -150 42.5t-52 130.5q0 70 18 131.5t54.5 107.5t92 72.5t130.5 26.5zM345 383q-31 0 -51 -22t-32 -54.5t-17 -70t-5 -69.5q0 -35 9 -49t35 -14q31 0 51 21.5t32 54
t17 70.5t5 70q0 35 -9 49t-35 14zM391 722q-1 -5 -1.5 -9t-0.5 -8q0 -37 31 -37q18 0 32 12.5t22 41.5h122q-22 -82 -68 -113.5t-117 -31.5q-65 0 -103.5 26.5t-38.5 87.5q0 6 0.5 15t1.5 16h120z" />
    <glyph glyph-name="ohungarumlaut" unicode="&#x151;" horiz-adv-x="534" 
d="M361 499q99 0 150.5 -43t51.5 -130q0 -70 -18 -131.5t-54.5 -107.5t-92 -72.5t-130.5 -26.5q-98 0 -150 42.5t-52 130.5q0 70 18 131.5t54.5 107.5t92 72.5t130.5 26.5zM345 383q-31 0 -51 -22t-32 -54.5t-17 -70t-5 -69.5q0 -35 9 -49t35 -14q31 0 51 21.5t32 54
t17 70.5t5 70q0 35 -9 49t-35 14zM649 730l-111 -161h-112l75 161h148zM458 730l-75 -161h-110l52 161h133z" />
    <glyph glyph-name="oslash" unicode="&#xf8;" horiz-adv-x="534" 
d="M361 499q62 0 107 -18l86 102l53 -48l-81 -95q37 -43 37 -114q0 -70 -18 -131.5t-54.5 -107.5t-92 -72.5t-130.5 -26.5q-63 0 -108 18l-81 -97l-52 48l75 89q-36 42 -36 115q0 70 18 131.5t54.5 107.5t92 72.5t130.5 26.5zM284 104q25 0 43.5 15.5t31 39.5t19 54.5
t9.5 60.5l-135 -160q10 -10 32 -10zM345 383q-26 0 -44.5 -15.5t-30.5 -40.5t-18.5 -55t-9.5 -60l135 161q-10 10 -32 10z" />
    <glyph glyph-name="oslashacute" unicode="&#x1ff;" horiz-adv-x="534" 
d="M361 499q62 0 107 -18l86 102l53 -48l-81 -95q37 -43 37 -114q0 -70 -18 -131.5t-54.5 -107.5t-92 -72.5t-130.5 -26.5q-63 0 -108 18l-81 -97l-52 48l75 89q-36 42 -36 115q0 70 18 131.5t54.5 107.5t92 72.5t130.5 26.5zM284 104q25 0 43.5 15.5t31 39.5t19 54.5
t9.5 60.5l-135 -160q10 -10 32 -10zM345 383q-26 0 -44.5 -15.5t-30.5 -40.5t-18.5 -55t-9.5 -60l135 161q-10 10 -32 10zM603 730l-145 -161h-125l95 161h175z" />
    <glyph glyph-name="oe" unicode="&#x153;" horiz-adv-x="795" 
d="M615 190q-17 0 -33 1t-33 3q-2 -9 -1.5 -14t-0.5 -12q0 -37 18 -50.5t66 -13.5q14 0 31 2t35 5t34.5 7t30.5 9l-9 -113q-38 -12 -80.5 -19t-91.5 -7q-99 0 -148 45q-32 -22 -73.5 -33.5t-91.5 -11.5q-98 0 -150 42.5t-52 130.5q0 70 18 131.5t54.5 107.5t92 72.5
t130.5 26.5q50 0 85.5 -11t60.5 -33q32 22 72 33t93 11q85 0 126 -36t41 -102q0 -43 -16 -75t-45.5 -53.5t-70.5 -32t-92 -10.5zM284 104q31 0 51 22t32 54.5t17 70t5 69.5q0 35 -9 49t-35 14q-31 0 -51 -22t-32 -54.5t-17 -70t-5 -69.5q0 -35 9 -49t35 -14zM566 287
q5 -1 13.5 -1h13.5q45 0 66 15.5t21 54.5q0 41 -37 41q-31 0 -48.5 -27.5t-28.5 -82.5z" />
    <glyph glyph-name="racute" unicode="&#x155;" horiz-adv-x="390" 
d="M434 378q-35 0 -68.5 -1.5t-62.5 -5.5l-81 -371h-171l100 458q78 25 157.5 33t151.5 8zM531 730l-145 -161h-125l95 161h175z" />
    <glyph glyph-name="rcommaaccent" unicode="&#x157;" horiz-adv-x="390" 
d="M434 378q-35 0 -68.5 -1.5t-62.5 -5.5l-81 -371h-171l100 458q78 25 157.5 33t151.5 8zM207 -46l-130 -142h-127l91 142h166z" />
    <glyph glyph-name="rcaron" unicode="&#x159;" horiz-adv-x="390" 
d="M434 378q-35 0 -68.5 -1.5t-62.5 -5.5l-81 -371h-171l100 458q78 25 157.5 33t151.5 8zM246 569l-68 161h123l31 -80l62 80h138l-138 -161h-148z" />
    <glyph glyph-name="sacute" unicode="&#x15b;" horiz-adv-x="433" 
d="M456 372q-9 2 -23.5 5t-32 5.5t-36.5 4.5t-36 2q-34 0 -51.5 -7.5t-17.5 -28.5q0 -12 12.5 -23.5t32 -23.5t41.5 -26t41.5 -32t32 -40t12.5 -50q0 -50 -20.5 -82.5t-53.5 -52t-75 -27.5t-86 -8q-20 0 -42.5 2t-44 5t-41 7t-34.5 9l25 113q24 -8 60.5 -16t74.5 -8
q32 0 48 8t16 29q0 13 -12 25t-30.5 24.5t-39.5 26.5t-39.5 32t-30.5 41t-12 53q0 48 20.5 79t55 49t79.5 25t95 7q41 0 77.5 -4.5t59.5 -9.5zM524 729l-145 -161h-125l95 161h175z" />
    <glyph glyph-name="scircumflex" unicode="&#x15d;" horiz-adv-x="433" 
d="M456 372q-9 2 -23.5 5t-32 5.5t-36.5 4.5t-36 2q-34 0 -51.5 -7.5t-17.5 -28.5q0 -12 12.5 -23.5t32 -23.5t41.5 -26t41.5 -32t32 -40t12.5 -50q0 -50 -20.5 -82.5t-53.5 -52t-75 -27.5t-86 -8q-20 0 -42.5 2t-44 5t-41 7t-34.5 9l25 113q24 -8 60.5 -16t74.5 -8
q32 0 48 8t16 29q0 13 -12 25t-30.5 24.5t-39.5 26.5t-39.5 32t-30.5 41t-12 53q0 48 20.5 79t55 49t79.5 25t95 7q41 0 77.5 -4.5t59.5 -9.5zM443 730l69 -161h-123l-30 80l-62 -80h-138l139 161h145z" />
    <glyph glyph-name="scaron" unicode="&#x161;" horiz-adv-x="433" 
d="M456 372q-9 2 -23.5 5t-32 5.5t-36.5 4.5t-36 2q-34 0 -51.5 -7.5t-17.5 -28.5q0 -12 12.5 -23.5t32 -23.5t41.5 -26t41.5 -32t32 -40t12.5 -50q0 -50 -20.5 -82.5t-53.5 -52t-75 -27.5t-86 -8q-20 0 -42.5 2t-44 5t-41 7t-34.5 9l25 113q24 -8 60.5 -16t74.5 -8
q32 0 48 8t16 29q0 13 -12 25t-30.5 24.5t-39.5 26.5t-39.5 32t-30.5 41t-12 53q0 48 20.5 79t55 49t79.5 25t95 7q41 0 77.5 -4.5t59.5 -9.5zM261 569l-68 161h123l31 -80l62 80h138l-138 -161h-148z" />
    <glyph glyph-name="scedilla" unicode="&#x15f;" horiz-adv-x="433" 
d="M456 372q-9 2 -23.5 5t-32 5.5t-36.5 4.5t-36 2q-34 0 -51.5 -7.5t-17.5 -28.5q0 -12 12.5 -23.5t32 -23.5t41.5 -26t41.5 -32t32 -40t12.5 -50q0 -50 -20.5 -82.5t-53.5 -52t-75 -27.5t-86 -8q-20 0 -42.5 2t-44 5t-41 7t-34.5 9l25 113q24 -8 60.5 -16t74.5 -8
q32 0 48 8t16 29q0 13 -12 25t-30.5 24.5t-39.5 26.5t-39.5 32t-30.5 41t-12 53q0 48 20.5 79t55 49t79.5 25t95 7q41 0 77.5 -4.5t59.5 -9.5zM290 -35q16 -27 16 -60q-1 -48 -34.5 -78.5t-102.5 -30.5q-26 0 -50 5t-40 12l21 90q14 -5 27.5 -8.5t24.5 -3.5q17 0 23 9t6 28
q0 6 -2 16.5t-6 20.5h117z" />
    <glyph glyph-name="scommaaccent" unicode="&#x219;" horiz-adv-x="433" 
d="M456 372q-9 2 -23.5 5t-32 5.5t-36.5 4.5t-36 2q-34 0 -51.5 -7.5t-17.5 -28.5q0 -12 12.5 -23.5t32 -23.5t41.5 -26t41.5 -32t32 -40t12.5 -50q0 -50 -20.5 -82.5t-53.5 -52t-75 -27.5t-86 -8q-20 0 -42.5 2t-44 5t-41 7t-34.5 9l25 113q24 -8 60.5 -16t74.5 -8
q32 0 48 8t16 29q0 13 -12 25t-30.5 24.5t-39.5 26.5t-39.5 32t-30.5 41t-12 53q0 48 20.5 79t55 49t79.5 25t95 7q41 0 77.5 -4.5t59.5 -9.5zM306 -46l-130 -142h-127l91 142h166z" />
    <glyph glyph-name="germandbls" unicode="&#xdf;" horiz-adv-x="534" 
d="M-87 -121q33 25 56 48t39 47t26 51t17 60l103 476q19 86 80.5 133.5t178.5 47.5q49 0 85 -12t58.5 -32t33.5 -45.5t11 -52.5q0 -29 -7 -52t-18.5 -42.5t-25 -35.5t-25.5 -30q-15 -17 -27 -32t-12 -33q0 -17 11 -39t24.5 -48.5t24.5 -56.5t11 -63q0 -45 -15 -79
t-41.5 -56.5t-63 -33.5t-78.5 -11q-61 0 -106 14l24 111q19 -5 35.5 -8.5t35.5 -3.5q17 0 31 8.5t14 38.5q0 24 -10 47t-22.5 46t-22.5 47.5t-10 51.5q0 22 6.5 40t16.5 34.5t22 32t24 30.5q17 23 30 47t13 56q0 45 -44 45q-58 0 -71 -64l-104 -475q-11 -50 -30.5 -92
t-50 -79t-73 -69.5t-97.5 -62.5l-57 96v0z" />
    <glyph glyph-name="longs" unicode="&#x17f;" horiz-adv-x="358" 
d="M167 487l16 74q20 90 86.5 135.5t160.5 45.5q24 0 48 -2.5t45 -7.5l-25 -114q-20 3 -39 5t-35 2q-24 0 -43 -13t-27 -51l-104 -475q-21 -97 -81 -170.5t-170 -132.5l-57 96q32 24 55 47.5t39.5 48.5t26.5 51.5t17 58.5l62 288h-70l25 114h70z" />
    <glyph glyph-name="tcaron" unicode="&#x165;" horiz-adv-x="383" 
d="M558 665l-98 -140h-99l65 140h132zM367 621l-29 -134h122l-25 -114h-122l-49 -223q-1 -4 -1.5 -7t-0.5 -6q0 -17 11 -22.5t23 -5.5q17 0 38.5 4t38.5 9l-21 -117q-30 -10 -59.5 -13.5t-58.5 -3.5q-71 0 -107.5 31.5t-36.5 89.5q0 11 1 21.5t4 23.5l47 219h-70l25 114h70
l58 134h142z" />
    <glyph glyph-name="tcommaaccent" unicode="&#x163;" horiz-adv-x="383" 
d="M367 621l-29 -134h122l-25 -114h-122l-49 -223q-1 -4 -1.5 -7t-0.5 -6q0 -17 11 -22.5t23 -5.5q17 0 38.5 4t38.5 9l-21 -117q-30 -10 -59.5 -13.5t-58.5 -3.5q-71 0 -107.5 31.5t-36.5 89.5q0 11 1 21.5t4 23.5l47 219h-70l25 114h70l58 134h142zM278 -46l-130 -142
h-127l91 142h166z" />
    <glyph glyph-name="tbar" unicode="&#x167;" horiz-adv-x="436" 
d="M313 197l-10 -47q-1 -4 -1.5 -7t-0.5 -6q0 -17 11 -22.5t23 -5.5q17 0 38.5 4t38.5 9l-21 -117q-30 -10 -59.5 -13.5t-58.5 -3.5q-71 0 -107.5 31.5t-36.5 89.5q0 11 1 21.5t4 23.5l9 43h-69l22 103h69l16 73h-70l25 114h70l58 134h142l-29 -134h122l-25 -114h-122
l-16 -73h100l-23 -103h-100z" />
    <glyph glyph-name="ugrave" unicode="&#xf9;" 
d="M319 487l-71 -319q-3 -12 -3 -25q0 -14 6.5 -23t23.5 -9q20 0 40 10.5t39 28.5l75 337h171l-72 -325q-2 -8 -3 -15t-1 -12q0 -14 7 -19t19 -5q10 0 22 2t25 5l-21 -117q-18 -5 -40.5 -9t-51.5 -4q-35 0 -61 12.5t-39 35.5q-60 -48 -143 -48q-85 0 -124 35t-39 105
q0 16 1 35t6 39l63 285h171zM405 730l40 -161h-120l-88 161h168z" />
    <glyph glyph-name="uacute" unicode="&#xfa;" 
d="M319 487l-71 -319q-3 -12 -3 -25q0 -14 6.5 -23t23.5 -9q20 0 40 10.5t39 28.5l75 337h171l-72 -325q-2 -8 -3 -15t-1 -12q0 -14 7 -19t19 -5q10 0 22 2t25 5l-21 -117q-18 -5 -40.5 -9t-51.5 -4q-35 0 -61 12.5t-39 35.5q-60 -48 -143 -48q-85 0 -124 35t-39 105
q0 16 1 35t6 39l63 285h171zM601 730l-145 -161h-125l95 161h175z" />
    <glyph glyph-name="ucircumflex" unicode="&#xfb;" 
d="M319 487l-71 -319q-3 -12 -3 -25q0 -14 6.5 -23t23.5 -9q20 0 40 10.5t39 28.5l75 337h171l-72 -325q-2 -8 -3 -15t-1 -12q0 -14 7 -19t19 -5q10 0 22 2t25 5l-21 -117q-18 -5 -40.5 -9t-51.5 -4q-35 0 -61 12.5t-39 35.5q-60 -48 -143 -48q-85 0 -124 35t-39 105
q0 16 1 35t6 39l63 285h171zM493 730l69 -161h-123l-30 80l-62 -80h-138l139 161h145z" />
    <glyph glyph-name="utilde" unicode="&#x169;" 
d="M319 487l-71 -319q-3 -12 -3 -25q0 -14 6.5 -23t23.5 -9q20 0 40 10.5t39 28.5l75 337h171l-72 -325q-2 -8 -3 -15t-1 -12q0 -14 7 -19t19 -5q10 0 22 2t25 5l-21 -117q-18 -5 -40.5 -9t-51.5 -4q-35 0 -61 12.5t-39 35.5q-60 -48 -143 -48q-85 0 -124 35t-39 105
q0 16 1 35t6 39l63 285h171zM234 625q16 36 41 62t70 26q23 0 40.5 -5t31 -11.5t23.5 -11.5t18 -5q13 0 21 10.5t16 27.5l89 -42q-20 -41 -46 -67.5t-68 -26.5q-23 0 -40.5 5.5t-30.5 12.5t-22.5 12.5t-16.5 5.5q-14 0 -23 -12t-15 -25z" />
    <glyph glyph-name="udieresis" unicode="&#xfc;" 
d="M319 487l-71 -319q-3 -12 -3 -25q0 -14 6.5 -23t23.5 -9q20 0 40 10.5t39 28.5l75 337h171l-72 -325q-2 -8 -3 -15t-1 -12q0 -14 7 -19t19 -5q10 0 22 2t25 5l-21 -117q-18 -5 -40.5 -9t-51.5 -4q-35 0 -61 12.5t-39 35.5q-60 -48 -143 -48q-85 0 -124 35t-39 105
q0 16 1 35t6 39l63 285h171zM302 587q-32 0 -50 13t-18 36q0 35 27 57t69 22q32 0 50 -13t18 -36q0 -35 -27 -57t-69 -22zM491 587q-32 0 -50 13t-18 36q0 35 27 57t69 22q32 0 50 -13t18 -36q0 -35 -27 -57t-69 -22z" />
    <glyph glyph-name="umacron" unicode="&#x16b;" 
d="M319 487l-71 -319q-3 -12 -3 -25q0 -14 6.5 -23t23.5 -9q20 0 40 10.5t39 28.5l75 337h171l-72 -325q-2 -8 -3 -15t-1 -12q0 -14 7 -19t19 -5q10 0 22 2t25 5l-21 -117q-18 -5 -40.5 -9t-51.5 -4q-35 0 -61 12.5t-39 35.5q-60 -48 -143 -48q-85 0 -124 35t-39 105
q0 16 1 35t6 39l63 285h171zM568 694l-20 -90h-299l20 90h299z" />
    <glyph glyph-name="ubreve" unicode="&#x16d;" 
d="M319 487l-71 -319q-3 -12 -3 -25q0 -14 6.5 -23t23.5 -9q20 0 40 10.5t39 28.5l75 337h171l-72 -325q-2 -8 -3 -15t-1 -12q0 -14 7 -19t19 -5q10 0 22 2t25 5l-21 -117q-18 -5 -40.5 -9t-51.5 -4q-35 0 -61 12.5t-39 35.5q-60 -48 -143 -48q-85 0 -124 35t-39 105
q0 16 1 35t6 39l63 285h171zM382 722q-1 -5 -1.5 -9t-0.5 -8q0 -37 31 -37q18 0 32 12.5t22 41.5h122q-22 -82 -68 -113.5t-117 -31.5q-65 0 -103.5 26.5t-38.5 87.5q0 6 0.5 15t1.5 16h120z" />
    <glyph glyph-name="uring" unicode="&#x16f;" 
d="M319 487l-71 -319q-3 -12 -3 -25q0 -14 6.5 -23t23.5 -9q20 0 40 10.5t39 28.5l75 337h171l-72 -325q-2 -8 -3 -15t-1 -12q0 -14 7 -19t19 -5q10 0 22 2t25 5l-21 -117q-18 -5 -40.5 -9t-51.5 -4q-35 0 -61 12.5t-39 35.5q-60 -48 -143 -48q-85 0 -124 35t-39 105
q0 16 1 35t6 39l63 285h171zM403 617q16 0 26.5 9t10.5 29q0 26 -24 26q-16 0 -25.5 -9.5t-9.5 -29.5q0 -12 4.5 -18.5t17.5 -6.5zM390 556q-50 0 -79 19.5t-29 56.5q0 31 11.5 52t32 34t47.5 18.5t57 5.5q49 0 78.5 -19.5t29.5 -56.5q0 -31 -12 -52t-32 -34t-47 -18.5
t-57 -5.5z" />
    <glyph glyph-name="uhungarumlaut" unicode="&#x171;" 
d="M319 487l-71 -319q-3 -12 -3 -25q0 -14 6.5 -23t23.5 -9q20 0 40 10.5t39 28.5l75 337h171l-72 -325q-2 -8 -3 -15t-1 -12q0 -14 7 -19t19 -5q10 0 22 2t25 5l-21 -117q-18 -5 -40.5 -9t-51.5 -4q-35 0 -61 12.5t-39 35.5q-60 -48 -143 -48q-85 0 -124 35t-39 105
q0 16 1 35t6 39l63 285h171zM633 730l-111 -161h-112l75 161h148zM442 730l-75 -161h-110l52 161h133z" />
    <glyph glyph-name="uogonek" unicode="&#x173;" 
d="M533 -182q-36 -18 -85 -18t-79 21.5t-30 59.5q0 22 7.5 40t19.5 32t28 25.5t34 20.5q-30 10 -44 37q-60 -48 -143 -48q-85 0 -124 35t-39 105q0 16 1 35t6 39l63 285h171l-71 -319q-3 -12 -3 -25q0 -14 6.5 -23t23.5 -9q20 0 40 10.5t39 28.5l75 337h171l-72 -325
q-2 -8 -3 -15t-1 -12q0 -14 7 -19t19 -5q10 0 22 2t25 5l-21 -117q-10 -2 -20.5 -4.5t-22.5 -4.5q-23 -17 -42 -38t-19 -41q0 -18 20 -18q10 0 24.5 3t34.5 11z" />
    <glyph glyph-name="wgrave" unicode="&#x1e81;" horiz-adv-x="843" 
d="M552 730l40 -161h-120l-88 161h168zM484 0l-7 308l-139 -308h-204l-34 487h164l9 -322l145 322h186l5 -326q42 68 77.5 150t69.5 176h157q-44 -122 -102 -243t-144 -244h-183z" />
    <glyph glyph-name="wacute" unicode="&#x1e83;" horiz-adv-x="843" 
d="M732 730l-145 -161h-125l95 161h175zM484 0l-7 308l-139 -308h-204l-34 487h164l9 -322l145 322h186l5 -326q42 68 77.5 150t69.5 176h157q-44 -122 -102 -243t-144 -244h-183z" />
    <glyph glyph-name="wcircumflex" unicode="&#x175;" horiz-adv-x="843" 
d="M641 730l69 -161h-123l-30 80l-62 -80h-138l139 161h145zM484 0l-7 308l-139 -308h-204l-34 487h164l9 -322l145 322h186l5 -326q42 68 77.5 150t69.5 176h157q-44 -122 -102 -243t-144 -244h-183z" />
    <glyph glyph-name="wdieresis" unicode="&#x1e85;" horiz-adv-x="843" 
d="M447 587q-32 0 -50 13t-18 36q0 35 27 57t69 22q32 0 50 -13t18 -36q0 -35 -27 -57t-69 -22zM636 587q-32 0 -50 13t-18 36q0 35 27 57t69 22q32 0 50 -13t18 -36q0 -35 -27 -57t-69 -22zM484 0l-7 308l-139 -308h-204l-34 487h164l9 -322l145 322h186l5 -326
q42 68 77.5 150t69.5 176h157q-44 -122 -102 -243t-144 -244h-183z" />
    <glyph glyph-name="ygrave" unicode="&#x1ef3;" horiz-adv-x="556" 
d="M316 487l-67 -307q-3 -14 -3 -24q0 -17 8 -26.5t27 -9.5q16 0 34.5 8t34.5 22l76 337h171l-107 -485q-14 -62 -41 -101.5t-64.5 -62t-83.5 -30.5t-98 -8q-50 0 -95 8t-67 16l27 116q12 -4 29.5 -8.5t37 -8t40 -6t38.5 -2.5q20 0 37.5 3t31 12t22.5 24.5t14 40.5l5 27
q-39 -22 -84 -22q-76 0 -118.5 35t-42.5 106q0 16 1 34.5t6 38.5l60 273h171zM400 730l40 -161h-120l-88 161h168z" />
    <glyph glyph-name="yacute" unicode="&#xfd;" horiz-adv-x="556" 
d="M316 487l-67 -307q-3 -14 -3 -24q0 -17 8 -26.5t27 -9.5q16 0 34.5 8t34.5 22l76 337h171l-107 -485q-14 -62 -41 -101.5t-64.5 -62t-83.5 -30.5t-98 -8q-50 0 -95 8t-67 16l27 116q12 -4 29.5 -8.5t37 -8t40 -6t38.5 -2.5q20 0 37.5 3t31 12t22.5 24.5t14 40.5l5 27
q-39 -22 -84 -22q-76 0 -118.5 35t-42.5 106q0 16 1 34.5t6 38.5l60 273h171zM593 730l-145 -161h-125l95 161h175z" />
    <glyph glyph-name="ycircumflex" unicode="&#x177;" horiz-adv-x="556" 
d="M316 487l-67 -307q-3 -14 -3 -24q0 -17 8 -26.5t27 -9.5q16 0 34.5 8t34.5 22l76 337h171l-107 -485q-14 -62 -41 -101.5t-64.5 -62t-83.5 -30.5t-98 -8q-50 0 -95 8t-67 16l27 116q12 -4 29.5 -8.5t37 -8t40 -6t38.5 -2.5q20 0 37.5 3t31 12t22.5 24.5t14 40.5l5 27
q-39 -22 -84 -22q-76 0 -118.5 35t-42.5 106q0 16 1 34.5t6 38.5l60 273h171zM485 730l69 -161h-123l-30 80l-62 -80h-138l139 161h145z" />
    <glyph glyph-name="ydieresis" unicode="&#xff;" horiz-adv-x="556" 
d="M316 487l-67 -307q-3 -14 -3 -24q0 -17 8 -26.5t27 -9.5q16 0 34.5 8t34.5 22l76 337h171l-107 -485q-14 -62 -41 -101.5t-64.5 -62t-83.5 -30.5t-98 -8q-50 0 -95 8t-67 16l27 116q12 -4 29.5 -8.5t37 -8t40 -6t38.5 -2.5q20 0 37.5 3t31 12t22.5 24.5t14 40.5l5 27
q-39 -22 -84 -22q-76 0 -118.5 35t-42.5 106q0 16 1 34.5t6 38.5l60 273h171zM298 587q-32 0 -50 13t-18 36q0 35 27 57t69 22q32 0 50 -13t18 -36q0 -35 -27 -57t-69 -22zM487 587q-32 0 -50 13t-18 36q0 35 27 57t69 22q32 0 50 -13t18 -36q0 -35 -27 -57t-69 -22z" />
    <glyph glyph-name="zacute" unicode="&#x17a;" horiz-adv-x="480" 
d="M524 487v-99l-266 -274h217l-23 -114h-405v99l272 274h-201l25 114h381zM562 730l-145 -161h-125l95 161h175z" />
    <glyph glyph-name="zcaron" unicode="&#x17e;" horiz-adv-x="480" 
d="M524 487v-99l-266 -274h217l-23 -114h-405v99l272 274h-201l25 114h381zM292 569l-68 161h123l31 -80l62 80h138l-138 -161h-148z" />
    <glyph glyph-name="zdotaccent" unicode="&#x17c;" horiz-adv-x="480" 
d="M524 487v-99l-266 -274h217l-23 -114h-405v99l272 274h-201l25 114h381zM365 584q-35 0 -54.5 13t-19.5 39q0 38 29 60t73 22q35 0 54.5 -13t19.5 -39q0 -38 -29 -60t-73 -22z" />
    <glyph glyph-name="eng" unicode="&#x14b;" horiz-adv-x="557" 
d="M146 459q20 6 47 13t57.5 13t63.5 10t66 4q90 0 143 -33.5t53 -104.5q0 -13 -1.5 -21t-4.5 -23l-52 -231q-12 -51 -32 -94t-50.5 -79.5t-72.5 -68t-97 -61.5l-57 96q33 25 56 48t39 47t25.5 51t17.5 60l51 226q2 8 3 15t1 13q0 44 -50 44q-12 0 -29 -2t-25 -4l-82 -377
h-171l101 459v0z" />
    <glyph glyph-name="eth" unicode="&#xf0;" horiz-adv-x="537" 
d="M402 638h-4q-11 22 -21 42.5t-28 49.5h154q9 -13 20.5 -33.5t17.5 -32.5l124 22l-19 -90l-75 -13q5 -35 10 -74t5 -81q0 -51 -6.5 -104t-21 -102t-39 -91.5t-59.5 -74t-82 -50t-108 -18.5q-99 0 -151.5 42.5t-52.5 130.5q0 70 18.5 131.5t55 107.5t92.5 72.5t131 26.5
q24 0 44.5 -7t34.5 -19q-4 21 -8 45.5t-9 36.5l-187 -33l19 90zM345 383q-31 0 -51 -22t-32 -54.5t-17 -70t-5 -69.5q0 -35 9 -49t35 -14q31 0 51 21.5t32 54t17 70.5t5 70q0 35 -9 49t-35 14z" />
    <glyph glyph-name="thorn" unicode="&#xfe;" horiz-adv-x="547" 
d="M210 730h171l-52 -234q28 3 56 3q97 0 145.5 -40t48.5 -130q0 -22 -2 -42.5t-5 -40.5q-9 -56 -32 -103.5t-58 -82t-82.5 -53.5t-106.5 -19q-17 0 -36.5 2.5t-35.5 6.5l-41 -185h-170zM245 110q12 -3 23.5 -4.5t27.5 -1.5q18 0 32.5 7t27 24.5t23 45.5t19.5 70q9 43 9 71
q0 36 -11.5 48.5t-35.5 12.5q-14 0 -31 -2t-26 -4z" />
    <glyph glyph-name="ampersand" unicode="&#x26;" horiz-adv-x="652" 
d="M276 268q-28 -17 -48.5 -42.5t-20.5 -64.5q0 -29 16.5 -42.5t44.5 -13.5q22 0 46.5 7t44.5 24zM487 256q14 17 30 48t29 66l124 -47q-8 -23 -21 -48t-28.5 -49.5t-32.5 -47t-35 -38.5l89 -140h-201l-23 39q-38 -24 -81 -38t-98 -14q-94 0 -150 39t-56 111q0 49 13 84
t35.5 61.5t53.5 47t67 40.5q-17 26 -28.5 60t-11.5 66q0 87 62 134t169 47q41 0 76 -7.5t60.5 -23t39.5 -40t14 -57.5q0 -34 -11 -62.5t-31 -52.5t-48 -45t-61 -40zM354 438q29 20 48.5 42t19.5 58q0 20 -12.5 28t-29.5 8q-19 0 -35 -15t-17 -48q0 -22 8 -39t18 -34z" />
    <glyph glyph-name="grave" unicode="`" horiz-adv-x="522" 
d="M425 730l40 -161h-120l-88 161h168z" />
    <glyph glyph-name="acute" unicode="&#xb4;" horiz-adv-x="522" 
d="M578 730l-145 -161h-125l95 161h175z" />
    <glyph glyph-name="circumflex" unicode="&#x2c6;" horiz-adv-x="522" 
d="M503 730l69 -161h-123l-30 80l-62 -80h-138l139 161h145z" />
    <glyph glyph-name="caron" unicode="&#x2c7;" horiz-adv-x="522" 
d="M321 569l-68 161h123l31 -80l62 80h138l-138 -161h-148z" />
    <glyph glyph-name="tilde" unicode="&#x2dc;" horiz-adv-x="522" 
d="M238 625q16 36 41 62t70 26q23 0 40.5 -5t31 -11.5t23.5 -11.5t18 -5q13 0 21 10.5t16 27.5l89 -42q-20 -41 -46 -67.5t-68 -26.5q-23 0 -40.5 5.5t-30.5 12.5t-22.5 12.5t-16.5 5.5q-14 0 -23 -12t-15 -25z" />
    <glyph glyph-name="dieresis" unicode="&#xa8;" horiz-adv-x="522" 
d="M305 587q-32 0 -50 13t-18 36q0 35 27 57t69 22q32 0 50 -13t18 -36q0 -35 -27 -57t-69 -22zM494 587q-32 0 -50 13t-18 36q0 35 27 57t69 22q32 0 50 -13t18 -36q0 -35 -27 -57t-69 -22z" />
    <glyph glyph-name="macron" unicode="&#xaf;" horiz-adv-x="522" 
d="M574 694l-20 -90h-299l20 90h299z" />
    <glyph glyph-name="breve" unicode="&#x2d8;" horiz-adv-x="522" 
d="M387 722q-1 -5 -1.5 -9t-0.5 -8q0 -37 31 -37q18 0 32 12.5t22 41.5h122q-22 -82 -68 -113.5t-117 -31.5q-65 0 -103.5 26.5t-38.5 87.5q0 6 0.5 15t1.5 16h120z" />
    <glyph glyph-name="ring" unicode="&#x2da;" horiz-adv-x="522" 
d="M407 617q16 0 26.5 9t10.5 29q0 26 -24 26q-16 0 -25.5 -9.5t-9.5 -29.5q0 -12 4.5 -18.5t17.5 -6.5zM394 556q-50 0 -79 19.5t-29 56.5q0 31 11.5 52t32 34t47.5 18.5t57 5.5q49 0 78.5 -19.5t29.5 -56.5q0 -31 -12 -52t-32 -34t-47 -18.5t-57 -5.5z" />
    <glyph glyph-name="hungarumlaut" unicode="&#x2dd;" horiz-adv-x="522" 
d="M636 730l-111 -161h-112l75 161h148zM445 730l-75 -161h-110l52 161h133z" />
    <glyph glyph-name="dotaccent" unicode="&#x2d9;" horiz-adv-x="522" 
d="M401 584q-35 0 -54.5 13t-19.5 39q0 38 29 60t73 22q35 0 54.5 -13t19.5 -39q0 -38 -29 -60t-73 -22z" />
    <glyph glyph-name="cedilla" unicode="&#xb8;" horiz-adv-x="522" 
d="M324 -35q16 -27 16 -60q-1 -48 -34.5 -78.5t-102.5 -30.5q-26 0 -50 5t-40 12l21 90q14 -5 27.5 -8.5t24.5 -3.5q17 0 23 9t6 28q0 6 -2 16.5t-6 20.5h117z" />
    <glyph glyph-name="ogonek" unicode="&#x2db;" horiz-adv-x="522" 
d="M315 -182q-36 -18 -85 -18t-79 21.5t-30 59.5q0 22 7.5 40t20 32.5t28.5 26t34 20.5h114q-12 -9 -24.5 -19.5t-23 -22t-17 -23t-6.5 -22.5q0 -18 20 -18q10 0 24.5 3t34.5 11z" />
    <glyph glyph-name="commaaccentcomb" horiz-adv-x="522" 
d="M385 -46l-130 -142h-127l91 142h166z" />
    <glyph glyph-name="comma" unicode="," horiz-adv-x="261" 
d="M253 152l-167 -285h-118l115 285h170z" />
    <glyph glyph-name="semicolon" unicode=";" horiz-adv-x="261" 
d="M239 152l-167 -285h-118l115 285h170zM219 499q42 0 64.5 -18.5t22.5 -49.5q0 -50 -35.5 -75.5t-87.5 -25.5q-40 0 -63 18.5t-23 49.5q0 25 10 43.5t26.5 31.5t39 19.5t46.5 6.5z" />
    <glyph glyph-name="colon" unicode=":" horiz-adv-x="261" 
d="M219 499q42 0 64.5 -18.5t22.5 -49.5q0 -50 -35.5 -75.5t-87.5 -25.5q-40 0 -63 18.5t-23 49.5q0 25 10 43.5t26.5 31.5t39 19.5t46.5 6.5zM149 157q42 0 64.5 -18.5t22.5 -49.5q0 -50 -35.5 -75.5t-87.5 -25.5q-40 0 -63 18.5t-23 49.5q0 25 10 43.5t26.5 31.5t39 19.5
t46.5 6.5z" />
    <glyph glyph-name="period" unicode="." horiz-adv-x="261" 
d="M148 157q42 0 64.5 -18.5t22.5 -49.5q0 -50 -35.5 -75.5t-87.5 -25.5q-40 0 -63 18.5t-23 49.5q0 25 10 43.5t26.5 31.5t39 19.5t46.5 6.5z" />
    <glyph glyph-name="ellipsis" unicode="&#x2026;" horiz-adv-x="784" 
d="M148 157q42 0 64.5 -18.5t22.5 -49.5q0 -50 -35.5 -75.5t-87.5 -25.5q-40 0 -63 18.5t-23 49.5q0 25 10 43.5t26.5 31.5t39 19.5t46.5 6.5zM410 157q42 0 64.5 -18.5t22.5 -49.5q0 -50 -35.5 -75.5t-87.5 -25.5q-40 0 -63 18.5t-23 49.5q0 25 10 43.5t26.5 31.5t39 19.5
t46.5 6.5zM671 157q42 0 64.5 -18.5t22.5 -49.5q0 -50 -35.5 -75.5t-87.5 -25.5q-40 0 -63 18.5t-23 49.5q0 25 10 43.5t26.5 31.5t39 19.5t46.5 6.5z" />
    <glyph glyph-name="hyphen" unicode="-" horiz-adv-x="382" 
d="M397 327l-24 -112h-286l24 112h286z" />
    <glyph glyph-name="exclam" unicode="!" horiz-adv-x="289" 
d="M364 665l-128 -470h-133l75 470h186zM155 144q38 0 59 -17t21 -46q0 -46 -33 -69.5t-81 -23.5q-37 0 -58 17t-21 46q0 23 9 40.5t25 29t36 17.5t43 6z" />
    <glyph glyph-name="exclamdown" unicode="&#xa1;" horiz-adv-x="289" 
d="M-6 -188l127 470h133l-76 -470h-184zM232 499q38 0 59 -17t21 -46q0 -46 -33 -69.5t-81 -23.5q-37 0 -58 17t-21 46q0 23 9 40.5t25 29t36 17.5t43 6z" />
    <glyph glyph-name="question" unicode="?" horiz-adv-x="435" 
d="M146 648q30 11 74.5 19.5t98.5 8.5q40 0 73.5 -8t58.5 -24t39 -40.5t14 -55.5q0 -42 -13 -73t-33.5 -55.5t-45 -44.5t-47 -40t-39.5 -42t-23 -50l-11 -51h-143l14 64q9 41 25 71t35 52.5t38.5 39t35.5 31.5t26 30.5t10 35.5q0 22 -14.5 30.5t-39.5 8.5q-32 0 -70 -6
t-66 -17zM208 143q38 0 59 -17t21 -46q0 -46 -33 -69.5t-81 -23.5q-37 0 -58 17t-21 46q0 23 9 40.5t25 29t36 17.5t43 6z" />
    <glyph glyph-name="questiondown" unicode="&#xbf;" horiz-adv-x="395" 
d="M320 -162q-30 -11 -74.5 -19.5t-98.5 -8.5q-40 0 -74 8t-58.5 24t-38.5 40t-14 56q0 42 13 73t33.5 55.5t45 44.5t47 40t39.5 42t23 50l11 51h143l-14 -64q-9 -41 -25 -71t-35 -52.5t-38.5 -39t-35.5 -31.5t-26 -30.5t-10 -35.5q0 -22 14.5 -30.5t39.5 -8.5q32 0 70 6
t66 17zM258 343q-38 0 -59 17t-21 46q0 46 33 69.5t81 23.5q37 0 58 -17t21 -46q0 -23 -9 -40.5t-25 -29t-36.5 -17.5t-42.5 -6z" />
    <glyph glyph-name="quoteleft" unicode="&#x2018;" horiz-adv-x="237" 
d="M82 452l124 213h119l-82 -213h-161z" />
    <glyph glyph-name="quoteright" unicode="&#x2019;" horiz-adv-x="237" 
d="M337 665l-124 -213h-119l82 213h161z" />
    <glyph glyph-name="quotedblleft" unicode="&#x201c;" horiz-adv-x="461" 
d="M319 452l94 213h118l-57 -213h-155zM104 452l135 213h119l-98 -213h-156z" />
    <glyph glyph-name="quotedblright" unicode="&#x201d;" horiz-adv-x="461" 
d="M340 665l-94 -213h-118l57 213h155zM555 665l-135 -213h-119l98 213h156z" />
    <glyph glyph-name="quotesinglbase" unicode="&#x201a;" horiz-adv-x="237" 
d="M213 53l-124 -213h-119l82 213h161z" />
    <glyph glyph-name="quotedblbase" unicode="&#x201e;" horiz-adv-x="446" 
d="M203 53l-94 -213h-118l57 213h155zM418 53l-135 -213h-119l98 213h156z" />
    <glyph glyph-name="guilsinglleft" unicode="&#x2039;" horiz-adv-x="352" 
d="M413 452l-155 -181l69 -181h-127l-120 180l179 182h154z" />
    <glyph glyph-name="guilsinglright" unicode="&#x203a;" horiz-adv-x="352" 
d="M6 90l155 181l-69 181h127l120 -180l-179 -182h-154z" />
    <glyph glyph-name="guillemotleft" unicode="&#xab;" horiz-adv-x="588" 
d="M419 452l-162 -181l83 -181h-135l-125 180l186 182h153zM650 452l-127 -181l49 -181h-136l-92 181l152 181h154z" />
    <glyph glyph-name="guillemotright" unicode="&#xbb;" horiz-adv-x="588" 
d="M485 452l126 -180l-187 -182h-152l161 181l-83 181h135zM254 452l93 -181l-153 -181h-153l127 181l-50 181h136z" />
    <glyph glyph-name="slash" unicode="/" horiz-adv-x="455" 
d="M594 730l-494 -783h-130l491 783h133z" />
    <glyph glyph-name="bar" unicode="|" horiz-adv-x="281" 
d="M253 800v-1000h-134v1000h134z" />
    <glyph glyph-name="endash" unicode="&#x2013;" horiz-adv-x="574" 
d="M589 324l-24 -106h-478l24 106h478z" />
    <glyph glyph-name="emdash" unicode="&#x2014;" horiz-adv-x="771" 
d="M786 324l-24 -106h-675l24 106h675z" />
    <glyph glyph-name="bullet" unicode="&#x2022;" horiz-adv-x="366" 
d="M262 401q56 0 89.5 -23t33.5 -71q0 -41 -15 -72.5t-40 -52.5t-57.5 -31.5t-66.5 -10.5q-54 0 -88 24t-34 72q0 42 15.5 73.5t40.5 51.5t57 30t65 10z" />
    <glyph glyph-name="periodcentered" unicode="&#xb7;" horiz-adv-x="261" 
d="M187 353q42 0 64.5 -18.5t22.5 -49.5q0 -50 -35.5 -75.5t-87.5 -25.5q-40 0 -63 18.5t-23 49.5q0 25 10 43.5t26.5 31.5t39 19.5t46.5 6.5z" />
    <glyph glyph-name="parenleft" unicode="(" horiz-adv-x="348" 
d="M69 145q0 171 71 315t200 269h138q-56 -61 -105.5 -125t-87 -136t-59 -154t-21.5 -179q0 -85 19 -167t54 -156h-127q-42 73 -62 161.5t-20 171.5z" />
    <glyph glyph-name="parenright" unicode=")" horiz-adv-x="348" 
d="M353 397q0 -171 -71 -315.5t-200 -268.5h-138q56 61 105.5 125t87 136t59 154t21.5 179q0 85 -19 167t-54 156h127q42 -73 62 -161.5t20 -171.5z" />
    <glyph glyph-name="bracketleft" unicode="[" horiz-adv-x="338" 
d="M469 731l-23 -103h-101l-155 -712h100l-23 -104h-236l200 919h238z" />
    <glyph glyph-name="bracketright" unicode="]" horiz-adv-x="339" 
d="M-52 -188l23 103h101l155 712h-100l23 104h236l-200 -919h-238z" />
    <glyph glyph-name="braceleft" unicode="{" horiz-adv-x="385" 
d="M94 334q32 1 49.5 6t27.5 18.5t15.5 38.5t13.5 67l22 124q14 81 64.5 117.5t137.5 36.5q25 0 47 -3t37 -8l-23 -105q-14 4 -28.5 6.5t-27.5 2.5q-27 0 -47.5 -14.5t-25.5 -43.5l-22 -125q-6 -37 -12.5 -66t-19 -51t-34.5 -37t-61 -24q35 -7 55.5 -27t20.5 -52
q0 -26 -10 -60t-22 -68.5t-22 -66t-10 -52.5q0 -23 12 -32.5t35 -9.5q13 0 29 2.5t32 6.5l-22 -105q-14 -3 -23 -5t-17.5 -3t-17.5 -1.5t-21 -0.5q-66 0 -107.5 30.5t-41.5 92.5q0 27 10.5 64.5t23.5 75t23.5 70.5t10.5 51q0 22 -19.5 27.5t-56.5 7.5z" />
    <glyph glyph-name="braceright" unicode="}" horiz-adv-x="385" 
d="M354 208q-32 -1 -49.5 -6t-27.5 -18.5t-16 -38.5t-13 -67l-22 -124q-14 -81 -64.5 -117.5t-137.5 -36.5q-25 0 -47 3t-37 8l23 105q14 -4 28.5 -6.5t27.5 -2.5q27 0 47.5 14.5t25.5 43.5l22 125q6 37 12.5 66t19 51t34.5 37t61 24q-35 7 -55.5 27t-20.5 52q0 26 10 60
t22 68.5t22 66t10 52.5q0 23 -12 32.5t-35 9.5q-13 0 -29 -2.5t-32 -6.5l22 105q13 3 22.5 5t18 3t17.5 1.5t21 0.5q66 0 107.5 -30.5t41.5 -92.5q0 -27 -10.5 -64.5t-23.5 -75t-23.5 -70.5t-10.5 -51q0 -22 19.5 -27.5t56.5 -7.5z" />
    <glyph glyph-name="asterisk" unicode="*" horiz-adv-x="418" 
d="M259 556l1 109h140l-48 -110l131 53l14 -104l-139 -22l80 -78l-106 -80l-48 102l-83 -102l-85 80l111 78l-126 22l54 104z" />
    <glyph glyph-name="dagger" unicode="&#x2020;" horiz-adv-x="443" 
d="M403 665l-35 -157h125l-22 -105h-125l-56 -255h-145l56 255h-122l22 105h122l35 157h145z" />
    <glyph glyph-name="daggerdbl" unicode="&#x2021;" horiz-adv-x="443" 
d="M232 547l26 118h145l-26 -118h124l-23 -105h-124l-15 -71h124l-24 -106h-124l-25 -117h-145l25 117h-123l24 106h123l15 71h-123l23 105h123z" />
    <glyph glyph-name="section" unicode="&#xa7;" horiz-adv-x="556" 
d="M213 388q-15 19 -23 40t-8 47q0 61 23 100t62 61.5t91.5 31.5t112.5 9q38 0 74 -4.5t71 -12.5l-24 -110q-38 8 -74 12t-67 4q-44 0 -73.5 -13t-29.5 -44q0 -17 16.5 -32.5t41 -32t53.5 -35t53.5 -41.5t41 -52.5t16.5 -67.5q0 -36 -11 -64t-29 -49t-41 -35t-46 -23
q7 -17 11 -34t4 -36q0 -54 -20.5 -93.5t-57 -64.5t-86.5 -37t-110 -12q-58 0 -96.5 8.5t-69.5 18.5l26 115q45 -15 81.5 -21t73.5 -6q16 0 32 2.5t28.5 9t20.5 18t8 28.5q0 19 -13.5 35.5t-34.5 33.5t-44.5 35.5t-44.5 40.5t-34.5 49t-13.5 62q0 53 29.5 93t80.5 66z
M306 315q-18 -5 -33 -17.5t-15 -35.5q0 -21 23.5 -40t52.5 -37l35 -23q16 5 29 18t13 36q0 14 -9.5 27t-24.5 25t-34 24t-37 23z" />
    <glyph glyph-name="paragraph" unicode="&#xb6;" horiz-adv-x="678" 
d="M373 -158h-112l83 382q-9 0 -20 -1t-26 -1q-106 0 -160 33.5t-54 113.5q0 32 9 76q14 64 38 106.5t60.5 68t88.5 35.5t121 10h152zM728 665l-181 -823h-111l180 823h112z" />
    <glyph glyph-name="asciicircum" unicode="^" 
d="M351 537l-130 -176h-138l233 304h121l99 -304h-128z" />
    <glyph glyph-name="asciitilde" unicode="~" 
d="M605 358q-9 -26 -21.5 -47.5t-31 -37t-44.5 -24t-63 -8.5q-27 0 -53 7.5t-48.5 17t-41.5 17t-33 7.5q-21 0 -38.5 -13.5t-28.5 -42.5l-99 42q9 25 21.5 46.5t31.5 37.5t44.5 25t61.5 9q26 0 53 -7.5t52 -16.5t47 -16.5t37 -7.5q20 0 32.5 13.5t24.5 42.5z" />
    <glyph glyph-name="brokenbar" unicode="&#xa6;" horiz-adv-x="281" 
d="M253 800v-401h-134v401h134zM253 201v-401h-134v401h134z" />
    <glyph glyph-name="backslash" unicode="\" horiz-adv-x="455" 
d="M217 730l263 -783h-133l-265 783h135z" />
    <glyph glyph-name="underscore" unicode="_" horiz-adv-x="659" 
d="M651 -13l-21 -98h-670l20 98h671z" />
    <glyph glyph-name="quotesingle" unicode="'" horiz-adv-x="237" 
d="M315 665l-76 -213h-115l17 213h174z" />
    <glyph glyph-name="quotedbl" unicode="&#x22;" horiz-adv-x="461" 
d="M315 665l-76 -213h-115l17 213h174zM539 665l-76 -213h-115l17 213h174z" />
    <glyph glyph-name="at" unicode="@" horiz-adv-x="851" 
d="M623 183q-4 -15 -4 -30t7 -24.5t25 -9.5q28 0 48 27.5t32.5 66t18 78.5t5.5 66q0 186 -229 186q-93 0 -161.5 -35t-114 -94.5t-68 -139t-22.5 -168.5q0 -104 57.5 -152.5t184.5 -48.5q56 0 118 11t120 31l3 -91q-55 -20 -121.5 -32t-135.5 -12q-88 0 -152 20.5t-106 58.5
t-62 91t-20 118q0 105 29 201t89 169.5t152 117.5t218 44q89 0 152.5 -20.5t104.5 -56.5t60 -85.5t19 -107.5q0 -51 -14 -111.5t-43.5 -112t-76 -86t-110.5 -34.5q-47 0 -76.5 13.5t-40.5 31.5q-22 -16 -55.5 -30.5t-74.5 -14.5q-26 0 -49 7.5t-40 24t-26.5 42.5t-9.5 63
q0 70 20 121.5t54.5 85.5t79.5 51t95 17q45 0 89.5 -8t78.5 -22zM510 331q-3 1 -10.5 1.5t-12.5 0.5q-24 0 -40.5 -17.5t-26 -43t-14 -54.5t-4.5 -51q0 -25 6.5 -34.5t20.5 -9.5q21 0 39 18z" />
    <glyph glyph-name="copyright" unicode="&#xa9;" horiz-adv-x="695" 
d="M722 425q0 -89 -25.5 -168.5t-75.5 -139t-124 -94.5t-172 -35q-133 0 -200 64t-67 179q0 90 25 171t74.5 142t124 96.5t172.5 35.5q136 0 202 -66t66 -185zM333 57q74 0 131.5 26.5t96.5 73.5t59.5 112t20.5 143q0 97 -43.5 146t-151.5 49q-73 0 -130 -26t-96.5 -72.5
t-60 -112.5t-20.5 -145q0 -97 43 -145.5t151 -48.5zM479 155q-23 -8 -51.5 -13.5t-59.5 -5.5q-75 0 -114 34.5t-39 103.5q0 52 15.5 98t45 80t73.5 53.5t101 19.5q29 0 53 -4.5t43 -11.5l-20 -88q-19 6 -38.5 10t-42.5 4q-26 0 -43 -15t-28 -37.5t-15.5 -49.5t-4.5 -51
q0 -32 12 -42.5t34 -10.5q23 0 44.5 5.5t45.5 13.5z" />
    <glyph glyph-name="registered" unicode="&#xae;" horiz-adv-x="596" 
d="M401 677q118 0 181 -52t63 -151q0 -69 -23.5 -127.5t-65.5 -100.5t-101 -66t-131 -24q-118 0 -181 50.5t-63 147.5q0 70 23 129.5t65 102.5t101.5 67t131.5 24zM325 217q110 0 174.5 65t64.5 186q0 76 -37 112t-127 36q-111 0 -175 -65.5t-64 -186.5q0 -77 36.5 -112
t127.5 -35zM347 442q10 -2 17 -2q17 0 31 8t14 38q0 14 -7 19t-23 5h-18zM395 566q50 0 80.5 -17t30.5 -53q0 -40 -21.5 -58t-48.5 -28q17 -9 24 -23t9 -30l9 -74h-97l-7 63q-2 17 -6.5 26t-14.5 9q-4 0 -9 0.5t-10 0.5l-22 -99h-94l62 283h115z" />
    <glyph glyph-name="trademark" unicode="&#x2122;" horiz-adv-x="805" 
d="M444 665l-17 -77h-92l-48 -222h-125l48 222h-93l16 77h311zM581 429l-20 100l-36 -163h-111l65 299h128l33 -143l86 143h147l-65 -299h-111l37 167l-64 -104h-89z" />
    <glyph glyph-name="Euro" unicode="&#x20ac;" 
d="M175 437q19 53 47 97.5t66 76t86.5 49t108.5 17.5q31 0 55 -2t44 -5t37 -6.5t32 -7.5l-30 -124q-30 10 -66 17t-68 7q-96 0 -130 -119h201l-34 -79h-190q-3 -11 -5.5 -22.5t-4.5 -21.5l-5 -28h173l-34 -79h-146q-1 -7 -1.5 -13.5t-0.5 -12.5q0 -73 69 -73q29 0 70 6.5
t83 20.5l-7 -116q-41 -17 -91.5 -24.5t-102.5 -7.5q-58 0 -97 18t-62.5 48.5t-33.5 70.5t-10 83h-81l17 79h72q2 17 5.5 35.5t8.5 36.5h-69l17 79h77z" />
    <glyph glyph-name="dollar" unicode="$" 
d="M234 8q-56 2 -94 9.5t-70 18.5l27 124q15 -5 36.5 -10.5t47 -10t52 -7.5t52.5 -3q17 0 33 2.5t28 8.5t19 16.5t7 25.5q0 21 -17.5 40.5t-43 39t-56 40t-56 44.5t-43 52.5t-17.5 63.5q0 51 18 84.5t48.5 55.5t70 33t83.5 17l19 90h111l-18 -85q37 -1 71 -5t66 -12
l-26 -117q-18 4 -41 7t-46.5 5.5t-45.5 3.5t-39 1q-20 0 -38.5 -2t-32.5 -7.5t-22 -16t-8 -27.5q0 -19 17.5 -36t43.5 -35.5t56 -39t56 -45t43.5 -55t17.5 -68.5q0 -47 -15 -80t-41.5 -55.5t-62.5 -36t-77 -21.5l-22 -99h-111z" />
    <glyph glyph-name="cent" unicode="&#xa2;" 
d="M246 57q-63 16 -95.5 60.5t-32.5 119.5q0 25 2.5 46.5t9.5 51.5q26 115 83.5 179.5t145.5 87.5l31 140h111l-28 -127q35 -1 71.5 -6.5t60.5 -10.5l-26 -118q-26 7 -65.5 12t-72.5 5q-27 0 -49.5 -7t-40.5 -25.5t-32.5 -50t-24.5 -79.5q-6 -25 -8.5 -45t-2.5 -36
q0 -29 6.5 -46t19 -26t31 -11.5t42.5 -2.5q29 0 67.5 6.5t69.5 13.5l-15 -117q-32 -9 -70.5 -16t-77.5 -8l-29 -131h-111z" />
    <glyph glyph-name="sterling" unicode="&#xa3;" 
d="M207 394l19 80q26 107 96.5 155t176.5 48q50 0 83.5 -6t56.5 -11l-26 -121q-26 8 -51.5 12.5t-61.5 4.5q-33 0 -60.5 -17t-36.5 -56l-21 -89h192l-22 -99h-191l-13 -62q-9 -44 -33.5 -74t-60.5 -41h294l-26 -118h-485v96q33 18 57.5 36t42.5 41t29.5 52t18.5 70h-104
l22 99h104z" />
    <glyph glyph-name="florin" unicode="&#x192;" 
d="M219 394l19 80q14 59 41.5 98t64 62.5t80.5 33t90 9.5q43 0 76 -4.5t62 -12.5l-26 -121q-21 7 -52 12t-64 5t-59.5 -18t-37.5 -63l-19 -81h185l-21 -99h-185l-64 -295h-174l63 295h-112l21 99h112z" />
    <glyph glyph-name="yen" unicode="&#xa5;" 
d="M304 665l72 -238l151 238h170l-163 -227h85l-17 -80h-117l-47 -72h148l-17 -80h-155l-45 -206h-169l45 206h-168l17 80h167l-25 72h-126l17 80h79l-80 227h178z" />
    <glyph glyph-name="ordfeminine" unicode="&#xaa;" horiz-adv-x="378" 
d="M310 601q-8 3 -22 3q-17 0 -29 -13t-20 -32.5t-12 -43t-4 -44.5q0 -17 4.5 -25.5t16.5 -8.5q9 0 17.5 5.5t17.5 13.5zM400 466q-2 -8 -2 -13q0 -8 3 -12t12 -4q15 0 36 7l-14 -76q-11 -4 -23.5 -6.5t-29.5 -2.5q-58 0 -76 32q-18 -13 -42 -22.5t-51 -9.5q-52 0 -79 25.5
t-27 83.5q0 45 11.5 83.5t35 66t60 43.5t87.5 16q38 0 75 -7.5t65 -19.5z" />
    <glyph glyph-name="ordmasculine" unicode="&#xba;" horiz-adv-x="378" 
d="M309 677q63 0 98 -30t35 -85q0 -53 -14.5 -91t-39.5 -63.5t-59 -37.5t-74 -12q-65 0 -100.5 29t-35.5 85q0 53 14.5 91.5t40 64t60 37.5t75.5 12zM265 434q21 0 37.5 29t16.5 96q0 41 -22 41q-23 0 -39 -29t-16 -96q0 -41 23 -41z" />
    <glyph glyph-name="numbersign" unicode="#" horiz-adv-x="679" 
d="M412 665l-39 -178h93l39 178h129l-39 -178h109l-23 -105h-109l-22 -107h108l-22 -105h-108l-36 -170h-130l36 170h-94l-35 -170h-121l36 170h-108l21 105h109l24 107h-109l23 105h109l39 178h120zM326 275h94l23 107h-93z" />
    <glyph glyph-name="zero" unicode="0" 
d="M601 330q-37 -175 -120 -259t-218 -84q-104 0 -153 48.5t-49 148.5q0 29 4 66t13 76q40 170 122.5 260.5t214.5 90.5q104 0 153.5 -50t49.5 -152q0 -62 -17 -145zM426 329q9 44 14 78t5 60q0 48 -14 68.5t-43 20.5q-44 0 -76.5 -54t-58.5 -174q-9 -42 -14 -76.5t-5 -57.5
q0 -47 13 -66.5t43 -19.5q22 0 41.5 11t36 37t31 68t27.5 105z" />
    <glyph glyph-name="one" unicode="1" 
d="M394 665h131l-145 -665h-166l116 527l-148 -36l28 128z" />
    <glyph glyph-name="two" unicode="2" 
d="M172 653q33 10 82.5 17t107.5 7q49 0 89.5 -9t70 -29t45.5 -51.5t16 -77.5q0 -44 -12.5 -80.5t-35.5 -69t-56 -63t-73 -62.5l-143 -114h245l-26 -121h-438v112l211 176q38 31 65 58t44.5 52.5t25.5 50t8 51.5q0 29 -19 42.5t-53 13.5q-20 0 -42.5 -2.5t-45 -6t-43 -8
t-34.5 -8.5z" />
    <glyph glyph-name="three" unicode="3" 
d="M620 665l-24 -105l-204 -170q65 -8 105 -39t40 -95q0 -65 -21.5 -115.5t-61.5 -84.5t-96.5 -51.5t-125.5 -17.5q-60 0 -112 7.5t-79 17.5l27 125q40 -12 82 -20.5t86 -8.5q21 0 43 6t39.5 19.5t28.5 36.5t11 57q0 35 -21 49.5t-62 14.5h-85l21 97l185 159h-229l26 118
h427z" />
    <glyph glyph-name="four" unicode="4" 
d="M610 665l-90 -413h63l-26 -121h-63l-29 -131h-161l29 131h-287v112l349 422h215zM358 252l57 254l-211 -254h154z" />
    <glyph glyph-name="five" unicode="5" 
d="M599 539h-271l-26 -130q10 1 20 1h20q37 0 74.5 -6.5t67.5 -23.5t48.5 -46t18.5 -74q0 -65 -22.5 -116t-63 -86t-96.5 -53t-123 -18q-63 0 -105.5 6.5t-79.5 20.5l27 122q38 -11 77.5 -19.5t83.5 -8.5q22 0 43.5 5.5t38.5 19t28 36t11 57.5q0 21 -8 34t-21.5 20.5
t-31.5 10t-39 2.5q-32 0 -64.5 -4t-52.5 -6l-22 31l79 351h417z" />
    <glyph glyph-name="six" unicode="6" 
d="M598 538q-36 8 -77 13t-75 5q-30 0 -54.5 -7.5t-44.5 -25.5t-35 -48t-25 -75q25 7 56.5 11t59.5 4q88 0 133 -37.5t45 -108.5q0 -66 -22 -118.5t-61 -88.5t-94 -55.5t-121 -19.5q-96 0 -148.5 49t-52.5 157q0 32 4 62t13 71q21 99 56.5 166t83 108.5t105 59t122.5 17.5
q42 0 85 -5.5t75 -13.5zM260 276q-5 -23 -8 -45t-3 -41q0 -37 12.5 -59.5t48.5 -22.5q21 0 39 10.5t31.5 28t21 41t7.5 49.5q0 30 -14.5 43.5t-45.5 13.5q-22 0 -46.5 -5t-42.5 -13z" />
    <glyph glyph-name="seven" unicode="7" 
d="M624 665v-105l-368 -560h-196l377 539h-290l28 126h449z" />
    <glyph glyph-name="eight" unicode="8" 
d="M322 277q-21 0 -41.5 -7.5t-36 -21.5t-25 -35t-9.5 -48q0 -28 16.5 -44.5t57.5 -16.5q54 0 82 30t28 75q0 33 -17 50.5t-55 17.5zM498 337q29 -19 47.5 -49.5t18.5 -70.5q0 -55 -23.5 -97.5t-63.5 -72t-94 -45t-115 -15.5q-51 0 -93 11t-72 31.5t-47 50t-17 67.5
q0 39 12 69t31 52.5t43 39.5t47 29q-26 14 -42 42.5t-16 64.5q0 62 24 106.5t63.5 72.5t91.5 41t108 13q45 0 85 -9.5t70 -29t47.5 -48t17.5 -67.5q0 -40 -10.5 -70.5t-28 -52.5t-39.5 -37.5t-45 -25.5zM384 562q-48 0 -73 -28t-25 -79q0 -28 14 -42.5t49 -14.5
q46 0 72.5 28.5t26.5 79.5q0 27 -15 41.5t-49 14.5z" />
    <glyph glyph-name="nine" unicode="9" 
d="M397 265q-23 -7 -51 -11t-55 -4q-94 0 -142 41.5t-48 115.5q0 65 21.5 115t60 84.5t92.5 52.5t119 18q47 0 85.5 -12t66 -37.5t42.5 -64.5t15 -93q0 -31 -4.5 -60.5t-13.5 -70.5q-22 -102 -60 -170t-87 -108.5t-107 -57t-121 -16.5q-39 0 -79.5 5t-72.5 14l27 124
q28 -10 68 -16t73 -6q72 0 112 38.5t59 118.5zM419 390q5 25 9 47t4 40q0 36 -12.5 57.5t-47.5 21.5q-22 0 -40.5 -10.5t-32 -28.5t-21 -41t-7.5 -49q0 -30 14 -43t46 -13q22 0 46.5 5.5t41.5 13.5z" />
    <glyph glyph-name="onesuperior" unicode="&#xb9;" horiz-adv-x="313" 
d="M251 665h85l-74 -334h-111l54 243l-71 -16l18 83z" />
    <glyph glyph-name="twosuperior" unicode="&#xb2;" horiz-adv-x="313" 
d="M148 661q24 8 51 12t61 4q51 0 84.5 -22.5t33.5 -69.5q0 -23 -6.5 -41.5t-18 -34t-26 -28.5t-29.5 -25l-59 -46h112l-17 -78h-244v68l118 97q25 20 39.5 36t14.5 36q0 28 -34 28q-22 0 -44 -5t-42 -11z" />
    <glyph glyph-name="threesuperior" unicode="&#xb3;" horiz-adv-x="313" 
d="M384 665v-65l-101 -76q33 -3 57.5 -20t24.5 -57t-15 -65.5t-39.5 -40t-55 -20t-61.5 -5.5q-35 0 -64 7t-45 13l18 78q17 -5 42.5 -11.5t53.5 -6.5q17 0 32.5 7.5t15.5 30.5q0 28 -34 28h-50l10 57l91 71h-130l16 75h234z" />
    <glyph glyph-name="fraction" unicode="&#x2044;" horiz-adv-x="534" 
d="M653 665l-552 -665h-115l552 665h115z" />
    <glyph glyph-name="onequarter" unicode="&#xbc;" horiz-adv-x="773" 
d="M793 343l-44 -202h40l-16 -73h-40l-15 -68h-107l15 68h-133v59l154 216h146zM642 141l21 100l-70 -100h49zM773 665l-552 -665h-115l552 665h115zM255 665h85l-74 -334h-111l54 243l-71 -16l18 83z" />
    <glyph glyph-name="onehalf" unicode="&#xbd;" horiz-adv-x="773" 
d="M773 665l-552 -665h-115l552 665h115zM537 329q24 8 51 12t61 4q51 0 84.5 -22.5t33.5 -69.5q0 -23 -6.5 -41.5t-18 -34t-26 -28.5t-29.5 -25l-59 -46h112l-17 -78h-244v68l118 97q25 20 39.5 36t14.5 36q0 28 -34 28q-22 0 -44 -5t-42 -11zM255 665h85l-74 -334h-111
l54 243l-71 -16l18 83z" />
    <glyph glyph-name="threequarters" unicode="&#xbe;" horiz-adv-x="773" 
d="M766 343l-44 -202h40l-16 -73h-40l-15 -68h-107l15 68h-133v59l154 216h146zM615 141l21 100l-70 -100h49zM399 665v-65l-101 -76q33 -3 57.5 -20t24.5 -57t-15 -65.5t-39.5 -40t-55 -20t-61.5 -5.5q-35 0 -64 7t-45 13l18 78q17 -5 42.5 -11.5t53.5 -6.5q17 0 32.5 7.5
t15.5 30.5q0 28 -34 28h-50l10 57l91 71h-130l16 75h234zM796 665l-552 -665h-115l552 665h115z" />
    <glyph glyph-name="percent" unicode="%" horiz-adv-x="817" 
d="M795 665l-554 -665h-116l554 665h116zM318 677q60 0 98.5 -32t38.5 -98q0 -12 -1.5 -23.5t-4.5 -26.5q-11 -48 -30.5 -81.5t-46.5 -54.5t-60 -30.5t-70 -9.5q-60 0 -98.5 32t-38.5 98q0 12 1.5 23.5t4.5 26.5q10 48 30 81.5t47 54.5t60 30.5t70 9.5zM259 403
q19 0 37 20.5t31 74.5q6 25 6 44q0 29 -9 41t-23 12q-19 0 -37 -20.5t-31 -74.5q-6 -26 -6 -44q0 -29 9 -41t23 -12zM680 343q60 0 98.5 -32t38.5 -98q0 -12 -1.5 -23.5t-4.5 -26.5q-11 -48 -30.5 -81.5t-46.5 -54.5t-60 -30.5t-70 -9.5q-60 0 -98.5 32t-38.5 98
q0 12 1.5 23.5t4.5 26.5q10 48 30 81.5t47 54.5t60 30.5t70 9.5zM621 69q19 0 37 20.5t31 74.5q6 25 6 44q0 29 -9 41t-23 12q-19 0 -37 -20.5t-31 -74.5q-6 -26 -6 -44q0 -29 9 -41t23 -12z" />
    <glyph glyph-name="perthousand" unicode="&#x2030;" horiz-adv-x="1179" 
d="M1055 343q60 0 98.5 -32t38.5 -98q0 -12 -1.5 -23.5t-4.5 -26.5q-11 -48 -30.5 -81.5t-46.5 -54.5t-60 -30.5t-70 -9.5q-60 0 -98.5 32t-38.5 98q0 12 1.5 23.5t4.5 26.5q10 48 30 81.5t47 54.5t60 30.5t70 9.5zM996 69q19 0 37 20.5t31 74.5q6 25 6 44q0 29 -9 41
t-23 12q-19 0 -37 -20.5t-31 -74.5q-6 -26 -6 -44q0 -29 9 -41t23 -12zM795 665l-554 -665h-116l554 665h116zM318 677q60 0 98.5 -32t38.5 -98q0 -12 -1.5 -23.5t-4.5 -26.5q-11 -48 -30.5 -81.5t-46.5 -54.5t-60 -30.5t-70 -9.5q-60 0 -98.5 32t-38.5 98q0 12 1.5 23.5
t4.5 26.5q10 48 30 81.5t47 54.5t60 30.5t70 9.5zM259 403q19 0 37 20.5t31 74.5q6 25 6 44q0 29 -9 41t-23 12q-19 0 -37 -20.5t-31 -74.5q-6 -26 -6 -44q0 -29 9 -41t23 -12zM680 343q60 0 98.5 -32t38.5 -98q0 -12 -1.5 -23.5t-4.5 -26.5q-11 -48 -30.5 -81.5
t-46.5 -54.5t-60 -30.5t-70 -9.5q-60 0 -98.5 32t-38.5 98q0 12 1.5 23.5t4.5 26.5q10 48 30 81.5t47 54.5t60 30.5t70 9.5zM621 69q19 0 37 20.5t31 74.5q6 25 6 44q0 29 -9 41t-23 12q-19 0 -37 -20.5t-31 -74.5q-6 -26 -6 -44q0 -29 9 -41t23 -12z" />
    <glyph glyph-name="plus" unicode="+" 
d="M272 372v154h133v-154h171v-107h-172v-155h-133v155h-172v107h173z" />
    <glyph glyph-name="minus" unicode="&#x2212;" 
d="M576 372v-107h-477v107h477z" />
    <glyph glyph-name="plusminus" unicode="&#xb1;" 
d="M271 392v134h133v-134h172v-107h-172v-125h-133v125h-172v107h172zM576 107v-107h-477v107h477z" />
    <glyph glyph-name="multiply" unicode="&#xd7;" 
d="M565 185l-88 -88l-140 136l-141 -136l-86 88l141 132l-142 132l88 88l139 -137l142 137l86 -88l-138 -132z" />
    <glyph glyph-name="divide" unicode="&#xf7;" 
d="M576 372v-107h-477v107h477zM422 502q0 -67 -85 -67q-40 0 -62 17.5t-22 49.5t22 49.5t62 17.5q85 0 85 -67zM423 135q-2 -67 -85 -67q-40 0 -62 16.5t-22 48.5q0 33 21 51t63 18q41 0 63 -17.5t22 -49.5z" />
    <glyph glyph-name="equal" unicode="=" 
d="M576 274v-107h-477v107h477zM576 472v-107h-477v107h477z" />
    <glyph glyph-name="notequal" unicode="&#x2260;" 
d="M354 472l50 108h100l-48 -108h120v-107h-166l-42 -91h208v-107h-256l-47 -109h-101l46 109h-119v107h167l41 91h-208v107h255z" />
    <glyph glyph-name="approxequal" unicode="&#x2248;" 
d="M587 448q-9 -26 -21.5 -47.5t-31 -37t-44.5 -24t-63 -8.5q-27 0 -53 7.5t-48.5 17t-41.5 17t-33 7.5q-21 0 -38.5 -13.5t-28.5 -42.5l-99 42q9 25 21.5 46.5t31.5 37.5t44.5 25t61.5 9q26 0 53 -7.5t52 -16.5t47 -16.5t37 -7.5q20 0 32.5 13.5t24.5 42.5zM590 253
q-9 -26 -21.5 -47.5t-31 -37t-44.5 -24t-63 -8.5q-27 0 -53 7.5t-48.5 17t-41.5 17t-33 7.5q-21 0 -38.5 -13.5t-28.5 -42.5l-99 42q9 25 21.5 46.5t31.5 37.5t44.5 25t61.5 9q26 0 53 -7.5t52 -16.5t47 -16.5t37 -7.5q20 0 32.5 13.5t24.5 42.5z" />
    <glyph glyph-name="less" unicode="&#x3c;" 
d="M576 540v-121l-317 -104l317 -104v-115l-477 171v102z" />
    <glyph glyph-name="greater" unicode="&#x3e;" 
d="M99 96v121l317 104l-317 104v115l477 -171v-102z" />
    <glyph glyph-name="lessequal" unicode="&#x2264;" 
d="M576 534v-118l-317 -94l317 -94v-118l-477 161v102zM576 107v-107h-477v107h477z" />
    <glyph glyph-name="greaterequal" unicode="&#x2265;" 
d="M576 373v-102l-477 -161v118l317 94l-317 94v118zM576 107v-107h-477v107h477z" />
    <glyph glyph-name="logicalnot" unicode="&#xac;" 
d="M576 472v-305h-124v198h-353v107h477z" />
    <glyph glyph-name="Delta" unicode="&#x394;" 
d="M335 665h155l56 -665h-556zM379 509l-204 -413h228z" />
    <glyph glyph-name="Delta" unicode="&#x2206;" 
d="M335 665h155l56 -665h-556zM379 509l-204 -413h228z" />
    <glyph glyph-name="Omega" unicode="&#x3a9;" horiz-adv-x="658" 
d="M141 104q-11 12 -22.5 29t-21 38t-16 46.5t-6.5 55.5q0 103 33 179.5t87 126t122 74t138 24.5q57 0 101.5 -11.5t75 -37.5t46 -68.5t15.5 -103.5q0 -75 -15 -129.5t-40 -95.5t-56.5 -71t-65.5 -56h119l-22 -104h-275l22 105q38 23 71 53.5t58 72t39 94.5t14 121
q0 67 -27 95t-84 28q-42 0 -79 -23t-64.5 -63.5t-43.5 -96t-16 -120.5q0 -57 18 -94t55 -66l-22 -106h-275l22 104h115z" />
    <glyph glyph-name="Omega" unicode="&#x2126;" horiz-adv-x="658" 
d="M141 104q-11 12 -22.5 29t-21 38t-16 46.5t-6.5 55.5q0 103 33 179.5t87 126t122 74t138 24.5q57 0 101.5 -11.5t75 -37.5t46 -68.5t15.5 -103.5q0 -75 -15 -129.5t-40 -95.5t-56.5 -71t-65.5 -56h119l-22 -104h-275l22 105q38 23 71 53.5t58 72t39 94.5t14 121
q0 67 -27 95t-84 28q-42 0 -79 -23t-64.5 -63.5t-43.5 -96t-16 -120.5q0 -57 18 -94t55 -66l-22 -106h-275l22 104h115z" />
    <glyph glyph-name="mu" unicode="&#xb5;" horiz-adv-x="583" 
d="M328 487l-71 -319q-3 -12 -3 -25q0 -14 6.5 -23t23.5 -9q20 0 40 10.5t39 28.5l75 337h171l-72 -325q-2 -8 -3 -15t-1 -12q0 -14 7 -19t19 -5q10 0 22 2t25 5l-21 -117q-18 -5 -40.5 -8t-51.5 -3q-35 0 -61 11.5t-39 34.5q-60 -48 -143 -48q-17 0 -32 3l-38 -179h-170
l147 675h171z" />
    <glyph glyph-name="mu" unicode="&#x3bc;" horiz-adv-x="583" 
d="M328 487l-71 -319q-3 -12 -3 -25q0 -14 6.5 -23t23.5 -9q20 0 40 10.5t39 28.5l75 337h171l-72 -325q-2 -8 -3 -15t-1 -12q0 -14 7 -19t19 -5q10 0 22 2t25 5l-21 -117q-18 -5 -40.5 -8t-51.5 -3q-35 0 -61 11.5t-39 34.5q-60 -48 -143 -48q-17 0 -32 3l-38 -179h-170
l147 675h171z" />
    <glyph glyph-name="pi" unicode="&#x3c0;" horiz-adv-x="614" 
d="M706 487l-25 -114h-74l-81 -373h-179l81 373h-92l-81 -373h-178l81 373h-74l24 114h598z" />
    <glyph glyph-name="degree" unicode="&#xb0;" horiz-adv-x="366" 
d="M280 618q-23 0 -37 -16t-14 -40t13.5 -40t36.5 -16q22 0 36.5 16t14.5 40t-14 40t-36 16zM279 677q25 0 48.5 -9t40.5 -24.5t27.5 -36.5t10.5 -45t-10 -45t-27 -36.5t-40 -24.5t-49 -9q-27 0 -50 9t-40 24.5t-27 36.5t-10 45t9.5 45t26.5 36.5t40 24.5t50 9z" />
    <glyph glyph-name="infinity" unicode="&#x221e;" horiz-adv-x="648" 
d="M312 319q-17 22 -33 33.5t-35 11.5q-16 0 -34 -13t-18 -43q0 -18 9 -26t23 -8q20 0 40.5 11t47.5 34zM440 319q18 -22 33.5 -33.5t34.5 -11.5q16 0 33.5 13t17.5 42q0 19 -8.5 27t-22.5 8q-19 0 -39.5 -11t-48.5 -34zM249 457q48 0 83 -16.5t60 -43.5q38 27 75.5 43.5
t85.5 16.5q60 0 96 -30t36 -81q0 -44 -14.5 -75t-39.5 -51t-58 -29.5t-70 -9.5q-48 0 -83 16.5t-61 44.5q-38 -29 -75 -45t-85 -16q-60 0 -96 29t-36 80q0 44 14.5 75.5t39 52t57.5 30t71 9.5z" />
    <glyph glyph-name="partialdiff" unicode="&#x2202;" horiz-adv-x="583" 
d="M176 636q46 23 89.5 32t99.5 9q49 0 89 -13t68.5 -40.5t43.5 -71.5t15 -105q0 -83 -16 -165t-52 -147.5t-94 -106t-143 -40.5q-45 0 -82 13t-62.5 37t-39.5 57.5t-14 74.5q0 51 14 93.5t42 73t70 47.5t99 17q36 0 65.5 -7t52.5 -20q2 17 3 39t1 33q0 64 -25.5 90.5
t-65.5 26.5q-35 0 -70.5 -11.5t-73.5 -28.5zM394 262q-15 11 -35 17.5t-42 6.5q-18 0 -33.5 -5t-27 -17t-18.5 -33t-7 -52q0 -34 16 -55t43 -21q24 0 41.5 14t29.5 36.5t19.5 51t13.5 57.5z" />
    <glyph glyph-name="integral" unicode="&#x222b;" horiz-adv-x="307" 
d="M443 623q-11 2 -16 2h-9q-34 0 -52.5 -15.5t-25.5 -45.5l-129 -588q-9 -40 -27 -73t-46.5 -56.5t-67 -36.5t-89.5 -13q-11 0 -24.5 1t-33.5 3l25 116q12 -2 16 -2h8q32 0 51.5 16t25.5 45l129 588q9 40 27 73.5t46.5 56.5t67.5 36t91 13q11 0 25.5 -1t33.5 -3z" />
    <glyph glyph-name="radical" unicode="&#x221a;" 
d="M282 487l21 -307l254 485h137l-356 -665h-135l-44 384h-93l23 103h193z" />
    <glyph glyph-name="summation" unicode="&#x2211;" 
d="M53 90l254 257l-149 226l20 92h465l-26 -118h-261l139 -199l-231 -230h283l-26 -118h-469z" />
    <glyph glyph-name="product" unicode="&#x220f;" horiz-adv-x="679" 
d="M786 665l-25 -117h-66l-119 -548h-174l119 548h-160l-119 -548h-173l119 548h-71l26 117h643z" />
    <glyph glyph-name="lozenge" unicode="&#x25ca;" 
d="M363 665h99l125 -331l-271 -334h-99l-125 332zM381 525l-151 -192l68 -192l150 192z" />
    <glyph glyph-name="apple" horiz-adv-x="1100" 
d="M821 784h5q30 0 42 -38l47 -156l-499 59l-56 -72l217 -33l-123 -351l-317 23q-13 1 -26 4.5t-23.5 10t-17 16t-6.5 22.5q0 5 1 12t3 14l153 410q7 16 29 26.5t48 12.5zM169 290q-1 -5 -1.5 -9t-0.5 -7q0 -16 12 -25t31 -11l226 -21l97 265l-188 27l-8 68l71 89l481 -54
l-34 112q-5 14 -17.5 18.5t-24.5 5.5l-452 -34q-16 -1 -33.5 -8.5t-23.5 -26.5zM944 486l80 -279q1 -2 1 -9q0 -19 -16 -29.5t-42 -10.5l-234 13v348zM815 190l151 -12h3q14 0 22.5 8.5t8.5 18.5q0 6 -1 7l-65 211l-119 22v-255zM61 9h25q19 -1 32 10t13 38q0 29 -13 40
t-32 10h-25v-98zM88 122q27 0 44.5 -15.5t18.5 -49.5q-1 -33 -18.5 -48t-44.5 -15h-45v128h45zM233 52q-3 21 -23 21q-12 0 -19 -8t-7 -21zM185 32q1 -13 8.5 -19t18.5 -6q9 -1 15.5 3t11.5 11l12 -6q-6 -10 -15.5 -16t-23.5 -6q-21 0 -34 12.5t-14 35.5q1 19 13 32t33 14
q22 -1 32 -13t11 -32zM280 21q8 -14 25 -14q22 0 19 13q1 7 -7.5 9.5t-19 5.5t-19.5 8t-9 17t10 19t27 8q25 -1 36 -18l-12 -8q-6 12 -25 12q-18 0 -18 -13q0 -7 8.5 -9.5t19 -5t19 -8t8.5 -17.5q0 -13 -9.5 -20t-26.5 -7q-15 0 -25 6t-15 16zM385 113q-2 -8 -11 -8
q-10 0 -10 8q0 9 10 9q9 0 11 -9zM383 86v-92h-18v92h18zM474 69q-7 4 -21 4q-12 0 -20 -8t-8 -24q0 -32 26 -32q17 0 23 13v47zM493 -8q0 -39 -43 -39q-28 0 -41 21l12 9q5 -8 11.5 -12t17.5 -4q26 0 24 24v16q-8 -13 -27 -13q-20 0 -30 12.5t-11 34.5q1 23 14.5 34.5
t33.5 11.5q26 -2 39 -11v-84zM541 86v-17q10 16 32 18q31 -1 32 -31v-62h-19v62q0 17 -18 17q-10 0 -15.5 -4.5t-10.5 -11.5v-63h-17v92h16zM694 52q-3 21 -23 21q-13 0 -20.5 -8t-7.5 -21zM645 32q3 -25 28 -25q18 -2 25 14l14 -6q-5 -10 -15 -16t-24 -6q-47 0 -47 48
q0 19 12 32t33 14q22 -1 32.5 -13t10.5 -32zM796 63q-8 10 -23 10q-13 0 -20 -9t-7 -24t7 -24t20 -9q15 0 23 13v43zM815 126v-108q0 -5 0.5 -12t2.5 -12l-16 -1q0 3 -1 6.5t-1 7.5q-5 -6 -12.5 -10t-18.5 -4q-19 0 -30.5 13t-11.5 35q0 21 13 33t30 13q20 -1 26 -10v49h19z
M914 20q10 -13 24 -13t20.5 9.5t6.5 24.5q0 32 -27 32q-8 0 -13.5 -4.5t-10.5 -10.5v-38zM914 126v-54q9 13 31 15q19 -1 28 -13t9 -33q0 -22 -10.5 -35t-28.5 -13q-23 0 -32 14q0 -8 -3 -14l-16 1q2 6 3.5 12.5t1.5 11.5v108h17zM1009 86l27 -75l27 75h18l-40 -100
q-6 -17 -16 -25t-29 -9l-4 13q23 1 31 21l3 7l-35 93h18zM197 -62l-1 -14h-39v-113h-18v113h-39v14h97zM305 -163q6 -13 24 -13q13 0 19 9t6 24q0 32 -24 32q-16 0 -25 -14v-38zM302 -97v-15q12 14 33 16q20 -1 29 -13.5t9 -33.5q1 -21 -9 -34.5t-32 -13.5q-10 0 -16.5 4
t-10.5 8v-50l-18 -1v132zM433 -96q22 -1 34 -14t13 -33q-1 -21 -13 -34t-34 -14q-21 1 -33 14t-13 34q1 20 13 33t33 14zM433 -111q-13 0 -20 -9t-7 -23q0 -15 7 -24t20 -9t20 9t7 24q0 14 -7 23t-20 9zM520 -163q8 -13 23 -13q14 0 20 9t6 24t-5.5 23.5t-19.5 8.5
q-15 0 -24 -14v-38zM518 -97v-15q10 14 33 16q18 -1 27.5 -13.5t9.5 -33.5q2 -21 -9 -34.5t-31 -13.5q-9 0 -16 4t-12 8v-50l-18 -1v132zM630 -57v-54q10 13 31 15q31 -1 32 -31v-62h-19v62q0 16 -18 16t-26 -16v-62h-18v131zM714 -115q6 7 15.5 12.5t24.5 6.5
q20 -2 27.5 -11t7.5 -21v-37q0 -5 1 -11.5t3 -11.5l-16 -3q-1 4 -1 7.5t-2 7.5q-4 -6 -11 -10.5t-18 -4.5q-32 0 -32 26q-1 17 19 24q5 2 17 4t22 3v7q0 7 -4 11.5t-16 4.5q-10 0 -15 -3.5t-9 -8.5zM771 -146q-8 -1 -17.5 -3t-14.5 -3q-9 -4 -9 -11q0 -13 18 -13q17 0 23 14
v16zM878 -115q-8 6 -21 4q-13 0 -21 -7.5t-8 -24.5q0 -31 27 -32q16 2 23 14v46zM895 -191q0 -39 -41 -39q-31 0 -41 21l12 9q5 -8 11.5 -12t17.5 -4q26 0 24 24v16q-8 -13 -28 -13q-19 0 -29 12.5t-10 33.5q0 23 13.5 35t33.5 12q11 -1 21 -3.5t16 -7.5v-84zM987 -131
q-1 20 -23 20q-12 0 -19 -8t-7 -20zM938 -151q2 -13 9.5 -19t18.5 -6q18 -1 25 13l13 -5q-5 -10 -14 -16.5t-24 -6.5q-21 0 -33.5 12.5t-13.5 35.5q1 20 13 33t32 14q21 -1 31.5 -13t12.5 -32zM197 -98l27 -75l27 75h18l-40 -100q-6 -17 -16 -25t-29 -9l-4 13q23 1 31 21
l4 7l-36 93h18z" />
    <glyph glyph-name="uni00AD" unicode="&#xad;" horiz-adv-x="382" 
d="M397 327l-24 -112h-286l24 112h286z" />
    <glyph glyph-name="afii10017" unicode="&#x410;" horiz-adv-x="633" 
d="M207 0h-171l92 432q12 56 34.5 101.5t59.5 77.5t90.5 49t127.5 17q61 0 104.5 -11.5t71 -33t40 -52t12.5 -69.5q0 -37 -9 -79l-93 -432h-177l48 222h-182zM463 340l22 104q5 23 5 38q0 37 -16.5 55.5t-54.5 18.5q-47 0 -75 -28.5t-40 -83.5l-23 -104h182z" />
    <glyph glyph-name="afii10019" unicode="&#x412;" horiz-adv-x="609" 
d="M427 665q103 0 164.5 -35.5t61.5 -113.5q0 -41 -11.5 -70t-31 -49.5t-47 -34t-58.5 -23.5q42 -9 72.5 -40.5t30.5 -83.5q0 -66 -28 -110t-74 -70.5t-104.5 -37t-118.5 -10.5q-50 0 -109.5 7t-120.5 21l143 650h231zM248 104q9 -2 26.5 -2.5t28.5 -0.5q59 0 87.5 27
t28.5 86q0 28 -15.5 45.5t-52.5 17.5h-66zM311 393h63q19 0 36 5t30 17t20.5 31.5t7.5 48.5t-14 43t-46 14h-62z" />
    <glyph glyph-name="afii10022" unicode="&#x415;" horiz-adv-x="542" 
d="M616 665l-26 -118h-250l-33 -151h233l-25 -118h-234l-20 -92q-3 -11 -3 -20q0 -29 18 -38.5t46 -9.5h185l-26 -118h-193q-49 0 -87.5 6.5t-65.5 21.5t-41 40t-14 62q0 14 1.5 30t4.5 30l104 475h426z" />
    <glyph glyph-name="afii10070" unicode="&#x435;" horiz-adv-x="488" 
d="M242 194q-2 -9 -2 -14v-12q0 -37 18 -50.5t66 -13.5q14 0 31 2t35 5t34.5 7t30.5 9l-9 -113q-38 -12 -80.5 -19t-91.5 -7q-47 0 -85.5 9t-66 29.5t-43 53.5t-15.5 81q0 71 18 132.5t55 107.5t94 72t134 26q85 0 126 -36t41 -102q0 -43 -16 -75t-45.5 -53.5t-70.5 -32
t-92 -10.5q-17 0 -33 1t-33 3zM259 287q5 -1 13.5 -1h13.5q45 0 66 15.5t21 54.5q0 41 -37 41q-31 0 -48.5 -27.5t-28.5 -82.5z" />
    <glyph glyph-name="afii10103" unicode="&#x456;" horiz-adv-x="297" 
d="M323 487l-75 -335q-2 -10 -2 -17q0 -15 8 -20.5t20 -5.5q11 0 23.5 3.5t22.5 5.5l-21 -117q-17 -5 -36.5 -9t-42.5 -4q-28 0 -54.5 4.5t-47.5 17t-33.5 34t-12.5 54.5q0 8 1.5 21.5t3.5 23.5l74 344h172zM370 657q-9 -42 -40 -63.5t-76 -21.5q-38 0 -59.5 15t-21.5 46
q0 27 9.5 47t25.5 34t37.5 21t45.5 7q38 0 59.5 -15.5t21.5 -45.5v-11.5t-2 -12.5z" />
    <glyph glyph-name="afii10055" unicode="&#x406;" horiz-adv-x="321" 
d="M373 665l-145 -665h-175l145 665h175z" />
    <glyph glyph-name="afii10056" unicode="&#x407;" horiz-adv-x="321" 
d="M373 665l-145 -665h-175l145 665h175zM204 765q-32 0 -50 13t-18 36q0 35 27 57t69 22q32 0 50 -13t18 -36q0 -35 -27 -57t-69 -22zM393 765q-32 0 -50 13t-18 36q0 35 27 57t69 22q32 0 50 -13t18 -36q0 -35 -27 -57t-69 -22z" />
    <glyph glyph-name="afii10102" unicode="&#x455;" horiz-adv-x="433" 
d="M456 372q-9 2 -23.5 5t-32 5.5t-36.5 4.5t-36 2q-34 0 -51.5 -7.5t-17.5 -28.5q0 -12 12.5 -23.5t32 -23.5t41.5 -26t41.5 -32t32 -40t12.5 -50q0 -50 -20.5 -82.5t-53.5 -52t-75 -27.5t-86 -8q-20 0 -42.5 2t-44 5t-41 7t-34.5 9l25 113q24 -8 60.5 -16t74.5 -8
q32 0 48 8t16 29q0 13 -12 25t-30.5 24.5t-39.5 26.5t-39.5 32t-30.5 41t-12 53q0 48 20.5 79t55 49t79.5 25t95 7q41 0 77.5 -4.5t59.5 -9.5z" />
    <glyph glyph-name="afii10054" unicode="&#x405;" horiz-adv-x="531" 
d="M566 537q-34 6 -78.5 12.5t-79.5 6.5q-21 0 -42 -1t-37.5 -6.5t-26.5 -16.5t-10 -30t16.5 -39t41 -42t53.5 -46t53.5 -51.5t41 -59t16.5 -67.5q0 -57 -19.5 -97t-55.5 -65t-87.5 -36.5t-115.5 -11.5q-63 0 -113.5 8t-86.5 20l27 123q42 -12 87.5 -21t97.5 -9q17 0 33 2
t28 8t19.5 17t7.5 30q0 21 -15.5 43.5t-39.5 46t-51 49t-51 53t-39.5 57.5t-15.5 63q0 61 24 99.5t63.5 61t91 31t106.5 8.5q53 0 102.5 -6t81.5 -13z" />
    <glyph glyph-name="afii10105" unicode="&#x458;" horiz-adv-x="284" 
d="M327 487l-89 -401q-11 -50 -30.5 -92t-50 -79t-73 -69.5t-98.5 -62.5l-57 96q34 25 57 48t38.5 46.5t25 50.5t17.5 61l89 402h171zM375 657q-9 -42 -40 -63.5t-76 -21.5q-38 0 -59.5 15.5t-21.5 46.5q0 53 35 80.5t83 27.5q38 0 60 -15.5t22 -46.5q0 -11 -3 -23z" />
    <glyph glyph-name="afii10104" unicode="&#x457;" horiz-adv-x="297" 
d="M323 487l-75 -335q-2 -10 -2 -17q0 -15 8 -20.5t20 -5.5q11 0 23.5 3.5t22.5 5.5l-21 -117q-17 -5 -36.5 -9t-42.5 -4q-28 0 -54.5 4.5t-47.5 17t-33.5 34t-12.5 54.5q0 8 1.5 21.5t3.5 23.5l74 344h172zM170 587q-32 0 -50 13t-18 36q0 35 27 57t69 22q32 0 50 -13
t18 -36q0 -35 -27 -57t-69 -22zM359 587q-32 0 -50 13t-18 36q0 35 27 57t69 22q32 0 50 -13t18 -36q0 -35 -27 -57t-69 -22z" />
    <glyph glyph-name="afii10071" unicode="&#x451;" horiz-adv-x="494" 
d="M242 194q-2 -9 -2 -14v-12q0 -37 18 -50.5t66 -13.5q14 0 31 2t35 5t34.5 7t30.5 9l-9 -113q-38 -12 -80.5 -19t-91.5 -7q-47 0 -85.5 9t-66 29.5t-43 53.5t-15.5 81q0 71 18 132.5t55 107.5t94 72t134 26q85 0 126 -36t41 -102q0 -43 -16 -75t-45.5 -53.5t-70.5 -32
t-92 -10.5q-17 0 -33 1t-33 3zM259 287q5 -1 13.5 -1h13.5q45 0 66 15.5t21 54.5q0 41 -37 41q-31 0 -48.5 -27.5t-28.5 -82.5zM295 587q-32 0 -50 13t-18 36q0 35 27 57t69 22q32 0 50 -13t18 -36q0 -35 -27 -57t-69 -22zM484 587q-32 0 -50 13t-18 36q0 35 27 57t69 22
q32 0 50 -13t18 -36q0 -35 -27 -57t-69 -22z" />
    <glyph glyph-name="afii10039" unicode="&#x425;" horiz-adv-x="583" 
d="M125 665h186l71 -207l164 207h187l-280 -331l135 -334h-189l-73 211l-165 -211h-184l278 336z" />
    <glyph glyph-name="afii10087" unicode="&#x445;" horiz-adv-x="494" 
d="M288 487l35 -136l104 136h172l-193 -238l92 -249h-182l-47 133l-103 -133h-172l195 239l-83 248h182z" />
    <glyph glyph-name="afii10035" unicode="&#x421;" horiz-adv-x="543" 
d="M601 534q-13 4 -30.5 8t-37 7t-39.5 5t-37 2q-38 0 -68 -12t-53 -38.5t-40.5 -68t-29.5 -101.5q-7 -35 -11 -63t-4 -51q0 -33 4 -54.5t15 -35t30.5 -19t51.5 -5.5q18 0 39 3t42.5 7t42 9t37.5 9l-14 -121q-16 -5 -38 -10t-47 -9t-50.5 -6.5t-49.5 -2.5q-124 0 -185 53.5
t-61 172.5q0 31 3.5 57.5t12.5 65.5q21 94 56 159t84 105.5t112 58.5t140 18q47 0 88.5 -7t67.5 -14z" />
    <glyph glyph-name="afii10034" unicode="&#x420;" horiz-adv-x="591" 
d="M305 346q11 -2 22 -3t22 -1q51 0 86 34t35 109q0 37 -18 49.5t-56 12.5h-49zM421 665q112 0 168 -38t56 -130q0 -64 -21.5 -115t-60.5 -87t-93.5 -55t-120.5 -19q-36 0 -72 6l-49 -227h-175l145 665h223z" />
    <glyph glyph-name="afii10082" unicode="&#x440;" horiz-adv-x="537" 
d="M141 457q53 19 115 30.5t119 11.5q97 0 145.5 -40t48.5 -130q0 -22 -2 -42.5t-5 -40.5q-9 -56 -32 -103.5t-58 -82t-82.5 -53.5t-106.5 -19q-17 0 -36.5 2.5t-35.5 6.5l-41 -185h-170zM235 110q12 -3 23.5 -4.5t27.5 -1.5q18 0 32.5 7t27 24.5t23 45.5t19.5 70q9 43 9 71
q0 36 -11.5 48.5t-35.5 12.5q-14 0 -31 -2t-26 -4z" />
    <glyph glyph-name="afii10032" unicode="&#x41e;" horiz-adv-x="657" 
d="M457 677q236 0 236 -220q0 -31 -4 -59.5t-12 -66.5q-39 -178 -130.5 -261t-241.5 -83q-121 0 -179 55.5t-58 166.5q0 29 4 57.5t12 64.5q41 176 132 261t241 85zM431 556q-57 0 -98 -52t-66 -172q-8 -35 -12 -64.5t-4 -52.5q0 -60 20 -83.5t62 -23.5q28 0 51.5 11
t43.5 37.5t36.5 69.5t30.5 106q15 70 15 116q0 60 -19 84t-60 24z" />
    <glyph glyph-name="afii10080" unicode="&#x43e;" horiz-adv-x="534" 
d="M361 499q99 0 150.5 -43t51.5 -130q0 -70 -18 -131.5t-54.5 -107.5t-92 -72.5t-130.5 -26.5q-98 0 -150 42.5t-52 130.5q0 70 18 131.5t54.5 107.5t92 72.5t130.5 26.5zM345 383q-31 0 -51 -22t-32 -54.5t-17 -70t-5 -69.5q0 -35 9 -49t35 -14q31 0 51 21.5t32 54
t17 70.5t5 70q0 35 -9 49t-35 14z" />
    <glyph glyph-name="afii10031" unicode="&#x41d;" horiz-adv-x="711" 
d="M373 665l-57 -262h214l57 262h176l-145 -665h-176l60 278h-214l-60 -278h-175l145 665h175z" />
    <glyph glyph-name="afii10030" unicode="&#x41c;" horiz-adv-x="883" 
d="M401 200l-86 205l-87 -405h-175l145 665h162l130 -304l260 304h185l-145 -665h-176l90 406l-177 -206h-126z" />
    <glyph glyph-name="afii10028" unicode="&#x41a;" horiz-adv-x="659" 
d="M373 665l-66 -297l294 297h179l-300 -296q27 -11 45.5 -27.5t31.5 -39t21.5 -51.5t15.5 -63l35 -188h-179l-25 151q-8 48 -23.5 74.5t-46.5 34.5l-91 -89l-36 -171h-175l145 665h175z" />
    <glyph glyph-name="afii10023" unicode="&#x401;" horiz-adv-x="542" 
d="M616 665l-26 -118h-250l-33 -151h233l-25 -118h-234l-20 -92q-3 -11 -3 -20q0 -29 18 -38.5t46 -9.5h185l-26 -118h-193q-49 0 -87.5 6.5t-65.5 21.5t-41 40t-14 62q0 14 1.5 30t4.5 30l104 475h426zM341 765q-32 0 -50 13t-18 36q0 35 27 57t69 22q32 0 50 -13t18 -36
q0 -35 -27 -57t-69 -22zM530 765q-32 0 -50 13t-18 36q0 35 27 57t69 22q32 0 50 -13t18 -36q0 -35 -27 -57t-69 -22z" />
    <glyph glyph-name="afii10057" unicode="&#x408;" horiz-adv-x="321" 
d="M375 665l-121 -559q-13 -58 -42.5 -105t-68 -84.5t-82.5 -67t-86 -52.5l-58 94q31 24 57 46t46 46t34.5 52t22.5 65l122 565h176z" />
    <glyph glyph-name="afii10083" unicode="&#x441;" horiz-adv-x="418" 
d="M458 370q-20 5 -45.5 9.5t-55.5 4.5q-52 0 -79.5 -41t-36.5 -110q-2 -14 -3 -30.5t-1 -33.5q0 -35 13 -50t48 -15q25 0 50.5 5.5t51.5 12.5l-13 -115q-13 -5 -30.5 -8.5t-36.5 -5.5t-38.5 -3.5t-36.5 -1.5q-90 0 -135.5 41t-45.5 130q0 18 1.5 37t3.5 36q8 58 29.5 107
t58 84.5t87.5 55.5t117 20q14 0 31.5 -1t35 -3t33 -4.5t25.5 -4.5z" />
    <glyph glyph-name="afii10036" unicode="&#x422;" horiz-adv-x="562" 
d="M681 665l-26 -118h-187l-119 -547h-175l119 547h-187l25 118h550z" />
    <glyph glyph-name="afii10051" unicode="&#x402;" horiz-adv-x="728" 
d="M547 198q12 55 -7 78t-72 23q-31 0 -54.5 -3.5t-40.5 -7.5l-64 -288h-172l122 547h-167l27 118h506l-27 -118h-167l-30 -134q26 3 48.5 5t51.5 2q78 0 126 -15.5t72.5 -45t27.5 -73t-10 -99.5q-14 -61 -43 -108t-67.5 -83.5t-83 -64.5t-87.5 -50l-53 92q33 24 59.5 46
t46 46t33 52t21.5 64z" />
    <glyph glyph-name="afii10058" unicode="&#x409;" horiz-adv-x="943" 
d="M531 540h-118l-97 -293q-44 -134 -115 -196.5t-174 -62.5q-15 0 -27.5 2t-21.5 4q-11 3 -18 6l29 125h25q42 0 78 30.5t56 90.5l137 419h446l-53 -234h52q113 0 167 -33.5t54 -111.5q0 -32 -9 -74q-14 -62 -40.5 -104.5t-63 -69.5t-82.5 -39t-99 -12q-118 0 -244 27z
M607 113q11 -2 23 -3.5t26 -1.5q55 0 80 26.5t36 77.5q6 27 6 46q0 30 -17.5 42.5t-56.5 12.5h-52z" />
    <glyph glyph-name="afii10059" unicode="&#x40a;" horiz-adv-x="975" 
d="M509 300h-217l-67 -300h-172l149 665h172l-54 -240h217l54 240h172l-53 -234h52q113 0 167 -33.5t54 -111.5q0 -32 -9 -74q-14 -62 -40.5 -104.5t-63 -69.5t-82.5 -39t-99 -12q-118 0 -244 27zM639 113q11 -2 23 -3.5t26 -1.5q55 0 80 26.5t36 77.5q6 27 6 46
q0 30 -17.5 42.5t-56.5 12.5h-52z" />
    <glyph glyph-name="afii10060" unicode="&#x40b;" horiz-adv-x="757" 
d="M625 665l-27 -118h-167l-30 -134q26 3 48.5 5t51.5 2q78 0 126 -15.5t72.5 -45t28 -73t-9.5 -99.5l-41 -187h-173l44 198q12 55 -7.5 78t-72.5 23q-31 0 -54.5 -3.5t-40.5 -7.5l-64 -288h-172l122 547h-167l27 118h506z" />
    <glyph glyph-name="afii10145" unicode="&#x40f;" horiz-adv-x="728" 
d="M53 0l149 665h172l-121 -540h218l121 540h172l-149 -665h-195l-34 -150h-172l34 150h-195z" />
    <glyph glyph-name="uni20BD" unicode="&#x20bd;" horiz-adv-x="603" 
d="M109 206l11 49h-63l24 107h63l68 303h219q115 0 168.5 -35t53.5 -110q0 -27 -8 -64q-13 -56 -38.5 -94.5t-61.5 -62t-81.5 -34t-98.5 -10.5h-73l-11 -49h182l-24 -106h-182l-22 -100h-172l22 100h-63l24 106h63zM316 362h45q55 0 79 23.5t35 70.5q5 22 5 35
q0 28 -17.5 42t-58.5 14h-47z" />
    <glyph glyph-name="afii10106" unicode="&#x459;" horiz-adv-x="797" 
d="M805 169q-9 -40 -28 -73.5t-51 -57.5t-79 -37.5t-111 -13.5q-24 0 -51.5 2.5t-55 7t-52.5 10t-45 11.5l79 352h-74l-62 -174q-38 -110 -99 -159.5t-136 -49.5q-11 0 -22 2t-19 4q-10 3 -19 7l27 116h17q26 0 51.5 19.5t39.5 60.5l97 291h393l-33 -145q21 4 33 5.5t28 1.5
q96 0 137.5 -34t41.5 -92q0 -13 -2 -26.5t-5 -27.5zM519 109q4 -2 9 -3q9 -3 30 -3q36 0 51.5 17.5t22.5 48.5q3 12 3 23q0 18 -10 29.5t-34 11.5q-15 0 -23.5 -2t-22.5 -5z" />
    <glyph glyph-name="afii10107" unicode="&#x45a;" horiz-adv-x="788" 
d="M393 336l34 151h168l-33 -145q17 3 32 5t29 2q96 0 137.5 -34t41.5 -92q0 -13 -2 -26.5t-5 -27.5q-9 -40 -28 -73.5t-51 -57.5t-79 -37.5t-111 -13.5q-24 0 -51.5 2.5t-55 7t-52.5 10t-45 11.5l45 201h-111l-49 -219h-167l109 487h167l-34 -151h111zM509 109q4 -2 9 -3
q9 -3 30 -3q36 0 51.5 17.5t22.5 48.5q3 12 3 23q0 18 -10 29.5t-34 11.5q-15 0 -25 -1.5t-21 -5.5z" />
    <glyph glyph-name="afii10193" unicode="&#x45f;" horiz-adv-x="554" 
d="M40 0l109 487h167l-83 -370h112l83 370h167l-109 -487h-139l-27 -120h-167l27 120h-140z" />
    <glyph glyph-name="currency" unicode="&#xa4;" horiz-adv-x="603" 
d="M109 206l11 49h-63l24 107h63l68 303h219q115 0 168.5 -35t53.5 -110q0 -27 -8 -64q-13 -56 -38.5 -94.5t-61.5 -62t-81.5 -34t-98.5 -10.5h-73l-11 -49h182l-24 -106h-182l-22 -100h-172l22 100h-63l24 106h63zM316 362h45q55 0 79 23.5t35 70.5q5 22 5 35
q0 28 -17.5 42t-58.5 14h-47z" />
    <glyph glyph-name="afii10018" unicode="&#x411;" horiz-adv-x="591" 
d="M202 665h428l-27 -118h-256l-26 -116h47q112 0 167 -32t55 -111q0 -17 -2.5 -35.5t-7.5 -40.5q-14 -64 -40.5 -107t-63.5 -69.5t-82.5 -37.5t-98.5 -11q-60 0 -118 6.5t-121 20.5zM250 113q15 -2 23.5 -3.5t20.5 -1.5q55 0 79.5 24.5t36.5 79.5q3 15 5 27t2 22
q0 31 -18 41.5t-57 10.5h-47z" />
    <glyph glyph-name="afii10021" unicode="&#x414;" horiz-adv-x="691" 
d="M4 125h35q21 14 41 35q17 18 35 44.5t30 64.5l130 396h446l-121 -540h85l-82 -275h-152l34 150h-338l-54 -150h-151zM313 270q-13 -38 -31.5 -65t-35.5 -45q-20 -21 -43 -35h225l93 415h-118z" />
    <glyph glyph-name="afii10024" unicode="&#x416;" horiz-adv-x="957" 
d="M623 381l281 284h179l-300 -296q27 -11 45.5 -27.5t31.5 -39t21.5 -51.5t15.5 -63l35 -188h-179l-25 151q-8 48 -23.5 74.5t-46.5 34.5l-79 -77l-38 -183h-175l40 183l-45 77q-35 -8 -62 -34.5t-55 -74.5l-90 -151h-179l116 188q43 69 86 114.5t106 66.5l-172 296h179
l159 -286l62 286h175z" />
    <glyph glyph-name="afii10025" unicode="&#x417;" horiz-adv-x="517" 
d="M270 401q50 0 73 17.5t33 61.5q2 8 3 15t1 13q0 26 -17 37.5t-55 11.5q-45 0 -84.5 -7.5t-81.5 -18.5l13 119q43 13 88 20.5t107 7.5q101 0 154.5 -36.5t53.5 -105.5q0 -11 -1 -22.5t-4 -23.5q-10 -42 -30 -70t-41 -45q-25 -19 -53 -32q19 -9 35 -24q13 -12 24 -32
t11 -50q0 -18 -4 -35q-25 -110 -101 -162.5t-204 -52.5q-65 0 -109 7.5t-82 20.5l40 120q38 -11 76.5 -19t85.5 -8q48 0 77.5 18.5t39.5 63.5q4 16 4 32q0 32 -21 45t-64 13h-63l27 121h69z" />
    <glyph glyph-name="afii10026" unicode="&#x418;" horiz-adv-x="737" 
d="M202 665h167l-87 -386l302 293l21 93h168l-149 -665h-168l82 368l-301 -288l-17 -80h-167z" />
    <glyph glyph-name="afii10027" unicode="&#x419;" horiz-adv-x="737" 
d="M202 665h167l-87 -386l302 293l21 93h168l-149 -665h-168l82 368l-301 -288l-17 -80h-167zM491 900q-1 -5 -1.5 -9t-0.5 -8q0 -37 31 -37q18 0 32 12.5t22 41.5h122q-22 -82 -68 -113.5t-117 -31.5q-65 0 -103.5 26.5t-38.5 87.5q0 6 0.5 15t1.5 16h120z" />
    <glyph glyph-name="afii10029" unicode="&#x41b;" horiz-adv-x="684" 
d="M290 665h446l-149 -665h-172l121 540h-118l-97 -293q-44 -133 -115.5 -196t-173.5 -63q-15 0 -27.5 2t-21.5 4q-11 3 -18 6l29 125h25q42 0 78 30.5t56 90.5z" />
    <glyph glyph-name="afii10033" unicode="&#x41f;" horiz-adv-x="712" 
d="M764 665l-149 -665h-172l121 540h-218l-121 -540h-172l149 665h562z" />
    <glyph glyph-name="afii10037" unicode="&#x423;" horiz-adv-x="600" 
d="M53 89q42 23 76.5 47.5t59.5 45.5q29 25 52 48l-122 435h182l68 -320q31 39 59 82t52.5 85.5t44.5 81.5t34 71h170q-31 -61 -69 -127.5t-83 -132.5t-97 -129t-109.5 -118.5t-121 -100t-132.5 -73.5z" />
    <glyph glyph-name="afii10038" unicode="&#x424;" horiz-adv-x="842" 
d="M630 685l-18 -80q127 0 186.5 -43t59.5 -137q0 -42 -12 -94q-16 -70 -44.5 -121t-72 -84.5t-103 -49.5t-136.5 -16l-18 -80h-172l18 80q-127 0 -186.5 43t-59.5 135q0 42 12 93q16 71 44.5 122.5t72 85.5t103 50t136.5 16l18 80h172zM666 332q10 43 10 74q0 44 -22 61
t-69 17l-68 -303q31 0 55 7.5t41.5 25.5t30.5 47t22 71zM264 332q-5 -22 -7.5 -40t-2.5 -33q0 -43 21.5 -60.5t69.5 -17.5l68 303q-32 0 -55.5 -7.5t-41 -25.5t-30 -47t-22.5 -72z" />
    <glyph glyph-name="afii10040" unicode="&#x426;" horiz-adv-x="727" 
d="M630 125h85l-82 -275h-152l34 150h-462l149 665h172l-121 -540h205l121 540h172z" />
    <glyph glyph-name="afii10041" unicode="&#x427;" horiz-adv-x="687" 
d="M355 665l-53 -233q-12 -55 8 -78t73 -23q31 0 54 3.5t40 7.5l73 323h172l-149 -665h-172l48 217q-26 -3 -48 -5t-51 -2q-78 0 -126.5 15.5t-73 45t-28 73t9.5 99.5l50 222h173z" />
    <glyph glyph-name="afii10042" unicode="&#x428;" horiz-adv-x="968" 
d="M53 0l149 665h172l-121 -540h143l121 540h172l-121 -540h143l121 540h172l-149 -665h-802z" />
    <glyph glyph-name="afii10043" unicode="&#x429;" horiz-adv-x="980" 
d="M53 0l149 665h172l-121 -540h143l121 540h172l-121 -540h143l121 540h172l-121 -540h85l-82 -275h-152l34 150h-715z" />
    <glyph glyph-name="afii10044" unicode="&#x42a;" horiz-adv-x="646" 
d="M233 537h-143l29 128h315l-53 -234h42q113 0 167 -33.5t54 -111.5q0 -32 -9 -74q-14 -62 -40.5 -104.5t-63 -69.5t-82.5 -39t-99 -12q-60 0 -115.5 6.5t-118.5 20.5zM310 113q11 -2 18 -3.5t21 -1.5q55 0 80 26.5t36 77.5q6 27 6 46q0 30 -17.5 42.5t-56.5 12.5h-42z" />
    <glyph glyph-name="afii10045" unicode="&#x42b;" horiz-adv-x="895" 
d="M931 665l-149 -665h-172l149 665h172zM202 665h172l-53 -234h42q113 0 167 -33.5t54 -111.5q0 -32 -9 -74q-14 -62 -40.5 -104.5t-63 -69.5t-82.5 -39t-99 -12q-60 0 -115.5 6.5t-118.5 20.5zM250 113q11 -2 18 -3.5t21 -1.5q55 0 80 26.5t36 77.5q6 27 6 46
q0 30 -17.5 42.5t-56.5 12.5h-42z" />
    <glyph glyph-name="afii10046" unicode="&#x42c;" horiz-adv-x="593" 
d="M202 665h172l-53 -234h47q113 0 168 -31.5t55 -111.5q0 -17 -2.5 -36t-7.5 -40q-14 -64 -41 -107t-63.5 -69.5t-82.5 -37.5t-99 -11q-60 0 -118 6.5t-121 20.5zM250 113q15 -2 23.5 -3.5t20.5 -1.5q55 0 80 24.5t37 79.5q3 14 5 26t2 22q0 31 -18 42t-58 11h-47z" />
    <glyph glyph-name="afii10048" unicode="&#x42e;" horiz-adv-x="972" 
d="M608 -13q-117 0 -174 51t-57 160q0 36 6 80h-96l-62 -278h-172l149 665h172l-59 -262h98q46 142 131.5 208t217.5 66q116 0 173.5 -51t57.5 -160q0 -56 -17 -135q-40 -178 -130.5 -261t-237.5 -83zM574 332q-18 -81 -18 -128q0 -53 20 -74.5t58 -21.5q28 0 52 11
t43.5 37.5t36 69.5t30.5 106q18 79 18 128q0 53 -20 74.5t-58 21.5q-29 0 -52.5 -11t-43 -37.5t-36 -69.5t-30.5 -106z" />
    <glyph glyph-name="afii10049" unicode="&#x42f;" horiz-adv-x="623" 
d="M675 665l-149 -665h-175l49 222h-50q-17 0 -29.5 -3t-23.5 -12.5t-22.5 -27.5t-26.5 -48l-66 -131h-182l85 167q26 51 57.5 79t75.5 42q-15 6 -31 14.5t-29 21t-21 31t-8 44.5q0 16 5 41q13 60 42 102t70.5 69t93 39.5t111.5 14.5h224zM473 547h-49q-53 0 -79.5 -28
t-38.5 -80q-2 -8 -3 -15t-1 -14q0 -35 22 -51t57 -16h44z" />
    <glyph glyph-name="afii10066" unicode="&#x431;" horiz-adv-x="557" 
d="M437 566q-29 -4 -51.5 -13t-39.5 -24t-30.5 -38t-25.5 -55q10 9 27 17q14 6 36.5 11.5t54.5 5.5q86 0 126 -39.5t40 -114.5q0 -20 -3 -42t-8 -47q-12 -55 -35 -99.5t-59 -75.5t-85.5 -48t-113.5 -17q-192 0 -192 177q0 24 3.5 51t10.5 58l12 54q21 93 53.5 160.5
t76 113.5t97.5 71.5t118 34.5l158 23l-16 -142zM254 226q-10 -44 -10 -72q0 -29 12 -39.5t37 -10.5q19 0 32.5 5.5t24 19.5t19 37.5t16.5 59.5q5 24 8 42t3 32q0 27 -11.5 38t-36.5 11q-18 0 -32 -6t-25.5 -20.5t-20 -38t-16.5 -58.5z" />
    <glyph glyph-name="afii10067" unicode="&#x432;" horiz-adv-x="510" 
d="M141 468q19 6 44 11.5t53 10t58 7t58 2.5q53 0 88 -8t55.5 -22t29 -33t8.5 -41q0 -17 -5 -40q-6 -26 -20.5 -44.5t-28.5 -30.5q-17 -14 -36 -23q19 -7 35 -19q13 -11 24 -28.5t11 -44.5q0 -7 -1 -14t-3 -15q-7 -30 -25.5 -57t-50.5 -47.5t-79.5 -32.5t-111.5 -12
q-24 0 -51.5 2.5t-55 7t-52.5 10t-45 11.5zM225 100q2 -2 7 -3t13.5 -1.5t23.5 -0.5q38 0 52 14.5t19 36.5q3 10 3 19q0 16 -11 25.5t-40 9.5h-45zM296 306q34 0 44.5 11.5t15.5 30.5q1 5 1.5 8.5t0.5 7.5q0 11 -7.5 17.5t-29.5 6.5q-9 0 -13.5 -1t-15.5 -3q-1 0 -2 -0.5
t-2 -0.5l-17 -77h25z" />
    <glyph glyph-name="afii10072" unicode="&#x436;" horiz-adv-x="776" 
d="M490 158l-33 -158h-171l34 158l-20 32q-20 -2 -41.5 -18t-41.5 -57l-58 -115h-181l71 128q39 69 80 110t86 53l-106 196h169l78 -166l36 166h171l-35 -164l149 164h169l-192 -196q77 -23 95 -163l16 -128h-181l-8 115q-3 41 -17.5 57t-33.5 18z" />
    <glyph glyph-name="afii10073" unicode="&#x437;" horiz-adv-x="420" 
d="M137 -11q-34 0 -68 5t-56 13l38 109q22 -6 43 -11t61 -5q22 0 37 4t24 11t13.5 16t6.5 19q2 8 2 13q0 16 -12 26.5t-44 10.5h-45l23 100h44q30 0 42.5 12.5t16.5 27.5q2 10 2 14q0 13 -9 21.5t-33 8.5q-29 0 -54.5 -3.5t-48.5 -8.5l11 115q11 2 26 4.5t31.5 4t33 2.5
t31.5 1q55 0 91.5 -10t58.5 -25.5t31 -36t9 -41.5q0 -13 -3 -26q-7 -30 -23.5 -50t-33.5 -32q-20 -14 -43 -21q19 -6 35 -17q14 -10 25 -26t11 -42q0 -11 -3 -26q-8 -33 -28.5 -62t-54 -50t-81 -33t-107.5 -12z" />
    <glyph glyph-name="afii10077" unicode="&#x43b;" horiz-adv-x="553" 
d="M485 0h-167l83 370h-64l-62 -174q-38 -109 -99 -159t-136 -50q-11 0 -22 2t-19 4q-10 3 -19 7l27 116h17q26 0 51.5 19.5t39.5 60.5l97 291h382z" />
    <glyph glyph-name="afii10078" unicode="&#x43c;" horiz-adv-x="678" 
d="M307 125l-44 125l-56 -250h-167l109 487h153l86 -207l178 207h153l-109 -487h-167l56 250l-100 -125h-92z" />
    <glyph glyph-name="afii10079" unicode="&#x43d;" horiz-adv-x="554" 
d="M595 487l-109 -487h-167l41 185h-112l-41 -185h-167l109 487h167l-42 -185h112l42 185h167z" />
    <glyph glyph-name="afii10086" unicode="&#x444;" horiz-adv-x="768" 
d="M239 -12q-40 0 -73 8.5t-57 28.5t-37.5 51.5t-13.5 78.5q0 42 12 98q15 67 42.5 114t65 76t84.5 42.5t101 13.5q9 0 18 -0.5t18 -0.5l38 167h167l-38 -167q9 0 18 0.5t18 0.5q89 0 141 -37.5t52 -124.5q0 -38 -10 -84q-17 -75 -45.5 -126t-66 -81.5t-82 -44t-93.5 -13.5
q-25 0 -45 5l-41 -181h-167l41 181q-12 -2 -23.5 -3.5t-23.5 -1.5zM573 383h-16.5t-16.5 -2l-61 -274q15 -3 35 -3t34.5 7t25.5 24.5t20 45.5t18 70q12 52 12 81q0 30 -12.5 40.5t-38.5 10.5zM340 383q-19 0 -33 -5.5t-25.5 -20.5t-20.5 -40.5t-18 -65.5q-15 -65 -15 -98
q0 -27 11 -38t36 -11q19 0 37 3l61 274q-8 2 -16.5 2h-16.5z" />
    <glyph glyph-name="afii10089" unicode="&#x447;" horiz-adv-x="536" 
d="M468 0h-170l34 158q-9 -3 -32.5 -7.5t-51.5 -4.5q-30 0 -58 6t-50.5 21t-36 40t-13.5 63q0 27 7 56l35 155h167l-36 -161q-4 -16 -4 -30q0 -19 10 -26.5t31 -7.5q23 0 38.5 6.5t19.5 9.5l45 209h171z" />
    <glyph glyph-name="afii10090" unicode="&#x448;" horiz-adv-x="843" 
d="M316 487l-71 -319q-3 -12 -3 -25q0 -14 4 -23t21 -9q20 0 40 10.5t39 28.5l75 337h166l-66 -319q-3 -12 -3 -25q0 -14 6.5 -23t23.5 -9q20 0 37.5 10.5t36.5 28.5l75 337h171l-72 -325q-2 -8 -3 -15t-1 -12q0 -14 7 -19t19 -5q10 0 22 2t25 5l-21 -117q-18 -5 -40.5 -9
t-51.5 -4q-35 0 -61 12.5t-39 35.5q-29 -23 -62 -35.5t-76 -12.5q-98 0 -137 48q-29 -23 -65.5 -35.5t-78.5 -12.5q-85 0 -124 35t-39 105q0 16 3.5 35t8.5 39l63 285h171z" />
    <glyph glyph-name="afii10091" unicode="&#x449;" horiz-adv-x="848" 
d="M311 487l-71 -319q-3 -12 -3 -25q0 -14 6.5 -23t23.5 -9q20 0 37.5 10.5t36.5 28.5l75 337h166l-66 -319q-3 -12 -3 -25q0 -14 6.5 -23t23.5 -9q20 0 37.5 10.5t36.5 28.5l75 337h171l-72 -325q-2 -8 -3 -15t-1 -12q0 -14 7 -19t19 -5q10 0 22 2t25 5q0 -69 -19.5 -131
t-58.5 -107h-113q11 29 20 57.5t11 57.5q-36 12 -53 41q-29 -23 -62 -35.5t-76 -12.5q-98 0 -137 48q-29 -23 -63 -35.5t-76 -12.5q-85 0 -124 35t-39 105q0 16 1 35t6 39l63 285h171z" />
    <glyph glyph-name="afii10092" unicode="&#x44a;" horiz-adv-x="536" 
d="M551 169q-9 -40 -31.5 -73.5t-58 -57.5t-83 -37.5t-105.5 -13.5q-49 0 -97 9.5t-88 21.5l76 342h-114l29 127h282l-33 -145q9 3 21 5t25 2q91 0 136.5 -36t45.5 -99q0 -11 -1 -22t-4 -23zM275 109q3 -2 7 -3q6 -3 16 -3q29 0 46.5 17.5t24.5 48.5q3 10 3 20
q0 20 -10.5 32t-30.5 12q-18 0 -30 -7z" />
    <glyph glyph-name="afii10093" unicode="&#x44b;" horiz-adv-x="746" 
d="M796 487l-109 -487h-167l109 487h167zM503 169q-9 -40 -31.5 -73.5t-58 -57.5t-83 -37.5t-105.5 -13.5q-49 0 -97 9.5t-88 21.5l105 469h168l-33 -145q9 3 21 5t25 2q91 0 136.5 -36t45.5 -99q0 -11 -1 -22t-4 -23zM227 109q3 -2 7 -3q6 -3 16 -3q29 0 46.5 17.5
t24.5 48.5q3 10 3 20q0 20 -10.5 32t-30.5 12q-18 0 -30 -7z" />
    <glyph glyph-name="afii10094" unicode="&#x44c;" horiz-adv-x="489" 
d="M503 169q-9 -40 -28.5 -73.5t-52.5 -57.5t-79.5 -37.5t-108.5 -13.5q-49 0 -101.5 9.5t-92.5 21.5l105 469h168l-33 -145q22 7 51 7q92 0 135 -34.5t43 -95.5q0 -23 -6 -50zM227 109q3 -2 7 -3q7 -3 22 -3q30 0 48.5 17.5t25.5 48.5q2 5 2 9.5v9.5q0 20 -11 32.5
t-32 12.5q-15 0 -21.5 -2t-14.5 -5z" />
    <glyph glyph-name="afii10095" unicode="&#x44d;" horiz-adv-x="414" 
d="M49 117q20 -5 45.5 -9.5t55.5 -4.5q37 0 61 21t38 59h-122l25 114h118v21q0 35 -13 50t-48 15q-25 0 -50.5 -5.5t-51.5 -12.5l13 115q13 4 30.5 8t36.5 6t38.5 3.5t36.5 1.5q90 0 135.5 -41t45.5 -130q0 -18 -1.5 -37t-3.5 -36q-8 -58 -29.5 -107t-58 -84.5t-87.5 -55.5
t-117 -20q-14 0 -31.5 1t-35 3t-33 4.5t-25.5 4.5z" />
    <glyph glyph-name="afii10096" unicode="&#x44e;" horiz-adv-x="765" 
d="M489 -12q-102 0 -150.5 47t-38.5 150h-52l-41 -185h-167l109 487h167l-42 -185h52q37 103 106 150.5t172 47.5q115 0 161.5 -61t16.5 -195q-30 -135 -104 -195.5t-189 -60.5zM515 104q34 0 55.5 31t38.5 109q18 78 11 109t-42 31q-17 0 -31 -7.5t-25 -24t-20.5 -43
t-18.5 -65.5q-17 -78 -10 -109t42 -31z" />
    <glyph glyph-name="afii10097" unicode="&#x44f;" horiz-adv-x="528" 
d="M300 0l34 152h-18q-32 0 -49.5 -17t-31.5 -42l-52 -93h-178l50 93q15 28 34.5 48t37.5 33q20 15 42 25q-18 8 -32 21q-12 11 -21.5 29.5t-9.5 46.5q0 8 1 16.5t3 17.5q8 37 27 68.5t50.5 54t77.5 35t109 12.5q49 0 104 -8.5t95 -22.5l-105 -469h-168zM385 378
q-12 6 -36 6q-32 0 -46 -13.5t-22 -45.5q-3 -15 -3 -26q0 -18 10 -26t34 -8h38z" />
    <glyph glyph-name="afii10076" unicode="&#x43a;" horiz-adv-x="544" 
d="M317 487l-38 -178l162 178h169l-192 -196q77 -23 95 -163l16 -128h-181l-8 115q-3 41 -17.5 57t-33.5 18l-47 -43l-31 -147h-171l106 487h171z" />
    <glyph glyph-name="afii10109" unicode="&#x45c;" horiz-adv-x="540" 
d="M317 487l-38 -178l162 178h169l-192 -196q77 -23 95 -163l16 -128h-181l-8 115q-3 41 -17.5 57t-33.5 18l-47 -43l-31 -147h-171l106 487h171zM585 730l-145 -161h-125l95 161h175z" />
    <glyph glyph-name="afii10061" unicode="&#x40c;" horiz-adv-x="644" 
d="M373 665l-66 -297l294 297h179l-300 -296q27 -11 45.5 -27.5t31.5 -39t21.5 -51.5t15.5 -63l35 -188h-179l-25 151q-8 48 -23.5 74.5t-46.5 34.5l-91 -89l-36 -171h-175l145 665h175zM683 908l-145 -161h-125l95 161h175z" />
    <glyph glyph-name="afii10020" unicode="&#x413;" horiz-adv-x="524" 
d="M636 665l-25 -118h-265l-118 -547h-175l145 665h438z" />
    <glyph glyph-name="afii10085" unicode="&#x443;" horiz-adv-x="538" 
d="M93 487h173l31 -326q21 33 41 66t40.5 71t41.5 84t44 105h159q-21 -52 -50 -114t-65.5 -127.5t-79.5 -132t-92 -126.5t-103 -111t-113 -86l-65 95q45 34 86 70.5t62 74.5h-42z" />
    <glyph glyph-name="afii10074" unicode="&#x438;" horiz-adv-x="570" 
d="M314 487l-71 -319q-3 -12 -3 -25q0 -14 6.5 -23t23.5 -9q20 0 40 10.5t39 28.5l75 337h171l-72 -325q-2 -8 -3 -15t-1 -12q0 -14 7 -19t19 -5q10 0 22 2t25 5l-21 -117q-18 -5 -40.5 -9t-51.5 -4q-35 0 -61 12.5t-39 35.5q-60 -48 -143 -48q-85 0 -124 35t-39 105
q0 16 1 35t6 39l63 285h171z" />
    <glyph glyph-name="afii10075" unicode="&#x439;" horiz-adv-x="570" 
d="M314 487l-71 -319q-3 -12 -3 -25q0 -14 6.5 -23t23.5 -9q20 0 40 10.5t39 28.5l75 337h171l-72 -325q-2 -8 -3 -15t-1 -12q0 -14 7 -19t19 -5q10 0 22 2t25 5l-21 -117q-18 -5 -40.5 -9t-51.5 -4q-35 0 -61 12.5t-39 35.5q-60 -48 -143 -48q-85 0 -124 35t-39 105
q0 16 1 35t6 39l63 285h171zM355 722q-1 -5 -1.5 -9t-0.5 -8q0 -37 31 -37q18 0 32 12.5t22 41.5h122q-22 -82 -68 -113.5t-117 -31.5q-65 0 -103.5 26.5t-38.5 87.5q0 6 0.5 15t1.5 16h120z" />
    <glyph glyph-name="afii10101" unicode="&#x454;" horiz-adv-x="418" 
d="M458 370q-20 5 -45.5 9.5t-55.5 4.5q-37 0 -61 -21t-38 -59h122l-25 -114h-118v-21q0 -35 13 -50t48 -15q25 0 50.5 5.5t51.5 12.5l-13 -115q-13 -5 -30.5 -8.5t-36.5 -5.5t-38.5 -3.5t-36.5 -1.5q-90 0 -135.5 41t-45.5 130q0 18 1.5 37t3.5 36q8 58 29.5 107t58 84.5
t87.5 55.5t117 20q14 0 31.5 -1t35 -3t33 -4.5t25.5 -4.5z" />
    <glyph glyph-name="afii10053" unicode="&#x404;" horiz-adv-x="543" 
d="M601 534q-13 4 -30.5 8t-37 7t-39.5 5t-37 2q-66 0 -108 -37t-68 -123h229l-25 -118h-229q-2 -16 -3.5 -30t-1.5 -26q0 -33 4 -54.5t15 -35t30.5 -19t51.5 -5.5q18 0 39 3t42.5 7t42 9t37.5 9l-14 -121q-16 -5 -38 -10t-47 -9t-50.5 -6.5t-49.5 -2.5q-124 0 -185 53.5
t-61 172.5q0 31 3.5 57.5t12.5 65.5q21 94 56 159t84 105.5t112 58.5t140 18q47 0 88.5 -7t67.5 -14z" />
    <glyph glyph-name="afii10047" unicode="&#x42d;" horiz-adv-x="548" 
d="M51 130q13 -4 30.5 -8t37 -7t39.5 -5t37 -2q66 0 108.5 42t68.5 128h-229l25 118h227q4 15 5 24.5t1 21.5q0 33 -4 54.5t-15 35t-31 19t-51 5.5q-18 0 -39 -3t-42.5 -7t-42 -9t-37.5 -9l14 121q16 5 38 10t47 9t50.5 6.5t49.5 2.5q124 0 185 -53.5t61 -172.5
q0 -31 -3.5 -57.5t-12.5 -65.5q-21 -94 -56 -159t-84 -105.5t-112 -58.5t-140 -18q-47 0 -88.5 7t-67.5 14z" />
    <glyph glyph-name="afii10088" unicode="&#x446;" horiz-adv-x="577" 
d="M429 -5q-36 12 -53 41q-60 -48 -143 -48q-85 0 -124 35t-39 105q0 16 1 35t6 39l63 285h171l-71 -319q-3 -12 -3 -25q0 -14 6.5 -23t23.5 -9q20 0 40 10.5t39 28.5l75 337h171l-72 -325q-2 -8 -3 -15t-1 -12q0 -14 7 -19t19 -5q10 0 22 2t25 5q0 -69 -19.5 -131
t-58.5 -107h-113q11 29 20 57.5t11 57.5z" />
    <glyph glyph-name="afii10098" unicode="&#x491;" horiz-adv-x="398" 
d="M149 487h178l27 123h150l-53 -240h-161l-83 -370h-167z" />
    <glyph glyph-name="afii10050" unicode="&#x490;" horiz-adv-x="534" 
d="M346 547l-118 -547h-175l145 665h287l24 115h152l-50 -233h-265z" />
    <glyph glyph-name="afii10108" unicode="&#x45b;" horiz-adv-x="559" 
d="M381 730l-15 -65h124l-25 -116h-125l-16 -75q39 6 79 6q80 0 127 -28t47 -97q0 -13 -2 -27t-5 -30l-64 -298h-171l64 292q3 13 3 25q0 27 -13 37t-36 10q-13 0 -29 -2t-24 -4l-78 -358h-170l119 549h-66l25 116h66l14 65h171z" />
    <glyph glyph-name="afii10099" unicode="&#x452;" horiz-adv-x="559" 
d="M381 730l-15 -65h124l-25 -116h-125l-16 -75q39 6 79 6q80 0 127 -28t47 -97q0 -13 -2 -27t-5 -30l-31 -145q-11 -50 -30.5 -92t-50 -79t-73 -69.5t-98.5 -62.5l-57 96q34 25 57 48t38.5 46.5t25 50.5t17.5 61l31 140q3 13 3 25q0 27 -13 37t-36 10q-13 0 -29 -2t-24 -4
l-78 -358h-170l119 549h-66l25 116h66l14 65h171z" />
    <glyph glyph-name="afii61352" unicode="&#x2116;" horiz-adv-x="1039" 
d="M338 665l189 -343l73 343h171l-145 -665h-171l28 133l-166 293l-93 -426h-171l145 665h140zM987 532q60 0 98.5 -32t38.5 -98q0 -12 -1.5 -23.5t-4.5 -26.5q-11 -48 -30.5 -81.5t-46.5 -54.5t-60 -30.5t-70 -9.5q-60 0 -98.5 32t-38.5 98q0 12 1.5 23.5t4.5 26.5
q10 48 30 81.5t47 54.5t60 30.5t70 9.5zM928 258q19 0 37 20.5t31 74.5q6 25 6 44q0 29 -9 41t-23 12q-19 0 -37 -20.5t-31 -74.5q-6 -26 -6 -44q0 -29 9 -41t23 -12zM1034 112l-24 -112h-286l24 112h286z" />
    <glyph glyph-name="afii10062" unicode="&#x40e;" horiz-adv-x="600" 
d="M53 89q42 23 76.5 47.5t59.5 45.5q29 25 52 48l-122 435h182l68 -320q31 39 59 82t52.5 85.5t44.5 81.5t34 71h170q-31 -61 -69 -127.5t-83 -132.5t-97 -129t-109.5 -118.5t-121 -100t-132.5 -73.5zM425 900q-1 -5 -1.5 -9t-0.5 -8q0 -37 31 -37q18 0 32 12.5t22 41.5
h122q-22 -82 -68 -113.5t-117 -31.5q-65 0 -103.5 26.5t-38.5 87.5q0 6 0.5 15t1.5 16h120z" />
    <glyph glyph-name="afii10110" unicode="&#x45e;" horiz-adv-x="528" 
d="M84 487h173l31 -326q21 33 41 66t40.5 71t41.5 84t44 105h159q-21 -52 -50 -114t-65.5 -127.5t-79.5 -132t-92 -126.5t-103 -111t-113 -86l-65 95q45 34 86 70.5t62 74.5h-42zM341 722q-1 -5 -1.5 -9t-0.5 -8q0 -37 31 -37q18 0 32 12.5t22 41.5h122q-22 -82 -68 -113.5
t-117 -31.5q-65 0 -103.5 26.5t-38.5 87.5q0 6 0.5 15t1.5 16h120z" />
    <glyph glyph-name="afii10052" unicode="&#x403;" horiz-adv-x="534" 
d="M636 665l-25 -118h-265l-118 -547h-175l145 665h438zM655 908l-145 -161h-125l95 161h175z" />
    <glyph glyph-name="nonbreakingspace" horiz-adv-x="291" 
 />
    <glyph glyph-name="afii10065" unicode="&#x430;" horiz-adv-x="563" 
d="M394 377q-22 7 -42 7q-27 0 -45.5 -12t-31.5 -32.5t-21 -47.5t-13 -57q-2 -16 -3.5 -32t-1.5 -30q0 -31 8 -46.5t32 -15.5q17 0 35.5 8.5t31.5 17.5zM515 155q-1 -5 -1.5 -9t-0.5 -8q0 -13 5.5 -20t20.5 -7t26 2t22 5l-21 -117q-17 -5 -34 -9t-42 -4q-41 0 -70.5 11
t-43.5 36q-29 -22 -64 -34.5t-77 -12.5q-79 0 -125 40.5t-46 132.5q0 40 6 78q10 59 33.5 107t60.5 82t87.5 52.5t115.5 18.5q58 0 116 -12.5t100 -29.5z" />
    <glyph glyph-name="afii10069" unicode="&#x434;" horiz-adv-x="541" 
d="M488 18q-15 -69 -42.5 -111.5t-65 -66.5t-85 -32t-101.5 -8q-22 0 -45.5 2t-45 5.5t-39.5 8t-29 8.5l25 116q12 -4 30 -8.5t38 -8t40.5 -6t38.5 -2.5q41 0 70 18.5t37 67.5l3 21q-20 -11 -43 -16.5t-55 -5.5t-60 10t-49 30.5t-33 52t-12 75.5q0 69 19 129.5t56.5 105
t94.5 70.5t134 26q58 0 115.5 -13t99.5 -30zM394 377q-8 2 -20.5 4.5t-26.5 2.5q-30 0 -50.5 -19.5t-34 -49.5t-19.5 -65.5t-6 -67.5q0 -31 8.5 -46.5t32.5 -15.5q16 0 34.5 9.5t31.5 20.5z" />
    <glyph glyph-name="afii10084" unicode="&#x442;" horiz-adv-x="811" 
d="M141 459q20 6 46 13t55.5 13t62 10t65.5 4q47 0 84 -10t61 -28q38 17 80 27.5t82 10.5q75 0 117 -27.5t42 -93.5q0 -29 -7 -61l-69 -317h-171l69 311q3 15 3 27q0 26 -11 35.5t-34 9.5q-14 0 -29.5 -4t-26.5 -10q0 -12 -1.5 -28t-3.5 -24l-70 -317h-170l68 311
q2 7 2.5 14.5t0.5 12.5q0 26 -11 35.5t-33 9.5q-12 0 -26.5 -2t-22.5 -5l-82 -376h-171l101 459v0z" />
    <glyph glyph-name="afii10081" unicode="&#x43f;" horiz-adv-x="546" 
d="M141 459q20 6 47 13t57.5 13t63.5 10t66 4q90 0 143 -33.5t53 -104.5q0 -13 -1.5 -21t-4.5 -23l-70 -317h-171l69 311q2 8 3 15t1 13q0 44 -50 44q-12 0 -29 -2t-25 -4l-82 -377h-171l101 459v0z" />
    <glyph glyph-name="afii10100" unicode="&#x453;" horiz-adv-x="430" 
d="M125 485q26 5 64 9.5t79 4.5q40 0 75 -4.5t61.5 -16t42 -30.5t15.5 -47q0 -39 -18 -70t-45 -55.5t-58.5 -45t-58.5 -38.5t-45 -35t-18 -35q0 -22 52 -22q38 0 78 8t67 16l-25 -113q-35 -10 -83 -16.5t-89 -6.5q-35 0 -67 5t-56.5 16.5t-39 30.5t-14.5 48q0 37 18.5 67.5
t46.5 56t60 47.5t60 40.5t46.5 35t18.5 32.5q0 13 -14.5 17.5t-41.5 4.5q-17 0 -37 -2t-38.5 -4.5t-34.5 -5.5t-26 -5zM522 730l-145 -161h-125l95 161h175z" />
    <glyph glyph-name="afii10068" unicode="&#x433;" horiz-adv-x="412" 
d="M121 485q26 5 64 9.5t79 4.5q40 0 75 -4.5t61.5 -16t42 -30.5t15.5 -47q0 -39 -18 -70t-45 -55.5t-58.5 -45t-58.5 -38.5t-45 -35t-18 -35q0 -22 52 -22q38 0 78 8t67 16l-25 -113q-35 -10 -83 -16.5t-89 -6.5q-35 0 -67 5t-56.5 16.5t-39 30.5t-14.5 48q0 37 18.5 67.5
t46.5 56t60 47.5t60 40.5t46.5 35t18.5 32.5q0 13 -14.5 17.5t-41.5 4.5q-17 0 -37 -2t-38.5 -4.5t-34.5 -5.5t-26 -5z" />
    </font>
</defs>
</svg>
