<?xml version="1.0" standalone="no"?>
<!DOCTYPE svg PUBLIC "-//W3C//DTD SVG 1.1//EN" "http://www.w3.org/Graphics/SVG/1.1/DTD/svg11.dtd" >
<svg xmlns="http://www.w3.org/2000/svg" xmlns:xlink="http://www.w3.org/1999/xlink" version="1.1">
<metadata>
Created by FontForge 20161116 at Tue Feb  7 14:43:04 2017
 By Jimmy Wärting
Copyright (c) 2010 by Dassault Systmes Company. All rights reserved.
</metadata>
<defs>
<font id="3ds-SemiBold" horiz-adv-x="605" >
  <font-face 
    font-family="3ds SemiBold"
    font-weight="600"
    font-stretch="normal"
    units-per-em="1000"
    panose-1="2 0 5 3 2 0 0 2 0 4"
    ascent="800"
    descent="-200"
    x-height="484"
    cap-height="665"
    bbox="-36 -232 1201 1015"
    underline-thickness="50"
    underline-position="-100"
    unicode-range="U+000D-FB02"
  />
<missing-glyph horiz-adv-x="577" 
d="M484 665v-665h-391v665h391zM194 91h188v483h-188v-483z" />
    <glyph glyph-name="fi" unicode="fi" horiz-adv-x="608" 
d="M96 484v67q0 53 19.5 89.5t53.5 59t78 32t94 9.5q22 0 46 -1.5t46 -4t41.5 -6t33.5 -6.5l-12 -99q-27 6 -66.5 11t-78.5 5q-26 0 -47.5 -4t-38 -14t-25.5 -27t-9 -42v-69h301v-484h-134v391h-167v-391h-135v391h-75v93h75z" />
    <glyph glyph-name="fl" unicode="fl" horiz-adv-x="608" 
d="M96 484v67q0 51 18.5 87t50.5 59t76.5 33.5t95.5 10.5q52 0 98 -5.5t97 -13.5v-722h-134v638q-11 1 -22.5 1.5t-23.5 0.5q-21 0 -43 -3t-39 -12.5t-28 -26.5t-11 -45v-69h95v-93h-95v-391h-135v391h-75v93h75z" />
    <glyph glyph-name=".notdef" horiz-adv-x="577" 
d="M484 665v-665h-391v665h391zM194 91h188v483h-188v-483z" />
    <glyph glyph-name=".null" horiz-adv-x="0" 
 />
    <glyph glyph-name=".null" horiz-adv-x="0" 
 />
    <glyph glyph-name="nonmarkingreturn" unicode="&#xd;" horiz-adv-x="280" 
 />
    <glyph glyph-name="space" unicode=" " horiz-adv-x="280" 
 />
    <glyph glyph-name="A" unicode="A" horiz-adv-x="671" 
d="M208 0h-136v432q0 55 14.5 100t46 77t81 49.5t120.5 17.5t121.5 -17.5t82.5 -49.5t46.5 -77t14.5 -100v-432h-139v234h-252v-234zM460 332v107q0 63 -28 100t-98 37t-98 -37t-28 -100v-107h252z" />
    <glyph glyph-name="B" unicode="B" horiz-adv-x="636" 
d="M230 91q23 -3 48.5 -5t42.5 -2q36 0 60 7t38.5 20t20 32t5.5 44q0 50 -25.5 74.5t-91.5 24.5h-98v-195zM230 382h95q49 0 76 23t27 74q0 50 -25.5 70t-80.5 20h-92v-187zM318 665q58 0 104.5 -9t79.5 -29.5t51 -53t18 -80.5q0 -66 -28.5 -102t-79.5 -53q25 -5 48.5 -16
t40.5 -29.5t27.5 -46t10.5 -64.5q0 -51 -18.5 -87.5t-53 -60t-84 -35t-111.5 -11.5q-47 0 -108 6.5t-124 19.5v651h227z" />
    <glyph glyph-name="C" unicode="C" horiz-adv-x="574" 
d="M515 556q-33 8 -76.5 14t-82.5 6q-41 0 -71 -12.5t-50.5 -41t-30.5 -74.5t-10 -113q0 -74 10.5 -121.5t31.5 -75t53.5 -38t76.5 -10.5q38 0 79.5 6.5t76.5 14.5l10 -99q-35 -11 -81 -17.5t-91 -6.5q-74 0 -132 17t-97.5 57.5t-60.5 107t-21 164.5q0 96 20.5 161.5
t60.5 105.5t98.5 57.5t133.5 17.5q45 0 90 -6t77 -13z" />
    <glyph glyph-name="D" unicode="D" horiz-adv-x="684" 
d="M332 665q72 0 128.5 -19t95.5 -58.5t59.5 -101t20.5 -145.5q0 -78 -15.5 -143t-53 -111.5t-101 -72.5t-159.5 -26q-99 0 -217 25v652h242zM228 94q40 -6 83 -6q101 0 141.5 62t40.5 189q0 63 -10.5 106t-31 70t-50.5 39t-69 12h-104v-472z" />
    <glyph glyph-name="E" unicode="E" horiz-adv-x="569" 
d="M501 665v-99h-279v-178h256v-99h-256v-118q0 -43 25 -58t64 -15h202v-98h-209q-52 0 -93 9t-69 29.5t-43 54t-15 81.5v491h417z" />
    <glyph glyph-name="F" unicode="F" horiz-adv-x="558" 
d="M519 665v-99h-288v-196h252v-98h-252v-272h-138v665h426z" />
    <glyph glyph-name="G" unicode="G" horiz-adv-x="691" 
d="M597 554q-37 8 -91 15t-114 7q-51 0 -88.5 -13t-62 -42t-36 -74.5t-11.5 -111.5q0 -74 11.5 -122t33.5 -75.5t53.5 -38.5t72.5 -11q29 0 62 3t56 7v177h-130v102h268v-353q-23 -6 -52 -12.5t-62 -12t-67.5 -8.5t-68.5 -3q-75 0 -134.5 16t-101.5 55.5t-64 106.5t-22 169
q0 95 23.5 160t67.5 105.5t107 58t141 17.5q28 0 59.5 -2t61 -5t55.5 -6.5t43 -7.5z" />
    <glyph glyph-name="H" unicode="H" horiz-adv-x="748" 
d="M231 665v-272h285v272h139v-665h-139v289h-285v-289h-138v665h138z" />
    <glyph glyph-name="I" unicode="I" horiz-adv-x="324" 
d="M231 665v-665h-138v665h138z" />
    <glyph glyph-name="J" unicode="J" horiz-adv-x="317" 
d="M231 665v-574q0 -54 -17 -96t-45.5 -76.5t-65.5 -63t-77 -55.5l-53 74q31 27 53.5 49.5t37.5 46.5t22 52t7 65v578h138z" />
    <glyph glyph-name="K" unicode="K" horiz-adv-x="653" 
d="M231 665v-345l281 345h139l-254 -309q37 -11 64.5 -29.5t49.5 -43.5t39.5 -57t34.5 -69l68 -157h-150l-50 116q-14 31 -26 56.5t-27 44.5t-34.5 32t-47.5 19l-87 -105v-163h-138v665h138z" />
    <glyph glyph-name="L" unicode="L" horiz-adv-x="520" 
d="M231 665v-567h268v-98h-406v665h138z" />
    <glyph glyph-name="M" unicode="M" horiz-adv-x="924" 
d="M236 665l226 -340l226 340h143v-665h-138v473l-180 -269h-104l-178 269v-473h-138v665h143z" />
    <glyph glyph-name="N" unicode="N" horiz-adv-x="756" 
d="M206 665l322 -359v359h135v-665h-135v141l-301 330v-471h-134v665h113z" />
    <glyph glyph-name="O" unicode="O" horiz-adv-x="689" 
d="M640 331q0 -181 -74.5 -262t-220.5 -81q-147 0 -221.5 81t-74.5 262q0 182 74.5 263.5t221.5 81.5q146 0 220.5 -81.5t74.5 -263.5zM495 332q0 69 -9.5 115.5t-28 75t-47 41t-65.5 12.5q-38 0 -66.5 -12.5t-47 -41t-28 -75t-9.5 -115.5t9.5 -116t28 -75.5t47 -40.5
t66.5 -12q37 0 65.5 12t47 40.5t28 75.5t9.5 116z" />
    <glyph glyph-name="P" unicode="P" horiz-adv-x="625" 
d="M231 337q23 -4 43 -5.5t38 -1.5q69 0 98.5 29t29.5 91q0 68 -30.5 92t-94.5 24h-84v-229zM315 665q65 0 114.5 -11t82.5 -36t49.5 -66.5t16.5 -101.5q0 -62 -18 -104t-50.5 -68t-78 -37.5t-100.5 -11.5q-48 0 -100 9v-238h-138v665h222z" />
    <glyph glyph-name="Q" unicode="Q" horiz-adv-x="690" 
d="M296 -57q27 0 64.5 -7.5t75 -17t69.5 -17t49 -7.5q27 0 48.5 8.5t38.5 22.5l42 -90q-20 -20 -50 -33.5t-75 -13.5q-30 0 -66.5 9t-73 19.5t-69 19.5t-53.5 9v98zM640 331q0 -181 -74.5 -262t-220.5 -81q-147 0 -221.5 81t-74.5 262q0 182 74.5 263.5t221.5 81.5
q146 0 220.5 -81.5t74.5 -263.5zM495 332q0 69 -9.5 115.5t-28 75t-47 41t-65.5 12.5q-38 0 -66.5 -12.5t-47 -41t-28 -75t-9.5 -115.5t9.5 -116t28 -75.5t47 -40.5t66.5 -12q37 0 65.5 12t47 40.5t28 75.5t9.5 116z" />
    <glyph glyph-name="R" unicode="R" horiz-adv-x="639" 
d="M315 665q65 0 114.5 -10.5t82.5 -35t49.5 -65t16.5 -100.5q0 -39 -10 -67t-26.5 -48t-38 -33t-45.5 -21q37 -14 60 -41.5t39 -77.5l53 -166h-144l-45 136q-8 24 -17 43.5t-22 32.5t-31.5 20t-45.5 7q-18 0 -37 1.5t-37 3.5v-244h-138v665h222zM231 344q22 -4 42.5 -5
t38.5 -1q69 0 98.5 27t29.5 89q0 34 -7.5 56t-23 34.5t-39 17t-55.5 4.5h-84v-222z" />
    <glyph glyph-name="S" unicode="S" horiz-adv-x="559" 
d="M484 559q-16 3 -36.5 6t-42.5 5.5t-43 4t-39 1.5q-57 0 -89.5 -12.5t-32.5 -52.5q0 -24 23 -45.5t57.5 -43.5t74.5 -46.5t74.5 -55.5t57.5 -69.5t23 -88.5q0 -93 -65.5 -133.5t-179.5 -40.5q-64 0 -116.5 10.5t-90.5 21.5l14 99q38 -11 85 -21t104 -10q46 0 76.5 13
t30.5 52q0 27 -23 51.5t-57.5 48.5t-75 49t-75 54.5t-57.5 65.5t-23 81q0 51 20 84.5t55.5 53t84 27.5t106.5 8q22 0 46 -1.5t46.5 -4t42.5 -5.5t35 -6z" />
    <glyph glyph-name="T" unicode="T" horiz-adv-x="583" 
d="M568 665v-99h-207v-566h-139v566h-207v99h553z" />
    <glyph glyph-name="U" unicode="U" horiz-adv-x="706" 
d="M218 665v-449q0 -63 33.5 -95.5t103.5 -32.5q38 0 71 4.5t54 10.5v562h138v-636q-45 -13 -111.5 -27t-154.5 -14q-75 0 -127 16t-84.5 46.5t-47 74.5t-14.5 99v441h139z" />
    <glyph glyph-name="V" unicode="V" horiz-adv-x="632" 
d="M247 0l-247 665h147l185 -520q23 49 47.5 105.5t47 121t41.5 137.5t32 156h132q-13 -97 -37.5 -186t-57 -171.5t-69 -159t-73.5 -148.5h-148z" />
    <glyph glyph-name="W" unicode="W" horiz-adv-x="925" 
d="M188 0l-181 665h142l122 -510l132 387h120l132 -392q45 100 78.5 226t54.5 289h130q-28 -193 -77.5 -355.5t-121.5 -309.5h-127l-130 391l-139 -391h-135z" />
    <glyph glyph-name="X" unicode="X" horiz-adv-x="616" 
d="M12 665h159l143 -226l151 226h146l-223 -326l224 -339h-161l-149 235l-154 -235h-145l225 333z" />
    <glyph glyph-name="Y" unicode="Y" horiz-adv-x="636" 
d="M255 229l-263 436h156l190 -319q27 26 53 63t48.5 79.5t38.5 88t24 88.5h139q-13 -60 -36.5 -122t-55.5 -119t-71.5 -106t-82.5 -85v-233h-140v229z" />
    <glyph glyph-name="Z" unicode="Z" horiz-adv-x="608" 
d="M558 665v-93l-339 -474h349v-98h-519v92l342 474h-332v99h499z" />
    <glyph glyph-name="Agrave" unicode="&#xc0;" horiz-adv-x="671" 
d="M208 0h-136v432q0 55 14.5 100t46 77t81 49.5t120.5 17.5t121.5 -17.5t82.5 -49.5t46.5 -77t14.5 -100v-432h-139v234h-252v-234zM460 332v107q0 63 -28 100t-98 37t-98 -37t-28 -100v-107h252zM307 916l83 -161h-101l-126 161h144z" />
    <glyph glyph-name="Aacute" unicode="&#xc1;" horiz-adv-x="671" 
d="M208 0h-136v432q0 55 14.5 100t46 77t81 49.5t120.5 17.5t121.5 -17.5t82.5 -49.5t46.5 -77t14.5 -100v-432h-139v234h-252v-234zM460 332v107q0 63 -28 100t-98 37t-98 -37t-28 -100v-107h252zM508 916l-125 -161h-103l84 161h144z" />
    <glyph glyph-name="Acircumflex" unicode="&#xc2;" horiz-adv-x="671" 
d="M208 0h-136v432q0 55 14.5 100t46 77t81 49.5t120.5 17.5t121.5 -17.5t82.5 -49.5t46.5 -77t14.5 -100v-432h-139v234h-252v-234zM460 332v107q0 63 -28 100t-98 37t-98 -37t-28 -100v-107h252zM397 916l107 -161h-107l-57 96l-59 -96h-107l107 161h116z" />
    <glyph glyph-name="Atilde" unicode="&#xc3;" horiz-adv-x="671" 
d="M208 0h-136v432q0 55 14.5 100t46 77t81 49.5t120.5 17.5t121.5 -17.5t82.5 -49.5t46.5 -77t14.5 -100v-432h-139v234h-252v-234zM460 332v107q0 63 -28 100t-98 37t-98 -37t-28 -100v-107h252zM174 802q9 37 34 63t69 26q19 0 35.5 -5t31 -11.5t26.5 -11.5t22 -5
q17 0 23.5 13t11.5 27l78 -28q-14 -43 -39 -68t-67 -25q-17 0 -32.5 5t-30 11.5t-26.5 11.5t-21 5q-18 0 -25.5 -12t-12.5 -26z" />
    <glyph glyph-name="Adieresis" unicode="&#xc4;" horiz-adv-x="671" 
d="M208 0h-136v432q0 55 14.5 100t46 77t81 49.5t120.5 17.5t121.5 -17.5t82.5 -49.5t46.5 -77t14.5 -100v-432h-139v234h-252v-234zM460 332v107q0 63 -28 100t-98 37t-98 -37t-28 -100v-107h252zM312 834q0 -26 -18 -41t-50 -15q-33 0 -51 15t-18 41q0 27 18 42t51 15
q32 0 50 -15t18 -42zM503 834q0 -26 -18 -41t-50 -15q-33 0 -50.5 15t-17.5 41q0 27 17.5 42t50.5 15q32 0 50 -15t18 -42z" />
    <glyph glyph-name="Amacron" unicode="&#x100;" horiz-adv-x="671" 
d="M208 0h-136v432q0 55 14.5 100t46 77t81 49.5t120.5 17.5t121.5 -17.5t82.5 -49.5t46.5 -77t14.5 -100v-432h-139v234h-252v-234zM460 332v107q0 63 -28 100t-98 37t-98 -37t-28 -100v-107h252zM480 874v-78h-282v78h282z" />
    <glyph glyph-name="Abreve" unicode="&#x102;" horiz-adv-x="671" 
d="M208 0h-136v432q0 55 14.5 100t46 77t81 49.5t120.5 17.5t121.5 -17.5t82.5 -49.5t46.5 -77t14.5 -100v-432h-139v234h-252v-234zM460 332v107q0 63 -28 100t-98 37t-98 -37t-28 -100v-107h252zM278 904q2 -60 62 -60q59 0 61 60h95q-1 -38 -13 -64t-32.5 -42.5t-49 -24
t-61.5 -7.5q-68 0 -111 31.5t-46 106.5h95z" />
    <glyph glyph-name="Aring" unicode="&#xc5;" horiz-adv-x="671" 
d="M208 0h-136v432q0 55 14.5 100t46 77t81 49.5t120.5 17.5t121.5 -17.5t82.5 -49.5t46.5 -77t14.5 -100v-432h-139v234h-252v-234zM460 332v107q0 63 -28 100t-98 37t-98 -37t-28 -100v-107h252zM452 834q0 -47 -31.5 -68t-85.5 -21q-53 0 -84.5 21t-31.5 68q0 48 31.5 69
t84.5 21q54 0 85.5 -21t31.5 -69zM375 834q0 35 -40 35q-39 0 -39 -35t39 -35q40 0 40 35z" />
    <glyph glyph-name="Aringacute" unicode="&#x1fa;" horiz-adv-x="671" 
d="M452 834q0 -47 -31.5 -68t-85.5 -21q-53 0 -84.5 21t-31.5 68q0 37 19 57.5t53 28.5l57 95h117l-83 -97q33 -8 51.5 -28.5t18.5 -55.5zM375 834q0 35 -40 35q-39 0 -39 -35t39 -35q40 0 40 35zM208 0h-136v432q0 55 14.5 100t46 77t81 49.5t120.5 17.5t121.5 -17.5
t82.5 -49.5t46.5 -77t14.5 -100v-432h-139v234h-252v-234zM460 332v107q0 63 -28 100t-98 37t-98 -37t-28 -100v-107h252z" />
    <glyph glyph-name="Aogonek" unicode="&#x104;" horiz-adv-x="671" 
d="M460 0v234h-252v-234h-136v432q0 55 14.5 100t46 77t81 49.5t120.5 17.5t121.5 -17.5t82.5 -49.5t46.5 -77t14.5 -100v-432q-19 -16 -36.5 -38t-17.5 -44q0 -14 9.5 -19.5t24.5 -5.5q11 0 23.5 2.5t25.5 7.5l13 -74q-40 -17 -88 -17q-45 0 -77 18.5t-32 63.5q0 37 19 64
t42 42h-45zM460 332v107q0 63 -28 100t-98 37t-98 -37t-28 -100v-107h252z" />
    <glyph glyph-name="AE" unicode="&#xc6;" horiz-adv-x="946" 
d="M877 665v-99h-278v-178h255v-99h-255v-118q0 -43 25.5 -58t63.5 -15h202v-98h-209q-109 0 -164.5 40.5t-55.5 137.5v106h-252v-284h-137v432q0 55 15.5 100t46.5 77t78 49.5t110 17.5q50 0 88 -12.5t58 -35.5v37h409zM460 383v50q0 67 -27.5 105t-98.5 38q-35 0 -59 -10
t-39 -28.5t-21.5 -45t-6.5 -59.5v-50h252z" />
    <glyph glyph-name="AEacute" unicode="&#x1fc;" horiz-adv-x="946" 
d="M877 665v-99h-278v-178h255v-99h-255v-118q0 -43 25.5 -58t63.5 -15h202v-98h-209q-109 0 -164.5 40.5t-55.5 137.5v106h-252v-284h-137v432q0 55 15.5 100t46.5 77t78 49.5t110 17.5q50 0 88 -12.5t58 -35.5v37h409zM460 383v50q0 67 -27.5 105t-98.5 38q-35 0 -59 -10
t-39 -28.5t-21.5 -45t-6.5 -59.5v-50h252zM697 916l-125 -161h-103l84 161h144z" />
    <glyph glyph-name="Cacute" unicode="&#x106;" horiz-adv-x="574" 
d="M515 556q-33 8 -76.5 14t-82.5 6q-41 0 -71 -12.5t-50.5 -41t-30.5 -74.5t-10 -113q0 -74 10.5 -121.5t31.5 -75t53.5 -38t76.5 -10.5q38 0 79.5 6.5t76.5 14.5l10 -99q-35 -11 -81 -17.5t-91 -6.5q-74 0 -132 17t-97.5 57.5t-60.5 107t-21 164.5q0 96 20.5 161.5
t60.5 105.5t98.5 57.5t133.5 17.5q45 0 90 -6t77 -13zM487 916l-125 -161h-103l84 161h144z" />
    <glyph glyph-name="Ccircumflex" unicode="&#x108;" horiz-adv-x="574" 
d="M515 556q-33 8 -76.5 14t-82.5 6q-41 0 -71 -12.5t-50.5 -41t-30.5 -74.5t-10 -113q0 -74 10.5 -121.5t31.5 -75t53.5 -38t76.5 -10.5q38 0 79.5 6.5t76.5 14.5l10 -99q-35 -11 -81 -17.5t-91 -6.5q-74 0 -132 17t-97.5 57.5t-60.5 107t-21 164.5q0 96 20.5 161.5
t60.5 105.5t98.5 57.5t133.5 17.5q45 0 90 -6t77 -13zM371 916l107 -161h-107l-57 96l-59 -96h-107l107 161h116z" />
    <glyph glyph-name="Ccaron" unicode="&#x10c;" horiz-adv-x="574" 
d="M515 556q-33 8 -76.5 14t-82.5 6q-41 0 -71 -12.5t-50.5 -41t-30.5 -74.5t-10 -113q0 -74 10.5 -121.5t31.5 -75t53.5 -38t76.5 -10.5q38 0 79.5 6.5t76.5 14.5l10 -99q-35 -11 -81 -17.5t-91 -6.5q-74 0 -132 17t-97.5 57.5t-60.5 107t-21 164.5q0 96 20.5 161.5
t60.5 105.5t98.5 57.5t133.5 17.5q45 0 90 -6t77 -13zM255 755l-107 161h107l59 -97l57 97h107l-107 -161h-116z" />
    <glyph glyph-name="Cdotaccent" unicode="&#x10a;" horiz-adv-x="574" 
d="M515 556q-33 8 -76.5 14t-82.5 6q-41 0 -71 -12.5t-50.5 -41t-30.5 -74.5t-10 -113q0 -74 10.5 -121.5t31.5 -75t53.5 -38t76.5 -10.5q38 0 79.5 6.5t76.5 14.5l10 -99q-35 -11 -81 -17.5t-91 -6.5q-74 0 -132 17t-97.5 57.5t-60.5 107t-21 164.5q0 96 20.5 161.5
t60.5 105.5t98.5 57.5t133.5 17.5q45 0 90 -6t77 -13zM384 834q0 -28 -18.5 -43t-52.5 -15q-71 0 -71 58q0 28 18 43.5t53 15.5q34 0 52.5 -15.5t18.5 -43.5z" />
    <glyph glyph-name="Ccedilla" unicode="&#xc7;" horiz-adv-x="574" 
d="M515 556q-33 8 -76.5 14t-82.5 6q-41 0 -71 -12.5t-50.5 -41t-30.5 -74.5t-10 -113q0 -74 10.5 -121.5t31.5 -75t53.5 -38t76.5 -10.5q38 0 79.5 6.5t76.5 14.5l10 -99q-35 -11 -81 -17.5t-91 -6.5q-74 0 -132 17t-97.5 57.5t-60.5 107t-21 164.5q0 96 20.5 161.5
t60.5 105.5t98.5 57.5t133.5 17.5q45 0 90 -6t77 -13zM376 -37q12 -15 21.5 -35.5t9.5 -40.5q0 -39 -23.5 -62t-82.5 -23q-23 0 -48.5 3.5t-44.5 11.5l15 73q11 -4 25.5 -6.5t24.5 -2.5q19 0 25 6.5t6 20.5q0 12 -6 26.5t-15 28.5h93z" />
    <glyph glyph-name="Dcaron" unicode="&#x10e;" horiz-adv-x="684" 
d="M332 665q72 0 128.5 -19t95.5 -58.5t59.5 -101t20.5 -145.5q0 -78 -15.5 -143t-53 -111.5t-101 -72.5t-159.5 -26q-99 0 -217 25v652h242zM228 94q40 -6 83 -6q101 0 141.5 62t40.5 189q0 63 -10.5 106t-31 70t-50.5 39t-69 12h-104v-472zM281 755l-107 161h107l59 -97
l57 97h107l-107 -161h-116z" />
    <glyph glyph-name="Dcroat" unicode="&#x110;" horiz-adv-x="701" 
d="M20 384h87v281h243q144 0 223.5 -78t79.5 -247q0 -78 -15 -143t-52.5 -111.5t-101 -72t-160.5 -25.5q-48 0 -102.5 6.5t-114.5 18.5v273h-87v98zM246 384h146v-98h-146v-192q40 -6 83 -6q101 0 141.5 62t40.5 189q0 63 -11 106t-31.5 70t-50.5 39t-68 12h-104v-182z" />
    <glyph glyph-name="Egrave" unicode="&#xc8;" horiz-adv-x="569" 
d="M501 665v-99h-279v-178h256v-99h-256v-118q0 -43 25 -58t64 -15h202v-98h-209q-52 0 -93 9t-69 29.5t-43 54t-15 81.5v491h417zM284 916l83 -161h-101l-126 161h144z" />
    <glyph glyph-name="Eacute" unicode="&#xc9;" horiz-adv-x="569" 
d="M501 665v-99h-279v-178h256v-99h-256v-118q0 -43 25 -58t64 -15h202v-98h-209q-52 0 -93 9t-69 29.5t-43 54t-15 81.5v491h417zM453 916l-125 -161h-103l84 161h144z" />
    <glyph glyph-name="Ecircumflex" unicode="&#xca;" horiz-adv-x="569" 
d="M501 665v-99h-279v-178h256v-99h-256v-118q0 -43 25 -58t64 -15h202v-98h-209q-52 0 -93 9t-69 29.5t-43 54t-15 81.5v491h417zM351 916l107 -161h-107l-57 96l-59 -96h-107l107 161h116z" />
    <glyph glyph-name="Ecaron" unicode="&#x11a;" horiz-adv-x="569" 
d="M501 665v-99h-279v-178h256v-99h-256v-118q0 -43 25 -58t64 -15h202v-98h-209q-52 0 -93 9t-69 29.5t-43 54t-15 81.5v491h417zM236 755l-107 161h107l59 -97l57 97h107l-107 -161h-116z" />
    <glyph glyph-name="Edieresis" unicode="&#xcb;" horiz-adv-x="569" 
d="M501 665v-99h-279v-178h256v-99h-256v-118q0 -43 25 -58t64 -15h202v-98h-209q-52 0 -93 9t-69 29.5t-43 54t-15 81.5v491h417zM267 834q0 -26 -18 -41t-50 -15q-33 0 -51 15t-18 41q0 27 18 42t51 15q32 0 50 -15t18 -42zM458 834q0 -26 -18 -41t-50 -15q-33 0 -50.5 15
t-17.5 41q0 27 17.5 42t50.5 15q32 0 50 -15t18 -42z" />
    <glyph glyph-name="Emacron" unicode="&#x112;" horiz-adv-x="569" 
d="M501 665v-99h-279v-178h256v-99h-256v-118q0 -43 25 -58t64 -15h202v-98h-209q-52 0 -93 9t-69 29.5t-43 54t-15 81.5v491h417zM436 874v-78h-282v78h282z" />
    <glyph glyph-name="Ebreve" unicode="&#x114;" horiz-adv-x="569" 
d="M501 665v-99h-279v-178h256v-99h-256v-118q0 -43 25 -58t64 -15h202v-98h-209q-52 0 -93 9t-69 29.5t-43 54t-15 81.5v491h417zM233 903q2 -60 62 -60q59 0 61 60h95q-1 -38 -13 -64t-32.5 -42.5t-49 -24t-61.5 -7.5q-68 0 -111 31.5t-46 106.5h95z" />
    <glyph glyph-name="Edotaccent" unicode="&#x116;" horiz-adv-x="569" 
d="M501 665v-99h-279v-178h256v-99h-256v-118q0 -43 25 -58t64 -15h202v-98h-209q-52 0 -93 9t-69 29.5t-43 54t-15 81.5v491h417zM366 834q0 -28 -18.5 -43t-52.5 -15q-71 0 -71 58q0 28 18 43.5t53 15.5q34 0 52.5 -15.5t18.5 -43.5z" />
    <glyph glyph-name="Eogonek" unicode="&#x118;" horiz-adv-x="569" 
d="M304 0q-59 0 -100.5 10.5t-68 33.5t-39 61t-12.5 94v466h417v-99h-279v-178h256v-99h-256v-118q0 -43 25 -58t64 -15h202v-98h-29q-19 -16 -36.5 -38t-17.5 -44q0 -14 9.5 -19.5t24.5 -5.5q11 0 23.5 2.5t25.5 7.5l13 -74q-40 -17 -88 -17q-45 0 -77 18.5t-32 63.5
q0 37 19 64t42 42h-86z" />
    <glyph glyph-name="Gcircumflex" unicode="&#x11c;" horiz-adv-x="691" 
d="M597 554q-37 8 -91 15t-114 7q-51 0 -88.5 -13t-62 -42t-36 -74.5t-11.5 -111.5q0 -74 11.5 -122t33.5 -75.5t53.5 -38.5t72.5 -11q29 0 62 3t56 7v177h-130v102h268v-353q-23 -6 -52 -12.5t-62 -12t-67.5 -8.5t-68.5 -3q-75 0 -134.5 16t-101.5 55.5t-64 106.5t-22 169
q0 95 23.5 160t67.5 105.5t107 58t141 17.5q28 0 59.5 -2t61 -5t55.5 -6.5t43 -7.5zM402 916l107 -161h-107l-57 96l-59 -96h-107l107 161h116z" />
    <glyph glyph-name="Gbreve" unicode="&#x11e;" horiz-adv-x="691" 
d="M597 554q-37 8 -91 15t-114 7q-51 0 -88.5 -13t-62 -42t-36 -74.5t-11.5 -111.5q0 -74 11.5 -122t33.5 -75.5t53.5 -38.5t72.5 -11q29 0 62 3t56 7v177h-130v102h268v-353q-23 -6 -52 -12.5t-62 -12t-67.5 -8.5t-68.5 -3q-75 0 -134.5 16t-101.5 55.5t-64 106.5t-22 169
q0 95 23.5 160t67.5 105.5t107 58t141 17.5q28 0 59.5 -2t61 -5t55.5 -6.5t43 -7.5zM284 903q2 -60 62 -60q59 0 61 60h95q-1 -38 -13 -64t-32.5 -42.5t-49 -24t-61.5 -7.5q-68 0 -111 31.5t-46 106.5h95z" />
    <glyph glyph-name="Gdotaccent" unicode="&#x120;" horiz-adv-x="691" 
d="M597 554q-37 8 -91 15t-114 7q-51 0 -88.5 -13t-62 -42t-36 -74.5t-11.5 -111.5q0 -74 11.5 -122t33.5 -75.5t53.5 -38.5t72.5 -11q29 0 62 3t56 7v177h-130v102h268v-353q-23 -6 -52 -12.5t-62 -12t-67.5 -8.5t-68.5 -3q-75 0 -134.5 16t-101.5 55.5t-64 106.5t-22 169
q0 95 23.5 160t67.5 105.5t107 58t141 17.5q28 0 59.5 -2t61 -5t55.5 -6.5t43 -7.5zM416 835q0 -28 -18.5 -43t-52.5 -15q-71 0 -71 58q0 28 18 43.5t53 15.5q34 0 52.5 -15.5t18.5 -43.5z" />
    <glyph glyph-name="Gcommaaccent" unicode="&#x122;" horiz-adv-x="691" 
d="M597 554q-37 8 -91 15t-114 7q-51 0 -88.5 -13t-62 -42t-36 -74.5t-11.5 -111.5q0 -74 11.5 -122t33.5 -75.5t53.5 -38.5t72.5 -11q29 0 62 3t56 7v177h-130v102h268v-353q-23 -6 -52 -12.5t-62 -12t-67.5 -8.5t-68.5 -3q-75 0 -134.5 16t-101.5 55.5t-64 106.5t-22 169
q0 95 23.5 160t67.5 105.5t107 58t141 17.5q28 0 59.5 -2t61 -5t55.5 -6.5t43 -7.5zM458 -46l-109 -142h-102l68 142h143z" />
    <glyph glyph-name="Hcircumflex" unicode="&#x124;" horiz-adv-x="748" 
d="M231 665v-272h285v272h139v-665h-139v289h-285v-289h-138v665h138zM431 916l107 -161h-107l-57 96l-59 -96h-107l107 161h116z" />
    <glyph glyph-name="Hbar" unicode="&#x126;" horiz-adv-x="769" 
d="M246 665v-94h285v94h138v-94h88v-76h-88v-495h-138v289h-285v-289h-139v495h-87v76h87v94h139zM531 393v102h-285v-102h285z" />
    <glyph glyph-name="Igrave" unicode="&#xcc;" horiz-adv-x="324" 
d="M231 665v-665h-138v665h138zM125 916l83 -161h-101l-126 161h144z" />
    <glyph glyph-name="Iacute" unicode="&#xcd;" horiz-adv-x="324" 
d="M231 665v-665h-138v665h138zM338 916l-125 -161h-103l84 161h144z" />
    <glyph glyph-name="Icircumflex" unicode="&#xce;" horiz-adv-x="324" 
d="M231 665v-665h-138v665h138zM220 916l107 -161h-107l-57 96l-59 -96h-107l107 161h116z" />
    <glyph glyph-name="Itilde" unicode="&#x128;" horiz-adv-x="324" 
d="M231 665v-665h-138v665h138zM-3 801q9 37 34 63t69 26q19 0 35.5 -5t31 -11.5t26.5 -11.5t22 -5q17 0 23.5 13t11.5 27l78 -28q-14 -43 -39 -68t-67 -25q-17 0 -32.5 5t-30 11.5t-26.5 11.5t-21 5q-18 0 -25.5 -12t-12.5 -26z" />
    <glyph glyph-name="Idieresis" unicode="&#xcf;" horiz-adv-x="324" 
d="M231 665v-665h-138v665h138zM136 834q0 -26 -18 -41t-50 -15q-33 0 -51 15t-18 41q0 27 18 42t51 15q32 0 50 -15t18 -42zM327 834q0 -26 -18 -41t-50 -15q-33 0 -50.5 15t-17.5 41q0 27 17.5 42t50.5 15q32 0 50 -15t18 -42z" />
    <glyph glyph-name="Imacron" unicode="&#x12a;" horiz-adv-x="324" 
d="M231 665v-665h-138v665h138zM304 874v-78h-282v78h282z" />
    <glyph glyph-name="Ibreve" unicode="&#x12c;" horiz-adv-x="324" 
d="M231 665v-665h-138v665h138zM101 904q2 -60 62 -60q59 0 61 60h95q-1 -38 -13 -64t-32.5 -42.5t-49 -24t-61.5 -7.5q-68 0 -111 31.5t-46 106.5h95z" />
    <glyph glyph-name="Idotaccent" unicode="&#x130;" horiz-adv-x="324" 
d="M231 665v-665h-138v665h138zM234 835q0 -28 -18.5 -43t-52.5 -15q-71 0 -71 58q0 28 18 43.5t53 15.5q34 0 52.5 -15.5t18.5 -43.5z" />
    <glyph glyph-name="Iogonek" unicode="&#x12e;" horiz-adv-x="324" 
d="M93 0v665h138v-665q-18 -16 -35.5 -38t-17.5 -44q0 -14 9 -19.5t25 -5.5q10 0 23 2.5t25 7.5l14 -74q-40 -17 -88 -17q-45 0 -77.5 18.5t-32.5 63.5q0 37 19.5 64t42.5 42h-45z" />
    <glyph glyph-name="Jcircumflex" unicode="&#x134;" horiz-adv-x="317" 
d="M231 665v-574q0 -54 -17 -96t-45.5 -76.5t-65.5 -63t-77 -55.5l-53 74q31 27 53.5 49.5t37.5 46.5t22 52t7 65v578h138zM217 916l107 -161h-107l-57 96l-59 -96h-107l107 161h116z" />
    <glyph glyph-name="Kcommaaccent" unicode="&#x136;" horiz-adv-x="653" 
d="M231 665v-345l281 345h139l-254 -309q37 -11 64.5 -29.5t49.5 -43.5t39.5 -57t34.5 -69l68 -157h-150l-50 116q-14 31 -26 56.5t-27 44.5t-34.5 32t-47.5 19l-87 -105v-163h-138v665h138zM450 -46l-109 -142h-102l68 142h143z" />
    <glyph glyph-name="Lacute" unicode="&#x139;" horiz-adv-x="520" 
d="M231 665v-567h268v-98h-406v665h138zM336 916l-125 -161h-103l84 161h144z" />
    <glyph glyph-name="Lcaron" unicode="&#x13d;" horiz-adv-x="520" 
d="M231 665v-567h268v-98h-406v665h138zM103 755l-107 161h107l59 -97l57 97h107l-107 -161h-116z" />
    <glyph glyph-name="Lcommaaccent" unicode="&#x13b;" horiz-adv-x="520" 
d="M231 665v-567h268v-98h-406v665h138zM388 -46l-109 -142h-102l68 142h143z" />
    <glyph glyph-name="Lslash" unicode="&#x141;" horiz-adv-x="534" 
d="M246 665v-264l177 69v-100l-177 -70v-202h267v-98h-406v246l-87 -34v100l87 35v318h139z" />
    <glyph glyph-name="Nacute" unicode="&#x143;" horiz-adv-x="756" 
d="M206 665l322 -359v359h135v-665h-135v141l-301 330v-471h-134v665h113zM540 916l-125 -161h-103l84 161h144z" />
    <glyph glyph-name="Ncaron" unicode="&#x147;" horiz-adv-x="756" 
d="M206 665l322 -359v359h135v-665h-135v141l-301 330v-471h-134v665h113zM319 755l-107 161h107l59 -97l57 97h107l-107 -161h-116z" />
    <glyph glyph-name="Ntilde" unicode="&#xd1;" horiz-adv-x="756" 
d="M206 665l322 -359v359h135v-665h-135v141l-301 330v-471h-134v665h113zM212 801q9 37 34 63t69 26q19 0 35.5 -5t31 -11.5t26.5 -11.5t22 -5q17 0 23.5 13t11.5 27l78 -28q-14 -43 -39 -68t-67 -25q-17 0 -32.5 5t-30 11.5t-26.5 11.5t-21 5q-18 0 -25.5 -12t-12.5 -26z
" />
    <glyph glyph-name="Ncommaaccent" unicode="&#x145;" horiz-adv-x="756" 
d="M206 665l322 -359v359h135v-665h-135v141l-301 330v-471h-134v665h113zM471 -46l-109 -142h-102l68 142h143z" />
    <glyph glyph-name="Ograve" unicode="&#xd2;" horiz-adv-x="689" 
d="M640 331q0 -181 -74.5 -262t-220.5 -81q-147 0 -221.5 81t-74.5 262q0 182 74.5 263.5t221.5 81.5q146 0 220.5 -81.5t74.5 -263.5zM495 332q0 69 -9.5 115.5t-28 75t-47 41t-65.5 12.5q-38 0 -66.5 -12.5t-47 -41t-28 -75t-9.5 -115.5t9.5 -116t28 -75.5t47 -40.5
t66.5 -12q37 0 65.5 12t47 40.5t28 75.5t9.5 116zM311 916l83 -161h-101l-126 161h144z" />
    <glyph glyph-name="Oacute" unicode="&#xd3;" horiz-adv-x="689" 
d="M640 331q0 -181 -74.5 -262t-220.5 -81q-147 0 -221.5 81t-74.5 262q0 182 74.5 263.5t221.5 81.5q146 0 220.5 -81.5t74.5 -263.5zM495 332q0 69 -9.5 115.5t-28 75t-47 41t-65.5 12.5q-38 0 -66.5 -12.5t-47 -41t-28 -75t-9.5 -115.5t9.5 -116t28 -75.5t47 -40.5
t66.5 -12q37 0 65.5 12t47 40.5t28 75.5t9.5 116zM514 916l-125 -161h-103l84 161h144z" />
    <glyph glyph-name="Ocircumflex" unicode="&#xd4;" horiz-adv-x="689" 
d="M640 331q0 -181 -74.5 -262t-220.5 -81q-147 0 -221.5 81t-74.5 262q0 182 74.5 263.5t221.5 81.5q146 0 220.5 -81.5t74.5 -263.5zM495 332q0 69 -9.5 115.5t-28 75t-47 41t-65.5 12.5q-38 0 -66.5 -12.5t-47 -41t-28 -75t-9.5 -115.5t9.5 -116t28 -75.5t47 -40.5
t66.5 -12q37 0 65.5 12t47 40.5t28 75.5t9.5 116zM402 916l107 -161h-107l-57 96l-59 -96h-107l107 161h116z" />
    <glyph glyph-name="Otilde" unicode="&#xd5;" horiz-adv-x="689" 
d="M640 331q0 -181 -74.5 -262t-220.5 -81q-147 0 -221.5 81t-74.5 262q0 182 74.5 263.5t221.5 81.5q146 0 220.5 -81.5t74.5 -263.5zM495 332q0 69 -9.5 115.5t-28 75t-47 41t-65.5 12.5q-38 0 -66.5 -12.5t-47 -41t-28 -75t-9.5 -115.5t9.5 -116t28 -75.5t47 -40.5
t66.5 -12q37 0 65.5 12t47 40.5t28 75.5t9.5 116zM180 801q9 37 34 63t69 26q19 0 35.5 -5t31 -11.5t26.5 -11.5t22 -5q17 0 23.5 13t11.5 27l78 -28q-14 -43 -39 -68t-67 -25q-17 0 -32.5 5t-30 11.5t-26.5 11.5t-21 5q-18 0 -25.5 -12t-12.5 -26z" />
    <glyph glyph-name="Odieresis" unicode="&#xd6;" horiz-adv-x="689" 
d="M640 331q0 -181 -74.5 -262t-220.5 -81q-147 0 -221.5 81t-74.5 262q0 182 74.5 263.5t221.5 81.5q146 0 220.5 -81.5t74.5 -263.5zM495 332q0 69 -9.5 115.5t-28 75t-47 41t-65.5 12.5q-38 0 -66.5 -12.5t-47 -41t-28 -75t-9.5 -115.5t9.5 -116t28 -75.5t47 -40.5
t66.5 -12q37 0 65.5 12t47 40.5t28 75.5t9.5 116zM318 834q0 -26 -18 -41t-50 -15q-33 0 -51 15t-18 41q0 27 18 42t51 15q32 0 50 -15t18 -42zM509 834q0 -26 -18 -41t-50 -15q-33 0 -50.5 15t-17.5 41q0 27 17.5 42t50.5 15q32 0 50 -15t18 -42z" />
    <glyph glyph-name="Omacron" unicode="&#x14c;" horiz-adv-x="689" 
d="M640 331q0 -181 -74.5 -262t-220.5 -81q-147 0 -221.5 81t-74.5 262q0 182 74.5 263.5t221.5 81.5q146 0 220.5 -81.5t74.5 -263.5zM495 332q0 69 -9.5 115.5t-28 75t-47 41t-65.5 12.5q-38 0 -66.5 -12.5t-47 -41t-28 -75t-9.5 -115.5t9.5 -116t28 -75.5t47 -40.5
t66.5 -12q37 0 65.5 12t47 40.5t28 75.5t9.5 116zM485 874v-78h-282v78h282z" />
    <glyph glyph-name="Obreve" unicode="&#x14e;" horiz-adv-x="689" 
d="M640 331q0 -181 -74.5 -262t-220.5 -81q-147 0 -221.5 81t-74.5 262q0 182 74.5 263.5t221.5 81.5q146 0 220.5 -81.5t74.5 -263.5zM495 332q0 69 -9.5 115.5t-28 75t-47 41t-65.5 12.5q-38 0 -66.5 -12.5t-47 -41t-28 -75t-9.5 -115.5t9.5 -116t28 -75.5t47 -40.5
t66.5 -12q37 0 65.5 12t47 40.5t28 75.5t9.5 116zM283 903q2 -60 62 -60q59 0 61 60h95q-1 -38 -13 -64t-32.5 -42.5t-49 -24t-61.5 -7.5q-68 0 -111 31.5t-46 106.5h95z" />
    <glyph glyph-name="Ohungarumlaut" unicode="&#x150;" horiz-adv-x="689" 
d="M640 331q0 -181 -74.5 -262t-220.5 -81q-147 0 -221.5 81t-74.5 262q0 182 74.5 263.5t221.5 81.5q146 0 220.5 -81.5t74.5 -263.5zM495 332q0 69 -9.5 115.5t-28 75t-47 41t-65.5 12.5q-38 0 -66.5 -12.5t-47 -41t-28 -75t-9.5 -115.5t9.5 -116t28 -75.5t47 -40.5
t66.5 -12q37 0 65.5 12t47 40.5t28 75.5t9.5 116zM550 916l-88 -161h-87l50 161h125zM371 916l-53 -161h-91l30 161h114z" />
    <glyph glyph-name="Oslash" unicode="&#xd8;" horiz-adv-x="689" 
d="M640 331q0 -181 -74.5 -262t-220.5 -81q-98 0 -163 35l-58 -88l-60 39l61 93q-76 82 -76 264t74.5 263.5t221.5 81.5q94 0 159 -35l59 90l59 -39l-61 -93q79 -82 79 -268zM495 332q0 88 -18 139l-230 -349q18 -18 42.5 -26t55.5 -8q37 0 65.5 12t47 40.5t28 75.5t9.5 116
zM194 332q0 -44 4.5 -77t12.5 -59l228 348q-33 32 -94 32q-38 0 -66.5 -12.5t-47 -41t-28 -75t-9.5 -115.5z" />
    <glyph glyph-name="Oslashacute" unicode="&#x1fe;" horiz-adv-x="689" 
d="M513 916l-125 -161h-103l84 161h144zM640 331q0 -181 -74.5 -262t-220.5 -81q-98 0 -163 35l-58 -88l-60 39l61 93q-76 82 -76 264t74.5 263.5t221.5 81.5q94 0 159 -35l59 90l59 -39l-61 -93q79 -82 79 -268zM495 332q0 88 -18 139l-230 -349q18 -18 42.5 -26t55.5 -8
q37 0 65.5 12t47 40.5t28 75.5t9.5 116zM194 332q0 -44 4.5 -77t12.5 -59l228 348q-33 32 -94 32q-38 0 -66.5 -12.5t-47 -41t-28 -75t-9.5 -115.5z" />
    <glyph glyph-name="OE" unicode="&#x152;" horiz-adv-x="982" 
d="M913 665v-99h-278v-178h255v-99h-255v-118q0 -43 25.5 -58t62.5 -15h203v-98h-191q-73 0 -121 12t-72 52q-60 -76 -199 -76q-146 0 -220 81t-74 262t74.5 263t220.5 82q109 0 167 -52v41h402zM495 332q0 69 -9.5 115.5t-28 75t-47 41t-65.5 12.5q-38 0 -66.5 -12.5
t-47.5 -41t-28.5 -75t-9.5 -115.5t9.5 -116t28.5 -75.5t47.5 -40.5t66.5 -12q37 0 65.5 12t47 40.5t28 75.5t9.5 116z" />
    <glyph glyph-name="Racute" unicode="&#x154;" horiz-adv-x="639" 
d="M315 665q65 0 114.5 -10.5t82.5 -35t49.5 -65t16.5 -100.5q0 -39 -10 -67t-26.5 -48t-38 -33t-45.5 -21q37 -14 60 -41.5t39 -77.5l53 -166h-144l-45 136q-8 24 -17 43.5t-22 32.5t-31.5 20t-45.5 7q-18 0 -37 1.5t-37 3.5v-244h-138v665h222zM231 344q22 -4 42.5 -5
t38.5 -1q69 0 98.5 27t29.5 89q0 34 -7.5 56t-23 34.5t-39 17t-55.5 4.5h-84v-222zM491 916l-125 -161h-103l84 161h144z" />
    <glyph glyph-name="Rcaron" unicode="&#x158;" horiz-adv-x="639" 
d="M315 665q65 0 114.5 -10.5t82.5 -35t49.5 -65t16.5 -100.5q0 -39 -10 -67t-26.5 -48t-38 -33t-45.5 -21q37 -14 60 -41.5t39 -77.5l53 -166h-144l-45 136q-8 24 -17 43.5t-22 32.5t-31.5 20t-45.5 7q-18 0 -37 1.5t-37 3.5v-244h-138v665h222zM231 344q22 -4 42.5 -5
t38.5 -1q69 0 98.5 27t29.5 89q0 34 -7.5 56t-23 34.5t-39 17t-55.5 4.5h-84v-222zM263 755l-107 161h107l59 -97l57 97h107l-107 -161h-116z" />
    <glyph glyph-name="Rcommaaccent" unicode="&#x156;" horiz-adv-x="639" 
d="M315 665q65 0 114.5 -10.5t82.5 -35t49.5 -65t16.5 -100.5q0 -39 -10 -67t-26.5 -48t-38 -33t-45.5 -21q37 -14 60 -41.5t39 -77.5l53 -166h-144l-45 136q-8 24 -17 43.5t-22 32.5t-31.5 20t-45.5 7q-18 0 -37 1.5t-37 3.5v-244h-138v665h222zM231 344q22 -4 42.5 -5
t38.5 -1q69 0 98.5 27t29.5 89q0 34 -7.5 56t-23 34.5t-39 17t-55.5 4.5h-84v-222zM434 -46l-109 -142h-102l68 142h143z" />
    <glyph glyph-name="Sacute" unicode="&#x15a;" horiz-adv-x="559" 
d="M484 559q-16 3 -36.5 6t-42.5 5.5t-43 4t-39 1.5q-57 0 -89.5 -12.5t-32.5 -52.5q0 -24 23 -45.5t57.5 -43.5t74.5 -46.5t74.5 -55.5t57.5 -69.5t23 -88.5q0 -93 -65.5 -133.5t-179.5 -40.5q-64 0 -116.5 10.5t-90.5 21.5l14 99q38 -11 85 -21t104 -10q46 0 76.5 13
t30.5 52q0 27 -23 51.5t-57.5 48.5t-75 49t-75 54.5t-57.5 65.5t-23 81q0 51 20 84.5t55.5 53t84 27.5t106.5 8q22 0 46 -1.5t46.5 -4t42.5 -5.5t35 -6zM444 916l-125 -161h-103l84 161h144z" />
    <glyph glyph-name="Scircumflex" unicode="&#x15c;" horiz-adv-x="559" 
d="M484 559q-16 3 -36.5 6t-42.5 5.5t-43 4t-39 1.5q-57 0 -89.5 -12.5t-32.5 -52.5q0 -24 23 -45.5t57.5 -43.5t74.5 -46.5t74.5 -55.5t57.5 -69.5t23 -88.5q0 -93 -65.5 -133.5t-179.5 -40.5q-64 0 -116.5 10.5t-90.5 21.5l14 99q38 -11 85 -21t104 -10q46 0 76.5 13
t30.5 52q0 27 -23 51.5t-57.5 48.5t-75 49t-75 54.5t-57.5 65.5t-23 81q0 51 20 84.5t55.5 53t84 27.5t106.5 8q22 0 46 -1.5t46.5 -4t42.5 -5.5t35 -6zM335 916l107 -161h-107l-57 96l-59 -96h-107l107 161h116z" />
    <glyph glyph-name="Scaron" unicode="&#x160;" horiz-adv-x="559" 
d="M484 559q-16 3 -36.5 6t-42.5 5.5t-43 4t-39 1.5q-57 0 -89.5 -12.5t-32.5 -52.5q0 -24 23 -45.5t57.5 -43.5t74.5 -46.5t74.5 -55.5t57.5 -69.5t23 -88.5q0 -93 -65.5 -133.5t-179.5 -40.5q-64 0 -116.5 10.5t-90.5 21.5l14 99q38 -11 85 -21t104 -10q46 0 76.5 13
t30.5 52q0 27 -23 51.5t-57.5 48.5t-75 49t-75 54.5t-57.5 65.5t-23 81q0 51 20 84.5t55.5 53t84 27.5t106.5 8q22 0 46 -1.5t46.5 -4t42.5 -5.5t35 -6zM219 755l-107 161h107l59 -97l57 97h107l-107 -161h-116z" />
    <glyph glyph-name="Scedilla" unicode="&#x15e;" horiz-adv-x="559" 
d="M484 559q-16 3 -36.5 6t-42.5 5.5t-43 4t-39 1.5q-57 0 -89.5 -12.5t-32.5 -52.5q0 -24 23 -45.5t57.5 -43.5t74.5 -46.5t74.5 -55.5t57.5 -69.5t23 -88.5q0 -93 -65.5 -133.5t-179.5 -40.5q-64 0 -116.5 10.5t-90.5 21.5l14 99q38 -11 85 -21t104 -10q46 0 76.5 13
t30.5 52q0 27 -23 51.5t-57.5 48.5t-75 49t-75 54.5t-57.5 65.5t-23 81q0 51 20 84.5t55.5 53t84 27.5t106.5 8q22 0 46 -1.5t46.5 -4t42.5 -5.5t35 -6zM332 -37q12 -15 21.5 -35.5t9.5 -40.5q0 -39 -23.5 -62t-82.5 -23q-23 0 -48.5 3.5t-44.5 11.5l15 73q11 -4 25.5 -6.5
t24.5 -2.5q19 0 25 6.5t6 20.5q0 12 -6 26.5t-15 28.5h93z" />
    <glyph glyph-name="Scommaaccent" unicode="&#x218;" horiz-adv-x="559" 
d="M484 559q-16 3 -36.5 6t-42.5 5.5t-43 4t-39 1.5q-57 0 -89.5 -12.5t-32.5 -52.5q0 -24 23 -45.5t57.5 -43.5t74.5 -46.5t74.5 -55.5t57.5 -69.5t23 -88.5q0 -93 -65.5 -133.5t-179.5 -40.5q-64 0 -116.5 10.5t-90.5 21.5l14 99q38 -11 85 -21t104 -10q46 0 76.5 13
t30.5 52q0 27 -23 51.5t-57.5 48.5t-75 49t-75 54.5t-57.5 65.5t-23 81q0 51 20 84.5t55.5 53t84 27.5t106.5 8q22 0 46 -1.5t46.5 -4t42.5 -5.5t35 -6zM368 -46l-109 -142h-102l68 142h143z" />
    <glyph glyph-name="Tcaron" unicode="&#x164;" horiz-adv-x="583" 
d="M568 665v-99h-207v-566h-139v566h-207v99h553zM232 755l-107 161h107l59 -97l57 97h107l-107 -161h-116z" />
    <glyph glyph-name="Tcommaaccent" unicode="&#x162;" horiz-adv-x="583" 
d="M568 665v-99h-207v-566h-139v566h-207v99h553zM363 -46l-109 -142h-102l68 142h143z" />
    <glyph glyph-name="Tbar" unicode="&#x166;" horiz-adv-x="583" 
d="M62 362h160v204h-207v99h553v-99h-207v-204h160v-98h-160v-264h-139v264h-160v98z" />
    <glyph glyph-name="Ugrave" unicode="&#xd9;" horiz-adv-x="706" 
d="M218 665v-449q0 -63 33.5 -95.5t103.5 -32.5q38 0 71 4.5t54 10.5v562h138v-636q-45 -13 -111.5 -27t-154.5 -14q-75 0 -127 16t-84.5 46.5t-47 74.5t-14.5 99v441h139zM314 916l83 -161h-101l-126 161h144z" />
    <glyph glyph-name="Uacute" unicode="&#xda;" horiz-adv-x="706" 
d="M218 665v-449q0 -63 33.5 -95.5t103.5 -32.5q38 0 71 4.5t54 10.5v562h138v-636q-45 -13 -111.5 -27t-154.5 -14q-75 0 -127 16t-84.5 46.5t-47 74.5t-14.5 99v441h139zM525 916l-125 -161h-103l84 161h144z" />
    <glyph glyph-name="Ucircumflex" unicode="&#xdb;" horiz-adv-x="706" 
d="M218 665v-449q0 -63 33.5 -95.5t103.5 -32.5q38 0 71 4.5t54 10.5v562h138v-636q-45 -13 -111.5 -27t-154.5 -14q-75 0 -127 16t-84.5 46.5t-47 74.5t-14.5 99v441h139zM410 916l107 -161h-107l-57 96l-59 -96h-107l107 161h116z" />
    <glyph glyph-name="Utilde" unicode="&#x168;" horiz-adv-x="706" 
d="M218 665v-449q0 -63 33.5 -95.5t103.5 -32.5q38 0 71 4.5t54 10.5v562h138v-636q-45 -13 -111.5 -27t-154.5 -14q-75 0 -127 16t-84.5 46.5t-47 74.5t-14.5 99v441h139zM187 801q9 37 34 63t69 26q19 0 35.5 -5t31 -11.5t26.5 -11.5t22 -5q17 0 23.5 13t11.5 27l78 -28
q-14 -43 -39 -68t-67 -25q-17 0 -32.5 5t-30 11.5t-26.5 11.5t-21 5q-18 0 -25.5 -12t-12.5 -26z" />
    <glyph glyph-name="Udieresis" unicode="&#xdc;" horiz-adv-x="706" 
d="M218 665v-449q0 -63 33.5 -95.5t103.5 -32.5q38 0 71 4.5t54 10.5v562h138v-636q-45 -13 -111.5 -27t-154.5 -14q-75 0 -127 16t-84.5 46.5t-47 74.5t-14.5 99v441h139zM326 834q0 -26 -18 -41t-50 -15q-33 0 -51 15t-18 41q0 27 18 42t51 15q32 0 50 -15t18 -42z
M517 834q0 -26 -18 -41t-50 -15q-33 0 -50.5 15t-17.5 41q0 27 17.5 42t50.5 15q32 0 50 -15t18 -42z" />
    <glyph glyph-name="Umacron" unicode="&#x16a;" horiz-adv-x="706" 
d="M218 665v-449q0 -63 33.5 -95.5t103.5 -32.5q38 0 71 4.5t54 10.5v562h138v-636q-45 -13 -111.5 -27t-154.5 -14q-75 0 -127 16t-84.5 46.5t-47 74.5t-14.5 99v441h139zM493 874v-78h-282v78h282z" />
    <glyph glyph-name="Ubreve" unicode="&#x16c;" horiz-adv-x="706" 
d="M218 665v-449q0 -63 33.5 -95.5t103.5 -32.5q38 0 71 4.5t54 10.5v562h138v-636q-45 -13 -111.5 -27t-154.5 -14q-75 0 -127 16t-84.5 46.5t-47 74.5t-14.5 99v441h139zM290 903q2 -60 62 -60q59 0 61 60h95q-1 -38 -13 -64t-32.5 -42.5t-49 -24t-61.5 -7.5
q-68 0 -111 31.5t-46 106.5h95z" />
    <glyph glyph-name="Uring" unicode="&#x16e;" horiz-adv-x="706" 
d="M218 665v-449q0 -63 33.5 -95.5t103.5 -32.5q38 0 71 4.5t54 10.5v562h138v-636q-45 -13 -111.5 -27t-154.5 -14q-75 0 -127 16t-84.5 46.5t-47 74.5t-14.5 99v441h139zM469 834q0 -47 -31.5 -68t-85.5 -21q-53 0 -84.5 21t-31.5 68q0 48 31.5 69t84.5 21q54 0 85.5 -21
t31.5 -69zM392 834q0 35 -40 35q-39 0 -39 -35t39 -35q40 0 40 35z" />
    <glyph glyph-name="Uhungarumlaut" unicode="&#x170;" horiz-adv-x="706" 
d="M218 665v-449q0 -63 33.5 -95.5t103.5 -32.5q38 0 71 4.5t54 10.5v562h138v-636q-45 -13 -111.5 -27t-154.5 -14q-75 0 -127 16t-84.5 46.5t-47 74.5t-14.5 99v441h139zM544 916l-88 -161h-87l50 161h125zM365 916l-53 -161h-91l30 161h114z" />
    <glyph glyph-name="Uogonek" unicode="&#x172;" horiz-adv-x="706" 
d="M218 665v-449q0 -128 137 -128q38 0 71 5t54 10v562h138v-637q-18 -16 -35.5 -39.5t-17.5 -44.5q0 -26 34 -26q10 0 23 2.5t25 7.5l14 -74q-40 -17 -88 -17q-21 0 -41 4.5t-35.5 14.5t-24.5 25.5t-9 38.5q0 24 8.5 44.5t21.5 35.5q-32 -5 -66.5 -8.5t-74.5 -3.5
q-75 0 -127 16t-84.5 46.5t-47 74.5t-14.5 99v441h139z" />
    <glyph glyph-name="Wgrave" unicode="&#x1e80;" horiz-adv-x="925" 
d="M447 916l83 -161h-101l-126 161h144zM188 0l-181 665h142l122 -510l132 387h120l132 -392q45 100 78.5 226t54.5 289h130q-28 -193 -77.5 -355.5t-121.5 -309.5h-127l-130 391l-139 -391h-135z" />
    <glyph glyph-name="Wacute" unicode="&#x1e82;" horiz-adv-x="925" 
d="M640 916l-125 -161h-103l84 161h144zM188 0l-181 665h142l122 -510l132 387h120l132 -392q45 100 78.5 226t54.5 289h130q-28 -193 -77.5 -355.5t-121.5 -309.5h-127l-130 391l-139 -391h-135z" />
    <glyph glyph-name="Wcircumflex" unicode="&#x174;" horiz-adv-x="925" 
d="M517 916l107 -161h-107l-57 96l-59 -96h-107l107 161h116zM188 0l-181 665h142l122 -510l132 387h120l132 -392q45 100 78.5 226t54.5 289h130q-28 -193 -77.5 -355.5t-121.5 -309.5h-127l-130 391l-139 -391h-135z" />
    <glyph glyph-name="Wdieresis" unicode="&#x1e84;" horiz-adv-x="925" 
d="M442 834q0 -26 -18 -41t-50 -15q-33 0 -51 15t-18 41q0 27 18 42t51 15q32 0 50 -15t18 -42zM633 834q0 -26 -18 -41t-50 -15q-33 0 -50.5 15t-17.5 41q0 27 17.5 42t50.5 15q32 0 50 -15t18 -42zM188 0l-181 665h142l122 -510l132 387h120l132 -392q45 100 78.5 226
t54.5 289h130q-28 -193 -77.5 -355.5t-121.5 -309.5h-127l-130 391l-139 -391h-135z" />
    <glyph glyph-name="Ygrave" unicode="&#x1ef2;" horiz-adv-x="636" 
d="M315 916l83 -161h-101l-126 161h144zM255 229l-263 436h156l190 -319q27 26 53 63t48.5 79.5t38.5 88t24 88.5h139q-13 -60 -36.5 -122t-55.5 -119t-71.5 -106t-82.5 -85v-233h-140v229z" />
    <glyph glyph-name="Yacute" unicode="&#xdd;" horiz-adv-x="636" 
d="M494 916l-125 -161h-103l84 161h144zM255 229l-263 436h156l190 -319q27 26 53 63t48.5 79.5t38.5 88t24 88.5h139q-13 -60 -36.5 -122t-55.5 -119t-71.5 -106t-82.5 -85v-233h-140v229z" />
    <glyph glyph-name="Ycircumflex" unicode="&#x176;" horiz-adv-x="636" 
d="M391 916l107 -161h-107l-57 96l-59 -96h-107l107 161h116zM255 229l-263 436h156l190 -319q27 26 53 63t48.5 79.5t38.5 88t24 88.5h139q-13 -60 -36.5 -122t-55.5 -119t-71.5 -106t-82.5 -85v-233h-140v229z" />
    <glyph glyph-name="Ydieresis" unicode="&#x178;" horiz-adv-x="636" 
d="M310 834q0 -26 -18 -41t-50 -15q-33 0 -51 15t-18 41q0 27 18 42t51 15q32 0 50 -15t18 -42zM501 834q0 -26 -18 -41t-50 -15q-33 0 -50.5 15t-17.5 41q0 27 17.5 42t50.5 15q32 0 50 -15t18 -42zM255 229l-263 436h156l190 -319q27 26 53 63t48.5 79.5t38.5 88t24 88.5
h139q-13 -60 -36.5 -122t-55.5 -119t-71.5 -106t-82.5 -85v-233h-140v229z" />
    <glyph glyph-name="Zacute" unicode="&#x179;" horiz-adv-x="608" 
d="M558 665v-93l-339 -474h349v-98h-519v92l342 474h-332v99h499zM471 916l-125 -161h-103l84 161h144z" />
    <glyph glyph-name="Zcaron" unicode="&#x17d;" horiz-adv-x="608" 
d="M558 665v-93l-339 -474h349v-98h-519v92l342 474h-332v99h499zM250 755l-107 161h107l59 -97l57 97h107l-107 -161h-116z" />
    <glyph glyph-name="Zdotaccent" unicode="&#x17b;" horiz-adv-x="608" 
d="M558 665v-93l-339 -474h349v-98h-519v92l342 474h-332v99h499zM380 834q0 -28 -18.5 -43t-52.5 -15q-71 0 -71 58q0 28 18 43.5t53 15.5q34 0 52.5 -15.5t18.5 -43.5z" />
    <glyph glyph-name="Eng" unicode="&#x14a;" horiz-adv-x="756" 
d="M201 665l326 -359v359h136v-575q0 -53 -17 -95t-45.5 -76.5t-65.5 -63t-77 -54.5l-61 77q31 27 55 50.5t40.5 47.5t25.5 50.5t9 59.5v55l-300 330v-471h-134v665h108z" />
    <glyph glyph-name="Eth" unicode="&#xd0;" horiz-adv-x="701" 
d="M20 384h87v281h243q144 0 223.5 -78t79.5 -247q0 -78 -15 -143t-52.5 -111.5t-101 -72t-160.5 -25.5q-48 0 -102.5 6.5t-114.5 18.5v273h-87v98zM246 384h146v-98h-146v-192q40 -6 83 -6q101 0 141.5 62t40.5 189q0 63 -11 106t-31.5 70t-50.5 39t-68 12h-104v-182z" />
    <glyph glyph-name="Thorn" unicode="&#xde;" horiz-adv-x="621" 
d="M231 665v-112h86q67 0 116.5 -10.5t81.5 -35t47.5 -66t15.5 -103.5q0 -60 -17.5 -102t-50.5 -67.5t-80.5 -37t-107.5 -11.5q-23 0 -46 2t-45 5v-127h-138v665h138zM231 225q19 -3 39.5 -5t40.5 -2q69 0 99 28.5t30 91.5q0 68 -29.5 92t-93.5 24h-86v-229z" />
    <glyph glyph-name="a" unicode="a" horiz-adv-x="524" 
d="M329 209q-17 3 -35.5 5t-36.5 2q-43 0 -66.5 -14t-23.5 -57q0 -40 22 -55t64 -15q22 0 41 2.5t35 6.5v125zM82 476q33 8 76 13.5t83 5.5q46 0 86.5 -8t70.5 -27t47.5 -50t17.5 -76v-310q-18 -6 -42.5 -12t-52.5 -11t-58.5 -8.5t-61.5 -3.5q-48 0 -86.5 7.5t-65.5 26.5
t-41.5 50t-14.5 78q0 43 15 71.5t41.5 46t62.5 24.5t78 7q27 0 49.5 -2t42.5 -6v38q0 41 -25.5 55t-70.5 14q-35 0 -74.5 -5t-69.5 -12z" />
    <glyph glyph-name="b" unicode="b" horiz-adv-x="572" 
d="M207 730v-246q50 11 95 11q51 0 93 -13t72 -42t46.5 -76t16.5 -115q0 -75 -18 -125t-49.5 -80t-74.5 -42.5t-93 -12.5q-24 0 -54 2.5t-60 6.5t-58.5 9.5t-50.5 11.5v711h135zM206 94q23 -5 43.5 -7t42.5 -2q25 0 43.5 7.5t31 26t18.5 50t6 79.5q0 45 -7 74.5t-19.5 46.5
t-31 23.5t-40.5 6.5q-21 0 -44 -3t-43 -8v-294z" />
    <glyph glyph-name="c" unicode="c" horiz-adv-x="438" 
d="M389 387q-23 5 -48.5 8.5t-51.5 3.5q-27 0 -47 -6.5t-33.5 -24t-20.5 -48t-7 -78.5q0 -43 5.5 -73t18 -48.5t34 -27t53.5 -8.5q29 0 54.5 4.5t50.5 11.5l11 -94q-26 -8 -61.5 -13t-69.5 -5q-54 0 -97 13.5t-74 44t-47.5 79t-16.5 118.5q0 72 17.5 120t49.5 77.5t77 41.5
t100 12q30 0 62 -3.5t54 -8.5z" />
    <glyph glyph-name="d" unicode="d" horiz-adv-x="572" 
d="M282 495q19 0 39.5 -2t41.5 -6v243h134v-711q-22 -6 -50 -11.5t-58 -9.5t-59 -6.5t-53 -2.5q-50 0 -93 12.5t-74.5 42.5t-49.5 80t-18 125q0 68 18.5 115t51 76t76.5 42t94 13zM363 391q-18 3 -36.5 5.5t-35.5 2.5q-22 0 -42 -6.5t-35 -23.5t-24 -46.5t-9 -74.5
q0 -48 6.5 -79.5t19 -50t31 -26t42.5 -7.5q21 0 41 1.5t42 6.5v298z" />
    <glyph glyph-name="e" unicode="e" horiz-adv-x="521" 
d="M182 205q1 -32 8.5 -54.5t23.5 -37t41.5 -21.5t64.5 -7q16 0 35 1.5t38 4.5t35.5 6.5t27.5 6.5l12 -92q-31 -10 -75.5 -16.5t-91.5 -6.5q-57 0 -104.5 11.5t-82 40t-53.5 77.5t-19 124q0 72 16.5 121t47 78t73.5 41.5t96 12.5q54 0 92.5 -14.5t63 -41.5t36 -65t11.5 -86
v-83h-296zM352 284q0 63 -18.5 94t-63.5 31q-47 0 -66 -31.5t-21 -93.5h169z" />
    <glyph glyph-name="f" unicode="f" horiz-adv-x="382" 
d="M97 484v81q0 90 54.5 132.5t147.5 42.5q26 0 52.5 -2t46.5 -7l-12 -92q-18 2 -36 3.5t-36 1.5q-36 0 -59.5 -16.5t-23.5 -62.5v-81h141v-94h-141v-390h-134v390h-76v94h76z" />
    <glyph glyph-name="g" unicode="g" horiz-adv-x="573" 
d="M500 11q0 -62 -17 -102.5t-48.5 -64.5t-75.5 -33.5t-98 -9.5q-47 0 -95.5 7.5t-77.5 15.5l13 96q14 -4 33 -8t39.5 -7.5t42 -5.5t40.5 -2q56 0 83 21.5t27 74.5v19q-22 -5 -49.5 -8.5t-51.5 -3.5q-47 0 -87.5 10.5t-70.5 38t-47.5 76t-17.5 123.5q0 68 19.5 115t53 76.5
t79 42.5t96.5 13q56 0 110 -11t100 -27v-446zM366 388q-16 4 -35 7.5t-39 3.5q-23 0 -43.5 -6.5t-35.5 -23.5t-23.5 -46.5t-8.5 -75.5q0 -49 6.5 -78.5t19 -45.5t30.5 -21.5t42 -5.5q22 0 43 3t44 8v281z" />
    <glyph glyph-name="h" unicode="h" horiz-adv-x="587" 
d="M75 730h134v-247q26 5 52.5 8.5t52.5 3.5q45 0 83 -9t65.5 -29.5t43 -54.5t15.5 -83v-319h-134v314q0 49 -26 67t-66 18q-20 0 -44.5 -3.5t-41.5 -7.5v-388h-134v730z" />
    <glyph glyph-name="i" unicode="i" horiz-adv-x="286" 
d="M210 484v-484h-134v484h134zM222 659q0 -35 -21 -53t-59 -18q-37 0 -58.5 18t-21.5 53t21.5 53.5t58.5 18.5q38 0 59 -18.5t21 -53.5z" />
    <glyph glyph-name="j" unicode="j" horiz-adv-x="286" 
d="M210 484v-408q0 -48 -10 -85t-32 -69t-56.5 -61.5t-83.5 -60.5l-58 68q33 28 53.5 51.5t32 47.5t16 49.5t4.5 58.5v409h134zM222 659q0 -35 -21 -53t-59 -18q-37 0 -58.5 18t-21.5 53t21.5 53.5t58.5 18.5q38 0 59 -18.5t21 -53.5z" />
    <glyph glyph-name="k" unicode="k" horiz-adv-x="548" 
d="M210 730v-453l178 207h140l-173 -195q55 -11 91 -50.5t53 -102.5l38 -136h-144l-33 124q-12 46 -39 62.5t-57 18.5l-54 -54v-151h-134v730h134z" />
    <glyph glyph-name="l" unicode="l" horiz-adv-x="286" 
d="M210 730v-730h-134v730h134z" />
    <glyph glyph-name="m" unicode="m" horiz-adv-x="871" 
d="M74 457q19 6 43.5 12.5t52.5 12.5t58.5 9.5t62.5 3.5q46 0 84.5 -10t67.5 -31q37 19 81.5 30t88.5 11q43 0 78 -9t60.5 -30t39.5 -54.5t14 -82.5v-319h-134v314q0 50 -23.5 67.5t-60.5 17.5q-26 0 -48.5 -6.5t-40.5 -14.5q5 -14 6.5 -28t1.5 -31v-319h-134v314
q0 50 -23.5 67.5t-60.5 17.5q-20 0 -41.5 -3t-38.5 -8v-388h-134v457v0z" />
    <glyph glyph-name="n" unicode="n" horiz-adv-x="586" 
d="M74 457q18 6 43.5 12.5t54.5 12.5t61 9.5t64 3.5q49 0 90 -9t70.5 -29.5t46 -54t16.5 -83.5v-319h-134v314q0 25 -7 41t-19 26t-29 14t-37 4t-44.5 -3t-41.5 -8v-388h-134v457v0z" />
    <glyph glyph-name="o" unicode="o" horiz-adv-x="563" 
d="M521 242q0 -134 -61.5 -193.5t-178.5 -59.5q-116 0 -177.5 59.5t-61.5 193.5t61.5 193.5t177.5 59.5q117 0 178.5 -59.5t61.5 -193.5zM382 242q0 45 -6 75t-18.5 48.5t-31.5 26t-44 7.5q-26 0 -45 -7.5t-31.5 -26t-18.5 -48.5t-6 -75t6 -75t18.5 -48.5t31.5 -26t45 -7.5
q25 0 44 7.5t31.5 26t18.5 48.5t6 75z" />
    <glyph glyph-name="p" unicode="p" horiz-adv-x="573" 
d="M73 457q46 16 105.5 27t115.5 11q51 0 94.5 -13t75 -42t49.5 -76t18 -115q0 -75 -17.5 -125t-47.5 -80t-71 -42.5t-88 -12.5q-23 0 -50.5 3.5t-49.5 7.5v-188h-134v645zM207 97q23 -5 43.5 -8.5t43.5 -3.5q24 0 42 7.5t30.5 26t19 50t6.5 79.5q0 46 -7 75t-20 46
t-31.5 23.5t-41.5 6.5q-20 0 -44.5 -3.5t-40.5 -7.5v-291z" />
    <glyph glyph-name="q" unicode="q" horiz-adv-x="575" 
d="M500 -188h-134v188q-22 -4 -49.5 -7.5t-51.5 -3.5q-47 0 -87.5 12t-70.5 41.5t-47.5 79.5t-17.5 125q0 68 19.5 115.5t53 77t79 42.5t96.5 13q56 0 110 -11t100 -27v-645zM366 388q-16 4 -35 7.5t-39 3.5q-23 0 -43.5 -7t-35.5 -24t-23.5 -46.5t-8.5 -75.5q0 -48 6.5 -79
t19 -49.5t30.5 -25.5t42 -7q22 0 43 3.5t44 8.5v291z" />
    <glyph glyph-name="r" unicode="r" horiz-adv-x="373" 
d="M73 457q68 21 138.5 29.5t143.5 8.5v-98q-39 0 -78 -2t-70 -9v-386h-134v457z" />
    <glyph glyph-name="s" unicode="s" horiz-adv-x="468" 
d="M407 389q-27 5 -58 8.5t-69 3.5q-48 0 -72 -8t-24 -34q0 -16 18 -28.5t45.5 -25t59.5 -27t59.5 -34.5t45.5 -48t18 -67q0 -38 -16 -64.5t-44.5 -43.5t-66.5 -24.5t-83 -7.5q-54 0 -98.5 7t-73.5 16l12 93q28 -8 70 -14t79 -6q44 0 62.5 9.5t18.5 35.5q0 18 -18 31.5
t-44.5 26.5t-57.5 27t-57.5 33t-44.5 44.5t-18 62.5q0 42 17.5 69.5t48 43t72.5 21.5t91 6q41 0 76 -3.5t61 -8.5z" />
    <glyph glyph-name="t" unicode="t" horiz-adv-x="392" 
d="M229 621v-137h134v-94h-134v-259q0 -26 15.5 -36t38.5 -10q21 0 43 4t38 9l3 -93q-25 -8 -52.5 -12t-56.5 -4q-75 0 -119 36t-44 113v252h-76v94h76l26 137h108z" />
    <glyph glyph-name="u" unicode="u" horiz-adv-x="579" 
d="M505 26q-41 -14 -100 -25.5t-119 -11.5q-46 0 -86 8.5t-70 29t-47 55t-17 87.5v315h134v-319q0 -45 23.5 -62.5t65.5 -17.5q21 0 44 2.5t38 7.5v389h134v-458z" />
    <glyph glyph-name="v" unicode="v" horiz-adv-x="513" 
d="M6 484h139l121 -369q16 36 32.5 75.5t32.5 84.5t29.5 97t23.5 112h123q-19 -129 -65 -248t-111 -236h-149z" />
    <glyph glyph-name="w" unicode="w" horiz-adv-x="859" 
d="M10 484h142l106 -369l111 369h133l122 -371q32 71 59 160.5t43 210.5h123q-17 -129 -56 -247.5t-102 -236.5h-148l-108 353l-106 -353h-160z" />
    <glyph glyph-name="x" unicode="x" horiz-adv-x="499" 
d="M158 484l95 -171l101 171h137l-157 -237l162 -247h-149l-104 171l-104 -171h-137l161 241l-153 243h148z" />
    <glyph glyph-name="y" unicode="y" horiz-adv-x="581" 
d="M505 484v-473q0 -62 -17.5 -102.5t-49 -64.5t-75.5 -33.5t-98 -9.5q-23 0 -47.5 2t-47.5 5.5t-43 8t-34 8.5l12 94q29 -8 73 -15t82 -7q57 0 84 19.5t27 73.5v20q-20 -5 -44.5 -7.5t-45.5 -2.5q-45 0 -84 8.5t-68 29t-46 55t-17 87.5v304h134v-308q0 -45 24.5 -62.5
t64.5 -17.5q21 0 44 3t38 8v377h134z" />
    <glyph glyph-name="z" unicode="z" horiz-adv-x="498" 
d="M452 484v-83l-247 -307h258v-94h-425v83l251 307h-241v94h404z" />
    <glyph glyph-name="agrave" unicode="&#xe0;" horiz-adv-x="524" 
d="M329 209q-17 3 -35.5 5t-36.5 2q-43 0 -66.5 -14t-23.5 -57q0 -40 22 -55t64 -15q22 0 41 2.5t35 6.5v125zM82 476q33 8 76 13.5t83 5.5q46 0 86.5 -8t70.5 -27t47.5 -50t17.5 -76v-310q-18 -6 -42.5 -12t-52.5 -11t-58.5 -8.5t-61.5 -3.5q-48 0 -86.5 7.5t-65.5 26.5
t-41.5 50t-14.5 78q0 43 15 71.5t41.5 46t62.5 24.5t78 7q27 0 49.5 -2t42.5 -6v38q0 41 -25.5 55t-70.5 14q-35 0 -74.5 -5t-69.5 -12zM245 730l83 -161h-101l-126 161h144z" />
    <glyph glyph-name="aacute" unicode="&#xe1;" horiz-adv-x="524" 
d="M329 209q-17 3 -35.5 5t-36.5 2q-43 0 -66.5 -14t-23.5 -57q0 -40 22 -55t64 -15q22 0 41 2.5t35 6.5v125zM82 476q33 8 76 13.5t83 5.5q46 0 86.5 -8t70.5 -27t47.5 -50t17.5 -76v-310q-18 -6 -42.5 -12t-52.5 -11t-58.5 -8.5t-61.5 -3.5q-48 0 -86.5 7.5t-65.5 26.5
t-41.5 50t-14.5 78q0 43 15 71.5t41.5 46t62.5 24.5t78 7q27 0 49.5 -2t42.5 -6v38q0 41 -25.5 55t-70.5 14q-35 0 -74.5 -5t-69.5 -12zM427 730l-125 -161h-103l84 161h144z" />
    <glyph glyph-name="acircumflex" unicode="&#xe2;" horiz-adv-x="524" 
d="M329 209q-17 3 -35.5 5t-36.5 2q-43 0 -66.5 -14t-23.5 -57q0 -40 22 -55t64 -15q22 0 41 2.5t35 6.5v125zM82 476q33 8 76 13.5t83 5.5q46 0 86.5 -8t70.5 -27t47.5 -50t17.5 -76v-310q-18 -6 -42.5 -12t-52.5 -11t-58.5 -8.5t-61.5 -3.5q-48 0 -86.5 7.5t-65.5 26.5
t-41.5 50t-14.5 78q0 43 15 71.5t41.5 46t62.5 24.5t78 7q27 0 49.5 -2t42.5 -6v38q0 41 -25.5 55t-70.5 14q-35 0 -74.5 -5t-69.5 -12zM325 730l107 -161h-107l-57 96l-59 -96h-107l107 161h116z" />
    <glyph glyph-name="atilde" unicode="&#xe3;" horiz-adv-x="524" 
d="M329 209q-17 3 -35.5 5t-36.5 2q-43 0 -66.5 -14t-23.5 -57q0 -40 22 -55t64 -15q22 0 41 2.5t35 6.5v125zM82 476q33 8 76 13.5t83 5.5q46 0 86.5 -8t70.5 -27t47.5 -50t17.5 -76v-310q-18 -6 -42.5 -12t-52.5 -11t-58.5 -8.5t-61.5 -3.5q-48 0 -86.5 7.5t-65.5 26.5
t-41.5 50t-14.5 78q0 43 15 71.5t41.5 46t62.5 24.5t78 7q27 0 49.5 -2t42.5 -6v38q0 41 -25.5 55t-70.5 14q-35 0 -74.5 -5t-69.5 -12zM103 616q9 37 34 63t69 26q19 0 35.5 -5t31 -11.5t26.5 -11.5t22 -5q17 0 23.5 13t11.5 27l78 -28q-14 -43 -39 -68t-67 -25
q-17 0 -32.5 5t-30 11.5t-26.5 11.5t-21 5q-18 0 -25.5 -12t-12.5 -26z" />
    <glyph glyph-name="adieresis" unicode="&#xe4;" horiz-adv-x="524" 
d="M329 209q-17 3 -35.5 5t-36.5 2q-43 0 -66.5 -14t-23.5 -57q0 -40 22 -55t64 -15q22 0 41 2.5t35 6.5v125zM82 476q33 8 76 13.5t83 5.5q46 0 86.5 -8t70.5 -27t47.5 -50t17.5 -76v-310q-18 -6 -42.5 -12t-52.5 -11t-58.5 -8.5t-61.5 -3.5q-48 0 -86.5 7.5t-65.5 26.5
t-41.5 50t-14.5 78q0 43 15 71.5t41.5 46t62.5 24.5t78 7q27 0 49.5 -2t42.5 -6v38q0 41 -25.5 55t-70.5 14q-35 0 -74.5 -5t-69.5 -12zM241 650q0 -26 -18 -41t-50 -15q-33 0 -51 15t-18 41q0 27 18 42t51 15q32 0 50 -15t18 -42zM432 650q0 -26 -18 -41t-50 -15
q-33 0 -50.5 15t-17.5 41q0 27 17.5 42t50.5 15q32 0 50 -15t18 -42z" />
    <glyph glyph-name="amacron" unicode="&#x101;" horiz-adv-x="524" 
d="M329 209q-17 3 -35.5 5t-36.5 2q-43 0 -66.5 -14t-23.5 -57q0 -40 22 -55t64 -15q22 0 41 2.5t35 6.5v125zM82 476q33 8 76 13.5t83 5.5q46 0 86.5 -8t70.5 -27t47.5 -50t17.5 -76v-310q-18 -6 -42.5 -12t-52.5 -11t-58.5 -8.5t-61.5 -3.5q-48 0 -86.5 7.5t-65.5 26.5
t-41.5 50t-14.5 78q0 43 15 71.5t41.5 46t62.5 24.5t78 7q27 0 49.5 -2t42.5 -6v38q0 41 -25.5 55t-70.5 14q-35 0 -74.5 -5t-69.5 -12zM409 688v-78h-282v78h282z" />
    <glyph glyph-name="abreve" unicode="&#x103;" horiz-adv-x="524" 
d="M329 209q-17 3 -35.5 5t-36.5 2q-43 0 -66.5 -14t-23.5 -57q0 -40 22 -55t64 -15q22 0 41 2.5t35 6.5v125zM82 476q33 8 76 13.5t83 5.5q46 0 86.5 -8t70.5 -27t47.5 -50t17.5 -76v-310q-18 -6 -42.5 -12t-52.5 -11t-58.5 -8.5t-61.5 -3.5q-48 0 -86.5 7.5t-65.5 26.5
t-41.5 50t-14.5 78q0 43 15 71.5t41.5 46t62.5 24.5t78 7q27 0 49.5 -2t42.5 -6v38q0 41 -25.5 55t-70.5 14q-35 0 -74.5 -5t-69.5 -12zM206 718q2 -60 62 -60q59 0 61 60h95q-1 -38 -13 -64t-32.5 -42.5t-49 -24t-61.5 -7.5q-68 0 -111 31.5t-46 106.5h95z" />
    <glyph glyph-name="aring" unicode="&#xe5;" horiz-adv-x="524" 
d="M329 209q-17 3 -35.5 5t-36.5 2q-43 0 -66.5 -14t-23.5 -57q0 -40 22 -55t64 -15q22 0 41 2.5t35 6.5v125zM82 476q33 8 76 13.5t83 5.5q46 0 86.5 -8t70.5 -27t47.5 -50t17.5 -76v-310q-18 -6 -42.5 -12t-52.5 -11t-58.5 -8.5t-61.5 -3.5q-48 0 -86.5 7.5t-65.5 26.5
t-41.5 50t-14.5 78q0 43 15 71.5t41.5 46t62.5 24.5t78 7q27 0 49.5 -2t42.5 -6v38q0 41 -25.5 55t-70.5 14q-35 0 -74.5 -5t-69.5 -12zM385 648q0 -47 -31.5 -68t-85.5 -21q-53 0 -84.5 21t-31.5 68q0 48 31.5 69t84.5 21q54 0 85.5 -21t31.5 -69zM308 648q0 35 -40 35
q-39 0 -39 -35t39 -35q40 0 40 35z" />
    <glyph glyph-name="aringacute" unicode="&#x1fb;" horiz-adv-x="524" 
d="M379 648q0 -47 -31.5 -68t-85.5 -21q-53 0 -84.5 21t-31.5 68q0 37 19 57.5t53 28.5l57 95h117l-83 -97q33 -8 51.5 -28.5t18.5 -55.5zM302 648q0 35 -40 35q-39 0 -39 -35t39 -35q40 0 40 35zM329 209q-17 3 -35.5 5t-36.5 2q-43 0 -66.5 -14t-23.5 -57q0 -40 22 -55
t64 -15q22 0 41 2.5t35 6.5v125zM82 476q33 8 76 13.5t83 5.5q46 0 86.5 -8t70.5 -27t47.5 -50t17.5 -76v-310q-18 -6 -42.5 -12t-52.5 -11t-58.5 -8.5t-61.5 -3.5q-48 0 -86.5 7.5t-65.5 26.5t-41.5 50t-14.5 78q0 43 15 71.5t41.5 46t62.5 24.5t78 7q27 0 49.5 -2t42.5 -6
v38q0 41 -25.5 55t-70.5 14q-35 0 -74.5 -5t-69.5 -12z" />
    <glyph glyph-name="aogonek" unicode="&#x105;" horiz-adv-x="524" 
d="M82 476q33 8 76 13.5t83 5.5q46 0 86.5 -8t70.5 -27t47.5 -50t17.5 -76v-310q-18 -16 -35.5 -39.5t-17.5 -44.5q0 -26 34 -26q10 0 23 2.5t25 7.5l14 -74q-40 -17 -88 -17q-23 0 -43 4.5t-35 14t-23.5 25.5t-8.5 39q0 24 10 44.5t24 36.5q-23 -3 -46.5 -5.5t-47.5 -2.5
q-48 0 -86.5 7.5t-65.5 26.5t-41.5 50t-14.5 78q0 43 15 71.5t41.5 46t62.5 24.5t78 7q27 0 49.5 -2t42.5 -6v38q0 41 -25.5 55t-70.5 14q-35 0 -74.5 -5t-69.5 -12zM329 209q-17 3 -35.5 5t-36.5 2q-43 0 -66.5 -14t-23.5 -57q0 -40 22 -55t64 -15q20 0 40 2.5t36 6.5v125z
" />
    <glyph glyph-name="ae" unicode="&#xe6;" horiz-adv-x="801" 
d="M82 475q33 8 76 14t83 6q50 0 94 -11t73 -37q25 26 61.5 37t85.5 11q54 0 92.5 -14.5t63 -41.5t36 -65t11.5 -86v-83h-296q1 -32 8.5 -55t23.5 -37.5t41.5 -21t64.5 -6.5q16 0 35 1.5t38 4.5t35.5 6.5t27.5 6.5l12 -92q-31 -10 -75.5 -16.5t-91.5 -6.5q-48 0 -92.5 11
t-76.5 31q-37 -20 -74.5 -31t-88.5 -11q-49 0 -87.5 7.5t-65.5 26.5t-41.5 50t-14.5 79q0 43 15.5 71.5t42 46t62 24.5t75.5 7q24 0 49 -2t45 -6v38q0 40 -26 54t-70 14q-35 0 -74.5 -5t-70.5 -12zM343 100q-8 28 -11.5 52.5t-3.5 57.5q-17 2 -35.5 4t-35.5 2q-42 0 -66 -14
t-24 -57q0 -40 23 -55t62 -15q25 0 49.5 6.5t41.5 18.5zM632 284q0 63 -18.5 94t-63.5 31q-47 0 -66 -32t-21 -93h169z" />
    <glyph glyph-name="aeacute" unicode="&#x1fd;" horiz-adv-x="801" 
d="M82 475q33 8 76 14t83 6q50 0 94 -11t73 -37q25 26 61.5 37t85.5 11q54 0 92.5 -14.5t63 -41.5t36 -65t11.5 -86v-83h-296q1 -32 8.5 -55t23.5 -37.5t41.5 -21t64.5 -6.5q16 0 35 1.5t38 4.5t35.5 6.5t27.5 6.5l12 -92q-31 -10 -75.5 -16.5t-91.5 -6.5q-48 0 -92.5 11
t-76.5 31q-37 -20 -74.5 -31t-88.5 -11q-49 0 -87.5 7.5t-65.5 26.5t-41.5 50t-14.5 79q0 43 15.5 71.5t42 46t62 24.5t75.5 7q24 0 49 -2t45 -6v38q0 40 -26 54t-70 14q-35 0 -74.5 -5t-70.5 -12zM343 100q-8 28 -11.5 52.5t-3.5 57.5q-17 2 -35.5 4t-35.5 2q-42 0 -66 -14
t-24 -57q0 -40 23 -55t62 -15q25 0 49.5 6.5t41.5 18.5zM632 284q0 63 -18.5 94t-63.5 31q-47 0 -66 -32t-21 -93h169zM587 730l-125 -161h-103l84 161h144z" />
    <glyph glyph-name="cacute" unicode="&#x107;" horiz-adv-x="438" 
d="M389 387q-23 5 -48.5 8.5t-51.5 3.5q-27 0 -47 -6.5t-33.5 -24t-20.5 -48t-7 -78.5q0 -43 5.5 -73t18 -48.5t34 -27t53.5 -8.5q29 0 54.5 4.5t50.5 11.5l11 -94q-26 -8 -61.5 -13t-69.5 -5q-54 0 -97 13.5t-74 44t-47.5 79t-16.5 118.5q0 72 17.5 120t49.5 77.5t77 41.5
t100 12q30 0 62 -3.5t54 -8.5zM425 730l-125 -161h-103l84 161h144z" />
    <glyph glyph-name="ccircumflex" unicode="&#x109;" horiz-adv-x="438" 
d="M389 387q-23 5 -48.5 8.5t-51.5 3.5q-27 0 -47 -6.5t-33.5 -24t-20.5 -48t-7 -78.5q0 -43 5.5 -73t18 -48.5t34 -27t53.5 -8.5q29 0 54.5 4.5t50.5 11.5l11 -94q-26 -8 -61.5 -13t-69.5 -5q-54 0 -97 13.5t-74 44t-47.5 79t-16.5 118.5q0 72 17.5 120t49.5 77.5t77 41.5
t100 12q30 0 62 -3.5t54 -8.5zM305 730l107 -161h-107l-57 96l-59 -96h-107l107 161h116z" />
    <glyph glyph-name="ccaron" unicode="&#x10d;" horiz-adv-x="438" 
d="M389 387q-23 5 -48.5 8.5t-51.5 3.5q-27 0 -47 -6.5t-33.5 -24t-20.5 -48t-7 -78.5q0 -43 5.5 -73t18 -48.5t34 -27t53.5 -8.5q29 0 54.5 4.5t50.5 11.5l11 -94q-26 -8 -61.5 -13t-69.5 -5q-54 0 -97 13.5t-74 44t-47.5 79t-16.5 118.5q0 72 17.5 120t49.5 77.5t77 41.5
t100 12q30 0 62 -3.5t54 -8.5zM190 569l-107 161h107l59 -97l57 97h107l-107 -161h-116z" />
    <glyph glyph-name="cdotaccent" unicode="&#x10b;" horiz-adv-x="438" 
d="M389 387q-23 5 -48.5 8.5t-51.5 3.5q-27 0 -47 -6.5t-33.5 -24t-20.5 -48t-7 -78.5q0 -43 5.5 -73t18 -48.5t34 -27t53.5 -8.5q29 0 54.5 4.5t50.5 11.5l11 -94q-26 -8 -61.5 -13t-69.5 -5q-54 0 -97 13.5t-74 44t-47.5 79t-16.5 118.5q0 72 17.5 120t49.5 77.5t77 41.5
t100 12q30 0 62 -3.5t54 -8.5zM319 650q0 -28 -18.5 -43t-52.5 -15q-71 0 -71 58q0 28 18 43.5t53 15.5q34 0 52.5 -15.5t18.5 -43.5z" />
    <glyph glyph-name="ccedilla" unicode="&#xe7;" horiz-adv-x="438" 
d="M389 387q-23 5 -48.5 8.5t-51.5 3.5q-27 0 -47 -6.5t-33.5 -24t-20.5 -48t-7 -78.5q0 -43 5.5 -73t18 -48.5t34 -27t53.5 -8.5q29 0 54.5 4.5t50.5 11.5l11 -94q-26 -8 -61.5 -13t-69.5 -5q-54 0 -97 13.5t-74 44t-47.5 79t-16.5 118.5q0 72 17.5 120t49.5 77.5t77 41.5
t100 12q30 0 62 -3.5t54 -8.5zM301 -37q12 -15 21.5 -35.5t9.5 -40.5q0 -39 -23.5 -62t-82.5 -23q-23 0 -48.5 3.5t-44.5 11.5l15 73q11 -4 25.5 -6.5t24.5 -2.5q19 0 25 6.5t6 20.5q0 12 -6 26.5t-15 28.5h93z" />
    <glyph glyph-name="dcaron" unicode="&#x10f;" horiz-adv-x="708" 
d="M282 495q19 0 39.5 -2t41.5 -6v243h134v-711q-22 -6 -50 -11.5t-58 -9.5t-59 -6.5t-53 -2.5q-50 0 -93 12.5t-74.5 42.5t-49.5 80t-18 125q0 68 18.5 115t51 76t76.5 42t94 13zM363 391q-18 3 -36.5 5.5t-35.5 2.5q-22 0 -42 -6.5t-35 -23.5t-24 -46.5t-9 -74.5
q0 -48 6.5 -79.5t19 -50t31 -26t42.5 -7.5q21 0 41 1.5t42 6.5v298zM734 665l-82 -213h-95l49 213h128z" />
    <glyph glyph-name="dcroat" unicode="&#x111;" horiz-adv-x="623" 
d="M207 652h156v78h134v-78h97v-81h-97v-552q-22 -6 -50 -11.5t-58 -9.5t-59 -6.5t-53 -2.5q-50 0 -93 12.5t-74.5 42.5t-49.5 80t-18 125q0 68 18.5 115t51 76t76.5 42t94 13q19 0 39.5 -2t41.5 -6v84h-156v81zM280 85q21 0 41 1.5t42 6.5v298q-18 3 -36.5 5.5t-35.5 2.5
q-22 0 -42 -6.5t-35 -23.5t-24 -46.5t-9 -74.5q0 -48 6.5 -79.5t19 -50t31 -26t42.5 -7.5z" />
    <glyph glyph-name="egrave" unicode="&#xe8;" horiz-adv-x="521" 
d="M182 205q1 -32 8.5 -54.5t23.5 -37t41.5 -21.5t64.5 -7q16 0 35 1.5t38 4.5t35.5 6.5t27.5 6.5l12 -92q-31 -10 -75.5 -16.5t-91.5 -6.5q-57 0 -104.5 11.5t-82 40t-53.5 77.5t-19 124q0 72 16.5 121t47 78t73.5 41.5t96 12.5q54 0 92.5 -14.5t63 -41.5t36 -65t11.5 -86
v-83h-296zM352 284q0 63 -18.5 94t-63.5 31q-47 0 -66 -31.5t-21 -93.5h169zM237 730l83 -161h-101l-126 161h144z" />
    <glyph glyph-name="eacute" unicode="&#xe9;" horiz-adv-x="521" 
d="M182 205q1 -32 8.5 -54.5t23.5 -37t41.5 -21.5t64.5 -7q16 0 35 1.5t38 4.5t35.5 6.5t27.5 6.5l12 -92q-31 -10 -75.5 -16.5t-91.5 -6.5q-57 0 -104.5 11.5t-82 40t-53.5 77.5t-19 124q0 72 16.5 121t47 78t73.5 41.5t96 12.5q54 0 92.5 -14.5t63 -41.5t36 -65t11.5 -86
v-83h-296zM352 284q0 63 -18.5 94t-63.5 31q-47 0 -66 -31.5t-21 -93.5h169zM444 730l-125 -161h-103l84 161h144z" />
    <glyph glyph-name="ecircumflex" unicode="&#xea;" horiz-adv-x="521" 
d="M182 205q1 -32 8.5 -54.5t23.5 -37t41.5 -21.5t64.5 -7q16 0 35 1.5t38 4.5t35.5 6.5t27.5 6.5l12 -92q-31 -10 -75.5 -16.5t-91.5 -6.5q-57 0 -104.5 11.5t-82 40t-53.5 77.5t-19 124q0 72 16.5 121t47 78t73.5 41.5t96 12.5q54 0 92.5 -14.5t63 -41.5t36 -65t11.5 -86
v-83h-296zM352 284q0 63 -18.5 94t-63.5 31q-47 0 -66 -31.5t-21 -93.5h169zM329 730l107 -161h-107l-57 96l-59 -96h-107l107 161h116z" />
    <glyph glyph-name="ecaron" unicode="&#x11b;" horiz-adv-x="521" 
d="M182 205q1 -32 8.5 -54.5t23.5 -37t41.5 -21.5t64.5 -7q16 0 35 1.5t38 4.5t35.5 6.5t27.5 6.5l12 -92q-31 -10 -75.5 -16.5t-91.5 -6.5q-57 0 -104.5 11.5t-82 40t-53.5 77.5t-19 124q0 72 16.5 121t47 78t73.5 41.5t96 12.5q54 0 92.5 -14.5t63 -41.5t36 -65t11.5 -86
v-83h-296zM352 284q0 63 -18.5 94t-63.5 31q-47 0 -66 -31.5t-21 -93.5h169zM213 569l-107 161h107l59 -97l57 97h107l-107 -161h-116z" />
    <glyph glyph-name="edieresis" unicode="&#xeb;" horiz-adv-x="521" 
d="M182 205q1 -32 8.5 -54.5t23.5 -37t41.5 -21.5t64.5 -7q16 0 35 1.5t38 4.5t35.5 6.5t27.5 6.5l12 -92q-31 -10 -75.5 -16.5t-91.5 -6.5q-57 0 -104.5 11.5t-82 40t-53.5 77.5t-19 124q0 72 16.5 121t47 78t73.5 41.5t96 12.5q54 0 92.5 -14.5t63 -41.5t36 -65t11.5 -86
v-83h-296zM352 284q0 63 -18.5 94t-63.5 31q-47 0 -66 -31.5t-21 -93.5h169zM244 650q0 -26 -18 -41t-50 -15q-33 0 -51 15t-18 41q0 27 18 42t51 15q32 0 50 -15t18 -42zM435 650q0 -26 -18 -41t-50 -15q-33 0 -50.5 15t-17.5 41q0 27 17.5 42t50.5 15q32 0 50 -15t18 -42z
" />
    <glyph glyph-name="emacron" unicode="&#x113;" horiz-adv-x="521" 
d="M182 205q1 -32 8.5 -54.5t23.5 -37t41.5 -21.5t64.5 -7q16 0 35 1.5t38 4.5t35.5 6.5t27.5 6.5l12 -92q-31 -10 -75.5 -16.5t-91.5 -6.5q-57 0 -104.5 11.5t-82 40t-53.5 77.5t-19 124q0 72 16.5 121t47 78t73.5 41.5t96 12.5q54 0 92.5 -14.5t63 -41.5t36 -65t11.5 -86
v-83h-296zM352 284q0 63 -18.5 94t-63.5 31q-47 0 -66 -31.5t-21 -93.5h169zM412 688v-78h-282v78h282z" />
    <glyph glyph-name="ebreve" unicode="&#x115;" horiz-adv-x="521" 
d="M182 205q1 -32 8.5 -54.5t23.5 -37t41.5 -21.5t64.5 -7q16 0 35 1.5t38 4.5t35.5 6.5t27.5 6.5l12 -92q-31 -10 -75.5 -16.5t-91.5 -6.5q-57 0 -104.5 11.5t-82 40t-53.5 77.5t-19 124q0 72 16.5 121t47 78t73.5 41.5t96 12.5q54 0 92.5 -14.5t63 -41.5t36 -65t11.5 -86
v-83h-296zM352 284q0 63 -18.5 94t-63.5 31q-47 0 -66 -31.5t-21 -93.5h169zM210 718q2 -60 62 -60q59 0 61 60h95q-1 -38 -13 -64t-32.5 -42.5t-49 -24t-61.5 -7.5q-68 0 -111 31.5t-46 106.5h95z" />
    <glyph glyph-name="edotaccent" unicode="&#x117;" horiz-adv-x="521" 
d="M182 205q1 -32 8.5 -54.5t23.5 -37t41.5 -21.5t64.5 -7q16 0 35 1.5t38 4.5t35.5 6.5t27.5 6.5l12 -92q-31 -10 -75.5 -16.5t-91.5 -6.5q-57 0 -104.5 11.5t-82 40t-53.5 77.5t-19 124q0 72 16.5 121t47 78t73.5 41.5t96 12.5q54 0 92.5 -14.5t63 -41.5t36 -65t11.5 -86
v-83h-296zM352 284q0 63 -18.5 94t-63.5 31q-47 0 -66 -31.5t-21 -93.5h169zM342 650q0 -28 -18.5 -43t-52.5 -15q-71 0 -71 58q0 28 18 43.5t53 15.5q34 0 52.5 -15.5t18.5 -43.5z" />
    <glyph glyph-name="eogonek" unicode="&#x119;" horiz-adv-x="521" 
d="M182 205q1 -32 8.5 -54.5t23.5 -37t41.5 -21.5t64.5 -7q16 0 35 1.5t38 4.5t35.5 6.5t27.5 6.5l12 -92q-11 -4 -23 -7t-23 -5q-18 -16 -35.5 -38t-17.5 -44q0 -14 9 -19.5t25 -5.5q10 0 23 2.5t25 7.5l14 -74q-40 -17 -88 -17q-45 0 -77.5 18.5t-32.5 63.5q0 31 13.5 55
t33.5 40h-13q-57 0 -104.5 11.5t-82 40t-53.5 77.5t-19 124q0 72 16.5 121t47 78t73.5 41.5t96 12.5q54 0 92.5 -14.5t63 -41.5t36 -65t11.5 -86v-83h-296zM352 284q0 63 -18.5 94t-63.5 31q-47 0 -66 -31.5t-21 -93.5h169z" />
    <glyph glyph-name="gcircumflex" unicode="&#x11d;" horiz-adv-x="573" 
d="M500 11q0 -62 -17 -102.5t-48.5 -64.5t-75.5 -33.5t-98 -9.5q-47 0 -95.5 7.5t-77.5 15.5l13 96q14 -4 33 -8t39.5 -7.5t42 -5.5t40.5 -2q56 0 83 21.5t27 74.5v19q-22 -5 -49.5 -8.5t-51.5 -3.5q-47 0 -87.5 10.5t-70.5 38t-47.5 76t-17.5 123.5q0 68 19.5 115t53 76.5
t79 42.5t96.5 13q56 0 110 -11t100 -27v-446zM366 388q-16 4 -35 7.5t-39 3.5q-23 0 -43.5 -6.5t-35.5 -23.5t-23.5 -46.5t-8.5 -75.5q0 -49 6.5 -78.5t19 -45.5t30.5 -21.5t42 -5.5q22 0 43 3t44 8v281zM337 730l107 -161h-107l-57 96l-59 -96h-107l107 161h116z" />
    <glyph glyph-name="gbreve" unicode="&#x11f;" horiz-adv-x="573" 
d="M500 11q0 -62 -17 -102.5t-48.5 -64.5t-75.5 -33.5t-98 -9.5q-47 0 -95.5 7.5t-77.5 15.5l13 96q14 -4 33 -8t39.5 -7.5t42 -5.5t40.5 -2q56 0 83 21.5t27 74.5v19q-22 -5 -49.5 -8.5t-51.5 -3.5q-47 0 -87.5 10.5t-70.5 38t-47.5 76t-17.5 123.5q0 68 19.5 115t53 76.5
t79 42.5t96.5 13q56 0 110 -11t100 -27v-446zM366 388q-16 4 -35 7.5t-39 3.5q-23 0 -43.5 -6.5t-35.5 -23.5t-23.5 -46.5t-8.5 -75.5q0 -49 6.5 -78.5t19 -45.5t30.5 -21.5t42 -5.5q22 0 43 3t44 8v281zM218 718q2 -60 62 -60q59 0 61 60h95q-1 -38 -13 -64t-32.5 -42.5
t-49 -24t-61.5 -7.5q-68 0 -111 31.5t-46 106.5h95z" />
    <glyph glyph-name="gdotaccent" unicode="&#x121;" horiz-adv-x="573" 
d="M500 11q0 -62 -17 -102.5t-48.5 -64.5t-75.5 -33.5t-98 -9.5q-47 0 -95.5 7.5t-77.5 15.5l13 96q14 -4 33 -8t39.5 -7.5t42 -5.5t40.5 -2q56 0 83 21.5t27 74.5v19q-22 -5 -49.5 -8.5t-51.5 -3.5q-47 0 -87.5 10.5t-70.5 38t-47.5 76t-17.5 123.5q0 68 19.5 115t53 76.5
t79 42.5t96.5 13q56 0 110 -11t100 -27v-446zM366 388q-16 4 -35 7.5t-39 3.5q-23 0 -43.5 -6.5t-35.5 -23.5t-23.5 -46.5t-8.5 -75.5q0 -49 6.5 -78.5t19 -45.5t30.5 -21.5t42 -5.5q22 0 43 3t44 8v281zM351 650q0 -28 -18.5 -43t-52.5 -15q-71 0 -71 58q0 28 18 43.5
t53 15.5q34 0 52.5 -15.5t18.5 -43.5z" />
    <glyph glyph-name="gcommaaccent" unicode="&#x123;" horiz-adv-x="573" 
d="M500 11q0 -62 -17 -102.5t-48.5 -64.5t-75.5 -33.5t-98 -9.5q-47 0 -95.5 7.5t-77.5 15.5l13 96q14 -4 33 -8t39.5 -7.5t42 -5.5t40.5 -2q56 0 83 21.5t27 74.5v19q-22 -5 -49.5 -8.5t-51.5 -3.5q-47 0 -87.5 10.5t-70.5 38t-47.5 76t-17.5 123.5q0 68 19.5 115t53 76.5
t79 42.5t96.5 13q56 0 110 -11t100 -27v-446zM366 388q-16 4 -35 7.5t-39 3.5q-23 0 -43.5 -6.5t-35.5 -23.5t-23.5 -46.5t-8.5 -75.5q0 -49 6.5 -78.5t19 -45.5t30.5 -21.5t42 -5.5q22 0 43 3t44 8v281zM202 569l125 161h103l-84 -161h-144z" />
    <glyph glyph-name="hcircumflex" unicode="&#x125;" horiz-adv-x="587" 
d="M75 730h134v-247q26 5 52.5 8.5t52.5 3.5q45 0 83 -9t65.5 -29.5t43 -54.5t15.5 -83v-319h-134v314q0 49 -26 67t-66 18q-20 0 -44.5 -3.5t-41.5 -7.5v-388h-134v730zM198 944l107 -161h-107l-57 96l-59 -96h-107l107 161h116z" />
    <glyph glyph-name="hbar" unicode="&#x127;" horiz-adv-x="624" 
d="M112 570h-105v81h105v79h134v-79h159v-81h-159v-87q25 5 52 8.5t53 3.5q45 0 82.5 -9t65.5 -29.5t43.5 -54.5t15.5 -83v-319h-134v314q0 49 -25 67t-67 18q-21 0 -45 -3.5t-41 -7.5v-388h-134v570z" />
    <glyph glyph-name="igrave" unicode="&#xec;" horiz-adv-x="286" 
d="M108 730l83 -161h-101l-126 161h144zM210 484v-484h-134v484h134z" />
    <glyph glyph-name="iacute" unicode="&#xed;" horiz-adv-x="286" 
d="M315 730l-125 -161h-103l84 161h144zM210 484v-484h-134v484h134z" />
    <glyph glyph-name="icircumflex" unicode="&#xee;" horiz-adv-x="286" 
d="M210 484v-484h-134v484h134zM200 730l107 -161h-107l-57 96l-59 -96h-107l107 161h116z" />
    <glyph glyph-name="itilde" unicode="&#x129;" horiz-adv-x="286" 
d="M-24 616q9 37 34 63t69 26q19 0 35.5 -5t31 -11.5t26.5 -11.5t22 -5q17 0 23.5 13t11.5 27l78 -28q-14 -43 -39 -68t-67 -25q-17 0 -32.5 5t-30 11.5t-26.5 11.5t-21 5q-18 0 -25.5 -12t-12.5 -26zM210 484v-484h-134v484h134z" />
    <glyph glyph-name="idieresis" unicode="&#xef;" horiz-adv-x="286" 
d="M116 650q0 -26 -18 -41t-50 -15q-33 0 -51 15t-18 41q0 27 18 42t51 15q32 0 50 -15t18 -42zM307 650q0 -26 -18 -41t-50 -15q-33 0 -50.5 15t-17.5 41q0 27 17.5 42t50.5 15q32 0 50 -15t18 -42zM210 484v-484h-134v484h134z" />
    <glyph glyph-name="imacron" unicode="&#x12b;" horiz-adv-x="286" 
d="M284 688v-78h-282v78h282zM210 484v-484h-134v484h134z" />
    <glyph glyph-name="ibreve" unicode="&#x12d;" horiz-adv-x="286" 
d="M81 718q2 -60 62 -60q59 0 61 60h95q-1 -38 -13 -64t-32.5 -42.5t-49 -24t-61.5 -7.5q-68 0 -111 31.5t-46 106.5h95zM210 484v-484h-134v484h134z" />
    <glyph glyph-name="iogonek" unicode="&#x12f;" horiz-adv-x="286" 
d="M76 0v484h134v-484q-19 -16 -36.5 -39.5t-17.5 -45.5q0 -14 9.5 -19.5t24.5 -5.5q11 0 23.5 2.5t25.5 7.5l13 -74q-40 -17 -88 -17q-45 0 -77 18.5t-32 63.5q0 37 19 65.5t42 43.5h-40zM222 659q0 -35 -21 -53t-59 -18q-37 0 -58.5 18t-21.5 53t21.5 53.5t58.5 18.5
q38 0 59 -18.5t21 -53.5z" />
    <glyph glyph-name="dotlessi" unicode="&#x131;" horiz-adv-x="286" 
d="M210 484v-484h-134v484h134z" />
    <glyph glyph-name="jcircumflex" unicode="&#x135;" horiz-adv-x="286" 
d="M210 484v-408q0 -48 -10 -85t-32 -69t-56.5 -61.5t-83.5 -60.5l-58 68q33 28 53.5 51.5t32 47.5t16 49.5t4.5 58.5v409h134zM200 730l107 -161h-107l-57 96l-59 -96h-107l107 161h116z" />
    <glyph glyph-name="kcommaaccent" unicode="&#x137;" horiz-adv-x="548" 
d="M210 730v-453l178 207h140l-173 -195q55 -11 91 -50.5t53 -102.5l38 -136h-144l-33 124q-12 46 -39 62.5t-57 18.5l-54 -54v-151h-134v730h134zM389 -46l-109 -142h-102l68 142h143z" />
    <glyph glyph-name="lacute" unicode="&#x13a;" horiz-adv-x="285" 
d="M210 730v-730h-134v730h134zM319 947l-125 -161h-103l84 161h144z" />
    <glyph glyph-name="lcaron" unicode="&#x13e;" horiz-adv-x="417" 
d="M210 730v-730h-134v730h134zM443 665l-82 -213h-95l49 213h128z" />
    <glyph glyph-name="lcommaaccent" unicode="&#x13c;" horiz-adv-x="286" 
d="M210 730v-730h-134v730h134zM215 -46l-109 -142h-102l68 142h143z" />
    <glyph glyph-name="lslash" unicode="&#x142;" horiz-adv-x="318" 
d="M226 730v-282l72 29v-102l-72 -29v-346h-134v294l-72 -28v101l72 29v334h134z" />
    <glyph glyph-name="nacute" unicode="&#x144;" horiz-adv-x="586" 
d="M74 457q18 6 43.5 12.5t54.5 12.5t61 9.5t64 3.5q49 0 90 -9t70.5 -29.5t46 -54t16.5 -83.5v-319h-134v314q0 25 -7 41t-19 26t-29 14t-37 4t-44.5 -3t-41.5 -8v-388h-134v457zM468 730l-125 -161h-103l84 161h144z" />
    <glyph glyph-name="ncaron" unicode="&#x148;" horiz-adv-x="586" 
d="M74 457q18 6 43.5 12.5t54.5 12.5t61 9.5t64 3.5q49 0 90 -9t70.5 -29.5t46 -54t16.5 -83.5v-319h-134v314q0 25 -7 41t-19 26t-29 14t-37 4t-44.5 -3t-41.5 -8v-388h-134v457zM238 569l-107 161h107l59 -97l57 97h107l-107 -161h-116z" />
    <glyph glyph-name="ntilde" unicode="&#xf1;" horiz-adv-x="586" 
d="M74 457q18 6 43.5 12.5t54.5 12.5t61 9.5t64 3.5q49 0 90 -9t70.5 -29.5t46 -54t16.5 -83.5v-319h-134v314q0 25 -7 41t-19 26t-29 14t-37 4t-44.5 -3t-41.5 -8v-388h-134v457zM132 616q9 37 34 63t69 26q19 0 35.5 -5t31 -11.5t26.5 -11.5t22 -5q17 0 23.5 13t11.5 27
l78 -28q-14 -43 -39 -68t-67 -25q-17 0 -32.5 5t-30 11.5t-26.5 11.5t-21 5q-18 0 -25.5 -12t-12.5 -26z" />
    <glyph glyph-name="ncommaaccent" unicode="&#x146;" horiz-adv-x="586" 
d="M74 457q18 6 43.5 12.5t54.5 12.5t61 9.5t64 3.5q49 0 90 -9t70.5 -29.5t46 -54t16.5 -83.5v-319h-134v314q0 25 -7 41t-19 26t-29 14t-37 4t-44.5 -3t-41.5 -8v-388h-134v457zM382 -46l-109 -142h-102l68 142h143z" />
    <glyph glyph-name="ograve" unicode="&#xf2;" horiz-adv-x="563" 
d="M521 242q0 -134 -61.5 -193.5t-178.5 -59.5q-116 0 -177.5 59.5t-61.5 193.5t61.5 193.5t177.5 59.5q117 0 178.5 -59.5t61.5 -193.5zM382 242q0 45 -6 75t-18.5 48.5t-31.5 26t-44 7.5q-26 0 -45 -7.5t-31.5 -26t-18.5 -48.5t-6 -75t6 -75t18.5 -48.5t31.5 -26t45 -7.5
q25 0 44 7.5t31.5 26t18.5 48.5t6 75zM250 730l83 -161h-101l-126 161h144z" />
    <glyph glyph-name="oacute" unicode="&#xf3;" horiz-adv-x="563" 
d="M521 242q0 -134 -61.5 -193.5t-178.5 -59.5q-116 0 -177.5 59.5t-61.5 193.5t61.5 193.5t177.5 59.5q117 0 178.5 -59.5t61.5 -193.5zM382 242q0 45 -6 75t-18.5 48.5t-31.5 26t-44 7.5q-26 0 -45 -7.5t-31.5 -26t-18.5 -48.5t-6 -75t6 -75t18.5 -48.5t31.5 -26t45 -7.5
q25 0 44 7.5t31.5 26t18.5 48.5t6 75zM455 730l-125 -161h-103l84 161h144z" />
    <glyph glyph-name="ocircumflex" unicode="&#xf4;" horiz-adv-x="563" 
d="M521 242q0 -134 -61.5 -193.5t-178.5 -59.5q-116 0 -177.5 59.5t-61.5 193.5t61.5 193.5t177.5 59.5q117 0 178.5 -59.5t61.5 -193.5zM382 242q0 45 -6 75t-18.5 48.5t-31.5 26t-44 7.5q-26 0 -45 -7.5t-31.5 -26t-18.5 -48.5t-6 -75t6 -75t18.5 -48.5t31.5 -26t45 -7.5
q25 0 44 7.5t31.5 26t18.5 48.5t6 75zM339 730l107 -161h-107l-57 96l-59 -96h-107l107 161h116z" />
    <glyph glyph-name="otilde" unicode="&#xf5;" horiz-adv-x="563" 
d="M521 242q0 -134 -61.5 -193.5t-178.5 -59.5q-116 0 -177.5 59.5t-61.5 193.5t61.5 193.5t177.5 59.5q117 0 178.5 -59.5t61.5 -193.5zM382 242q0 45 -6 75t-18.5 48.5t-31.5 26t-44 7.5q-26 0 -45 -7.5t-31.5 -26t-18.5 -48.5t-6 -75t6 -75t18.5 -48.5t31.5 -26t45 -7.5
q25 0 44 7.5t31.5 26t18.5 48.5t6 75zM116 616q9 37 34 63t69 26q19 0 35.5 -5t31 -11.5t26.5 -11.5t22 -5q17 0 23.5 13t11.5 27l78 -28q-14 -43 -39 -68t-67 -25q-17 0 -32.5 5t-30 11.5t-26.5 11.5t-21 5q-18 0 -25.5 -12t-12.5 -26z" />
    <glyph glyph-name="odieresis" unicode="&#xf6;" horiz-adv-x="563" 
d="M521 242q0 -134 -61.5 -193.5t-178.5 -59.5q-116 0 -177.5 59.5t-61.5 193.5t61.5 193.5t177.5 59.5q117 0 178.5 -59.5t61.5 -193.5zM382 242q0 45 -6 75t-18.5 48.5t-31.5 26t-44 7.5q-26 0 -45 -7.5t-31.5 -26t-18.5 -48.5t-6 -75t6 -75t18.5 -48.5t31.5 -26t45 -7.5
q25 0 44 7.5t31.5 26t18.5 48.5t6 75zM254 650q0 -26 -18 -41t-50 -15q-33 0 -51 15t-18 41q0 27 18 42t51 15q32 0 50 -15t18 -42zM445 650q0 -26 -18 -41t-50 -15q-33 0 -50.5 15t-17.5 41q0 27 17.5 42t50.5 15q32 0 50 -15t18 -42z" />
    <glyph glyph-name="omacron" unicode="&#x14d;" horiz-adv-x="563" 
d="M521 242q0 -134 -61.5 -193.5t-178.5 -59.5q-116 0 -177.5 59.5t-61.5 193.5t61.5 193.5t177.5 59.5q117 0 178.5 -59.5t61.5 -193.5zM382 242q0 45 -6 75t-18.5 48.5t-31.5 26t-44 7.5q-26 0 -45 -7.5t-31.5 -26t-18.5 -48.5t-6 -75t6 -75t18.5 -48.5t31.5 -26t45 -7.5
q25 0 44 7.5t31.5 26t18.5 48.5t6 75zM422 688v-78h-282v78h282z" />
    <glyph glyph-name="obreve" unicode="&#x14f;" horiz-adv-x="563" 
d="M521 242q0 -134 -61.5 -193.5t-178.5 -59.5q-116 0 -177.5 59.5t-61.5 193.5t61.5 193.5t177.5 59.5q117 0 178.5 -59.5t61.5 -193.5zM382 242q0 45 -6 75t-18.5 48.5t-31.5 26t-44 7.5q-26 0 -45 -7.5t-31.5 -26t-18.5 -48.5t-6 -75t6 -75t18.5 -48.5t31.5 -26t45 -7.5
q25 0 44 7.5t31.5 26t18.5 48.5t6 75zM220 718q2 -60 62 -60q59 0 61 60h95q-1 -38 -13 -64t-32.5 -42.5t-49 -24t-61.5 -7.5q-68 0 -111 31.5t-46 106.5h95z" />
    <glyph glyph-name="ohungarumlaut" unicode="&#x151;" horiz-adv-x="563" 
d="M521 242q0 -134 -61.5 -193.5t-178.5 -59.5q-116 0 -177.5 59.5t-61.5 193.5t61.5 193.5t177.5 59.5q117 0 178.5 -59.5t61.5 -193.5zM382 242q0 45 -6 75t-18.5 48.5t-31.5 26t-44 7.5q-26 0 -45 -7.5t-31.5 -26t-18.5 -48.5t-6 -75t6 -75t18.5 -48.5t31.5 -26t45 -7.5
q25 0 44 7.5t31.5 26t18.5 48.5t6 75zM490 730l-88 -161h-87l50 161h125zM311 730l-53 -161h-91l30 161h114z" />
    <glyph glyph-name="oslash" unicode="&#xf8;" horiz-adv-x="563" 
d="M450 443q71 -60 71 -201q0 -134 -61.5 -193.5t-178.5 -59.5q-64 0 -112 18l-59 -92l-56 33l59 92q-71 60 -71 202q0 134 61.5 193.5t177.5 59.5q66 0 113 -19l56 88l55 -34zM228 98q20 -13 54 -13q25 0 44 7.5t31.5 26t18.5 48.5t6 75q0 53 -10 82zM336 386
q-22 13 -54 13q-26 0 -45 -7.5t-31.5 -26t-18.5 -48.5t-6 -75q0 -52 10 -81z" />
    <glyph glyph-name="oslashacute" unicode="&#x1ff;" horiz-adv-x="563" 
d="M455 730l-125 -161h-103l84 161h144zM450 443q71 -60 71 -201q0 -134 -61.5 -193.5t-178.5 -59.5q-64 0 -112 18l-59 -92l-56 33l59 92q-71 60 -71 202q0 134 61.5 193.5t177.5 59.5q66 0 113 -19l56 88l55 -34zM228 98q20 -13 54 -13q25 0 44 7.5t31.5 26t18.5 48.5
t6 75q0 53 -10 82zM336 386q-22 13 -54 13q-26 0 -45 -7.5t-31.5 -26t-18.5 -48.5t-6 -75q0 -52 10 -81z" />
    <glyph glyph-name="oe" unicode="&#x153;" horiz-adv-x="862" 
d="M523 205q2 -64 31.5 -92t106.5 -28q15 0 34.5 1.5t38 4.5t35.5 6.5t28 6.5l12 -92q-32 -10 -76 -16.5t-91 -6.5q-63 0 -110.5 14t-77.5 52q-28 -35 -71 -50.5t-102 -15.5q-116 0 -177.5 59.5t-61.5 193.5t61.5 193.5t177.5 59.5q115 0 169 -63q26 35 67.5 49t98.5 14
q54 0 92.5 -14.5t63 -41.5t36 -65t11.5 -86v-83h-296zM382 242q0 45 -6 75t-18.5 48.5t-31.5 26t-44 7.5q-26 0 -45 -7.5t-31.5 -26t-18.5 -48.5t-6 -75t6 -75t18.5 -48.5t31.5 -26t45 -7.5q25 0 44 7.5t31.5 26t18.5 48.5t6 75zM692 284q0 63 -18 94t-63 31
q-47 0 -66.5 -31.5t-21.5 -93.5h169z" />
    <glyph glyph-name="racute" unicode="&#x155;" horiz-adv-x="373" 
d="M73 457q68 21 138.5 29.5t143.5 8.5v-98q-39 0 -78 -2t-70 -9v-386h-134v457zM378 730l-125 -161h-103l84 161h144z" />
    <glyph glyph-name="rcommaaccent" unicode="&#x157;" horiz-adv-x="373" 
d="M73 457q68 21 138.5 29.5t143.5 8.5v-98q-39 0 -78 -2t-70 -9v-386h-134v457zM212 -46l-109 -142h-102l68 142h143z" />
    <glyph glyph-name="rcaron" unicode="&#x159;" horiz-adv-x="373" 
d="M73 457q68 21 138.5 29.5t143.5 8.5v-98q-39 0 -78 -2t-70 -9v-386h-134v457zM156 569l-107 161h107l59 -97l57 97h107l-107 -161h-116z" />
    <glyph glyph-name="sacute" unicode="&#x15b;" horiz-adv-x="468" 
d="M407 389q-27 5 -58 8.5t-69 3.5q-48 0 -72 -8t-24 -34q0 -16 18 -28.5t45.5 -25t59.5 -27t59.5 -34.5t45.5 -48t18 -67q0 -38 -16 -64.5t-44.5 -43.5t-66.5 -24.5t-83 -7.5q-54 0 -98.5 7t-73.5 16l12 93q28 -8 70 -14t79 -6q44 0 62.5 9.5t18.5 35.5q0 18 -18 31.5
t-44.5 26.5t-57.5 27t-57.5 33t-44.5 44.5t-18 62.5q0 42 17.5 69.5t48 43t72.5 21.5t91 6q41 0 76 -3.5t61 -8.5zM395 730l-125 -161h-103l84 161h144z" />
    <glyph glyph-name="scircumflex" unicode="&#x15d;" horiz-adv-x="468" 
d="M407 389q-27 5 -58 8.5t-69 3.5q-48 0 -72 -8t-24 -34q0 -16 18 -28.5t45.5 -25t59.5 -27t59.5 -34.5t45.5 -48t18 -67q0 -38 -16 -64.5t-44.5 -43.5t-66.5 -24.5t-83 -7.5q-54 0 -98.5 7t-73.5 16l12 93q28 -8 70 -14t79 -6q44 0 62.5 9.5t18.5 35.5q0 18 -18 31.5
t-44.5 26.5t-57.5 27t-57.5 33t-44.5 44.5t-18 62.5q0 42 17.5 69.5t48 43t72.5 21.5t91 6q41 0 76 -3.5t61 -8.5zM299 730l107 -161h-107l-57 96l-59 -96h-107l107 161h116z" />
    <glyph glyph-name="scaron" unicode="&#x161;" horiz-adv-x="468" 
d="M407 389q-27 5 -58 8.5t-69 3.5q-48 0 -72 -8t-24 -34q0 -16 18 -28.5t45.5 -25t59.5 -27t59.5 -34.5t45.5 -48t18 -67q0 -38 -16 -64.5t-44.5 -43.5t-66.5 -24.5t-83 -7.5q-54 0 -98.5 7t-73.5 16l12 93q28 -8 70 -14t79 -6q44 0 62.5 9.5t18.5 35.5q0 18 -18 31.5
t-44.5 26.5t-57.5 27t-57.5 33t-44.5 44.5t-18 62.5q0 42 17.5 69.5t48 43t72.5 21.5t91 6q41 0 76 -3.5t61 -8.5zM178 569l-107 161h107l59 -97l57 97h107l-107 -161h-116z" />
    <glyph glyph-name="scedilla" unicode="&#x15f;" horiz-adv-x="468" 
d="M407 389q-27 5 -58 8.5t-69 3.5q-48 0 -72 -8t-24 -34q0 -16 18 -28.5t45.5 -25t59.5 -27t59.5 -34.5t45.5 -48t18 -67q0 -38 -16 -64.5t-44.5 -43.5t-66.5 -24.5t-83 -7.5q-54 0 -98.5 7t-73.5 16l12 93q28 -8 70 -14t79 -6q44 0 62.5 9.5t18.5 35.5q0 18 -18 31.5
t-44.5 26.5t-57.5 27t-57.5 33t-44.5 44.5t-18 62.5q0 42 17.5 69.5t48 43t72.5 21.5t91 6q41 0 76 -3.5t61 -8.5zM311 -37q12 -15 21.5 -35.5t9.5 -40.5q0 -39 -23.5 -62t-82.5 -23q-23 0 -48.5 3.5t-44.5 11.5l15 73q11 -4 25.5 -6.5t24.5 -2.5q19 0 25 6.5t6 20.5
q0 12 -6 26.5t-15 28.5h93z" />
    <glyph glyph-name="scommaaccent" unicode="&#x219;" horiz-adv-x="468" 
d="M407 389q-27 5 -58 8.5t-69 3.5q-48 0 -72 -8t-24 -34q0 -16 18 -28.5t45.5 -25t59.5 -27t59.5 -34.5t45.5 -48t18 -67q0 -38 -16 -64.5t-44.5 -43.5t-66.5 -24.5t-83 -7.5q-54 0 -98.5 7t-73.5 16l12 93q28 -8 70 -14t79 -6q44 0 62.5 9.5t18.5 35.5q0 18 -18 31.5
t-44.5 26.5t-57.5 27t-57.5 33t-44.5 44.5t-18 62.5q0 42 17.5 69.5t48 43t72.5 21.5t91 6q41 0 76 -3.5t61 -8.5zM342 -46l-109 -142h-102l68 142h143z" />
    <glyph glyph-name="germandbls" unicode="&#xdf;" horiz-adv-x="566" 
d="M72 565q0 85 52 130.5t162 45.5q54 0 92.5 -13.5t64 -36.5t37.5 -53.5t12 -63.5q0 -42 -13.5 -70.5t-30 -49.5t-30 -39.5t-13.5 -40.5q0 -21 22 -45t49 -54t49 -67t22 -82q0 -37 -11.5 -63t-32.5 -42.5t-51 -24t-66 -7.5q-29 0 -58 4t-54 9l5 92q20 -5 42 -8.5t41 -3.5
q28 0 42.5 10.5t14.5 37.5t-20 48.5t-44 46t-44 56t-20 78.5q0 37 12 62t26.5 47t26.5 45t12 56q0 39 -21.5 57.5t-58.5 18.5q-81 0 -81 -80v-565h-135v565z" />
    <glyph glyph-name="longs" unicode="&#x17f;" horiz-adv-x="365" 
d="M97 484v81q0 90 54.5 132.5t147.5 42.5q25 0 53.5 -2.5t49.5 -6.5l-12 -93q-18 2 -38.5 4t-37.5 2q-36 0 -59.5 -16.5t-23.5 -62.5v-565h-134v390h-76v94h76z" />
    <glyph glyph-name="tcaron" unicode="&#x165;" horiz-adv-x="402" 
d="M425 665l-70 -140h-81l42 140h109zM229 621v-137h134v-94h-134v-259q0 -26 15.5 -36t38.5 -10q21 0 43 4t38 9l3 -93q-25 -8 -52.5 -12t-56.5 -4q-75 0 -119 36t-44 113v252h-76v94h76l26 137h108z" />
    <glyph glyph-name="tcommaaccent" unicode="&#x163;" horiz-adv-x="392" 
d="M229 621v-137h134v-94h-134v-259q0 -26 15.5 -36t38.5 -10q21 0 43 4t38 9l3 -93q-25 -8 -52.5 -12t-56.5 -4q-75 0 -119 36t-44 113v252h-76v94h76l26 137h108zM316 -46l-109 -142h-102l68 142h143z" />
    <glyph glyph-name="tbar" unicode="&#x167;" horiz-adv-x="398" 
d="M234 621v-137h134v-94h-134v-98h111v-89h-111v-72q0 -26 15.5 -36t38.5 -10q21 0 43.5 4t37.5 9l3 -93q-26 -8 -53.5 -12t-55.5 -4q-75 0 -119 36t-44 113v65h-76v89h76v98h-76v94h76l26 137h108z" />
    <glyph glyph-name="ugrave" unicode="&#xf9;" horiz-adv-x="579" 
d="M505 26q-41 -14 -100 -25.5t-119 -11.5q-46 0 -86 8.5t-70 29t-47 55t-17 87.5v315h134v-319q0 -45 23.5 -62.5t65.5 -17.5q21 0 44 2.5t38 7.5v389h134v-458zM258 730l83 -161h-101l-126 161h144z" />
    <glyph glyph-name="uacute" unicode="&#xfa;" horiz-adv-x="579" 
d="M505 26q-41 -14 -100 -25.5t-119 -11.5q-46 0 -86 8.5t-70 29t-47 55t-17 87.5v315h134v-319q0 -45 23.5 -62.5t65.5 -17.5q21 0 44 2.5t38 7.5v389h134v-458zM459 730l-125 -161h-103l84 161h144z" />
    <glyph glyph-name="ucircumflex" unicode="&#xfb;" horiz-adv-x="579" 
d="M505 26q-41 -14 -100 -25.5t-119 -11.5q-46 0 -86 8.5t-70 29t-47 55t-17 87.5v315h134v-319q0 -45 23.5 -62.5t65.5 -17.5q21 0 44 2.5t38 7.5v389h134v-458zM345 730l107 -161h-107l-57 96l-59 -96h-107l107 161h116z" />
    <glyph glyph-name="utilde" unicode="&#x169;" horiz-adv-x="579" 
d="M505 26q-41 -14 -100 -25.5t-119 -11.5q-46 0 -86 8.5t-70 29t-47 55t-17 87.5v315h134v-319q0 -45 23.5 -62.5t65.5 -17.5q21 0 44 2.5t38 7.5v389h134v-458zM122 616q9 37 34 63t69 26q19 0 35.5 -5t31 -11.5t26.5 -11.5t22 -5q17 0 23.5 13t11.5 27l78 -28
q-14 -43 -39 -68t-67 -25q-17 0 -32.5 5t-30 11.5t-26.5 11.5t-21 5q-18 0 -25.5 -12t-12.5 -26z" />
    <glyph glyph-name="udieresis" unicode="&#xfc;" horiz-adv-x="579" 
d="M505 26q-41 -14 -100 -25.5t-119 -11.5q-46 0 -86 8.5t-70 29t-47 55t-17 87.5v315h134v-319q0 -45 23.5 -62.5t65.5 -17.5q21 0 44 2.5t38 7.5v389h134v-458zM260 650q0 -26 -18 -41t-50 -15q-33 0 -51 15t-18 41q0 27 18 42t51 15q32 0 50 -15t18 -42zM451 650
q0 -26 -18 -41t-50 -15q-33 0 -50.5 15t-17.5 41q0 27 17.5 42t50.5 15q32 0 50 -15t18 -42z" />
    <glyph glyph-name="umacron" unicode="&#x16b;" horiz-adv-x="579" 
d="M505 26q-41 -14 -100 -25.5t-119 -11.5q-46 0 -86 8.5t-70 29t-47 55t-17 87.5v315h134v-319q0 -45 23.5 -62.5t65.5 -17.5q21 0 44 2.5t38 7.5v389h134v-458zM431 688v-78h-282v78h282z" />
    <glyph glyph-name="ubreve" unicode="&#x16d;" horiz-adv-x="579" 
d="M505 26q-41 -14 -100 -25.5t-119 -11.5q-46 0 -86 8.5t-70 29t-47 55t-17 87.5v315h134v-319q0 -45 23.5 -62.5t65.5 -17.5q21 0 44 2.5t38 7.5v389h134v-458zM229 718q2 -60 62 -60q59 0 61 60h95q-1 -38 -13 -64t-32.5 -42.5t-49 -24t-61.5 -7.5q-68 0 -111 31.5
t-46 106.5h95z" />
    <glyph glyph-name="uring" unicode="&#x16f;" horiz-adv-x="579" 
d="M505 26q-41 -14 -100 -25.5t-119 -11.5q-46 0 -86 8.5t-70 29t-47 55t-17 87.5v315h134v-319q0 -45 23.5 -62.5t65.5 -17.5q21 0 44 2.5t38 7.5v389h134v-458zM406 648q0 -47 -31.5 -68t-85.5 -21q-53 0 -84.5 21t-31.5 68q0 48 31.5 69t84.5 21q54 0 85.5 -21t31.5 -69z
M329 648q0 35 -40 35q-39 0 -39 -35t39 -35q40 0 40 35z" />
    <glyph glyph-name="uhungarumlaut" unicode="&#x171;" horiz-adv-x="579" 
d="M505 26q-41 -14 -100 -25.5t-119 -11.5q-46 0 -86 8.5t-70 29t-47 55t-17 87.5v315h134v-319q0 -45 23.5 -62.5t65.5 -17.5q21 0 44 2.5t38 7.5v389h134v-458zM490 730l-88 -161h-87l50 161h125zM311 730l-53 -161h-91l30 161h114z" />
    <glyph glyph-name="uogonek" unicode="&#x173;" horiz-adv-x="579" 
d="M505 25q-18 -16 -35.5 -39.5t-17.5 -44.5q0 -26 34 -26q10 0 23 2.5t25 7.5l14 -74q-40 -17 -88 -17q-23 0 -43 4.5t-35 14t-23.5 25.5t-8.5 39q0 24 9.5 44.5t23.5 35.5q-23 -3 -48 -5.5t-49 -2.5q-46 0 -86 8.5t-70 29t-47 55t-17 87.5v315h134v-319q0 -45 23.5 -62.5
t65.5 -17.5q21 0 44 2.5t38 7.5v389h134v-459z" />
    <glyph glyph-name="wgrave" unicode="&#x1e81;" horiz-adv-x="858" 
d="M498 484l109 -367l101 367h140l-151 -484h-163l-105 357l-105 -357h-163l-151 484h140l101 -368l109 368h138zM395 730l83 -161h-101l-126 161h144z" />
    <glyph glyph-name="wacute" unicode="&#x1e83;" horiz-adv-x="858" 
d="M498 484l109 -367l101 367h140l-151 -484h-163l-105 357l-105 -357h-163l-151 484h140l101 -368l109 368h138zM609 730l-125 -161h-103l84 161h144z" />
    <glyph glyph-name="wcircumflex" unicode="&#x175;" horiz-adv-x="858" 
d="M498 484l109 -367l101 367h140l-151 -484h-163l-105 357l-105 -357h-163l-151 484h140l101 -368l109 368h138zM487 730l107 -161h-107l-57 96l-59 -96h-107l107 161h116z" />
    <glyph glyph-name="wdieresis" unicode="&#x1e85;" horiz-adv-x="858" 
d="M498 484l109 -367l101 367h140l-151 -484h-163l-105 357l-105 -357h-163l-151 484h140l101 -368l109 368h138zM402 650q0 -26 -18 -41t-50 -15q-33 0 -51 15t-18 41q0 27 18 42t51 15q32 0 50 -15t18 -42zM593 650q0 -26 -18 -41t-50 -15q-33 0 -50.5 15t-17.5 41
q0 27 17.5 42t50.5 15q32 0 50 -15t18 -42z" />
    <glyph glyph-name="ygrave" unicode="&#x1ef3;" horiz-adv-x="581" 
d="M505 484v-473q0 -62 -17.5 -102.5t-49 -64.5t-75.5 -33.5t-98 -9.5q-23 0 -47.5 2t-47.5 5.5t-43 8t-34 8.5l12 94q29 -8 73 -15t82 -7q57 0 84 19.5t27 73.5v20q-20 -5 -44.5 -7.5t-45.5 -2.5q-45 0 -84 8.5t-68 29t-46 55t-17 87.5v304h134v-308q0 -45 24.5 -62.5
t64.5 -17.5q21 0 44 3t38 8v377h134zM260 730l83 -161h-101l-126 161h144z" />
    <glyph glyph-name="yacute" unicode="&#xfd;" horiz-adv-x="581" 
d="M505 484v-473q0 -62 -17.5 -102.5t-49 -64.5t-75.5 -33.5t-98 -9.5q-23 0 -47.5 2t-47.5 5.5t-43 8t-34 8.5l12 94q29 -8 73 -15t82 -7q57 0 84 19.5t27 73.5v20q-20 -5 -44.5 -7.5t-45.5 -2.5q-45 0 -84 8.5t-68 29t-46 55t-17 87.5v304h134v-308q0 -45 24.5 -62.5
t64.5 -17.5q21 0 44 3t38 8v377h134zM459 730l-125 -161h-103l84 161h144z" />
    <glyph glyph-name="ycircumflex" unicode="&#x177;" horiz-adv-x="581" 
d="M505 484v-473q0 -62 -17.5 -102.5t-49 -64.5t-75.5 -33.5t-98 -9.5q-23 0 -47.5 2t-47.5 5.5t-43 8t-34 8.5l12 94q29 -8 73 -15t82 -7q57 0 84 19.5t27 73.5v20q-20 -5 -44.5 -7.5t-45.5 -2.5q-45 0 -84 8.5t-68 29t-46 55t-17 87.5v304h134v-308q0 -45 24.5 -62.5
t64.5 -17.5q21 0 44 3t38 8v377h134zM337 730l107 -161h-107l-57 96l-59 -96h-107l107 161h116z" />
    <glyph glyph-name="ydieresis" unicode="&#xff;" horiz-adv-x="581" 
d="M505 484v-473q0 -62 -17.5 -102.5t-49 -64.5t-75.5 -33.5t-98 -9.5q-23 0 -47.5 2t-47.5 5.5t-43 8t-34 8.5l12 94q29 -8 73 -15t82 -7q57 0 84 19.5t27 73.5v20q-20 -5 -44.5 -7.5t-45.5 -2.5q-45 0 -84 8.5t-68 29t-46 55t-17 87.5v304h134v-308q0 -45 24.5 -62.5
t64.5 -17.5q21 0 44 3t38 8v377h134zM261 650q0 -26 -18 -41t-50 -15q-33 0 -51 15t-18 41q0 27 18 42t51 15q32 0 50 -15t18 -42zM452 650q0 -26 -18 -41t-50 -15q-33 0 -50.5 15t-17.5 41q0 27 17.5 42t50.5 15q32 0 50 -15t18 -42z" />
    <glyph glyph-name="zacute" unicode="&#x17a;" horiz-adv-x="498" 
d="M452 484v-83l-247 -307h258v-94h-425v83l251 307h-241v94h404zM422 730l-125 -161h-103l84 161h144z" />
    <glyph glyph-name="zcaron" unicode="&#x17e;" horiz-adv-x="498" 
d="M452 484v-83l-247 -307h258v-94h-425v83l251 307h-241v94h404zM196 569l-107 161h107l59 -97l57 97h107l-107 -161h-116z" />
    <glyph glyph-name="zdotaccent" unicode="&#x17c;" horiz-adv-x="498" 
d="M452 484v-83l-247 -307h258v-94h-425v83l251 307h-241v94h404zM327 650q0 -28 -18.5 -43t-52.5 -15q-71 0 -71 58q0 28 18 43.5t53 15.5q34 0 52.5 -15.5t18.5 -43.5z" />
    <glyph glyph-name="eng" unicode="&#x14b;" horiz-adv-x="586" 
d="M74 457q18 6 43.5 12.5t54.5 12.5t61 9.5t64 3.5q49 0 90 -9t70.5 -29.5t46 -54t16.5 -83.5v-244q0 -48 -10 -85t-32 -68.5t-56.5 -61t-83.5 -60.5l-58 68q33 28 53.5 52t32 47t16 48.5t4.5 58.5v240q0 25 -7 41t-19 26t-29 14t-37 4t-44.5 -3t-41.5 -8v-388h-134v457z
" />
    <glyph glyph-name="eth" unicode="&#xf0;" horiz-adv-x="564" 
d="M350 730q18 -19 32 -36.5t28 -37.5l118 22v-77l-76 -14q40 -83 54.5 -160t14.5 -162q0 -132 -59.5 -204t-180.5 -72q-114 0 -176.5 59t-62.5 194q0 128 57.5 190.5t166.5 62.5q85 0 121 -41q-3 12 -8.5 26.5t-11.5 30t-13 30t-14 25.5l-185 -33v77l144 26q-16 23 -33 45
t-41 49h125zM381 241q0 80 -21 119t-80 39q-26 0 -44.5 -7.5t-31 -26t-18.5 -48.5t-6 -75q0 -89 24.5 -123t75.5 -34q25 0 44 8t32 26t19 48t6 74z" />
    <glyph glyph-name="thorn" unicode="&#xfe;" horiz-adv-x="576" 
d="M210 730v-243q46 8 87 8q51 0 94.5 -13t75 -42t49.5 -76t18 -115q0 -76 -17.5 -126t-47.5 -80t-71 -42t-88 -12q-24 0 -51 3.5t-49 7.5v-188h-134v918h134zM210 96q23 -5 43.5 -8t43.5 -3q24 0 42 7.5t30.5 26t19 50t6.5 79.5q0 46 -7 75t-20 46t-31.5 23.5t-41.5 6.5
q-20 0 -44.5 -3.5t-40.5 -7.5v-292z" />
    <glyph glyph-name="ampersand" unicode="&#x26;" horiz-adv-x="659" 
d="M473 222q15 20 28 51.5t21 65.5l110 -23q-5 -23 -13.5 -48.5t-19.5 -50.5t-24.5 -47t-27.5 -38l118 -132h-168l-43 48q-35 -28 -82 -44t-107 -16q-109 0 -170.5 46.5t-61.5 143.5q0 34 9.5 61.5t27.5 50t42.5 42t54.5 36.5q-31 33 -54.5 70.5t-23.5 85.5q0 75 51 113.5
t145 38.5q90 0 142.5 -37t52.5 -111q0 -57 -33.5 -99.5t-84.5 -77.5zM247 285q-38 -23 -57.5 -45.5t-19.5 -63.5q0 -49 29 -69.5t76 -20.5q32 0 60.5 11t50.5 31zM282 425q30 23 50.5 46.5t20.5 57.5q0 32 -19 45t-48 13q-28 0 -47 -13t-19 -45q0 -29 19.5 -53t42.5 -51z
" />
    <glyph glyph-name="grave" unicode="`" horiz-adv-x="550" 
d="M266 730l83 -161h-101l-126 161h144z" />
    <glyph glyph-name="acute" unicode="&#xb4;" horiz-adv-x="550" 
d="M425 730l-125 -161h-103l84 161h144z" />
    <glyph glyph-name="circumflex" unicode="&#x2c6;" horiz-adv-x="550" 
d="M332 730l107 -161h-107l-57 96l-59 -96h-107l107 161h116z" />
    <glyph glyph-name="caron" unicode="&#x2c7;" horiz-adv-x="550" 
d="M216 569l-107 161h107l59 -97l57 97h107l-107 -161h-116z" />
    <glyph glyph-name="tilde" unicode="&#x2dc;" horiz-adv-x="550" 
d="M109 616q9 37 34 63t69 26q19 0 35.5 -5t31 -11.5t26.5 -11.5t22 -5q17 0 23.5 13t11.5 27l78 -28q-14 -43 -39 -68t-67 -25q-17 0 -32.5 5t-30 11.5t-26.5 11.5t-21 5q-18 0 -25.5 -12t-12.5 -26z" />
    <glyph glyph-name="dieresis" unicode="&#xa8;" horiz-adv-x="550" 
d="M247 650q0 -26 -18 -41t-50 -15q-33 0 -51 15t-18 41q0 27 18 42t51 15q32 0 50 -15t18 -42zM438 650q0 -26 -18 -41t-50 -15q-33 0 -50.5 15t-17.5 41q0 27 17.5 42t50.5 15q32 0 50 -15t18 -42z" />
    <glyph glyph-name="macron" unicode="&#xaf;" horiz-adv-x="550" 
d="M416 688v-78h-282v78h282z" />
    <glyph glyph-name="breve" unicode="&#x2d8;" horiz-adv-x="550" 
d="M213 718q2 -60 62 -60q59 0 61 60h95q-1 -38 -13 -64t-32.5 -42.5t-49 -24t-61.5 -7.5q-68 0 -111 31.5t-46 106.5h95z" />
    <glyph glyph-name="ring" unicode="&#x2da;" horiz-adv-x="550" 
d="M391 648q0 -47 -31.5 -68t-85.5 -21q-53 0 -84.5 21t-31.5 68q0 48 31.5 69t84.5 21q54 0 85.5 -21t31.5 -69zM314 648q0 35 -40 35q-39 0 -39 -35t39 -35q40 0 40 35z" />
    <glyph glyph-name="hungarumlaut" unicode="&#x2dd;" horiz-adv-x="550" 
d="M467 730l-88 -161h-87l50 161h125zM288 730l-53 -161h-91l30 161h114z" />
    <glyph glyph-name="dotaccent" unicode="&#x2d9;" horiz-adv-x="550" 
d="M346 650q0 -28 -18.5 -43t-52.5 -15q-71 0 -71 58q0 28 18 43.5t53 15.5q34 0 52.5 -15.5t18.5 -43.5z" />
    <glyph glyph-name="cedilla" unicode="&#xb8;" horiz-adv-x="550" 
d="M334 -37q12 -15 21.5 -35.5t9.5 -40.5q0 -39 -23.5 -62t-82.5 -23q-23 0 -48.5 3.5t-44.5 11.5l15 73q11 -4 25.5 -6.5t24.5 -2.5q19 0 25 6.5t6 20.5q0 12 -6 26.5t-15 28.5h93z" />
    <glyph glyph-name="ogonek" unicode="&#x2db;" horiz-adv-x="550" 
d="M328 0q-18 -16 -35.5 -38t-17.5 -44q0 -14 9 -19.5t25 -5.5q10 0 23 2.5t25 7.5l14 -74q-40 -17 -88 -17q-45 0 -77.5 18.5t-32.5 63.5q0 37 19.5 64t42.5 42h93z" />
    <glyph glyph-name="commaaccentcomb" horiz-adv-x="550" 
d="M381 -46l-109 -142h-102l68 142h143z" />
    <glyph glyph-name="comma" unicode="," horiz-adv-x="274" 
d="M223 127l-104 -260h-96l65 260h135z" />
    <glyph glyph-name="semicolon" unicode=";" horiz-adv-x="274" 
d="M218 127l-104 -260h-96l65 260h135zM137 495q38 0 60.5 -18.5t22.5 -52.5q0 -33 -22.5 -52t-60.5 -19t-60.5 19t-22.5 52q0 34 22.5 52.5t60.5 18.5z" />
    <glyph glyph-name="colon" unicode=":" horiz-adv-x="274" 
d="M137 132q38 0 60.5 -18.5t22.5 -52.5q0 -33 -22.5 -52t-60.5 -19t-60.5 19t-22.5 52q0 34 22.5 52.5t60.5 18.5zM137 495q38 0 60.5 -18.5t22.5 -52.5q0 -33 -22.5 -52t-60.5 -19t-60.5 19t-22.5 52q0 34 22.5 52.5t60.5 18.5z" />
    <glyph glyph-name="period" unicode="." horiz-adv-x="274" 
d="M137 132q38 0 60.5 -18.5t22.5 -52.5q0 -33 -22.5 -52t-60.5 -19t-60.5 19t-22.5 52q0 34 22.5 52.5t60.5 18.5z" />
    <glyph glyph-name="ellipsis" unicode="&#x2026;" horiz-adv-x="833" 
d="M137 132q38 0 60.5 -18.5t22.5 -52.5q0 -33 -22.5 -52t-60.5 -19t-60.5 19t-22.5 52q0 34 22.5 52.5t60.5 18.5zM416 132q38 0 61 -18.5t23 -52.5q0 -33 -23 -52t-61 -19t-60.5 19t-22.5 52q0 34 22.5 52.5t60.5 18.5zM695 132q38 0 61 -18.5t23 -52.5q0 -33 -23 -52
t-61 -19q-37 0 -60 19t-23 52q0 34 23 52.5t60 18.5z" />
    <glyph glyph-name="hyphen" unicode="-" horiz-adv-x="396" 
d="M337 319v-96h-278v96h278z" />
    <glyph glyph-name="exclam" unicode="!" horiz-adv-x="302" 
d="M225 665l-21 -484h-103l-22 484h146zM73 55q0 32 21.5 49t56.5 17t56 -17t21 -49t-21 -49t-56 -17t-56.5 17t-21.5 49z" />
    <glyph glyph-name="exclamdown" unicode="&#xa1;" horiz-adv-x="302" 
d="M79 -188l22 484h103l21 -484h-146zM73 429q0 32 21.5 49t56.5 17t56 -17t21 -49t-21 -49t-56 -17t-56.5 17t-21.5 49z" />
    <glyph glyph-name="question" unicode="?" horiz-adv-x="445" 
d="M38 647q29 12 74.5 20t99.5 8q44 0 81.5 -9.5t64.5 -29t42.5 -50t15.5 -71.5q0 -39 -11 -67t-28 -49.5t-36.5 -39t-36.5 -35.5t-28 -38.5t-11 -47.5v-58h-112v65q0 40 9.5 69.5t24.5 52t31.5 39.5t31.5 32.5t24.5 31.5t9.5 36q0 38 -22 53.5t-66 16.5q-36 0 -74 -7
t-63 -18zM131 55q0 32 21.5 49t56.5 17t56 -17t21 -49t-21 -49t-56 -17t-56.5 17t-21.5 49z" />
    <glyph glyph-name="questiondown" unicode="&#xbf;" horiz-adv-x="391" 
d="M391 -163q-29 -12 -74.5 -20t-99.5 -8q-44 0 -81.5 9.5t-64.5 29t-42.5 50t-15.5 71.5q0 39 11 67t28 49.5t36.5 39t36.5 35.5t28 38t11 48v58h112v-65q0 -40 -9.5 -69.5t-24.5 -52t-31.5 -39.5t-31.5 -32.5t-24.5 -31.5t-9.5 -36q0 -38 22 -53.5t66 -16.5q36 0 74 7
t63 18zM298 429q0 -32 -21.5 -49t-56.5 -17t-56 17t-21 49t21 49t56 17t56.5 -17t21.5 -49z" />
    <glyph glyph-name="quoteleft" unicode="&#x2018;" horiz-adv-x="264" 
d="M44 452l82 213h95l-49 -213h-128z" />
    <glyph glyph-name="quoteright" unicode="&#x2019;" horiz-adv-x="264" 
d="M220 665l-82 -213h-95l49 213h128z" />
    <glyph glyph-name="quotedblleft" unicode="&#x201c;" horiz-adv-x="477" 
d="M271 452l58 213h95l-30 -213h-123zM52 452l91 213h96l-59 -213h-128z" />
    <glyph glyph-name="quotedblright" unicode="&#x201d;" horiz-adv-x="478" 
d="M205 665l-58 -213h-95l30 213h123zM425 665l-91 -213h-96l58 213h129z" />
    <glyph glyph-name="quotesinglbase" unicode="&#x201a;" horiz-adv-x="264" 
d="M220 53l-82 -213h-95l49 213h128z" />
    <glyph glyph-name="quotedblbase" unicode="&#x201e;" horiz-adv-x="470" 
d="M202 53l-59 -213h-94l29 213h124zM421 53l-91 -213h-96l59 213h128z" />
    <glyph glyph-name="guilsinglleft" unicode="&#x2039;" horiz-adv-x="364" 
d="M319 452l-131 -181l131 -181h-116l-158 181l158 181h116z" />
    <glyph glyph-name="guilsinglright" unicode="&#x203a;" horiz-adv-x="364" 
d="M161 452l158 -181l-158 -181h-116l131 181l-131 181h116z" />
    <glyph glyph-name="guillemotleft" unicode="&#xab;" horiz-adv-x="597" 
d="M320 452l-132 -181l132 -181h-117l-158 181l158 181h117zM552 452l-107 -181l107 -181h-116l-134 181l134 181h116z" />
    <glyph glyph-name="guillemotright" unicode="&#xbb;" horiz-adv-x="597" 
d="M394 452l158 -181l-158 -181h-117l133 181l-133 181h117zM162 452l133 -181l-133 -181h-117l108 181l-108 181h117z" />
    <glyph glyph-name="slash" unicode="/" horiz-adv-x="479" 
d="M475 730l-358 -783h-107l357 783h108z" />
    <glyph glyph-name="bar" unicode="|" horiz-adv-x="295" 
d="M200 800v-998h-105v998h105z" />
    <glyph glyph-name="endash" unicode="&#x2013;" horiz-adv-x="596" 
d="M537 315v-89h-478v89h478z" />
    <glyph glyph-name="emdash" unicode="&#x2014;" horiz-adv-x="808" 
d="M749 315v-89h-690v89h690z" />
    <glyph glyph-name="bullet" unicode="&#x2022;" horiz-adv-x="385" 
d="M193 386q57 0 92 -28.5t35 -86.5q0 -57 -35 -86.5t-92 -29.5q-56 0 -92.5 29.5t-36.5 86.5q0 58 36.5 86.5t92.5 28.5z" />
    <glyph glyph-name="periodcentered" unicode="&#xb7;" horiz-adv-x="275" 
d="M137 340q38 0 60.5 -18.5t22.5 -52.5q0 -33 -22.5 -52t-60.5 -19t-60.5 19t-22.5 52q0 34 22.5 52.5t60.5 18.5z" />
    <glyph glyph-name="parenleft" unicode="(" horiz-adv-x="338" 
d="M45 270q0 128 40.5 247t125.5 213h110q-38 -50 -68.5 -100.5t-52.5 -106t-34 -118t-12 -135.5q0 -72 12 -134t34 -117.5t52.5 -106.5t68.5 -100h-110q-85 93 -125.5 211.5t-40.5 246.5z" />
    <glyph glyph-name="parenright" unicode=")" horiz-adv-x="338" 
d="M293 270q0 -128 -40.5 -246.5t-125.5 -211.5h-110q37 49 68 100t53 106.5t34 117.5t12 134q0 73 -12 135.5t-34 118t-53 106t-68 100.5h110q85 -94 125.5 -213t40.5 -247z" />
    <glyph glyph-name="bracketleft" unicode="[" horiz-adv-x="333" 
d="M315 730v-85h-111v-748h111v-85h-220v918h220z" />
    <glyph glyph-name="bracketright" unicode="]" horiz-adv-x="333" 
d="M238 730v-918h-220v85h111v748h-111v85h220z" />
    <glyph glyph-name="braceleft" unicode="{" horiz-adv-x="381" 
d="M35 320q46 1 68.5 10.5t22.5 44.5q0 19 -3 43t-6 50t-6 52.5t-3 51.5q0 86 42.5 127.5t123.5 41.5q32 0 51 -2.5t36 -6.5l-9 -89q-12 3 -27.5 5t-29.5 2q-41 0 -58.5 -17.5t-17.5 -52.5q0 -23 2.5 -49.5t5.5 -53.5t5.5 -53.5t2.5 -49.5q0 -48 -23 -71t-65 -32
q42 -9 65 -32t23 -71q0 -23 -2.5 -49.5t-5.5 -53.5t-5.5 -53t-2.5 -49q0 -35 17.5 -52.5t58.5 -17.5q14 0 29.5 2t27.5 5l9 -89q-17 -4 -36 -6.5t-51 -2.5q-81 0 -123.5 41.5t-42.5 127.5q0 25 3 51.5t6 52t6 49.5t3 43q0 35 -22.5 44.5t-68.5 10.5v98z" />
    <glyph glyph-name="braceright" unicode="}" horiz-adv-x="381" 
d="M346 222q-46 -1 -68.5 -10.5t-22.5 -44.5q0 -19 3 -43t6 -49.5t6 -52t3 -51.5q0 -86 -42.5 -127.5t-123.5 -41.5q-32 0 -51 2.5t-36 6.5l9 89q12 -3 27.5 -5t29.5 -2q41 0 58.5 17.5t17.5 52.5q0 23 -2.5 49t-5.5 53t-5.5 53.5t-2.5 49.5q0 48 23 71t65 32q-42 9 -65 32
t-23 71q0 23 2.5 49.5t5.5 53.5t5.5 53.5t2.5 49.5q0 35 -17.5 52.5t-58.5 17.5q-14 0 -29.5 -2t-27.5 -5l-9 89q17 4 36 6.5t51 2.5q81 0 123.5 -41.5t42.5 -127.5q0 -25 -3 -51.5t-6 -52.5t-6 -50t-3 -43q0 -35 22.5 -44.5t68.5 -10.5v-98z" />
    <glyph glyph-name="asterisk" unicode="*" horiz-adv-x="433" 
d="M180 550l-17 115h107l-17 -115l125 49l31 -83l-135 -25l96 -83l-77 -62l-77 103l-76 -103l-76 62l95 83l-135 25l31 83z" />
    <glyph glyph-name="dagger" unicode="&#x2020;" horiz-adv-x="457" 
d="M285 665v-166h139v-88h-139v-263h-115v263h-137v88h137v166h115z" />
    <glyph glyph-name="daggerdbl" unicode="&#x2021;" horiz-adv-x="457" 
d="M285 665v-129h139v-88h-139v-80h139v-89h-139v-131h-115v131h-137v89h137v80h-137v88h137v129h115z" />
    <glyph glyph-name="section" unicode="&#xa7;" horiz-adv-x="574" 
d="M138 396q-25 22 -40 50t-15 65q0 48 18.5 80t51.5 51t78 26.5t99 7.5q40 0 83 -4.5t76 -10.5l-10 -95q-35 6 -76 11t-73 5q-52 0 -84 -14t-32 -52q0 -23 23 -41t57.5 -35.5t75 -37.5t75 -46.5t57.5 -61.5t23 -84q0 -54 -23 -85.5t-62 -48.5q17 -22 27 -49t10 -60
q0 -45 -16.5 -76.5t-47 -51t-73 -28.5t-94.5 -9q-57 0 -109 10t-86 21l16 95q33 -11 78.5 -20.5t95.5 -9.5q48 0 76 14t28 52q0 28 -21 49t-52 40t-68 38t-68 43.5t-52 56.5t-21 77q0 51 20 81t55 47zM230 334q-20 -8 -32.5 -22t-12.5 -35q0 -19 17.5 -35.5t44 -31.5
t57.5 -30.5t57 -32.5q18 7 29 20t11 36q0 21 -16.5 38t-41.5 32.5t-55.5 30.5t-57.5 30z" />
    <glyph glyph-name="paragraph" unicode="&#xb6;" horiz-adv-x="693" 
d="M431 -158h-89v384h-57q-64 0 -111 11.5t-78 37.5t-46 68.5t-15 104.5q0 63 14 104.5t45 66.5t79 35.5t116 10.5h142v-823zM600 665v-823h-90v823h90z" />
    <glyph glyph-name="asciicircum" unicode="^" 
d="M302 566l-113 -205h-109l175 304h94l174 -304h-109z" />
    <glyph glyph-name="asciitilde" unicode="~" 
d="M46 280q16 45 49.5 75.5t95.5 30.5q26 0 56 -7.5t59 -17t55 -17t44 -7.5q27 0 42.5 13t26.5 39l83 -33q-17 -48 -53 -77t-100 -29q-27 0 -56.5 8t-57 17t-51.5 17t-41 8q-26 0 -41.5 -13.5t-26.5 -38.5z" />
    <glyph glyph-name="brokenbar" unicode="&#xa6;" horiz-adv-x="295" 
d="M200 800v-401h-105v401h105zM200 201v-399h-105v399h105z" />
    <glyph glyph-name="backslash" unicode="\" horiz-adv-x="479" 
d="M110 730l357 -783h-107l-358 783h108z" />
    <glyph glyph-name="underscore" unicode="_" horiz-adv-x="690" 
d="M690 -12v-81h-690v81h690z" />
    <glyph glyph-name="quotesingle" unicode="'" horiz-adv-x="264" 
d="M201 665l-24 -213h-90l-24 213h138z" />
    <glyph glyph-name="quotedbl" unicode="&#x22;" horiz-adv-x="471" 
d="M201 665l-24 -213h-90l-24 213h138zM409 665l-24 -213h-90l-24 213h138z" />
    <glyph glyph-name="at" unicode="@" horiz-adv-x="888" 
d="M497 336q-11 2 -23.5 3.5t-21.5 1.5q-40 0 -57.5 -28t-17.5 -88q0 -35 4.5 -57.5t12.5 -36t19 -18.5t24 -5q19 0 33 7.5t27 18.5v202zM610 177q0 -34 12.5 -53.5t46.5 -19.5q44 0 63 41t19 142q0 123 -74 193t-231 70q-84 0 -143 -23.5t-95.5 -65.5t-53.5 -100.5
t-17 -128.5q0 -81 15 -143t51 -105t96.5 -65t150.5 -22q66 0 125.5 11.5t112.5 31.5l21 -77q-54 -20 -121 -33.5t-139 -13.5q-114 0 -191.5 31t-125 86.5t-68 131.5t-20.5 167q0 81 22.5 153t71 126t125 85.5t183.5 31.5q109 0 185 -27.5t123 -74.5t68.5 -109.5t21.5 -132.5
q0 -60 -9.5 -109t-31 -84t-55.5 -54t-82 -19q-51 0 -82 15.5t-44 35.5q-20 -18 -50.5 -33.5t-74.5 -15.5q-34 0 -62.5 11t-49.5 35.5t-32.5 64t-11.5 95.5q0 96 51.5 146t135.5 50q41 0 85 -7.5t79 -19.5v-218z" />
    <glyph glyph-name="copyright" unicode="&#xa9;" horiz-adv-x="727" 
d="M193 332q0 103 47.5 147t133.5 44q30 0 60 -5t49 -10l-9 -74q-20 5 -44.5 9t-47.5 4q-41 0 -61 -23.5t-20 -91.5q0 -36 5.5 -59t16.5 -36t27 -18t38 -5t46.5 4.5t44.5 12.5l8 -75q-20 -8 -49.5 -13t-59.5 -5q-43 0 -77.5 10t-58.5 33t-36.5 60t-12.5 91zM697 332
q0 -171 -85 -257t-253 -86t-253.5 86t-85.5 257q0 170 85.5 256.5t253.5 86.5t253 -86.5t85 -256.5zM632 332q0 141 -66.5 211t-206.5 70q-141 0 -207.5 -70t-66.5 -211q0 -142 66.5 -212t207.5 -70q140 0 206.5 70t66.5 212z" />
    <glyph glyph-name="registered" unicode="&#xae;" horiz-adv-x="627" 
d="M278 439q5 -1 14 -1.5t18 -0.5q21 0 34.5 8.5t13.5 31.5q0 22 -9.5 30t-35.5 8h-35v-76zM317 566q116 0 116 -85q0 -34 -14 -48t-36 -22q16 -8 24 -22t15 -32l28 -74h-79l-26 69q-6 16 -13 24t-21 8q-7 0 -17.5 0.5t-15.5 1.5v-103h-74v283h113zM596 416
q0 -126 -73.5 -192t-209.5 -66q-137 0 -210.5 66t-73.5 192q0 127 73.5 193.5t210.5 66.5q136 0 209.5 -66.5t73.5 -193.5zM532 416q0 105 -54 155t-165 50q-112 0 -165.5 -50t-53.5 -155q0 -104 53.5 -153.5t165.5 -49.5q111 0 165 49.5t54 153.5z" />
    <glyph glyph-name="trademark" unicode="&#x2122;" horiz-adv-x="832" 
d="M320 665v-66h-98v-233h-99v233h-99v66h296zM599 429h-74l-69 132v-195h-87v299h108l85 -156l84 156h109v-299h-87v195z" />
    <glyph glyph-name="Euro" unicode="&#x20ac;" 
d="M268 208q6 -64 37.5 -92t85.5 -28q33 0 73 5.5t76 16.5l15 -96q-32 -13 -75.5 -19.5t-88.5 -6.5q-61 0 -106.5 14t-78 41.5t-53 69t-31.5 95.5h-90v71h80q-1 14 -1.5 25.5t-0.5 26.5v31h-78v71h86q14 124 80.5 183.5t195.5 59.5q51 0 91.5 -5.5t69.5 -11.5l-17 -102
q-16 4 -35.5 7.5t-39.5 6t-39.5 4t-35.5 1.5q-58 0 -89 -34t-37 -109h246l-26 -71h-226q-1 -8 -1 -17v-17q0 -13 0.5 -25t1.5 -24h198l-25 -71h-162z" />
    <glyph glyph-name="dollar" unicode="$" 
d="M275 12q-59 1 -110.5 11.5t-86.5 21.5l16 99q36 -10 83.5 -20.5t100.5 -10.5q22 0 42.5 2.5t36 9.5t24.5 19t9 32q0 27 -23.5 47.5t-58.5 39t-76 38t-76 45t-58.5 58.5t-23.5 80q0 42 14 71.5t39 48.5t59.5 29t76.5 14v83h89v-79q40 -1 80.5 -5.5t72.5 -10.5l-10 -98
q-35 7 -81 11.5t-81 4.5q-52 0 -85.5 -13t-33.5 -50q0 -24 23.5 -42t58.5 -36t76 -37.5t76 -46t58.5 -62.5t23.5 -86q0 -75 -45 -113t-121 -50v-102h-89v97z" />
    <glyph glyph-name="cent" unicode="&#xa2;" 
d="M508 492q-26 6 -67 11.5t-78 5.5q-33 0 -59.5 -7.5t-45 -27t-28.5 -54t-10 -87.5q0 -56 10 -91t29.5 -55t48 -27t66.5 -7q35 0 73 6.5t67 14.5l10 -96q-30 -10 -69.5 -17t-81.5 -8v-138h-89v145q-46 8 -82 27t-61 52t-38.5 81t-13.5 113q0 63 13 109.5t37.5 78.5t59.5 51
t80 27v131h89v-122q45 -1 86 -7t67 -11l-13 -98v0z" />
    <glyph glyph-name="sterling" unicode="&#xa3;" 
d="M278 301l-7 -69q-5 -45 -21.5 -78t-52.5 -56h346v-98h-501v80q25 13 40.5 29t25.5 34.5t15 41t8 48.5l8 68h-98v84h108l8 85q5 58 23.5 97.5t48.5 63.5t70.5 34.5t90.5 10.5q48 0 89.5 -5.5t70.5 -10.5l-14 -101q-31 7 -66.5 12t-64.5 5q-47 0 -74 -19.5t-32 -68.5
l-11 -103h218v-84h-228z" />
    <glyph glyph-name="florin" unicode="&#x192;" 
d="M182 388v93q0 55 17 92t46.5 60t69.5 33t87 10q43 0 83 -5t70 -10l-14 -100q-29 5 -62 10t-62 5q-43 0 -69.5 -19t-26.5 -72v-97h208v-84h-208v-304h-139v304h-123v84h123z" />
    <glyph glyph-name="yen" unicode="&#xa5;" 
d="M166 665l152 -279l136 279h133l-123 -231h101v-71h-132l-40 -82h172v-72h-180v-209h-133v209h-191v72h188l-50 82h-138v71h95l-140 231h150z" />
    <glyph glyph-name="ordfeminine" unicode="&#xaa;" horiz-adv-x="358" 
d="M54 663q26 8 52 10.5t62 2.5q57 0 93.5 -25.5t36.5 -78.5v-180q-19 -8 -57.5 -18t-83.5 -10q-61 0 -95.5 22.5t-34.5 75.5q0 28 11 46t29 28t40.5 14t45.5 4q29 0 52 -5v19q0 43 -52 43q-26 0 -49.5 -3.5t-43.5 -9.5zM205 491q-11 2 -22 3.5t-24 1.5q-18 0 -30 -7.5
t-12 -28.5q0 -23 12 -31t32 -8q23 0 44 6v64z" />
    <glyph glyph-name="ordmasculine" unicode="&#xba;" horiz-adv-x="358" 
d="M332 517q0 -84 -40 -121t-113 -37q-74 0 -113.5 37t-39.5 121q0 85 39.5 122t113.5 37q73 0 113 -37.5t40 -121.5zM235 517q0 51 -15 72t-41 21t-41 -21t-15 -72t15 -72t41 -21t41 21t15 72z" />
    <glyph glyph-name="numbersign" unicode="#" horiz-adv-x="715" 
d="M355 665l-35 -181h127l35 181h104l-34 -181h123l-17 -88h-123l-25 -127h123l-17 -88h-124l-35 -181h-103l35 181h-128l-35 -181h-99l34 181h-121l16 88h122l26 127h-122l17 88h122l35 181h99zM277 269h129l25 127h-128z" />
    <glyph glyph-name="zero" unicode="0" 
d="M560 331q0 -178 -62.5 -260.5t-195.5 -82.5t-195.5 82t-62.5 258q0 180 62.5 264t195.5 84t195.5 -83.5t62.5 -261.5zM422 330q0 69 -7 116t-21.5 76t-37 41.5t-54.5 12.5t-55 -12.5t-37.5 -42t-21 -76.5t-6.5 -116q0 -68 6.5 -114t21 -74t37.5 -40.5t55 -12.5t54.5 12.5
t37 41t21.5 74.5t7 114z" />
    <glyph glyph-name="one" unicode="1" 
d="M291 665h106v-665h-131v551l-150 -37v106z" />
    <glyph glyph-name="two" unicode="2" 
d="M74 654q35 11 85.5 16.5t104.5 5.5q50 0 94.5 -9.5t78 -31t53 -58t19.5 -90.5q0 -40 -10.5 -74t-30 -65.5t-46.5 -61t-60 -60.5l-132 -125h289v-101h-459v94l202 202q49 49 77 96t28 92q0 48 -25.5 70t-93.5 22q-20 0 -42.5 -2t-44 -5.5t-41.5 -7.5t-33 -7z" />
    <glyph glyph-name="three" unicode="3" 
d="M508 665v-89l-189 -184h7q38 0 74 -10.5t63.5 -33t44.5 -57.5t17 -84q0 -59 -19 -101t-53.5 -68t-83 -38t-106.5 -12q-59 0 -108 7t-91 18l11 100q40 -11 85 -18t91 -7q31 0 56 5.5t42 18.5t26 35t9 54q0 55 -32.5 78.5t-97.5 23.5h-80v84l174 179h-270v99h430z" />
    <glyph glyph-name="four" unicode="4" 
d="M486 665v-421h76v-99h-76v-145h-128v145h-339v91l291 429h176zM358 244v311l-210 -311h210z" />
    <glyph glyph-name="five" unicode="5" 
d="M91 112q40 -11 81 -17.5t86 -6.5q30 0 54 5t41 18t26 35t9 56q0 32 -9.5 53t-27 33t-42.5 17t-55 5q-31 0 -68 -3.5t-69 -8.5l-27 29l31 338h386v-105h-281l-13 -154q13 2 31.5 3t34.5 1q54 0 99.5 -10t78.5 -33.5t51.5 -62.5t18.5 -97q0 -59 -18.5 -101t-52 -68
t-81.5 -38t-106 -12t-102.5 6.5t-86.5 17.5z" />
    <glyph glyph-name="six" unicode="6" 
d="M508 559q-35 8 -76.5 12.5t-78.5 4.5q-38 0 -67 -9.5t-48.5 -31.5t-30 -58t-10.5 -89q27 8 64 14.5t73 6.5q107 0 164 -47t57 -152q0 -103 -61 -162.5t-177 -59.5q-62 0 -109.5 18t-80.5 58t-50 104.5t-17 157.5q0 99 20.5 166t58 108t91 58.5t119.5 17.5q20 0 43 -1.5
t46 -3.5t44.5 -5.5t38.5 -6.5zM197 286q0 -38 4 -74t16.5 -63.5t36.5 -44t63 -16.5q50 0 77 32.5t27 84.5q0 57 -26 80t-80 23q-29 0 -60.5 -6t-57.5 -16z" />
    <glyph glyph-name="seven" unicode="7" 
d="M537 665v-88l-280 -577h-157l289 561h-323v104h471z" />
    <glyph glyph-name="eight" unicode="8" 
d="M302 290q-55 0 -88 -25.5t-33 -79.5q0 -45 30.5 -71t90.5 -26t90 26t30 71q0 54 -33 79.5t-87 25.5zM448 339q47 -17 77.5 -54.5t30.5 -104.5q0 -47 -18 -82.5t-51 -60t-80 -37t-105 -12.5q-117 0 -186 49.5t-69 142.5q0 67 31 104.5t77 54.5q-48 17 -72 53.5t-24 99.5
q0 48 18.5 82.5t51 57t77 33.5t96.5 11t96 -11t76.5 -33.5t51 -57t18.5 -82.5q0 -63 -24 -99.5t-72 -53.5zM302 576q-52 0 -80 -22.5t-28 -65.5q0 -50 25.5 -75t82.5 -25q56 0 81.5 25t25.5 75q0 43 -28 65.5t-79 22.5z" />
    <glyph glyph-name="nine" unicode="9" 
d="M96 106q33 -8 71.5 -13.5t73.5 -5.5q41 0 72.5 10t52.5 32.5t31.5 58.5t10.5 88q-28 -8 -63.5 -14.5t-71.5 -6.5q-107 0 -166 47.5t-59 151.5q0 51 16.5 92t48 70t76.5 44.5t103 15.5q61 0 108.5 -18t79.5 -58t48.5 -104.5t16.5 -157.5q0 -101 -22 -168t-61.5 -107.5
t-94.5 -57.5t-121 -17q-38 0 -83 5t-80 13zM407 378q0 38 -3 74t-15 63.5t-35 44t-62 16.5q-50 0 -79 -32.5t-29 -84.5q0 -57 25.5 -80t79.5 -23q29 0 60.5 6t57.5 16z" />
    <glyph glyph-name="onesuperior" unicode="&#xb9;" horiz-adv-x="321" 
d="M140 665h69v-334h-90v256l-76 -17v71z" />
    <glyph glyph-name="twosuperior" unicode="&#xb2;" horiz-adv-x="330" 
d="M42 661q22 7 50.5 11t59.5 4q57 0 93 -25t36 -77q0 -39 -19 -67.5t-48 -54.5l-58 -53h130v-67h-247v58l92 89q30 29 45 48t15 41t-13.5 30.5t-39.5 8.5q-23 0 -46 -4.5t-40 -9.5z" />
    <glyph glyph-name="threesuperior" unicode="&#xb3;" horiz-adv-x="330" 
d="M277 665v-59l-92 -81q49 0 77.5 -24t28.5 -69q0 -62 -39 -89t-100 -27q-34 0 -65.5 6.5t-49.5 13.5l12 67q17 -5 44 -11t50 -6q26 0 41 9t15 35q0 24 -16 31.5t-45 7.5h-48v53l84 77h-137v66h240z" />
    <glyph glyph-name="fraction" unicode="&#x2044;" horiz-adv-x="547" 
d="M536 665l-429 -665h-96l428 665h97z" />
    <glyph glyph-name="onequarter" unicode="&#xbc;" horiz-adv-x="806" 
d="M726 343v-209h45v-64h-45v-70h-86v70h-154v54l122 219h118zM640 134v131l-74 -131h74zM660 665l-429 -665h-96l428 665h97zM138 665h69v-334h-90v256l-76 -17v71z" />
    <glyph glyph-name="onehalf" unicode="&#xbd;" horiz-adv-x="806" 
d="M138 665h69v-334h-90v256l-76 -17v71zM503 329q22 7 50.5 11t59.5 4q57 0 93 -25t36 -77q0 -39 -19 -67.5t-48 -54.5l-58 -53h130v-67h-247v58l92 89q30 29 45 48t15 41t-13.5 30.5t-39.5 8.5q-23 0 -46 -4.5t-40 -9.5zM660 665l-429 -665h-96l428 665h97z" />
    <glyph glyph-name="threequarters" unicode="&#xbe;" horiz-adv-x="806" 
d="M727 343v-209h44v-64h-44v-70h-86v70h-154v54l121 219h119zM641 134v131l-74 -131h74zM687 665l-429 -665h-96l428 665h97zM286 665v-59l-92 -81q49 0 77.5 -24t28.5 -69q0 -62 -39 -89t-100 -27q-34 0 -65.5 6.5t-49.5 13.5l12 67q17 -5 44 -11t50 -6q26 0 41 9t15 35
q0 24 -16 31.5t-45 7.5h-48v53l84 77h-137v66h240z" />
    <glyph glyph-name="percent" unicode="%" horiz-adv-x="860" 
d="M203 605q-13 0 -25 -5t-21.5 -17t-15 -32.5t-5.5 -50.5q0 -61 20.5 -84t46.5 -23q28 0 46.5 23t18.5 83q0 61 -18.5 83.5t-46.5 22.5zM203 675q36 0 66 -9.5t52 -30.5t34.5 -54.5t12.5 -81.5q0 -47 -12.5 -80.5t-34.5 -55t-52 -31.5t-66 -10t-66 10t-52 31.5t-34.5 55.5
t-12.5 81q0 48 12.5 81.5t34.5 54t52 30t66 9.5zM656 273q-13 0 -25 -5t-21.5 -17.5t-15 -33t-5.5 -50.5q0 -60 20.5 -83t46.5 -23q27 0 46 23t19 82q0 61 -19 84t-46 23zM656 343q36 0 66 -9.5t51.5 -30.5t34 -54.5t12.5 -82.5q0 -47 -12.5 -80t-34 -55t-51.5 -32t-66 -10
t-66 10t-52 32t-34.5 55.5t-12.5 80.5q0 48 12.5 81.5t34.5 54.5t52 30.5t66 9.5zM691 665l-430 -665h-98l430 665h98z" />
    <glyph glyph-name="perthousand" unicode="&#x2030;" horiz-adv-x="1241" 
d="M1036 273q-13 0 -25 -5t-21.5 -17.5t-15 -33t-5.5 -50.5q0 -60 20.5 -83t46.5 -23q27 0 46.5 23t19.5 82q0 61 -19.5 84t-46.5 23zM1036 343q36 0 66.5 -9.5t52 -30.5t34 -54.5t12.5 -82.5q0 -47 -12.5 -80t-34 -55t-52 -32t-66.5 -10q-35 0 -65 10t-52 32t-34.5 55.5
t-12.5 80.5q0 48 12.5 81.5t34.5 54.5t52 30.5t65 9.5zM203 605q-13 0 -25 -5t-21.5 -17t-15 -32.5t-5.5 -50.5q0 -61 20.5 -84t46.5 -23q28 0 46.5 23t18.5 83q0 61 -18.5 83.5t-46.5 22.5zM203 675q36 0 66 -9.5t52 -30.5t34.5 -54.5t12.5 -81.5q0 -47 -12.5 -80.5
t-34.5 -55t-52 -31.5t-66 -10t-66 10t-52 31.5t-34.5 55.5t-12.5 81q0 48 12.5 81.5t34.5 54t52 30t66 9.5zM656 273q-13 0 -25 -5t-21.5 -17.5t-15 -33t-5.5 -50.5q0 -60 20.5 -83t46.5 -23q27 0 46 23t19 82q0 61 -19 84t-46 23zM656 343q36 0 66 -9.5t51.5 -30.5
t34 -54.5t12.5 -82.5q0 -47 -12.5 -80t-34 -55t-51.5 -32t-66 -10t-66 10t-52 32t-34.5 55.5t-12.5 80.5q0 48 12.5 81.5t34.5 54.5t52 30.5t66 9.5zM691 665l-430 -665h-98l430 665h98z" />
    <glyph glyph-name="plus" unicode="+" 
d="M250 363v162h104v-162h188v-89h-188v-163h-104v163h-188v89h188z" />
    <glyph glyph-name="minus" unicode="&#x2212;" 
d="M542 363v-89h-480v89h480z" />
    <glyph glyph-name="plusminus" unicode="&#xb1;" 
d="M250 373v152h104v-152h188v-89h-188v-148h-104v148h-188v89h188zM542 88v-88h-480v88h480z" />
    <glyph glyph-name="multiply" unicode="&#xd7;" 
d="M76 457l70 68l155 -142l156 143l71 -68l-155 -141l154 -140l-70 -68l-156 143l-156 -143l-70 68l154 140z" />
    <glyph glyph-name="divide" unicode="&#xf7;" 
d="M374 498q0 -29 -19 -44t-52 -15t-51.5 15t-18.5 44q0 28 18.5 43t51.5 15t52 -15t19 -43zM542 363v-89h-480v89h480zM374 140q0 -29 -19 -44t-52 -15t-51.5 15t-18.5 44q0 28 18.5 43t51.5 15t52 -15t19 -43z" />
    <glyph glyph-name="equal" unicode="=" 
d="M542 264v-88h-480v88h480zM542 462v-88h-480v88h480z" />
    <glyph glyph-name="notequal" unicode="&#x2260;" 
d="M326 462l56 118h82l-55 -118h133v-88h-174l-52 -110h226v-88h-267l-54 -118h-82l55 118h-132v88h173l51 110h-224v88h264z" />
    <glyph glyph-name="approxequal" unicode="&#x2248;" 
d="M46 177q16 45 49.5 75.5t95.5 30.5q26 0 56 -7.5t59 -17t55 -17t44 -7.5q27 0 42.5 13t26.5 39l83 -33q-17 -48 -53 -77t-100 -29q-27 0 -56.5 8t-57 17t-51.5 17t-41 8q-26 0 -41.5 -13.5t-26.5 -38.5zM46 374q16 45 49.5 75.5t95.5 30.5q26 0 56 -7.5t59 -17t55 -17
t44 -7.5q27 0 42.5 13t26.5 39l83 -33q-17 -48 -53 -77t-100 -29q-27 0 -56.5 8t-57 17t-51.5 17t-41 8q-26 0 -41.5 -13.5t-26.5 -38.5z" />
    <glyph glyph-name="less" unicode="&#x3c;" 
d="M542 534v-96l-351 -120l351 -120v-96l-480 173v86z" />
    <glyph glyph-name="greater" unicode="&#x3e;" 
d="M542 361v-86l-480 -173v96l351 120l-351 120v96z" />
    <glyph glyph-name="lessequal" unicode="&#x2264;" 
d="M542 88v-88h-480v88h480zM542 534v-96l-351 -120l351 -120v-96l-480 173v86z" />
    <glyph glyph-name="greaterequal" unicode="&#x2265;" 
d="M542 88v-88h-480v88h480zM542 361v-86l-480 -173v96l351 120l-351 120v96z" />
    <glyph glyph-name="logicalnot" unicode="&#xac;" 
d="M542 462v-286h-97v198h-383v88h480z" />
    <glyph glyph-name="Delta" unicode="&#x394;" 
d="M365 665l216 -665h-559l216 665h127zM158 81h288l-144 471z" />
    <glyph glyph-name="Delta" unicode="&#x2206;" 
d="M365 665l216 -665h-559l216 665h127zM158 81h288l-144 471z" />
    <glyph glyph-name="Omega" unicode="&#x3a9;" horiz-adv-x="693" 
d="M167 87q-25 19 -46.5 43t-37 54.5t-24 69t-8.5 87.5q0 89 20.5 152.5t58.5 104t92.5 59.5t123.5 19t123.5 -19t92.5 -59.5t58.5 -104t20.5 -152.5q0 -49 -8.5 -87.5t-24 -69t-37 -54.5t-46.5 -43h129v-87h-270v88q34 19 59.5 41.5t43 52.5t26.5 68.5t9 90.5
q0 68 -11 114.5t-33 75.5t-55 41.5t-77 12.5t-77 -12.5t-55 -41.5t-32.5 -75.5t-10.5 -114.5q0 -52 9 -90.5t26 -68.5t43 -52.5t59 -41.5v-88h-269v87h128z" />
    <glyph glyph-name="Omega" unicode="&#x2126;" horiz-adv-x="693" 
d="M167 87q-25 19 -46.5 43t-37 54.5t-24 69t-8.5 87.5q0 89 20.5 152.5t58.5 104t92.5 59.5t123.5 19t123.5 -19t92.5 -59.5t58.5 -104t20.5 -152.5q0 -49 -8.5 -87.5t-24 -69t-37 -54.5t-46.5 -43h129v-87h-270v88q34 19 59.5 41.5t43 52.5t26.5 68.5t9 90.5
q0 68 -11 114.5t-33 75.5t-55 41.5t-77 12.5t-77 -12.5t-55 -41.5t-32.5 -75.5t-10.5 -114.5q0 -52 9 -90.5t26 -68.5t43 -52.5t59 -41.5v-88h-269v87h128z" />
    <glyph glyph-name="mu" unicode="&#xb5;" horiz-adv-x="584" 
d="M71 484h135v-319q0 -45 23.5 -62.5t65.5 -17.5q22 0 45 2.5t37 7.5v389h134v-458q-42 -14 -100.5 -25.5t-118.5 -11.5q-25 0 -46.5 3.5t-40.5 11.5v-192h-134v672z" />
    <glyph glyph-name="mu" unicode="&#x3bc;" horiz-adv-x="584" 
d="M71 484h135v-319q0 -45 23.5 -62.5t65.5 -17.5q22 0 45 2.5t37 7.5v389h134v-458q-42 -14 -100.5 -25.5t-118.5 -11.5q-25 0 -46.5 3.5t-40.5 11.5v-192h-134v672z" />
    <glyph glyph-name="pi" unicode="&#x3c0;" horiz-adv-x="635" 
d="M615 484v-94h-86v-390h-139v390h-144v-390h-140v390h-87v94h596z" />
    <glyph glyph-name="degree" unicode="&#xb0;" horiz-adv-x="385" 
d="M193 621q-30 0 -47 -17t-17 -43t17 -43t47 -17q29 0 46 17t17 43t-17 43t-46 17zM193 676q27 0 50 -9t40 -24.5t26.5 -36.5t9.5 -45t-9.5 -45t-26.5 -36.5t-40 -24t-50 -8.5t-50 8.5t-40.5 24t-27 36.5t-9.5 45t9.5 45t27 36.5t40.5 24.5t50 9z" />
    <glyph glyph-name="infinity" unicode="&#x221e;" horiz-adv-x="682" 
d="M288 318q-29 27 -51.5 41t-48.5 14q-24 0 -42 -12.5t-18 -41.5t18 -41.5t42 -12.5q26 0 48.5 13t51.5 40zM394 320q28 -27 51 -41t49 -14q23 0 41 12.5t18 41.5t-18 41.5t-41 12.5q-26 0 -49 -13t-51 -40zM341 382q35 32 71.5 50.5t84.5 18.5q67 0 110 -33t43 -99
t-43 -99t-110 -33q-48 0 -84.5 18.5t-71.5 51.5q-36 -33 -72.5 -51.5t-83.5 -18.5q-67 0 -110 33t-43 99t43 99t110 33q47 0 83.5 -18.5t72.5 -50.5z" />
    <glyph glyph-name="partialdiff" unicode="&#x2202;" horiz-adv-x="611" 
d="M151 637q43 20 86.5 29.5t100.5 9.5q99 0 154 -52t55 -167q0 -99 -20 -184.5t-59.5 -148t-98.5 -98.5t-137 -36q-90 0 -141 48t-51 129q0 105 59 168.5t177 63.5q47 0 82 -10t59 -24q4 24 5.5 50t1.5 42q0 69 -30 97t-82 28q-41 0 -76 -10t-73 -26zM394 275
q-21 13 -48 21.5t-62 8.5q-26 0 -49 -6.5t-39.5 -21.5t-26 -40.5t-9.5 -62.5q0 -42 22.5 -66t62.5 -24q33 0 57 14t41.5 39t29.5 60t21 78z" />
    <glyph glyph-name="integral" unicode="&#x222b;" horiz-adv-x="312" 
d="M328 644q-5 1 -12 1h-11q-45 0 -65.5 -19.5t-20.5 -58.5v-593q0 -80 -45 -126t-145 -46q-24 0 -49 3l5 95q5 -1 11 -1.5t11 -0.5q86 0 86 77v592q0 81 45 127.5t145 46.5q23 0 49 -3z" />
    <glyph glyph-name="radical" unicode="&#x221a;" 
d="M199 484l109 -354l173 535h104l-220 -665h-113l-137 399h-97v85h181z" />
    <glyph glyph-name="summation" unicode="&#x2211;" 
d="M535 665v-99h-293l200 -219l-207 -249h325v-98h-494v79l218 267l-218 239v80h469z" />
    <glyph glyph-name="product" unicode="&#x220f;" horiz-adv-x="715" 
d="M690 665v-96h-75v-569h-136v569h-231v-569h-135v569h-75v96h652z" />
    <glyph glyph-name="lozenge" unicode="&#x25ca;" 
d="M341 665l208 -332l-208 -333h-79l-208 333l208 332h79zM166 333l136 -224l135 224l-135 222z" />
    <glyph glyph-name="apple" horiz-adv-x="1100" 
d="M821 784h5q30 0 42 -38l47 -156l-499 59l-56 -72l217 -33l-123 -351l-317 23q-13 1 -26 4.5t-23.5 10t-17 16t-6.5 22.5q0 5 1 12t3 14l153 410q7 16 29 26.5t48 12.5zM169 290q-1 -5 -1.5 -9t-0.5 -7q0 -16 12 -25t31 -11l226 -21l97 265l-188 27l-8 68l71 89l481 -54
l-34 112q-5 14 -17.5 18.5t-24.5 5.5l-452 -34q-16 -1 -33.5 -8.5t-23.5 -26.5zM944 486l80 -279q1 -2 1 -9q0 -19 -16 -29.5t-42 -10.5l-234 13v348zM815 190l151 -12h3q14 0 22.5 8.5t8.5 18.5q0 6 -1 7l-65 211l-119 22v-255zM61 9h25q19 -1 32 10t13 38q0 29 -13 40
t-32 10h-25v-98zM88 122q27 0 44.5 -15.5t18.5 -49.5q-1 -33 -18.5 -48t-44.5 -15h-45v128h45zM233 52q-3 21 -23 21q-12 0 -19 -8t-7 -21zM185 32q1 -13 8.5 -19t18.5 -6q9 -1 15.5 3t11.5 11l12 -6q-6 -10 -15.5 -16t-23.5 -6q-21 0 -34 12.5t-14 35.5q1 19 13 32t33 14
q22 -1 32 -13t11 -32zM280 21q8 -14 25 -14q22 0 19 13q1 7 -7.5 9.5t-19 5.5t-19.5 8t-9 17t10 19t27 8q25 -1 36 -18l-12 -8q-6 12 -25 12q-18 0 -18 -13q0 -7 8.5 -9.5t19 -5t19 -8t8.5 -17.5q0 -13 -9.5 -20t-26.5 -7q-15 0 -25 6t-15 16zM385 113q-2 -8 -11 -8
q-10 0 -10 8q0 9 10 9q9 0 11 -9zM383 86v-92h-18v92h18zM474 69q-7 4 -21 4q-12 0 -20 -8t-8 -24q0 -32 26 -32q17 0 23 13v47zM493 -8q0 -39 -43 -39q-28 0 -41 21l12 9q5 -8 11.5 -12t17.5 -4q26 0 24 24v16q-8 -13 -27 -13q-20 0 -30 12.5t-11 34.5q1 23 14.5 34.5
t33.5 11.5q26 -2 39 -11v-84zM541 86v-17q10 16 32 18q31 -1 32 -31v-62h-19v62q0 17 -18 17q-10 0 -15.5 -4.5t-10.5 -11.5v-63h-17v92h16zM694 52q-3 21 -23 21q-13 0 -20.5 -8t-7.5 -21zM645 32q3 -25 28 -25q18 -2 25 14l14 -6q-5 -10 -15 -16t-24 -6q-47 0 -47 48
q0 19 12 32t33 14q22 -1 32.5 -13t10.5 -32zM796 63q-8 10 -23 10q-13 0 -20 -9t-7 -24t7 -24t20 -9q15 0 23 13v43zM815 126v-108q0 -5 0.5 -12t2.5 -12l-16 -1q0 3 -1 6.5t-1 7.5q-5 -6 -12.5 -10t-18.5 -4q-19 0 -30.5 13t-11.5 35q0 21 13 33t30 13q20 -1 26 -10v49h19z
M914 20q10 -13 24 -13t20.5 9.5t6.5 24.5q0 32 -27 32q-8 0 -13.5 -4.5t-10.5 -10.5v-38zM914 126v-54q9 13 31 15q19 -1 28 -13t9 -33q0 -22 -10.5 -35t-28.5 -13q-23 0 -32 14q0 -8 -3 -14l-16 1q2 6 3.5 12.5t1.5 11.5v108h17zM1009 86l27 -75l27 75h18l-40 -100
q-6 -17 -16 -25t-29 -9l-4 13q23 1 31 21l3 7l-35 93h18zM197 -62l-1 -14h-39v-113h-18v113h-39v14h97zM305 -163q6 -13 24 -13q13 0 19 9t6 24q0 32 -24 32q-16 0 -25 -14v-38zM302 -97v-15q12 14 33 16q20 -1 29 -13.5t9 -33.5q1 -21 -9 -34.5t-32 -13.5q-10 0 -16.5 4
t-10.5 8v-50l-18 -1v132zM433 -96q22 -1 34 -14t13 -33q-1 -21 -13 -34t-34 -14q-21 1 -33 14t-13 34q1 20 13 33t33 14zM433 -111q-13 0 -20 -9t-7 -23q0 -15 7 -24t20 -9t20 9t7 24q0 14 -7 23t-20 9zM520 -163q8 -13 23 -13q14 0 20 9t6 24t-5.5 23.5t-19.5 8.5
q-15 0 -24 -14v-38zM518 -97v-15q10 14 33 16q18 -1 27.5 -13.5t9.5 -33.5q2 -21 -9 -34.5t-31 -13.5q-9 0 -16 4t-12 8v-50l-18 -1v132zM630 -57v-54q10 13 31 15q31 -1 32 -31v-62h-19v62q0 16 -18 16t-26 -16v-62h-18v131zM714 -115q6 7 15.5 12.5t24.5 6.5
q20 -2 27.5 -11t7.5 -21v-37q0 -5 1 -11.5t3 -11.5l-16 -3q-1 4 -1 7.5t-2 7.5q-4 -6 -11 -10.5t-18 -4.5q-32 0 -32 26q-1 17 19 24q5 2 17 4t22 3v7q0 7 -4 11.5t-16 4.5q-10 0 -15 -3.5t-9 -8.5zM771 -146q-8 -1 -17.5 -3t-14.5 -3q-9 -4 -9 -11q0 -13 18 -13q17 0 23 14
v16zM878 -115q-8 6 -21 4q-13 0 -21 -7.5t-8 -24.5q0 -31 27 -32q16 2 23 14v46zM895 -191q0 -39 -41 -39q-31 0 -41 21l12 9q5 -8 11.5 -12t17.5 -4q26 0 24 24v16q-8 -13 -28 -13q-19 0 -29 12.5t-10 33.5q0 23 13.5 35t33.5 12q11 -1 21 -3.5t16 -7.5v-84zM987 -131
q-1 20 -23 20q-12 0 -19 -8t-7 -20zM938 -151q2 -13 9.5 -19t18.5 -6q18 -1 25 13l13 -5q-5 -10 -14 -16.5t-24 -6.5q-21 0 -33.5 12.5t-13.5 35.5q1 20 13 33t32 14q21 -1 31.5 -13t12.5 -32zM197 -98l27 -75l27 75h18l-40 -100q-6 -17 -16 -25t-29 -9l-4 13q23 1 31 21
l4 7l-36 93h18z" />
    <glyph glyph-name="uni00A0" unicode="&#xa0;" horiz-adv-x="280" 
 />
    <glyph glyph-name="uni00AD" unicode="&#xad;" horiz-adv-x="396" 
d="M337 319v-96h-278v96h278z" />
    <glyph glyph-name="afii10057" unicode="&#x408;" horiz-adv-x="317" 
d="M231 665v-574q0 -54 -17 -96t-45.5 -76.5t-65.5 -63t-77 -55.5l-53 74q31 27 53.5 49.5t37.5 46.5t22 52t7 65v578h138z" />
    <glyph glyph-name="afii10023" unicode="&#x401;" horiz-adv-x="569" 
d="M501 665v-99h-279v-178h256v-99h-256v-118q0 -43 25 -58t64 -15h202v-98h-209q-52 0 -93 9t-69 29.5t-43 54t-15 81.5v491h417zM255 833q0 -26 -18 -41t-50 -15q-33 0 -51 15t-18 41q0 27 18 42t51 15q32 0 50 -15t18 -42zM446 833q0 -26 -18 -41t-50 -15q-33 0 -50.5 15
t-17.5 41q0 27 17.5 42t50.5 15q32 0 50 -15t18 -42z" />
    <glyph glyph-name="afii10056" unicode="&#x407;" horiz-adv-x="311" 
d="M231 665v-665h-138v665h138zM129 833q0 -26 -18 -41t-50 -15q-33 0 -51 15t-18 41q0 27 18 42t51 15q32 0 50 -15t18 -42zM320 833q0 -26 -18 -41t-50 -15q-33 0 -50.5 15t-17.5 41q0 27 17.5 42t50.5 15q32 0 50 -15t18 -42z" />
    <glyph glyph-name="afii10055" unicode="&#x406;" horiz-adv-x="311" 
d="M231 665v-665h-138v665h138z" />
    <glyph glyph-name="afii10103" unicode="&#x456;" horiz-adv-x="273" 
d="M210 484v-484h-134v484h134zM222 659q0 -35 -21 -53t-59 -18q-37 0 -58.5 18t-21.5 53t21.5 53.5t58.5 18.5q38 0 59 -18.5t21 -53.5z" />
    <glyph glyph-name="afii10105" unicode="&#x458;" horiz-adv-x="286" 
d="M210 484v-408q0 -48 -10 -85t-32 -69t-56.5 -61.5t-83.5 -60.5l-58 68q33 28 53.5 51.5t32 47.5t16 49.5t4.5 58.5v409h134zM222 659q0 -35 -21 -53t-59 -18q-37 0 -58.5 18t-21.5 53t21.5 53.5t58.5 18.5q38 0 59 -18.5t21 -53.5z" />
    <glyph glyph-name="afii10054" unicode="&#x405;" horiz-adv-x="559" 
d="M484 559q-16 3 -36.5 6t-42.5 5.5t-43 4t-39 1.5q-57 0 -89.5 -12.5t-32.5 -52.5q0 -24 23 -45.5t57.5 -43.5t74.5 -46.5t74.5 -55.5t57.5 -69.5t23 -88.5q0 -93 -65.5 -133.5t-179.5 -40.5q-64 0 -116.5 10.5t-90.5 21.5l14 99q38 -11 85 -21t104 -10q46 0 76.5 13
t30.5 52q0 27 -23 51.5t-57.5 48.5t-75 49t-75 54.5t-57.5 65.5t-23 81q0 51 20 84.5t55.5 53t84 27.5t106.5 8q22 0 46 -1.5t46.5 -4t42.5 -5.5t35 -6z" />
    <glyph glyph-name="afii10102" unicode="&#x455;" horiz-adv-x="468" 
d="M407 389q-27 5 -58 8.5t-69 3.5q-48 0 -72 -8t-24 -34q0 -16 18 -28.5t45.5 -25t59.5 -27t59.5 -34.5t45.5 -48t18 -67q0 -38 -16 -64.5t-44.5 -43.5t-66.5 -24.5t-83 -7.5q-54 0 -98.5 7t-73.5 16l12 93q28 -8 70 -14t79 -6q44 0 62.5 9.5t18.5 35.5q0 18 -18 31.5
t-44.5 26.5t-57.5 27t-57.5 33t-44.5 44.5t-18 62.5q0 42 17.5 69.5t48 43t72.5 21.5t91 6q41 0 76 -3.5t61 -8.5z" />
    <glyph glyph-name="afii10104" unicode="&#x457;" horiz-adv-x="272" 
d="M210 484v-484h-134v484h134zM110 650q0 -26 -18 -41t-50 -15q-33 0 -51 15t-18 41q0 27 18 42t51 15q32 0 50 -15t18 -42zM301 650q0 -26 -18 -41t-50 -15q-33 0 -50.5 15t-17.5 41q0 27 17.5 42t50.5 15q32 0 50 -15t18 -42z" />
    <glyph glyph-name="afii10017" unicode="&#x410;" horiz-adv-x="671" 
d="M208 0h-136v432q0 55 14.5 100t46 77t81 49.5t120.5 17.5t121.5 -17.5t82.5 -49.5t46.5 -77t14.5 -100v-432h-139v234h-252v-234zM460 332v107q0 63 -28 100t-98 37t-98 -37t-28 -100v-107h252z" />
    <glyph glyph-name="afii10019" unicode="&#x412;" horiz-adv-x="636" 
d="M230 91q23 -3 48.5 -5t42.5 -2q36 0 60 7t38.5 20t20 32t5.5 44q0 50 -25.5 74.5t-91.5 24.5h-98v-195zM230 382h95q49 0 76 23t27 74q0 50 -25.5 70t-80.5 20h-92v-187zM318 665q58 0 104.5 -9t79.5 -29.5t51 -53t18 -80.5q0 -66 -28.5 -102t-79.5 -53q25 -5 48.5 -16
t40.5 -29.5t27.5 -46t10.5 -64.5q0 -51 -18.5 -87.5t-53 -60t-84 -35t-111.5 -11.5q-47 0 -108 6.5t-124 19.5v651h227z" />
    <glyph glyph-name="afii10022" unicode="&#x415;" horiz-adv-x="569" 
d="M501 665v-99h-279v-178h256v-99h-256v-118q0 -43 25 -58t64 -15h202v-98h-209q-52 0 -93 9t-69 29.5t-43 54t-15 81.5v491h417z" />
    <glyph glyph-name="afii10028" unicode="&#x41a;" horiz-adv-x="653" 
d="M231 665v-345l281 345h139l-254 -309q37 -11 64.5 -29.5t49.5 -43.5t39.5 -57t34.5 -69l68 -157h-150l-50 116q-14 31 -26 56.5t-27 44.5t-34.5 32t-47.5 19l-87 -105v-163h-138v665h138z" />
    <glyph glyph-name="afii10030" unicode="&#x41c;" horiz-adv-x="924" 
d="M236 665l226 -340l226 340h143v-665h-138v473l-180 -269h-104l-178 269v-473h-138v665h143z" />
    <glyph glyph-name="afii10031" unicode="&#x41d;" horiz-adv-x="748" 
d="M231 665v-272h285v272h139v-665h-139v289h-285v-289h-138v665h138z" />
    <glyph glyph-name="afii10032" unicode="&#x41e;" horiz-adv-x="689" 
d="M640 331q0 -181 -74.5 -262t-220.5 -81q-147 0 -221.5 81t-74.5 262q0 182 74.5 263.5t221.5 81.5q146 0 220.5 -81.5t74.5 -263.5zM495 332q0 69 -9.5 115.5t-28 75t-47 41t-65.5 12.5q-38 0 -66.5 -12.5t-47 -41t-28 -75t-9.5 -115.5t9.5 -116t28 -75.5t47 -40.5
t66.5 -12q37 0 65.5 12t47 40.5t28 75.5t9.5 116z" />
    <glyph glyph-name="afii10034" unicode="&#x420;" horiz-adv-x="625" 
d="M231 337q23 -4 43 -5.5t38 -1.5q69 0 98.5 29t29.5 91q0 68 -30.5 92t-94.5 24h-84v-229zM315 665q65 0 114.5 -11t82.5 -36t49.5 -66.5t16.5 -101.5q0 -62 -18 -104t-50.5 -68t-78 -37.5t-100.5 -11.5q-48 0 -100 9v-238h-138v665h222z" />
    <glyph glyph-name="afii10035" unicode="&#x421;" horiz-adv-x="574" 
d="M515 556q-33 8 -76.5 14t-82.5 6q-41 0 -71 -12.5t-50.5 -41t-30.5 -74.5t-10 -113q0 -74 10.5 -121.5t31.5 -75t53.5 -38t76.5 -10.5q38 0 79.5 6.5t76.5 14.5l10 -99q-35 -11 -81 -17.5t-91 -6.5q-74 0 -132 17t-97.5 57.5t-60.5 107t-21 164.5q0 96 20.5 161.5
t60.5 105.5t98.5 57.5t133.5 17.5q45 0 90 -6t77 -13z" />
    <glyph glyph-name="afii10036" unicode="&#x422;" horiz-adv-x="583" 
d="M568 665v-99h-207v-566h-139v566h-207v99h553z" />
    <glyph glyph-name="afii10071" unicode="&#x451;" horiz-adv-x="521" 
d="M233 650q0 -26 -18 -41t-50 -15q-33 0 -51 15t-18 41q0 27 18 42t51 15q32 0 50 -15t18 -42zM424 650q0 -26 -18 -41t-50 -15q-33 0 -50.5 15t-17.5 41q0 27 17.5 42t50.5 15q32 0 50 -15t18 -42zM182 205q1 -32 8.5 -54.5t23.5 -37t41.5 -21.5t64.5 -7q16 0 35 1.5
t38 4.5t35.5 6.5t27.5 6.5l12 -92q-31 -10 -75.5 -16.5t-91.5 -6.5q-57 0 -104.5 11.5t-82 40t-53.5 77.5t-19 124q0 72 16.5 121t47 78t73.5 41.5t96 12.5q54 0 92.5 -14.5t63 -41.5t36 -65t11.5 -86v-83h-296zM352 284q0 63 -18.5 94t-63.5 31q-47 0 -66 -31.5t-21 -93.5
h169z" />
    <glyph glyph-name="afii10039" unicode="&#x425;" horiz-adv-x="616" 
d="M12 665h159l143 -226l151 226h146l-223 -326l224 -339h-161l-149 235l-154 -235h-145l225 333z" />
    <glyph glyph-name="afii10065" unicode="&#x430;" horiz-adv-x="524" 
d="M329 209q-17 3 -35.5 5t-36.5 2q-43 0 -66.5 -14t-23.5 -57q0 -40 22 -55t64 -15q22 0 41 2.5t35 6.5v125zM82 476q33 8 76 13.5t83 5.5q46 0 86.5 -8t70.5 -27t47.5 -50t17.5 -76v-310q-18 -6 -42.5 -12t-52.5 -11t-58.5 -8.5t-61.5 -3.5q-48 0 -86.5 7.5t-65.5 26.5
t-41.5 50t-14.5 78q0 43 15 71.5t41.5 46t62.5 24.5t78 7q27 0 49.5 -2t42.5 -6v38q0 41 -25.5 55t-70.5 14q-35 0 -74.5 -5t-69.5 -12z" />
    <glyph glyph-name="afii10070" unicode="&#x435;" horiz-adv-x="521" 
d="M182 205q1 -32 8.5 -54.5t23.5 -37t41.5 -21.5t64.5 -7q16 0 35 1.5t38 4.5t35.5 6.5t27.5 6.5l12 -92q-31 -10 -75.5 -16.5t-91.5 -6.5q-57 0 -104.5 11.5t-82 40t-53.5 77.5t-19 124q0 72 16.5 121t47 78t73.5 41.5t96 12.5q54 0 92.5 -14.5t63 -41.5t36 -65t11.5 -86
v-83h-296zM352 284q0 63 -18.5 94t-63.5 31q-47 0 -66 -31.5t-21 -93.5h169z" />
    <glyph glyph-name="afii10080" unicode="&#x43e;" horiz-adv-x="563" 
d="M521 242q0 -134 -61.5 -193.5t-178.5 -59.5q-116 0 -177.5 59.5t-61.5 193.5t61.5 193.5t177.5 59.5q117 0 178.5 -59.5t61.5 -193.5zM382 242q0 45 -6 75t-18.5 48.5t-31.5 26t-44 7.5q-26 0 -45 -7.5t-31.5 -26t-18.5 -48.5t-6 -75t6 -75t18.5 -48.5t31.5 -26t45 -7.5
q25 0 44 7.5t31.5 26t18.5 48.5t6 75z" />
    <glyph glyph-name="afii10082" unicode="&#x440;" horiz-adv-x="570" 
d="M71 457q46 16 105.5 27t115.5 11q51 0 94.5 -13t75 -42t49.5 -76t18 -115q0 -75 -17.5 -125t-47.5 -80t-71 -42.5t-88 -12.5q-23 0 -50.5 3.5t-49.5 7.5v-188h-134v645zM205 97q23 -5 43.5 -8.5t43.5 -3.5q24 0 42 7.5t30.5 26t19 50t6.5 79.5q0 46 -7 75t-20 46
t-31.5 23.5t-41.5 6.5q-20 0 -44.5 -3.5t-40.5 -7.5v-291z" />
    <glyph glyph-name="afii10083" unicode="&#x441;" horiz-adv-x="438" 
d="M389 387q-23 5 -48.5 8.5t-51.5 3.5q-27 0 -47 -6.5t-33.5 -24t-20.5 -48t-7 -78.5q0 -43 5.5 -73t18 -48.5t34 -27t53.5 -8.5q29 0 54.5 4.5t50.5 11.5l11 -94q-26 -8 -61.5 -13t-69.5 -5q-54 0 -97 13.5t-74 44t-47.5 79t-16.5 118.5q0 72 17.5 120t49.5 77.5t77 41.5
t100 12q30 0 62 -3.5t54 -8.5z" />
    <glyph glyph-name="afii10087" unicode="&#x445;" horiz-adv-x="499" 
d="M158 484l95 -171l101 171h137l-157 -237l162 -247h-149l-104 171l-104 -171h-137l161 241l-153 243h148z" />
    <glyph glyph-name="afii10076" unicode="&#x43a;" horiz-adv-x="542" 
d="M204 484v-207l178 207h140l-173 -195q55 -11 91 -50.5t53 -102.5l38 -136h-144l-33 124q-12 46 -39 62.5t-57 18.5l-54 -54v-151h-134v484h134z" />
    <glyph glyph-name="nonbreakingspace" horiz-adv-x="280" 
 />
    <glyph glyph-name="afii10058" unicode="&#x409;" horiz-adv-x="983" 
d="M603 665v-242h79q65 0 114 -11.5t81.5 -37t49 -66.5t16.5 -100q0 -60 -17.5 -101.5t-49.5 -68t-76.5 -38.5t-99.5 -12t-112 6t-123 20v546h-165l-32 -317q-14 -132 -68 -193t-145 -61q-30 0 -48 5q-10 3 -17 6v104q4 -1 8 -1q4 -1 9.5 -1h13.5q42 0 73 34.5t38 106.5
l42 422h429zM603 96q20 -4 38 -6t38 -2q69 0 97.5 30.5t28.5 89.5q0 65 -29 91t-94 26h-79v-229z" />
    <glyph glyph-name="afii10059" unicode="&#x40a;" horiz-adv-x="1023" 
d="M231 665v-247h274v247h139v-242h79q64 0 113 -11.5t81.5 -37t49 -66.5t16.5 -100q0 -60 -17.5 -101.5t-49 -68t-76.5 -38.5t-99 -12q-55 0 -112.5 6t-123.5 20v300h-274v-314h-138v665h138zM644 96q20 -4 37.5 -6t37.5 -2q70 0 98.5 30.5t28.5 89.5q0 65 -29.5 91
t-93.5 26h-79v-229z" />
    <glyph glyph-name="afii10060" unicode="&#x40b;" horiz-adv-x="769" 
d="M574 0v180q0 64 -31.5 99.5t-105.5 35.5q-38 0 -71 -5t-54 -10v-300h-138v566h-184v99h507v-99h-185v-162q29 5 61.5 8t68.5 3q75 0 126.5 -16t83.5 -46.5t46.5 -74.5t14.5 -99v-179h-139z" />
    <glyph glyph-name="afii10145" unicode="&#x40f;" horiz-adv-x="748" 
d="M93 0v665h138v-561h285v561h139v-665h-212v-150h-139v150h-211z" />
    <glyph glyph-name="afii10099" unicode="&#x452;" horiz-adv-x="584" 
d="M0 659h76v71h134v-71h145v-96h-145v-102q25 5 52 8.5t53 3.5q45 0 82.5 -9t65.5 -29.5t43.5 -54.5t15.5 -83v-161q0 -48 -10 -85t-32 -69t-56.5 -61.5t-83.5 -60.5l-58 68q33 28 53.5 51.5t32 47.5t16 49.5t4.5 58.5v157q0 49 -26 67t-66 18q-21 0 -45 -3.5t-41 -7.5
v-366h-134v563h-76v96z" />
    <glyph glyph-name="uni20BD" unicode="&#x20bd;" horiz-adv-x="628" 
d="M30 351h70v314h222q131 0 197 -48.5t66 -157.5q0 -56 -18 -94t-50.5 -61t-78.5 -33.5t-102 -10.5h-97v-60h217v-89h-217v-111h-139v111h-70v89h70v60h-70v91zM322 351q68 0 96.5 26t28.5 82q0 55 -29.5 81t-95.5 26h-83v-215h83z" />
    <glyph glyph-name="afii10106" unicode="&#x459;" horiz-adv-x="817" 
d="M498 484v-155q20 5 36 7.5t39 2.5q111 0 162.5 -47.5t51.5 -127.5q0 -79 -53.5 -127t-167.5 -48q-53 0 -107 8.5t-97 19.5v371h-115l-24 -206q-12 -100 -57.5 -147t-113.5 -47q-11 0 -21 2t-18 4q-10 3 -18 6v96q2 0 7.5 -1t13.5 -1q28 0 50 21.5t27 66.5q8 76 16 151.5
t16 150.5h373zM561 243q-23 0 -36.5 -2.5t-27.5 -6.5v-141q5 -2 20.5 -5t41.5 -3q89 0 89 80q0 34 -21.5 56t-65.5 22z" />
    <glyph glyph-name="afii10107" unicode="&#x45a;" horiz-adv-x="828" 
d="M509 329q17 4 35.5 7t40.5 3q111 0 162 -47.5t51 -127.5q0 -79 -53 -127t-167 -48q-53 0 -107.5 8.5t-96.5 19.5v211h-169v-228h-135v484h135v-160h169v160h135v-155zM508 93q4 -2 20.5 -5t42.5 -3q88 0 88 80q0 34 -21 56t-66 22q-23 0 -37 -2.5t-27 -6.5v-141z" />
    <glyph glyph-name="afii10108" unicode="&#x45b;" horiz-adv-x="588" 
d="M0 659h76v71h134v-71h145v-96h-145v-102q25 5 52 8.5t53 3.5q45 0 82.5 -9t65.5 -29.5t43.5 -54.5t15.5 -83v-297h-134v292q0 44 -22 64.5t-70 20.5q-21 0 -45 -3.5t-41 -7.5v-366h-134v563h-76v96z" />
    <glyph glyph-name="afii10193" unicode="&#x45f;" horiz-adv-x="590" 
d="M362 0v-121h-134v121h-158v484h135v-388h180v388h135v-484h-158z" />
    <glyph glyph-name="currency" unicode="&#xa4;" horiz-adv-x="628" 
d="M30 351h70v314h222q131 0 197 -48.5t66 -157.5q0 -56 -18 -94t-50.5 -61t-78.5 -33.5t-102 -10.5h-97v-60h217v-89h-217v-111h-139v111h-70v89h70v60h-70v91zM322 351q68 0 96.5 26t28.5 82q0 55 -29.5 81t-95.5 26h-83v-215h83z" />
    <glyph glyph-name="afii10050" unicode="&#x490;" horiz-adv-x="524" 
d="M396 665v115h123v-214h-288v-566h-138v665h303z" />
    <glyph glyph-name="afii10053" unicode="&#x404;" horiz-adv-x="574" 
d="M515 556q-33 8 -76.5 14t-82.5 6q-72 0 -112.5 -42.5t-47.5 -147.5h244v-98h-245q3 -59 15.5 -97.5t33.5 -61t51.5 -31t70.5 -8.5q38 0 79.5 6.5t76.5 14.5l10 -99q-35 -11 -81 -17.5t-91 -6.5q-74 0 -132 17t-97.5 57.5t-60.5 107t-21 164.5q0 96 20.5 161.5t60.5 105.5
t98.5 57.5t133.5 17.5q45 0 90 -6t77 -13z" />
    <glyph glyph-name="afii10098" unicode="&#x491;" horiz-adv-x="411" 
d="M407 388h-203v-388h-134v484h216v127h121v-223z" />
    <glyph glyph-name="afii61352" unicode="&#x2116;" horiz-adv-x="1110" 
d="M903 447q-14 0 -26 -5t-21 -17t-14.5 -32.5t-5.5 -50.5q0 -31 5.5 -51.5t14.5 -33t21 -18t26 -5.5q27 0 45.5 23t18.5 84t-18.5 83.5t-45.5 22.5zM903 517q36 0 66 -9.5t51.5 -30.5t34 -54.5t12.5 -81.5q0 -47 -12.5 -80.5t-34 -55t-51.5 -31.5t-66 -10t-66 10t-52 31.5
t-34.5 55.5t-12.5 81q0 48 12.5 81t34.5 54t52 30.5t66 9.5zM1042 96v-96h-278v96h278zM206 665l322 -359v359h135v-665h-135v141l-301 330v-471h-134v665h113z" />
    <glyph glyph-name="afii10101" unicode="&#x454;" horiz-adv-x="438" 
d="M389 387q-23 5 -48.5 8.5t-51.5 3.5q-23 0 -41 -5t-31.5 -17t-22 -33.5t-11.5 -53.5h152v-96h-152q5 -60 30 -84.5t79 -24.5q29 0 54 4.5t51 11.5l11 -94q-26 -8 -61.5 -13t-69.5 -5q-54 0 -97 13.5t-74 44t-47.5 79t-16.5 118.5q0 72 17.5 120t49.5 77.5t77 41.5t100 12
q30 0 62 -3.5t54 -8.5z" />
    <glyph glyph-name="afii10018" unicode="&#x411;" horiz-adv-x="617" 
d="M519 665v-99h-288v-143h84q65 0 114 -11t82 -36t49.5 -66t16.5 -102t-17.5 -103t-49.5 -68t-77 -37.5t-100 -11.5t-114.5 6t-125.5 20v651h426zM231 96q23 -4 43 -6t38 -2q70 0 99 29t29 91q0 69 -30.5 93t-94.5 24h-84v-229z" />
    <glyph glyph-name="afii10020" unicode="&#x413;" horiz-adv-x="524" 
d="M519 665v-99h-288v-566h-138v665h426z" />
    <glyph glyph-name="afii10021" unicode="&#x414;" horiz-adv-x="695" 
d="M-5 104h38q19 14 35 36q14 19 26.5 49t17.5 72l41 404h439v-561h89l-17 -256h-122v152h-408l-17 -152h-122v256zM248 262q-5 -42 -18 -72t-27 -49q-17 -23 -36 -37h287v457h-175z" />
    <glyph glyph-name="afii10024" unicode="&#x416;" horiz-adv-x="954" 
d="M335 268q-28 -6 -47.5 -19t-34.5 -32t-27.5 -44.5t-25.5 -56.5l-50 -116h-150l68 157q16 37 34 69t40 57t49.5 43.5t64.5 29.5l-254 309h139l267 -328v328h138v-328l267 328h139l-254 -309q37 -11 64.5 -29.5t49.5 -43.5t39.5 -57t34.5 -69l68 -157h-150l-50 116
q-14 31 -26 56.5t-27 44.5t-34.5 32t-47.5 19l-73 -88v-180h-138v180z" />
    <glyph glyph-name="afii10025" unicode="&#x417;" horiz-adv-x="537" 
d="M225 391q52 0 82.5 19.5t30.5 72.5q0 51 -30 71.5t-87 20.5q-42 0 -84.5 -6t-80.5 -17l-11 100q39 11 85.5 18t102.5 7q55 0 100.5 -11.5t77.5 -34.5t49.5 -58t17.5 -82q0 -43 -15 -71.5t-32 -45.5q-21 -20 -47 -32q28 -10 50 -29q19 -17 35 -44.5t16 -71.5
q0 -55 -17.5 -94.5t-50.5 -65t-81 -37.5t-109 -12q-58 0 -107 7t-91 18l11 101q41 -11 85.5 -18t89.5 -7q59 0 94.5 22.5t35.5 76.5q0 57 -32 80t-93 23h-76v100h81z" />
    <glyph glyph-name="afii10026" unicode="&#x418;" horiz-adv-x="757" 
d="M229 80v-80h-136v665h136v-420l299 327v93h136v-665h-136v402z" />
    <glyph glyph-name="afii10029" unicode="&#x41b;" horiz-adv-x="706" 
d="M613 665v-665h-138v560h-175l-32 -317q-14 -133 -68 -193.5t-145 -60.5q-30 0 -48 5q-10 3 -17 6v104q4 -1 9 -1q4 -1 9.5 -1h12.5q42 0 72.5 34.5t38.5 106.5l42 422h439z" />
    <glyph glyph-name="afii10033" unicode="&#x41f;" horiz-adv-x="748" 
d="M655 665v-665h-139v561h-285v-561h-138v665h562z" />
    <glyph glyph-name="afii10037" unicode="&#x423;" horiz-adv-x="610" 
d="M66 71q34 21 62.5 44.5t49.5 44t34.5 36t17.5 21.5l-223 448h146l166 -352q30 41 54 87.5t43 93t32.5 90.5t22.5 81h137q-16 -61 -40.5 -127t-56.5 -132t-72 -129t-87 -118.5t-101 -100.5t-115 -74z" />
    <glyph glyph-name="afii10038" unicode="&#x424;" horiz-adv-x="842" 
d="M185 332q0 -47 9.5 -79.5t30 -52t52 -28t75.5 -8.5v336q-44 0 -75.5 -8.5t-52 -28t-30 -51.5t-9.5 -80zM657 332q0 48 -9.5 80t-30 51.5t-52 28t-75.5 8.5v-336q44 0 75.5 8.5t52 28t30 52t9.5 79.5zM490 -20h-138v83q-152 0 -229.5 65t-77.5 203q0 139 77.5 204.5
t229.5 65.5v84h138v-84q152 0 229.5 -65.5t77.5 -204.5q0 -138 -77.5 -203t-229.5 -65v-83z" />
    <glyph glyph-name="afii10040" unicode="&#x426;" horiz-adv-x="742" 
d="M93 0v665h139v-561h272v561h139v-561h89l-18 -256h-121v152h-500z" />
    <glyph glyph-name="afii10041" unicode="&#x427;" horiz-adv-x="708" 
d="M214 665v-217q0 -63 34 -96t103 -33q38 0 71.5 5t53.5 10v331h139v-665h-139v230q-29 -5 -61 -8t-68 -3q-75 0 -127 16t-84 46.5t-46.5 74.5t-14.5 99v210h139z" />
    <glyph glyph-name="afii10042" unicode="&#x428;" horiz-adv-x="989" 
d="M93 0v665h138v-561h194v561h139v-561h194v561h138v-665h-803z" />
    <glyph glyph-name="afii10043" unicode="&#x429;" horiz-adv-x="996" 
d="M93 0v665h138v-561h194v561h139v-561h194v561h138v-561h90l-18 -256h-122v152h-753z" />
    <glyph glyph-name="afii10044" unicode="&#x42a;" horiz-adv-x="670" 
d="M291 665v-242h79q65 0 113.5 -11.5t81 -37t49 -66.5t16.5 -100q0 -60 -17.5 -101.5t-49 -68t-76 -38.5t-99.5 -12t-112 6t-123 20v544h-153v107h291zM291 96q20 -4 38 -6t38 -2q69 0 97.5 30.5t28.5 89.5q0 65 -29.5 91t-93.5 26h-79v-229z" />
    <glyph glyph-name="afii10045" unicode="&#x42b;" horiz-adv-x="903" 
d="M232 665v-242h78q65 0 114 -11.5t81.5 -37t49 -66.5t16.5 -100q0 -60 -17.5 -101.5t-49 -68t-76.5 -38.5t-99 -12q-55 0 -112.5 6t-123.5 20v651h139zM232 96q19 -4 37 -6t38 -2q69 0 97.5 30.5t28.5 89.5q0 65 -29 91t-94 26h-78v-229zM810 665v-665h-138v665h138z" />
    <glyph glyph-name="afii10046" unicode="&#x42c;" horiz-adv-x="618" 
d="M231 665v-242h84q65 0 114.5 -11t82.5 -36t49.5 -66t16.5 -102q0 -62 -18 -104t-50 -67.5t-77.5 -37t-99.5 -11.5q-55 0 -114.5 6t-125.5 20v651h138zM231 96q23 -4 43 -6t38 -2q69 0 98.5 29t29.5 91q0 69 -30.5 93t-94.5 24h-84v-229z" />
    <glyph glyph-name="afii10047" unicode="&#x42d;" horiz-adv-x="572" 
d="M42 657q32 7 77 13t90 6q76 0 134.5 -17.5t98.5 -57.5t60.5 -105.5t20.5 -161.5q0 -98 -21 -164.5t-60.5 -107t-97.5 -57.5t-132 -17q-45 0 -91.5 6.5t-81.5 17.5l10 99q35 -8 77 -14.5t80 -6.5q40 0 70.5 8.5t51.5 31t33 61t15 97.5h-244v98h244q-8 105 -48 147.5
t-112 42.5q-39 0 -83 -6t-76 -14z" />
    <glyph glyph-name="afii10048" unicode="&#x42e;" horiz-adv-x="973" 
d="M638 676q70 0 123.5 -20t89.5 -62t54.5 -107t18.5 -156q0 -181 -72 -262t-214 -81q-131 0 -203.5 71.5t-81.5 229.5h-122v-289h-138v665h138v-272h124q12 149 84.5 216t198.5 67zM639 574q-34 0 -60.5 -12t-44.5 -40.5t-27.5 -75t-9.5 -114.5t9.5 -114.5t27.5 -75t44 -41
t60 -12.5t60.5 12t44.5 40.5t27 75t9 115.5q0 68 -9.5 114.5t-27.5 75t-44 40.5t-59 12z" />
    <glyph glyph-name="afii10049" unicode="&#x42f;" horiz-adv-x="639" 
d="M545 665v-665h-138v239h-74q-27 0 -45.5 -7t-31.5 -20t-22 -32.5t-17 -43.5l-45 -136h-144l54 166q17 50 39.5 77.5t59.5 41.5q-24 8 -45.5 21t-38.5 33t-27 48t-10 67q0 60 16.5 100.5t49.5 65t82.5 35t114.5 10.5h222zM407 566h-84q-32 0 -55.5 -4.5t-39 -17t-23 -34.5
t-7.5 -56q0 -62 29.5 -89t98.5 -27h81v228z" />
    <glyph glyph-name="afii10066" unicode="&#x431;" horiz-adv-x="565" 
d="M523 226q0 -113 -59 -175t-181 -62q-118 0 -179 67.5t-61 213.5v48q0 98 17.5 167t50.5 114t81 69.5t110 33.5l162 24l13 -117l-160 -23q-65 -9 -100 -46.5t-43 -118.5q11 12 29 23q16 9 41 16.5t62 7.5q106 0 161.5 -61t55.5 -181zM181 227q0 -81 26 -111.5t74 -30.5
q49 0 74 30.5t25 110.5q0 79 -25 110.5t-74 31.5q-47 0 -73.5 -32t-26.5 -109z" />
    <glyph glyph-name="afii10067" unicode="&#x432;" horiz-adv-x="543" 
d="M70 466q18 5 41.5 10.5t50.5 9.5t55.5 6.5t55.5 2.5q60 0 100 -11.5t64 -31t34 -44.5t10 -53t-11 -47t-24 -31q-16 -14 -35 -22q28 -8 50 -24q19 -14 34.5 -37t15.5 -60q0 -30 -14 -56t-42.5 -46t-72 -31.5t-103.5 -11.5q-24 0 -51.5 2.5t-55.5 6.5t-54.5 9t-47.5 10v449
zM204 206v-121q6 -2 23.5 -4.5t52.5 -2.5q50 0 71 18.5t21 45.5t-21 45.5t-71 18.5h-76zM266 403q-17 0 -32.5 -2.5t-29.5 -5.5v-99h57q45 0 63 15.5t18 38.5q0 22 -17 37.5t-59 15.5z" />
    <glyph glyph-name="afii10068" unicode="&#x433;" horiz-adv-x="411" 
d="M407 388h-203v-388h-134v484h337v-96z" />
    <glyph glyph-name="afii10069" unicode="&#x434;" horiz-adv-x="575" 
d="M429 0h-300l-17 -122h-117v218h30q15 8 28 23q11 12 21 32.5t13 49.5l30 283h377v-388h71l-18 -218h-118v122zM216 201q-3 -24 -12.5 -43t-19.5 -33q-12 -16 -26 -29h202v292h-121z" />
    <glyph glyph-name="afii10072" unicode="&#x436;" horiz-adv-x="790" 
d="M328 161l-44 44q-30 -2 -57 -18.5t-39 -62.5l-33 -124h-144l38 136q17 63 53 102.5t91 50.5l-173 195h140l168 -196v196h134v-196l168 196h140l-173 -195q55 -11 91 -50.5t53 -102.5l38 -136h-144l-33 124q-12 46 -39 62.5t-57 18.5l-44 -44v-161h-134v161z" />
    <glyph glyph-name="afii10073" unicode="&#x437;" horiz-adv-x="435" 
d="M166 495q59 0 100.5 -12.5t67 -32t37 -43.5t11.5 -48q0 -30 -12.5 -50t-27.5 -32q-18 -14 -40 -22q27 -7 48 -21q18 -12 33.5 -34.5t15.5 -57.5q0 -33 -15 -60.5t-45 -48t-73.5 -32t-100.5 -11.5q-35 0 -73 4.5t-65 12.5l11 90q26 -6 54.5 -11t66.5 -5q55 0 77.5 19
t22.5 45q0 21 -21.5 41.5t-70.5 20.5h-58v84h54q39 0 59.5 16.5t20.5 35.5q0 21 -19 38.5t-61 17.5q-30 0 -60.5 -4t-52.5 -9l-12 97q11 2 26.5 4.5t33 4t35.5 2.5t33 1z" />
    <glyph glyph-name="afii10074" unicode="&#x438;" horiz-adv-x="598" 
d="M205 484v-266l188 198v68h135v-484h-135v265l-188 -198v-67h-135v484h135z" />
    <glyph glyph-name="afii10077" unicode="&#x43b;" horiz-adv-x="572" 
d="M502 484v-484h-135v388h-120l-21 -175q-14 -115 -55.5 -170t-118.5 -55q-11 0 -21 2t-18 4q-10 3 -18 6v97q2 -1 6 -1q4 -1 15 -1q28 0 50 21.5t27 66.5q8 76 16 151l16 150h377z" />
    <glyph glyph-name="afii10078" unicode="&#x43c;" horiz-adv-x="708" 
d="M315 127l-110 162v-289h-135v484h125l160 -230l159 230h124v-484h-134v289l-111 -162h-78z" />
    <glyph glyph-name="afii10079" unicode="&#x43d;" horiz-adv-x="590" 
d="M205 484v-194h180v194h135v-484h-135v194h-180v-194h-135v484h135z" />
    <glyph glyph-name="afii10081" unicode="&#x43f;" horiz-adv-x="590" 
d="M520 484v-484h-135v388h-180v-388h-135v484h450z" />
    <glyph glyph-name="afii10084" unicode="&#x442;" horiz-adv-x="461" 
d="M10 484h441v-96h-153v-388h-135v388h-153v96z" />
    <glyph glyph-name="afii10085" unicode="&#x443;" horiz-adv-x="519" 
d="M172 25l-170 459h139l119 -353q16 36 32.5 73t31.5 79t29 91.5t25 109.5h128q-10 -49 -25.5 -108.5t-38 -124t-52 -130t-65.5 -126t-79.5 -112.5t-94.5 -89l-69 79q42 38 76 76.5t49 75.5h-35z" />
    <glyph glyph-name="afii10086" unicode="&#x444;" horiz-adv-x="795" 
d="M330 -6q-17 -2 -33.5 -3.5t-30.5 -1.5q-47 0 -88 12.5t-71 42.5t-47.5 80t-17.5 125q0 68 18 115t49.5 76t75 42t94.5 13q25 0 51 -3v173h135v-173q25 3 51 3q51 0 94.5 -13t75 -42t49.5 -76t18 -115q0 -75 -17.5 -125t-47.5 -80t-71 -42.5t-88 -12.5q-15 0 -31.5 1.5
t-32.5 3.5v-182h-135v182zM514 399q-21 0 -49 -5v-304q28 -5 51 -5q24 0 42 7.5t30.5 26t19 50t6.5 79.5q0 46 -7 75t-20 46t-31.5 23.5t-41.5 6.5zM279 85q23 0 51 5v304q-28 5 -49 5q-23 0 -41.5 -6.5t-31.5 -23.5t-20 -46t-7 -75q0 -48 6.5 -79.5t19 -50t30.5 -26
t42 -7.5z" />
    <glyph glyph-name="afii10088" unicode="&#x446;" horiz-adv-x="601" 
d="M70 0v484h135v-388h180v388h135v-388h71l-18 -219h-118v123h-385z" />
    <glyph glyph-name="afii10089" unicode="&#x447;" horiz-adv-x="571" 
d="M365 172q-13 -6 -31 -10q-15 -4 -36 -6.5t-48 -2.5q-35 0 -69 8.5t-61 28.5t-43.5 54.5t-16.5 87.5v152h135v-155q0 -45 23.5 -62.5t58.5 -17.5q21 0 37.5 3t27.5 8q13 4 23 11v213h136v-484h-136v172z" />
    <glyph glyph-name="afii10090" unicode="&#x448;" horiz-adv-x="847" 
d="M70 0v484h135v-388h151v388h135v-388h151v388h135v-484h-707z" />
    <glyph glyph-name="afii10091" unicode="&#x449;" horiz-adv-x="857" 
d="M70 0v484h135v-388h151v388h135v-388h151v388h135v-387h70l-17 -219h-118v122h-642z" />
    <glyph glyph-name="afii10092" unicode="&#x44a;" horiz-adv-x="572" 
d="M263 329q20 5 35 7.5t38 2.5q109 0 160 -47.5t51 -127.5q0 -79 -53 -127t-167 -48q-53 0 -105 8.5t-94 19.5v365h-126v102h261v-155zM262 93q4 -2 18.5 -5t40.5 -3q87 0 87 80q0 34 -20.5 56t-64.5 22q-23 0 -35 -2.5t-26 -6.5v-141z" />
    <glyph glyph-name="afii10093" unicode="&#x44b;" horiz-adv-x="776" 
d="M205 330q19 5 34.5 7t38.5 2q109 0 160 -47.5t51 -127.5q0 -79 -53 -127t-167 -48q-53 0 -105 8.5t-94 19.5v467h135v-154zM204 93q4 -2 18.5 -5t40.5 -3q87 0 87 80q0 34 -20.5 56t-64.5 22q-23 0 -35.5 -2.5t-25.5 -6.5v-141zM706 484v-484h-134v484h134z" />
    <glyph glyph-name="afii10094" unicode="&#x44c;" horiz-adv-x="524" 
d="M205 329q21 5 38 7.5t40 2.5q113 0 164.5 -47.5t51.5 -127.5q0 -79 -54 -127t-174 -48q-24 0 -50.5 2.5t-53 6t-51.5 8.5t-46 11v467h135v-155zM204 93q6 -1 21.5 -4.5t42.5 -3.5q49 0 70.5 21.5t21.5 58.5q0 34 -22 56t-67 22q-23 0 -37.5 -2.5t-29.5 -6.5v-141z" />
    <glyph glyph-name="afii10095" unicode="&#x44d;" horiz-adv-x="438" 
d="M35 483q22 5 54.5 8.5t62.5 3.5q55 0 100 -12t77 -41.5t49.5 -77.5t17.5 -120q0 -70 -17 -118.5t-47.5 -79t-74 -44t-96.5 -13.5q-34 0 -69.5 5t-62.5 13l12 94q25 -6 50 -11t54 -5q54 0 79.5 24.5t30.5 84.5h-152v96h152q-3 32 -11.5 53.5t-22 33.5t-31.5 17t-41 5
q-27 0 -52.5 -3.5t-48.5 -8.5z" />
    <glyph glyph-name="afii10096" unicode="&#x44e;" horiz-adv-x="788" 
d="M746 242q0 -67 -15.5 -115t-45 -78.5t-72.5 -45t-97 -14.5q-98 0 -158 48.5t-70 156.5h-84v-194h-134v484h134v-194h84q11 108 69.5 157t158.5 49q109 0 169.5 -60.5t60.5 -193.5zM607 243q0 45 -6 75t-18 48t-29 26t-38 8q-44 0 -68 -34t-24 -123q0 -90 24 -124t68 -34
q21 0 38 8t29 26t18 48t6 76z" />
    <glyph glyph-name="afii10097" unicode="&#x44f;" horiz-adv-x="552" 
d="M347 0v161h-47q-39 0 -66 -21.5t-38 -50.5l-33 -89h-143l33 91q11 30 27.5 50.5t32.5 33.5q18 15 37 24q-28 8 -50 26q-19 15 -34 40.5t-15 65.5q0 34 13 64.5t40.5 52.5t70 35t102.5 13q24 0 51 -2.5t54 -6.5t53 -9.5t47 -11.5v-466h-135zM347 391q-11 3 -29.5 6
t-40.5 3q-45 0 -66 -18.5t-21 -54.5t21 -54t66 -18h70v136z" />
    <glyph glyph-name="afii10051" unicode="&#x402;" horiz-adv-x="745" 
d="M574 186q0 63 -33.5 96t-103.5 33q-38 0 -71 -5t-54 -10v-300h-138v566h-184v99h507v-99h-185v-162q29 5 61.5 8t68.5 3q75 0 126.5 -16t83.5 -46.5t46.5 -74.5t14.5 -99v-8q0 -53 -17 -95t-45.5 -76.5t-65.5 -63t-77 -55.5l-61 78q31 27 54.5 50.5t39.5 47.5t24.5 50.5
t8.5 59.5v19v0z" />
    <glyph glyph-name="afii10052" unicode="&#x403;" horiz-adv-x="524" 
d="M519 665v-99h-288v-566h-138v665h426zM464 911l-125 -161h-103l84 161h144z" />
    <glyph glyph-name="afii10100" unicode="&#x453;" horiz-adv-x="414" 
d="M410 388h-203v-388h-134v484h337v-96zM405 730l-125 -161h-103l84 161h144z" />
    <glyph glyph-name="afii10061" unicode="&#x40c;" horiz-adv-x="653" 
d="M231 665v-345l281 345h139l-254 -309q37 -11 64.5 -29.5t49.5 -43.5t39.5 -57t34.5 -69l68 -157h-150l-50 116q-14 31 -26 56.5t-27 44.5t-34.5 32t-47.5 19l-87 -105v-163h-138v665h138zM537 911l-125 -161h-103l84 161h144z" />
    <glyph glyph-name="afii10109" unicode="&#x45c;" horiz-adv-x="542" 
d="M204 484v-207l178 207h140l-173 -195q55 -11 91 -50.5t53 -102.5l38 -136h-144l-33 124q-12 46 -39 62.5t-57 18.5l-54 -54v-151h-134v484h134zM457 730l-125 -161h-103l84 161h144z" />
    <glyph glyph-name="afii10062" unicode="&#x40e;" horiz-adv-x="610" 
d="M66 71q34 21 62.5 44.5t49.5 44t34.5 36t17.5 21.5l-223 448h146l166 -352q30 41 54 87.5t43 93t32.5 90.5t22.5 81h137q-16 -61 -40.5 -127t-56.5 -132t-72 -129t-87 -118.5t-101 -100.5t-115 -74zM243 899q2 -60 62 -60q59 0 61 60h95q-1 -38 -13 -64t-32.5 -42.5
t-49 -24t-61.5 -7.5q-68 0 -111 31.5t-46 106.5h95z" />
    <glyph glyph-name="afii10110" unicode="&#x45e;" horiz-adv-x="519" 
d="M172 25l-170 459h139l119 -353q16 36 32.5 73t31.5 79t29 91.5t25 109.5h128q-10 -49 -25.5 -108.5t-38 -124t-52 -130t-65.5 -126t-79.5 -112.5t-94.5 -89l-69 79q42 38 76 76.5t49 75.5h-35zM199 718q2 -60 62 -60q59 0 61 60h95q-1 -38 -13 -64t-32.5 -42.5t-49 -24
t-61.5 -7.5q-68 0 -111 31.5t-46 106.5h95z" />
    <glyph glyph-name="afii10027" unicode="&#x419;" horiz-adv-x="757" 
d="M229 80v-80h-136v665h136v-420l299 327v93h136v-665h-136v402zM317 899q2 -60 62 -60q59 0 61 60h95q-1 -38 -13 -64t-32.5 -42.5t-49 -24t-61.5 -7.5q-68 0 -111 31.5t-46 106.5h95z" />
    <glyph glyph-name="afii10075" unicode="&#x439;" horiz-adv-x="598" 
d="M205 484v-266l188 198v68h135v-484h-135v265l-188 -198v-67h-135v484h135zM237 718q2 -60 62 -60q59 0 61 60h95q-1 -38 -13 -64t-32.5 -42.5t-49 -24t-61.5 -7.5q-68 0 -111 31.5t-46 106.5h95z" />
    </font>
</defs>
</svg>
