<?xml version="1.0" standalone="no"?>
<!DOCTYPE svg PUBLIC "-//W3C//DTD SVG 1.1//EN" "http://www.w3.org/Graphics/SVG/1.1/DTD/svg11.dtd" >
<svg xmlns="http://www.w3.org/2000/svg" xmlns:xlink="http://www.w3.org/1999/xlink" version="1.1">
<metadata>
Created by FontForge 20161116 at Tue Feb  7 14:55:34 2017
 By Jimmy Warting
Copyright (c) 2010 by Dassault Systmes Company. All rights reserved.
</metadata>
<defs>
<font id="3ds-SemiBoldItalic" horiz-adv-x="575" >
  <font-face 
    font-family="3ds SemiBold"
    font-weight="600"
    font-style="italic"
    font-stretch="normal"
    units-per-em="1000"
    panose-1="2 0 5 3 2 0 0 2 0 4"
    ascent="800"
    descent="-200"
    x-height="484"
    cap-height="665"
    bbox="-75 -232 1183 1015"
    underline-thickness="50"
    underline-position="-100"
    unicode-range="U+000D-FB02"
  />
<missing-glyph horiz-adv-x="548" 
d="M595 665l-143 -665h-377l143 665h377zM197 91h171l104 483h-171z" />
    <glyph glyph-name="fi" unicode="fi" horiz-adv-x="594" 
d="M185 484l14 67q11 52 34.5 88.5t57 59t77.5 32.5t97 10q22 0 46 -1.5t47 -4.5t42.5 -6.5t32.5 -6.5l-23 -96q-26 6 -67.5 12t-79.5 6q-33 0 -55 -5t-37 -16.5t-24 -30t-15 -46.5l-13 -62h286l-77 -355q-2 -10 -2 -15q0 -14 7 -19.5t21 -5.5q11 0 23 1.5t30 6.5l-17 -97
q-18 -5 -35 -8t-41 -3q-54 0 -88.5 21.5t-34.5 75.5q0 8 1.5 20t3.5 23l55 261h-153l-68 -314q-11 -52 -30 -93t-47.5 -75t-67 -62.5t-87.5 -54.5l-49 80q36 24 61 47t42 47.5t27.5 51.5t17.5 58l67 315h-71l20 94h72z" />
    <glyph glyph-name="fl" unicode="fl" horiz-adv-x="598" 
d="M185 484l17 77q11 50 34.5 84.5t58 55.5t78.5 30.5t97 9.5q51 0 100 -7t86 -15l-127 -586q-2 -10 -2 -15q0 -18 10 -23.5t24 -5.5q11 0 25 1.5t35 6.5l-20 -97q-19 -5 -39.5 -8t-45.5 -3q-27 0 -49.5 5t-39 17t-26 30.5t-9.5 45.5q0 9 0.5 19.5t3.5 22.5l109 513
q-9 1 -19.5 1.5t-21.5 0.5q-28 0 -49.5 -3.5t-37.5 -14t-26.5 -28.5t-16.5 -46l-15 -68h91l-21 -94h-91l-68 -314q-11 -52 -30 -93t-47 -74.5t-66.5 -62t-87.5 -54.5l-50 79q36 24 61 47t42 47.5t27.5 51.5t17.5 58l67 315h-71l20 94h72z" />
    <glyph glyph-name=".notdef" horiz-adv-x="548" 
d="M595 665l-143 -665h-377l143 665h377zM197 91h171l104 483h-171z" />
    <glyph glyph-name=".null" horiz-adv-x="0" 
 />
    <glyph glyph-name=".null" horiz-adv-x="0" 
 />
    <glyph glyph-name="nonmarkingreturn" unicode="&#xd;" horiz-adv-x="266" 
 />
    <glyph glyph-name="space" unicode=" " horiz-adv-x="266" 
 />
    <glyph glyph-name="A" unicode="A" horiz-adv-x="637" 
d="M194 0h-134l91 432q12 55 33.5 100t57 77t86 49.5t119.5 17.5q115 0 167 -46t52 -124q0 -17 -2 -35.5t-6 -38.5l-92 -432h-139l50 234h-233zM499 332l22 107q6 27 6 49q0 42 -20.5 65t-71.5 23q-65 0 -98.5 -37t-47.5 -100l-23 -107h233z" />
    <glyph glyph-name="B" unicode="B" horiz-adv-x="604" 
d="M433 665q99 0 154.5 -35.5t55.5 -109.5q0 -42 -11 -73t-30.5 -52.5t-45.5 -35.5t-55 -22q40 -9 68 -38t28 -82q0 -61 -24 -104.5t-65.5 -71t-97 -40.5t-118.5 -13q-45 0 -102.5 6.5t-114.5 20.5l140 650h218zM229 91q15 -4 39.5 -5t40.5 -1q74 0 107.5 33.5t33.5 97.5
q0 33 -20.5 51.5t-70.5 18.5h-89zM292 383h87q55 0 87.5 29t32.5 94q0 64 -82 64h-85z" />
    <glyph glyph-name="C" unicode="C" horiz-adv-x="542" 
d="M604 557q-27 7 -68 13t-76 6q-40 0 -73 -12.5t-59 -40.5t-46.5 -74.5t-34.5 -113.5q-8 -37 -12 -66.5t-4 -53.5q0 -36 7 -60.5t22 -38.5t38 -20t56 -6q36 0 79.5 7t78.5 15l-11 -101q-35 -11 -79.5 -17t-88.5 -6q-58 0 -103 12t-76.5 38.5t-48 69t-16.5 103.5
q0 29 3 57.5t11 65.5q19 96 53 161.5t82 105.5t109 57.5t133 17.5q44 0 83 -6t65 -13z" />
    <glyph glyph-name="D" unicode="D" horiz-adv-x="651" 
d="M450 665q113 0 173 -53t60 -164q0 -26 -3 -51t-9 -56q-16 -78 -43.5 -143t-73 -111.5t-112 -72.5t-159.5 -26q-46 0 -99 6t-109 19l141 652h234zM230 93q17 -3 38.5 -4t41.5 -1q47 0 82 15.5t60.5 47t43.5 78.5t32 109q6 29 9.5 54t3.5 46q0 69 -29 98t-84 29h-96z" />
    <glyph glyph-name="E" unicode="E" horiz-adv-x="541" 
d="M612 665l-22 -100h-264l-39 -176h243l-21 -100h-243l-25 -118q-3 -12 -3 -22q0 -29 18.5 -40t49.5 -11h195l-21 -98h-201q-86 0 -133 31t-47 97q0 12 1 25t4 26l105 486h403z" />
    <glyph glyph-name="F" unicode="F" horiz-adv-x="530" 
d="M629 665l-21 -100h-274l-42 -195h239l-21 -98h-239l-58 -272h-138l143 665h411z" />
    <glyph glyph-name="G" unicode="G" horiz-adv-x="660" 
d="M678 554q-34 8 -82 15t-102 7q-50 0 -89.5 -12.5t-69.5 -40.5t-51.5 -74.5t-35.5 -113.5q-8 -35 -12 -63.5t-4 -53.5q0 -38 8 -63t24 -40t38.5 -21t51.5 -6q27 0 59.5 3.5t53.5 7.5l37 176h-124l23 102h260l-76 -352q-48 -14 -113.5 -25.5t-130.5 -11.5q-59 0 -106 12
t-80 38.5t-50.5 69.5t-17.5 105q0 29 3.5 58.5t10.5 63.5q20 96 57 161.5t89 105.5t117.5 57t142.5 17q52 0 104.5 -6.5t86.5 -14.5z" />
    <glyph glyph-name="H" unicode="H" horiz-adv-x="711" 
d="M356 665l-59 -272h265l58 272h138l-143 -665h-138l62 289h-265l-61 -289h-138l143 665h138z" />
    <glyph glyph-name="I" unicode="I" horiz-adv-x="308" 
d="M356 665l-143 -665h-138l143 665h138z" />
    <glyph glyph-name="J" unicode="J" horiz-adv-x="308" 
d="M356 665l-124 -574q-11 -52 -35 -94t-57 -77.5t-73.5 -64.5t-85.5 -56l-51 78q36 27 63.5 50.5t47.5 48t33 51.5t20 60l124 578h138z" />
    <glyph glyph-name="K" unicode="K" horiz-adv-x="619" 
d="M356 665l-69 -321l326 321h143l-305 -302q57 -20 83 -69.5t41 -120.5l36 -173h-144l-27 143q-10 54 -30 88.5t-62 41.5l-97 -92l-38 -181h-138l143 665h138z" />
    <glyph glyph-name="L" unicode="L" horiz-adv-x="494" 
d="M356 665l-122 -567h253l-20 -98h-392l143 665h138z" />
    <glyph glyph-name="M" unicode="M" horiz-adv-x="876" 
d="M350 665l141 -332l282 332h150l-143 -665h-137l101 464l-221 -260h-104l-108 260l-99 -464h-137l143 665h132z" />
    <glyph glyph-name="N" unicode="N" horiz-adv-x="718" 
d="M328 665l224 -370l79 370h134l-143 -665h-134l30 144l-207 332l-102 -476h-134l143 665h110z" />
    <glyph glyph-name="O" unicode="O" horiz-adv-x="655" 
d="M458 676q113 0 171 -53.5t58 -165.5q0 -29 -3.5 -59t-11.5 -67q-37 -181 -124.5 -262t-228.5 -81q-114 0 -171.5 53t-57.5 167q0 28 3 58t11 65q38 180 125.5 262.5t228.5 82.5zM442 576q-35 0 -64.5 -13t-53.5 -42t-43 -75.5t-33 -113.5q-8 -37 -12 -67t-4 -55
q0 -68 26.5 -95t78.5 -27q34 0 63 12t52.5 40.5t42.5 75.5t34 116q15 72 15 121q0 68 -25.5 95.5t-76.5 27.5z" />
    <glyph glyph-name="P" unicode="P" horiz-adv-x="592" 
d="M286 335q37 -6 71 -6q69 0 109.5 40.5t40.5 125.5q0 42 -23.5 56t-72.5 14h-77zM432 665q106 0 159 -36.5t53 -125.5q0 -70 -22 -121.5t-61 -85.5t-92 -50.5t-115 -16.5q-45 0 -91 9l-50 -238h-138l143 665h214z" />
    <glyph glyph-name="Q" unicode="Q" horiz-adv-x="655" 
d="M249 -57q31 0 68 -7.5t72 -16.5t64.5 -16.5t46.5 -7.5q23 0 38.5 7t33.5 20l33 -90q-20 -20 -49 -31.5t-72 -11.5q-28 0 -62.5 8.5t-70 19t-68 19.5t-55.5 9zM458 676q113 0 171 -53.5t58 -165.5q0 -29 -3.5 -59t-11.5 -67q-37 -181 -124.5 -262t-228.5 -81
q-114 0 -171.5 53t-57.5 167q0 28 3 58t11 65q38 180 125.5 262.5t228.5 82.5zM442 576q-35 0 -64.5 -13t-53.5 -42t-43 -75.5t-33 -113.5q-8 -37 -12 -67t-4 -55q0 -68 26.5 -95t78.5 -27q34 0 63 12t52.5 40.5t42.5 75.5t34 116q15 72 15 121q0 68 -25.5 95.5t-76.5 27.5z
" />
    <glyph glyph-name="R" unicode="R" horiz-adv-x="608" 
d="M432 665q105 0 158.5 -36.5t53.5 -125.5q0 -54 -14 -92t-37 -63.5t-51.5 -41t-56.5 -24.5q34 -15 49.5 -44t20.5 -78l17 -160h-142l-15 136q-3 28 -7.5 47t-13 30.5t-22.5 16.5t-36 5q-14 0 -34.5 2t-36.5 5l-52 -242h-138l143 665h214zM287 342q18 -3 36 -5t35 -2
q69 0 109 37.5t40 122.5q0 41 -23.5 55.5t-72.5 14.5h-77z" />
    <glyph glyph-name="S" unicode="S" horiz-adv-x="517" 
d="M552 558q-16 3 -35.5 6.5t-40 6t-40.5 4t-36 1.5q-26 0 -49 -2t-40.5 -9t-28 -20t-10.5 -35q0 -23 17.5 -45t43 -45.5t56 -48.5t56 -53t43 -59.5t17.5 -68.5q0 -55 -19 -93.5t-53 -62.5t-82.5 -35t-106.5 -11q-60 0 -110 9t-83 22l22 101q38 -12 83.5 -22t98.5 -10
q21 0 41 3t35.5 11.5t25 23t9.5 37.5q0 26 -17 51t-42 50.5t-55 51t-55 53.5t-42 58.5t-17 64.5q0 55 22.5 90.5t59.5 56.5t85.5 29t100.5 8q20 0 43.5 -1.5t46 -4.5t43 -6t35.5 -6z" />
    <glyph glyph-name="T" unicode="T" horiz-adv-x="554" 
d="M676 665l-22 -100h-197l-121 -565h-138l122 565h-197l21 100h532z" />
    <glyph glyph-name="U" unicode="U" horiz-adv-x="671" 
d="M344 665l-97 -449q-5 -23 -5 -40q0 -26 9 -43t25 -26.5t36.5 -13.5t43.5 -4q29 0 58 4t52 10l121 562h137l-138 -636q-50 -16 -115.5 -28t-130.5 -12q-47 0 -89.5 8.5t-75 29t-52 54.5t-19.5 86q0 15 1.5 28t5.5 30l95 440h138z" />
    <glyph glyph-name="V" unicode="V" horiz-adv-x="594" 
d="M218 0l-98 665h134l71 -517q66 101 133.5 234.5t121.5 282.5h134q-68 -192 -157.5 -356t-193.5 -309h-145z" />
    <glyph glyph-name="W" unicode="W" horiz-adv-x="857" 
d="M534 0l-41 382l-208 -382h-141l-24 665h134l9 -501l197 378h129l42 -378q30 52 60 114t58 128t52.5 132.5t42.5 126.5h133q-65 -187 -138 -353t-170 -312h-135z" />
    <glyph glyph-name="X" unicode="X" horiz-adv-x="573" 
d="M141 665h147l85 -227l187 227h149l-280 -329l139 -336h-150l-90 234l-191 -234h-147l283 339z" />
    <glyph glyph-name="Y" unicode="Y" horiz-adv-x="568" 
d="M253 229l-148 436h146l100 -312q63 64 116 145t87 167h139q-24 -58 -55.5 -117.5t-69.5 -116.5t-83 -108.5t-96 -92.5l-51 -230h-135z" />
    <glyph glyph-name="Z" unicode="Z" horiz-adv-x="570" 
d="M645 665l-3 -92l-427 -473h334l-20 -100h-480v91l428 474h-316l21 100h463z" />
    <glyph glyph-name="Agrave" unicode="&#xc0;" horiz-adv-x="637" 
d="M194 0h-134l91 432q12 55 33.5 100t57 77t86 49.5t119.5 17.5q115 0 167 -46t52 -124q0 -17 -2 -35.5t-6 -38.5l-92 -432h-139l50 234h-233zM499 332l22 107q6 27 6 49q0 42 -20.5 65t-71.5 23q-65 0 -98.5 -37t-47.5 -100l-23 -107h233zM465 916l44 -161h-96l-82 161
h134z" />
    <glyph glyph-name="Aacute" unicode="&#xc1;" horiz-adv-x="637" 
d="M194 0h-134l91 432q12 55 33.5 100t57 77t86 49.5t119.5 17.5q115 0 167 -46t52 -124q0 -17 -2 -35.5t-6 -38.5l-92 -432h-139l50 234h-233zM499 332l22 107q6 27 6 49q0 42 -20.5 65t-71.5 23q-65 0 -98.5 -37t-47.5 -100l-23 -107h233zM642 916l-133 -161h-104l95 161
h142z" />
    <glyph glyph-name="Acircumflex" unicode="&#xc2;" horiz-adv-x="637" 
d="M194 0h-134l91 432q12 55 33.5 100t57 77t86 49.5t119.5 17.5q115 0 167 -46t52 -124q0 -17 -2 -35.5t-6 -38.5l-92 -432h-139l50 234h-233zM499 332l22 107q6 27 6 49q0 42 -20.5 65t-71.5 23q-65 0 -98.5 -37t-47.5 -100l-23 -107h233zM550 916l66 -161h-100l-33 91
l-72 -91h-113l135 161h117z" />
    <glyph glyph-name="Atilde" unicode="&#xc3;" horiz-adv-x="637" 
d="M194 0h-134l91 432q12 55 33.5 100t57 77t86 49.5t119.5 17.5q115 0 167 -46t52 -124q0 -17 -2 -35.5t-6 -38.5l-92 -432h-139l50 234h-233zM499 332l22 107q6 27 6 49q0 42 -20.5 65t-71.5 23q-65 0 -98.5 -37t-47.5 -100l-23 -107h233zM326 812q16 34 40.5 56.5
t66.5 22.5q21 0 37 -5t29 -11.5t23.5 -11.5t19.5 -5q15 0 23.5 12t16.5 27l71 -37q-20 -38 -45 -61t-64 -23q-19 0 -35 5.5t-28.5 11.5t-23 11.5t-18.5 5.5q-17 0 -26 -10.5t-16 -24.5z" />
    <glyph glyph-name="Adieresis" unicode="&#xc4;" horiz-adv-x="637" 
d="M194 0h-134l91 432q12 55 33.5 100t57 77t86 49.5t119.5 17.5q115 0 167 -46t52 -124q0 -17 -2 -35.5t-6 -38.5l-92 -432h-139l50 234h-233zM499 332l22 107q6 27 6 49q0 42 -20.5 65t-71.5 23q-65 0 -98.5 -37t-47.5 -100l-23 -107h233zM468 840q-4 -29 -26 -45.5
t-55 -16.5q-57 0 -57 42q0 32 23 51.5t58 19.5q57 0 57 -43v-8zM650 840q-4 -29 -26 -45.5t-56 -16.5q-56 0 -56 42q0 32 23 51.5t58 19.5q57 0 57 -43v-8z" />
    <glyph glyph-name="Amacron" unicode="&#x100;" horiz-adv-x="637" 
d="M194 0h-134l91 432q12 55 33.5 100t57 77t86 49.5t119.5 17.5q115 0 167 -46t52 -124q0 -17 -2 -35.5t-6 -38.5l-92 -432h-139l50 234h-233zM499 332l22 107q6 27 6 49q0 42 -20.5 65t-71.5 23q-65 0 -98.5 -37t-47.5 -100l-23 -107h233zM636 874l-17 -78h-274l17 78h274
z" />
    <glyph glyph-name="Abreve" unicode="&#x102;" horiz-adv-x="637" 
d="M194 0h-134l91 432q12 55 33.5 100t57 77t86 49.5t119.5 17.5q115 0 167 -46t52 -124q0 -17 -2 -35.5t-6 -38.5l-92 -432h-139l50 234h-233zM499 332l22 107q6 27 6 49q0 42 -20.5 65t-71.5 23q-65 0 -98.5 -37t-47.5 -100l-23 -107h233zM449 904q-1 -5 -1.5 -9t-0.5 -8
q0 -43 44 -43q54 0 69 60h97q-19 -75 -64.5 -106.5t-111.5 -31.5q-59 0 -95 25t-36 82q0 14 3 31h96z" />
    <glyph glyph-name="Aring" unicode="&#xc5;" horiz-adv-x="637" 
d="M194 0h-134l91 432q12 55 33.5 100t57 77t86 49.5t119.5 17.5q115 0 167 -46t52 -124q0 -17 -2 -35.5t-6 -38.5l-92 -432h-139l50 234h-233zM499 332l22 107q6 27 6 49q0 42 -20.5 65t-71.5 23q-65 0 -98.5 -37t-47.5 -100l-23 -107h233zM484 799q19 1 31 11.5t12 33.5
q0 25 -27 25q-20 0 -31.5 -10.5t-11.5 -33.5q0 -13 6 -19.5t21 -6.5zM473 745q-45 0 -71 18t-26 52q0 29 10.5 49.5t29 34t43 19.5t51.5 6q45 0 71 -18t26 -52q0 -29 -10.5 -49.5t-29 -34t-43 -19.5t-51.5 -6z" />
    <glyph glyph-name="Aringacute" unicode="&#x1fa;" horiz-adv-x="637" 
d="M473 746q-45 0 -70.5 17.5t-25.5 52.5q0 46 26.5 71.5t66.5 33.5l64 94h114l-93 -96q24 -8 38 -24.5t14 -40.5q0 -29 -10.5 -49.5t-29 -33.5t-43 -19t-51.5 -6zM485 800q19 0 30.5 10.5t11.5 33.5q0 26 -26 26q-20 0 -32 -11t-12 -34q3 -25 28 -25zM194 0h-134l91 432
q12 55 33.5 100t57 77t86 49.5t119.5 17.5q115 0 167 -46t52 -124q0 -17 -2 -35.5t-6 -38.5l-92 -432h-139l50 234h-233zM499 332l22 107q6 27 6 49q0 42 -20.5 65t-71.5 23q-65 0 -98.5 -37t-47.5 -100l-23 -107h233z" />
    <glyph glyph-name="Aogonek" unicode="&#x104;" horiz-adv-x="637" 
d="M427 0l50 234h-233l-50 -234h-134l91 432q12 55 33.5 100t57 77t86 49.5t119.5 17.5q115 0 167 -46t52 -124q0 -17 -2 -35.5t-6 -38.5l-92 -432q-11 -8 -23.5 -19t-23 -22.5t-17 -23.5t-6.5 -23t7.5 -15t18.5 -4q9 0 23 2.5t29 7.5l-14 -78q-31 -13 -72 -13
q-43 0 -69 18.5t-26 53.5q0 22 7 39.5t18 32t25.5 25.5t28.5 19h-45zM499 332l22 107q6 27 6 49q0 42 -20.5 65t-71.5 23q-65 0 -98.5 -37t-47.5 -100l-23 -107h233z" />
    <glyph glyph-name="AE" unicode="&#xc6;" horiz-adv-x="901" 
d="M972 665l-21 -100h-264l-39 -176h243q-6 -25 -11 -50t-11 -50h-242q-6 -29 -12 -59t-13 -59q-3 -12 -3 -22q0 -30 19.5 -40.5t49.5 -10.5h195q-6 -24 -11 -49t-11 -49h-200q-86 0 -133.5 31t-47.5 96q0 13 1 23.5t5 27.5l22 106h-233l-30 -142t-31 -142h-134l91 432
q11 54 33 98.5t56.5 77t82.5 50.5t112 18q54 0 86 -13t49 -36l8 38h394zM509 384l9 38q9 36 9 67q0 42 -21 65t-72 23q-41 0 -67 -13.5t-43 -39t-27.5 -61t-20.5 -79.5h233z" />
    <glyph glyph-name="AEacute" unicode="&#x1fc;" horiz-adv-x="901" 
d="M972 665l-21 -100h-264l-39 -176h243q-6 -25 -11 -50t-11 -50h-242q-6 -29 -12 -59t-13 -59q-3 -12 -3 -22q0 -30 19.5 -40.5t49.5 -10.5h195q-6 -24 -11 -49t-11 -49h-200q-86 0 -133.5 31t-47.5 96q0 13 1 23.5t5 27.5l22 106h-233l-30 -142t-31 -142h-134l91 432
q11 54 33 98.5t56.5 77t82.5 50.5t112 18q54 0 86 -13t49 -36l8 38h394zM509 384l9 38q9 36 9 67q0 42 -21 65t-72 23q-41 0 -67 -13.5t-43 -39t-27.5 -61t-20.5 -79.5h233zM835 916l-133 -161h-104l95 161h142z" />
    <glyph glyph-name="Cacute" unicode="&#x106;" horiz-adv-x="542" 
d="M604 557q-27 7 -68 13t-76 6q-40 0 -73 -12.5t-59 -40.5t-46.5 -74.5t-34.5 -113.5q-8 -37 -12 -66.5t-4 -53.5q0 -36 7 -60.5t22 -38.5t38 -20t56 -6q36 0 79.5 7t78.5 15l-11 -101q-35 -11 -79.5 -17t-88.5 -6q-58 0 -103 12t-76.5 38.5t-48 69t-16.5 103.5
q0 29 3 57.5t11 65.5q19 96 53 161.5t82 105.5t109 57.5t133 17.5q44 0 83 -6t65 -13zM618 916l-133 -161h-104l95 161h142z" />
    <glyph glyph-name="Ccircumflex" unicode="&#x108;" horiz-adv-x="542" 
d="M604 557q-27 7 -68 13t-76 6q-40 0 -73 -12.5t-59 -40.5t-46.5 -74.5t-34.5 -113.5q-8 -37 -12 -66.5t-4 -53.5q0 -36 7 -60.5t22 -38.5t38 -20t56 -6q36 0 79.5 7t78.5 15l-11 -101q-35 -11 -79.5 -17t-88.5 -6q-58 0 -103 12t-76.5 38.5t-48 69t-16.5 103.5
q0 29 3 57.5t11 65.5q19 96 53 161.5t82 105.5t109 57.5t133 17.5q44 0 83 -6t65 -13zM528 916l66 -161h-100l-33 91l-72 -91h-113l135 161h117z" />
    <glyph glyph-name="Ccaron" unicode="&#x10c;" horiz-adv-x="542" 
d="M604 557q-27 7 -68 13t-76 6q-40 0 -73 -12.5t-59 -40.5t-46.5 -74.5t-34.5 -113.5q-8 -37 -12 -66.5t-4 -53.5q0 -36 7 -60.5t22 -38.5t38 -20t56 -6q36 0 79.5 7t78.5 15l-11 -101q-35 -11 -79.5 -17t-88.5 -6q-58 0 -103 12t-76.5 38.5t-48 69t-16.5 103.5
q0 29 3 57.5t11 65.5q19 96 53 161.5t82 105.5t109 57.5t133 17.5q44 0 83 -6t65 -13zM376 755l-65 161h99l34 -92l72 92h113l-135 -161h-118z" />
    <glyph glyph-name="Cdotaccent" unicode="&#x10a;" horiz-adv-x="542" 
d="M604 557q-27 7 -68 13t-76 6q-40 0 -73 -12.5t-59 -40.5t-46.5 -74.5t-34.5 -113.5q-8 -37 -12 -66.5t-4 -53.5q0 -36 7 -60.5t22 -38.5t38 -20t56 -6q36 0 79.5 7t78.5 15l-11 -101q-35 -11 -79.5 -17t-88.5 -6q-58 0 -103 12t-76.5 38.5t-48 69t-16.5 103.5
q0 29 3 57.5t11 65.5q19 96 53 161.5t82 105.5t109 57.5t133 17.5q44 0 83 -6t65 -13zM439 776q-59 0 -59 43q0 34 24 54t61 20q60 0 60 -47q0 -33 -25.5 -51.5t-60.5 -18.5z" />
    <glyph glyph-name="Ccedilla" unicode="&#xc7;" horiz-adv-x="542" 
d="M604 557q-27 7 -68 13t-76 6q-40 0 -73 -12.5t-59 -40.5t-46.5 -74.5t-34.5 -113.5q-8 -37 -12 -66.5t-4 -53.5q0 -36 7 -60.5t22 -38.5t38 -20t56 -6q36 0 79.5 7t78.5 15l-11 -101q-35 -11 -79.5 -17t-88.5 -6q-58 0 -103 12t-76.5 38.5t-48 69t-16.5 103.5
q0 29 3 57.5t11 65.5q19 96 53 161.5t82 105.5t109 57.5t133 17.5q44 0 83 -6t65 -13zM342 -39q15 -29 15 -59q0 -48 -32 -75t-89 -27q-25 0 -44 4t-34 10l18 75q14 -5 27 -8t21 -3q18 0 25.5 9t7.5 30q0 11 -2.5 22t-6.5 22h94z" />
    <glyph glyph-name="Dcaron" unicode="&#x10e;" horiz-adv-x="651" 
d="M450 665q113 0 173 -53t60 -164q0 -26 -3 -51t-9 -56q-16 -78 -43.5 -143t-73 -111.5t-112 -72.5t-159.5 -26q-46 0 -99 6t-109 19l141 652h234zM230 93q17 -3 38.5 -4t41.5 -1q47 0 82 15.5t60.5 47t43.5 78.5t32 109q6 29 9.5 54t3.5 46q0 69 -29 98t-84 29h-96z
M402 755l-65 161h99l34 -92l72 92h113l-135 -161h-118z" />
    <glyph glyph-name="Dcroat" unicode="&#x110;" horiz-adv-x="666" 
d="M466 665q114 0 174 -53t60 -164q0 -26 -3.5 -51t-9.5 -56q-16 -78 -44.5 -143t-75 -111.5t-113 -72t-159.5 -25.5q-47 0 -97.5 5.5t-105.5 18.5l58 273h-82l21 98h83l61 281h233zM288 286l-41 -191q17 -4 38 -5t41 -1q47 0 82 15.5t61 47t44 78t32 109.5q6 29 9.5 54
t3.5 46q0 68 -29 97t-85 29h-96l-39 -181h137l-20 -98h-138z" />
    <glyph glyph-name="Egrave" unicode="&#xc8;" horiz-adv-x="541" 
d="M612 665l-22 -100h-264l-39 -176h243l-21 -100h-243l-25 -118q-3 -12 -3 -22q0 -29 18.5 -40t49.5 -11h195l-21 -98h-201q-86 0 -133 31t-47 97q0 12 1 25t4 26l105 486h403zM449 916l44 -161h-96l-82 161h134z" />
    <glyph glyph-name="Eacute" unicode="&#xc9;" horiz-adv-x="541" 
d="M612 665l-22 -100h-264l-39 -176h243l-21 -100h-243l-25 -118q-3 -12 -3 -22q0 -29 18.5 -40t49.5 -11h195l-21 -98h-201q-86 0 -133 31t-47 97q0 12 1 25t4 26l105 486h403zM585 916l-133 -161h-104l95 161h142z" />
    <glyph glyph-name="Ecircumflex" unicode="&#xca;" horiz-adv-x="541" 
d="M612 665l-22 -100h-264l-39 -176h243l-21 -100h-243l-25 -118q-3 -12 -3 -22q0 -29 18.5 -40t49.5 -11h195l-21 -98h-201q-86 0 -133 31t-47 97q0 12 1 25t4 26l105 486h403zM517 916l66 -161h-100l-33 91l-72 -91h-113l135 161h117z" />
    <glyph glyph-name="Ecaron" unicode="&#x11a;" horiz-adv-x="541" 
d="M612 665l-22 -100h-264l-39 -176h243l-21 -100h-243l-25 -118q-3 -12 -3 -22q0 -29 18.5 -40t49.5 -11h195l-21 -98h-201q-86 0 -133 31t-47 97q0 12 1 25t4 26l105 486h403zM364 755l-65 161h99l34 -92l72 92h113l-135 -161h-118z" />
    <glyph glyph-name="Edieresis" unicode="&#xcb;" horiz-adv-x="541" 
d="M612 665l-22 -100h-264l-39 -176h243l-21 -100h-243l-25 -118q-3 -12 -3 -22q0 -29 18.5 -40t49.5 -11h195l-21 -98h-201q-86 0 -133 31t-47 97q0 12 1 25t4 26l105 486h403zM420 840q-4 -29 -26 -45.5t-55 -16.5q-57 0 -57 42q0 32 23 51.5t58 19.5q57 0 57 -43v-8z
M602 840q-4 -29 -26 -45.5t-56 -16.5q-56 0 -56 42q0 32 23 51.5t58 19.5q57 0 57 -43v-8z" />
    <glyph glyph-name="Emacron" unicode="&#x112;" horiz-adv-x="541" 
d="M612 665l-22 -100h-264l-39 -176h243l-21 -100h-243l-25 -118q-3 -12 -3 -22q0 -29 18.5 -40t49.5 -11h195l-21 -98h-201q-86 0 -133 31t-47 97q0 12 1 25t4 26l105 486h403zM587 874l-17 -78h-274l17 78h274z" />
    <glyph glyph-name="Ebreve" unicode="&#x114;" horiz-adv-x="541" 
d="M612 665l-22 -100h-264l-39 -176h243l-21 -100h-243l-25 -118q-3 -12 -3 -22q0 -29 18.5 -40t49.5 -11h195l-21 -98h-201q-86 0 -133 31t-47 97q0 12 1 25t4 26l105 486h403zM401 903q-1 -5 -1.5 -9t-0.5 -8q0 -43 44 -43q54 0 69 60h97q-19 -75 -64.5 -106.5
t-111.5 -31.5q-59 0 -95 25t-36 82q0 14 3 31h96z" />
    <glyph glyph-name="Edotaccent" unicode="&#x116;" horiz-adv-x="541" 
d="M612 665l-22 -100h-264l-39 -176h243l-21 -100h-243l-25 -118q-3 -12 -3 -22q0 -29 18.5 -40t49.5 -11h195l-21 -98h-201q-86 0 -133 31t-47 97q0 12 1 25t4 26l105 486h403zM436 776q-59 0 -59 43q0 34 24 54t61 20q60 0 60 -47q0 -33 -25.5 -51.5t-60.5 -18.5z" />
    <glyph glyph-name="Eogonek" unicode="&#x118;" horiz-adv-x="541" 
d="M279 0q-86 0 -133 31t-47 97q0 12 1 25t4 26l105 486h403l-22 -100h-264l-39 -176h243l-21 -100h-243l-25 -118q-3 -12 -3 -22q0 -29 18.5 -40t49.5 -11h195l-21 -98q-11 -8 -23.5 -19t-23 -22.5t-17 -23.5t-6.5 -23t7.5 -15t18.5 -4q9 0 23 2.5t29 7.5l-14 -78
q-31 -13 -72 -13q-43 0 -69 18.5t-26 53.5q0 22 7 39.5t18 32t25.5 25.5t28.5 19h-107z" />
    <glyph glyph-name="Gcircumflex" unicode="&#x11c;" horiz-adv-x="660" 
d="M678 554q-34 8 -82 15t-102 7q-50 0 -89.5 -12.5t-69.5 -40.5t-51.5 -74.5t-35.5 -113.5q-8 -35 -12 -63.5t-4 -53.5q0 -38 8 -63t24 -40t38.5 -21t51.5 -6q27 0 59.5 3.5t53.5 7.5l37 176h-124l23 102h260l-76 -352q-48 -14 -113.5 -25.5t-130.5 -11.5q-59 0 -106 12
t-80 38.5t-50.5 69.5t-17.5 105q0 29 3.5 58.5t10.5 63.5q20 96 57 161.5t89 105.5t117.5 57t142.5 17q52 0 104.5 -6.5t86.5 -14.5zM557 916l66 -161h-100l-33 91l-72 -91h-113l135 161h117z" />
    <glyph glyph-name="Gbreve" unicode="&#x11e;" horiz-adv-x="660" 
d="M678 554q-34 8 -82 15t-102 7q-50 0 -89.5 -12.5t-69.5 -40.5t-51.5 -74.5t-35.5 -113.5q-8 -35 -12 -63.5t-4 -53.5q0 -38 8 -63t24 -40t38.5 -21t51.5 -6q27 0 59.5 3.5t53.5 7.5l37 176h-124l23 102h260l-76 -352q-48 -14 -113.5 -25.5t-130.5 -11.5q-59 0 -106 12
t-80 38.5t-50.5 69.5t-17.5 105q0 29 3.5 58.5t10.5 63.5q20 96 57 161.5t89 105.5t117.5 57t142.5 17q52 0 104.5 -6.5t86.5 -14.5zM442 903q-1 -5 -1.5 -9t-0.5 -8q0 -43 44 -43q54 0 69 60h97q-19 -75 -64.5 -106.5t-111.5 -31.5q-59 0 -95 25t-36 82q0 14 3 31h96z" />
    <glyph glyph-name="Gdotaccent" unicode="&#x120;" horiz-adv-x="660" 
d="M678 554q-34 8 -82 15t-102 7q-50 0 -89.5 -12.5t-69.5 -40.5t-51.5 -74.5t-35.5 -113.5q-8 -35 -12 -63.5t-4 -53.5q0 -38 8 -63t24 -40t38.5 -21t51.5 -6q27 0 59.5 3.5t53.5 7.5l37 176h-124l23 102h260l-76 -352q-48 -14 -113.5 -25.5t-130.5 -11.5q-59 0 -106 12
t-80 38.5t-50.5 69.5t-17.5 105q0 29 3.5 58.5t10.5 63.5q20 96 57 161.5t89 105.5t117.5 57t142.5 17q52 0 104.5 -6.5t86.5 -14.5zM469 777q-59 0 -59 43q0 34 24 54t61 20q60 0 60 -47q0 -33 -25.5 -51.5t-60.5 -18.5z" />
    <glyph glyph-name="Gcommaaccent" unicode="&#x122;" horiz-adv-x="660" 
d="M678 554q-34 8 -82 15t-102 7q-50 0 -89.5 -12.5t-69.5 -40.5t-51.5 -74.5t-35.5 -113.5q-8 -35 -12 -63.5t-4 -53.5q0 -38 8 -63t24 -40t38.5 -21t51.5 -6q27 0 59.5 3.5t53.5 7.5l37 176h-124l23 102h260l-76 -352q-48 -14 -113.5 -25.5t-130.5 -11.5q-59 0 -106 12
t-80 38.5t-50.5 69.5t-17.5 105q0 29 3.5 58.5t10.5 63.5q20 96 57 161.5t89 105.5t117.5 57t142.5 17q52 0 104.5 -6.5t86.5 -14.5zM429 -46l-122 -142h-104l91 142h135z" />
    <glyph glyph-name="Hcircumflex" unicode="&#x124;" horiz-adv-x="711" 
d="M356 665l-59 -272h265l58 272h138l-143 -665h-138l62 289h-265l-61 -289h-138l143 665h138zM593 916l66 -161h-100l-33 91l-72 -91h-113l135 161h117z" />
    <glyph glyph-name="Hbar" unicode="&#x126;" horiz-adv-x="724" 
d="M362 665l-20 -94h265l20 94h138l-20 -94h82l-16 -76h-83l-106 -495h-138l61 289h-264l-62 -289h-137l106 495h-83l16 76h84l20 94h137zM568 393l22 102h-264l-22 -102h264z" />
    <glyph glyph-name="Igrave" unicode="&#xcc;" horiz-adv-x="308" 
d="M356 665l-143 -665h-138l143 665h138zM295 916l44 -161h-96l-82 161h134z" />
    <glyph glyph-name="Iacute" unicode="&#xcd;" horiz-adv-x="308" 
d="M356 665l-143 -665h-138l143 665h138zM484 916l-133 -161h-104l95 161h142z" />
    <glyph glyph-name="Icircumflex" unicode="&#xce;" horiz-adv-x="308" 
d="M356 665l-143 -665h-138l143 665h138zM392 916l66 -161h-100l-33 91l-72 -91h-113l135 161h117z" />
    <glyph glyph-name="Itilde" unicode="&#x128;" horiz-adv-x="308" 
d="M356 665l-143 -665h-138l143 665h138zM154 811q16 34 40.5 56.5t66.5 22.5q21 0 37 -5t29 -11.5t23.5 -11.5t19.5 -5q15 0 23.5 12t16.5 27l71 -37q-20 -38 -45 -61t-64 -23q-19 0 -35 5.5t-28.5 11.5t-23 11.5t-18.5 5.5q-17 0 -26 -10.5t-16 -24.5z" />
    <glyph glyph-name="Idieresis" unicode="&#xcf;" horiz-adv-x="308" 
d="M356 665l-143 -665h-138l143 665h138zM298 840q-4 -29 -26 -45.5t-55 -16.5q-57 0 -57 42q0 32 23 51.5t58 19.5q57 0 57 -43v-8zM480 840q-4 -29 -26 -45.5t-56 -16.5q-56 0 -56 42q0 32 23 51.5t58 19.5q57 0 57 -43v-8z" />
    <glyph glyph-name="Imacron" unicode="&#x12a;" horiz-adv-x="308" 
d="M356 665l-143 -665h-138l143 665h138zM465 874l-17 -78h-274l17 78h274z" />
    <glyph glyph-name="Ibreve" unicode="&#x12c;" horiz-adv-x="308" 
d="M356 665l-143 -665h-138l143 665h138zM278 904q-1 -5 -1.5 -9t-0.5 -8q0 -43 44 -43q54 0 69 60h97q-19 -75 -64.5 -106.5t-111.5 -31.5q-59 0 -95 25t-36 82q0 14 3 31h96z" />
    <glyph glyph-name="Idotaccent" unicode="&#x130;" horiz-adv-x="308" 
d="M356 665l-143 -665h-138l143 665h138zM306 777q-59 0 -59 43q0 34 24 54t61 20q60 0 60 -47q0 -33 -25.5 -51.5t-60.5 -18.5z" />
    <glyph glyph-name="Iogonek" unicode="&#x12e;" horiz-adv-x="308" 
d="M75 0l143 665h138l-143 -665q-11 -8 -23.5 -19t-23 -22.5t-17 -23.5t-6.5 -23t7.5 -15t18.5 -4q9 0 23 2.5t29 7.5l-14 -78q-31 -13 -72 -13q-43 0 -69 18.5t-26 53.5q0 22 7 39.5t18 32t25.5 25.5t28.5 19h-44z" />
    <glyph glyph-name="Jcircumflex" unicode="&#x134;" horiz-adv-x="308" 
d="M356 665l-124 -574q-11 -52 -35 -94t-57 -77.5t-73.5 -64.5t-85.5 -56l-51 78q36 27 63.5 50.5t47.5 48t33 51.5t20 60l124 578h138zM393 916l66 -161h-100l-33 91l-72 -91h-113l135 161h117z" />
    <glyph glyph-name="Kcommaaccent" unicode="&#x136;" horiz-adv-x="619" 
d="M356 665l-69 -321l326 321h143l-305 -302q57 -20 83 -69.5t41 -120.5l36 -173h-144l-27 143q-10 54 -30 88.5t-62 41.5l-97 -92l-38 -181h-138l143 665h138zM403 -46l-122 -142h-104l91 142h135z" />
    <glyph glyph-name="Lacute" unicode="&#x139;" horiz-adv-x="494" 
d="M356 665l-122 -567h253l-20 -98h-392l143 665h138zM486 916l-133 -161h-104l95 161h142z" />
    <glyph glyph-name="Lcaron" unicode="&#x13d;" horiz-adv-x="494" 
d="M356 665l-122 -567h253l-20 -98h-392l143 665h138zM240 755l-65 161h99l34 -92l72 92h113l-135 -161h-118z" />
    <glyph glyph-name="Lcommaaccent" unicode="&#x13b;" horiz-adv-x="494" 
d="M356 665l-122 -567h253l-20 -98h-392l143 665h138zM347 -46l-122 -142h-104l91 142h135z" />
    <glyph glyph-name="Lslash" unicode="&#x141;" horiz-adv-x="504" 
d="M365 665l-56 -262l183 69l-22 -103l-184 -70l-43 -201h254l-21 -98h-391l52 243l-87 -33l22 103l87 33l69 319h137z" />
    <glyph glyph-name="Nacute" unicode="&#x143;" horiz-adv-x="718" 
d="M328 665l224 -370l79 370h134l-143 -665h-134l30 144l-207 332l-102 -476h-134l143 665h110zM668 916l-133 -161h-104l95 161h142z" />
    <glyph glyph-name="Ncaron" unicode="&#x147;" horiz-adv-x="718" 
d="M328 665l224 -370l79 370h134l-143 -665h-134l30 144l-207 332l-102 -476h-134l143 665h110zM447 755l-65 161h99l34 -92l72 92h113l-135 -161h-118z" />
    <glyph glyph-name="Ntilde" unicode="&#xd1;" horiz-adv-x="718" 
d="M328 665l224 -370l79 370h134l-143 -665h-134l30 144l-207 332l-102 -476h-134l143 665h110zM359 811q16 34 40.5 56.5t66.5 22.5q21 0 37 -5t29 -11.5t23.5 -11.5t19.5 -5q15 0 23.5 12t16.5 27l71 -37q-20 -38 -45 -61t-64 -23q-19 0 -35 5.5t-28.5 11.5t-23 11.5
t-18.5 5.5q-17 0 -26 -10.5t-16 -24.5z" />
    <glyph glyph-name="Ncommaaccent" unicode="&#x145;" horiz-adv-x="718" 
d="M328 665l224 -370l79 370h134l-143 -665h-134l30 144l-207 332l-102 -476h-134l143 665h110zM425 -46l-122 -142h-104l91 142h135z" />
    <glyph glyph-name="Ograve" unicode="&#xd2;" horiz-adv-x="655" 
d="M458 676q113 0 171 -53.5t58 -165.5q0 -29 -3.5 -59t-11.5 -67q-37 -181 -124.5 -262t-228.5 -81q-114 0 -171.5 53t-57.5 167q0 28 3 58t11 65q38 180 125.5 262.5t228.5 82.5zM442 576q-35 0 -64.5 -13t-53.5 -42t-43 -75.5t-33 -113.5q-8 -37 -12 -67t-4 -55
q0 -68 26.5 -95t78.5 -27q34 0 63 12t52.5 40.5t42.5 75.5t34 116q15 72 15 121q0 68 -25.5 95.5t-76.5 27.5zM473 916l44 -161h-96l-82 161h134z" />
    <glyph glyph-name="Oacute" unicode="&#xd3;" horiz-adv-x="655" 
d="M458 676q113 0 171 -53.5t58 -165.5q0 -29 -3.5 -59t-11.5 -67q-37 -181 -124.5 -262t-228.5 -81q-114 0 -171.5 53t-57.5 167q0 28 3 58t11 65q38 180 125.5 262.5t228.5 82.5zM442 576q-35 0 -64.5 -13t-53.5 -42t-43 -75.5t-33 -113.5q-8 -37 -12 -67t-4 -55
q0 -68 26.5 -95t78.5 -27q34 0 63 12t52.5 40.5t42.5 75.5t34 116q15 72 15 121q0 68 -25.5 95.5t-76.5 27.5zM654 916l-133 -161h-104l95 161h142z" />
    <glyph glyph-name="Ocircumflex" unicode="&#xd4;" horiz-adv-x="655" 
d="M458 676q113 0 171 -53.5t58 -165.5q0 -29 -3.5 -59t-11.5 -67q-37 -181 -124.5 -262t-228.5 -81q-114 0 -171.5 53t-57.5 167q0 28 3 58t11 65q38 180 125.5 262.5t228.5 82.5zM442 576q-35 0 -64.5 -13t-53.5 -42t-43 -75.5t-33 -113.5q-8 -37 -12 -67t-4 -55
q0 -68 26.5 -95t78.5 -27q34 0 63 12t52.5 40.5t42.5 75.5t34 116q15 72 15 121q0 68 -25.5 95.5t-76.5 27.5zM564 916l66 -161h-100l-33 91l-72 -91h-113l135 161h117z" />
    <glyph glyph-name="Otilde" unicode="&#xd5;" horiz-adv-x="655" 
d="M458 676q113 0 171 -53.5t58 -165.5q0 -29 -3.5 -59t-11.5 -67q-37 -181 -124.5 -262t-228.5 -81q-114 0 -171.5 53t-57.5 167q0 28 3 58t11 65q38 180 125.5 262.5t228.5 82.5zM442 576q-35 0 -64.5 -13t-53.5 -42t-43 -75.5t-33 -113.5q-8 -37 -12 -67t-4 -55
q0 -68 26.5 -95t78.5 -27q34 0 63 12t52.5 40.5t42.5 75.5t34 116q15 72 15 121q0 68 -25.5 95.5t-76.5 27.5zM328 811q16 34 40.5 56.5t66.5 22.5q21 0 37 -5t29 -11.5t23.5 -11.5t19.5 -5q15 0 23.5 12t16.5 27l71 -37q-20 -38 -45 -61t-64 -23q-19 0 -35 5.5t-28.5 11.5
t-23 11.5t-18.5 5.5q-17 0 -26 -10.5t-16 -24.5z" />
    <glyph glyph-name="Odieresis" unicode="&#xd6;" horiz-adv-x="655" 
d="M458 676q113 0 171 -53.5t58 -165.5q0 -29 -3.5 -59t-11.5 -67q-37 -181 -124.5 -262t-228.5 -81q-114 0 -171.5 53t-57.5 167q0 28 3 58t11 65q38 180 125.5 262.5t228.5 82.5zM442 576q-35 0 -64.5 -13t-53.5 -42t-43 -75.5t-33 -113.5q-8 -37 -12 -67t-4 -55
q0 -68 26.5 -95t78.5 -27q34 0 63 12t52.5 40.5t42.5 75.5t34 116q15 72 15 121q0 68 -25.5 95.5t-76.5 27.5zM470 840q-4 -29 -26 -45.5t-55 -16.5q-57 0 -57 42q0 32 23 51.5t58 19.5q57 0 57 -43v-8zM652 840q-4 -29 -26 -45.5t-56 -16.5q-56 0 -56 42q0 32 23 51.5
t58 19.5q57 0 57 -43v-8z" />
    <glyph glyph-name="Omacron" unicode="&#x14c;" horiz-adv-x="655" 
d="M458 676q113 0 171 -53.5t58 -165.5q0 -29 -3.5 -59t-11.5 -67q-37 -181 -124.5 -262t-228.5 -81q-114 0 -171.5 53t-57.5 167q0 28 3 58t11 65q38 180 125.5 262.5t228.5 82.5zM442 576q-35 0 -64.5 -13t-53.5 -42t-43 -75.5t-33 -113.5q-8 -37 -12 -67t-4 -55
q0 -68 26.5 -95t78.5 -27q34 0 63 12t52.5 40.5t42.5 75.5t34 116q15 72 15 121q0 68 -25.5 95.5t-76.5 27.5zM638 874l-17 -78h-274l17 78h274z" />
    <glyph glyph-name="Obreve" unicode="&#x14e;" horiz-adv-x="655" 
d="M458 676q113 0 171 -53.5t58 -165.5q0 -29 -3.5 -59t-11.5 -67q-37 -181 -124.5 -262t-228.5 -81q-114 0 -171.5 53t-57.5 167q0 28 3 58t11 65q38 180 125.5 262.5t228.5 82.5zM442 576q-35 0 -64.5 -13t-53.5 -42t-43 -75.5t-33 -113.5q-8 -37 -12 -67t-4 -55
q0 -68 26.5 -95t78.5 -27q34 0 63 12t52.5 40.5t42.5 75.5t34 116q15 72 15 121q0 68 -25.5 95.5t-76.5 27.5zM451 903q-1 -5 -1.5 -9t-0.5 -8q0 -43 44 -43q54 0 69 60h97q-19 -75 -64.5 -106.5t-111.5 -31.5q-59 0 -95 25t-36 82q0 14 3 31h96z" />
    <glyph glyph-name="Ohungarumlaut" unicode="&#x150;" horiz-adv-x="655" 
d="M458 676q113 0 171 -53.5t58 -165.5q0 -29 -3.5 -59t-11.5 -67q-37 -181 -124.5 -262t-228.5 -81q-114 0 -171.5 53t-57.5 167q0 28 3 58t11 65q38 180 125.5 262.5t228.5 82.5zM442 576q-35 0 -64.5 -13t-53.5 -42t-43 -75.5t-33 -113.5q-8 -37 -12 -67t-4 -55
q0 -68 26.5 -95t78.5 -27q34 0 63 12t52.5 40.5t42.5 75.5t34 116q15 72 15 121q0 68 -25.5 95.5t-76.5 27.5zM701 916l-119 -161h-91l84 161h126zM525 916l-86 -161h-89l64 161h111z" />
    <glyph glyph-name="Oslash" unicode="&#xd8;" horiz-adv-x="655" 
d="M672 331q-18 -90 -49 -155t-75 -106.5t-101.5 -61t-127.5 -19.5q-96 0 -148 35l-77 -91l-51 42l81 94q-17 26 -25.5 61t-8.5 78q0 27 3 57.5t11 65.5q37 180 125.5 262.5t228.5 82.5q92 0 146 -35l77 92l52 -41l-82 -96q36 -53 36 -140q0 -55 -15 -125zM253 123
q14 -18 34.5 -26t49.5 -8q34 0 63 12t53 40.5t42.5 75.5t33.5 115q7 33 11 63.5t4 71.5zM248 332q-9 -44 -12.5 -76.5t-3.5 -55.5q72 85 145 172t145 172q-26 32 -80 32q-35 0 -64 -12.5t-53 -41t-43 -75t-34 -115.5z" />
    <glyph glyph-name="Oslashacute" unicode="&#x1fe;" horiz-adv-x="655" 
d="M654 916l-133 -161h-104l95 161h142zM672 331q-18 -90 -49 -155t-75 -106.5t-101.5 -61t-127.5 -19.5q-96 0 -148 35l-77 -91l-51 42l81 94q-17 26 -25.5 61t-8.5 78q0 27 3 57.5t11 65.5q37 180 125.5 262.5t228.5 82.5q92 0 146 -35l77 92l52 -41l-82 -96
q36 -53 36 -140q0 -55 -15 -125zM253 123q14 -18 34.5 -26t49.5 -8q34 0 63 12t53 40.5t42.5 75.5t33.5 115q7 33 11 63.5t4 71.5zM248 332q-9 -44 -12.5 -76.5t-3.5 -55.5q72 85 145 172t145 172q-26 32 -80 32q-35 0 -64 -12.5t-53 -41t-43 -75t-34 -115.5z" />
    <glyph glyph-name="OE" unicode="&#x152;" horiz-adv-x="933" 
d="M458 676q53 0 90 -16.5t57 -44.5l10 50h389q-6 -25 -11 -50t-11 -50h-264l-38 -176h242l-22 -100h-242q-8 -35 -15.5 -70t-12.5 -70q0 -29 19.5 -40t48.5 -11h195l-21 -98h-203q-55 0 -95 14t-58 46q-38 -38 -85 -54.5t-113 -16.5q-113 0 -170.5 53t-57.5 166q0 28 3 58
t11 65q37 179 125.5 262t228.5 83zM442 576q-35 0 -64.5 -13t-54 -42t-43.5 -75.5t-32 -113.5q-8 -37 -12 -66.5t-4 -54.5q0 -68 26.5 -95.5t78.5 -27.5q34 0 63 12t52.5 40.5t42.5 75.5t34 116q15 72 15 121q0 68 -25.5 95.5t-76.5 27.5z" />
    <glyph glyph-name="Racute" unicode="&#x154;" horiz-adv-x="608" 
d="M432 665q105 0 158.5 -36.5t53.5 -125.5q0 -54 -14 -92t-37 -63.5t-51.5 -41t-56.5 -24.5q34 -15 49.5 -44t20.5 -78l17 -160h-142l-15 136q-3 28 -7.5 47t-13 30.5t-22.5 16.5t-36 5q-14 0 -34.5 2t-36.5 5l-52 -242h-138l143 665h214zM287 342q18 -3 36 -5t35 -2
q69 0 109 37.5t40 122.5q0 41 -23.5 55.5t-72.5 14.5h-77zM621 916l-133 -161h-104l95 161h142z" />
    <glyph glyph-name="Rcaron" unicode="&#x158;" horiz-adv-x="608" 
d="M432 665q105 0 158.5 -36.5t53.5 -125.5q0 -54 -14 -92t-37 -63.5t-51.5 -41t-56.5 -24.5q34 -15 49.5 -44t20.5 -78l17 -160h-142l-15 136q-3 28 -7.5 47t-13 30.5t-22.5 16.5t-36 5q-14 0 -34.5 2t-36.5 5l-52 -242h-138l143 665h214zM287 342q18 -3 36 -5t35 -2
q69 0 109 37.5t40 122.5q0 41 -23.5 55.5t-72.5 14.5h-77zM384 755l-65 161h99l34 -92l72 92h113l-135 -161h-118z" />
    <glyph glyph-name="Rcommaaccent" unicode="&#x156;" horiz-adv-x="608" 
d="M432 665q105 0 158.5 -36.5t53.5 -125.5q0 -54 -14 -92t-37 -63.5t-51.5 -41t-56.5 -24.5q34 -15 49.5 -44t20.5 -78l17 -160h-142l-15 136q-3 28 -7.5 47t-13 30.5t-22.5 16.5t-36 5q-14 0 -34.5 2t-36.5 5l-52 -242h-138l143 665h214zM287 342q18 -3 36 -5t35 -2
q69 0 109 37.5t40 122.5q0 41 -23.5 55.5t-72.5 14.5h-77zM389 -46l-122 -142h-104l91 142h135z" />
    <glyph glyph-name="Sacute" unicode="&#x15a;" horiz-adv-x="517" 
d="M552 558q-16 3 -35.5 6.5t-40 6t-40.5 4t-36 1.5q-26 0 -49 -2t-40.5 -9t-28 -20t-10.5 -35q0 -23 17.5 -45t43 -45.5t56 -48.5t56 -53t43 -59.5t17.5 -68.5q0 -55 -19 -93.5t-53 -62.5t-82.5 -35t-106.5 -11q-60 0 -110 9t-83 22l22 101q38 -12 83.5 -22t98.5 -10
q21 0 41 3t35.5 11.5t25 23t9.5 37.5q0 26 -17 51t-42 50.5t-55 51t-55 53.5t-42 58.5t-17 64.5q0 55 22.5 90.5t59.5 56.5t85.5 29t100.5 8q20 0 43.5 -1.5t46 -4.5t43 -6t35.5 -6zM549 916l-133 -161h-104l95 161h142z" />
    <glyph glyph-name="Scircumflex" unicode="&#x15c;" horiz-adv-x="517" 
d="M552 558q-16 3 -35.5 6.5t-40 6t-40.5 4t-36 1.5q-26 0 -49 -2t-40.5 -9t-28 -20t-10.5 -35q0 -23 17.5 -45t43 -45.5t56 -48.5t56 -53t43 -59.5t17.5 -68.5q0 -55 -19 -93.5t-53 -62.5t-82.5 -35t-106.5 -11q-60 0 -110 9t-83 22l22 101q38 -12 83.5 -22t98.5 -10
q21 0 41 3t35.5 11.5t25 23t9.5 37.5q0 26 -17 51t-42 50.5t-55 51t-55 53.5t-42 58.5t-17 64.5q0 55 22.5 90.5t59.5 56.5t85.5 29t100.5 8q20 0 43.5 -1.5t46 -4.5t43 -6t35.5 -6zM475 916l66 -161h-100l-33 91l-72 -91h-113l135 161h117z" />
    <glyph glyph-name="Scaron" unicode="&#x160;" horiz-adv-x="517" 
d="M552 558q-16 3 -35.5 6.5t-40 6t-40.5 4t-36 1.5q-26 0 -49 -2t-40.5 -9t-28 -20t-10.5 -35q0 -23 17.5 -45t43 -45.5t56 -48.5t56 -53t43 -59.5t17.5 -68.5q0 -55 -19 -93.5t-53 -62.5t-82.5 -35t-106.5 -11q-60 0 -110 9t-83 22l22 101q38 -12 83.5 -22t98.5 -10
q21 0 41 3t35.5 11.5t25 23t9.5 37.5q0 26 -17 51t-42 50.5t-55 51t-55 53.5t-42 58.5t-17 64.5q0 55 22.5 90.5t59.5 56.5t85.5 29t100.5 8q20 0 43.5 -1.5t46 -4.5t43 -6t35.5 -6zM317 755l-65 161h99l34 -92l72 92h113l-135 -161h-118z" />
    <glyph glyph-name="Scedilla" unicode="&#x15e;" horiz-adv-x="517" 
d="M552 558q-16 3 -35.5 6.5t-40 6t-40.5 4t-36 1.5q-26 0 -49 -2t-40.5 -9t-28 -20t-10.5 -35q0 -23 17.5 -45t43 -45.5t56 -48.5t56 -53t43 -59.5t17.5 -68.5q0 -55 -19 -93.5t-53 -62.5t-82.5 -35t-106.5 -11q-60 0 -110 9t-83 22l22 101q38 -12 83.5 -22t98.5 -10
q21 0 41 3t35.5 11.5t25 23t9.5 37.5q0 26 -17 51t-42 50.5t-55 51t-55 53.5t-42 58.5t-17 64.5q0 55 22.5 90.5t59.5 56.5t85.5 29t100.5 8q20 0 43.5 -1.5t46 -4.5t43 -6t35.5 -6zM311 -39q15 -29 15 -59q0 -48 -32 -75t-89 -27q-25 0 -44 4t-34 10l18 75q14 -5 27 -8
t21 -3q18 0 25.5 9t7.5 30q0 11 -2.5 22t-6.5 22h94z" />
    <glyph glyph-name="Scommaaccent" unicode="&#x218;" horiz-adv-x="517" 
d="M552 558q-16 3 -35.5 6.5t-40 6t-40.5 4t-36 1.5q-26 0 -49 -2t-40.5 -9t-28 -20t-10.5 -35q0 -23 17.5 -45t43 -45.5t56 -48.5t56 -53t43 -59.5t17.5 -68.5q0 -55 -19 -93.5t-53 -62.5t-82.5 -35t-106.5 -11q-60 0 -110 9t-83 22l22 101q38 -12 83.5 -22t98.5 -10
q21 0 41 3t35.5 11.5t25 23t9.5 37.5q0 26 -17 51t-42 50.5t-55 51t-55 53.5t-42 58.5t-17 64.5q0 55 22.5 90.5t59.5 56.5t85.5 29t100.5 8q20 0 43.5 -1.5t46 -4.5t43 -6t35.5 -6zM350 -46l-122 -142h-104l91 142h135z" />
    <glyph glyph-name="Tcaron" unicode="&#x164;" horiz-adv-x="554" 
d="M676 665l-22 -100h-197l-121 -565h-138l122 565h-197l21 100h532zM354 755l-65 161h99l34 -92l72 92h113l-135 -161h-118z" />
    <glyph glyph-name="Tcommaaccent" unicode="&#x162;" horiz-adv-x="554" 
d="M676 665l-22 -100h-197l-121 -565h-138l122 565h-197l21 100h532zM324 -46l-122 -142h-104l91 142h135z" />
    <glyph glyph-name="Tbar" unicode="&#x166;" horiz-adv-x="554" 
d="M124 362h153l43 203h-197l21 100h532l-21 -100h-197l-44 -203h152l-21 -98h-152l-57 -264h-137l56 264h-152z" />
    <glyph glyph-name="Ugrave" unicode="&#xd9;" horiz-adv-x="671" 
d="M344 665l-97 -449q-5 -23 -5 -40q0 -26 9 -43t25 -26.5t36.5 -13.5t43.5 -4q29 0 58 4t52 10l121 562h137l-138 -636q-50 -16 -115.5 -28t-130.5 -12q-47 0 -89.5 8.5t-75 29t-52 54.5t-19.5 86q0 15 1.5 28t5.5 30l95 440h138zM465 916l44 -161h-96l-82 161h134z" />
    <glyph glyph-name="Uacute" unicode="&#xda;" horiz-adv-x="671" 
d="M344 665l-97 -449q-5 -23 -5 -40q0 -26 9 -43t25 -26.5t36.5 -13.5t43.5 -4q29 0 58 4t52 10l121 562h137l-138 -636q-50 -16 -115.5 -28t-130.5 -12q-47 0 -89.5 8.5t-75 29t-52 54.5t-19.5 86q0 15 1.5 28t5.5 30l95 440h138zM654 916l-133 -161h-104l95 161h142z" />
    <glyph glyph-name="Ucircumflex" unicode="&#xdb;" horiz-adv-x="671" 
d="M344 665l-97 -449q-5 -23 -5 -40q0 -26 9 -43t25 -26.5t36.5 -13.5t43.5 -4q29 0 58 4t52 10l121 562h137l-138 -636q-50 -16 -115.5 -28t-130.5 -12q-47 0 -89.5 8.5t-75 29t-52 54.5t-19.5 86q0 15 1.5 28t5.5 30l95 440h138zM565 916l66 -161h-100l-33 91l-72 -91
h-113l135 161h117z" />
    <glyph glyph-name="Utilde" unicode="&#x168;" horiz-adv-x="671" 
d="M344 665l-97 -449q-5 -23 -5 -40q0 -26 9 -43t25 -26.5t36.5 -13.5t43.5 -4q29 0 58 4t52 10l121 562h137l-138 -636q-50 -16 -115.5 -28t-130.5 -12q-47 0 -89.5 8.5t-75 29t-52 54.5t-19.5 86q0 15 1.5 28t5.5 30l95 440h138zM326 811q16 34 40.5 56.5t66.5 22.5
q21 0 37 -5t29 -11.5t23.5 -11.5t19.5 -5q15 0 23.5 12t16.5 27l71 -37q-20 -38 -45 -61t-64 -23q-19 0 -35 5.5t-28.5 11.5t-23 11.5t-18.5 5.5q-17 0 -26 -10.5t-16 -24.5z" />
    <glyph glyph-name="Udieresis" unicode="&#xdc;" horiz-adv-x="671" 
d="M344 665l-97 -449q-5 -23 -5 -40q0 -26 9 -43t25 -26.5t36.5 -13.5t43.5 -4q29 0 58 4t52 10l121 562h137l-138 -636q-50 -16 -115.5 -28t-130.5 -12q-47 0 -89.5 8.5t-75 29t-52 54.5t-19.5 86q0 15 1.5 28t5.5 30l95 440h138zM469 840q-4 -29 -26 -45.5t-55 -16.5
q-57 0 -57 42q0 32 23 51.5t58 19.5q57 0 57 -43v-8zM651 840q-4 -29 -26 -45.5t-56 -16.5q-56 0 -56 42q0 32 23 51.5t58 19.5q57 0 57 -43v-8z" />
    <glyph glyph-name="Umacron" unicode="&#x16a;" horiz-adv-x="671" 
d="M344 665l-97 -449q-5 -23 -5 -40q0 -26 9 -43t25 -26.5t36.5 -13.5t43.5 -4q29 0 58 4t52 10l121 562h137l-138 -636q-50 -16 -115.5 -28t-130.5 -12q-47 0 -89.5 8.5t-75 29t-52 54.5t-19.5 86q0 15 1.5 28t5.5 30l95 440h138zM635 874l-17 -78h-274l17 78h274z" />
    <glyph glyph-name="Ubreve" unicode="&#x16c;" horiz-adv-x="671" 
d="M344 665l-97 -449q-5 -23 -5 -40q0 -26 9 -43t25 -26.5t36.5 -13.5t43.5 -4q29 0 58 4t52 10l121 562h137l-138 -636q-50 -16 -115.5 -28t-130.5 -12q-47 0 -89.5 8.5t-75 29t-52 54.5t-19.5 86q0 15 1.5 28t5.5 30l95 440h138zM449 903q-1 -5 -1.5 -9t-0.5 -8
q0 -43 44 -43q54 0 69 60h97q-19 -75 -64.5 -106.5t-111.5 -31.5q-59 0 -95 25t-36 82q0 14 3 31h96z" />
    <glyph glyph-name="Uring" unicode="&#x16e;" horiz-adv-x="671" 
d="M344 665l-97 -449q-5 -23 -5 -40q0 -26 9 -43t25 -26.5t36.5 -13.5t43.5 -4q29 0 58 4t52 10l121 562h137l-138 -636q-50 -16 -115.5 -28t-130.5 -12q-47 0 -89.5 8.5t-75 29t-52 54.5t-19.5 86q0 15 1.5 28t5.5 30l95 440h138zM482 799q19 1 31 11.5t12 33.5
q0 25 -27 25q-20 0 -31.5 -10.5t-11.5 -33.5q0 -13 6 -19.5t21 -6.5zM471 745q-45 0 -71 18t-26 52q0 29 10.5 49.5t29 34t43 19.5t51.5 6q45 0 71 -18t26 -52q0 -29 -10.5 -49.5t-29 -34t-43 -19.5t-51.5 -6z" />
    <glyph glyph-name="Uhungarumlaut" unicode="&#x170;" horiz-adv-x="671" 
d="M344 665l-97 -449q-5 -23 -5 -40q0 -26 9 -43t25 -26.5t36.5 -13.5t43.5 -4q29 0 58 4t52 10l121 562h137l-138 -636q-50 -16 -115.5 -28t-130.5 -12q-47 0 -89.5 8.5t-75 29t-52 54.5t-19.5 86q0 15 1.5 28t5.5 30l95 440h138zM694 916l-119 -161h-91l84 161h126z
M518 916l-86 -161h-89l64 161h111z" />
    <glyph glyph-name="Uogonek" unicode="&#x172;" horiz-adv-x="671" 
d="M344 665l-97 -449q-5 -23 -5 -40q0 -26 9 -43t25 -26.5t36.5 -13.5t43.5 -4q29 0 58 4t52 10l121 562h137l-138 -636q-11 -8 -23.5 -19.5t-23 -23.5t-17 -24.5t-6.5 -23.5t7.5 -15t18.5 -4q9 0 23 2.5t29 7.5l-14 -78q-31 -13 -72 -13q-43 0 -69 18.5t-26 53.5
q0 28 10.5 49.5t27.5 38.5q-28 -4 -56 -6.5t-55 -2.5q-47 0 -89.5 8.5t-75 29t-52 54.5t-19.5 86q0 15 1.5 28t5.5 30l95 440h138z" />
    <glyph glyph-name="Wgrave" unicode="&#x1e80;" horiz-adv-x="857" 
d="M583 916l44 -161h-96l-82 161h134zM534 0l-41 382l-208 -382h-141l-24 665h134l9 -501l197 378h129l42 -378q30 52 60 114t58 128t52.5 132.5t42.5 126.5h133q-65 -187 -138 -353t-170 -312h-135z" />
    <glyph glyph-name="Wacute" unicode="&#x1e82;" horiz-adv-x="857" 
d="M766 916l-133 -161h-104l95 161h142zM534 0l-41 382l-208 -382h-141l-24 665h134l9 -501l197 378h129l42 -378q30 52 60 114t58 128t52.5 132.5t42.5 126.5h133q-65 -187 -138 -353t-170 -312h-135z" />
    <glyph glyph-name="Wcircumflex" unicode="&#x174;" horiz-adv-x="857" 
d="M672 916l66 -161h-100l-33 91l-72 -91h-113l135 161h117zM534 0l-41 382l-208 -382h-141l-24 665h134l9 -501l197 378h129l42 -378q30 52 60 114t58 128t52.5 132.5t42.5 126.5h133q-65 -187 -138 -353t-170 -312h-135z" />
    <glyph glyph-name="Wdieresis" unicode="&#x1e84;" horiz-adv-x="857" 
d="M578 840q-4 -29 -26 -45.5t-55 -16.5q-57 0 -57 42q0 32 23 51.5t58 19.5q57 0 57 -43v-8zM760 840q-4 -29 -26 -45.5t-56 -16.5q-56 0 -56 42q0 32 23 51.5t58 19.5q57 0 57 -43v-8zM534 0l-41 382l-208 -382h-141l-24 665h134l9 -501l197 378h129l42 -378q30 52 60 114
t58 128t52.5 132.5t42.5 126.5h133q-65 -187 -138 -353t-170 -312h-135z" />
    <glyph glyph-name="Ygrave" unicode="&#x1ef2;" horiz-adv-x="568" 
d="M441 916l44 -161h-96l-82 161h134zM253 229l-148 436h146l100 -312q63 64 116 145t87 167h139q-24 -58 -55.5 -117.5t-69.5 -116.5t-83 -108.5t-96 -92.5l-51 -230h-135z" />
    <glyph glyph-name="Yacute" unicode="&#xdd;" horiz-adv-x="568" 
d="M594 916l-133 -161h-104l95 161h142zM253 229l-148 436h146l100 -312q63 64 116 145t87 167h139q-24 -58 -55.5 -117.5t-69.5 -116.5t-83 -108.5t-96 -92.5l-51 -230h-135z" />
    <glyph glyph-name="Ycircumflex" unicode="&#x176;" horiz-adv-x="568" 
d="M517 916l66 -161h-100l-33 91l-72 -91h-113l135 161h117zM253 229l-148 436h146l100 -312q63 64 116 145t87 167h139q-24 -58 -55.5 -117.5t-69.5 -116.5t-83 -108.5t-96 -92.5l-51 -230h-135z" />
    <glyph glyph-name="Ydieresis" unicode="&#x178;" horiz-adv-x="568" 
d="M427 840q-4 -29 -26 -45.5t-55 -16.5q-57 0 -57 42q0 32 23 51.5t58 19.5q57 0 57 -43v-8zM609 840q-4 -29 -26 -45.5t-56 -16.5q-56 0 -56 42q0 32 23 51.5t58 19.5q57 0 57 -43v-8zM253 229l-148 436h146l100 -312q63 64 116 145t87 167h139q-24 -58 -55.5 -117.5
t-69.5 -116.5t-83 -108.5t-96 -92.5l-51 -230h-135z" />
    <glyph glyph-name="Zacute" unicode="&#x179;" horiz-adv-x="570" 
d="M645 665l-3 -92l-427 -473h334l-20 -100h-480v91l428 474h-316l21 100h463zM599 916l-133 -161h-104l95 161h142z" />
    <glyph glyph-name="Zcaron" unicode="&#x17d;" horiz-adv-x="570" 
d="M645 665l-3 -92l-427 -473h334l-20 -100h-480v91l428 474h-316l21 100h463zM367 755l-65 161h99l34 -92l72 92h113l-135 -161h-118z" />
    <glyph glyph-name="Zdotaccent" unicode="&#x17b;" horiz-adv-x="570" 
d="M645 665l-3 -92l-427 -473h334l-20 -100h-480v91l428 474h-316l21 100h463zM431 776q-59 0 -59 43q0 34 24 54t61 20q60 0 60 -47q0 -33 -25.5 -51.5t-60.5 -18.5z" />
    <glyph glyph-name="Eng" unicode="&#x14a;" horiz-adv-x="718" 
d="M329 665l223 -370l79 370h134l-124 -575q-11 -52 -35 -94t-57 -76.5t-73.5 -64t-86.5 -56.5l-51 79q35 26 62.5 49.5t48.5 48t35 51.5t22 60l13 58l-208 331l-102 -476h-134l143 665h111z" />
    <glyph glyph-name="Eth" unicode="&#xd0;" horiz-adv-x="666" 
d="M466 665q114 0 174 -53t60 -164q0 -26 -3.5 -51t-9.5 -56q-16 -78 -44.5 -143t-75 -111.5t-113 -72t-159.5 -25.5q-47 0 -97.5 5.5t-105.5 18.5l58 273h-82l21 98h83l61 281h233zM288 286l-41 -191q17 -4 38 -5t41 -1q47 0 82 15.5t61 47t44 78t32 109.5q6 29 9.5 54
t3.5 46q0 68 -29 97t-85 29h-96l-39 -181h137l-20 -98h-138z" />
    <glyph glyph-name="Thorn" unicode="&#xde;" horiz-adv-x="590" 
d="M356 665l-24 -111h76q106 0 159 -36.5t53 -125.5q0 -71 -22 -122.5t-61 -85.5t-92 -50.5t-115 -16.5q-45 0 -91 9l-26 -126h-138l143 665h138zM262 223q37 -6 71 -6q69 0 109.5 40.5t40.5 126.5q0 42 -23.5 56t-72.5 14h-77z" />
    <glyph glyph-name="a" unicode="a" horiz-adv-x="567" 
d="M392 42q-35 -27 -73 -40t-85 -13q-35 0 -64 9.5t-50 29.5t-32.5 52.5t-11.5 77.5q0 85 23 148.5t63 105.5t93.5 62.5t114.5 20.5q54 0 106.5 -11.5t94.5 -27.5l-69 -315q-3 -12 -3 -23q0 -17 7 -23t22 -6q25 0 54 8l-17 -97q-19 -5 -35 -8t-39 -3q-35 0 -61.5 12
t-37.5 41zM423 388q-15 5 -33 8t-35 3q-53 0 -86 -39t-49 -120q-4 -21 -6 -39.5t-2 -34.5q0 -77 57 -77q28 0 56.5 14.5t42.5 28.5z" />
    <glyph glyph-name="b" unicode="b" horiz-adv-x="541" 
d="M353 730l-53 -246q23 5 46.5 8t44.5 3q81 0 127 -38t46 -126q0 -19 -1.5 -40.5t-6.5 -46.5q-15 -75 -43 -124.5t-65.5 -78.5t-82 -40.5t-92.5 -11.5q-23 0 -50 2.5t-55 7.5t-54 11t-46 14l151 706h134zM215 93q18 -4 36.5 -6t38.5 -2q23 0 42 7.5t35 26t28.5 50
t23.5 79.5q9 43 9 74q0 45 -17 61t-49 16q-20 0 -42.5 -3t-40.5 -8z" />
    <glyph glyph-name="c" unicode="c" horiz-adv-x="419" 
d="M458 385q-19 5 -45.5 9.5t-55.5 4.5q-54 0 -88 -37.5t-50 -124.5q-4 -19 -5.5 -36.5t-1.5 -34.5q0 -45 19.5 -63t60.5 -18q27 0 53 5t53 12l-11 -95q-28 -8 -62.5 -13t-67.5 -5q-85 0 -133 39t-48 129q0 19 1.5 39t5.5 41q23 131 95.5 194.5t188.5 63.5q29 0 61.5 -3.5
t52.5 -8.5z" />
    <glyph glyph-name="d" unicode="d" horiz-adv-x="564" 
d="M630 730l-128 -590q-3 -12 -3 -22q0 -29 27 -29q21 0 56 9l-17 -98q-19 -5 -36 -8t-40 -3q-31 0 -59.5 11t-37.5 42q-68 -53 -156 -53q-72 0 -116 39t-44 130q0 25 2.5 48t6.5 44q11 63 37.5 109.5t64.5 76.5t85 44.5t98 14.5q22 0 41.5 -2.5t34.5 -6.5l51 244h133z
M423 388q-14 4 -33.5 7.5t-37.5 3.5q-48 0 -81 -36.5t-49 -114.5q-5 -23 -7.5 -43.5t-2.5 -38.5q0 -77 56 -77q13 0 27.5 4t27.5 10.5t24.5 14t20.5 14.5z" />
    <glyph glyph-name="e" unicode="e" horiz-adv-x="483" 
d="M215 204q-3 -21 -3 -37q0 -42 21.5 -62t79.5 -20q15 0 33.5 2t37.5 5t36.5 6.5t29.5 7.5l-8 -94q-33 -10 -75 -16.5t-87 -6.5q-97 0 -150.5 41t-53.5 130q0 66 16.5 126.5t52 107t90 74t130.5 27.5q80 0 119 -34.5t39 -96.5q0 -42 -16.5 -73.5t-46 -52t-71 -30.5
t-91.5 -10q-40 0 -83 6zM233 285q11 -2 25 -2.5t24 -0.5q57 0 85.5 17t28.5 55q0 25 -13 38t-43 13q-42 0 -67 -29t-40 -91z" />
    <glyph glyph-name="f" unicode="f" horiz-adv-x="349" 
d="M185 484l17 81q20 89 82.5 132.5t150.5 43.5q47 0 85 -9l-20 -94q-18 3 -36.5 4.5t-34.5 1.5q-33 0 -58 -16t-35 -63l-17 -81h134l-20 -94h-135l-68 -314q-10 -47 -27.5 -86.5t-45 -74t-66.5 -65.5t-93 -59l-49 79q36 24 61 47t42 48t27.5 51.5t17.5 58.5l67 315h-71
l20 94h72z" />
    <glyph glyph-name="g" unicode="g" horiz-adv-x="538" 
d="M474 7q-13 -62 -37.5 -101.5t-59 -63t-78 -32.5t-95.5 -9q-43 0 -88 7.5t-71 17.5l21 96q28 -9 69.5 -17.5t79.5 -8.5q51 0 81.5 22.5t41.5 75.5l6 30q-23 -11 -50.5 -17.5t-56.5 -6.5q-33 0 -62 8.5t-51 27.5t-34.5 50t-12.5 76q0 84 23.5 147t64 104t94 61.5
t113.5 20.5q53 0 105 -11.5t94 -27.5zM423 388q-14 4 -33 7.5t-38 3.5q-26 0 -51 -13t-44.5 -40.5t-31.5 -70t-12 -101.5q0 -43 15 -59.5t47 -16.5q20 0 46.5 10t46.5 24z" />
    <glyph glyph-name="h" unicode="h" horiz-adv-x="559" 
d="M223 730h134l-54 -246q24 5 50 8t50 3q37 0 67.5 -6.5t52.5 -21t34.5 -38t12.5 -57.5q0 -23 -6 -53l-68 -319h-134l68 314q3 15 3 28q0 33 -19 45t-50 12q-20 0 -43.5 -4t-37.5 -8l-83 -387h-133z" />
    <glyph glyph-name="i" unicode="i" horiz-adv-x="286" 
d="M348 668q-5 -37 -31 -58.5t-65 -21.5q-31 0 -48.5 13t-17.5 39q0 44 29 67.5t68 23.5q32 0 49 -13t17 -38q0 -8 -1 -12zM298 484l-77 -354q-2 -10 -2 -15q0 -16 9 -21t22 -5q12 0 24 2t26 6l-17 -97q-18 -5 -35.5 -8t-40.5 -3q-54 0 -88.5 21.5t-34.5 75.5q0 17 2.5 32.5
t5.5 27.5l72 338h134z" />
    <glyph glyph-name="j" unicode="j" horiz-adv-x="271" 
d="M303 484l-88 -408q-10 -47 -27.5 -87t-45 -74.5t-67 -65t-93.5 -58.5l-49 79q37 24 62 47t41.5 47t27 51t17.5 60l89 409h133zM353 668q-5 -37 -30.5 -58.5t-64.5 -21.5q-32 0 -49 13t-17 39q0 44 28.5 67.5t68.5 23.5q31 0 48 -12.5t17 -37.5v-6.5t-1 -6.5z" />
    <glyph glyph-name="k" unicode="k" horiz-adv-x="519" 
d="M355 730l-94 -439l198 193h143l-203 -196q40 -16 62.5 -54.5t32.5 -101.5l21 -132h-141l-15 118q-5 41 -20.5 61.5t-43.5 28.5l-66 -59l-31 -149h-134l157 730h134z" />
    <glyph glyph-name="l" unicode="l" horiz-adv-x="291" 
d="M351 730l-129 -597q-2 -10 -2 -15q0 -18 10 -23.5t24 -5.5q11 0 24.5 1.5t35.5 6.5l-20 -97q-20 -5 -40 -8t-45 -3q-27 0 -49.5 5t-39.5 16.5t-26.5 30.5t-9.5 47q0 18 5 41l129 601h133z" />
    <glyph glyph-name="m" unicode="m" horiz-adv-x="828" 
d="M164 457q40 12 98 25t119 13q44 0 78 -9.5t56 -28.5q38 17 80.5 27.5t91.5 10.5q70 0 112 -27t42 -92q0 -28 -7 -57l-68 -319h-134l68 314q4 15 4 30q0 32 -17 43.5t-46 11.5q-22 0 -45.5 -6.5t-39.5 -14.5q0 -14 -1 -29.5t-4 -29.5l-69 -319h-133l67 314q2 8 3 16t1 14
q0 32 -16.5 43.5t-45.5 11.5q-19 0 -40 -3t-35 -8l-84 -388h-133l98 457v0z" />
    <glyph glyph-name="n" unicode="n" horiz-adv-x="554" 
d="M161 457q20 6 45.5 12.5t55 12.5t60.5 9.5t62 3.5q41 0 74.5 -7t57.5 -23t37.5 -40.5t13.5 -59.5q0 -12 -1.5 -22t-4.5 -24l-69 -319h-133l68 314q3 16 3 29q0 31 -18.5 43.5t-50.5 12.5q-20 0 -43.5 -3t-37.5 -8l-84 -388h-133l98 457v0z" />
    <glyph glyph-name="o" unicode="o" horiz-adv-x="531" 
d="M365 495q91 0 139.5 -41t48.5 -129q0 -80 -20.5 -142.5t-57.5 -105.5t-90 -65.5t-117 -22.5q-93 0 -141.5 41t-48.5 129q0 79 20.5 141.5t58 105.5t90.5 66t118 23zM349 399q-52 0 -82.5 -41t-44.5 -119q-8 -46 -8 -76q0 -44 16.5 -61t51.5 -17q28 0 53 16t43 46t28.5 74
t10.5 100q0 44 -16.5 61t-51.5 17z" />
    <glyph glyph-name="p" unicode="p" horiz-adv-x="544" 
d="M164 456q50 17 109 28t112 11q86 0 134.5 -38t48.5 -127q0 -41 -9 -84q-13 -66 -38 -114.5t-60 -80t-78.5 -47t-94.5 -15.5q-22 0 -45.5 3.5t-43.5 7.5l-41 -188h-133zM219 95q19 -5 37 -7.5t39 -2.5q22 0 40.5 7.5t34 26t28.5 50t24 79.5q10 43 10 75q0 45 -18 60.5
t-51 15.5q-18 0 -42.5 -3.5t-38.5 -7.5z" />
    <glyph glyph-name="q" unicode="q" horiz-adv-x="542" 
d="M434 -188h-133l22 102l22 102q-21 -13 -49 -20t-58 -7q-72 0 -116 39t-44 130q0 84 23 147t62.5 105.5t93.5 63.5t116 21q53 0 105.5 -11.5t94.5 -27.5zM425 388q-13 4 -32.5 7.5t-37.5 3.5q-27 0 -52 -14.5t-44.5 -43.5t-31.5 -72.5t-12 -102.5q0 -42 14 -59.5t44 -17.5
q26 0 52 13.5t45 28.5z" />
    <glyph glyph-name="r" unicode="r" horiz-adv-x="376" 
d="M163 456q67 21 134 30t149 9l-21 -100q-39 0 -75.5 -2.5t-68.5 -7.5l-82 -385h-134z" />
    <glyph glyph-name="s" unicode="s" horiz-adv-x="437" 
d="M455 389q-20 5 -53.5 9.5t-65.5 4.5q-44 0 -69.5 -9t-25.5 -38q0 -15 14 -27.5t34.5 -26t44.5 -28.5t44.5 -33t34.5 -41t14 -52q0 -47 -18 -78t-48.5 -49t-70.5 -25.5t-84 -7.5q-51 0 -91.5 8t-66.5 17l22 94q12 -5 28.5 -9t36 -8t40 -6t38.5 -2q35 0 57 10.5t22 39.5
q0 16 -13.5 30t-33.5 28t-43.5 28.5t-43.5 32.5t-33.5 40t-13.5 51q0 46 19.5 75.5t52 47t75 24t89.5 6.5q38 0 72 -4t56 -8z" />
    <glyph glyph-name="t" unicode="t" horiz-adv-x="376" 
d="M347 621l-29 -137h127l-20 -94h-128l-55 -255q-1 -5 -1.5 -8t-0.5 -7q0 -18 12 -25t29 -7q20 0 42.5 4.5t39.5 9.5l-17 -98q-24 -8 -51.5 -12t-55.5 -4q-63 0 -97.5 29.5t-34.5 84.5q0 11 1 20.5t3 21.5l53 246h-73l21 94h72l55 137h108z" />
    <glyph glyph-name="u" unicode="u" horiz-adv-x="578" 
d="M295 484l-70 -319q-3 -14 -3 -27q0 -49 48 -49q32 0 59.5 14t48.5 34l76 347h133l-74 -340q-2 -8 -3 -15.5t-1 -12.5q0 -17 7.5 -22t21.5 -5q22 0 54 8l-17 -97q-20 -5 -38 -7.5t-44 -2.5q-32 0 -57 12t-35 40q-34 -26 -70.5 -39.5t-81.5 -13.5q-157 0 -157 139
q0 13 1 27.5t4 30.5l64 298h134z" />
    <glyph glyph-name="v" unicode="v" horiz-adv-x="494" 
d="M164 0l-64 484h134l36 -358q45 72 88.5 162.5t81.5 195.5h129q-47 -127 -107.5 -248t-145.5 -236h-152z" />
    <glyph glyph-name="w" unicode="w" horiz-adv-x="829" 
d="M507 0l-24 340l-169 -340h-164l-40 484h130l19 -355l176 355h149l23 -358q45 74 86.5 161.5t79.5 196.5h126q-44 -128 -101.5 -247.5t-138.5 -236.5h-152z" />
    <glyph glyph-name="x" unicode="x" horiz-adv-x="481" 
d="M256 484l54 -153l126 153h138l-201 -239l102 -245h-142l-65 154l-126 -154h-140l204 242l-94 242h144z" />
    <glyph glyph-name="y" unicode="y" horiz-adv-x="555" 
d="M586 484l-105 -484q-13 -59 -37 -97t-58.5 -61t-77.5 -32t-94 -9q-45 0 -89.5 7.5t-70.5 17.5l22 96q29 -10 68.5 -18t79.5 -8q51 0 80.5 20t40.5 74l8 38q-21 -12 -47 -20t-55 -8q-73 0 -116 33t-43 105q0 14 1.5 29.5t5.5 32.5l61 284h133l-66 -307q-3 -17 -3 -28
q0 -51 52 -51q26 0 53.5 13t47.5 31l75 342h134z" />
    <glyph glyph-name="z" unicode="z" horiz-adv-x="465" 
d="M510 484v-82l-297 -308h240l-19 -94h-392v82l301 308h-225l20 94h372z" />
    <glyph glyph-name="agrave" unicode="&#xe0;" horiz-adv-x="567" 
d="M392 42q-35 -27 -73 -40t-85 -13q-35 0 -64 9.5t-50 29.5t-32.5 52.5t-11.5 77.5q0 85 23 148.5t63 105.5t93.5 62.5t114.5 20.5q54 0 106.5 -11.5t94.5 -27.5l-69 -315q-3 -12 -3 -23q0 -17 7 -23t22 -6q25 0 54 8l-17 -97q-19 -5 -35 -8t-39 -3q-35 0 -61.5 12
t-37.5 41zM423 388q-15 5 -33 8t-35 3q-53 0 -86 -39t-49 -120q-4 -21 -6 -39.5t-2 -34.5q0 -77 57 -77q28 0 56.5 14.5t42.5 28.5zM411 730l44 -161h-96l-82 161h134z" />
    <glyph glyph-name="aacute" unicode="&#xe1;" horiz-adv-x="567" 
d="M392 42q-35 -27 -73 -40t-85 -13q-35 0 -64 9.5t-50 29.5t-32.5 52.5t-11.5 77.5q0 85 23 148.5t63 105.5t93.5 62.5t114.5 20.5q54 0 106.5 -11.5t94.5 -27.5l-69 -315q-3 -12 -3 -23q0 -17 7 -23t22 -6q25 0 54 8l-17 -97q-19 -5 -35 -8t-39 -3q-35 0 -61.5 12
t-37.5 41zM423 388q-15 5 -33 8t-35 3q-53 0 -86 -39t-49 -120q-4 -21 -6 -39.5t-2 -34.5q0 -77 57 -77q28 0 56.5 14.5t42.5 28.5zM567 730l-133 -161h-104l95 161h142z" />
    <glyph glyph-name="acircumflex" unicode="&#xe2;" horiz-adv-x="567" 
d="M392 42q-35 -27 -73 -40t-85 -13q-35 0 -64 9.5t-50 29.5t-32.5 52.5t-11.5 77.5q0 85 23 148.5t63 105.5t93.5 62.5t114.5 20.5q54 0 106.5 -11.5t94.5 -27.5l-69 -315q-3 -12 -3 -23q0 -17 7 -23t22 -6q25 0 54 8l-17 -97q-19 -5 -35 -8t-39 -3q-35 0 -61.5 12
t-37.5 41zM423 388q-15 5 -33 8t-35 3q-53 0 -86 -39t-49 -120q-4 -21 -6 -39.5t-2 -34.5q0 -77 57 -77q28 0 56.5 14.5t42.5 28.5zM478 730l66 -161h-100l-33 91l-72 -91h-113l135 161h117z" />
    <glyph glyph-name="atilde" unicode="&#xe3;" horiz-adv-x="567" 
d="M392 42q-35 -27 -73 -40t-85 -13q-35 0 -64 9.5t-50 29.5t-32.5 52.5t-11.5 77.5q0 85 23 148.5t63 105.5t93.5 62.5t114.5 20.5q54 0 106.5 -11.5t94.5 -27.5l-69 -315q-3 -12 -3 -23q0 -17 7 -23t22 -6q25 0 54 8l-17 -97q-19 -5 -35 -8t-39 -3q-35 0 -61.5 12
t-37.5 41zM423 388q-15 5 -33 8t-35 3q-53 0 -86 -39t-49 -120q-4 -21 -6 -39.5t-2 -34.5q0 -77 57 -77q28 0 56.5 14.5t42.5 28.5zM243 626q16 34 40.5 56.5t66.5 22.5q21 0 37 -5t29 -11.5t23.5 -11.5t19.5 -5q15 0 23.5 12t16.5 27l71 -37q-20 -38 -45 -61t-64 -23
q-19 0 -35 5.5t-28.5 11.5t-23 11.5t-18.5 5.5q-17 0 -26 -10.5t-16 -24.5z" />
    <glyph glyph-name="adieresis" unicode="&#xe4;" horiz-adv-x="567" 
d="M392 42q-35 -27 -73 -40t-85 -13q-35 0 -64 9.5t-50 29.5t-32.5 52.5t-11.5 77.5q0 85 23 148.5t63 105.5t93.5 62.5t114.5 20.5q54 0 106.5 -11.5t94.5 -27.5l-69 -315q-3 -12 -3 -23q0 -17 7 -23t22 -6q25 0 54 8l-17 -97q-19 -5 -35 -8t-39 -3q-35 0 -61.5 12
t-37.5 41zM423 388q-15 5 -33 8t-35 3q-53 0 -86 -39t-49 -120q-4 -21 -6 -39.5t-2 -34.5q0 -77 57 -77q28 0 56.5 14.5t42.5 28.5zM388 656q-4 -29 -26 -45.5t-55 -16.5q-57 0 -57 42q0 32 23 51.5t58 19.5q57 0 57 -43v-8zM570 656q-4 -29 -26 -45.5t-56 -16.5
q-56 0 -56 42q0 32 23 51.5t58 19.5q57 0 57 -43v-8z" />
    <glyph glyph-name="amacron" unicode="&#x101;" horiz-adv-x="567" 
d="M392 42q-35 -27 -73 -40t-85 -13q-35 0 -64 9.5t-50 29.5t-32.5 52.5t-11.5 77.5q0 85 23 148.5t63 105.5t93.5 62.5t114.5 20.5q54 0 106.5 -11.5t94.5 -27.5l-69 -315q-3 -12 -3 -23q0 -17 7 -23t22 -6q25 0 54 8l-17 -97q-19 -5 -35 -8t-39 -3q-35 0 -61.5 12
t-37.5 41zM423 388q-15 5 -33 8t-35 3q-53 0 -86 -39t-49 -120q-4 -21 -6 -39.5t-2 -34.5q0 -77 57 -77q28 0 56.5 14.5t42.5 28.5zM553 688l-17 -78h-274l17 78h274z" />
    <glyph glyph-name="abreve" unicode="&#x103;" horiz-adv-x="567" 
d="M392 42q-35 -27 -73 -40t-85 -13q-35 0 -64 9.5t-50 29.5t-32.5 52.5t-11.5 77.5q0 85 23 148.5t63 105.5t93.5 62.5t114.5 20.5q54 0 106.5 -11.5t94.5 -27.5l-69 -315q-3 -12 -3 -23q0 -17 7 -23t22 -6q25 0 54 8l-17 -97q-19 -5 -35 -8t-39 -3q-35 0 -61.5 12
t-37.5 41zM423 388q-15 5 -33 8t-35 3q-53 0 -86 -39t-49 -120q-4 -21 -6 -39.5t-2 -34.5q0 -77 57 -77q28 0 56.5 14.5t42.5 28.5zM369 718q-1 -5 -1.5 -9t-0.5 -8q0 -43 44 -43q54 0 69 60h97q-19 -75 -64.5 -106.5t-111.5 -31.5q-59 0 -95 25t-36 82q0 14 3 31h96z" />
    <glyph glyph-name="aring" unicode="&#xe5;" horiz-adv-x="567" 
d="M392 42q-35 -27 -73 -40t-85 -13q-35 0 -64 9.5t-50 29.5t-32.5 52.5t-11.5 77.5q0 85 23 148.5t63 105.5t93.5 62.5t114.5 20.5q54 0 106.5 -11.5t94.5 -27.5l-69 -315q-3 -12 -3 -23q0 -17 7 -23t22 -6q25 0 54 8l-17 -97q-19 -5 -35 -8t-39 -3q-35 0 -61.5 12
t-37.5 41zM423 388q-15 5 -33 8t-35 3q-53 0 -86 -39t-49 -120q-4 -21 -6 -39.5t-2 -34.5q0 -77 57 -77q28 0 56.5 14.5t42.5 28.5zM400 613q19 1 31 11.5t12 33.5q0 25 -27 25q-20 0 -31.5 -10.5t-11.5 -33.5q0 -13 6 -19.5t21 -6.5zM389 559q-45 0 -71 18t-26 52
q0 29 10.5 49.5t29 34t43 19.5t51.5 6q45 0 71 -18t26 -52q0 -29 -10.5 -49.5t-29 -34t-43 -19.5t-51.5 -6z" />
    <glyph glyph-name="aringacute" unicode="&#x1fb;" horiz-adv-x="567" 
d="M388 559q-45 0 -70.5 18t-25.5 52q0 47 26.5 72t65.5 33q17 24 33 47.5t32 47.5h114q-24 -24 -47.5 -48.5t-46.5 -48.5q25 -8 39 -24t14 -40q0 -29 -10.5 -49.5t-29 -34t-43 -19.5t-51.5 -6zM399 613q19 1 31 11.5t12 33.5q0 25 -27 25q-20 0 -31.5 -10.5t-11.5 -33.5v-6
q2 -20 27 -20zM392 42q-35 -27 -73 -40t-85 -13q-35 0 -64 9.5t-50 29.5t-32.5 52.5t-11.5 77.5q0 85 23 148.5t63 105.5t93.5 62.5t114.5 20.5q54 0 106.5 -11.5t94.5 -27.5l-69 -315q-3 -12 -3 -23q0 -17 7 -23t22 -6q25 0 54 8l-17 -97q-19 -5 -35 -8t-39 -3
q-35 0 -61.5 12t-37.5 41zM423 388q-15 5 -33 8t-35 3q-53 0 -86 -39t-49 -120q-4 -21 -6 -39.5t-2 -34.5q0 -77 57 -77q28 0 56.5 14.5t42.5 28.5z" />
    <glyph glyph-name="aogonek" unicode="&#x105;" horiz-adv-x="567" 
d="M392 42q-35 -27 -73 -40t-85 -13q-35 0 -64 9.5t-50 29.5t-32.5 52.5t-11.5 77.5q0 85 23 148.5t63 105.5t93.5 62.5t114.5 20.5q54 0 106.5 -11.5t94.5 -27.5l-69 -315q-3 -12 -3 -23q0 -17 7 -23t22 -6q25 0 54 8l-17 -97q-19 -5 -35 -8t-39 -3q-35 0 -61.5 12
t-37.5 41zM423 388q-15 5 -33 8t-35 3q-53 0 -86 -39t-49 -120q-4 -21 -6 -39.5t-2 -34.5q0 -77 57 -77q28 0 56.5 14.5t42.5 28.5zM565 0q-11 -8 -23.5 -19t-23 -22.5t-17 -23.5t-6.5 -23t7.5 -15t18.5 -4q9 0 23 2.5t29 7.5l-14 -78q-31 -13 -72 -13q-43 0 -69 18.5
t-26 53.5q0 22 7 39.5t18 32t25.5 25.5t28.5 19h94z" />
    <glyph glyph-name="ae" unicode="&#xe6;" horiz-adv-x="733" 
d="M465 204q-3 -21 -3 -37q0 -42 22 -62t79 -20q15 0 33.5 2t37.5 5t36.5 6.5t29.5 7.5l-8 -94q-33 -10 -75 -16.5t-87 -6.5q-46 0 -84.5 10.5t-65.5 31.5q-35 -20 -74.5 -31t-88.5 -11q-39 0 -70.5 7t-54.5 22.5t-35.5 40t-12.5 59.5q0 54 20.5 89t52.5 56t71.5 29t78.5 8
q21 0 41.5 -1.5t37.5 -4.5q5 14 10 28.5t5 33.5q0 26 -21.5 35t-53.5 9t-72 -6t-72 -14l14 96q35 8 77.5 13.5t80.5 5.5q45 0 83.5 -10t61.5 -32q32 22 70.5 32t84.5 10q80 0 119.5 -34.5t39.5 -96.5q0 -42 -16.5 -73.5t-46 -52t-71 -30.5t-91.5 -10q-40 0 -83 6zM329 213
q-14 2 -29 3t-29 1q-18 0 -35.5 -4t-32 -14t-23.5 -27.5t-9 -44.5t17.5 -39.5t44.5 -12.5q26 0 52.5 7t46.5 21q-3 13 -4.5 24t-1.5 28q0 14 0.5 29.5t2.5 28.5zM483 285q11 -2 25 -2.5t24 -0.5q57 0 85.5 17t28.5 55q0 25 -13 38t-43 13q-42 0 -67 -29t-40 -91z" />
    <glyph glyph-name="aeacute" unicode="&#x1fd;" horiz-adv-x="733" 
d="M465 204q-3 -21 -3 -37q0 -42 22 -62t79 -20q15 0 33.5 2t37.5 5t36.5 6.5t29.5 7.5l-8 -94q-33 -10 -75 -16.5t-87 -6.5q-46 0 -84.5 10.5t-65.5 31.5q-35 -20 -74.5 -31t-88.5 -11q-39 0 -70.5 7t-54.5 22.5t-35.5 40t-12.5 59.5q0 54 20.5 89t52.5 56t71.5 29t78.5 8
q21 0 41.5 -1.5t37.5 -4.5q5 14 10 28.5t5 33.5q0 26 -21.5 35t-53.5 9t-72 -6t-72 -14l14 96q35 8 77.5 13.5t80.5 5.5q45 0 83.5 -10t61.5 -32q32 22 70.5 32t84.5 10q80 0 119.5 -34.5t39.5 -96.5q0 -42 -16.5 -73.5t-46 -52t-71 -30.5t-91.5 -10q-40 0 -83 6zM329 213
q-14 2 -29 3t-29 1q-18 0 -35.5 -4t-32 -14t-23.5 -27.5t-9 -44.5t17.5 -39.5t44.5 -12.5q26 0 52.5 7t46.5 21q-3 13 -4.5 24t-1.5 28q0 14 0.5 29.5t2.5 28.5zM483 285q11 -2 25 -2.5t24 -0.5q57 0 85.5 17t28.5 55q0 25 -13 38t-43 13q-42 0 -67 -29t-40 -91zM696 730
l-133 -161h-104l95 161h142z" />
    <glyph glyph-name="cacute" unicode="&#x107;" horiz-adv-x="419" 
d="M458 385q-19 5 -45.5 9.5t-55.5 4.5q-54 0 -88 -37.5t-50 -124.5q-4 -19 -5.5 -36.5t-1.5 -34.5q0 -45 19.5 -63t60.5 -18q27 0 53 5t53 12l-11 -95q-28 -8 -62.5 -13t-67.5 -5q-85 0 -133 39t-48 129q0 19 1.5 39t5.5 41q23 131 95.5 194.5t188.5 63.5q29 0 61.5 -3.5
t52.5 -8.5zM522 730l-133 -161h-104l95 161h142z" />
    <glyph glyph-name="ccircumflex" unicode="&#x109;" horiz-adv-x="419" 
d="M458 385q-19 5 -45.5 9.5t-55.5 4.5q-54 0 -88 -37.5t-50 -124.5q-4 -19 -5.5 -36.5t-1.5 -34.5q0 -45 19.5 -63t60.5 -18q27 0 53 5t53 12l-11 -95q-28 -8 -62.5 -13t-67.5 -5q-85 0 -133 39t-48 129q0 19 1.5 39t5.5 41q23 131 95.5 194.5t188.5 63.5q29 0 61.5 -3.5
t52.5 -8.5zM415 730l66 -161h-100l-33 91l-72 -91h-113l135 161h117z" />
    <glyph glyph-name="ccaron" unicode="&#x10d;" horiz-adv-x="419" 
d="M458 385q-19 5 -45.5 9.5t-55.5 4.5q-54 0 -88 -37.5t-50 -124.5q-4 -19 -5.5 -36.5t-1.5 -34.5q0 -45 19.5 -63t60.5 -18q27 0 53 5t53 12l-11 -95q-28 -8 -62.5 -13t-67.5 -5q-85 0 -133 39t-48 129q0 19 1.5 39t5.5 41q23 131 95.5 194.5t188.5 63.5q29 0 61.5 -3.5
t52.5 -8.5zM279 569l-65 161h99l34 -92l72 92h113l-135 -161h-118z" />
    <glyph glyph-name="cdotaccent" unicode="&#x10b;" horiz-adv-x="419" 
d="M458 385q-19 5 -45.5 9.5t-55.5 4.5q-54 0 -88 -37.5t-50 -124.5q-4 -19 -5.5 -36.5t-1.5 -34.5q0 -45 19.5 -63t60.5 -18q27 0 53 5t53 12l-11 -95q-28 -8 -62.5 -13t-67.5 -5q-85 0 -133 39t-48 129q0 19 1.5 39t5.5 41q23 131 95.5 194.5t188.5 63.5q29 0 61.5 -3.5
t52.5 -8.5zM345 592q-59 0 -59 43q0 34 24 54t61 20q60 0 60 -47q0 -33 -25.5 -51.5t-60.5 -18.5z" />
    <glyph glyph-name="ccedilla" unicode="&#xe7;" horiz-adv-x="419" 
d="M458 385q-19 5 -45.5 9.5t-55.5 4.5q-54 0 -88 -37.5t-50 -124.5q-4 -19 -5.5 -36.5t-1.5 -34.5q0 -45 19.5 -63t60.5 -18q27 0 53 5t53 12l-11 -95q-28 -8 -62.5 -13t-67.5 -5q-85 0 -133 39t-48 129q0 19 1.5 39t5.5 41q23 131 95.5 194.5t188.5 63.5q29 0 61.5 -3.5
t52.5 -8.5zM281 -39q15 -29 15 -59q0 -48 -32 -75t-89 -27q-25 0 -44 4t-34 10l18 75q14 -5 27 -8t21 -3q18 0 25.5 9t7.5 30q0 11 -2.5 22t-6.5 22h94z" />
    <glyph glyph-name="dcaron" unicode="&#x10f;" horiz-adv-x="672" 
d="M630 730l-128 -590q-3 -12 -3 -22q0 -29 27 -29q21 0 56 9l-17 -98q-19 -5 -36 -8t-40 -3q-31 0 -59.5 11t-37.5 42q-68 -53 -156 -53q-72 0 -116 39t-44 130q0 25 2.5 48t6.5 44q11 63 37.5 109.5t64.5 76.5t85 44.5t98 14.5q22 0 41.5 -2.5t34.5 -6.5l51 244h133z
M423 388q-14 4 -33.5 7.5t-37.5 3.5q-48 0 -81 -36.5t-49 -114.5q-5 -23 -7.5 -43.5t-2.5 -38.5q0 -77 56 -77q13 0 27.5 4t27.5 10.5t24.5 14t20.5 14.5zM837 665l-120 -213h-100l93 213h127z" />
    <glyph glyph-name="dcroat" unicode="&#x111;" horiz-adv-x="572" 
d="M630 730l-17 -78h94l-19 -81h-93l-93 -431q-3 -12 -3 -22q0 -29 27 -29q21 0 56 9l-17 -98q-19 -5 -36 -8t-40 -3q-31 0 -59.5 11t-37.5 42q-68 -53 -156 -53q-72 0 -116 39t-44 130q0 25 2.5 48t6.5 44q11 63 37.5 109.5t64.5 76.5t85 44.5t98 14.5q22 0 41.5 -2.5
t34.5 -6.5l18 85h-153l18 81h152l16 78h133zM423 388q-14 4 -33.5 7.5t-37.5 3.5q-48 0 -81 -36.5t-49 -114.5q-5 -23 -7.5 -43.5t-2.5 -38.5q0 -77 56 -77q13 0 27.5 4t27.5 10.5t24.5 14t20.5 14.5z" />
    <glyph glyph-name="egrave" unicode="&#xe8;" horiz-adv-x="483" 
d="M215 204q-3 -21 -3 -37q0 -42 21.5 -62t79.5 -20q15 0 33.5 2t37.5 5t36.5 6.5t29.5 7.5l-8 -94q-33 -10 -75 -16.5t-87 -6.5q-97 0 -150.5 41t-53.5 130q0 66 16.5 126.5t52 107t90 74t130.5 27.5q80 0 119 -34.5t39 -96.5q0 -42 -16.5 -73.5t-46 -52t-71 -30.5
t-91.5 -10q-40 0 -83 6zM233 285q11 -2 25 -2.5t24 -0.5q57 0 85.5 17t28.5 55q0 25 -13 38t-43 13q-42 0 -67 -29t-40 -91zM382 730l44 -161h-96l-82 161h134z" />
    <glyph glyph-name="eacute" unicode="&#xe9;" horiz-adv-x="483" 
d="M215 204q-3 -21 -3 -37q0 -42 21.5 -62t79.5 -20q15 0 33.5 2t37.5 5t36.5 6.5t29.5 7.5l-8 -94q-33 -10 -75 -16.5t-87 -6.5q-97 0 -150.5 41t-53.5 130q0 66 16.5 126.5t52 107t90 74t130.5 27.5q80 0 119 -34.5t39 -96.5q0 -42 -16.5 -73.5t-46 -52t-71 -30.5
t-91.5 -10q-40 0 -83 6zM233 285q11 -2 25 -2.5t24 -0.5q57 0 85.5 17t28.5 55q0 25 -13 38t-43 13q-42 0 -67 -29t-40 -91zM574 730l-133 -161h-104l95 161h142z" />
    <glyph glyph-name="ecircumflex" unicode="&#xea;" horiz-adv-x="483" 
d="M215 204q-3 -21 -3 -37q0 -42 21.5 -62t79.5 -20q15 0 33.5 2t37.5 5t36.5 6.5t29.5 7.5l-8 -94q-33 -10 -75 -16.5t-87 -6.5q-97 0 -150.5 41t-53.5 130q0 66 16.5 126.5t52 107t90 74t130.5 27.5q80 0 119 -34.5t39 -96.5q0 -42 -16.5 -73.5t-46 -52t-71 -30.5
t-91.5 -10q-40 0 -83 6zM233 285q11 -2 25 -2.5t24 -0.5q57 0 85.5 17t28.5 55q0 25 -13 38t-43 13q-42 0 -67 -29t-40 -91zM485 730l66 -161h-100l-33 91l-72 -91h-113l135 161h117z" />
    <glyph glyph-name="ecaron" unicode="&#x11b;" horiz-adv-x="483" 
d="M215 204q-3 -21 -3 -37q0 -42 21.5 -62t79.5 -20q15 0 33.5 2t37.5 5t36.5 6.5t29.5 7.5l-8 -94q-33 -10 -75 -16.5t-87 -6.5q-97 0 -150.5 41t-53.5 130q0 66 16.5 126.5t52 107t90 74t130.5 27.5q80 0 119 -34.5t39 -96.5q0 -42 -16.5 -73.5t-46 -52t-71 -30.5
t-91.5 -10q-40 0 -83 6zM233 285q11 -2 25 -2.5t24 -0.5q57 0 85.5 17t28.5 55q0 25 -13 38t-43 13q-42 0 -67 -29t-40 -91zM333 569l-65 161h99l34 -92l72 92h113l-135 -161h-118z" />
    <glyph glyph-name="edieresis" unicode="&#xeb;" horiz-adv-x="483" 
d="M215 204q-3 -21 -3 -37q0 -42 21.5 -62t79.5 -20q15 0 33.5 2t37.5 5t36.5 6.5t29.5 7.5l-8 -94q-33 -10 -75 -16.5t-87 -6.5q-97 0 -150.5 41t-53.5 130q0 66 16.5 126.5t52 107t90 74t130.5 27.5q80 0 119 -34.5t39 -96.5q0 -42 -16.5 -73.5t-46 -52t-71 -30.5
t-91.5 -10q-40 0 -83 6zM233 285q11 -2 25 -2.5t24 -0.5q57 0 85.5 17t28.5 55q0 25 -13 38t-43 13q-42 0 -67 -29t-40 -91zM388 656q-4 -29 -26 -45.5t-55 -16.5q-57 0 -57 42q0 32 23 51.5t58 19.5q57 0 57 -43v-8zM570 656q-4 -29 -26 -45.5t-56 -16.5q-56 0 -56 42
q0 32 23 51.5t58 19.5q57 0 57 -43v-8z" />
    <glyph glyph-name="emacron" unicode="&#x113;" horiz-adv-x="483" 
d="M215 204q-3 -21 -3 -37q0 -42 21.5 -62t79.5 -20q15 0 33.5 2t37.5 5t36.5 6.5t29.5 7.5l-8 -94q-33 -10 -75 -16.5t-87 -6.5q-97 0 -150.5 41t-53.5 130q0 66 16.5 126.5t52 107t90 74t130.5 27.5q80 0 119 -34.5t39 -96.5q0 -42 -16.5 -73.5t-46 -52t-71 -30.5
t-91.5 -10q-40 0 -83 6zM233 285q11 -2 25 -2.5t24 -0.5q57 0 85.5 17t28.5 55q0 25 -13 38t-43 13q-42 0 -67 -29t-40 -91zM555 688l-17 -78h-274l17 78h274z" />
    <glyph glyph-name="ebreve" unicode="&#x115;" horiz-adv-x="483" 
d="M215 204q-3 -21 -3 -37q0 -42 21.5 -62t79.5 -20q15 0 33.5 2t37.5 5t36.5 6.5t29.5 7.5l-8 -94q-33 -10 -75 -16.5t-87 -6.5q-97 0 -150.5 41t-53.5 130q0 66 16.5 126.5t52 107t90 74t130.5 27.5q80 0 119 -34.5t39 -96.5q0 -42 -16.5 -73.5t-46 -52t-71 -30.5
t-91.5 -10q-40 0 -83 6zM233 285q11 -2 25 -2.5t24 -0.5q57 0 85.5 17t28.5 55q0 25 -13 38t-43 13q-42 0 -67 -29t-40 -91zM369 718q-1 -5 -1.5 -9t-0.5 -8q0 -43 44 -43q54 0 69 60h97q-19 -75 -64.5 -106.5t-111.5 -31.5q-59 0 -95 25t-36 82q0 14 3 31h96z" />
    <glyph glyph-name="edotaccent" unicode="&#x117;" horiz-adv-x="483" 
d="M215 204q-3 -21 -3 -37q0 -42 21.5 -62t79.5 -20q15 0 33.5 2t37.5 5t36.5 6.5t29.5 7.5l-8 -94q-33 -10 -75 -16.5t-87 -6.5q-97 0 -150.5 41t-53.5 130q0 66 16.5 126.5t52 107t90 74t130.5 27.5q80 0 119 -34.5t39 -96.5q0 -42 -16.5 -73.5t-46 -52t-71 -30.5
t-91.5 -10q-40 0 -83 6zM233 285q11 -2 25 -2.5t24 -0.5q57 0 85.5 17t28.5 55q0 25 -13 38t-43 13q-42 0 -67 -29t-40 -91zM396 592q-59 0 -59 43q0 34 24 54t61 20q60 0 60 -47q0 -33 -25.5 -51.5t-60.5 -18.5z" />
    <glyph glyph-name="eogonek" unicode="&#x119;" horiz-adv-x="483" 
d="M215 204q-3 -21 -3 -37q0 -42 21.5 -62t79.5 -20q15 0 33.5 2t37.5 5t36.5 6.5t29.5 7.5l-8 -94q-11 -4 -25 -7t-27 -5q-11 -8 -23.5 -19t-23 -22.5t-17 -23.5t-6.5 -23t7.5 -15t18.5 -4q9 0 23 2.5t29 7.5l-14 -78q-31 -13 -72 -13q-43 0 -69 18.5t-26 53.5
q0 37 18.5 62.5t42.5 42.5q-96 1 -149 41.5t-53 129.5q0 66 16.5 126.5t52 107t90 74t130.5 27.5q80 0 119 -34.5t39 -96.5q0 -42 -16.5 -73.5t-46 -52t-71 -30.5t-91.5 -10q-40 0 -83 6zM233 285q11 -2 25 -2.5t24 -0.5q57 0 85.5 17t28.5 55q0 25 -13 38t-43 13
q-42 0 -67 -29t-40 -91z" />
    <glyph glyph-name="gcircumflex" unicode="&#x11d;" horiz-adv-x="538" 
d="M474 7q-13 -62 -37.5 -101.5t-59 -63t-78 -32.5t-95.5 -9q-43 0 -88 7.5t-71 17.5l21 96q28 -9 69.5 -17.5t79.5 -8.5q51 0 81.5 22.5t41.5 75.5l6 30q-23 -11 -50.5 -17.5t-56.5 -6.5q-33 0 -62 8.5t-51 27.5t-34.5 50t-12.5 76q0 84 23.5 147t64 104t94 61.5
t113.5 20.5q53 0 105 -11.5t94 -27.5zM423 388q-14 4 -33 7.5t-38 3.5q-26 0 -51 -13t-44.5 -40.5t-31.5 -70t-12 -101.5q0 -43 15 -59.5t47 -16.5q20 0 46.5 10t46.5 24zM479 730l66 -161h-100l-33 91l-72 -91h-113l135 161h117z" />
    <glyph glyph-name="gbreve" unicode="&#x11f;" horiz-adv-x="538" 
d="M474 7q-13 -62 -37.5 -101.5t-59 -63t-78 -32.5t-95.5 -9q-43 0 -88 7.5t-71 17.5l21 96q28 -9 69.5 -17.5t79.5 -8.5q51 0 81.5 22.5t41.5 75.5l6 30q-23 -11 -50.5 -17.5t-56.5 -6.5q-33 0 -62 8.5t-51 27.5t-34.5 50t-12.5 76q0 84 23.5 147t64 104t94 61.5
t113.5 20.5q53 0 105 -11.5t94 -27.5zM423 388q-14 4 -33 7.5t-38 3.5q-26 0 -51 -13t-44.5 -40.5t-31.5 -70t-12 -101.5q0 -43 15 -59.5t47 -16.5q20 0 46.5 10t46.5 24zM361 718q-1 -5 -1.5 -9t-0.5 -8q0 -43 44 -43q54 0 69 60h97q-19 -75 -64.5 -106.5t-111.5 -31.5
q-59 0 -95 25t-36 82q0 14 3 31h96z" />
    <glyph glyph-name="gdotaccent" unicode="&#x121;" horiz-adv-x="538" 
d="M474 7q-13 -62 -37.5 -101.5t-59 -63t-78 -32.5t-95.5 -9q-43 0 -88 7.5t-71 17.5l21 96q28 -9 69.5 -17.5t79.5 -8.5q51 0 81.5 22.5t41.5 75.5l6 30q-23 -11 -50.5 -17.5t-56.5 -6.5q-33 0 -62 8.5t-51 27.5t-34.5 50t-12.5 76q0 84 23.5 147t64 104t94 61.5
t113.5 20.5q53 0 105 -11.5t94 -27.5zM423 388q-14 4 -33 7.5t-38 3.5q-26 0 -51 -13t-44.5 -40.5t-31.5 -70t-12 -101.5q0 -43 15 -59.5t47 -16.5q20 0 46.5 10t46.5 24zM391 592q-59 0 -59 43q0 34 24 54t61 20q60 0 60 -47q0 -33 -25.5 -51.5t-60.5 -18.5z" />
    <glyph glyph-name="gcommaaccent" unicode="&#x123;" horiz-adv-x="538" 
d="M474 7q-13 -62 -37.5 -101.5t-59 -63t-78 -32.5t-95.5 -9q-43 0 -88 7.5t-71 17.5l21 96q28 -9 69.5 -17.5t79.5 -8.5q51 0 81.5 22.5t41.5 75.5l6 30q-23 -11 -50.5 -17.5t-56.5 -6.5q-33 0 -62 8.5t-51 27.5t-34.5 50t-12.5 76q0 84 23.5 147t64 104t94 61.5
t113.5 20.5q53 0 105 -11.5t94 -27.5zM423 388q-14 4 -33 7.5t-38 3.5q-26 0 -51 -13t-44.5 -40.5t-31.5 -70t-12 -101.5q0 -43 15 -59.5t47 -16.5q20 0 46.5 10t46.5 24zM302 569l133 161h104l-95 -161h-142z" />
    <glyph glyph-name="hcircumflex" unicode="&#x125;" horiz-adv-x="559" 
d="M223 730h134l-54 -246q24 5 50 8t50 3q37 0 67.5 -6.5t52.5 -21t34.5 -38t12.5 -57.5q0 -23 -6 -53l-68 -319h-134l68 314q3 15 3 28q0 33 -19 45t-50 12q-20 0 -43.5 -4t-37.5 -8l-83 -387h-133zM385 944l66 -161h-100l-33 91l-72 -91h-113l135 161h117z" />
    <glyph glyph-name="hbar" unicode="&#x127;" horiz-adv-x="577" 
d="M340 570l-19 -86q24 5 50 8t50 3q37 0 67.5 -6.5t52.5 -21t34.5 -38t12.5 -57.5q0 -23 -6 -53l-68 -319h-134l68 314q3 15 3 28q0 33 -19 45t-50 12q-20 0 -43.5 -4t-37.5 -8l-83 -387h-133l122 570h-100l18 82h99l17 79h134l-17 -79h151l-18 -82h-151z" />
    <glyph glyph-name="igrave" unicode="&#xec;" horiz-adv-x="286" 
d="M256 730l44 -161h-96l-82 161h134zM298 484l-77 -355q-2 -10 -2 -15q0 -26 28 -26q11 0 23 2t30 7l-17 -97q-20 -5 -36.5 -7.5t-39.5 -2.5q-54 0 -88.5 21.5t-34.5 75.5q0 19 5 42l75 355h134z" />
    <glyph glyph-name="iacute" unicode="&#xed;" horiz-adv-x="286" 
d="M431 730l-133 -161h-104l95 161h142zM298 484l-77 -355q-2 -10 -2 -15q0 -26 28 -26q11 0 23 2t30 7l-17 -97q-20 -5 -36.5 -7.5t-39.5 -2.5q-54 0 -88.5 21.5t-34.5 75.5q0 19 5 42l75 355h134z" />
    <glyph glyph-name="icircumflex" unicode="&#xee;" horiz-adv-x="286" 
d="M298 484l-77 -355q-2 -10 -2 -15q0 -26 28 -26q11 0 23 2t30 7l-17 -97q-20 -5 -36.5 -7.5t-39.5 -2.5q-54 0 -88.5 21.5t-34.5 75.5q0 19 5 42l75 355h134zM336 730l66 -161h-100l-33 91l-72 -91h-113l135 161h117z" />
    <glyph glyph-name="itilde" unicode="&#x129;" horiz-adv-x="286" 
d="M102 626q16 34 40.5 56.5t66.5 22.5q21 0 37 -5t29 -11.5t23.5 -11.5t19.5 -5q15 0 23.5 12t16.5 27l71 -37q-20 -38 -45 -61t-64 -23q-19 0 -35 5.5t-28.5 11.5t-23 11.5t-18.5 5.5q-17 0 -26 -10.5t-16 -24.5zM298 484l-77 -355q-2 -10 -2 -15q0 -26 28 -26q11 0 23 2
t30 7l-17 -97q-20 -5 -36.5 -7.5t-39.5 -2.5q-54 0 -88.5 21.5t-34.5 75.5q0 19 5 42l75 355h134z" />
    <glyph glyph-name="idieresis" unicode="&#xef;" horiz-adv-x="286" 
d="M242 656q-4 -29 -26 -45.5t-55 -16.5q-57 0 -57 42q0 32 23 51.5t58 19.5q57 0 57 -43v-8zM424 656q-4 -29 -26 -45.5t-56 -16.5q-56 0 -56 42q0 32 23 51.5t58 19.5q57 0 57 -43v-8zM298 484l-77 -355q-2 -10 -2 -15q0 -26 28 -26q11 0 23 2t30 7l-17 -97
q-20 -5 -36.5 -7.5t-39.5 -2.5q-54 0 -88.5 21.5t-34.5 75.5q0 19 5 42l75 355h134z" />
    <glyph glyph-name="imacron" unicode="&#x12b;" horiz-adv-x="286" 
d="M409 688l-17 -78h-274l17 78h274zM298 484l-77 -355q-2 -10 -2 -15q0 -26 28 -26q11 0 23 2t30 7l-17 -97q-20 -5 -36.5 -7.5t-39.5 -2.5q-54 0 -88.5 21.5t-34.5 75.5q0 19 5 42l75 355h134z" />
    <glyph glyph-name="ibreve" unicode="&#x12d;" horiz-adv-x="286" 
d="M222 718q-1 -5 -1.5 -9t-0.5 -8q0 -43 44 -43q54 0 69 60h97q-19 -75 -64.5 -106.5t-111.5 -31.5q-59 0 -95 25t-36 82q0 14 3 31h96zM298 484l-77 -355q-2 -10 -2 -15q0 -26 28 -26q11 0 23 2t30 7l-17 -97q-20 -5 -36.5 -7.5t-39.5 -2.5q-54 0 -88.5 21.5t-34.5 75.5
q0 19 5 42l75 355h134z" />
    <glyph glyph-name="iogonek" unicode="&#x12f;" horiz-adv-x="286" 
d="M298 484l-77 -355q-2 -10 -2 -15q0 -16 9 -21t22 -5q12 0 24 2.5t26 6.5l-17 -97q-24 -6 -49 -9q-20 -17 -38.5 -38.5t-18.5 -40.5q0 -11 7.5 -15t18.5 -4q9 0 23 2.5t29 7.5l-14 -78q-31 -13 -72 -13q-43 0 -69 18.5t-26 53.5q0 42 23 69t50 44q-29 9 -46 30t-17 59
q0 17 2.5 32.5t5.5 27.5l72 338h134zM348 668q-5 -37 -31 -58.5t-65 -21.5q-31 0 -48.5 13t-17.5 39q0 44 29 67.5t68 23.5q32 0 49 -13t17 -38q0 -8 -1 -12z" />
    <glyph glyph-name="dotlessi" unicode="&#x131;" horiz-adv-x="286" 
d="M298 484l-77 -355q-2 -10 -2 -15q0 -26 28 -26q11 0 23 2t30 7l-17 -97q-20 -5 -36.5 -7.5t-39.5 -2.5q-54 0 -88.5 21.5t-34.5 75.5q0 19 5 42l75 355h134z" />
    <glyph glyph-name="jcircumflex" unicode="&#x135;" horiz-adv-x="271" 
d="M303 484l-88 -408q-10 -47 -27.5 -87t-45 -74.5t-67 -65t-93.5 -58.5l-49 79q37 24 62 47t41.5 47t27 51t17.5 60l89 409h133zM337 730l66 -161h-100l-33 91l-72 -91h-113l135 161h117z" />
    <glyph glyph-name="kcommaaccent" unicode="&#x137;" horiz-adv-x="519" 
d="M355 730l-94 -439l198 193h143l-203 -196q40 -16 62.5 -54.5t32.5 -101.5l21 -132h-141l-15 118q-5 41 -20.5 61.5t-43.5 28.5l-66 -59l-31 -149h-134l157 730h134zM360 -46l-122 -142h-104l91 142h135z" />
    <glyph glyph-name="lacute" unicode="&#x13a;" horiz-adv-x="291" 
d="M351 730l-129 -597q-2 -10 -2 -15q0 -18 10 -23.5t24 -5.5q11 0 24.5 1.5t35.5 6.5l-20 -97q-20 -5 -40 -8t-45 -3q-27 0 -49.5 5t-39.5 16.5t-26.5 30.5t-9.5 47q0 18 5 41l129 601h133zM473 947l-133 -161h-104l95 161h142z" />
    <glyph glyph-name="lcaron" unicode="&#x13e;" horiz-adv-x="393" 
d="M351 730l-129 -597q-2 -10 -2 -15q0 -18 10 -23.5t24 -5.5q11 0 24.5 1.5t35.5 6.5l-20 -97q-20 -5 -40 -8t-45 -3q-27 0 -49.5 5t-39.5 16.5t-26.5 30.5t-9.5 47q0 18 5 41l129 601h133zM558 665l-120 -213h-100l93 213h127z" />
    <glyph glyph-name="lcommaaccent" unicode="&#x13c;" horiz-adv-x="291" 
d="M351 730l-129 -597q-2 -10 -2 -15q0 -18 10 -23.5t24 -5.5q11 0 24.5 1.5t35.5 6.5l-20 -97q-20 -5 -40 -8t-45 -3q-27 0 -49.5 5t-39.5 16.5t-26.5 30.5t-9.5 47q0 18 5 41l129 601h133zM235 -46l-122 -142h-104l91 142h135z" />
    <glyph glyph-name="lslash" unicode="&#x142;" horiz-adv-x="330" 
d="M378 730l-61 -283l75 29l-22 -99l-75 -30l-46 -214q-2 -10 -2 -15q0 -18 10 -23.5t24 -5.5q11 0 24.5 1.5t35.5 6.5l-20 -97q-19 -5 -39.5 -8t-45.5 -3q-27 0 -49.5 5.5t-39.5 17t-26.5 30.5t-9.5 46q0 18 5 41l35 164l-74 -28l20 99l75 29l73 337h133z" />
    <glyph glyph-name="nacute" unicode="&#x144;" horiz-adv-x="554" 
d="M161 457q20 6 45.5 12.5t55 12.5t60.5 9.5t62 3.5q41 0 74.5 -7t57.5 -23t37.5 -40.5t13.5 -59.5q0 -12 -1.5 -22t-4.5 -24l-69 -319h-133l68 314q3 16 3 29q0 31 -18.5 43.5t-50.5 12.5q-20 0 -43.5 -3t-37.5 -8l-84 -388h-133zM579 730l-133 -161h-104l95 161h142z" />
    <glyph glyph-name="ncaron" unicode="&#x148;" horiz-adv-x="554" 
d="M161 457q20 6 45.5 12.5t55 12.5t60.5 9.5t62 3.5q41 0 74.5 -7t57.5 -23t37.5 -40.5t13.5 -59.5q0 -12 -1.5 -22t-4.5 -24l-69 -319h-133l68 314q3 16 3 29q0 31 -18.5 43.5t-50.5 12.5q-20 0 -43.5 -3t-37.5 -8l-84 -388h-133zM339 569l-65 161h99l34 -92l72 92h113
l-135 -161h-118z" />
    <glyph glyph-name="ntilde" unicode="&#xf1;" horiz-adv-x="554" 
d="M161 457q20 6 45.5 12.5t55 12.5t60.5 9.5t62 3.5q41 0 74.5 -7t57.5 -23t37.5 -40.5t13.5 -59.5q0 -12 -1.5 -22t-4.5 -24l-69 -319h-133l68 314q3 16 3 29q0 31 -18.5 43.5t-50.5 12.5q-20 0 -43.5 -3t-37.5 -8l-84 -388h-133zM254 626q16 34 40.5 56.5t66.5 22.5
q21 0 37 -5t29 -11.5t23.5 -11.5t19.5 -5q15 0 23.5 12t16.5 27l71 -37q-20 -38 -45 -61t-64 -23q-19 0 -35 5.5t-28.5 11.5t-23 11.5t-18.5 5.5q-17 0 -26 -10.5t-16 -24.5z" />
    <glyph glyph-name="ncommaaccent" unicode="&#x146;" horiz-adv-x="554" 
d="M161 457q20 6 45.5 12.5t55 12.5t60.5 9.5t62 3.5q41 0 74.5 -7t57.5 -23t37.5 -40.5t13.5 -59.5q0 -12 -1.5 -22t-4.5 -24l-69 -319h-133l68 314q3 16 3 29q0 31 -18.5 43.5t-50.5 12.5q-20 0 -43.5 -3t-37.5 -8l-84 -388h-133zM345 -46l-122 -142h-104l91 142h135z" />
    <glyph glyph-name="ograve" unicode="&#xf2;" horiz-adv-x="531" 
d="M365 495q91 0 139.5 -41t48.5 -129q0 -80 -20.5 -142.5t-57.5 -105.5t-90 -65.5t-117 -22.5q-93 0 -141.5 41t-48.5 129q0 79 20.5 141.5t58 105.5t90.5 66t118 23zM349 399q-52 0 -82.5 -41t-44.5 -119q-8 -46 -8 -76q0 -44 16.5 -61t51.5 -17q28 0 53 16t43 46t28.5 74
t10.5 100q0 44 -16.5 61t-51.5 17zM401 730l44 -161h-96l-82 161h134z" />
    <glyph glyph-name="oacute" unicode="&#xf3;" horiz-adv-x="531" 
d="M365 495q91 0 139.5 -41t48.5 -129q0 -80 -20.5 -142.5t-57.5 -105.5t-90 -65.5t-117 -22.5q-93 0 -141.5 41t-48.5 129q0 79 20.5 141.5t58 105.5t90.5 66t118 23zM349 399q-52 0 -82.5 -41t-44.5 -119q-8 -46 -8 -76q0 -44 16.5 -61t51.5 -17q28 0 53 16t43 46t28.5 74
t10.5 100q0 44 -16.5 61t-51.5 17zM573 730l-133 -161h-104l95 161h142z" />
    <glyph glyph-name="ocircumflex" unicode="&#xf4;" horiz-adv-x="531" 
d="M365 495q91 0 139.5 -41t48.5 -129q0 -80 -20.5 -142.5t-57.5 -105.5t-90 -65.5t-117 -22.5q-93 0 -141.5 41t-48.5 129q0 79 20.5 141.5t58 105.5t90.5 66t118 23zM349 399q-52 0 -82.5 -41t-44.5 -119q-8 -46 -8 -76q0 -44 16.5 -61t51.5 -17q28 0 53 16t43 46t28.5 74
t10.5 100q0 44 -16.5 61t-51.5 17zM486 730l66 -161h-100l-33 91l-72 -91h-113l135 161h117z" />
    <glyph glyph-name="otilde" unicode="&#xf5;" horiz-adv-x="531" 
d="M365 495q91 0 139.5 -41t48.5 -129q0 -80 -20.5 -142.5t-57.5 -105.5t-90 -65.5t-117 -22.5q-93 0 -141.5 41t-48.5 129q0 79 20.5 141.5t58 105.5t90.5 66t118 23zM349 399q-52 0 -82.5 -41t-44.5 -119q-8 -46 -8 -76q0 -44 16.5 -61t51.5 -17q28 0 53 16t43 46t28.5 74
t10.5 100q0 44 -16.5 61t-51.5 17zM248 626q16 34 40.5 56.5t66.5 22.5q21 0 37 -5t29 -11.5t23.5 -11.5t19.5 -5q15 0 23.5 12t16.5 27l71 -37q-20 -38 -45 -61t-64 -23q-19 0 -35 5.5t-28.5 11.5t-23 11.5t-18.5 5.5q-17 0 -26 -10.5t-16 -24.5z" />
    <glyph glyph-name="odieresis" unicode="&#xf6;" horiz-adv-x="531" 
d="M365 495q91 0 139.5 -41t48.5 -129q0 -80 -20.5 -142.5t-57.5 -105.5t-90 -65.5t-117 -22.5q-93 0 -141.5 41t-48.5 129q0 79 20.5 141.5t58 105.5t90.5 66t118 23zM349 399q-52 0 -82.5 -41t-44.5 -119q-8 -46 -8 -76q0 -44 16.5 -61t51.5 -17q28 0 53 16t43 46t28.5 74
t10.5 100q0 44 -16.5 61t-51.5 17zM390 656q-4 -29 -26 -45.5t-55 -16.5q-57 0 -57 42q0 32 23 51.5t58 19.5q57 0 57 -43v-8zM572 656q-4 -29 -26 -45.5t-56 -16.5q-56 0 -56 42q0 32 23 51.5t58 19.5q57 0 57 -43v-8z" />
    <glyph glyph-name="omacron" unicode="&#x14d;" horiz-adv-x="531" 
d="M365 495q91 0 139.5 -41t48.5 -129q0 -80 -20.5 -142.5t-57.5 -105.5t-90 -65.5t-117 -22.5q-93 0 -141.5 41t-48.5 129q0 79 20.5 141.5t58 105.5t90.5 66t118 23zM349 399q-52 0 -82.5 -41t-44.5 -119q-8 -46 -8 -76q0 -44 16.5 -61t51.5 -17q28 0 53 16t43 46t28.5 74
t10.5 100q0 44 -16.5 61t-51.5 17zM556 688l-17 -78h-274l17 78h274z" />
    <glyph glyph-name="obreve" unicode="&#x14f;" horiz-adv-x="531" 
d="M365 495q91 0 139.5 -41t48.5 -129q0 -80 -20.5 -142.5t-57.5 -105.5t-90 -65.5t-117 -22.5q-93 0 -141.5 41t-48.5 129q0 79 20.5 141.5t58 105.5t90.5 66t118 23zM349 399q-52 0 -82.5 -41t-44.5 -119q-8 -46 -8 -76q0 -44 16.5 -61t51.5 -17q28 0 53 16t43 46t28.5 74
t10.5 100q0 44 -16.5 61t-51.5 17zM371 718q-1 -5 -1.5 -9t-0.5 -8q0 -43 44 -43q54 0 69 60h97q-19 -75 -64.5 -106.5t-111.5 -31.5q-59 0 -95 25t-36 82q0 14 3 31h96z" />
    <glyph glyph-name="ohungarumlaut" unicode="&#x151;" horiz-adv-x="531" 
d="M365 495q91 0 139.5 -41t48.5 -129q0 -80 -20.5 -142.5t-57.5 -105.5t-90 -65.5t-117 -22.5q-93 0 -141.5 41t-48.5 129q0 79 20.5 141.5t58 105.5t90.5 66t118 23zM349 399q-52 0 -82.5 -41t-44.5 -119q-8 -46 -8 -76q0 -44 16.5 -61t51.5 -17q28 0 53 16t43 46t28.5 74
t10.5 100q0 44 -16.5 61t-51.5 17zM626 730l-119 -161h-91l84 161h126zM450 730l-86 -161h-89l64 161h111z" />
    <glyph glyph-name="oslash" unicode="&#xf8;" horiz-adv-x="531" 
d="M365 495q62 0 105 -20l78 94l45 -39l-75 -91q35 -41 35 -114q0 -80 -20.5 -142.5t-57.5 -105.5t-90 -65.5t-117 -22.5q-63 0 -107 19l-79 -95l-46 39l76 92q-34 41 -34 115q0 79 20.5 141.5t58 105.5t90.5 66t118 23zM235 98q16 -13 47 -13q57 0 95.5 60t39.5 172z
M396 386q-16 13 -47 13q-52 0 -82.5 -41t-44.5 -119q-4 -21 -6 -39t-2 -34z" />
    <glyph glyph-name="oslashacute" unicode="&#x1ff;" horiz-adv-x="531" 
d="M574 730l-133 -161h-104l95 161h142zM365 495q62 0 105 -20l78 94l45 -39l-75 -91q35 -41 35 -114q0 -80 -20.5 -142.5t-57.5 -105.5t-90 -65.5t-117 -22.5q-63 0 -107 19l-79 -95l-46 39l76 92q-34 41 -34 115q0 79 20.5 141.5t58 105.5t90.5 66t118 23zM235 98
q16 -13 47 -13q57 0 95.5 60t39.5 172zM396 386q-16 13 -47 13q-52 0 -82.5 -41t-44.5 -119q-4 -21 -6 -39t-2 -34z" />
    <glyph glyph-name="oe" unicode="&#x153;" horiz-adv-x="806" 
d="M538 204q-2 -11 -2 -19v-16q0 -45 21.5 -64.5t78.5 -19.5q15 0 33.5 2t37.5 5t36.5 6.5t29.5 7.5l-7 -94q-33 -10 -75.5 -16.5t-87.5 -6.5q-116 0 -163 63q-69 -63 -175 -63q-97 0 -142 44.5t-45 125.5t21 143.5t58.5 105t90.5 65t117 22.5q108 0 149 -59q33 31 76 45
t97 14q80 0 119.5 -34.5t39.5 -96.5q0 -42 -16.5 -73.5t-46 -52t-71 -30.5t-91.5 -10q-40 0 -83 6zM413 280q2 12 2.5 22.5t0.5 20.5q0 43 -15.5 59.5t-50.5 16.5q-58 0 -96.5 -61.5t-38.5 -174.5q0 -44 16 -61t51 -17q30 0 51.5 15t36.5 41t25.5 62t17.5 77zM556 285
q11 -2 25 -2.5t24 -0.5q57 0 85.5 17t28.5 55q0 25 -13 38t-43 13q-42 0 -67 -29t-40 -91z" />
    <glyph glyph-name="racute" unicode="&#x155;" horiz-adv-x="360" 
d="M163 456q67 21 134 30t149 9l-21 -100q-39 0 -75.5 -2.5t-68.5 -7.5l-82 -385h-134zM508 730l-133 -161h-104l95 161h142z" />
    <glyph glyph-name="rcommaaccent" unicode="&#x157;" horiz-adv-x="360" 
d="M163 456q67 21 134 30t149 9l-21 -100q-39 0 -75.5 -2.5t-68.5 -7.5l-82 -385h-134zM188 -46l-122 -142h-104l91 142h135z" />
    <glyph glyph-name="rcaron" unicode="&#x159;" horiz-adv-x="360" 
d="M163 456q67 21 134 30t149 9l-21 -100q-39 0 -75.5 -2.5t-68.5 -7.5l-82 -385h-134zM262 569l-65 161h99l34 -92l72 92h113l-135 -161h-118z" />
    <glyph glyph-name="sacute" unicode="&#x15b;" horiz-adv-x="437" 
d="M455 389q-20 5 -53.5 9.5t-65.5 4.5q-44 0 -69.5 -9t-25.5 -38q0 -15 14 -27.5t34.5 -26t44.5 -28.5t44.5 -33t34.5 -41t14 -52q0 -47 -18 -78t-48.5 -49t-70.5 -25.5t-84 -7.5q-51 0 -91.5 8t-66.5 17l22 94q12 -5 28.5 -9t36 -8t40 -6t38.5 -2q35 0 57 10.5t22 39.5
q0 16 -13.5 30t-33.5 28t-43.5 28.5t-43.5 32.5t-33.5 40t-13.5 51q0 46 19.5 75.5t52 47t75 24t89.5 6.5q38 0 72 -4t56 -8zM497 730l-133 -161h-104l95 161h142z" />
    <glyph glyph-name="scircumflex" unicode="&#x15d;" horiz-adv-x="437" 
d="M455 389q-20 5 -53.5 9.5t-65.5 4.5q-44 0 -69.5 -9t-25.5 -38q0 -15 14 -27.5t34.5 -26t44.5 -28.5t44.5 -33t34.5 -41t14 -52q0 -47 -18 -78t-48.5 -49t-70.5 -25.5t-84 -7.5q-51 0 -91.5 8t-66.5 17l22 94q12 -5 28.5 -9t36 -8t40 -6t38.5 -2q35 0 57 10.5t22 39.5
q0 16 -13.5 30t-33.5 28t-43.5 28.5t-43.5 32.5t-33.5 40t-13.5 51q0 46 19.5 75.5t52 47t75 24t89.5 6.5q38 0 72 -4t56 -8zM426 730l66 -161h-100l-33 91l-72 -91h-113l135 161h117z" />
    <glyph glyph-name="scaron" unicode="&#x161;" horiz-adv-x="437" 
d="M455 389q-20 5 -53.5 9.5t-65.5 4.5q-44 0 -69.5 -9t-25.5 -38q0 -15 14 -27.5t34.5 -26t44.5 -28.5t44.5 -33t34.5 -41t14 -52q0 -47 -18 -78t-48.5 -49t-70.5 -25.5t-84 -7.5q-51 0 -91.5 8t-66.5 17l22 94q12 -5 28.5 -9t36 -8t40 -6t38.5 -2q35 0 57 10.5t22 39.5
q0 16 -13.5 30t-33.5 28t-43.5 28.5t-43.5 32.5t-33.5 40t-13.5 51q0 46 19.5 75.5t52 47t75 24t89.5 6.5q38 0 72 -4t56 -8zM273 569l-65 161h99l34 -92l72 92h113l-135 -161h-118z" />
    <glyph glyph-name="scedilla" unicode="&#x15f;" horiz-adv-x="437" 
d="M455 389q-20 5 -53.5 9.5t-65.5 4.5q-44 0 -69.5 -9t-25.5 -38q0 -15 14 -27.5t34.5 -26t44.5 -28.5t44.5 -33t34.5 -41t14 -52q0 -47 -18 -78t-48.5 -49t-70.5 -25.5t-84 -7.5q-51 0 -91.5 8t-66.5 17l22 94q12 -5 28.5 -9t36 -8t40 -6t38.5 -2q35 0 57 10.5t22 39.5
q0 16 -13.5 30t-33.5 28t-43.5 28.5t-43.5 32.5t-33.5 40t-13.5 51q0 46 19.5 75.5t52 47t75 24t89.5 6.5q38 0 72 -4t56 -8zM275 -39q15 -29 15 -59q0 -48 -32 -75t-89 -27q-25 0 -44 4t-34 10l18 75q14 -5 27 -8t21 -3q18 0 25.5 9t7.5 30q0 11 -2.5 22t-6.5 22h94z" />
    <glyph glyph-name="scommaaccent" unicode="&#x219;" horiz-adv-x="437" 
d="M455 389q-20 5 -53.5 9.5t-65.5 4.5q-44 0 -69.5 -9t-25.5 -38q0 -15 14 -27.5t34.5 -26t44.5 -28.5t44.5 -33t34.5 -41t14 -52q0 -47 -18 -78t-48.5 -49t-70.5 -25.5t-84 -7.5q-51 0 -91.5 8t-66.5 17l22 94q12 -5 28.5 -9t36 -8t40 -6t38.5 -2q35 0 57 10.5t22 39.5
q0 16 -13.5 30t-33.5 28t-43.5 28.5t-43.5 32.5t-33.5 40t-13.5 51q0 46 19.5 75.5t52 47t75 24t89.5 6.5q38 0 72 -4t56 -8zM298 -46l-122 -142h-104l91 142h135z" />
    <glyph glyph-name="germandbls" unicode="&#xdf;" horiz-adv-x="526" 
d="M-75 -129q36 24 61 47t42 47t27.5 50.5t17.5 58.5l105 490q18 83 77 130t161 47q44 0 76.5 -10.5t54 -29t32 -42.5t10.5 -51q0 -50 -20.5 -85.5t-45 -62.5t-45 -49t-20.5 -45q0 -19 13.5 -41t29 -47.5t29 -56t13.5 -65.5q0 -46 -16 -78t-42 -51.5t-59.5 -28.5t-68.5 -9
q-56 0 -103 14l19 91q17 -5 38 -9t41 -4q25 0 45 12t20 51q0 25 -12.5 47.5t-28 46t-28 49t-12.5 55.5q0 40 20 70.5t43.5 58t43.5 56t20 64.5q0 27 -16 40t-44 13q-34 0 -59 -19.5t-34 -60.5l-105 -488q-20 -93 -73 -161t-157 -123l-50 79v0z" />
    <glyph glyph-name="longs" unicode="&#x17f;" horiz-adv-x="352" 
d="M185 484l17 81q20 89 82.5 132.5t150.5 43.5q47 0 85 -9l-20 -94q-18 3 -36.5 4.5t-34.5 1.5q-33 0 -58 -16t-35 -63l-106 -489q-10 -47 -27.5 -86.5t-45 -74t-66.5 -65.5t-93 -59l-49 79q36 24 61 47t42 48t27.5 51.5t17.5 58.5l67 315h-71l20 94h72z" />
    <glyph glyph-name="tcaron" unicode="&#x165;" horiz-adv-x="376" 
d="M534 665l-92 -140h-85l69 140h108zM347 621l-29 -137h127l-20 -94h-128l-55 -255q-1 -5 -1.5 -8t-0.5 -7q0 -18 12 -25t29 -7q20 0 42.5 4.5t39.5 9.5l-17 -98q-24 -8 -51.5 -12t-55.5 -4q-63 0 -97.5 29.5t-34.5 84.5q0 11 1 20.5t3 21.5l53 246h-73l21 94h72l55 137
h108z" />
    <glyph glyph-name="tcommaaccent" unicode="&#x163;" horiz-adv-x="376" 
d="M347 621l-29 -137h127l-20 -94h-128l-55 -255q-1 -5 -1.5 -8t-0.5 -7q0 -18 12 -25t29 -7q20 0 42.5 4.5t39.5 9.5l-17 -98q-24 -8 -51.5 -12t-55.5 -4q-63 0 -97.5 29.5t-34.5 84.5q0 11 1 20.5t3 21.5l53 246h-73l21 94h72l55 137h108zM276 -46l-122 -142h-104l91 142
h135z" />
    <glyph glyph-name="tbar" unicode="&#x167;" horiz-adv-x="410" 
d="M265 136q-1 -5 -1.5 -8t-0.5 -7q0 -18 12 -25t29 -7q20 0 42.5 4t39.5 9l-17 -98q-24 -8 -51.5 -11.5t-55.5 -3.5q-132 0 -132 122v6.5t1 6.5q0 4 1 8l15 71h-72l19 89h72l21 98h-73l21 94h72l55 137h108l-29 -137h127l-20 -94h-128l-21 -98h107l-20 -89h-106z" />
    <glyph glyph-name="ugrave" unicode="&#xf9;" horiz-adv-x="578" 
d="M295 484l-70 -319q-3 -14 -3 -27q0 -49 48 -49q32 0 59.5 14t48.5 34l76 347h133l-74 -340q-2 -8 -3 -15.5t-1 -12.5q0 -17 7.5 -22t21.5 -5q22 0 54 8l-17 -97q-20 -5 -38 -7.5t-44 -2.5q-32 0 -57 12t-35 40q-34 -26 -70.5 -39.5t-81.5 -13.5q-157 0 -157 139
q0 13 1 27.5t4 30.5l64 298h134zM402 730l44 -161h-96l-82 161h134z" />
    <glyph glyph-name="uacute" unicode="&#xfa;" horiz-adv-x="578" 
d="M295 484l-70 -319q-3 -14 -3 -27q0 -49 48 -49q32 0 59.5 14t48.5 34l76 347h133l-74 -340q-2 -8 -3 -15.5t-1 -12.5q0 -17 7.5 -22t21.5 -5q22 0 54 8l-17 -97q-20 -5 -38 -7.5t-44 -2.5q-32 0 -57 12t-35 40q-34 -26 -70.5 -39.5t-81.5 -13.5q-157 0 -157 139
q0 13 1 27.5t4 30.5l64 298h134zM582 730l-133 -161h-104l95 161h142z" />
    <glyph glyph-name="ucircumflex" unicode="&#xfb;" horiz-adv-x="578" 
d="M295 484l-70 -319q-3 -14 -3 -27q0 -49 48 -49q32 0 59.5 14t48.5 34l76 347h133l-74 -340q-2 -8 -3 -15.5t-1 -12.5q0 -17 7.5 -22t21.5 -5q22 0 54 8l-17 -97q-20 -5 -38 -7.5t-44 -2.5q-32 0 -57 12t-35 40q-34 -26 -70.5 -39.5t-81.5 -13.5q-157 0 -157 139
q0 13 1 27.5t4 30.5l64 298h134zM491 730l66 -161h-100l-33 91l-72 -91h-113l135 161h117z" />
    <glyph glyph-name="utilde" unicode="&#x169;" horiz-adv-x="578" 
d="M295 484l-70 -319q-3 -14 -3 -27q0 -49 48 -49q32 0 59.5 14t48.5 34l76 347h133l-74 -340q-2 -8 -3 -15.5t-1 -12.5q0 -17 7.5 -22t21.5 -5q22 0 54 8l-17 -97q-20 -5 -38 -7.5t-44 -2.5q-32 0 -57 12t-35 40q-34 -26 -70.5 -39.5t-81.5 -13.5q-157 0 -157 139
q0 13 1 27.5t4 30.5l64 298h134zM254 626q16 34 40.5 56.5t66.5 22.5q21 0 37 -5t29 -11.5t23.5 -11.5t19.5 -5q15 0 23.5 12t16.5 27l71 -37q-20 -38 -45 -61t-64 -23q-19 0 -35 5.5t-28.5 11.5t-23 11.5t-18.5 5.5q-17 0 -26 -10.5t-16 -24.5z" />
    <glyph glyph-name="udieresis" unicode="&#xfc;" horiz-adv-x="578" 
d="M295 484l-70 -319q-3 -14 -3 -27q0 -49 48 -49q32 0 59.5 14t48.5 34l76 347h133l-74 -340q-2 -8 -3 -15.5t-1 -12.5q0 -17 7.5 -22t21.5 -5q22 0 54 8l-17 -97q-20 -5 -38 -7.5t-44 -2.5q-32 0 -57 12t-35 40q-34 -26 -70.5 -39.5t-81.5 -13.5q-157 0 -157 139
q0 13 1 27.5t4 30.5l64 298h134zM393 656q-4 -29 -26 -45.5t-55 -16.5q-57 0 -57 42q0 32 23 51.5t58 19.5q57 0 57 -43v-8zM575 656q-4 -29 -26 -45.5t-56 -16.5q-56 0 -56 42q0 32 23 51.5t58 19.5q57 0 57 -43v-8z" />
    <glyph glyph-name="umacron" unicode="&#x16b;" horiz-adv-x="578" 
d="M295 484l-70 -319q-3 -14 -3 -27q0 -49 48 -49q32 0 59.5 14t48.5 34l76 347h133l-74 -340q-2 -8 -3 -15.5t-1 -12.5q0 -17 7.5 -22t21.5 -5q22 0 54 8l-17 -97q-20 -5 -38 -7.5t-44 -2.5q-32 0 -57 12t-35 40q-34 -26 -70.5 -39.5t-81.5 -13.5q-157 0 -157 139
q0 13 1 27.5t4 30.5l64 298h134zM562 688l-17 -78h-274l17 78h274z" />
    <glyph glyph-name="ubreve" unicode="&#x16d;" horiz-adv-x="578" 
d="M295 484l-70 -319q-3 -14 -3 -27q0 -49 48 -49q32 0 59.5 14t48.5 34l76 347h133l-74 -340q-2 -8 -3 -15.5t-1 -12.5q0 -17 7.5 -22t21.5 -5q22 0 54 8l-17 -97q-20 -5 -38 -7.5t-44 -2.5q-32 0 -57 12t-35 40q-34 -26 -70.5 -39.5t-81.5 -13.5q-157 0 -157 139
q0 13 1 27.5t4 30.5l64 298h134zM377 718q-1 -5 -1.5 -9t-0.5 -8q0 -43 44 -43q54 0 69 60h97q-19 -75 -64.5 -106.5t-111.5 -31.5q-59 0 -95 25t-36 82q0 14 3 31h96z" />
    <glyph glyph-name="uring" unicode="&#x16f;" horiz-adv-x="578" 
d="M295 484l-70 -319q-3 -14 -3 -27q0 -49 48 -49q32 0 59.5 14t48.5 34l76 347h133l-74 -340q-2 -8 -3 -15.5t-1 -12.5q0 -17 7.5 -22t21.5 -5q22 0 54 8l-17 -97q-20 -5 -38 -7.5t-44 -2.5q-32 0 -57 12t-35 40q-34 -26 -70.5 -39.5t-81.5 -13.5q-157 0 -157 139
q0 13 1 27.5t4 30.5l64 298h134zM408 613q19 1 31 11.5t12 33.5q0 25 -27 25q-20 0 -31.5 -10.5t-11.5 -33.5q0 -13 6 -19.5t21 -6.5zM397 559q-45 0 -71 18t-26 52q0 29 10.5 49.5t29 34t43 19.5t51.5 6q45 0 71 -18t26 -52q0 -29 -10.5 -49.5t-29 -34t-43 -19.5t-51.5 -6z
" />
    <glyph glyph-name="uhungarumlaut" unicode="&#x171;" horiz-adv-x="578" 
d="M295 484l-70 -319q-3 -14 -3 -27q0 -49 48 -49q32 0 59.5 14t48.5 34l76 347h133l-74 -340q-2 -8 -3 -15.5t-1 -12.5q0 -17 7.5 -22t21.5 -5q22 0 54 8l-17 -97q-20 -5 -38 -7.5t-44 -2.5q-32 0 -57 12t-35 40q-34 -26 -70.5 -39.5t-81.5 -13.5q-157 0 -157 139
q0 13 1 27.5t4 30.5l64 298h134zM626 730l-119 -161h-91l84 161h126zM450 730l-86 -161h-89l64 161h111z" />
    <glyph glyph-name="uogonek" unicode="&#x173;" horiz-adv-x="578" 
d="M295 484l-70 -319q-3 -14 -3 -27q0 -49 48 -49q32 0 59.5 14t48.5 34l76 347h133l-74 -340q-2 -8 -3 -15.5t-1 -12.5q0 -17 7.5 -22t21.5 -5q22 0 54 8l-17 -97q-11 -2 -21.5 -4t-21.5 -4q-21 -17 -40 -38.5t-19 -41.5q0 -11 7.5 -15t18.5 -4q9 0 23 2.5t29 7.5l-14 -78
q-31 -13 -72 -13q-43 0 -69 18.5t-26 53.5q0 42 23.5 69.5t51.5 44.5q-34 13 -44 44q-34 -26 -70.5 -39.5t-81.5 -13.5q-157 0 -157 139q0 13 1 27.5t4 30.5l64 298h134z" />
    <glyph glyph-name="wgrave" unicode="&#x1e81;" horiz-adv-x="829" 
d="M534 730l44 -161h-96l-82 161h134zM507 0l-24 340l-169 -340h-164l-40 484h130l19 -355l176 355h149l23 -358q45 74 86.5 161.5t79.5 196.5h126q-44 -128 -101.5 -247.5t-138.5 -236.5h-152z" />
    <glyph glyph-name="wacute" unicode="&#x1e83;" horiz-adv-x="829" 
d="M712 730l-133 -161h-104l95 161h142zM507 0l-24 340l-169 -340h-164l-40 484h130l19 -355l176 355h149l23 -358q45 74 86.5 161.5t79.5 196.5h126q-44 -128 -101.5 -247.5t-138.5 -236.5h-152z" />
    <glyph glyph-name="wcircumflex" unicode="&#x175;" horiz-adv-x="829" 
d="M621 730l66 -161h-100l-33 91l-72 -91h-113l135 161h117zM507 0l-24 340l-169 -340h-164l-40 484h130l19 -355l176 355h149l23 -358q45 74 86.5 161.5t79.5 196.5h126q-44 -128 -101.5 -247.5t-138.5 -236.5h-152z" />
    <glyph glyph-name="wdieresis" unicode="&#x1e85;" horiz-adv-x="829" 
d="M530 656q-4 -29 -26 -45.5t-55 -16.5q-57 0 -57 42q0 32 23 51.5t58 19.5q57 0 57 -43v-8zM712 656q-4 -29 -26 -45.5t-56 -16.5q-56 0 -56 42q0 32 23 51.5t58 19.5q57 0 57 -43v-8zM507 0l-24 340l-169 -340h-164l-40 484h130l19 -355l176 355h149l23 -358
q45 74 86.5 161.5t79.5 196.5h126q-44 -128 -101.5 -247.5t-138.5 -236.5h-152z" />
    <glyph glyph-name="ygrave" unicode="&#x1ef3;" horiz-adv-x="555" 
d="M586 484l-105 -484q-13 -59 -37 -97t-58.5 -61t-77.5 -32t-94 -9q-45 0 -89.5 7.5t-70.5 17.5l22 96q29 -10 68.5 -18t79.5 -8q51 0 80.5 20t40.5 74l8 38q-21 -12 -47 -20t-55 -8q-73 0 -116 33t-43 105q0 14 1.5 29.5t5.5 32.5l61 284h133l-66 -307q-3 -17 -3 -28
q0 -51 52 -51q26 0 53.5 13t47.5 31l75 342h134zM391 730l44 -161h-96l-82 161h134z" />
    <glyph glyph-name="yacute" unicode="&#xfd;" horiz-adv-x="555" 
d="M586 484l-105 -484q-13 -59 -37 -97t-58.5 -61t-77.5 -32t-94 -9q-45 0 -89.5 7.5t-70.5 17.5l22 96q29 -10 68.5 -18t79.5 -8q51 0 80.5 20t40.5 74l8 38q-21 -12 -47 -20t-55 -8q-73 0 -116 33t-43 105q0 14 1.5 29.5t5.5 32.5l61 284h133l-66 -307q-3 -17 -3 -28
q0 -51 52 -51q26 0 53.5 13t47.5 31l75 342h134zM573 730l-133 -161h-104l95 161h142z" />
    <glyph glyph-name="ycircumflex" unicode="&#x177;" horiz-adv-x="555" 
d="M586 484l-105 -484q-13 -59 -37 -97t-58.5 -61t-77.5 -32t-94 -9q-45 0 -89.5 7.5t-70.5 17.5l22 96q29 -10 68.5 -18t79.5 -8q51 0 80.5 20t40.5 74l8 38q-21 -12 -47 -20t-55 -8q-73 0 -116 33t-43 105q0 14 1.5 29.5t5.5 32.5l61 284h133l-66 -307q-3 -17 -3 -28
q0 -51 52 -51q26 0 53.5 13t47.5 31l75 342h134zM477 730l66 -161h-100l-33 91l-72 -91h-113l135 161h117z" />
    <glyph glyph-name="ydieresis" unicode="&#xff;" horiz-adv-x="555" 
d="M586 484l-105 -484q-13 -59 -37 -97t-58.5 -61t-77.5 -32t-94 -9q-45 0 -89.5 7.5t-70.5 17.5l22 96q29 -10 68.5 -18t79.5 -8q51 0 80.5 20t40.5 74l8 38q-21 -12 -47 -20t-55 -8q-73 0 -116 33t-43 105q0 14 1.5 29.5t5.5 32.5l61 284h133l-66 -307q-3 -17 -3 -28
q0 -51 52 -51q26 0 53.5 13t47.5 31l75 342h134zM387 656q-4 -29 -26 -45.5t-55 -16.5q-57 0 -57 42q0 32 23 51.5t58 19.5q57 0 57 -43v-8zM569 656q-4 -29 -26 -45.5t-56 -16.5q-56 0 -56 42q0 32 23 51.5t58 19.5q57 0 57 -43v-8z" />
    <glyph glyph-name="zacute" unicode="&#x17a;" horiz-adv-x="465" 
d="M510 484v-82l-297 -308h240l-19 -94h-392v82l301 308h-225l20 94h372zM522 730l-133 -161h-104l95 161h142z" />
    <glyph glyph-name="zcaron" unicode="&#x17e;" horiz-adv-x="465" 
d="M510 484v-82l-297 -308h240l-19 -94h-392v82l301 308h-225l20 94h372zM291 569l-65 161h99l34 -92l72 92h113l-135 -161h-118z" />
    <glyph glyph-name="zdotaccent" unicode="&#x17c;" horiz-adv-x="465" 
d="M510 484v-82l-297 -308h240l-19 -94h-392v82l301 308h-225l20 94h372zM359 592q-59 0 -59 43q0 34 24 54t61 20q60 0 60 -47q0 -33 -25.5 -51.5t-60.5 -18.5z" />
    <glyph glyph-name="eng" unicode="&#x14b;" horiz-adv-x="557" 
d="M161 457q20 6 45.5 12.5t55 12.5t60.5 9.5t62 3.5q41 0 74.5 -7t57.5 -23t37.5 -40.5t13.5 -59.5q0 -12 -1.5 -22t-4.5 -24l-53 -243q-11 -48 -27.5 -87t-43.5 -73t-66 -64t-95 -61l-50 79q39 26 64.5 49t41.5 47t25.5 50.5t16.5 58.5l52 239q3 16 3 29q0 31 -18 43.5
t-50 12.5q-20 0 -43.5 -3t-37.5 -8l-84 -388h-133l98 457v0z" />
    <glyph glyph-name="eth" unicode="&#xf0;" horiz-adv-x="530" 
d="M489 730q11 -17 21.5 -36.5t18.5 -36.5l118 21l-16 -76q-20 -4 -38.5 -7.5t-37.5 -6.5q7 -37 11.5 -76t4.5 -80q0 -94 -17 -175t-54 -140.5t-95 -93.5t-139 -34q-91 0 -140.5 41t-49.5 129q0 78 20.5 140t58 105.5t90 67t117.5 23.5q35 0 59 -10t36 -26q-2 25 -6.5 55.5
t-12.5 50.5l-183 -33l17 77l144 27q-12 23 -23.5 44.5t-28.5 49.5h125zM350 399q-29 0 -54 -16t-43.5 -46.5t-29 -74.5t-10.5 -99q0 -44 17 -61t52 -17q52 0 82.5 42.5t46.5 120.5q4 21 6 39.5t2 33.5q0 44 -17 61t-52 17z" />
    <glyph glyph-name="thorn" unicode="&#xfe;" horiz-adv-x="545" 
d="M357 730l-53 -243q21 4 41.5 6t39.5 2q88 0 135.5 -39t47.5 -126q0 -20 -1.5 -41.5t-6.5 -43.5q-13 -66 -38 -114.5t-60 -80t-79 -46.5t-94 -15q-23 0 -46.5 3.5t-43.5 7.5l-40 -188h-133l197 918h134zM220 95q19 -5 37 -7.5t38 -2.5q22 0 41 7.5t34.5 26t28.5 50
t24 79.5q9 45 9 75q0 45 -17.5 60.5t-50.5 15.5q-19 0 -43 -3.5t-38 -7.5z" />
    <glyph glyph-name="ampersand" unicode="&#x26;" horiz-adv-x="630" 
d="M288 285q-44 -25 -71 -54t-27 -80q0 -35 22 -50t59 -15q29 0 59 12.5t55 32.5zM483 224q18 19 36 50t32 65l97 -39q-18 -47 -48 -92.5t-64 -77.5l82 -130h-156l-29 48q-39 -28 -85.5 -44t-103.5 -16q-90 0 -141 39t-51 108q0 47 13.5 82t37.5 62t56.5 48.5t69.5 42.5
q-17 27 -32 60.5t-15 68.5q0 43 16 76t44.5 55.5t68 34t86.5 11.5q77 0 123 -31t46 -91q0 -35 -12 -64t-33 -54t-50 -46.5t-63 -40.5zM348 426q37 24 63 51t26 68q0 23 -15.5 33t-37.5 10q-27 0 -49.5 -16.5t-22.5 -57.5q0 -25 11.5 -45.5t24.5 -42.5z" />
    <glyph glyph-name="grave" unicode="`" horiz-adv-x="522" 
d="M419 730l44 -161h-96l-82 161h134z" />
    <glyph glyph-name="acute" unicode="&#xb4;" horiz-adv-x="522" 
d="M559 730l-133 -161h-104l95 161h142z" />
    <glyph glyph-name="circumflex" unicode="&#x2c6;" horiz-adv-x="522" 
d="M491 730l66 -161h-100l-33 91l-72 -91h-113l135 161h117z" />
    <glyph glyph-name="caron" unicode="&#x2c7;" horiz-adv-x="522" 
d="M339 569l-65 161h99l34 -92l72 92h113l-135 -161h-118z" />
    <glyph glyph-name="tilde" unicode="&#x2dc;" horiz-adv-x="522" 
d="M252 626q16 34 40.5 56.5t66.5 22.5q21 0 37 -5t29 -11.5t23.5 -11.5t19.5 -5q15 0 23.5 12t16.5 27l71 -37q-20 -38 -45 -61t-64 -23q-19 0 -35 5.5t-28.5 11.5t-23 11.5t-18.5 5.5q-17 0 -26 -10.5t-16 -24.5z" />
    <glyph glyph-name="dieresis" unicode="&#xa8;" horiz-adv-x="522" 
d="M576 664q0 -35 -24 -52.5t-57 -17.5q-57 0 -57 42q0 32 23 51.5t58 19.5q57 0 57 -43zM394 664q0 -35 -24 -52.5t-57 -17.5q-57 0 -57 42q0 32 23 51.5t58 19.5q57 0 57 -43z" />
    <glyph glyph-name="macron" unicode="&#xaf;" horiz-adv-x="522" 
d="M562 688l-17 -78h-274l17 78h274z" />
    <glyph glyph-name="breve" unicode="&#x2d8;" horiz-adv-x="522" 
d="M375 718q-1 -5 -1.5 -9t-0.5 -8q0 -43 44 -43q54 0 69 60h97q-19 -75 -64.5 -106.5t-111.5 -31.5q-59 0 -95 25t-36 82q0 14 3 31h96z" />
    <glyph glyph-name="ring" unicode="&#x2da;" horiz-adv-x="522" 
d="M408 613q19 1 31 11.5t12 33.5q0 25 -27 25q-20 0 -31.5 -10.5t-11.5 -33.5q0 -13 6 -19.5t21 -6.5zM397 559q-45 0 -71 18t-26 52q0 29 10.5 49.5t29 34t43 19.5t51.5 6q45 0 71 -18t26 -52q0 -29 -10.5 -49.5t-29 -34t-43 -19.5t-51.5 -6z" />
    <glyph glyph-name="hungarumlaut" unicode="&#x2dd;" horiz-adv-x="522" 
d="M620 730l-119 -161h-91l84 161h126zM444 730l-86 -161h-89l64 161h111z" />
    <glyph glyph-name="dotaccent" unicode="&#x2d9;" horiz-adv-x="522" 
d="M403 592q-59 0 -59 43q0 34 24 54t61 20q60 0 60 -47q0 -33 -25.5 -51.5t-60.5 -18.5z" />
    <glyph glyph-name="cedilla" unicode="&#xb8;" horiz-adv-x="522" 
d="M314 -39q15 -29 15 -59q0 -48 -32 -75t-89 -27q-25 0 -44 4t-34 10l18 75q14 -5 27 -8t21 -3q18 0 25.5 9t7.5 30q0 11 -2.5 22t-6.5 22h94z" />
    <glyph glyph-name="ogonek" unicode="&#x2db;" horiz-adv-x="522" 
d="M313 0q-11 -8 -23.5 -19t-23 -22.5t-17 -23.5t-6.5 -23t7.5 -15t18.5 -4q9 0 23 2.5t29 7.5l-14 -78q-31 -13 -72 -13q-43 0 -69 18.5t-26 53.5q0 22 7 39.5t18 32t25.5 25.5t28.5 19h94z" />
    <glyph glyph-name="comma" unicode="," horiz-adv-x="261" 
d="M241 127l-151 -260h-99l115 260h135z" />
    <glyph glyph-name="semicolon" unicode=";" horiz-adv-x="261" 
d="M223 127l-151 -260h-99l115 260h135zM225 495q32 0 50.5 -14.5t18.5 -40.5q0 -42 -28.5 -64.5t-70.5 -22.5q-32 0 -50.5 15t-18.5 41q0 42 29.5 64t69.5 22z" />
    <glyph glyph-name="colon" unicode=":" horiz-adv-x="261" 
d="M150 131q32 0 50.5 -14.5t18.5 -40.5q0 -42 -28.5 -64.5t-70.5 -22.5q-32 0 -50.5 15t-18.5 41q0 42 29.5 64t69.5 22zM226 495q32 0 50.5 -14.5t18.5 -40.5q0 -42 -28.5 -64.5t-70.5 -22.5q-32 0 -50.5 15t-18.5 41q0 42 29.5 64t69.5 22z" />
    <glyph glyph-name="period" unicode="." horiz-adv-x="261" 
d="M150 131q32 0 50.5 -14.5t18.5 -40.5q0 -42 -28.5 -64.5t-70.5 -22.5q-32 0 -50.5 15t-18.5 41q0 42 29.5 64t69.5 22z" />
    <glyph glyph-name="ellipsis" unicode="&#x2026;" horiz-adv-x="792" 
d="M150 131q32 0 51 -13.5t19 -39.5q0 -42 -29 -65.5t-71 -23.5q-32 0 -50.5 14t-18.5 40q0 42 29.5 65t69.5 23zM415 131q32 0 51.5 -13.5t19.5 -39.5q0 -42 -29.5 -65.5t-71.5 -23.5q-32 0 -50.5 14.5t-18.5 40.5q0 41 30 64t69 23zM681 131q32 0 51 -13.5t19 -39.5
q0 -42 -29.5 -65.5t-70.5 -23.5q-32 0 -50.5 14t-18.5 40q0 42 29.5 65t69.5 23z" />
    <glyph glyph-name="hyphen" unicode="-" horiz-adv-x="377" 
d="M387 318l-20 -95h-270l20 95h270z" />
    <glyph glyph-name="exclam" unicode="!" horiz-adv-x="287" 
d="M350 665l-124 -484h-105l84 484h145zM159 121q30 0 47 -13t17 -37q0 -40 -27 -61t-65 -21q-30 0 -47 13t-17 37q0 40 27 61t65 21z" />
    <glyph glyph-name="exclamdown" unicode="&#xa1;" horiz-adv-x="287" 
d="M23 -188l122 484h105l-84 -484h-143zM147 412q0 38 27 60.5t66 22.5q30 0 47 -12.5t17 -36.5q0 -40 -27.5 -61.5t-65.5 -21.5q-30 0 -47 13t-17 36z" />
    <glyph glyph-name="question" unicode="?" horiz-adv-x="422" 
d="M160 649q29 11 70 19t88 8q39 0 72.5 -7.5t58 -23.5t38 -40.5t13.5 -59.5q0 -41 -13.5 -71.5t-34.5 -55t-46 -44.5t-48 -41t-41 -44t-24 -53l-12 -55h-113l14 63q10 44 27 75.5t37.5 55t41.5 41.5t37.5 35t27.5 35t11 42q0 27 -18.5 37.5t-50.5 10.5q-33 0 -71.5 -7.5
t-64.5 -18.5zM212 121q30 0 47 -13t17 -37q0 -40 -27 -61t-65 -21q-30 0 -47 13t-17 37q0 40 27 61t65 21z" />
    <glyph glyph-name="questiondown" unicode="&#xbf;" horiz-adv-x="422" 
d="M346 -165q-29 -11 -70 -19t-88 -8q-39 0 -72.5 7.5t-58 23.5t-38 40.5t-13.5 59.5q0 41 13.5 71.5t34.5 55t46 44.5t48 41t40.5 44t24.5 53l12 55h113l-14 -63q-10 -44 -27 -75.5t-37.5 -55t-41.5 -41.5t-37.5 -35t-27.5 -35t-11 -42q0 -27 18.5 -37.5t50.5 -10.5
q33 0 71.5 7.5t64.5 18.5zM294 363q-30 0 -47 13t-17 37q0 40 27 61t65 21q30 0 47 -13t17 -37q0 -40 -27 -61t-65 -21z" />
    <glyph glyph-name="quoteleft" unicode="&#x2018;" horiz-adv-x="250" 
d="M102 452l120 213h100l-93 -213h-127z" />
    <glyph glyph-name="quoteright" unicode="&#x2019;" horiz-adv-x="250" 
d="M351 665l-120 -213h-100l93 213h127z" />
    <glyph glyph-name="quotedblleft" unicode="&#x201c;" horiz-adv-x="460" 
d="M329 452l98 213h98l-73 -213h-123zM125 452l130 213h98l-103 -213h-125z" />
    <glyph glyph-name="quotedblright" unicode="&#x201d;" horiz-adv-x="460" 
d="M346 665l-98 -213h-98l73 213h123zM550 665l-130 -213h-98l103 213h125z" />
    <glyph glyph-name="quotesinglbase" unicode="&#x201a;" horiz-adv-x="250" 
d="M208 53l-120 -213h-100l93 213h127z" />
    <glyph glyph-name="quotedblbase" unicode="&#x201e;" horiz-adv-x="440" 
d="M209 53l-101 -213h-95l73 213h123zM412 53l-132 -213h-96l104 213h124z" />
    <glyph glyph-name="guilsinglleft" unicode="&#x2039;" horiz-adv-x="344" 
d="M400 452l-162 -181l81 -181h-102l-120 180l181 182h122z" />
    <glyph glyph-name="guilsinglright" unicode="&#x203a;" horiz-adv-x="344" 
d="M33 90l162 181l-81 181h102l120 -180l-181 -182h-122z" />
    <glyph glyph-name="guillemotleft" unicode="&#xab;" horiz-adv-x="567" 
d="M398 452l-166 -181l88 -181h-106l-122 180l184 182h122zM620 452l-140 -181l63 -181h-112l-92 181l161 181h120z" />
    <glyph glyph-name="guillemotright" unicode="&#xbb;" horiz-adv-x="567" 
d="M55 90l140 181l-63 181h111l93 -181l-161 -181h-120zM277 90l166 181l-89 181h106l123 -181l-185 -181h-121z" />
    <glyph glyph-name="slash" unicode="/" horiz-adv-x="455" 
d="M595 730l-500 -783h-106l498 783h108z" />
    <glyph glyph-name="bar" unicode="|" horiz-adv-x="280" 
d="M216 800v-1000h-107v1000h107z" />
    <glyph glyph-name="endash" unicode="&#x2013;" horiz-adv-x="567" 
d="M578 315l-20 -89h-461l20 89h461z" />
    <glyph glyph-name="emdash" unicode="&#x2014;" horiz-adv-x="767" 
d="M778 315l-20 -89h-661l20 89h661z" />
    <glyph glyph-name="bullet" unicode="&#x2022;" horiz-adv-x="366" 
d="M261 386q48 0 76 -21t28 -63q0 -36 -13 -63.5t-34 -46t-48.5 -28t-57.5 -9.5q-47 0 -75.5 21.5t-28.5 63.5q0 37 13 64.5t35 45.5t49 27t56 9z" />
    <glyph glyph-name="periodcentered" unicode="&#xb7;" horiz-adv-x="261" 
d="M169 339q32 0 50.5 -14.5t18.5 -40.5q0 -42 -28.5 -64.5t-70.5 -22.5q-32 0 -50.5 15t-18.5 41q0 42 29.5 64t69.5 22z" />
    <glyph glyph-name="parenleft" unicode="(" horiz-adv-x="335" 
d="M85 133q0 172 67 321.5t198 275.5h113q-57 -62 -106 -126.5t-85 -137t-56.5 -156t-20.5 -183.5q0 -86 19.5 -165.5t51.5 -149.5h-102q-38 66 -58.5 151.5t-20.5 169.5z" />
    <glyph glyph-name="parenright" unicode=")" horiz-adv-x="335" 
d="M321 409q0 -172 -67 -321.5t-198 -275.5h-113q57 62 106 126.5t85 137t56.5 156t20.5 183.5q0 86 -19.5 165.5t-51.5 149.5h102q19 -33 33.5 -71.5t24.5 -80t15.5 -84.5t5.5 -85z" />
    <glyph glyph-name="bracketleft" unicode="[" horiz-adv-x="330" 
d="M458 731l-18 -85h-106l-161 -749h105l-18 -85h-215l198 919h215z" />
    <glyph glyph-name="bracketright" unicode="]" horiz-adv-x="330" 
d="M-40 -188l18 85h106l161 749h-105l18 85h215l-198 -919h-215z" />
    <glyph glyph-name="braceleft" unicode="{" horiz-adv-x="376" 
d="M476 642q-11 3 -28.5 5.5t-30.5 2.5q-38 0 -56 -18t-24 -52q-5 -27 -10 -57t-10 -59t-9.5 -54.5t-8.5 -42.5q-10 -42 -32 -64t-69 -32q26 -7 46.5 -24t20.5 -52q0 -26 -10 -61.5t-22.5 -72t-22.5 -69.5t-10 -55q0 -24 13.5 -34.5t39.5 -10.5q13 0 30.5 2t31.5 6l-19 -91
q-20 -5 -33 -6.5t-31 -1.5q-68 0 -106.5 30.5t-38.5 89.5q0 27 10.5 64.5t22.5 75t22.5 70.5t10.5 51q0 27 -18.5 34t-56.5 9l21 97q42 2 63.5 11t30.5 39q4 15 8.5 40t8.5 54t8 59.5t9 57.5q15 83 63 120t130 37q20 0 40.5 -2.5t34.5 -6.5z" />
    <glyph glyph-name="braceright" unicode="}" horiz-adv-x="376" 
d="M-24 -100q11 -3 28.5 -5.5t30.5 -2.5q38 0 56 18t24 52q5 27 10 57t10 59t9.5 54.5t8.5 42.5q10 42 32 64t69 32q-26 7 -46.5 24t-20.5 52q0 26 10 61.5t22.5 72t22.5 69.5t10 55q0 24 -13.5 34.5t-39.5 10.5q-13 0 -30.5 -2t-31.5 -6l19 91q20 5 33 6.5t31 1.5
q68 0 106.5 -30.5t38.5 -89.5q0 -27 -10.5 -64.5t-22.5 -75t-22.5 -70.5t-10.5 -51q0 -27 18.5 -34t56.5 -9l-21 -97q-42 -2 -63.5 -11t-30.5 -39q-5 -15 -9 -40t-8 -54t-8 -59.5t-9 -57.5q-15 -83 -63 -120t-130 -37q-20 0 -40.5 2.5t-34.5 6.5z" />
    <glyph glyph-name="asterisk" unicode="*" horiz-adv-x="412" 
d="M274 552l9 113h108l-42 -113l132 49l12 -85l-134 -25l72 -84l-83 -63l-52 101l-92 -101l-67 64l108 83l-123 26l44 83z" />
    <glyph glyph-name="dagger" unicode="&#x2020;" horiz-adv-x="435" 
d="M399 665l-36 -166h133l-19 -88h-132l-57 -263h-115l57 263h-131l19 88h130l36 166h115z" />
    <glyph glyph-name="daggerdbl" unicode="&#x2021;" horiz-adv-x="435" 
d="M399 665l-28 -129h132l-19 -88h-132l-17 -80h132l-19 -89h-132l-28 -131h-115l28 131h-131l19 89h131l17 80h-131l19 88h131l28 129h115z" />
    <glyph glyph-name="section" unicode="&#xa7;" horiz-adv-x="545" 
d="M110 244q1 50 27.5 90.5t74.5 66.5q-30 36 -30 82q0 56 22.5 93.5t61 59.5t88 31t103.5 9q38 0 75 -4.5t69 -11.5l-21 -93q-33 7 -71 11.5t-70 4.5q-23 0 -45.5 -4t-39.5 -12.5t-27.5 -23t-10.5 -35.5q0 -20 17.5 -37.5t43.5 -35t56 -36.5t56 -42.5t43.5 -53t17.5 -67.5
q0 -34 -9.5 -60.5t-25.5 -47t-37 -35t-43 -23.5q17 -32 17 -70v-8q-4 -54 -26 -90.5t-57 -59t-81 -32t-99 -9.5q-59 0 -102 10.5t-72 21.5l28 96q31 -11 73 -21.5t89 -10.5q20 0 40 4t36 13t26 24t10 38q0 22 -15.5 41t-38.5 37t-49.5 37t-49.5 41.5t-38.5 49.5t-15.5 62z
M288 339q-20 -7 -36.5 -25.5t-16.5 -44.5q0 -18 14.5 -34.5t35.5 -32t45.5 -31t44.5 -31.5q18 8 33 27t15 45q0 19 -13 36t-33 32t-44 29.5t-45 29.5z" />
    <glyph glyph-name="paragraph" unicode="&#xb6;" horiz-adv-x="658" 
d="M367 -158h-91l83 384h-52q-101 0 -151 32t-50 110q0 35 9 80q15 72 41 115.5t68 66t102.5 29.5t143.5 7q18 0 36 -0.5t38 -0.5zM705 665l-178 -823h-91l177 823h92z" />
    <glyph glyph-name="asciicircum" unicode="^" 
d="M383 561l-148 -200h-112l232 304h94l100 -304h-102z" />
    <glyph glyph-name="asciitilde" unicode="~" 
d="M73 280q20 49 55.5 77.5t96.5 28.5q27 0 54.5 -7.5t54 -17t51 -17t46.5 -7.5t34.5 12t26.5 41l76 -35q-21 -51 -56 -78t-98 -27q-26 0 -52 8t-51 17t-47 17t-40 8q-23 0 -41 -11t-32 -43z" />
    <glyph glyph-name="brokenbar" unicode="&#xa6;" horiz-adv-x="280" 
d="M216 800v-401h-107v401h107zM216 201v-401h-107v401h107z" />
    <glyph glyph-name="backslash" unicode="\" horiz-adv-x="455" 
d="M200 730l278 -783h-108l-279 783h109z" />
    <glyph glyph-name="underscore" unicode="_" horiz-adv-x="655" 
d="M651 -12l-17 -81h-661l17 81h661z" />
    <glyph glyph-name="quotesingle" unicode="'" horiz-adv-x="251" 
d="M303 665l-68 -213h-91l23 213h136z" />
    <glyph glyph-name="quotedbl" unicode="&#x22;" horiz-adv-x="447" 
d="M303 665l-68 -213h-91l23 213h136zM499 665l-68 -213h-91l23 213h136z" />
    <glyph glyph-name="at" unicode="@" horiz-adv-x="858" 
d="M613 177q-4 -17 -4 -34q0 -20 8 -29.5t32 -9.5q33 0 56.5 29.5t38.5 70.5t22 84.5t7 72.5q0 90 -55.5 139.5t-182.5 49.5q-96 0 -167 -37t-117.5 -99.5t-69 -143.5t-22.5 -169q0 -50 13 -88t42 -63.5t75.5 -39t112.5 -13.5q60 0 121.5 12t118.5 32l3 -79
q-57 -21 -124.5 -33.5t-136.5 -12.5q-85 0 -145.5 20t-99 57t-56.5 88.5t-18 113.5q0 104 29 200t88.5 170t149.5 118.5t213 44.5q87 0 148.5 -20t100.5 -55.5t56.5 -83.5t17.5 -103q0 -52 -13.5 -113t-42 -113t-74 -87t-108.5 -35q-48 0 -74 14.5t-36 34.5
q-23 -17 -55.5 -32t-72.5 -15q-62 0 -89 37t-27 93q0 69 18 120t49.5 85t73.5 51t89 17q40 0 81.5 -7.5t73.5 -19.5zM533 337q-8 2 -18 3t-21 1q-23 0 -42 -14.5t-32.5 -39.5t-20.5 -57t-7 -68q0 -32 10.5 -42.5t27.5 -10.5t31.5 7.5t27.5 18.5z" />
    <glyph glyph-name="copyright" unicode="&#xa9;" horiz-adv-x="711" 
d="M550 433q-18 6 -40 10t-45 4q-48 0 -78.5 -43.5t-30.5 -128.5q0 -35 16 -47t45 -12q20 0 45 5t48 13l-9 -79q-22 -8 -49 -12.5t-56 -4.5q-70 0 -109.5 31.5t-39.5 101.5q0 61 17 108.5t47 79t71 48t89 16.5q29 0 53.5 -4t41.5 -11zM479 676q134 0 201 -64t67 -183
q0 -99 -28 -180.5t-80 -139t-124.5 -89.5t-162.5 -32q-133 0 -201 62t-68 180q0 100 28 182.5t80 141t125 90.5t163 32zM473 613q-73 0 -132.5 -25t-101.5 -73t-65 -117t-23 -157q0 -96 48 -143.5t157 -47.5q73 0 132.5 25.5t101.5 73.5t65 116.5t23 155.5q0 97 -48 144.5
t-157 47.5z" />
    <glyph glyph-name="registered" unicode="&#xae;" horiz-adv-x="611" 
d="M389 676q118 0 181 -51.5t63 -150.5q0 -69 -23.5 -127.5t-65.5 -100.5t-101 -66t-131 -24q-118 0 -181 50.5t-63 147.5q0 70 23 129t65 102t101.5 67t131.5 24zM311 209q57 0 103 17.5t78.5 51t50 82t17.5 110.5q0 79 -38.5 116t-132.5 37q-57 0 -103 -17.5t-78 -51
t-49.5 -82t-17.5 -110.5q0 -80 38 -116.5t132 -36.5zM328 442q4 -1 14 -1.5t13 -0.5q17 0 31 8t14 38q0 14 -7 19t-23 5h-28zM380 566q50 0 79 -17t29 -53q0 -40 -20 -58t-47 -28q17 -9 24 -23t9 -30l9 -74h-89l-7 63q-3 24 -17.5 30t-34.5 6l-22 -99h-85l62 283h110z" />
    <glyph glyph-name="trademark" unicode="&#x2122;" horiz-adv-x="791" 
d="M438 665l-15 -66h-93l-50 -233h-100l50 233h-94l14 66h288zM652 429h-78l-33 116l-39 -179h-89l65 299h102l46 -152l107 152h118l-65 -299h-88l40 182z" />
    <glyph glyph-name="Euro" unicode="&#x20ac;" 
d="M288 208q-1 -7 -1.5 -14t-0.5 -13q0 -49 23 -71t68 -22q32 0 70 6.5t79 17.5l-7 -98q-40 -14 -86 -20t-94 -6q-53 0 -90.5 16.5t-60.5 46t-33.5 70t-10.5 87.5h-86l15 71h77q2 18 6.5 39.5t9.5 43.5h-74l15 71h82q38 116 111 179.5t188 63.5q54 0 89 -5.5t67 -13.5
l-24 -104q-26 8 -54.5 14t-57.5 6q-34 0 -61 -5.5t-48.5 -21t-38 -43t-29.5 -70.5h226l-30 -71h-216q-6 -20 -10 -41.5t-7 -41.5h201l-30 -71h-177z" />
    <glyph glyph-name="dollar" unicode="$" 
d="M248 12q-54 2 -94.5 10.5t-71.5 19.5l23 102q30 -11 78.5 -21.5t102.5 -10.5q21 0 41.5 2.5t36.5 10t26 21t10 34.5q0 24 -18 45.5t-45 42.5t-58 43t-58 46.5t-45 53t-18 63.5q0 49 18 80.5t48 50.5t68 28t77 14l18 83h91l-18 -79q38 -1 73.5 -5.5t64.5 -10.5l-21 -99
q-17 4 -37.5 7t-42 5t-42 3.5t-37.5 1.5q-24 0 -46.5 -2t-40 -8t-28 -18t-10.5 -33t18 -40t45 -38.5t58.5 -41.5t58.5 -48t45 -57t18 -70q0 -46 -16 -78t-43 -52.5t-62.5 -32t-74.5 -17.5l-22 -102h-91z" />
    <glyph glyph-name="cent" unicode="&#xa2;" 
d="M579 491q-23 7 -62.5 12.5t-75.5 5.5q-31 0 -57 -7.5t-47 -27t-37.5 -54t-28.5 -87.5q-10 -46 -10 -80q0 -31 8 -50.5t22.5 -30.5t35.5 -15t48 -4q32 0 71.5 7t69.5 15l-14 -99q-32 -10 -69.5 -16t-76.5 -7l-29 -138h-91l31 145q-66 14 -101 56.5t-35 123.5
q0 85 21 148.5t55.5 107.5t79.5 69.5t93 34.5l28 130h90l-27 -121q37 -1 71.5 -6.5t58.5 -10.5z" />
    <glyph glyph-name="sterling" unicode="&#xa3;" 
d="M332 303q-8 -41 -17 -73t-22 -57.5t-31 -44t-43 -30.5h313l-21 -98h-465v80q36 22 60 43.5t40.5 47t27.5 57.5t20 75h-99l13 84h103l21 96q12 57 38 94.5t61 59t77.5 30.5t87.5 9t82 -5.5t61 -10.5l-22 -100q-27 6 -57.5 11t-62.5 5q-21 0 -41.5 -4.5t-37.5 -14.5
t-29.5 -26.5t-17.5 -41.5l-22 -102h210l-18 -84h-209z" />
    <glyph glyph-name="florin" unicode="&#x192;" 
d="M241 388l20 93q12 54 36 91.5t57.5 60.5t74.5 33t86 10q39 0 72 -4t61 -12l-22 -100q-28 7 -58 11.5t-56 4.5q-39 0 -70 -19t-42 -71l-22 -98h199l-18 -84h-199l-65 -304h-137l65 304h-116l18 84h116z" />
    <glyph glyph-name="yen" unicode="&#xa5;" 
d="M289 665l87 -272l184 272h133l-167 -231h97l-15 -71h-126l-56 -82h164l-15 -72h-171l-45 -209h-133l45 209h-181l15 72h178l-29 82h-131l15 71h90l-82 231h143z" />
    <glyph glyph-name="ordfeminine" unicode="&#xaa;" horiz-adv-x="384" 
d="M401 464q-1 -5 -1.5 -8.5t-0.5 -7.5q0 -18 17 -18q8 0 17.5 2t21.5 5l-13 -66q-11 -4 -22.5 -6t-28.5 -2q-23 0 -41.5 7.5t-25.5 25.5q-20 -14 -43.5 -23.5t-52.5 -9.5q-46 0 -73.5 24.5t-27.5 79.5q0 54 14 94t39.5 66.5t60 40t76.5 13.5q35 0 69.5 -7t57.5 -18z
M340 612q-6 2 -15 4t-20 2q-17 0 -32 -11t-26.5 -30.5t-18.5 -46t-7 -58.5q0 -41 26 -41q17 0 31 6t28 17z" />
    <glyph glyph-name="ordmasculine" unicode="&#xba;" horiz-adv-x="384" 
d="M320 675q57 0 90 -28.5t33 -82.5q0 -45 -12.5 -83t-36 -65.5t-57.5 -42.5t-76 -15q-59 0 -92 27.5t-33 83.5q0 54 14.5 93t40 64t58.5 37t71 12zM269 423q13 0 26.5 7t24.5 23t18 42t7 65q0 49 -36 49q-13 0 -26 -7.5t-24 -23.5t-18 -42t-7 -63q0 -50 35 -50z" />
    <glyph glyph-name="numbersign" unicode="#" horiz-adv-x="679" 
d="M412 665l-41 -181h115l40 181h105l-40 -181h117l-19 -88h-117l-27 -127h117l-19 -88h-118l-38 -181h-104l38 181h-116l-38 -181h-98l38 181h-117l17 88h119l28 127h-118l19 88h118l40 181h99zM324 269h116l27 127h-115z" />
    <glyph glyph-name="zero" unicode="0" 
d="M596 331q-36 -178 -114.5 -260.5t-205.5 -82.5q-99 0 -146 48t-47 149q0 30 4 66t12 77q38 177 117 262.5t204 85.5q99 0 146 -48.5t47 -151.5q0 -32 -4.5 -67.5t-12.5 -77.5zM460 330q9 45 14 80.5t5 62.5q0 57 -19 80t-59 23q-30 0 -54 -13.5t-43.5 -43t-36 -76.5
t-31.5 -114q-9 -43 -14 -78.5t-5 -61.5q0 -55 18.5 -78t59.5 -23q30 0 54 12.5t44 41t36.5 74.5t30.5 114z" />
    <glyph glyph-name="one" unicode="1" 
d="M408 665h104l-143 -665h-131l119 551l-151 -38l23 106z" />
    <glyph glyph-name="two" unicode="2" 
d="M195 653q34 11 83 17t100 6q46 0 84 -9.5t65 -29t41.5 -49.5t14.5 -72q0 -65 -29 -117.5t-77 -100t-110.5 -95.5t-129.5 -103h268l-22 -100h-422v93q78 68 147 123.5t120 104t81 94.5t30 94q0 34 -26.5 50.5t-65.5 16.5q-18 0 -40 -2.5t-43.5 -6t-42 -8t-35.5 -8.5z" />
    <glyph glyph-name="three" unicode="3" 
d="M609 665l-12 -88l-215 -188q32 -2 60 -10.5t49 -25.5t33 -43t12 -62q0 -69 -24 -118t-65 -80.5t-96 -46.5t-117 -15q-55 0 -99.5 6.5t-76.5 16.5l22 102q37 -11 77.5 -18t86.5 -7q28 0 55 7t48.5 23t34.5 43t13 67t-26 58t-75 18h-80l18 81l201 180h-252l21 100h407z" />
    <glyph glyph-name="four" unicode="4" 
d="M599 665l-90 -421l72 1l-22 -100h-72l-31 -145h-127l31 145h-302v90l364 430h177zM381 244l65 297l-253 -297h188z" />
    <glyph glyph-name="five" unicode="5" 
d="M548 256q0 -64 -22.5 -114t-62.5 -84t-95.5 -51.5t-121.5 -17.5q-54 0 -94 6t-75 17l22 101q33 -10 74 -17t84 -7q26 0 53 7t48.5 24t35 45t13.5 69q0 46 -28.5 61.5t-73.5 15.5q-28 0 -64 -3t-68 -8l-21 29l73 336h398l-23 -105h-279l-30 -153q13 1 27.5 1.5t31.5 0.5
q40 0 76 -7.5t63 -25.5t43 -47.5t16 -72.5z" />
    <glyph glyph-name="six" unicode="6" 
d="M592 558q-35 8 -72.5 13t-72.5 5t-63.5 -9t-51.5 -30.5t-40 -57.5t-28 -88q27 7 58.5 12t64.5 5q87 0 135 -38.5t48 -113.5q0 -62 -20 -111.5t-56.5 -84t-87.5 -53t-112 -18.5q-96 0 -145.5 47t-49.5 157q0 30 3.5 61.5t11.5 71.5q19 99 52 166t77 108t98.5 58.5
t117.5 17.5q39 0 80.5 -5t74.5 -13zM242 286q-5 -25 -8.5 -49.5t-3.5 -45.5q0 -44 16.5 -73t65.5 -29q26 0 48.5 10.5t39 30t26 46t9.5 59.5q0 73 -79 73q-30 0 -59 -6t-55 -16z" />
    <glyph glyph-name="seven" unicode="7" 
d="M616 664v-86l-374 -578h-157l381 561h-306l23 104z" />
    <glyph glyph-name="eight" unicode="8" 
d="M336 288q-27 0 -52 -8t-43.5 -24t-30 -40.5t-11.5 -57.5q0 -34 22.5 -53t71.5 -19q63 0 99 34t36 91q0 77 -92 77zM487 339q35 -15 55 -45.5t20 -77.5q0 -54 -21.5 -96t-59 -71.5t-89.5 -45t-112 -15.5q-49 0 -89 10.5t-68.5 30t-44 48.5t-15.5 65q0 42 12 74.5t32 57
t46 41t54 25.5q-66 28 -66 109q0 58 21.5 101t58 71t85.5 41.5t105 13.5q45 0 83 -9t65.5 -27.5t43 -46.5t15.5 -65q0 -40 -10.5 -70.5t-28.5 -54t-41.5 -39t-50.5 -25.5zM399 579q-57 0 -90 -31t-33 -89q0 -68 83 -68q54 0 88.5 31t34.5 91q0 66 -83 66z" />
    <glyph glyph-name="nine" unicode="9" 
d="M101 109q34 -8 69.5 -14t70.5 -6q74 0 120.5 41.5t67.5 142.5q-26 -8 -56 -12.5t-63 -4.5q-88 0 -137.5 39.5t-49.5 115.5q0 62 19.5 111.5t55.5 83.5t86.5 52t111.5 18q94 0 146.5 -48t52.5 -157q0 -29 -4 -61t-12 -72q-20 -101 -53.5 -168t-78.5 -107t-100 -57
t-117 -17q-38 0 -77.5 4.5t-73.5 12.5zM449 377q5 26 9 51t4 48q0 44 -17 72t-65 28q-26 0 -48.5 -10.5t-39 -30t-26 -47t-9.5 -60.5q0 -37 18 -54.5t61 -17.5q29 0 58 5.5t55 15.5z" />
    <glyph glyph-name="onesuperior" unicode="&#xb9;" horiz-adv-x="305" 
d="M273 665h69l-73 -334h-90l55 256l-76 -18l16 72z" />
    <glyph glyph-name="twosuperior" unicode="&#xb2;" horiz-adv-x="313" 
d="M170 662q42 13 100 13q53 0 82.5 -21t29.5 -67q0 -25 -7 -44t-20 -35.5t-30 -31t-36 -29.5l-60 -48h122l-15 -67h-230v58l116 98q32 27 50 47.5t18 40.5q0 30 -42 30q-22 0 -46 -4.5t-41 -9.5z" />
    <glyph glyph-name="threesuperior" unicode="&#xb3;" horiz-adv-x="313" 
d="M387 665v-58l-105 -82q34 0 58.5 -19t24.5 -58q0 -37 -14 -62.5t-36.5 -41t-51.5 -22t-59 -6.5q-33 0 -59.5 6.5t-43.5 13.5l16 68q14 -6 37.5 -12t46.5 -6q10 0 22.5 1.5t23 7t17.5 16t7 27.5t-13 24t-34 7h-51l12 52l94 78h-127l14 66h221z" />
    <glyph glyph-name="fraction" unicode="&#x2044;" horiz-adv-x="520" 
d="M645 665l-551 -665h-96l550 665h97z" />
    <glyph glyph-name="onequarter" unicode="&#xbc;" horiz-adv-x="765" 
d="M768 343l-44 -209h42l-14 -64h-42l-15 -70h-88l15 70h-138v54l163 219h121zM636 134l25 120l-90 -120h65zM762 665l-551 -665h-96l550 665h97zM266 665h69l-73 -334h-90l55 256l-76 -18l16 72z" />
    <glyph glyph-name="onehalf" unicode="&#xbd;" horiz-adv-x="765" 
d="M560 330q42 13 100 13q53 0 82.5 -21t29.5 -67q0 -25 -7 -44t-20 -35.5t-30 -31t-36 -29.5l-60 -48h122l-15 -67h-230v58l116 98q32 27 50 47.5t18 40.5q0 30 -42 30q-22 0 -46 -4.5t-41 -9.5zM266 665h69l-73 -334h-90l55 256l-76 -18l16 72zM762 665l-551 -665h-96
l550 665h97z" />
    <glyph glyph-name="threequarters" unicode="&#xbe;" horiz-adv-x="765" 
d="M768 343l-44 -209h42l-14 -64h-42l-15 -70h-88l15 70h-138v54l163 219h121zM636 134l25 120l-90 -120h65zM392 665v-58l-105 -82q34 0 58.5 -19t24.5 -58q0 -37 -14 -62.5t-36.5 -41t-51.5 -22t-59 -6.5q-33 0 -59.5 6.5t-43.5 13.5l16 68q14 -6 37.5 -12t46.5 -6
q10 0 22.5 1.5t23 7t17.5 16t7 27.5t-13 24t-34 7h-51l12 52l94 78h-127l14 66h221zM773 665l-551 -665h-96l550 665h97z" />
    <glyph glyph-name="percent" unicode="%" horiz-adv-x="817" 
d="M793 665l-552 -665h-97l551 665h98zM327 676q58 0 94 -30.5t36 -96.5q0 -22 -6 -52q-9 -48 -28 -81t-44.5 -54t-57 -30.5t-66.5 -9.5q-58 0 -94 30.5t-36 96.5q0 22 6 52q9 48 28 81t44.5 54t57 30.5t66.5 9.5zM268 393q25 0 47.5 22t36.5 83q6 27 6 47q0 34 -12.5 47
t-32.5 13q-24 0 -46.5 -22t-36.5 -83q-6 -27 -6 -47q0 -34 12.5 -47t31.5 -13zM684 342q58 0 94 -30.5t36 -96.5q0 -12 -1 -24.5t-4 -27.5q-10 -48 -28.5 -81t-44 -54t-57 -30.5t-66.5 -9.5q-58 0 -94 30.5t-36 96.5q0 12 1 24.5t4 27.5q10 48 28.5 81t44 54t57 30.5
t66.5 9.5zM625 59q26 0 48.5 22t36.5 83q6 27 6 47q0 34 -13 47t-32 13q-25 0 -47.5 -22t-36.5 -83q-6 -27 -6 -47q0 -34 13 -47t31 -13z" />
    <glyph glyph-name="perthousand" unicode="&#x2030;" horiz-adv-x="1179" 
d="M1053 342q58 0 94 -30.5t36 -96.5q0 -22 -6 -52q-9 -48 -28 -81t-44.5 -54t-57 -30.5t-66.5 -9.5q-58 0 -94 30.5t-36 96.5q0 22 6 52q9 48 28 81t44.5 54t57 30.5t66.5 9.5zM994 59q25 0 47.5 22t36.5 83q6 27 6 47q0 34 -12.5 47t-32.5 13q-24 0 -46.5 -22t-36.5 -83
q-6 -27 -6 -47q0 -34 12.5 -47t31.5 -13zM793 665l-552 -665h-97l551 665h98zM327 676q58 0 94 -30.5t36 -96.5q0 -22 -6 -52q-9 -48 -28 -81t-44.5 -54t-57 -30.5t-66.5 -9.5q-58 0 -94 30.5t-36 96.5q0 22 6 52q9 48 28 81t44.5 54t57 30.5t66.5 9.5zM268 393
q25 0 47.5 22t36.5 83q6 27 6 47q0 34 -12.5 47t-32.5 13q-24 0 -46.5 -22t-36.5 -83q-6 -27 -6 -47q0 -34 12.5 -47t31.5 -13zM684 342q58 0 94 -30.5t36 -96.5q0 -12 -1 -24.5t-4 -27.5q-10 -48 -28.5 -81t-44 -54t-57 -30.5t-66.5 -9.5q-58 0 -94 30.5t-36 96.5
q0 12 1 24.5t4 27.5q10 48 28.5 81t44 54t57 30.5t66.5 9.5zM625 59q26 0 48.5 22t36.5 83q6 27 6 47q0 34 -13 47t-32 13q-25 0 -47.5 -22t-36.5 -83q-6 -27 -6 -47q0 -34 13 -47t31 -13z" />
    <glyph glyph-name="plus" unicode="+" 
d="M260 363v162h105v-162h177v-89h-178v-163h-104v163h-179v89h179z" />
    <glyph glyph-name="minus" unicode="&#x2212;" 
d="M542 363v-89h-461v89h461z" />
    <glyph glyph-name="plusminus" unicode="&#xb1;" 
d="M259 373v152h105v-152h178v-89h-178v-148h-105v148h-178v89h178zM542 88v-88h-461v88h461z" />
    <glyph glyph-name="multiply" unicode="&#xd7;" 
d="M96 457l69 70l146 -143l149 144l69 -70l-146 -141l145 -140l-68 -70l-149 143l-148 -143l-68 70l147 140z" />
    <glyph glyph-name="divide" unicode="&#xf7;" 
d="M542 363v-89h-461v89h461zM383 498q0 -59 -70 -59q-32 0 -50.5 15t-18.5 44q0 28 18.5 43t50.5 15q70 0 70 -58zM384 140q-2 -59 -70 -59q-33 0 -51.5 14.5t-18.5 43.5q0 59 70 59q33 0 51.5 -15t18.5 -43z" />
    <glyph glyph-name="equal" unicode="=" 
d="M542 264v-88h-461v88h461zM542 462v-88h-460v88h460z" />
    <glyph glyph-name="notequal" unicode="&#x2260;" 
d="M333 462l54 118h82l-52 -118h125v-88h-163l-50 -110h213v-88h-253l-51 -118h-83l51 118h-125v88h164l49 110h-212v88h251z" />
    <glyph glyph-name="approxequal" unicode="&#x2248;" 
d="M54 177q20 49 55.5 77.5t96.5 28.5q22 0 47 -7.5t51 -17t53.5 -17t54.5 -7.5q22 0 34.5 12t26.5 41l76 -35q-21 -51 -56 -78t-98 -27q-26 0 -53 8t-52 17t-47 17t-38 8q-23 0 -41 -11t-32 -43zM51 374q20 49 55.5 77.5t96.5 28.5q27 0 52 -7.5t50 -17t51 -17t53 -7.5
q22 0 34.5 12t26.5 41l76 -35q-21 -51 -56 -78t-98 -27q-26 0 -53 8t-52 17t-47 17t-38 8q-23 0 -41 -11t-32 -43z" />
    <glyph glyph-name="less" unicode="&#x3c;" 
d="M543 535v-99l-334 -121l334 -121v-93l-462 175v85z" />
    <glyph glyph-name="greater" unicode="&#x3e;" 
d="M81 101v99l334 121l-334 121v93l462 -175v-85z" />
    <glyph glyph-name="lessequal" unicode="&#x2264;" 
d="M543 88v-88h-462v88h462zM543 535v-99l-334 -121l334 -121v-93l-462 175v85z" />
    <glyph glyph-name="greaterequal" unicode="&#x2265;" 
d="M543 88v-88h-462v88h462zM543 361v-85l-462 -175v93l334 121l-334 121v99z" />
    <glyph glyph-name="logicalnot" unicode="&#xac;" 
d="M543 462v-286h-98v198h-363v88h461z" />
    <glyph glyph-name="Delta" unicode="&#x394;" 
d="M482 665l63 -665h-536l348 665h125zM162 80h268l-35 461z" />
    <glyph glyph-name="Delta" unicode="&#x2206;" 
d="M482 665l63 -665h-536l348 665h125zM162 80h268l-35 461z" />
    <glyph glyph-name="Omega" unicode="&#x3a9;" horiz-adv-x="658" 
d="M166 86q-27 26 -47.5 70t-20.5 105q0 108 31.5 186.5t82.5 129.5t116 75t133 24q55 0 97 -12t70.5 -38.5t43.5 -68t15 -101.5q0 -73 -14.5 -130.5t-38.5 -102.5t-56.5 -78.5t-68.5 -58.5h123l-18 -86h-262l18 86q42 23 78.5 54t63 74.5t42 101.5t15.5 136q0 73 -31 103.5
t-94 30.5q-81 0 -137 -59.5t-81 -183.5q-5 -25 -7.5 -48.5t-2.5 -46.5q0 -61 24.5 -98.5t63.5 -63.5l-18 -86h-262l18 86h124z" />
    <glyph glyph-name="Omega" unicode="&#x2126;" horiz-adv-x="658" 
d="M166 86q-27 26 -47.5 70t-20.5 105q0 108 31.5 186.5t82.5 129.5t116 75t133 24q55 0 97 -12t70.5 -38.5t43.5 -68t15 -101.5q0 -73 -14.5 -130.5t-38.5 -102.5t-56.5 -78.5t-68.5 -58.5h123l-18 -86h-262l18 86q42 23 78.5 54t63 74.5t42 101.5t15.5 136q0 73 -31 103.5
t-94 30.5q-81 0 -137 -59.5t-81 -183.5q-5 -25 -7.5 -48.5t-2.5 -46.5q0 -61 24.5 -98.5t63.5 -63.5l-18 -86h-262l18 86h124z" />
    <glyph glyph-name="mu" unicode="&#xb5;" horiz-adv-x="581" 
d="M299 484l-69 -320q-4 -19 -4 -26q0 -49 48 -49q34 0 61 14t47 34l75 347h134l-74 -340q-2 -8 -3 -15.5t-1 -12.5q0 -17 7.5 -22.5t21.5 -5.5q22 0 54 8l-17 -96q-20 -5 -38 -7.5t-44 -2.5q-32 0 -57 12.5t-35 38.5q-34 -26 -70.5 -39t-81.5 -13q-37 0 -57 14l-41 -191
h-133l143 672h134z" />
    <glyph glyph-name="mu" unicode="&#x3bc;" horiz-adv-x="581" 
d="M299 484l-69 -320q-4 -19 -4 -26q0 -49 48 -49q34 0 61 14t47 34l75 347h134l-74 -340q-2 -8 -3 -15.5t-1 -12.5q0 -17 7.5 -22.5t21.5 -5.5q22 0 54 8l-17 -96q-20 -5 -38 -7.5t-44 -2.5q-32 0 -57 12.5t-35 38.5q-34 -26 -70.5 -39t-81.5 -13q-37 0 -57 14l-41 -191
h-133l143 672h134z" />
    <glyph glyph-name="pi" unicode="&#x3c0;" horiz-adv-x="603" 
d="M689 484l-21 -94h-81l-84 -390h-139l84 390h-131l-83 -390h-139l83 390h-82l20 94h573z" />
    <glyph glyph-name="degree" unicode="&#xb0;" horiz-adv-x="366" 
d="M294 621q-29 0 -46.5 -19t-17.5 -48q0 -23 12.5 -38t37.5 -15q29 0 47 19.5t18 48.5q0 23 -13.5 37.5t-37.5 14.5zM298 676q49 0 81 -30t32 -75q0 -26 -10.5 -49t-28.5 -39.5t-42.5 -26t-52.5 -9.5q-50 0 -81.5 30t-31.5 75q0 26 10 49t28 39.5t42.5 26t53.5 9.5z" />
    <glyph glyph-name="infinity" unicode="&#x221e;" horiz-adv-x="648" 
d="M298 318q-24 27 -44 41t-43 14q-22 0 -41 -13.5t-19 -45.5q0 -26 14.5 -37.5t35.5 -11.5q23 0 45.5 13t51.5 40zM401 318q25 -26 45 -39.5t43 -13.5q22 0 40.5 13.5t18.5 45.5q0 26 -14.5 37.5t-34.5 11.5q-23 0 -45.5 -14t-52.5 -41zM358 385q37 32 73.5 49t81.5 17
q60 0 97.5 -31t37.5 -87q0 -37 -12.5 -64.5t-34 -45.5t-51 -27t-62.5 -9q-45 0 -80.5 17.5t-66.5 49.5q-37 -32 -73 -49.5t-81 -17.5q-61 0 -98.5 31t-37.5 87q0 37 12.5 64.5t34 45.5t51 27t63.5 9q45 0 80 -17t66 -49z" />
    <glyph glyph-name="partialdiff" unicode="&#x2202;" horiz-adv-x="581" 
d="M200 637q41 20 83 29.5t97 9.5q47 0 84.5 -12.5t63.5 -39t39.5 -68t13.5 -99.5q0 -98 -18.5 -183.5t-56 -148.5t-94 -99.5t-133.5 -36.5q-43 0 -77.5 12.5t-58.5 36t-37 56t-13 73.5q1 105 58 168.5t170 63.5q44 0 76 -9t55 -23q3 24 5 49t2 41q0 69 -28 97t-76 28
q-40 0 -76 -11.5t-68 -25.5zM291 84q30 0 52.5 14t39 39t28 60t20.5 78q-20 13 -45.5 21.5t-57.5 8.5q-24 0 -45 -6.5t-36.5 -21.5t-24.5 -40.5t-9 -62.5q0 -42 20 -66t58 -24z" />
    <glyph glyph-name="integral" unicode="&#x222b;" horiz-adv-x="296" 
d="M444 643q-9 1 -14 1h-12q-41 0 -63.5 -19t-30.5 -58l-128 -593q-18 -84 -71 -129.5t-148 -45.5q-17 0 -45 3l20 96q9 -2 14 -2h11q76 0 93 78l128 593q18 85 71 129.5t150 44.5q18 0 45 -3z" />
    <glyph glyph-name="radical" unicode="&#x221a;" 
d="M282 484l27 -344l274 525h108l-349 -665h-115l-45 399h-93l19 85h174z" />
    <glyph glyph-name="summation" unicode="&#x2211;" 
d="M643 665l-21 -96h-288l148 -222l-251 -251h314l-21 -96h-468l9 75l267 271l-156 243l16 76h451z" />
    <glyph glyph-name="product" unicode="&#x220f;" horiz-adv-x="679" 
d="M787 665l-21 -95h-70l-122 -570h-135l122 570h-214l-122 -570h-134l122 570h-72l21 95h625z" />
    <glyph glyph-name="lozenge" unicode="&#x25ca;" 
d="M460 665l126 -332l-269 -333h-81l-126 332l270 333h80zM222 333l79 -219l172 219l-78 217z" />
    <glyph glyph-name="commaaccentcomb" horiz-adv-x="522" 
d="M356 -46l-122 -142h-104l91 142h135z" />
    <glyph glyph-name="apple" horiz-adv-x="1100" 
d="M821 784h5q30 0 42 -38l47 -156l-499 59l-56 -72l217 -33l-123 -351l-317 23q-13 1 -26 4.5t-23.5 10t-17 16t-6.5 22.5q0 5 1 12t3 14l153 410q7 16 29 26.5t48 12.5zM169 290q-1 -5 -1.5 -9t-0.5 -7q0 -16 12 -25t31 -11l226 -21l97 265l-188 27l-8 68l71 89l481 -54
l-34 112q-5 14 -17.5 18.5t-24.5 5.5l-452 -34q-16 -1 -33.5 -8.5t-23.5 -26.5zM944 486l80 -279q1 -2 1 -9q0 -19 -16 -29.5t-42 -10.5l-234 13v348zM815 190l151 -12h3q14 0 22.5 8.5t8.5 18.5q0 6 -1 7l-65 211l-119 22v-255zM61 9h25q19 -1 32 10t13 38q0 29 -13 40
t-32 10h-25v-98zM88 122q27 0 44.5 -15.5t18.5 -49.5q-1 -33 -18.5 -48t-44.5 -15h-45v128h45zM233 52q-3 21 -23 21q-12 0 -19 -8t-7 -21zM185 32q1 -13 8.5 -19t18.5 -6q9 -1 15.5 3t11.5 11l12 -6q-6 -10 -15.5 -16t-23.5 -6q-21 0 -34 12.5t-14 35.5q1 19 13 32t33 14
q22 -1 32 -13t11 -32zM280 21q8 -14 25 -14q22 0 19 13q1 7 -7.5 9.5t-19 5.5t-19.5 8t-9 17t10 19t27 8q25 -1 36 -18l-12 -8q-6 12 -25 12q-18 0 -18 -13q0 -7 8.5 -9.5t19 -5t19 -8t8.5 -17.5q0 -13 -9.5 -20t-26.5 -7q-15 0 -25 6t-15 16zM385 113q-2 -8 -11 -8
q-10 0 -10 8q0 9 10 9q9 0 11 -9zM383 86v-92h-18v92h18zM474 69q-7 4 -21 4q-12 0 -20 -8t-8 -24q0 -32 26 -32q17 0 23 13v47zM493 -8q0 -39 -43 -39q-28 0 -41 21l12 9q5 -8 11.5 -12t17.5 -4q26 0 24 24v16q-8 -13 -27 -13q-20 0 -30 12.5t-11 34.5q1 23 14.5 34.5
t33.5 11.5q26 -2 39 -11v-84zM541 86v-17q10 16 32 18q31 -1 32 -31v-62h-19v62q0 17 -18 17q-10 0 -15.5 -4.5t-10.5 -11.5v-63h-17v92h16zM694 52q-3 21 -23 21q-13 0 -20.5 -8t-7.5 -21zM645 32q3 -25 28 -25q18 -2 25 14l14 -6q-5 -10 -15 -16t-24 -6q-47 0 -47 48
q0 19 12 32t33 14q22 -1 32.5 -13t10.5 -32zM796 63q-8 10 -23 10q-13 0 -20 -9t-7 -24t7 -24t20 -9q15 0 23 13v43zM815 126v-108q0 -5 0.5 -12t2.5 -12l-16 -1q0 3 -1 6.5t-1 7.5q-5 -6 -12.5 -10t-18.5 -4q-19 0 -30.5 13t-11.5 35q0 21 13 33t30 13q20 -1 26 -10v49h19z
M914 20q10 -13 24 -13t20.5 9.5t6.5 24.5q0 32 -27 32q-8 0 -13.5 -4.5t-10.5 -10.5v-38zM914 126v-54q9 13 31 15q19 -1 28 -13t9 -33q0 -22 -10.5 -35t-28.5 -13q-23 0 -32 14q0 -8 -3 -14l-16 1q2 6 3.5 12.5t1.5 11.5v108h17zM1009 86l27 -75l27 75h18l-40 -100
q-6 -17 -16 -25t-29 -9l-4 13q23 1 31 21l3 7l-35 93h18zM197 -62l-1 -14h-39v-113h-18v113h-39v14h97zM305 -163q6 -13 24 -13q13 0 19 9t6 24q0 32 -24 32q-16 0 -25 -14v-38zM302 -97v-15q12 14 33 16q20 -1 29 -13.5t9 -33.5q1 -21 -9 -34.5t-32 -13.5q-10 0 -16.5 4
t-10.5 8v-50l-18 -1v132zM433 -96q22 -1 34 -14t13 -33q-1 -21 -13 -34t-34 -14q-21 1 -33 14t-13 34q1 20 13 33t33 14zM433 -111q-13 0 -20 -9t-7 -23q0 -15 7 -24t20 -9t20 9t7 24q0 14 -7 23t-20 9zM520 -163q8 -13 23 -13q14 0 20 9t6 24t-5.5 23.5t-19.5 8.5
q-15 0 -24 -14v-38zM518 -97v-15q10 14 33 16q18 -1 27.5 -13.5t9.5 -33.5q2 -21 -9 -34.5t-31 -13.5q-9 0 -16 4t-12 8v-50l-18 -1v132zM630 -57v-54q10 13 31 15q31 -1 32 -31v-62h-19v62q0 16 -18 16t-26 -16v-62h-18v131zM714 -115q6 7 15.5 12.5t24.5 6.5
q20 -2 27.5 -11t7.5 -21v-37q0 -5 1 -11.5t3 -11.5l-16 -3q-1 4 -1 7.5t-2 7.5q-4 -6 -11 -10.5t-18 -4.5q-32 0 -32 26q-1 17 19 24q5 2 17 4t22 3v7q0 7 -4 11.5t-16 4.5q-10 0 -15 -3.5t-9 -8.5zM771 -146q-8 -1 -17.5 -3t-14.5 -3q-9 -4 -9 -11q0 -13 18 -13q17 0 23 14
v16zM878 -115q-8 6 -21 4q-13 0 -21 -7.5t-8 -24.5q0 -31 27 -32q16 2 23 14v46zM895 -191q0 -39 -41 -39q-31 0 -41 21l12 9q5 -8 11.5 -12t17.5 -4q26 0 24 24v16q-8 -13 -28 -13q-19 0 -29 12.5t-10 33.5q0 23 13.5 35t33.5 12q11 -1 21 -3.5t16 -7.5v-84zM987 -131
q-1 20 -23 20q-12 0 -19 -8t-7 -20zM938 -151q2 -13 9.5 -19t18.5 -6q18 -1 25 13l13 -5q-5 -10 -14 -16.5t-24 -6.5q-21 0 -33.5 12.5t-13.5 35.5q1 20 13 33t32 14q21 -1 31.5 -13t12.5 -32zM197 -98l27 -75l27 75h18l-40 -100q-6 -17 -16 -25t-29 -9l-4 13q23 1 31 21
l4 7l-36 93h18z" />
    <glyph glyph-name="uni00A0" horiz-adv-x="266" 
 />
    <glyph glyph-name="uni00AD" unicode="&#xad;" horiz-adv-x="377" 
d="M387 318l-20 -95h-270l20 95h270z" />
    <glyph glyph-name="afii10017" unicode="&#x410;" horiz-adv-x="637" 
d="M194 0h-134l91 432q12 55 33.5 100t57 77t86 49.5t119.5 17.5q115 0 167 -46t52 -124q0 -17 -2 -35.5t-6 -38.5l-92 -432h-139l50 234h-233zM499 332l22 107q6 27 6 49q0 42 -20.5 65t-71.5 23q-65 0 -98.5 -37t-47.5 -100l-23 -107h233z" />
    <glyph glyph-name="afii10065" unicode="&#x430;" horiz-adv-x="567" 
d="M392 42q-35 -27 -73 -40t-85 -13q-35 0 -64 9.5t-50 29.5t-32.5 52.5t-11.5 77.5q0 85 23 148.5t63 105.5t93.5 62.5t114.5 20.5q54 0 106.5 -11.5t94.5 -27.5l-69 -315q-3 -12 -3 -23q0 -17 7 -23t22 -6q25 0 54 8l-17 -97q-19 -5 -35 -8t-39 -3q-35 0 -61.5 12
t-37.5 41zM423 388q-15 5 -33 8t-35 3q-53 0 -86 -39t-49 -120q-4 -21 -6 -39.5t-2 -34.5q0 -77 57 -77q28 0 56.5 14.5t42.5 28.5z" />
    <glyph glyph-name="afii10019" unicode="&#x412;" horiz-adv-x="604" 
d="M433 665q99 0 154.5 -35.5t55.5 -109.5q0 -42 -11 -73t-30.5 -52.5t-45.5 -35.5t-55 -22q40 -9 68 -38t28 -82q0 -61 -24 -104.5t-65.5 -71t-97 -40.5t-118.5 -13q-45 0 -102.5 6.5t-114.5 20.5l140 650h218zM229 91q15 -4 39.5 -5t40.5 -1q74 0 107.5 33.5t33.5 97.5
q0 33 -20.5 51.5t-70.5 18.5h-89zM292 383h87q55 0 87.5 29t32.5 94q0 64 -82 64h-85z" />
    <glyph glyph-name="afii10022" unicode="&#x415;" horiz-adv-x="541" 
d="M612 665l-22 -100h-264l-39 -176h243l-21 -100h-243l-25 -118q-3 -12 -3 -22q0 -29 18.5 -40t49.5 -11h195l-21 -98h-201q-86 0 -133 31t-47 97q0 12 1 25t4 26l105 486h403z" />
    <glyph glyph-name="afii10070" unicode="&#x435;" horiz-adv-x="483" 
d="M215 204q-3 -21 -3 -37q0 -42 21.5 -62t79.5 -20q15 0 33.5 2t37.5 5t36.5 6.5t29.5 7.5l-8 -94q-33 -10 -75 -16.5t-87 -6.5q-97 0 -150.5 41t-53.5 130q0 66 16.5 126.5t52 107t90 74t130.5 27.5q80 0 119 -34.5t39 -96.5q0 -42 -16.5 -73.5t-46 -52t-71 -30.5
t-91.5 -10q-40 0 -83 6zM233 285q11 -2 25 -2.5t24 -0.5q57 0 85.5 17t28.5 55q0 25 -13 38t-43 13q-42 0 -67 -29t-40 -91z" />
    <glyph glyph-name="afii10028" unicode="&#x41a;" horiz-adv-x="619" 
d="M356 665l-69 -321l326 321h143l-305 -302q57 -20 83 -69.5t41 -120.5l36 -173h-144l-27 143q-10 54 -30 88.5t-62 41.5l-97 -92l-38 -181h-138l143 665h138z" />
    <glyph glyph-name="afii10030" unicode="&#x41c;" horiz-adv-x="876" 
d="M350 665l141 -332l282 332h150l-143 -665h-137l101 464l-221 -260h-104l-108 260l-99 -464h-137l143 665h132z" />
    <glyph glyph-name="afii10031" unicode="&#x41d;" horiz-adv-x="711" 
d="M356 665l-59 -272h265l58 272h138l-143 -665h-138l62 289h-265l-61 -289h-138l143 665h138z" />
    <glyph glyph-name="afii10032" unicode="&#x41e;" horiz-adv-x="655" 
d="M458 676q113 0 171 -53.5t58 -165.5q0 -29 -3.5 -59t-11.5 -67q-37 -181 -124.5 -262t-228.5 -81q-114 0 -171.5 53t-57.5 167q0 28 3 58t11 65q38 180 125.5 262.5t228.5 82.5zM442 576q-35 0 -64.5 -13t-53.5 -42t-43 -75.5t-33 -113.5q-8 -37 -12 -67t-4 -55
q0 -68 26.5 -95t78.5 -27q34 0 63 12t52.5 40.5t42.5 75.5t34 116q15 72 15 121q0 68 -25.5 95.5t-76.5 27.5z" />
    <glyph glyph-name="afii10034" unicode="&#x420;" horiz-adv-x="592" 
d="M286 335q37 -6 71 -6q69 0 109.5 40.5t40.5 125.5q0 42 -23.5 56t-72.5 14h-77zM432 665q106 0 159 -36.5t53 -125.5q0 -70 -22 -121.5t-61 -85.5t-92 -50.5t-115 -16.5q-45 0 -91 9l-50 -238h-138l143 665h214z" />
    <glyph glyph-name="afii10035" unicode="&#x421;" horiz-adv-x="542" 
d="M604 557q-27 7 -68 13t-76 6q-40 0 -73 -12.5t-59 -40.5t-46.5 -74.5t-34.5 -113.5q-8 -37 -12 -66.5t-4 -53.5q0 -36 7 -60.5t22 -38.5t38 -20t56 -6q36 0 79.5 7t78.5 15l-11 -101q-35 -11 -79.5 -17t-88.5 -6q-58 0 -103 12t-76.5 38.5t-48 69t-16.5 103.5
q0 29 3 57.5t11 65.5q19 96 53 161.5t82 105.5t109 57.5t133 17.5q44 0 83 -6t65 -13z" />
    <glyph glyph-name="afii10036" unicode="&#x422;" horiz-adv-x="554" 
d="M676 665l-22 -100h-197l-121 -565h-138l122 565h-197l21 100h532z" />
    <glyph glyph-name="afii10039" unicode="&#x425;" horiz-adv-x="573" 
d="M141 665h147l85 -227l187 227h149l-280 -329l139 -336h-150l-90 234l-191 -234h-147l283 339z" />
    <glyph glyph-name="afii10087" unicode="&#x445;" horiz-adv-x="481" 
d="M256 484l54 -153l126 153h138l-201 -239l102 -245h-142l-65 154l-126 -154h-140l204 242l-94 242h144z" />
    <glyph glyph-name="afii10083" unicode="&#x441;" horiz-adv-x="419" 
d="M458 385q-19 5 -45.5 9.5t-55.5 4.5q-54 0 -88 -37.5t-50 -124.5q-4 -19 -5.5 -36.5t-1.5 -34.5q0 -45 19.5 -63t60.5 -18q27 0 53 5t53 12l-11 -95q-28 -8 -62.5 -13t-67.5 -5q-85 0 -133 39t-48 129q0 19 1.5 39t5.5 41q23 131 95.5 194.5t188.5 63.5q29 0 61.5 -3.5
t52.5 -8.5z" />
    <glyph glyph-name="afii10082" unicode="&#x440;" horiz-adv-x="544" 
d="M164 456q50 17 109 28t112 11q86 0 134.5 -38t48.5 -127q0 -41 -9 -84q-13 -66 -38 -114.5t-60 -80t-78.5 -47t-94.5 -15.5q-22 0 -45.5 3.5t-43.5 7.5l-41 -188h-133zM219 95q19 -5 37 -7.5t39 -2.5q22 0 40.5 7.5t34 26t28.5 50t24 79.5q10 43 10 75q0 45 -18 60.5
t-51 15.5q-18 0 -42.5 -3.5t-38.5 -7.5z" />
    <glyph glyph-name="afii10080" unicode="&#x43e;" horiz-adv-x="531" 
d="M365 495q91 0 139.5 -41t48.5 -129q0 -80 -20.5 -142.5t-57.5 -105.5t-90 -65.5t-117 -22.5q-93 0 -141.5 41t-48.5 129q0 79 20.5 141.5t58 105.5t90.5 66t118 23zM349 399q-52 0 -82.5 -41t-44.5 -119q-8 -46 -8 -76q0 -44 16.5 -61t51.5 -17q28 0 53 16t43 46t28.5 74
t10.5 100q0 44 -16.5 61t-51.5 17z" />
    <glyph glyph-name="afii10023" unicode="&#x401;" horiz-adv-x="541" 
d="M612 665l-22 -100h-264l-39 -176h243l-21 -100h-243l-25 -118q-3 -12 -3 -22q0 -29 18.5 -40t49.5 -11h195l-21 -98h-201q-86 0 -133 31t-47 97q0 12 1 25t4 26l105 486h403zM614 845q0 -35 -24 -52.5t-57 -17.5q-57 0 -57 42q0 32 23 51.5t58 19.5q57 0 57 -43zM432 845
q0 -35 -24 -52.5t-57 -17.5q-57 0 -57 42q0 32 23 51.5t58 19.5q57 0 57 -43z" />
    <glyph glyph-name="afii10071" unicode="&#x451;" horiz-adv-x="483" 
d="M215 204q-3 -21 -3 -37q0 -42 21.5 -62t79.5 -20q15 0 33.5 2t37.5 5t36.5 6.5t29.5 7.5l-8 -94q-33 -10 -75 -16.5t-87 -6.5q-97 0 -150.5 41t-53.5 130q0 66 16.5 126.5t52 107t90 74t130.5 27.5q80 0 119 -34.5t39 -96.5q0 -42 -16.5 -73.5t-46 -52t-71 -30.5
t-91.5 -10q-40 0 -83 6zM233 285q11 -2 25 -2.5t24 -0.5q57 0 85.5 17t28.5 55q0 25 -13 38t-43 13q-42 0 -67 -29t-40 -91zM562 664q0 -35 -24 -52.5t-57 -17.5q-57 0 -57 42q0 32 23 51.5t58 19.5q57 0 57 -43zM380 664q0 -35 -24 -52.5t-57 -17.5q-57 0 -57 42
q0 32 23 51.5t58 19.5q57 0 57 -43z" />
    <glyph glyph-name="afii10057" unicode="&#x408;" horiz-adv-x="308" 
d="M356 665l-124 -574q-11 -52 -35 -94t-57 -77.5t-73.5 -64.5t-85.5 -56l-51 78q36 27 63.5 50.5t47.5 48t33 51.5t20 60l124 578h138z" />
    <glyph glyph-name="afii10105" unicode="&#x458;" horiz-adv-x="271" 
d="M303 484l-88 -408q-10 -47 -27.5 -87t-45 -74.5t-67 -65t-93.5 -58.5l-49 79q37 24 62 47t41.5 47t27 51t17.5 60l89 409h133zM353 668q-5 -37 -30.5 -58.5t-64.5 -21.5q-32 0 -49 13t-17 39q0 44 28.5 67.5t68.5 23.5q31 0 48 -12.5t17 -37.5v-6.5t-1 -6.5z" />
    <glyph glyph-name="afii10054" unicode="&#x405;" horiz-adv-x="517" 
d="M552 558q-16 3 -35.5 6.5t-40 6t-40.5 4t-36 1.5q-26 0 -49 -2t-40.5 -9t-28 -20t-10.5 -35q0 -23 17.5 -45t43 -45.5t56 -48.5t56 -53t43 -59.5t17.5 -68.5q0 -55 -19 -93.5t-53 -62.5t-82.5 -35t-106.5 -11q-60 0 -110 9t-83 22l22 101q38 -12 83.5 -22t98.5 -10
q21 0 41 3t35.5 11.5t25 23t9.5 37.5q0 26 -17 51t-42 50.5t-55 51t-55 53.5t-42 58.5t-17 64.5q0 55 22.5 90.5t59.5 56.5t85.5 29t100.5 8q20 0 43.5 -1.5t46 -4.5t43 -6t35.5 -6z" />
    <glyph glyph-name="afii10102" unicode="&#x455;" horiz-adv-x="437" 
d="M455 389q-20 5 -53.5 9.5t-65.5 4.5q-44 0 -69.5 -9t-25.5 -38q0 -15 14 -27.5t34.5 -26t44.5 -28.5t44.5 -33t34.5 -41t14 -52q0 -47 -18 -78t-48.5 -49t-70.5 -25.5t-84 -7.5q-51 0 -91.5 8t-66.5 17l22 94q12 -5 28.5 -9t36 -8t40 -6t38.5 -2q35 0 57 10.5t22 39.5
q0 16 -13.5 30t-33.5 28t-43.5 28.5t-43.5 32.5t-33.5 40t-13.5 51q0 46 19.5 75.5t52 47t75 24t89.5 6.5q38 0 72 -4t56 -8z" />
    <glyph glyph-name="afii10104" unicode="&#x457;" horiz-adv-x="286" 
d="M298 484l-77 -355q-2 -10 -2 -15q0 -26 28 -26q11 0 23 2t30 7l-17 -97q-20 -5 -36.5 -7.5t-39.5 -2.5q-54 0 -88.5 21.5t-34.5 75.5q0 19 5 42l75 355h134zM428 664q0 -35 -24 -52.5t-57 -17.5q-57 0 -57 42q0 32 23 51.5t58 19.5q57 0 57 -43zM246 664q0 -35 -24 -52.5
t-57 -17.5q-57 0 -57 42q0 32 23 51.5t58 19.5q57 0 57 -43z" />
    <glyph glyph-name="afii10103" unicode="&#x456;" horiz-adv-x="286" 
d="M348 668q-5 -37 -31 -58.5t-65 -21.5q-31 0 -48.5 13t-17.5 39q0 44 29 67.5t68 23.5q32 0 49 -13t17 -38q0 -8 -1 -12zM298 484l-77 -354q-2 -10 -2 -15q0 -16 9 -21t22 -5q12 0 24 2t26 6l-17 -97q-18 -5 -35.5 -8t-40.5 -3q-54 0 -88.5 21.5t-34.5 75.5q0 17 2.5 32.5
t5.5 27.5l72 338h134z" />
    <glyph glyph-name="afii10055" unicode="&#x406;" horiz-adv-x="308" 
d="M356 665l-143 -665h-138l143 665h138z" />
    <glyph glyph-name="afii10056" unicode="&#x407;" horiz-adv-x="308" 
d="M356 665l-143 -665h-138l143 665h138zM481 845q0 -35 -24 -52.5t-57 -17.5q-57 0 -57 42q0 32 23 51.5t58 19.5q57 0 57 -43zM299 845q0 -35 -24 -52.5t-57 -17.5q-57 0 -57 42q0 32 23 51.5t58 19.5q57 0 57 -43z" />
    <glyph glyph-name="afii10020" unicode="&#x413;" horiz-adv-x="514" 
d="M629 665l-21 -100h-274l-121 -565h-138l143 665h411z" />
    <glyph glyph-name="afii10052" unicode="&#x403;" horiz-adv-x="524" 
d="M629 665l-21 -100h-274l-121 -565h-138l143 665h411zM605 911l-133 -161h-104l95 161h142z" />
    <glyph glyph-name="afii10074" unicode="&#x438;" horiz-adv-x="573" 
d="M290 484l-70 -319q-3 -14 -3 -27q0 -49 48 -49q32 0 59.5 14t48.5 34l76 347h133l-74 -340q-2 -8 -3 -15.5t-1 -12.5q0 -17 7.5 -22t21.5 -5q22 0 54 8l-17 -97q-20 -5 -38 -7.5t-44 -2.5q-32 0 -57 12t-35 40q-34 -26 -70.5 -39.5t-81.5 -13.5q-157 0 -157 139
q0 13 1 27.5t4 30.5l64 298h134z" />
    <glyph glyph-name="afii10075" unicode="&#x439;" horiz-adv-x="573" 
d="M290 484l-70 -319q-3 -14 -3 -27q0 -49 48 -49q32 0 59.5 14t48.5 34l76 347h133l-74 -340q-2 -8 -3 -15.5t-1 -12.5q0 -17 7.5 -22t21.5 -5q22 0 54 8l-17 -97q-20 -5 -38 -7.5t-44 -2.5q-32 0 -57 12t-35 40q-34 -26 -70.5 -39.5t-81.5 -13.5q-157 0 -157 139
q0 13 1 27.5t4 30.5l64 298h134zM361 718q-1 -5 -1.5 -9t-0.5 -8q0 -43 44 -43q54 0 69 60h97q-19 -75 -64.5 -106.5t-111.5 -31.5q-59 0 -95 25t-36 82q0 14 3 31h96z" />
    <glyph glyph-name="afii10061" unicode="&#x40c;" horiz-adv-x="619" 
d="M356 665l-69 -321l326 321h143l-305 -302q57 -20 83 -69.5t41 -120.5l36 -173h-144l-27 143q-10 54 -30 88.5t-62 41.5l-97 -92l-38 -181h-138l143 665h138zM656 911l-133 -161h-104l95 161h142z" />
    <glyph glyph-name="afii10076" unicode="&#x43a;" horiz-adv-x="515" 
d="M298 484l-41 -193l198 193h143l-203 -196q40 -16 62.5 -54.5t32.5 -101.5l21 -132h-141l-15 118q-5 41 -20.5 61.5t-43.5 28.5l-66 -59l-31 -149h-134l104 484h134z" />
    <glyph glyph-name="afii10109" unicode="&#x45c;" horiz-adv-x="519" 
d="M302 484l-41 -193l198 193h143l-203 -196q40 -16 62.5 -54.5t32.5 -101.5l21 -132h-141l-15 118q-5 41 -20.5 61.5t-43.5 28.5l-66 -59l-31 -149h-134l104 484h134zM576 730l-133 -161h-104l95 161h142z" />
    <glyph glyph-name="afii10033" unicode="&#x41f;" horiz-adv-x="711" 
d="M758 665l-143 -665h-138l121 561h-265l-120 -561h-138l143 665h540z" />
    <glyph glyph-name="afii10081" unicode="&#x43f;" horiz-adv-x="551" 
d="M158 457q20 6 45.5 12.5t55 12.5t60.5 9.5t62 3.5q41 0 74.5 -7t57.5 -23t37.5 -40.5t13.5 -59.5q0 -12 -1.5 -22t-4.5 -24l-69 -319h-133l68 314q3 16 3 29q0 31 -18.5 43.5t-50.5 12.5q-20 0 -43.5 -3t-37.5 -8l-84 -388h-133l98 457v0z" />
    <glyph glyph-name="afii10084" unicode="&#x442;" horiz-adv-x="822" 
d="M158 457q40 12 98 25t119 13q44 0 78 -9.5t56 -28.5q38 17 80.5 27.5t91.5 10.5q70 0 112 -27t42 -92q0 -28 -7 -57l-68 -319h-134l68 314q4 15 4 30q0 32 -17 43.5t-46 11.5q-22 0 -45.5 -6.5t-39.5 -14.5q0 -14 -1 -29.5t-4 -29.5l-69 -319h-133l67 314q2 8 3 16t1 14
q0 32 -16.5 43.5t-45.5 11.5q-19 0 -40 -3t-35 -8l-84 -388h-133l98 457v0z" />
    <glyph glyph-name="afii10090" unicode="&#x448;" horiz-adv-x="847" 
d="M573 484l-70 -319q-3 -14 -3 -27q0 -49 48 -49q32 0 55.5 14t43.5 34l76 347h133l-74 -340q-2 -8 -3 -15.5t-1 -12.5q0 -17 7.5 -22t21.5 -5q22 0 54 8l-17 -97q-20 -5 -38 -7.5t-44 -2.5q-32 0 -57 12t-35 40q-53 -53 -143 -53q-98 0 -136 56q-27 -26 -64.5 -41
t-82.5 -15q-157 0 -157 139q0 13 1 27.5t4 30.5l64 298h134l-70 -319q-3 -14 -3 -27q0 -49 48 -49q32 0 55.5 14t43.5 34l75 347h134z" />
    <glyph glyph-name="afii10091" unicode="&#x449;" horiz-adv-x="847" 
d="M573 484l-70 -319q-3 -14 -3 -27q0 -49 48 -49q32 0 55.5 14t43.5 34l76 347h133l-74 -340q-2 -8 -3 -15.5t-1 -12.5q0 -17 7.5 -22t21.5 -5q22 0 54 8q0 -66 -18 -121.5t-53 -98.5h-91q12 28 22 57.5t12 58.5q-23 4 -39 16t-24 33q-53 -53 -143 -53q-98 0 -136 56
q-27 -26 -64.5 -41t-82.5 -15q-157 0 -157 139q0 13 1 27.5t4 30.5l64 298h134l-70 -319q-3 -14 -3 -27q0 -49 48 -49q32 0 55.5 14t43.5 34l75 347h134z" />
    <glyph glyph-name="afii10088" unicode="&#x446;" horiz-adv-x="573" 
d="M290 484l-70 -319q-3 -14 -3 -27q0 -49 48 -49q32 0 59.5 14t48.5 34l76 347h133l-74 -340q-2 -8 -3 -15.5t-1 -12.5q0 -17 7.5 -22t21.5 -5q22 0 54 8q0 -66 -18 -121.5t-53 -98.5h-91q12 28 22 57.5t12 58.5q-23 4 -39 16t-24 33q-34 -26 -70.5 -39.5t-81.5 -13.5
q-157 0 -157 139q0 13 1 27.5t4 30.5l64 298h134z" />
    <glyph glyph-name="afii10024" unicode="&#x416;" horiz-adv-x="937" 
d="M599 353l321 312h147l-312 -300q60 -23 87.5 -73t41.5 -119l36 -173h-148l-27 142q-11 54 -32.5 88.5t-63.5 42.5l-85 -79l-42 -194h-140l43 194l-50 79q-46 -8 -83 -42.5t-71 -88.5l-88 -142h-148l111 173q25 39 48 70t48 54.5t53 40t63 27.5l-182 300h147l186 -313
l68 313h140z" />
    <glyph glyph-name="afii10072" unicode="&#x436;" horiz-adv-x="780" 
d="M317 206q-29 -3 -56.5 -22.5t-51.5 -64.5l-64 -119h-145l73 131q35 63 77 104t95 54l-124 195h140l118 -190l41 190h136l-41 -189l200 189h140l-210 -195q48 -13 72 -54t32 -104l17 -131h-145l-12 119q-8 45 -27 64.5t-45 22.5l-52 -44l-34 -162h-136l35 162z" />
    <glyph glyph-name="afii10026" unicode="&#x418;" horiz-adv-x="738" 
d="M355 665l-94 -426l358 332l21 94h133l-147 -665h-133q22 103 44.5 204t44.5 204l-357 -328l-17 -80h-133l147 665h133z" />
    <glyph glyph-name="afii10053" unicode="&#x404;" horiz-adv-x="545" 
d="M603 556q-29 8 -65 14t-72 6q-38 0 -69 -10t-56 -32.5t-44.5 -58.5t-34.5 -89h239l-21 -98h-239q-4 -21 -5.5 -39.5t-1.5 -34.5q0 -36 6.5 -60.5t21.5 -39t38.5 -20.5t57.5 -6q36 0 76 8t75 17l-11 -100q-38 -11 -81.5 -18t-87.5 -7q-59 0 -104 12t-75.5 38t-46.5 67
t-16 100q0 30 4 60t12 69q21 96 56 161.5t83 105.5t109.5 57.5t135.5 17.5q42 0 78.5 -6t66.5 -13z" />
    <glyph glyph-name="afii10051" unicode="&#x402;" horiz-adv-x="713" 
d="M566 167q5 23 6.5 37t1.5 27q0 42 -24.5 63t-78.5 21q-37 0 -68 -5t-52 -10l-66 -300h-136l125 565h-180l22 100h495l-22 -100h-179l-36 -161q29 5 59 8t65 3q117 0 166.5 -41t49.5 -116q0 -21 -2.5 -41.5t-7.5 -41.5q-12 -55 -36.5 -97.5t-59 -77t-76.5 -63t-88 -56.5
l-44 78q36 27 64 50.5t48 47.5t33 50.5t21 59.5z" />
    <glyph glyph-name="afii10058" unicode="&#x409;" horiz-adv-x="940" 
d="M712 665l-53 -242h76q106 0 158.5 -32.5t52.5 -110.5q0 -32 -9 -72q-13 -60 -38.5 -101.5t-61.5 -68t-81.5 -38.5t-98.5 -12q-54 0 -108.5 6t-115.5 20l120 546h-154l-102 -317q-42 -132 -108.5 -193t-155.5 -61q-28 0 -45 5q-9 3 -16 6l23 104q4 -1 9 -1q4 -1 9.5 -1
h11.5q41 0 78.5 34.5t60.5 106.5l134 422h414zM587 96q18 -4 35 -6t36 -2q75 0 112.5 43.5t37.5 124.5q0 38 -22.5 53.5t-71.5 15.5h-77z" />
    <glyph glyph-name="afii10059" unicode="&#x40a;" horiz-adv-x="983" 
d="M358 665l-55 -247h262l54 247h136l-53 -242h76q106 0 158.5 -32.5t52.5 -110.5q0 -32 -9 -72q-13 -60 -38.5 -101.5t-61.5 -68t-81.5 -38.5t-98.5 -12q-54 0 -109 6t-115 20l66 300h-262l-69 -314h-136l147 665h136zM630 96q17 -4 34.5 -6t36.5 -2q75 0 112.5 43.5
t37.5 124.5q0 38 -22.5 53.5t-71.5 15.5h-77z" />
    <glyph glyph-name="afii10060" unicode="&#x40b;" horiz-adv-x="746" 
d="M540 0l41 186q2 12 3 23t1 21q0 85 -104 85q-37 0 -68 -5t-52 -10l-66 -300h-136l125 565h-180l22 100h495l-22 -100h-179l-36 -161q29 5 59 8t65 3q59 0 100 -11t67 -31t38 -50t12 -67q0 -17 -2.5 -36.5t-7.5 -40.5l-39 -179h-136z" />
    <glyph glyph-name="afii10145" unicode="&#x40f;" horiz-adv-x="720" 
d="M75 0l147 665h136l-124 -561h267l124 561h136l-147 -665h-201l-33 -150h-137l34 150h-202z" />
    <glyph glyph-name="afii10099" unicode="&#x452;" horiz-adv-x="555" 
d="M136 659h74l15 71h134l-16 -71h140l-21 -96h-140l-22 -101q24 5 49.5 8t49.5 3q37 0 68 -6.5t53 -21t34.5 -38t12.5 -57.5q0 -12 -2 -25t-5 -28l-28 -129q-12 -55 -29 -98t-44.5 -79t-67.5 -69t-98 -67l-45 76q37 28 61.5 51.5t41 47t26 49.5t16.5 59l33 154q2 8 3 15
t1 13q0 33 -19 45t-50 12q-20 0 -43 -3.5t-39 -7.5l-79 -366h-133l122 563h-74z" />
    <glyph glyph-name="uni20BD" unicode="&#x20bd;" horiz-adv-x="603" 
d="M92 353h69l68 312h212q108 0 160.5 -34t52.5 -109q0 -26 -8 -63q-12 -56 -37 -94t-61 -61t-82 -33.5t-101 -10.5h-89l-13 -58h202l-21 -91h-201l-24 -111h-136l24 111h-69l21 91h68l13 58h-69zM372 353q65 0 96 25t43 81q5 22 5 37q0 35 -23 52t-74 17h-76l-46 -212h75z
" />
    <glyph glyph-name="afii10106" unicode="&#x459;" horiz-adv-x="769" 
d="M570 484l-34 -154q20 5 36.5 7.5t38.5 2.5q90 0 130.5 -33.5t40.5 -91.5q0 -50 -16.5 -91.5t-49 -71.5t-80 -46.5t-110.5 -16.5q-51 0 -102.5 8.5t-89.5 19.5l82 370h-107l-71 -204q-15 -42 -33.5 -77.5t-44 -61.5t-57.5 -41t-74 -15q-11 0 -19.5 2t-16.5 4q-9 3 -16 6
l21 96q2 0 7 -1t13 -1q27 0 53.5 21.5t40.5 66.5l99 302h359zM578 243q-19 0 -31.5 -2t-23.5 -4l-9 -3l-31 -142q3 -2 18 -5t40 -3q45 0 73 25.5t28 79.5q0 25 -14.5 39.5t-49.5 14.5z" />
    <glyph glyph-name="afii10107" unicode="&#x45a;" horiz-adv-x="793" 
d="M559 330q18 4 36.5 7t39.5 3q90 0 130 -33t40 -91q0 -50 -16 -91.5t-48.5 -71.5t-80 -47t-110.5 -17q-51 0 -102.5 8.5t-90.5 19.5l47 211h-159l-50 -228h-132l107 484h132l-36 -159h159l36 159h133zM506 92q3 -2 18 -5t41 -3q44 0 72.5 25.5t28.5 79.5q0 25 -15 39.5
t-50 14.5q-22 0 -36.5 -2.5t-27.5 -6.5z" />
    <glyph glyph-name="afii10108" unicode="&#x45b;" horiz-adv-x="559" 
d="M136 659h74l15 71h134l-16 -71h140l-21 -96h-140l-22 -101q24 5 49.5 8t49.5 3q37 0 68 -6.5t53 -21t34.5 -38t12.5 -57.5q0 -12 -2 -25t-5 -28l-64 -297h-133l63 292q2 8 3 15t1 13q0 33 -19 45t-50 12q-20 0 -43 -3.5t-39 -7.5l-79 -366h-133l122 563h-74z" />
    <glyph glyph-name="afii10193" unicode="&#x45f;" horiz-adv-x="567" 
d="M344 0l-27 -120h-132l27 120h-149l107 484h132l-86 -387h165l86 387h133l-54 -242t-53 -242h-149z" />
    <glyph glyph-name="afii10062" unicode="&#x40e;" horiz-adv-x="585" 
d="M409 900q-1 -5 -1.5 -9t-0.5 -8q0 -43 44 -43q54 0 69 60h97q-19 -75 -64.5 -106.5t-111.5 -31.5q-59 0 -95 25t-36 82q0 16 3 31h96zM114 -16q-12 22 -24.5 43.5t-25.5 43.5q39 21 72 44.5t58.5 44t42 36t22.5 21.5q-31 112 -61 224l-60 224h144l81 -352
q36 42 68.5 88.5t60.5 92.5t50 90t39 81h134q-29 -61 -66.5 -127t-82 -132t-96.5 -129t-109 -118.5t-119 -100.5t-128 -74z" />
    <glyph glyph-name="currency" unicode="&#xa4;" horiz-adv-x="603" 
d="M92 353h69l68 312h212q108 0 160.5 -34t52.5 -109q0 -26 -8 -63q-12 -56 -37 -94t-61 -61t-82 -33.5t-101 -10.5h-89l-13 -58h202l-21 -91h-201l-24 -111h-136l24 111h-69l21 91h68l13 58h-69zM372 353q65 0 96 25t43 81q5 22 5 37q0 35 -23 52t-74 17h-76l-46 -212h75z
" />
    <glyph glyph-name="afii10050" unicode="&#x490;" horiz-adv-x="512" 
d="M510 665l25 114h122l-47 -214h-275l-122 -565h-138l145 665h290z" />
    <glyph glyph-name="afii10098" unicode="&#x491;" horiz-adv-x="402" 
d="M464 387h-187l-86 -387h-131l107 484h200l27 126h119z" />
    <glyph glyph-name="afii61352" unicode="&#x2116;" horiz-adv-x="1064" 
d="M960 448q-25 0 -47.5 -22t-36.5 -83q-6 -29 -6 -48q0 -33 12.5 -46.5t30.5 -13.5q25 0 47 23t36 83q6 30 6 49q0 32 -12 45t-30 13zM975 518q57 0 92.5 -29t35.5 -92q0 -27 -7 -56q-10 -48 -29.5 -81.5t-45.5 -54.5t-57.5 -30.5t-65.5 -9.5q-57 0 -92.5 29.5t-35.5 93.5
q0 13 1 26t5 29q10 48 29.5 81.5t45.5 54t57.5 30t66.5 9.5zM1016 95l-21 -95h-270l20 95h271zM328 665l224 -370l79 370h134q-35 -168 -71 -332.5t-72 -332.5h-134l30 144l-207 332l-102 -476h-134q36 168 72 332.5t71 332.5h110z" />
    <glyph glyph-name="afii10101" unicode="&#x454;" horiz-adv-x="421" 
d="M459 386q-20 5 -46 9t-55 4q-45 0 -75.5 -23.5t-48.5 -83.5h146l-21 -96h-144q-2 -7 -2 -18v-16q0 -42 18 -59.5t60 -17.5q27 0 54 5t54 12l-11 -95q-28 -8 -65 -13t-69 -5q-85 0 -131.5 38t-46.5 127q0 37 8 83q24 131 96 194.5t189 63.5q14 0 30.5 -1t32 -3t30 -4
t24.5 -5z" />
    <glyph glyph-name="afii10018" unicode="&#x411;" horiz-adv-x="591" 
d="M628 665q-5 -25 -10.5 -50t-11.5 -50h-270l-32 -142h76q106 0 159.5 -31.5t53.5 -109.5q0 -32 -9 -74q-14 -61 -39.5 -103t-61.5 -68t-81.5 -37.5t-99.5 -11.5t-108.5 6t-115.5 20l144 651h406zM232 96q20 -4 37 -6t35 -2q74 0 112.5 41.5t38.5 128.5q0 39 -23 53t-73 14
h-76z" />
    <glyph glyph-name="afii10021" unicode="&#x414;" horiz-adv-x="663" 
d="M-2 104h38q22 14 42 36q17 19 36 49t33 72l129 404h419l-123 -561h86l-74 -256h-119l34 152h-387l-51 -152h-119zM280 262q-14 -42 -33 -72t-37 -49q-21 -23 -43 -37h269l100 457h-160z" />
    <glyph glyph-name="afii10025" unicode="&#x417;" horiz-adv-x="513" 
d="M289 391q52 0 83.5 19.5t42.5 72.5q4 16 4 30q0 34 -23 48t-69 14q-42 0 -82 -6t-80 -17l11 100q42 11 86.5 18t98.5 7q94 0 146.5 -34t52.5 -104q0 -11 -1 -23t-4 -25q-10 -43 -31 -71.5t-42 -45.5q-25 -20 -53 -32q19 -8 35 -22q14 -12 25 -32t11 -52q0 -20 -4 -39
q-25 -111 -99.5 -160t-194.5 -49q-57 0 -100.5 7t-81.5 18l33 100q37 -11 76.5 -18t83.5 -7q57 0 94.5 22.5t48.5 76.5q4 18 4 35q0 37 -24.5 53t-73.5 16h-69l23 100h73z" />
    <glyph glyph-name="afii10029" unicode="&#x41b;" horiz-adv-x="676" 
d="M717 665l-146 -665h-136l123 560h-159l-102 -317q-43 -133 -109.5 -193.5t-154.5 -60.5q-28 0 -45 5q-9 3 -16 6l12 52t11 52q3 0 10.5 -1t19.5 -1q41 0 78.5 34.5t60.5 106.5l134 422h419z" />
    <glyph glyph-name="afii10037" unicode="&#x423;" horiz-adv-x="580" 
d="M104 -16q-12 22 -24.5 43.5t-25.5 43.5q39 21 72 44.5t58.5 44t42 36t22.5 21.5q-31 112 -61 224l-60 224h144l81 -352q36 42 68.5 88.5t60.5 92.5t50 90t39 81h134q-29 -61 -66.5 -127t-82 -132t-96.5 -129t-109 -118.5t-119 -100.5t-128 -74z" />
    <glyph glyph-name="afii10038" unicode="&#x424;" horiz-adv-x="811" 
d="M238 332q-5 -21 -7.5 -39t-2.5 -33q0 -54 31.5 -75t98.5 -21l74 336q-42 0 -74 -8.5t-55 -28t-39 -51.5t-26 -80zM688 332q9 42 9 72q0 54 -31.5 75t-97.5 21l-74 -336q42 0 74 8.5t55 28t38.5 52t26.5 79.5zM453 -20h-136l18 84q-123 0 -184 44.5t-61 137.5q0 41 10 85
q31 138 118 203.5t236 65.5l19 85h136l-19 -85q124 0 185 -45t61 -138q0 -20 -3 -41t-8 -45q-30 -137 -117.5 -202t-236.5 -65z" />
    <glyph glyph-name="afii10040" unicode="&#x426;" horiz-adv-x="714" 
d="M75 0l147 665h136l-123 -561h255l123 561h136l-123 -561h87l-75 -256h-119l34 152h-478z" />
    <glyph glyph-name="afii10041" unicode="&#x427;" horiz-adv-x="677" 
d="M337 665l-41 -188q-5 -20 -8 -38.5t-3 -35.5q0 -84 104 -84q38 0 68.5 5t51.5 10l73 331h136l-147 -665h-136l50 230q-29 -5 -58 -8t-64 -3q-119 0 -168.5 41.5t-49.5 117.5q0 24 2.5 49.5t9.5 52.5l44 185h136z" />
    <glyph glyph-name="afii10042" unicode="&#x428;" horiz-adv-x="955" 
d="M75 0l147 665h136l-124 -561h184l123 561h136l-123 -561h183l123 561h136l-146 -665h-775z" />
    <glyph glyph-name="afii10043" unicode="&#x429;" horiz-adv-x="961" 
d="M75 0l147 665h136l-124 -561h184l123 561h136l-123 -561h183l123 561h136l-123 -561h87l-74 -256h-120l34 152h-725z" />
    <glyph glyph-name="afii10044" unicode="&#x42a;" horiz-adv-x="644" 
d="M416 665l-53 -242h71q106 0 158 -32.5t52 -110.5q0 -17 -1.5 -34.5t-6.5 -37.5q-13 -60 -38.5 -101.5t-61.5 -68t-81.5 -38.5t-98.5 -12q-54 0 -106 6t-113 20l120 544h-149l23 107h285zM291 96q17 -4 32 -6t34 -2q75 0 112.5 43t37.5 124q0 38 -22.5 54t-71.5 16h-72z
" />
    <glyph glyph-name="afii10045" unicode="&#x42b;" horiz-adv-x="872" 
d="M358 665l-53 -242h71q106 0 158 -32.5t52 -110.5q0 -16 -1.5 -34t-6.5 -38q-13 -60 -38.5 -101.5t-61.5 -68t-81.5 -38.5t-98.5 -12q-54 0 -106.5 6t-113.5 20l144 651h136zM233 96q17 -4 32 -6t34 -2q75 0 112.5 43.5t37.5 124.5q0 38 -23 53.5t-72 15.5h-71zM913 665
l-147 -665h-136l147 665h136z" />
    <glyph glyph-name="afii10046" unicode="&#x42c;" horiz-adv-x="595" 
d="M358 665l-54 -242h76q107 0 160.5 -31t53.5 -110q0 -34 -9 -74q-14 -62 -40 -104t-62.5 -67.5t-82 -37t-98.5 -11.5q-54 0 -108.5 6t-115.5 20l144 651h136zM232 96q20 -4 37 -6t35 -2q34 0 58 7t41.5 22t28 37.5t17.5 53.5q3 14 5 26.5t2 23.5q0 38 -23.5 52.5
t-73.5 14.5h-76z" />
    <glyph glyph-name="afii10047" unicode="&#x42d;" horiz-adv-x="548" 
d="M173 653q34 9 81.5 16t91.5 7q115 0 176 -49.5t61 -165.5q0 -32 -4 -62t-12 -69q-21 -96 -55.5 -161.5t-81.5 -105.5t-106.5 -57.5t-131.5 -17.5q-43 0 -85 6.5t-73 14.5l28 100q30 -8 71 -14.5t76 -6.5q37 0 68 10.5t56 34t44.5 61.5t34.5 94h-243l22 98h241
q4 20 5.5 35t1.5 30q0 70 -27 97.5t-91 27.5q-36 0 -79.5 -7.5t-78.5 -15.5z" />
    <glyph glyph-name="afii10048" unicode="&#x42e;" horiz-adv-x="940" 
d="M750 676q107 0 162.5 -49t55.5 -158q0 -30 -5 -64.5t-13 -73.5q-40 -181 -127 -262t-225 -81q-108 0 -163 49.5t-55 158.5q0 21 2 44t6 49h-113l-64 -289h-136l147 665h136l-60 -272h115q45 149 129 216t208 67zM728 574q-33 0 -60.5 -12t-51 -40.5t-43 -75t-34.5 -114.5
q-8 -33 -12 -60t-4 -50q0 -74 22.5 -104t74.5 -30q33 0 61 12t51 40.5t42 75t34 116.5q16 71 16 123q0 66 -25 92.5t-71 26.5z" />
    <glyph glyph-name="afii10049" unicode="&#x42f;" horiz-adv-x="616" 
d="M664 665l-146 -665h-138l52 235h-74q-22 0 -38.5 -5.5t-30.5 -17.5t-26.5 -30.5t-26.5 -45.5l-73 -136h-143l88 165q26 50 54.5 77.5t70.5 42.5q-18 5 -34.5 14.5t-28.5 23.5t-19.5 33.5t-7.5 45.5q0 19 5 47q12 60 38.5 101t65 66.5t88.5 37t110 11.5h214zM505 565h-77
q-63 0 -96 -26.5t-47 -90.5q-2 -11 -3.5 -20t-1.5 -18q0 -75 100 -75h73z" />
    <glyph glyph-name="afii10066" unicode="&#x431;" horiz-adv-x="550" 
d="M548 226q-24 -113 -93.5 -175t-188.5 -62q-90 0 -135.5 41t-45.5 129q0 12 1 25.5t4 32t7.5 43t11.5 58.5q21 98 52.5 166.5t73 113.5t93.5 69.5t115 34.5l157 24l-13 -117l-156 -23q-32 -5 -58 -16t-46.5 -30.5t-37 -49t-29.5 -69.5q12 12 31 23q17 9 42.5 16.5
t61.5 7.5q164 0 164 -155q0 -20 -3 -41t-8 -46zM225 227q-10 -41 -10 -71q0 -40 18 -55.5t52 -15.5q48 0 77 30.5t46 110.5q9 42 9 71q0 39 -18 55t-51 16q-46 0 -75 -32t-48 -109z" />
    <glyph glyph-name="afii10067" unicode="&#x432;" horiz-adv-x="508" 
d="M159 466q18 5 41.5 10.5t50 9.5t54 6.5t53.5 2.5q49 0 82 -8t53 -22t28.5 -33t8.5 -41q0 -38 -15 -64t-32 -42q-21 -18 -47 -30q20 -7 36 -19q14 -11 25.5 -28.5t11.5 -44.5q0 -34 -15.5 -65.5t-47.5 -55.5t-80.5 -38.5t-113.5 -14.5q-23 0 -49 2.5t-51.5 6.5t-49 9
t-42.5 10zM233 206l-27 -121q5 -2 19.5 -4.5t47.5 -2.5q54 0 77.5 24.5t23.5 57.5q0 20 -16 33t-57 13h-68zM331 403q-16 0 -32.5 -2.5t-24.5 -5.5l-21 -99h37q51 0 72 14t26 40q1 5 1 11q0 19 -11.5 30.5t-46.5 11.5z" />
    <glyph glyph-name="afii10068" unicode="&#x433;" horiz-adv-x="405" 
d="M138 482q23 4 61 8t77 4q38 0 71 -4.5t57 -15t38 -28.5t14 -44q0 -40 -20 -71t-50 -55.5t-64.5 -45t-64.5 -39.5t-50 -39t-20 -44q0 -17 17.5 -23t46.5 -6q40 0 81.5 8t70.5 17l-20 -91q-35 -11 -82 -17.5t-91 -6.5q-33 0 -62.5 5t-51.5 16t-35 28.5t-13 43.5
q0 39 20.5 70.5t50.5 57t66 47t66 41t50.5 38.5t20.5 40q0 18 -20 24t-53 6q-17 0 -36 -1.5t-37 -4t-33.5 -5t-25.5 -4.5z" />
    <glyph glyph-name="afii10073" unicode="&#x437;" horiz-adv-x="417" 
d="M262 495q50 0 84.5 -9.5t55.5 -25t30 -35.5t9 -41q0 -38 -16 -62.5t-36 -39.5q-23 -18 -52 -27q20 -5 36 -16q14 -10 25 -27t11 -43q0 -38 -18 -70.5t-52 -56.5t-82 -38t-108 -14q-34 0 -68 4.5t-58 12.5l31 90q23 -7 47 -11.5t62 -4.5q30 0 50.5 6.5t33 17.5t18.5 24.5
t6 28.5q0 19 -16.5 34t-56.5 15h-52q5 21 9.5 42t9.5 42h48q47 0 67 20.5t20 45.5q0 16 -14 29.5t-49 13.5q-29 0 -57 -4t-51 -9l10 96q11 2 26 4.5t31.5 4t33.5 2.5t32 1z" />
    <glyph glyph-name="afii10077" unicode="&#x43b;" horiz-adv-x="550" 
d="M583 484l-105 -484h-135l84 387h-101l-68 -207q-30 -91 -83.5 -141.5t-130.5 -50.5q-11 0 -20.5 2t-17.5 4q-9 3 -16 6l20 95q2 -1 6 -1q4 -1 15 -1q28 0 55 21.5t41 66.5l98 303h358z" />
    <glyph glyph-name="afii10078" unicode="&#x43c;" horiz-adv-x="680" 
d="M322 127l-66 162l-64 -289h-132l107 484h122l100 -230l200 230h123l-107 -484h-132l64 289l-138 -162h-77z" />
    <glyph glyph-name="afii10079" unicode="&#x43d;" horiz-adv-x="564" 
d="M300 484l-44 -194h165l43 194h133l-107 -484h-133l43 194h-165l-42 -194h-133l107 484h133z" />
    <glyph glyph-name="afii10085" unicode="&#x443;" horiz-adv-x="506" 
d="M167 25l-66 459h137l39 -353q24 36 47.5 73t47.5 79t48 91.5t48 109.5h126q-20 -49 -48.5 -108.5t-64.5 -124t-78.5 -130t-91 -126t-102 -112.5t-111.5 -89l-51 79q49 38 90.5 76.5t64.5 75.5h-35z" />
    <glyph glyph-name="afii10086" unicode="&#x444;" horiz-adv-x="764" 
d="M311 -5q-16 -2 -31 -4t-29 -2q-37 0 -68.5 8t-55 27t-36.5 50t-13 77q0 42 12 98q15 68 42 115t63.5 76t81 42t94.5 13q24 0 50 -3l38 173h132l-38 -173q25 3 50 3q41 0 74.5 -8.5t57.5 -28t37 -50t13 -73.5q0 -39 -10 -86q-17 -75 -45 -125t-64 -80t-78.5 -42.5
t-88.5 -12.5q-14 0 -28.5 2t-27.5 4l-41 -183h-132zM579 399q-11 0 -23.5 -1t-24.5 -3l-67 -306q11 -2 23 -3t25 -1q23 0 42 7.5t34.5 26t27.5 50t23 79.5q10 46 10 79q0 42 -18.5 57t-51.5 15zM281 85q13 0 25.5 1t25.5 3l67 306q-12 2 -24.5 3t-22.5 1q-23 0 -42 -6.5
t-34 -23.5t-27 -46t-22 -75q-7 -29 -10 -51.5t-3 -39.5q0 -42 17 -57t50 -15z" />
    <glyph glyph-name="afii10089" unicode="&#x447;" horiz-adv-x="533" 
d="M362 171q-5 -3 -33.5 -10.5t-71.5 -7.5q-30 0 -57.5 6t-48.5 21t-33.5 39.5t-12.5 61.5q0 23 6 49l34 154h133l-35 -155q-4 -19 -4 -32q0 -27 17 -37.5t44 -10.5q16 0 31 3t26 6.5t18 7l9 4.5l46 214h135l-105 -484h-135z" />
    <glyph glyph-name="afii10092" unicode="&#x44a;" horiz-adv-x="540" 
d="M315 330q14 4 31 7t37 3q88 0 130 -34t42 -95q0 -49 -18 -89.5t-52 -70t-81.5 -46t-107.5 -16.5q-51 0 -97.5 8.5t-85.5 19.5l80 365h-122l23 102h255zM261 92q2 0 11 -3.5t22 -3.5h27q37 3 64 28.5t27 74.5q0 25 -15.5 40t-47.5 15q-20 0 -33 -2.5t-24 -6.5z" />
    <glyph glyph-name="afii10093" unicode="&#x44b;" horiz-adv-x="755" 
d="M262 330q15 4 32 7t37 3q87 0 129.5 -34t42.5 -95q0 -49 -18.5 -89.5t-52 -70t-81.5 -46t-107 -16.5q-52 0 -98.5 8.5t-85.5 19.5l104 467h133zM209 92q2 0 11 -3.5t22 -3.5h27q37 3 63.5 28.5t26.5 74.5q0 25 -15.5 40t-47.5 15q-19 0 -32 -2.5t-24 -6.5zM775 484
q-26 -121 -53 -242l-54 -242h-132l54 242t53 242h132z" />
    <glyph glyph-name="afii10094" unicode="&#x44c;" horiz-adv-x="492" 
d="M262 330q17 5 34 7.5t39 2.5q90 0 131.5 -33.5t41.5 -93.5q0 -49 -17 -90t-50 -71t-82 -46.5t-113 -16.5q-48 0 -97.5 8.5t-88.5 19.5l104 467h133zM209 92q4 -1 16 -4.5t34 -3.5q51 0 80 27.5t29 75.5q0 25 -16 40.5t-50 15.5q-22 0 -35 -2.5t-27 -6.5z" />
    <glyph glyph-name="afii10095" unicode="&#x44d;" horiz-adv-x="419" 
d="M132 479q24 8 60.5 12t68.5 4q85 0 132.5 -37.5t47.5 -125.5q0 -85 -21.5 -149.5t-60 -107.5t-92 -64.5t-117.5 -21.5q-30 0 -64.5 4.5t-57.5 10.5l27 96q23 -6 48 -10.5t55 -4.5q48 0 78 25.5t48 81.5h-146l21 96h144v32q0 45 -18.5 62t-58.5 17q-26 0 -53 -5t-51 -10z
" />
    <glyph glyph-name="afii10096" unicode="&#x44e;" horiz-adv-x="753" 
d="M763 242q-29 -134 -100.5 -193.5t-177.5 -59.5q-88 0 -133 39.5t-45 128.5q0 17 3 37h-76l-42 -194h-132l107 484h132l-43 -193h76q35 107 102 156t164 49q86 0 131.5 -38.5t45.5 -122.5q0 -41 -12 -93zM627 242q5 26 8 46t3 37q0 42 -15.5 58t-46.5 16q-21 0 -39 -8
t-33 -26t-27 -48t-22 -75q-6 -26 -8.5 -46t-2.5 -36q0 -42 15.5 -58.5t47.5 -16.5q21 0 38.5 8t32.5 26t27 48t22 75z" />
    <glyph glyph-name="afii10097" unicode="&#x44f;" horiz-adv-x="531" 
d="M323 0l35 161h-40q-38 0 -66.5 -21.5t-45.5 -50.5l-51 -89h-140l51 91q17 30 37.5 50.5t38.5 33.5q21 15 42 24q-20 7 -35 20q-14 11 -24.5 30t-10.5 48q0 8 1 16.5t3 17.5q8 34 26.5 64.5t49 52.5t74.5 35t102 13q47 0 98 -8.5t91 -21.5l-103 -466h-133zM409 391
q-9 3 -24.5 6t-35.5 3q-45 0 -67 -18.5t-30 -54.5q-2 -7 -2 -13v-11q0 -24 15.5 -36t51.5 -12h62z" />
    <glyph glyph-name="afii10027" unicode="&#x419;" horiz-adv-x="738" 
d="M483 900q-1 -5 -1.5 -9t-0.5 -8q0 -43 44 -43q54 0 69 60h97q-19 -75 -64.5 -106.5t-111.5 -31.5q-59 0 -95 25t-36 82q0 16 3 31h96zM355 665q-24 -107 -47.5 -213t-46.5 -213l358 332l21 94h133l-147 -665h-133q22 103 44.5 204t44.5 204l-357 -328l-17 -80h-133
l147 665h133z" />
    <glyph glyph-name="afii10069" unicode="&#x434;" horiz-adv-x="538" 
d="M474 7q-13 -62 -37.5 -101.5t-59 -63t-78 -32.5t-95.5 -9q-43 0 -88 7.5t-71 17.5l21 96q28 -9 69.5 -17.5t79.5 -8.5q51 0 81.5 22.5t41.5 75.5l6 30q-23 -11 -50.5 -17.5t-56.5 -6.5q-33 0 -62 8.5t-51 27.5t-34.5 50t-12.5 76q0 84 23.5 147t64 104t94 61.5
t113.5 20.5q53 0 105 -11.5t94 -27.5zM423 388q-14 4 -33 7.5t-38 3.5q-26 0 -51 -13t-44.5 -40.5t-31.5 -70t-12 -101.5q0 -43 15 -59.5t47 -16.5q20 0 46.5 10t46.5 24z" />
    <glyph glyph-name="afii10100" unicode="&#x453;" horiz-adv-x="405" 
d="M138 482q23 4 61 8t77 4q38 0 71 -4.5t57 -15t38 -28.5t14 -44q0 -40 -20 -71t-50 -55.5t-64.5 -45t-64.5 -39.5t-50 -39t-20 -44q0 -17 17.5 -23t46.5 -6q40 0 81.5 8t70.5 17l-20 -91q-35 -11 -82 -17.5t-91 -6.5q-33 0 -62.5 5t-51.5 16t-35 28.5t-13 43.5
q0 39 20.5 70.5t50.5 57t66 47t66 41t50.5 38.5t20.5 40q0 18 -20 24t-53 6q-17 0 -36 -1.5t-37 -4t-33.5 -5t-25.5 -4.5zM487 730l-133 -161h-104l95 161h142z" />
    <glyph glyph-name="nonbreakingspace" unicode="&#xa0;" horiz-adv-x="266" 
 />
    <glyph glyph-name="afii10110" unicode="&#x45e;" horiz-adv-x="506" 
d="M167 25l-66 459h137l39 -353q24 36 47.5 73t47.5 79t48 91.5t48 109.5h126q-20 -49 -48.5 -108.5t-64.5 -124t-78.5 -130t-91 -126t-102 -112.5t-111.5 -89l-51 79q49 38 90.5 76.5t64.5 75.5h-35zM336 718q-1 -5 -1.5 -9t-0.5 -8q0 -43 44 -43q54 0 69 60h97
q-19 -75 -64.5 -106.5t-111.5 -31.5q-59 0 -95 25t-36 82q0 14 3 31h96z" />
    </font>
</defs>
</svg>
