<?xml version="1.0" standalone="no"?>
<!DOCTYPE svg PUBLIC "-//W3C//DTD SVG 1.1//EN" "http://www.w3.org/Graphics/SVG/1.1/DTD/svg11.dtd" >
<svg xmlns="http://www.w3.org/2000/svg" xmlns:xlink="http://www.w3.org/1999/xlink" version="1.1">
<metadata>
Created by FontForge 20161116 at Tue Feb  7 14:42:02 2017
 By Jimmy Wärting
Copyright (c) 2010 by Dassault Systmes Company. All rights reserved.
</metadata>
<defs>
<font id="3ds-ExtraLight" horiz-adv-x="605" >
  <font-face 
    font-family="3ds ExtraLight"
    font-weight="250"
    font-stretch="normal"
    units-per-em="1000"
    panose-1="2 0 5 3 2 0 0 2 0 4"
    ascent="800"
    descent="-200"
    x-height="474"
    cap-height="665"
    bbox="-34 -232 1176 1021"
    underline-thickness="50"
    underline-position="-100"
    unicode-range="U+000D-FB02"
  />
<missing-glyph horiz-adv-x="631" 
d="M506 665v-665h-381v665h381zM155 28h321v609h-321v-609z" />
    <glyph glyph-name="fi" unicode="fi" horiz-adv-x="540" 
d="M433 474v-474h-27v450h-248v-450h-27v450h-83v24h83v99q0 44 12.5 74t34.5 48.5t52.5 26.5t67.5 8q14 0 32.5 -1t37 -3.5t36 -5.5t29.5 -6l-5 -24q-12 3 -28 6t-34 5t-35.5 3.5t-32.5 1.5q-32 0 -58 -6t-44 -21.5t-28 -41t-10 -64.5v-99h275z" />
    <glyph glyph-name="fl" unicode="fl" horiz-adv-x="541" 
d="M406 695q-23 5 -54 8t-54 3q-32 0 -58 -6t-44 -21.5t-28 -41t-10 -64.5v-99h159v-24h-159v-450h-27v450h-83v24h83v99q0 44 12.5 74t34.5 48.5t52.5 26.5t67.5 8q15 0 33.5 -1.5t37.5 -3.5t36 -5.5t29 -6.5v-713h-28v695z" />
    <glyph glyph-name=".notdef" horiz-adv-x="631" 
d="M506 665v-665h-381v665h381zM155 28h321v609h-321v-609z" />
    <glyph glyph-name=".null" horiz-adv-x="0" 
 />
    <glyph glyph-name=".null" horiz-adv-x="0" 
 />
    <glyph glyph-name="nonmarkingreturn" unicode="&#xd;" horiz-adv-x="245" 
 />
    <glyph glyph-name="space" unicode=" " horiz-adv-x="245" 
 />
    <glyph glyph-name="A" unicode="A" horiz-adv-x="686" 
d="M141 0h-30v432q0 51 11.5 95.5t39 77t72 51t110.5 18.5t111 -18.5t72 -51.5t38.5 -77t11.5 -95v-432h-30v280h-406v-280zM547 308v123q0 45 -9 84t-32 68.5t-62.5 46t-99.5 16.5t-99.5 -16.5t-62.5 -46t-32 -68.5t-9 -84v-123h406z" />
    <glyph glyph-name="B" unicode="B" horiz-adv-x="613" 
d="M150 37q30 -7 73.5 -12.5t94.5 -5.5q55 0 91 11.5t58 32t31 48.5t9 61q0 38 -9.5 66t-32 46.5t-59 27.5t-90.5 9h-166v-284zM150 349h166q170 0 170 152q0 72 -41.5 104t-133.5 32h-161v-288zM312 665q102 0 153.5 -39.5t51.5 -124.5q0 -41 -10.5 -69.5t-26.5 -48
t-36 -30.5t-39 -16q25 -5 49 -15.5t43 -29.5t30 -48.5t11 -71.5q0 -38 -11.5 -71t-37 -57.5t-68 -38.5t-103.5 -14q-56 0 -102 7t-96 18v649h192z" />
    <glyph glyph-name="C" unicode="C" horiz-adv-x="578" 
d="M78 330q0 102 19.5 168.5t55 105.5t85.5 54.5t112 15.5q42 0 82 -3.5t81 -10.5l-6 -28q-38 7 -79 10.5t-77 3.5q-58 0 -103 -14.5t-75.5 -50.5t-46.5 -97t-16 -154q0 -92 16.5 -152t46.5 -95.5t72.5 -49.5t93.5 -14q40 0 84.5 4t89.5 12l3 -27q-46 -10 -93 -13.5
t-84 -3.5q-58 0 -106 17t-82.5 56.5t-53.5 104.5t-19 161z" />
    <glyph glyph-name="D" unicode="D" horiz-adv-x="676" 
d="M324 665q138 0 206 -79.5t68 -254.5q0 -90 -18.5 -154.5t-53.5 -105.5t-86 -60.5t-116 -19.5q-53 0 -102.5 7t-96.5 18v649h199zM155 37q32 -8 76.5 -13t92.5 -5q56 0 100.5 16t76 52.5t48.5 96.5t17 147q0 82 -14 140t-43 95t-75 54t-110 17h-169v-600z" />
    <glyph glyph-name="E" unicode="E" horiz-adv-x="555" 
d="M478 665v-28h-328v-277h291v-28h-291v-214q0 -45 25 -67.5t73 -22.5h246v-28h-246q-62 0 -95 31t-33 86v548h358z" />
    <glyph glyph-name="F" unicode="F" horiz-adv-x="547" 
d="M479 665v-28h-324v-275h289v-28h-289v-334h-30v665h354z" />
    <glyph glyph-name="G" unicode="G" horiz-adv-x="678" 
d="M560 631q-27 4 -51 7t-48.5 4.5t-50.5 2.5t-57 1q-63 0 -109 -17.5t-76 -55t-44 -97t-14 -143.5q0 -90 15 -150t45 -96.5t75.5 -52t106.5 -15.5q25 0 52.5 1.5t53.5 4t49 6t40 6.5v293h-177v28h208v-342q-52 -12 -111.5 -18.5t-114.5 -6.5q-66 0 -117.5 17.5t-86 58
t-52.5 105.5t-18 161q0 172 64.5 256.5t210.5 84.5q31 0 58 -1t52 -3t49.5 -4.5t52.5 -6.5z" />
    <glyph glyph-name="H" unicode="H" horiz-adv-x="748" 
d="M155 665v-307h438v307h30v-665h-30v330h-438v-330h-30v665h30z" />
    <glyph glyph-name="I" unicode="I" horiz-adv-x="280" 
d="M155 665v-665h-30v665h30z" />
    <glyph glyph-name="J" unicode="J" horiz-adv-x="281" 
d="M155 665v-623q0 -30 -6 -55t-22 -51.5t-44.5 -57.5t-72.5 -71l-17 23q41 36 67 64.5t40.5 53t19.5 47.5t5 47v623h30z" />
    <glyph glyph-name="K" unicode="K" horiz-adv-x="572" 
d="M155 665v-395l362 395h35l-271 -296q39 -9 68 -23.5t51.5 -35t40.5 -48t33 -62.5l88 -200h-32l-84 189q-15 33 -31 58.5t-37 45t-49 32.5t-67 20l-107 -112v-233h-30v665h30z" />
    <glyph glyph-name="L" unicode="L" horiz-adv-x="503" 
d="M155 665v-637h322v-28h-352v665h30z" />
    <glyph glyph-name="M" unicode="M" horiz-adv-x="897" 
d="M433 221l-280 403v-624h-28v665h33l290 -417l290 417h33v-665h-28v624l-281 -403h-29z" />
    <glyph glyph-name="N" unicode="N" horiz-adv-x="753" 
d="M155 665l445 -462v462h28v-665h-28v164l-447 464v-628h-28v665h30z" />
    <glyph glyph-name="O" unicode="O" horiz-adv-x="682" 
d="M341 674q61 0 110 -17.5t83 -57.5t52 -105.5t18 -161.5q0 -95 -18 -160t-52 -105.5t-83 -58t-110 -17.5t-110 17.5t-83 58t-52 105.5t-18 160q0 96 18 161.5t52 105.5t83 57.5t110 17.5zM341 646q-56 0 -99.5 -16t-72.5 -53t-44 -97t-15 -148t15 -148t44 -96.5
t72.5 -52.5t99.5 -16t99 16t72.5 52.5t44.5 96.5t15 148t-15 148t-44.5 97t-72.5 53t-99 16z" />
    <glyph glyph-name="P" unicode="P" horiz-adv-x="620" 
d="M155 303q44 -8 85 -12t79 -4q60 0 100 11.5t63.5 34t33.5 55.5t10 77q0 49 -11 82t-35 53t-62 28.5t-92 8.5h-171v-334zM326 665q56 0 99 -10t72.5 -33t44.5 -61.5t15 -95.5q0 -105 -57 -155.5t-181 -50.5q-38 0 -79.5 4t-84.5 12v-275h-30v665h201z" />
    <glyph glyph-name="Q" unicode="Q" horiz-adv-x="682" 
d="M295 -74q26 0 62.5 -9t73 -19.5t69.5 -19t53 -8.5q30 0 50.5 9.5t41.5 29.5l17 -20q-23 -23 -48 -35t-61 -12q-22 0 -56.5 8.5t-71.5 19t-72 19.5t-58 9v28zM341 674q61 0 110 -17.5t83 -57.5t52 -105.5t18 -161.5q0 -95 -18 -160t-52 -105.5t-83 -58t-110 -17.5
t-110 17.5t-83 58t-52 105.5t-18 160q0 96 18 161.5t52 105.5t83 57.5t110 17.5zM341 646q-56 0 -99.5 -16t-72.5 -53t-44 -97t-15 -148t15 -148t44 -96.5t72.5 -52.5t99.5 -16t99 16t72.5 52.5t44.5 96.5t15 148t-15 148t-44.5 97t-72.5 53t-99 16z" />
    <glyph glyph-name="R" unicode="R" horiz-adv-x="644" 
d="M325 665q56 0 99.5 -9.5t73 -32t44.5 -60t15 -92.5q0 -48 -12 -81.5t-33 -56t-50.5 -34.5t-63.5 -18q20 -7 34 -18.5t25 -26.5t20.5 -33.5t19.5 -40.5l72 -162h-33l-67 154q-11 26 -23.5 49t-32.5 40q-35 30 -93 30q-76 0 -165 16v-289h-30v665h200zM155 317
q46 -9 86 -12.5t78 -3.5q58 0 98 10.5t64 31.5t34.5 53t10.5 75q0 48 -11.5 80t-36 51t-62.5 27t-91 8h-170v-320z" />
    <glyph glyph-name="S" unicode="S" horiz-adv-x="534" 
d="M438 632q-38 6 -76.5 10t-78.5 4q-33 0 -63.5 -3.5t-54 -14t-38 -29t-14.5 -49.5q0 -35 26 -67.5t65.5 -65t85.5 -65t85.5 -68t65.5 -74t26 -82.5q0 -38 -15 -64t-40.5 -42.5t-60 -23.5t-73.5 -7q-59 0 -114 10.5t-96 23.5l5 27q40 -13 93.5 -23t111.5 -10
q71 0 114.5 24.5t43.5 80.5q0 41 -26 77.5t-65.5 70.5t-85.5 67t-85.5 66.5t-65.5 68t-26 73.5q0 40 18 64.5t46.5 38.5t64.5 19t72 5q47 0 84.5 -4.5t75.5 -10.5z" />
    <glyph glyph-name="T" unicode="T" horiz-adv-x="556" 
d="M534 665v-28h-241v-637h-30v637h-241v28h512z" />
    <glyph glyph-name="U" unicode="U" horiz-adv-x="700" 
d="M142 665v-425q0 -45 10 -85t34.5 -70t66 -48t103.5 -18q75 0 122 9.5t77 17.5v619h30v-638q-24 -7 -47.5 -13.5t-50.5 -11.5t-59 -8t-71 -3q-69 0 -116 20t-75.5 53.5t-41 79t-12.5 96.5v425h30z" />
    <glyph glyph-name="V" unicode="V" horiz-adv-x="552" 
d="M286 30q37 74 73 150.5t66.5 155.5t54.5 161t39 168h29q-17 -90 -41.5 -174t-56 -165.5t-69.5 -162t-82 -163.5h-31q-64 170 -132 333t-132 332h33l249 -635v0z" />
    <glyph glyph-name="W" unicode="W" horiz-adv-x="880" 
d="M670 28q64 154 104.5 310.5t60.5 326.5h27q-12 -94 -27 -175t-35 -159t-47.5 -158.5t-66.5 -172.5h-34l-208 494l-210 -494h-34q-48 171 -92 333t-90 332h31l170 -636l206 491h37z" />
    <glyph glyph-name="X" unicode="X" horiz-adv-x="537" 
d="M35 665h34l202 -295l209 295h34l-226 -319l235 -346h-35l-218 320l-223 -320h-34l240 345z" />
    <glyph glyph-name="Y" unicode="Y" horiz-adv-x="467" 
d="M223 239l-228 426h35l212 -395q32 36 63.5 81.5t58.5 96.5t46.5 106t27.5 111h29q-10 -60 -30.5 -118.5t-49 -112.5t-63 -103t-73.5 -91v-240h-28v239z" />
    <glyph glyph-name="Z" unicode="Z" horiz-adv-x="592" 
d="M532 665v-22l-437 -615h446v-28h-490v19l443 618h-428v28h466z" />
    <glyph glyph-name="Agrave" unicode="&#xc0;" horiz-adv-x="686" 
d="M141 0h-30v432q0 51 11.5 95.5t39 77t72 51t110.5 18.5t111 -18.5t72 -51.5t38.5 -77t11.5 -95v-432h-30v280h-406v-280zM547 308v123q0 45 -9 84t-32 68.5t-62.5 46t-99.5 16.5t-99.5 -16.5t-62.5 -46t-32 -68.5t-9 -84v-123h406zM266 916l93 -161h-29l-97 161h33z" />
    <glyph glyph-name="Aacute" unicode="&#xc1;" horiz-adv-x="686" 
d="M141 0h-30v432q0 51 11.5 95.5t39 77t72 51t110.5 18.5t111 -18.5t72 -51.5t38.5 -77t11.5 -95v-432h-30v280h-406v-280zM547 308v123q0 45 -9 84t-32 68.5t-62.5 46t-99.5 16.5t-99.5 -16.5t-62.5 -46t-32 -68.5t-9 -84v-123h406zM452 916l-97 -161h-29l93 161h33z" />
    <glyph glyph-name="Acircumflex" unicode="&#xc2;" horiz-adv-x="686" 
d="M141 0h-30v432q0 51 11.5 95.5t39 77t72 51t110.5 18.5t111 -18.5t72 -51.5t38.5 -77t11.5 -95v-432h-30v280h-406v-280zM547 308v123q0 45 -9 84t-32 68.5t-62.5 46t-99.5 16.5t-99.5 -16.5t-62.5 -46t-32 -68.5t-9 -84v-123h406zM360 916l94 -161h-28l-83 137l-83 -137
h-28l94 161h34z" />
    <glyph glyph-name="Atilde" unicode="&#xc3;" horiz-adv-x="686" 
d="M141 0h-30v432q0 51 11.5 95.5t39 77t72 51t110.5 18.5t111 -18.5t72 -51.5t38.5 -77t11.5 -95v-432h-30v280h-406v-280zM547 308v123q0 45 -9 84t-32 68.5t-62.5 46t-99.5 16.5t-99.5 -16.5t-62.5 -46t-32 -68.5t-9 -84v-123h406zM208 808q7 23 22.5 40t47.5 17
q14 0 31.5 -6t36 -13t35.5 -13t29 -6q22 0 30.5 11.5t13.5 27.5l25 -8q-7 -23 -22.5 -40t-47.5 -17q-14 0 -31.5 6t-36 13t-35.5 13t-29 6q-21 0 -30 -11.5t-14 -27.5z" />
    <glyph glyph-name="Adieresis" unicode="&#xc4;" horiz-adv-x="686" 
d="M141 0h-30v432q0 51 11.5 95.5t39 77t72 51t110.5 18.5t111 -18.5t72 -51.5t38.5 -77t11.5 -95v-432h-30v280h-406v-280zM547 308v123q0 45 -9 84t-32 68.5t-62.5 46t-99.5 16.5t-99.5 -16.5t-62.5 -46t-32 -68.5t-9 -84v-123h406zM285 841q0 -23 -25 -23t-25 23t25 23
t25 -23zM451 842q0 -23 -25 -23t-25 23t25 23t25 -23z" />
    <glyph glyph-name="Amacron" unicode="&#x100;" horiz-adv-x="686" 
d="M141 0h-30v432q0 51 11.5 95.5t39 77t72 51t110.5 18.5t111 -18.5t72 -51.5t38.5 -77t11.5 -95v-432h-30v280h-406v-280zM547 308v123q0 45 -9 84t-32 68.5t-62.5 46t-99.5 16.5t-99.5 -16.5t-62.5 -46t-32 -68.5t-9 -84v-123h406zM451 847v-24h-216v24h216z" />
    <glyph glyph-name="Abreve" unicode="&#x102;" horiz-adv-x="686" 
d="M141 0h-30v432q0 51 11.5 95.5t39 77t72 51t110.5 18.5t111 -18.5t72 -51.5t38.5 -77t11.5 -95v-432h-30v280h-406v-280zM547 308v123q0 45 -9 84t-32 68.5t-62.5 46t-99.5 16.5t-99.5 -16.5t-62.5 -46t-32 -68.5t-9 -84v-123h406zM342 777q-56 0 -93 30t-37 86h27
q2 -50 30.5 -70t72.5 -20t72.5 20t30.5 70h27q0 -56 -37 -86t-93 -30z" />
    <glyph glyph-name="Aring" unicode="&#xc5;" horiz-adv-x="686" 
d="M141 0h-30v432q0 51 11.5 95.5t39 77t72 51t110.5 18.5t111 -18.5t72 -51.5t38.5 -77t11.5 -95v-432h-30v280h-406v-280zM547 308v123q0 45 -9 84t-32 68.5t-62.5 46t-99.5 16.5t-99.5 -16.5t-62.5 -46t-32 -68.5t-9 -84v-123h406zM428 837q0 -34 -22.5 -55.5
t-62.5 -21.5t-62.5 21.5t-22.5 55.5q0 33 22.5 54.5t62.5 21.5t62.5 -21.5t22.5 -54.5zM403 837q0 25 -16 38.5t-44 13.5t-44 -13.5t-16 -38.5q0 -26 16 -39.5t44 -13.5t44 13.5t16 39.5z" />
    <glyph glyph-name="Aringacute" unicode="&#x1fa;" horiz-adv-x="686" 
d="M428 836q0 -34 -22.5 -55.5t-62.5 -21.5t-62.5 21.5t-22.5 54.5q0 30 18.5 50.5t51.5 25.5l62 110h33l-66 -110q34 -5 52.5 -25t18.5 -50zM403 836q0 26 -16 39.5t-44 13.5t-44 -13.5t-16 -39.5t16 -39.5t44 -13.5t44 13.5t16 39.5zM141 0h-30v432q0 51 11.5 95.5t39 77
t72 51t110.5 18.5t111 -18.5t72 -51.5t38.5 -77t11.5 -95v-432h-30v280h-406v-280zM547 308v123q0 45 -9 84t-32 68.5t-62.5 46t-99.5 16.5t-99.5 -16.5t-62.5 -46t-32 -68.5t-9 -84v-123h406z" />
    <glyph glyph-name="Aogonek" unicode="&#x104;" horiz-adv-x="686" 
d="M625 -155q-8 -3 -21.5 -5t-27.5 -2q-30 0 -52 15t-22 49t16.5 59t28.5 39v280h-406v-280h-30v432q0 51 11.5 95.5t39 77t72 51t110.5 18.5t111 -18.5t72 -51.5t38.5 -77t11.5 -95v-432q-7 -8 -16 -18t-16.5 -22.5t-12.5 -26.5t-5 -29q0 -24 13.5 -33t35.5 -9q26 0 46 6z
M547 308v123q0 45 -9 84t-32 68.5t-62.5 46t-99.5 16.5t-99.5 -16.5t-62.5 -46t-32 -68.5t-9 -84v-123h406z" />
    <glyph glyph-name="AE" unicode="&#xc6;" horiz-adv-x="982" 
d="M905 665v-28h-328v-277h291v-28h-291v-214q0 -45 25 -67.5t73 -22.5h246v-28h-246q-62 0 -95 31t-33 86v215h-406v-332h-30v432q0 51 11.5 95.5t39 77t72 51t110.5 18.5q82 0 130.5 -28t72.5 -76v95h358zM547 360v71q0 45 -9 84t-31.5 68.5t-62 46t-100.5 16.5
q-60 0 -99.5 -16.5t-62.5 -46t-32 -68.5t-9 -84v-71h406z" />
    <glyph glyph-name="AEacute" unicode="&#x1fc;" horiz-adv-x="982" 
d="M905 665v-28h-328v-277h291v-28h-291v-214q0 -45 25 -67.5t73 -22.5h246v-28h-246q-62 0 -95 31t-33 86v215h-406v-332h-30v432q0 51 11.5 95.5t39 77t72 51t110.5 18.5q82 0 130.5 -28t72.5 -76v95h358zM547 360v71q0 45 -9 84t-31.5 68.5t-62 46t-100.5 16.5
q-60 0 -99.5 -16.5t-62.5 -46t-32 -68.5t-9 -84v-71h406zM675 916l-97 -161h-29l93 161h33z" />
    <glyph glyph-name="Cacute" unicode="&#x106;" horiz-adv-x="578" 
d="M78 330q0 102 19.5 168.5t55 105.5t85.5 54.5t112 15.5q42 0 82 -3.5t81 -10.5l-6 -28q-38 7 -79 10.5t-77 3.5q-58 0 -103 -14.5t-75.5 -50.5t-46.5 -97t-16 -154q0 -92 16.5 -152t46.5 -95.5t72.5 -49.5t93.5 -14q40 0 84.5 4t89.5 12l3 -27q-46 -10 -93 -13.5
t-84 -3.5q-58 0 -106 17t-82.5 56.5t-53.5 104.5t-19 161zM433 916l-97 -161h-29l93 161h33z" />
    <glyph glyph-name="Ccircumflex" unicode="&#x108;" horiz-adv-x="578" 
d="M78 330q0 102 19.5 168.5t55 105.5t85.5 54.5t112 15.5q42 0 82 -3.5t81 -10.5l-6 -28q-38 7 -79 10.5t-77 3.5q-58 0 -103 -14.5t-75.5 -50.5t-46.5 -97t-16 -154q0 -92 16.5 -152t46.5 -95.5t72.5 -49.5t93.5 -14q40 0 84.5 4t89.5 12l3 -27q-46 -10 -93 -13.5
t-84 -3.5q-58 0 -106 17t-82.5 56.5t-53.5 104.5t-19 161zM338 916l94 -161h-28l-83 137l-83 -137h-28l94 161h34z" />
    <glyph glyph-name="Ccaron" unicode="&#x10c;" horiz-adv-x="578" 
d="M78 330q0 102 19.5 168.5t55 105.5t85.5 54.5t112 15.5q42 0 82 -3.5t81 -10.5l-6 -28q-38 7 -79 10.5t-77 3.5q-58 0 -103 -14.5t-75.5 -50.5t-46.5 -97t-16 -154q0 -92 16.5 -152t46.5 -95.5t72.5 -49.5t93.5 -14q40 0 84.5 4t89.5 12l3 -27q-46 -10 -93 -13.5
t-84 -3.5q-58 0 -106 17t-82.5 56.5t-53.5 104.5t-19 161zM304 755l-94 161h28l83 -137l83 137h28l-94 -161h-34z" />
    <glyph glyph-name="Cdotaccent" unicode="&#x10a;" horiz-adv-x="578" 
d="M78 330q0 102 19.5 168.5t55 105.5t85.5 54.5t112 15.5q42 0 82 -3.5t81 -10.5l-6 -28q-38 7 -79 10.5t-77 3.5q-58 0 -103 -14.5t-75.5 -50.5t-46.5 -97t-16 -154q0 -92 16.5 -152t46.5 -95.5t72.5 -49.5t93.5 -14q40 0 84.5 4t89.5 12l3 -27q-46 -10 -93 -13.5
t-84 -3.5q-58 0 -106 17t-82.5 56.5t-53.5 104.5t-19 161zM346 842q0 -23 -25 -23t-25 23t25 23t25 -23z" />
    <glyph glyph-name="Ccedilla" unicode="&#xc7;" horiz-adv-x="578" 
d="M78 330q0 102 19.5 168.5t55 105.5t85.5 54.5t112 15.5q42 0 82 -3.5t81 -10.5l-6 -28q-38 7 -79 10.5t-77 3.5q-58 0 -103 -14.5t-75.5 -50.5t-46.5 -97t-16 -154q0 -92 16.5 -152t46.5 -95.5t72.5 -49.5t93.5 -14q40 0 84.5 4t89.5 12l3 -27q-46 -10 -93 -13.5
t-84 -3.5q-58 0 -106 17t-82.5 56.5t-53.5 104.5t-19 161zM333 -46q11 -19 22 -43.5t11 -45.5q0 -32 -19 -45t-48 -13q-13 0 -28.5 2.5t-27.5 7.5l5 23q11 -4 25 -6.5t26 -2.5q19 0 29.5 7t10.5 27q0 21 -11 45t-23 44h28z" />
    <glyph glyph-name="Dcaron" unicode="&#x10e;" horiz-adv-x="677" 
d="M325 665q138 0 206 -79.5t68 -254.5q0 -90 -18.5 -154.5t-53.5 -105.5t-86 -60.5t-116 -19.5q-53 0 -102.5 7t-96.5 18v649h199zM156 37q32 -8 76.5 -13t92.5 -5q56 0 100.5 16t76 52.5t48.5 96.5t17 147q0 82 -14 140t-43 95t-75 54t-110 17h-169v-600zM322 755l-94 161
h28l83 -137l83 137h28l-94 -161h-34z" />
    <glyph glyph-name="Dcroat" unicode="&#x110;" horiz-adv-x="667" 
d="M20 358h96v307h199q138 0 206 -79.5t68 -254.5q0 -90 -18.5 -154.5t-53.5 -105.5t-86 -60.5t-116 -19.5q-53 0 -102.5 7t-96.5 18v314h-96v28zM146 358h197v-28h-197v-293q32 -8 76.5 -13t92.5 -5q56 0 100.5 16t76 52.5t48.5 96.5t17 147q0 82 -14 140t-43 95t-75 54
t-110 17h-169v-279z" />
    <glyph glyph-name="Egrave" unicode="&#xc8;" horiz-adv-x="555" 
d="M478 665v-28h-328v-277h291v-28h-291v-214q0 -45 25 -67.5t73 -22.5h246v-28h-246q-62 0 -95 31t-33 86v548h358zM228 916l93 -161h-29l-97 161h33z" />
    <glyph glyph-name="Eacute" unicode="&#xc9;" horiz-adv-x="555" 
d="M478 665v-28h-328v-277h291v-28h-291v-214q0 -45 25 -67.5t73 -22.5h246v-28h-246q-62 0 -95 31t-33 86v548h358zM418 916l-97 -161h-29l93 161h33z" />
    <glyph glyph-name="Ecircumflex" unicode="&#xca;" horiz-adv-x="555" 
d="M478 665v-28h-328v-277h291v-28h-291v-214q0 -45 25 -67.5t73 -22.5h246v-28h-246q-62 0 -95 31t-33 86v548h358zM313 916l94 -161h-28l-83 137l-83 -137h-28l94 161h34z" />
    <glyph glyph-name="Ecaron" unicode="&#x11a;" horiz-adv-x="555" 
d="M478 665v-28h-328v-277h291v-28h-291v-214q0 -45 25 -67.5t73 -22.5h246v-28h-246q-62 0 -95 31t-33 86v548h358zM280 755l-94 161h28l83 -137l83 137h28l-94 -161h-34z" />
    <glyph glyph-name="Edieresis" unicode="&#xcb;" horiz-adv-x="555" 
d="M478 665v-28h-328v-277h291v-28h-291v-214q0 -45 25 -67.5t73 -22.5h246v-28h-246q-62 0 -95 31t-33 86v548h358zM239 843q0 -23 -25 -23t-25 23t25 23t25 -23zM405 844q0 -23 -25 -23t-25 23t25 23t25 -23z" />
    <glyph glyph-name="Emacron" unicode="&#x112;" horiz-adv-x="555" 
d="M478 665v-28h-328v-277h291v-28h-291v-214q0 -45 25 -67.5t73 -22.5h246v-28h-246q-62 0 -95 31t-33 86v548h358zM405 847v-24h-216v24h216z" />
    <glyph glyph-name="Ebreve" unicode="&#x114;" horiz-adv-x="555" 
d="M478 665v-28h-328v-277h291v-28h-291v-214q0 -45 25 -67.5t73 -22.5h246v-28h-246q-62 0 -95 31t-33 86v548h358zM296 777q-56 0 -93 30t-37 86h27q2 -50 30.5 -70t72.5 -20t72.5 20t30.5 70h27q0 -56 -37 -86t-93 -30z" />
    <glyph glyph-name="Edotaccent" unicode="&#x116;" horiz-adv-x="555" 
d="M478 665v-28h-328v-277h291v-28h-291v-214q0 -45 25 -67.5t73 -22.5h246v-28h-246q-62 0 -95 31t-33 86v548h358zM322 842q0 -23 -25 -23t-25 23t25 23t25 -23z" />
    <glyph glyph-name="Eogonek" unicode="&#x118;" horiz-adv-x="555" 
d="M494 -155q-8 -3 -21.5 -5t-27.5 -2q-30 0 -52 15t-22 49t16.5 59t29.5 39h-169q-62 0 -95 31t-33 86v548h358v-28h-328v-277h291v-28h-291v-214q0 -45 25 -67.5t73 -22.5h246v-28h-48q-7 -8 -16 -18t-16.5 -22.5t-12.5 -26.5t-5 -29q0 -24 13.5 -33t35.5 -9q26 0 46 6z
" />
    <glyph glyph-name="Gcircumflex" unicode="&#x11c;" horiz-adv-x="678" 
d="M560 631q-27 4 -51 7t-48.5 4.5t-50.5 2.5t-57 1q-63 0 -109 -17.5t-76 -55t-44 -97t-14 -143.5q0 -90 15 -150t45 -96.5t75.5 -52t106.5 -15.5q25 0 52.5 1.5t53.5 4t49 6t40 6.5v293h-177v28h208v-342q-52 -12 -111.5 -18.5t-114.5 -6.5q-66 0 -117.5 17.5t-86 58
t-52.5 105.5t-18 161q0 172 64.5 256.5t210.5 84.5q31 0 58 -1t52 -3t49.5 -4.5t52.5 -6.5zM350 916l94 -161h-28l-83 137l-83 -137h-28l94 161h34z" />
    <glyph glyph-name="Gbreve" unicode="&#x11e;" horiz-adv-x="678" 
d="M560 631q-27 4 -51 7t-48.5 4.5t-50.5 2.5t-57 1q-63 0 -109 -17.5t-76 -55t-44 -97t-14 -143.5q0 -90 15 -150t45 -96.5t75.5 -52t106.5 -15.5q25 0 52.5 1.5t53.5 4t49 6t40 6.5v293h-177v28h208v-342q-52 -12 -111.5 -18.5t-114.5 -6.5q-66 0 -117.5 17.5t-86 58
t-52.5 105.5t-18 161q0 172 64.5 256.5t210.5 84.5q31 0 58 -1t52 -3t49.5 -4.5t52.5 -6.5zM333 777q-56 0 -93 30t-37 86h27q2 -50 30.5 -70t72.5 -20t72.5 20t30.5 70h27q0 -56 -37 -86t-93 -30z" />
    <glyph glyph-name="Gdotaccent" unicode="&#x120;" horiz-adv-x="678" 
d="M560 631q-27 4 -51 7t-48.5 4.5t-50.5 2.5t-57 1q-63 0 -109 -17.5t-76 -55t-44 -97t-14 -143.5q0 -90 15 -150t45 -96.5t75.5 -52t106.5 -15.5q25 0 52.5 1.5t53.5 4t49 6t40 6.5v293h-177v28h208v-342q-52 -12 -111.5 -18.5t-114.5 -6.5q-66 0 -117.5 17.5t-86 58
t-52.5 105.5t-18 161q0 172 64.5 256.5t210.5 84.5q31 0 58 -1t52 -3t49.5 -4.5t52.5 -6.5zM359 842q0 -23 -25 -23t-25 23t25 23t25 -23z" />
    <glyph glyph-name="Gcommaaccent" unicode="&#x122;" horiz-adv-x="678" 
d="M560 631q-27 4 -51 7t-48.5 4.5t-50.5 2.5t-57 1q-63 0 -109 -17.5t-76 -55t-44 -97t-14 -143.5q0 -90 15 -150t45 -96.5t75.5 -52t106.5 -15.5q25 0 52.5 1.5t53.5 4t49 6t40 6.5v293h-177v28h208v-342q-52 -12 -111.5 -18.5t-114.5 -6.5q-66 0 -117.5 17.5t-86 58
t-52.5 105.5t-18 161q0 172 64.5 256.5t210.5 84.5q31 0 58 -1t52 -3t49.5 -4.5t52.5 -6.5zM394 -46l-87 -142h-28l84 142h31z" />
    <glyph glyph-name="Hcircumflex" unicode="&#x124;" horiz-adv-x="748" 
d="M155 665v-307h438v307h30v-665h-30v330h-438v-330h-30v665h30zM391 916l94 -161h-28l-83 137l-83 -137h-28l94 161h34z" />
    <glyph glyph-name="Hbar" unicode="&#x126;" horiz-adv-x="758" 
d="M160 665v-157h438v157h30v-157h98v-26h-98v-482h-30v330h-438v-330h-30v482h-98v26h98v157h30zM598 358v124h-438v-124h438z" />
    <glyph glyph-name="Igrave" unicode="&#xcc;" horiz-adv-x="280" 
d="M155 665v-665h-30v665h30zM61 916l93 -161h-29l-97 161h33z" />
    <glyph glyph-name="Iacute" unicode="&#xcd;" horiz-adv-x="280" 
d="M155 665v-665h-30v665h30zM252 916l-97 -161h-29l93 161h33z" />
    <glyph glyph-name="Icircumflex" unicode="&#xce;" horiz-adv-x="280" 
d="M155 665v-665h-30v665h30zM156 916l94 -161h-28l-83 137l-83 -137h-28l94 161h34z" />
    <glyph glyph-name="Itilde" unicode="&#x128;" horiz-adv-x="280" 
d="M155 665v-665h-30v665h30zM4 808q7 23 22.5 40t47.5 17q14 0 31.5 -6t36 -13t35.5 -13t29 -6q22 0 30.5 11.5t13.5 27.5l25 -8q-7 -23 -22.5 -40t-47.5 -17q-14 0 -31.5 6t-36 13t-35.5 13t-29 6q-21 0 -30 -11.5t-14 -27.5z" />
    <glyph glyph-name="Idieresis" unicode="&#xcf;" horiz-adv-x="280" 
d="M155 665v-665h-30v665h30zM81 843q0 -23 -25 -23t-25 23t25 23t25 -23zM247 844q0 -23 -25 -23t-25 23t25 23t25 -23z" />
    <glyph glyph-name="Imacron" unicode="&#x12a;" horiz-adv-x="280" 
d="M155 665v-665h-30v665h30zM247 846v-24h-216v24h216z" />
    <glyph glyph-name="Ibreve" unicode="&#x12c;" horiz-adv-x="280" 
d="M155 665v-665h-30v665h30zM139 777q-56 0 -93 30t-37 86h27q2 -50 30.5 -70t72.5 -20t72.5 20t30.5 70h27q0 -56 -37 -86t-93 -30z" />
    <glyph glyph-name="Idotaccent" unicode="&#x130;" horiz-adv-x="280" 
d="M155 665v-665h-30v665h30zM164 842q0 -23 -25 -23t-25 23t25 23t25 -23z" />
    <glyph glyph-name="Iogonek" unicode="&#x12e;" horiz-adv-x="280" 
d="M203 -155q-8 -3 -21.5 -5t-27.5 -2q-30 0 -52 15t-22 49t16.5 59t28.5 39v665h30v-664q-7 -8 -16 -18t-16.5 -22.5t-12.5 -27t-5 -29.5q0 -24 13.5 -33t35.5 -9q26 0 46 6z" />
    <glyph glyph-name="Jcircumflex" unicode="&#x134;" horiz-adv-x="281" 
d="M155 665v-623q0 -30 -6 -55t-22 -51.5t-44.5 -57.5t-72.5 -71l-17 23q41 36 67 64.5t40.5 53t19.5 47.5t5 47v623h30zM157 916l94 -161h-28l-83 137l-83 -137h-28l94 161h34z" />
    <glyph glyph-name="Kcommaaccent" unicode="&#x136;" horiz-adv-x="572" 
d="M155 665v-395l362 395h35l-271 -296q39 -9 68 -23.5t51.5 -35t40.5 -48t33 -62.5l88 -200h-32l-84 189q-15 33 -31 58.5t-37 45t-49 32.5t-67 20l-107 -112v-233h-30v665h30zM369 -46l-87 -142h-28l84 142h31z" />
    <glyph glyph-name="Lacute" unicode="&#x139;" horiz-adv-x="503" 
d="M155 665v-637h322v-28h-352v665h30zM253 916l-97 -161h-29l93 161h33z" />
    <glyph glyph-name="Lcaron" unicode="&#x13d;" horiz-adv-x="503" 
d="M155 665v-637h322v-28h-352v665h30zM124 755l-94 161h28l83 -137l83 137h28l-94 -161h-34z" />
    <glyph glyph-name="Lcommaaccent" unicode="&#x13b;" horiz-adv-x="503" 
d="M155 665v-637h322v-28h-352v665h30zM337 -46l-87 -142h-28l84 142h31z" />
    <glyph glyph-name="Lslash" unicode="&#x141;" horiz-adv-x="503" 
d="M155 665v-333l209 82v-28l-209 -83v-275h322v-28h-352v294l-98 -39v28l98 39v343h30z" />
    <glyph glyph-name="Nacute" unicode="&#x143;" horiz-adv-x="753" 
d="M155 665l445 -462v462h28v-665h-28v164l-447 464v-628h-28v665h30zM494 916l-97 -161h-29l93 161h33z" />
    <glyph glyph-name="Ncaron" unicode="&#x147;" horiz-adv-x="753" 
d="M155 665l445 -462v462h28v-665h-28v164l-447 464v-628h-28v665h30zM359 755l-94 161h28l83 -137l83 137h28l-94 -161h-34z" />
    <glyph glyph-name="Ntilde" unicode="&#xd1;" horiz-adv-x="753" 
d="M155 665l445 -462v462h28v-665h-28v164l-447 464v-628h-28v665h30zM241 808q7 23 22.5 40t47.5 17q14 0 31.5 -6t36 -13t35.5 -13t29 -6q22 0 30.5 11.5t13.5 27.5l25 -8q-7 -23 -22.5 -40t-47.5 -17q-14 0 -31.5 6t-36 13t-35.5 13t-29 6q-21 0 -30 -11.5t-14 -27.5z
" />
    <glyph glyph-name="Ncommaaccent" unicode="&#x145;" horiz-adv-x="753" 
d="M155 665l445 -462v462h28v-665h-28v164l-447 464v-628h-28v665h30zM405 -46l-87 -142h-28l84 142h31z" />
    <glyph glyph-name="Ograve" unicode="&#xd2;" horiz-adv-x="682" 
d="M341 674q61 0 110 -17.5t83 -57.5t52 -105.5t18 -161.5q0 -95 -18 -160t-52 -105.5t-83 -58t-110 -17.5t-110 17.5t-83 58t-52 105.5t-18 160q0 96 18 161.5t52 105.5t83 57.5t110 17.5zM341 646q-56 0 -99.5 -16t-72.5 -53t-44 -97t-15 -148t15 -148t44 -96.5
t72.5 -52.5t99.5 -16t99 16t72.5 52.5t44.5 96.5t15 148t-15 148t-44.5 97t-72.5 53t-99 16zM262 916l93 -161h-29l-97 161h33z" />
    <glyph glyph-name="Oacute" unicode="&#xd3;" horiz-adv-x="682" 
d="M341 674q61 0 110 -17.5t83 -57.5t52 -105.5t18 -161.5q0 -95 -18 -160t-52 -105.5t-83 -58t-110 -17.5t-110 17.5t-83 58t-52 105.5t-18 160q0 96 18 161.5t52 105.5t83 57.5t110 17.5zM341 646q-56 0 -99.5 -16t-72.5 -53t-44 -97t-15 -148t15 -148t44 -96.5
t72.5 -52.5t99.5 -16t99 16t72.5 52.5t44.5 96.5t15 148t-15 148t-44.5 97t-72.5 53t-99 16zM450 916l-97 -161h-29l93 161h33z" />
    <glyph glyph-name="Ocircumflex" unicode="&#xd4;" horiz-adv-x="682" 
d="M341 674q61 0 110 -17.5t83 -57.5t52 -105.5t18 -161.5q0 -95 -18 -160t-52 -105.5t-83 -58t-110 -17.5t-110 17.5t-83 58t-52 105.5t-18 160q0 96 18 161.5t52 105.5t83 57.5t110 17.5zM341 646q-56 0 -99.5 -16t-72.5 -53t-44 -97t-15 -148t15 -148t44 -96.5
t72.5 -52.5t99.5 -16t99 16t72.5 52.5t44.5 96.5t15 148t-15 148t-44.5 97t-72.5 53t-99 16zM358 916l94 -161h-28l-83 137l-83 -137h-28l94 161h34z" />
    <glyph glyph-name="Otilde" unicode="&#xd5;" horiz-adv-x="682" 
d="M341 674q61 0 110 -17.5t83 -57.5t52 -105.5t18 -161.5q0 -95 -18 -160t-52 -105.5t-83 -58t-110 -17.5t-110 17.5t-83 58t-52 105.5t-18 160q0 96 18 161.5t52 105.5t83 57.5t110 17.5zM341 646q-56 0 -99.5 -16t-72.5 -53t-44 -97t-15 -148t15 -148t44 -96.5
t72.5 -52.5t99.5 -16t99 16t72.5 52.5t44.5 96.5t15 148t-15 148t-44.5 97t-72.5 53t-99 16zM206 808q7 23 22.5 40t47.5 17q14 0 31.5 -6t36 -13t35.5 -13t29 -6q22 0 30.5 11.5t13.5 27.5l25 -8q-7 -23 -22.5 -40t-47.5 -17q-14 0 -31.5 6t-36 13t-35.5 13t-29 6
q-21 0 -30 -11.5t-14 -27.5z" />
    <glyph glyph-name="Odieresis" unicode="&#xd6;" horiz-adv-x="682" 
d="M341 674q61 0 110 -17.5t83 -57.5t52 -105.5t18 -161.5q0 -95 -18 -160t-52 -105.5t-83 -58t-110 -17.5t-110 17.5t-83 58t-52 105.5t-18 160q0 96 18 161.5t52 105.5t83 57.5t110 17.5zM341 646q-56 0 -99.5 -16t-72.5 -53t-44 -97t-15 -148t15 -148t44 -96.5
t72.5 -52.5t99.5 -16t99 16t72.5 52.5t44.5 96.5t15 148t-15 148t-44.5 97t-72.5 53t-99 16zM283 843q0 -23 -25 -23t-25 23t25 23t25 -23zM449 844q0 -23 -25 -23t-25 23t25 23t25 -23z" />
    <glyph glyph-name="Omacron" unicode="&#x14c;" horiz-adv-x="682" 
d="M341 674q61 0 110 -17.5t83 -57.5t52 -105.5t18 -161.5q0 -95 -18 -160t-52 -105.5t-83 -58t-110 -17.5t-110 17.5t-83 58t-52 105.5t-18 160q0 96 18 161.5t52 105.5t83 57.5t110 17.5zM341 646q-56 0 -99.5 -16t-72.5 -53t-44 -97t-15 -148t15 -148t44 -96.5
t72.5 -52.5t99.5 -16t99 16t72.5 52.5t44.5 96.5t15 148t-15 148t-44.5 97t-72.5 53t-99 16zM449 848v-24h-216v24h216z" />
    <glyph glyph-name="Obreve" unicode="&#x14e;" horiz-adv-x="682" 
d="M341 674q61 0 110 -17.5t83 -57.5t52 -105.5t18 -161.5q0 -95 -18 -160t-52 -105.5t-83 -58t-110 -17.5t-110 17.5t-83 58t-52 105.5t-18 160q0 96 18 161.5t52 105.5t83 57.5t110 17.5zM341 646q-56 0 -99.5 -16t-72.5 -53t-44 -97t-15 -148t15 -148t44 -96.5
t72.5 -52.5t99.5 -16t99 16t72.5 52.5t44.5 96.5t15 148t-15 148t-44.5 97t-72.5 53t-99 16zM341 778q-56 0 -93 30t-37 86h27q2 -50 30.5 -70t72.5 -20t72.5 20t30.5 70h27q0 -56 -37 -86t-93 -30z" />
    <glyph glyph-name="Ohungarumlaut" unicode="&#x150;" horiz-adv-x="682" 
d="M341 674q61 0 110 -17.5t83 -57.5t52 -105.5t18 -161.5q0 -95 -18 -160t-52 -105.5t-83 -58t-110 -17.5t-110 17.5t-83 58t-52 105.5t-18 160q0 96 18 161.5t52 105.5t83 57.5t110 17.5zM341 646q-56 0 -99.5 -16t-72.5 -53t-44 -97t-15 -148t15 -148t44 -96.5
t72.5 -52.5t99.5 -16t99 16t72.5 52.5t44.5 96.5t15 148t-15 148t-44.5 97t-72.5 53t-99 16zM374 916l-67 -161h-26l62 161h31zM495 916l-79 -161h-27l76 161h30z" />
    <glyph glyph-name="Oslash" unicode="&#xd8;" horiz-adv-x="682" 
d="M341 674q51 0 94 -12.5t75 -39.5l56 86l23 -16l-58 -90q35 -41 54 -106.5t19 -163.5q0 -95 -18 -160t-52 -105.5t-83 -58t-110 -17.5q-52 0 -94.5 12t-75.5 40l-56 -87l-23 15l59 92q-35 41 -54 106.5t-19 162.5q0 96 18 161.5t52 105.5t83 57.5t110 17.5zM187 68
q29 -26 67 -37.5t87 -11.5q56 0 99 16t72.5 53t44.5 97t15 147q0 88 -14.5 147t-43.5 96zM494 597q-29 26 -67 37.5t-86 11.5q-56 0 -99.5 -16t-72.5 -53t-44 -97t-15 -148t14.5 -147t43.5 -96z" />
    <glyph glyph-name="Oslashacute" unicode="&#x1fe;" horiz-adv-x="682" 
d="M341 674q51 0 94 -12.5t75 -39.5l56 86l23 -16l-58 -90q35 -41 54 -106.5t19 -163.5q0 -95 -18 -160t-52 -105.5t-83 -58t-110 -17.5q-52 0 -94.5 12t-75.5 40l-56 -87l-23 15l59 92q-35 41 -54 106.5t-19 162.5q0 96 18 161.5t52 105.5t83 57.5t110 17.5zM187 68
q29 -26 67 -37.5t87 -11.5q56 0 99 16t72.5 53t44.5 97t15 147q0 88 -14.5 147t-43.5 96zM494 597q-29 26 -67 37.5t-86 11.5q-56 0 -99.5 -16t-72.5 -53t-44 -97t-15 -148t14.5 -147t43.5 -96zM450 916l-97 -161h-29l93 161h33z" />
    <glyph glyph-name="OE" unicode="&#x152;" horiz-adv-x="1007" 
d="M930 665v-28h-328v-277h291v-28h-291v-214q0 -45 25 -67.5t73 -22.5h246v-28h-246q-62 0 -95 31t-33 86v26q-29 -83 -87.5 -117.5t-143.5 -34.5q-61 0 -110 17.5t-83 58t-52 105.5t-18 160q0 96 18 161.5t52 105.5t83 57.5t110 17.5q84 0 143 -34.5t88 -116.5v142h358z
M341 646q-56 0 -99.5 -16t-72.5 -53t-44 -97t-15 -148t15 -148t44 -96.5t72.5 -52.5t99.5 -16t99 16t72.5 52.5t44.5 96.5t15 148t-15 148t-44.5 97t-72.5 53t-99 16z" />
    <glyph glyph-name="Racute" unicode="&#x154;" horiz-adv-x="644" 
d="M325 665q56 0 99.5 -9.5t73 -32t44.5 -60t15 -92.5q0 -48 -12 -81.5t-33 -56t-50.5 -34.5t-63.5 -18q20 -7 34 -18.5t25 -26.5t20.5 -33.5t19.5 -40.5l72 -162h-33l-67 154q-11 26 -23.5 49t-32.5 40q-35 30 -93 30q-76 0 -165 16v-289h-30v665h200zM155 317
q46 -9 86 -12.5t78 -3.5q58 0 98 10.5t64 31.5t34.5 53t10.5 75q0 48 -11.5 80t-36 51t-62.5 27t-91 8h-170v-320zM439 916l-97 -161h-29l93 161h33z" />
    <glyph glyph-name="Rcaron" unicode="&#x158;" horiz-adv-x="644" 
d="M325 665q56 0 99.5 -9.5t73 -32t44.5 -60t15 -92.5q0 -48 -12 -81.5t-33 -56t-50.5 -34.5t-63.5 -18q20 -7 34 -18.5t25 -26.5t20.5 -33.5t19.5 -40.5l72 -162h-33l-67 154q-11 26 -23.5 49t-32.5 40q-35 30 -93 30q-76 0 -165 16v-289h-30v665h200zM155 317
q46 -9 86 -12.5t78 -3.5q58 0 98 10.5t64 31.5t34.5 53t10.5 75q0 48 -11.5 80t-36 51t-62.5 27t-91 8h-170v-320zM307 755l-94 161h28l83 -137l83 137h28l-94 -161h-34z" />
    <glyph glyph-name="Rcommaaccent" unicode="&#x156;" horiz-adv-x="644" 
d="M325 665q56 0 99.5 -9.5t73 -32t44.5 -60t15 -92.5q0 -48 -12 -81.5t-33 -56t-50.5 -34.5t-63.5 -18q20 -7 34 -18.5t25 -26.5t20.5 -33.5t19.5 -40.5l72 -162h-33l-67 154q-11 26 -23.5 49t-32.5 40q-35 30 -93 30q-76 0 -165 16v-289h-30v665h200zM155 317
q46 -9 86 -12.5t78 -3.5q58 0 98 10.5t64 31.5t34.5 53t10.5 75q0 48 -11.5 80t-36 51t-62.5 27t-91 8h-170v-320zM379 -46l-87 -142h-28l84 142h31z" />
    <glyph glyph-name="Sacute" unicode="&#x15a;" horiz-adv-x="534" 
d="M438 632q-38 6 -76.5 10t-78.5 4q-33 0 -63.5 -3.5t-54 -14t-38 -29t-14.5 -49.5q0 -35 26 -67.5t65.5 -65t85.5 -65t85.5 -68t65.5 -74t26 -82.5q0 -38 -15 -64t-40.5 -42.5t-60 -23.5t-73.5 -7q-59 0 -114 10.5t-96 23.5l5 27q40 -13 93.5 -23t111.5 -10
q71 0 114.5 24.5t43.5 80.5q0 41 -26 77.5t-65.5 70.5t-85.5 67t-85.5 66.5t-65.5 68t-26 73.5q0 40 18 64.5t46.5 38.5t64.5 19t72 5q47 0 84.5 -4.5t75.5 -10.5zM373 916l-97 -161h-29l93 161h33z" />
    <glyph glyph-name="Scircumflex" unicode="&#x15c;" horiz-adv-x="534" 
d="M438 632q-38 6 -76.5 10t-78.5 4q-33 0 -63.5 -3.5t-54 -14t-38 -29t-14.5 -49.5q0 -35 26 -67.5t65.5 -65t85.5 -65t85.5 -68t65.5 -74t26 -82.5q0 -38 -15 -64t-40.5 -42.5t-60 -23.5t-73.5 -7q-59 0 -114 10.5t-96 23.5l5 27q40 -13 93.5 -23t111.5 -10
q71 0 114.5 24.5t43.5 80.5q0 41 -26 77.5t-65.5 70.5t-85.5 67t-85.5 66.5t-65.5 68t-26 73.5q0 40 18 64.5t46.5 38.5t64.5 19t72 5q47 0 84.5 -4.5t75.5 -10.5zM275 916l94 -161h-28l-83 137l-83 -137h-28l94 161h34z" />
    <glyph glyph-name="Scaron" unicode="&#x160;" horiz-adv-x="534" 
d="M438 632q-38 6 -76.5 10t-78.5 4q-33 0 -63.5 -3.5t-54 -14t-38 -29t-14.5 -49.5q0 -35 26 -67.5t65.5 -65t85.5 -65t85.5 -68t65.5 -74t26 -82.5q0 -38 -15 -64t-40.5 -42.5t-60 -23.5t-73.5 -7q-59 0 -114 10.5t-96 23.5l5 27q40 -13 93.5 -23t111.5 -10
q71 0 114.5 24.5t43.5 80.5q0 41 -26 77.5t-65.5 70.5t-85.5 67t-85.5 66.5t-65.5 68t-26 73.5q0 40 18 64.5t46.5 38.5t64.5 19t72 5q47 0 84.5 -4.5t75.5 -10.5zM239 755l-94 161h28l83 -137l83 137h28l-94 -161h-34z" />
    <glyph glyph-name="Scedilla" unicode="&#x15e;" horiz-adv-x="534" 
d="M438 632q-38 6 -76.5 10t-78.5 4q-33 0 -63.5 -3.5t-54 -14t-38 -29t-14.5 -49.5q0 -35 26 -67.5t65.5 -65t85.5 -65t85.5 -68t65.5 -74t26 -82.5q0 -38 -15 -64t-40.5 -42.5t-60 -23.5t-73.5 -7q-59 0 -114 10.5t-96 23.5l5 27q40 -13 93.5 -23t111.5 -10
q71 0 114.5 24.5t43.5 80.5q0 41 -26 77.5t-65.5 70.5t-85.5 67t-85.5 66.5t-65.5 68t-26 73.5q0 40 18 64.5t46.5 38.5t64.5 19t72 5q47 0 84.5 -4.5t75.5 -10.5zM284 -46q11 -19 22 -43.5t11 -45.5q0 -32 -19 -45t-48 -13q-13 0 -28.5 2.5t-27.5 7.5l5 23q11 -4 25 -6.5
t26 -2.5q19 0 29.5 7t10.5 27q0 21 -11 45t-23 44h28z" />
    <glyph glyph-name="Scommaaccent" unicode="&#x218;" horiz-adv-x="534" 
d="M438 632q-38 6 -76.5 10t-78.5 4q-33 0 -63.5 -3.5t-54 -14t-38 -29t-14.5 -49.5q0 -35 26 -67.5t65.5 -65t85.5 -65t85.5 -68t65.5 -74t26 -82.5q0 -38 -15 -64t-40.5 -42.5t-60 -23.5t-73.5 -7q-59 0 -114 10.5t-96 23.5l5 27q40 -13 93.5 -23t111.5 -10
q71 0 114.5 24.5t43.5 80.5q0 41 -26 77.5t-65.5 70.5t-85.5 67t-85.5 66.5t-65.5 68t-26 73.5q0 40 18 64.5t46.5 38.5t64.5 19t72 5q47 0 84.5 -4.5t75.5 -10.5zM284 -46l-87 -142h-28l84 142h31z" />
    <glyph glyph-name="Tcaron" unicode="&#x164;" horiz-adv-x="556" 
d="M534 665v-28h-241v-637h-30v637h-241v28h512zM261 755l-94 161h28l83 -137l83 137h28l-94 -161h-34z" />
    <glyph glyph-name="Tcommaaccent" unicode="&#x162;" horiz-adv-x="556" 
d="M534 665v-28h-241v-637h-30v637h-241v28h512zM293 -46l-87 -142h-28l84 142h31z" />
    <glyph glyph-name="Tbar" unicode="&#x166;" horiz-adv-x="556" 
d="M263 358v279h-241v28h512v-28h-241v-279h209v-28h-209v-330h-30v330h-210v28h210z" />
    <glyph glyph-name="Ugrave" unicode="&#xd9;" horiz-adv-x="700" 
d="M142 665v-425q0 -45 10 -85t34.5 -70t66 -48t103.5 -18q75 0 122 9.5t77 17.5v619h30v-638q-24 -7 -47.5 -13.5t-50.5 -11.5t-59 -8t-71 -3q-69 0 -116 20t-75.5 53.5t-41 79t-12.5 96.5v425h30zM266 916l93 -161h-29l-97 161h33z" />
    <glyph glyph-name="Uacute" unicode="&#xda;" horiz-adv-x="700" 
d="M142 665v-425q0 -45 10 -85t34.5 -70t66 -48t103.5 -18q75 0 122 9.5t77 17.5v619h30v-638q-24 -7 -47.5 -13.5t-50.5 -11.5t-59 -8t-71 -3q-69 0 -116 20t-75.5 53.5t-41 79t-12.5 96.5v425h30zM456 916l-97 -161h-29l93 161h33z" />
    <glyph glyph-name="Ucircumflex" unicode="&#xdb;" horiz-adv-x="700" 
d="M142 665v-425q0 -45 10 -85t34.5 -70t66 -48t103.5 -18q75 0 122 9.5t77 17.5v619h30v-638q-24 -7 -47.5 -13.5t-50.5 -11.5t-59 -8t-71 -3q-69 0 -116 20t-75.5 53.5t-41 79t-12.5 96.5v425h30zM363 916l94 -161h-28l-83 137l-83 -137h-28l94 161h34z" />
    <glyph glyph-name="Utilde" unicode="&#x168;" horiz-adv-x="700" 
d="M142 665v-425q0 -45 10 -85t34.5 -70t66 -48t103.5 -18q75 0 122 9.5t77 17.5v619h30v-638q-24 -7 -47.5 -13.5t-50.5 -11.5t-59 -8t-71 -3q-69 0 -116 20t-75.5 53.5t-41 79t-12.5 96.5v425h30zM211 808q7 23 22.5 40t47.5 17q14 0 31.5 -6t36 -13t35.5 -13t29 -6
q22 0 30.5 11.5t13.5 27.5l25 -8q-7 -23 -22.5 -40t-47.5 -17q-14 0 -31.5 6t-36 13t-35.5 13t-29 6q-21 0 -30 -11.5t-14 -27.5z" />
    <glyph glyph-name="Udieresis" unicode="&#xdc;" horiz-adv-x="700" 
d="M142 665v-425q0 -45 10 -85t34.5 -70t66 -48t103.5 -18q75 0 122 9.5t77 17.5v619h30v-638q-24 -7 -47.5 -13.5t-50.5 -11.5t-59 -8t-71 -3q-69 0 -116 20t-75.5 53.5t-41 79t-12.5 96.5v425h30zM288 841q0 -23 -25 -23t-25 23t25 23t25 -23zM454 842q0 -23 -25 -23
t-25 23t25 23t25 -23z" />
    <glyph glyph-name="Umacron" unicode="&#x16a;" horiz-adv-x="700" 
d="M142 665v-425q0 -45 10 -85t34.5 -70t66 -48t103.5 -18q75 0 122 9.5t77 17.5v619h30v-638q-24 -7 -47.5 -13.5t-50.5 -11.5t-59 -8t-71 -3q-69 0 -116 20t-75.5 53.5t-41 79t-12.5 96.5v425h30zM454 847v-24h-216v24h216z" />
    <glyph glyph-name="Ubreve" unicode="&#x16c;" horiz-adv-x="700" 
d="M142 665v-425q0 -45 10 -85t34.5 -70t66 -48t103.5 -18q75 0 122 9.5t77 17.5v619h30v-638q-24 -7 -47.5 -13.5t-50.5 -11.5t-59 -8t-71 -3q-69 0 -116 20t-75.5 53.5t-41 79t-12.5 96.5v425h30zM346 777q-56 0 -93 30t-37 86h27q2 -50 30.5 -70t72.5 -20t72.5 20
t30.5 70h27q0 -56 -37 -86t-93 -30z" />
    <glyph glyph-name="Uring" unicode="&#x16e;" horiz-adv-x="700" 
d="M142 665v-425q0 -45 10 -85t34.5 -70t66 -48t103.5 -18q75 0 122 9.5t77 17.5v619h30v-638q-24 -7 -47.5 -13.5t-50.5 -11.5t-59 -8t-71 -3q-69 0 -116 20t-75.5 53.5t-41 79t-12.5 96.5v425h30zM431 837q0 -34 -22.5 -55.5t-62.5 -21.5t-62.5 21.5t-22.5 55.5
q0 33 22.5 54.5t62.5 21.5t62.5 -21.5t22.5 -54.5zM406 837q0 25 -16 38.5t-44 13.5t-44 -13.5t-16 -38.5q0 -26 16 -39.5t44 -13.5t44 13.5t16 39.5z" />
    <glyph glyph-name="Uhungarumlaut" unicode="&#x170;" horiz-adv-x="700" 
d="M142 665v-425q0 -45 10 -85t34.5 -70t66 -48t103.5 -18q75 0 122 9.5t77 17.5v619h30v-638q-24 -7 -47.5 -13.5t-50.5 -11.5t-59 -8t-71 -3q-69 0 -116 20t-75.5 53.5t-41 79t-12.5 96.5v425h30zM357 916l-67 -161h-26l62 161h31zM478 916l-79 -161h-27l76 161h30z" />
    <glyph glyph-name="Uogonek" unicode="&#x172;" horiz-adv-x="700" 
d="M633 -127q-8 -3 -21.5 -5t-27.5 -2q-30 0 -52 15t-22 49q0 28 11 50.5t24 36.5q-38 -11 -81.5 -18.5t-106.5 -7.5q-68 0 -115 20t-76 53.5t-41.5 79t-12.5 96.5v425h30v-425q0 -45 10 -85t34.5 -70t66 -48t103.5 -18q75 0 122.5 9.5t76.5 17.5v619h30v-636q-7 -8 -16 -18
t-16.5 -22.5t-12.5 -27t-5 -29.5q0 -24 13.5 -33t35.5 -9q26 0 46 6z" />
    <glyph glyph-name="Wgrave" unicode="&#x1e80;" horiz-adv-x="880" 
d="M386 916l93 -161h-29l-97 161h33zM670 28q64 154 104.5 310.5t60.5 326.5h27q-12 -94 -27 -175t-35 -159t-47.5 -158.5t-66.5 -172.5h-34l-208 494l-210 -494h-34q-48 171 -92 333t-90 332h31l170 -636l206 491h37z" />
    <glyph glyph-name="Wacute" unicode="&#x1e82;" horiz-adv-x="880" 
d="M555 915l-97 -161h-29l93 161h33zM670 28q64 154 104.5 310.5t60.5 326.5h27q-12 -94 -27 -175t-35 -159t-47.5 -158.5t-66.5 -172.5h-34l-208 494l-210 -494h-34q-48 171 -92 333t-90 332h31l170 -636l206 491h37z" />
    <glyph glyph-name="Wcircumflex" unicode="&#x174;" horiz-adv-x="880" 
d="M460 916l94 -161h-28l-83 137l-83 -137h-28l94 161h34zM670 28q64 154 104.5 310.5t60.5 326.5h27q-12 -94 -27 -175t-35 -159t-47.5 -158.5t-66.5 -172.5h-34l-208 494l-210 -494h-34q-48 171 -92 333t-90 332h31l170 -636l206 491h37z" />
    <glyph glyph-name="Wdieresis" unicode="&#x1e84;" horiz-adv-x="880" 
d="M385 841q0 -23 -25 -23t-25 23t25 23t25 -23zM551 842q0 -23 -25 -23t-25 23t25 23t25 -23zM670 28q64 154 104.5 310.5t60.5 326.5h27q-12 -94 -27 -175t-35 -159t-47.5 -158.5t-66.5 -172.5h-34l-208 494l-210 -494h-34q-48 171 -92 333t-90 332h31l170 -636l206 491
h37z" />
    <glyph glyph-name="Ygrave" unicode="&#x1ef2;" horiz-adv-x="467" 
d="M179 916l93 -161h-29l-97 161h33zM223 239l-228 426h35l212 -395q32 36 63.5 81.5t58.5 96.5t46.5 106t27.5 111h29q-10 -60 -30.5 -118.5t-49 -112.5t-63 -103t-73.5 -91v-240h-28v239z" />
    <glyph glyph-name="Yacute" unicode="&#xdd;" horiz-adv-x="467" 
d="M347 916l-97 -161h-29l93 161h33zM223 239l-228 426h35l212 -395q32 36 63.5 81.5t58.5 96.5t46.5 106t27.5 111h29q-10 -60 -30.5 -118.5t-49 -112.5t-63 -103t-73.5 -91v-240h-28v239z" />
    <glyph glyph-name="Ycircumflex" unicode="&#x176;" horiz-adv-x="467" 
d="M260 916l94 -161h-28l-83 137l-83 -137h-28l94 161h34zM223 239l-228 426h35l212 -395q32 36 63.5 81.5t58.5 96.5t46.5 106t27.5 111h29q-10 -60 -30.5 -118.5t-49 -112.5t-63 -103t-73.5 -91v-240h-28v239z" />
    <glyph glyph-name="Ydieresis" unicode="&#x178;" horiz-adv-x="467" 
d="M193 841q0 -23 -25 -23t-25 23t25 23t25 -23zM359 842q0 -23 -25 -23t-25 23t25 23t25 -23zM223 239l-228 426h35l212 -395q32 36 63.5 81.5t58.5 96.5t46.5 106t27.5 111h29q-10 -60 -30.5 -118.5t-49 -112.5t-63 -103t-73.5 -91v-240h-28v239z" />
    <glyph glyph-name="Zacute" unicode="&#x179;" horiz-adv-x="592" 
d="M532 665v-22l-437 -615h446v-28h-490v19l443 618h-428v28h466zM409 916l-97 -161h-29l93 161h33z" />
    <glyph glyph-name="Zcaron" unicode="&#x17d;" horiz-adv-x="592" 
d="M532 665v-22l-437 -615h446v-28h-490v19l443 618h-428v28h466zM276 755l-94 161h28l83 -137l83 137h28l-94 -161h-34z" />
    <glyph glyph-name="Zdotaccent" unicode="&#x17b;" horiz-adv-x="592" 
d="M532 665v-22l-437 -615h446v-28h-490v19l443 618h-428v28h466zM319 842q0 -23 -25 -23t-25 23t25 23t25 -23z" />
    <glyph glyph-name="Eng" unicode="&#x14a;" horiz-adv-x="753" 
d="M155 665l445 -462v462h28v-623q0 -30 -6 -55t-22 -51.5t-44.5 -57.5t-72.5 -71l-17 23q41 36 67 64.5t41 53t20.5 47.5t5.5 47v122l-447 464v-628h-28v665h30z" />
    <glyph glyph-name="Eth" unicode="&#xd0;" horiz-adv-x="607" 
d="M20 358h96v307h199q138 0 206 -79.5t68 -254.5q0 -90 -18.5 -154.5t-53.5 -105.5t-86 -60.5t-116 -19.5q-53 0 -102.5 7t-96.5 18v314h-96v28zM146 358h197v-28h-197v-293q32 -8 76.5 -13t92.5 -5q56 0 100.5 16t76 52.5t48.5 96.5t17 147q0 82 -14 140t-43 95t-75 54
t-110 17h-169v-279z" />
    <glyph glyph-name="Thorn" unicode="&#xde;" horiz-adv-x="620" 
d="M155 665v-121h171q56 0 99 -10t72.5 -33t44.5 -61.5t15 -95.5q0 -105 -57 -155.5t-181 -50.5q-38 0 -79.5 4t-84.5 12v-154h-30v665h30zM155 182q44 -8 85 -12t79 -4q60 0 100 11.5t63.5 34t33.5 55.5t10 77q0 49 -11 82t-35 53t-62 28.5t-92 8.5h-171v-334z" />
    <glyph glyph-name="a" unicode="a" horiz-adv-x="500" 
d="M100 471q25 5 58 8t65 3q37 0 70 -7t58 -24.5t39.5 -45.5t14.5 -70v-312q-22 -7 -42 -12.5t-41 -9.5t-44.5 -6.5t-52.5 -2.5q-37 0 -69 7.5t-55 25t-36.5 44.5t-13.5 66q0 40 14 66.5t38.5 42.5t58.5 22t73 6q42 0 78.5 -5t63.5 -10v79q0 35 -12.5 58.5t-33.5 37.5
t-49 20t-59 6q-30 0 -63 -3t-56 -8zM377 233q-31 6 -66 10.5t-76 4.5q-36 0 -65 -4.5t-49.5 -17.5t-31.5 -35t-11 -57q0 -33 11.5 -56t31.5 -36.5t46.5 -19.5t57.5 -6q49 0 88.5 7.5t63.5 15.5v194z" />
    <glyph glyph-name="b" unicode="b" horiz-adv-x="559" 
d="M104 730h27v-272q34 8 73.5 16t84.5 8q41 0 77.5 -11t64.5 -39t44 -75.5t16 -120.5q0 -74 -16.5 -121t-45 -74.5t-66 -38t-80.5 -10.5q-47 0 -91 7t-88 17v714zM132 34q23 -5 63 -11.5t88 -6.5q37 0 70 8.5t57.5 32.5t38.5 67t14 113q0 67 -13.5 109.5t-36.5 67.5
t-55 34.5t-69 9.5q-42 0 -83.5 -7.5t-73.5 -18.5v-398z" />
    <glyph glyph-name="c" unicode="c" horiz-adv-x="473" 
d="M397 446q-26 5 -58 8.5t-64 3.5q-41 0 -74 -9.5t-56.5 -34.5t-36.5 -67.5t-13 -109.5t13 -110t36.5 -67.5t57 -34t74.5 -9.5q35 0 63.5 4t60.5 12l3 -24q-37 -8 -65 -12t-63 -4q-44 0 -82 11t-66 39t-44 75t-16 119t15.5 119.5t43.5 75.5t66 39.5t83 11.5q33 0 67 -3.5
t59 -8.5z" />
    <glyph glyph-name="d" unicode="d" horiz-adv-x="558" 
d="M453 16q-44 -10 -88 -17t-91 -7q-43 0 -80.5 10.5t-66 38t-45 74.5t-16.5 121q0 73 18 120.5t47.5 75.5t67.5 39t79 11q42 0 79 -7t68 -15v270h28v-714zM425 435q-32 9 -70.5 16t-76.5 7q-37 0 -70.5 -9.5t-58.5 -34.5t-40 -67.5t-15 -109.5q0 -70 14 -113t38.5 -67
t57 -32.5t70.5 -8.5q48 0 88 6.5t63 11.5v401z" />
    <glyph glyph-name="e" unicode="e" horiz-adv-x="513" 
d="M95 245q0 -71 12.5 -115.5t38 -70t64 -34.5t89.5 -9q16 0 35.5 1.5t38 4t34.5 5.5t27 6l2 -25q-11 -3 -27 -5.5t-34.5 -5t-38 -4t-37.5 -1.5q-58 0 -101.5 12t-72.5 40.5t-43.5 75.5t-14.5 117q0 126 50.5 185.5t150.5 59.5q90 0 137 -56.5t47 -156.5v-24h-357zM424 269
q0 92 -41 140.5t-115 48.5q-88 0 -127.5 -47.5t-44.5 -141.5h328z" />
    <glyph glyph-name="f" unicode="f" horiz-adv-x="358" 
d="M131 474v99q0 44 12.5 74t34.5 48.5t52.5 26.5t67.5 8q16 0 39 -1.5t40 -4.5l-4 -24q-16 3 -37 4.5t-38 1.5q-32 0 -58 -6t-44 -21.5t-28 -41t-10 -64.5v-99h188v-24h-188v-450h-27v450h-83v24h83z" />
    <glyph glyph-name="g" unicode="g" horiz-adv-x="560" 
d="M453 -33q0 -76 -45.5 -119t-139.5 -43q-43 0 -82.5 6t-82.5 20l4 24q42 -13 80 -19.5t81 -6.5q82 0 119.5 36.5t37.5 101.5v43q-37 -8 -74.5 -13t-76.5 -5q-43 0 -80.5 10.5t-66 38t-45 74.5t-16.5 121q0 73 18 120.5t47.5 75.5t67.5 39t79 11q45 0 88 -8.5t87 -22.5
v-484zM425 434q-32 11 -68.5 17.5t-78.5 6.5q-37 0 -70.5 -9.5t-58.5 -34.5t-40 -67.5t-15 -109.5q0 -70 14 -113t38.5 -67t57 -32.5t70.5 -8.5q40 0 77 5t74 13v400z" />
    <glyph glyph-name="h" unicode="h" horiz-adv-x="587" 
d="M136 730v-272q36 9 78 16.5t88 7.5q40 0 74 -8t59 -26t39.5 -47t14.5 -72v-329h-28v327q0 38 -12 63.5t-33.5 40.5t-50.5 21t-63 6q-24 0 -48.5 -2.5t-47 -6.5t-41 -8.5t-29.5 -8.5v-432h-28v730h28z" />
    <glyph glyph-name="i" unicode="i" horiz-adv-x="244" 
d="M136 474v-474h-28v474h28zM147 656q0 -23 -25 -23t-25 23t25 23t25 -23z" />
    <glyph glyph-name="j" unicode="j" horiz-adv-x="243" 
d="M147 656q0 -23 -25 -23t-25 23t25 23t25 -23zM136 474v-430q0 -39 -4 -66.5t-17 -53t-39 -53t-69 -65.5l-17 20q42 35 65.5 60.5t35 49.5t14.5 49t3 59v430h28z" />
    <glyph glyph-name="k" unicode="k" horiz-adv-x="505" 
d="M136 730v-523l298 267h38l-212 -187q53 -14 86 -50.5t56 -81.5l76 -155h-30l-70 142q-11 21 -22.5 41t-27.5 36.5t-37.5 29t-50.5 19.5l-104 -93v-175h-28v730h28z" />
    <glyph glyph-name="l" unicode="l" horiz-adv-x="244" 
d="M136 730v-730h-28v730h28z" />
    <glyph glyph-name="m" unicode="m" horiz-adv-x="890" 
d="M108 450q42 12 91.5 22t95.5 10q41 0 75 -10.5t58 -36.5q39 20 86 33.5t106 13.5q36 0 67.5 -8t54.5 -26t36.5 -47t13.5 -72v-329h-28v327q0 39 -12 64t-31.5 40t-46 21t-54.5 6q-54 0 -101 -15t-75 -29q11 -17 15.5 -37t4.5 -48v-329h-28v327q0 39 -11.5 64t-31 40
t-45.5 21t-54 6q-20 0 -42.5 -2.5t-44 -6.5t-40.5 -8.5t-31 -8.5v-432h-28v450v0z" />
    <glyph glyph-name="n" unicode="n" horiz-adv-x="587" 
d="M108 0v463q41 11 94 21t106 10q42 0 77.5 -8t62 -26.5t41.5 -49t15 -76.5v-334h-29v328q0 42 -13 69t-35.5 43.5t-54 23t-68.5 6.5q-18 0 -39 -2t-43 -6t-44.5 -8.5t-41.5 -9.5v-444h-28z" />
    <glyph glyph-name="o" unicode="o" horiz-adv-x="542" 
d="M476 237q0 -131 -54 -188t-152 -57q-97 0 -150.5 57t-53.5 188t53.5 188t150.5 57q98 0 152 -57t54 -188zM448 237q0 66 -13 109t-36 68t-56 34.5t-72 9.5t-72 -9.5t-56 -34.5t-36 -68t-13 -109t13 -109t36 -68t56 -34.5t72 -9.5t72 9.5t56 34.5t36 68t13 109z" />
    <glyph glyph-name="p" unicode="p" horiz-adv-x="563" 
d="M108 450q45 14 94 23t91 9q43 0 80 -12t64 -40.5t42.5 -76t15.5 -117.5q0 -77 -18 -125t-47.5 -74.5t-66.5 -35.5t-74 -9q-41 0 -79.5 5t-73.5 13v-198h-28v638zM136 35q35 -7 70.5 -13t82.5 -6q37 0 69.5 8.5t56.5 32.5t38 67t14 113q0 67 -13.5 109.5t-37 67.5
t-55 34.5t-68.5 9.5q-42 0 -83.5 -7.5t-73.5 -18.5v-397z" />
    <glyph glyph-name="q" unicode="q" horiz-adv-x="563" 
d="M455 -188h-28v198q-37 -8 -74.5 -13t-76.5 -5q-43 0 -80.5 10.5t-66 38t-45 74.5t-16.5 121q0 73 18 120.5t47.5 75.5t67.5 39t79 11q45 0 87.5 -8.5t87.5 -22.5v-639zM427 434q-32 11 -68.5 17.5t-78.5 6.5q-37 0 -70.5 -9.5t-58.5 -34.5t-40 -67.5t-15 -109.5
q0 -70 14 -113t38.5 -67t57 -32.5t70.5 -8.5q40 0 77 5t74 13v400z" />
    <glyph glyph-name="r" unicode="r" horiz-adv-x="347" 
d="M325 458q-61 0 -108 -7.5t-81 -18.5v-432h-28v450q54 15 105 23.5t112 8.5v-24z" />
    <glyph glyph-name="s" unicode="s" horiz-adv-x="437" 
d="M352 449q-20 3 -55 6t-67 3q-66 0 -104.5 -17t-38.5 -65q0 -30 21.5 -50.5t53.5 -38t70 -33.5t70 -36.5t53.5 -47.5t21.5 -65q0 -52 -35.5 -82.5t-110.5 -30.5q-54 0 -97.5 9t-78.5 21l5 24q36 -12 78.5 -21t92.5 -9q57 0 88 20t31 68q0 33 -21.5 56.5t-53.5 42t-70 35
t-70 35.5t-53.5 43t-21.5 59q0 57 44.5 82t124.5 25q37 0 71.5 -2.5t55.5 -6.5z" />
    <glyph glyph-name="t" unicode="t" horiz-adv-x="355" 
d="M153 621v-147h154v-24h-154v-358q0 -22 7 -36.5t18.5 -23.5t27.5 -12.5t34 -3.5q23 0 47 4.5t43 10.5l3 -24q-20 -7 -44.5 -11t-48.5 -4q-23 0 -44 5t-36.5 17t-25 31t-9.5 47v358h-84v24h84l10 147h18z" />
    <glyph glyph-name="u" unicode="u" horiz-adv-x="568" 
d="M126 474v-318q0 -41 13 -67.5t34 -43t48.5 -23t56.5 -6.5q50 0 94 8t64 15v435h27v-451q-38 -13 -83 -22t-102 -9q-37 0 -69.5 9t-57 29t-38.5 50.5t-14 74.5v319h27z" />
    <glyph glyph-name="v" unicode="v" horiz-adv-x="448" 
d="M234 29q25 48 51.5 101.5t50 110.5t43 115.5t31.5 117.5h27q-26 -123 -78 -242.5t-114 -231.5h-27l-207 474h29z" />
    <glyph glyph-name="w" unicode="w" horiz-adv-x="782" 
d="M590 32q50 100 88 215t55 227h28q-12 -64 -26.5 -122t-33.5 -114.5t-43 -115t-55 -122.5h-29l-179 446l-179 -446h-32l-163 474h28l152 -440l178 440h32z" />
    <glyph glyph-name="x" unicode="x" horiz-adv-x="445" 
d="M223 225l-172 -225h-33l188 245l-180 229h32l164 -207l167 207h31l-181 -228l189 -246h-33z" />
    <glyph glyph-name="y" unicode="y" horiz-adv-x="575" 
d="M126 474v-312q0 -40 13 -66.5t34.5 -42.5t50 -22.5t60.5 -6.5q44 0 87 8t71 16v426h28v-507q0 -76 -45.5 -119t-139.5 -43q-43 0 -82.5 6t-82.5 20l4 24q42 -13 80 -19.5t81 -6.5q82 0 119.5 36.5t37.5 101.5v56q-27 -8 -69 -15.5t-89 -7.5q-39 0 -73 8.5t-58.5 27
t-39 49.5t-14.5 76v313h27z" />
    <glyph glyph-name="z" unicode="z" horiz-adv-x="477" 
d="M430 474v-20l-346 -430h353v-24h-391v20l347 430h-340v24h377z" />
    <glyph glyph-name="agrave" unicode="&#xe0;" horiz-adv-x="500" 
d="M100 471q25 5 58 8t65 3q37 0 70 -7t58 -24.5t39.5 -45.5t14.5 -70v-312q-22 -7 -42 -12.5t-41 -9.5t-44.5 -6.5t-52.5 -2.5q-37 0 -69 7.5t-55 25t-36.5 44.5t-13.5 66q0 40 14 66.5t38.5 42.5t58.5 22t73 6q42 0 78.5 -5t63.5 -10v79q0 35 -12.5 58.5t-33.5 37.5
t-49 20t-59 6q-30 0 -63 -3t-56 -8zM377 233q-31 6 -66 10.5t-76 4.5q-36 0 -65 -4.5t-49.5 -17.5t-31.5 -35t-11 -57q0 -33 11.5 -56t31.5 -36.5t46.5 -19.5t57.5 -6q49 0 88.5 7.5t63.5 15.5v194zM168 730l93 -161h-29l-97 161h33z" />
    <glyph glyph-name="aacute" unicode="&#xe1;" horiz-adv-x="500" 
d="M100 471q25 5 58 8t65 3q37 0 70 -7t58 -24.5t39.5 -45.5t14.5 -70v-312q-22 -7 -42 -12.5t-41 -9.5t-44.5 -6.5t-52.5 -2.5q-37 0 -69 7.5t-55 25t-36.5 44.5t-13.5 66q0 40 14 66.5t38.5 42.5t58.5 22t73 6q42 0 78.5 -5t63.5 -10v79q0 35 -12.5 58.5t-33.5 37.5
t-49 20t-59 6q-30 0 -63 -3t-56 -8zM377 233q-31 6 -66 10.5t-76 4.5q-36 0 -65 -4.5t-49.5 -17.5t-31.5 -35t-11 -57q0 -33 11.5 -56t31.5 -36.5t46.5 -19.5t57.5 -6q49 0 88.5 7.5t63.5 15.5v194zM356 730l-97 -161h-29l93 161h33z" />
    <glyph glyph-name="acircumflex" unicode="&#xe2;" horiz-adv-x="500" 
d="M100 471q25 5 58 8t65 3q37 0 70 -7t58 -24.5t39.5 -45.5t14.5 -70v-312q-22 -7 -42 -12.5t-41 -9.5t-44.5 -6.5t-52.5 -2.5q-37 0 -69 7.5t-55 25t-36.5 44.5t-13.5 66q0 40 14 66.5t38.5 42.5t58.5 22t73 6q42 0 78.5 -5t63.5 -10v79q0 35 -12.5 58.5t-33.5 37.5
t-49 20t-59 6q-30 0 -63 -3t-56 -8zM377 233q-31 6 -66 10.5t-76 4.5q-36 0 -65 -4.5t-49.5 -17.5t-31.5 -35t-11 -57q0 -33 11.5 -56t31.5 -36.5t46.5 -19.5t57.5 -6q49 0 88.5 7.5t63.5 15.5v194zM265 730l94 -161h-28l-83 137l-83 -137h-28l94 161h34z" />
    <glyph glyph-name="atilde" unicode="&#xe3;" horiz-adv-x="500" 
d="M100 471q25 5 58 8t65 3q37 0 70 -7t58 -24.5t39.5 -45.5t14.5 -70v-312q-22 -7 -42 -12.5t-41 -9.5t-44.5 -6.5t-52.5 -2.5q-37 0 -69 7.5t-55 25t-36.5 44.5t-13.5 66q0 40 14 66.5t38.5 42.5t58.5 22t73 6q42 0 78.5 -5t63.5 -10v79q0 35 -12.5 58.5t-33.5 37.5
t-49 20t-59 6q-30 0 -63 -3t-56 -8zM377 233q-31 6 -66 10.5t-76 4.5q-36 0 -65 -4.5t-49.5 -17.5t-31.5 -35t-11 -57q0 -33 11.5 -56t31.5 -36.5t46.5 -19.5t57.5 -6q49 0 88.5 7.5t63.5 15.5v194zM112 622q7 23 22.5 40t47.5 17q14 0 31.5 -6t36 -13t35.5 -13t29 -6
q22 0 30.5 11.5t13.5 27.5l25 -8q-7 -23 -22.5 -40t-47.5 -17q-14 0 -31.5 6t-36 13t-35.5 13t-29 6q-21 0 -30 -11.5t-14 -27.5z" />
    <glyph glyph-name="adieresis" unicode="&#xe4;" horiz-adv-x="500" 
d="M100 471q25 5 58 8t65 3q37 0 70 -7t58 -24.5t39.5 -45.5t14.5 -70v-312q-22 -7 -42 -12.5t-41 -9.5t-44.5 -6.5t-52.5 -2.5q-37 0 -69 7.5t-55 25t-36.5 44.5t-13.5 66q0 40 14 66.5t38.5 42.5t58.5 22t73 6q42 0 78.5 -5t63.5 -10v79q0 35 -12.5 58.5t-33.5 37.5
t-49 20t-59 6q-30 0 -63 -3t-56 -8zM377 233q-31 6 -66 10.5t-76 4.5q-36 0 -65 -4.5t-49.5 -17.5t-31.5 -35t-11 -57q0 -33 11.5 -56t31.5 -36.5t46.5 -19.5t57.5 -6q49 0 88.5 7.5t63.5 15.5v194zM189 655q0 -23 -25 -23t-25 23t25 23t25 -23zM355 656q0 -23 -25 -23
t-25 23t25 23t25 -23z" />
    <glyph glyph-name="amacron" unicode="&#x101;" horiz-adv-x="500" 
d="M100 471q25 5 58 8t65 3q37 0 70 -7t58 -24.5t39.5 -45.5t14.5 -70v-312q-22 -7 -42 -12.5t-41 -9.5t-44.5 -6.5t-52.5 -2.5q-37 0 -69 7.5t-55 25t-36.5 44.5t-13.5 66q0 40 14 66.5t38.5 42.5t58.5 22t73 6q42 0 78.5 -5t63.5 -10v79q0 35 -12.5 58.5t-33.5 37.5
t-49 20t-59 6q-30 0 -63 -3t-56 -8zM377 233q-31 6 -66 10.5t-76 4.5q-36 0 -65 -4.5t-49.5 -17.5t-31.5 -35t-11 -57q0 -33 11.5 -56t31.5 -36.5t46.5 -19.5t57.5 -6q49 0 88.5 7.5t63.5 15.5v194zM355 661v-24h-216v24h216z" />
    <glyph glyph-name="abreve" unicode="&#x103;" horiz-adv-x="500" 
d="M100 471q25 5 58 8t65 3q37 0 70 -7t58 -24.5t39.5 -45.5t14.5 -70v-312q-22 -7 -42 -12.5t-41 -9.5t-44.5 -6.5t-52.5 -2.5q-37 0 -69 7.5t-55 25t-36.5 44.5t-13.5 66q0 40 14 66.5t38.5 42.5t58.5 22t73 6q42 0 78.5 -5t63.5 -10v79q0 35 -12.5 58.5t-33.5 37.5
t-49 20t-59 6q-30 0 -63 -3t-56 -8zM377 233q-31 6 -66 10.5t-76 4.5q-36 0 -65 -4.5t-49.5 -17.5t-31.5 -35t-11 -57q0 -33 11.5 -56t31.5 -36.5t46.5 -19.5t57.5 -6q49 0 88.5 7.5t63.5 15.5v194zM248 591q-56 0 -93 30t-37 86h27q2 -50 30.5 -70t72.5 -20t72.5 20
t30.5 70h27q0 -56 -37 -86t-93 -30z" />
    <glyph glyph-name="aring" unicode="&#xe5;" horiz-adv-x="500" 
d="M100 471q25 5 58 8t65 3q37 0 70 -7t58 -24.5t39.5 -45.5t14.5 -70v-312q-22 -7 -42 -12.5t-41 -9.5t-44.5 -6.5t-52.5 -2.5q-37 0 -69 7.5t-55 25t-36.5 44.5t-13.5 66q0 40 14 66.5t38.5 42.5t58.5 22t73 6q42 0 78.5 -5t63.5 -10v79q0 35 -12.5 58.5t-33.5 37.5
t-49 20t-59 6q-30 0 -63 -3t-56 -8zM377 233q-31 6 -66 10.5t-76 4.5q-36 0 -65 -4.5t-49.5 -17.5t-31.5 -35t-11 -57q0 -33 11.5 -56t31.5 -36.5t46.5 -19.5t57.5 -6q49 0 88.5 7.5t63.5 15.5v194zM332 649q0 -34 -22.5 -55.5t-62.5 -21.5t-62.5 21.5t-22.5 55.5
q0 33 22.5 54.5t62.5 21.5t62.5 -21.5t22.5 -54.5zM307 649q0 25 -16 38.5t-44 13.5t-44 -13.5t-16 -38.5q0 -26 16 -39.5t44 -13.5t44 13.5t16 39.5z" />
    <glyph glyph-name="aringacute" unicode="&#x1fb;" horiz-adv-x="500" 
d="M332 648q0 -34 -22.5 -55.5t-62.5 -21.5t-62.5 21.5t-22.5 54.5q0 30 18.5 50.5t51.5 25.5l62 110h33l-66 -110q34 -5 52.5 -25t18.5 -50zM307 648q0 26 -16 39.5t-44 13.5t-44 -13.5t-16 -39.5t16 -39.5t44 -13.5t44 13.5t16 39.5zM100 471q25 5 58 8t65 3q37 0 70 -7
t58 -24.5t39.5 -45.5t14.5 -70v-312q-22 -7 -42 -12.5t-41 -9.5t-44.5 -6.5t-52.5 -2.5q-37 0 -69 7.5t-55 25t-36.5 44.5t-13.5 66q0 40 14 66.5t38.5 42.5t58.5 22t73 6q42 0 78.5 -5t63.5 -10v79q0 35 -12.5 58.5t-33.5 37.5t-49 20t-59 6q-30 0 -63 -3t-56 -8zM377 233
q-31 6 -66 10.5t-76 4.5q-36 0 -65 -4.5t-49.5 -17.5t-31.5 -35t-11 -57q0 -33 11.5 -56t31.5 -36.5t46.5 -19.5t57.5 -6q49 0 88.5 7.5t63.5 15.5v194z" />
    <glyph glyph-name="aogonek" unicode="&#x105;" horiz-adv-x="500" 
d="M100 471q25 5 58 8t65 3q37 0 70 -7t58 -24.5t39.5 -45.5t14.5 -70v-312q-22 -7 -42 -12.5t-41 -9.5t-44.5 -6.5t-52.5 -2.5q-37 0 -69 7.5t-55 25t-36.5 44.5t-13.5 66q0 40 14 66.5t38.5 42.5t58.5 22t73 6q42 0 78.5 -5t63.5 -10v79q0 35 -12.5 58.5t-33.5 37.5
t-49 20t-59 6q-30 0 -63 -3t-56 -8zM377 233q-31 6 -66 10.5t-76 4.5q-36 0 -65 -4.5t-49.5 -17.5t-31.5 -35t-11 -57q0 -33 11.5 -56t31.5 -36.5t46.5 -19.5t57.5 -6q49 0 88.5 7.5t63.5 15.5v194zM452 -132q-8 -3 -21.5 -5t-27.5 -2q-31 0 -52.5 15t-21.5 49t16.5 59
t29.5 39h29q-7 -8 -15.5 -18t-16 -22.5t-12.5 -26.5t-5 -29q0 -24 13.5 -33t34.5 -9q26 0 46 6z" />
    <glyph glyph-name="ae" unicode="&#xe6;" horiz-adv-x="821" 
d="M403 246q0 -71 12.5 -115.5t38 -70t64 -35t89.5 -9.5q16 0 35.5 1.5t38 4t34.5 5.5t27 6l2 -25q-11 -3 -27 -5.5t-34.5 -5t-38 -4t-37.5 -1.5q-63 0 -108.5 14t-74.5 49q-37 -24 -88.5 -43.5t-110.5 -19.5q-36 0 -68 7.5t-55.5 24t-37 43.5t-13.5 66q0 41 13.5 68
t37.5 42.5t57.5 22t73.5 6.5q39 0 76 -4.5t68 -10.5v79q0 35 -12.5 58.5t-33.5 37.5t-49 20t-59 6q-30 0 -63 -3t-56 -8l-4 24q25 5 58 8t65 3q66 0 113.5 -24t61.5 -86q43 110 178 110q90 0 137 -56.5t47 -156.5v-23h-357zM377 233q-14 3 -32 5.5t-37 5t-38.5 3.5t-35.5 1
q-36 0 -65 -5t-49 -18t-31 -35t-11 -56q0 -35 12 -57.5t32 -36t46.5 -19t56.5 -5.5q27 0 54 5.5t51 14t44.5 19t34.5 21.5q-16 26 -23 63t-9 94zM732 270q0 92 -41 140t-115 48q-88 0 -128 -47.5t-45 -140.5h329z" />
    <glyph glyph-name="aeacute" unicode="&#x1fd;" horiz-adv-x="821" 
d="M403 246q0 -71 12.5 -115.5t38 -70t64 -35t89.5 -9.5q16 0 35.5 1.5t38 4t34.5 5.5t27 6l2 -25q-11 -3 -27 -5.5t-34.5 -5t-38 -4t-37.5 -1.5q-63 0 -108.5 14t-74.5 49q-37 -24 -88.5 -43.5t-110.5 -19.5q-36 0 -68 7.5t-55.5 24t-37 43.5t-13.5 66q0 41 13.5 68
t37.5 42.5t57.5 22t73.5 6.5q39 0 76 -4.5t68 -10.5v79q0 35 -12.5 58.5t-33.5 37.5t-49 20t-59 6q-30 0 -63 -3t-56 -8l-4 24q25 5 58 8t65 3q66 0 113.5 -24t61.5 -86q43 110 178 110q90 0 137 -56.5t47 -156.5v-23h-357zM377 233q-14 3 -32 5.5t-37 5t-38.5 3.5t-35.5 1
q-36 0 -65 -5t-49 -18t-31 -35t-11 -56q0 -35 12 -57.5t32 -36t46.5 -19t56.5 -5.5q27 0 54 5.5t51 14t44.5 19t34.5 21.5q-16 26 -23 63t-9 94zM732 270q0 92 -41 140t-115 48q-88 0 -128 -47.5t-45 -140.5h329zM526 730l-97 -161h-29l93 161h33z" />
    <glyph glyph-name="cacute" unicode="&#x107;" horiz-adv-x="473" 
d="M397 446q-26 5 -58 8.5t-64 3.5q-41 0 -74 -9.5t-56.5 -34.5t-36.5 -67.5t-13 -109.5t13 -110t36.5 -67.5t57 -34t74.5 -9.5q35 0 63.5 4t60.5 12l3 -24q-37 -8 -65 -12t-63 -4q-44 0 -82 11t-66 39t-44 75t-16 119t15.5 119.5t43.5 75.5t66 39.5t83 11.5q33 0 67 -3.5
t59 -8.5zM372 730l-97 -161h-29l93 161h33z" />
    <glyph glyph-name="ccircumflex" unicode="&#x109;" horiz-adv-x="473" 
d="M397 446q-26 5 -58 8.5t-64 3.5q-41 0 -74 -9.5t-56.5 -34.5t-36.5 -67.5t-13 -109.5t13 -110t36.5 -67.5t57 -34t74.5 -9.5q35 0 63.5 4t60.5 12l3 -24q-37 -8 -65 -12t-63 -4q-44 0 -82 11t-66 39t-44 75t-16 119t15.5 119.5t43.5 75.5t66 39.5t83 11.5q33 0 67 -3.5
t59 -8.5zM285 730l94 -161h-28l-83 137l-83 -137h-28l94 161h34z" />
    <glyph glyph-name="ccaron" unicode="&#x10d;" horiz-adv-x="473" 
d="M397 446q-26 5 -58 8.5t-64 3.5q-41 0 -74 -9.5t-56.5 -34.5t-36.5 -67.5t-13 -109.5t13 -110t36.5 -67.5t57 -34t74.5 -9.5q35 0 63.5 4t60.5 12l3 -24q-37 -8 -65 -12t-63 -4q-44 0 -82 11t-66 39t-44 75t-16 119t15.5 119.5t43.5 75.5t66 39.5t83 11.5q33 0 67 -3.5
t59 -8.5zM252 569l-94 161h28l83 -137l83 137h28l-94 -161h-34z" />
    <glyph glyph-name="cdotaccent" unicode="&#x10b;" horiz-adv-x="473" 
d="M397 446q-26 5 -58 8.5t-64 3.5q-41 0 -74 -9.5t-56.5 -34.5t-36.5 -67.5t-13 -109.5t13 -110t36.5 -67.5t57 -34t74.5 -9.5q35 0 63.5 4t60.5 12l3 -24q-37 -8 -65 -12t-63 -4q-44 0 -82 11t-66 39t-44 75t-16 119t15.5 119.5t43.5 75.5t66 39.5t83 11.5q33 0 67 -3.5
t59 -8.5zM294 656q0 -23 -25 -23t-25 23t25 23t25 -23z" />
    <glyph glyph-name="ccedilla" unicode="&#xe7;" horiz-adv-x="473" 
d="M397 446q-26 5 -58 8.5t-64 3.5q-41 0 -74 -9.5t-56.5 -34.5t-36.5 -67.5t-13 -109.5t13 -110t36.5 -67.5t57 -34t74.5 -9.5q35 0 63.5 4t60.5 12l3 -24q-37 -8 -65 -12t-63 -4q-44 0 -82 11t-66 39t-44 75t-16 119t15.5 119.5t43.5 75.5t66 39.5t83 11.5q33 0 67 -3.5
t59 -8.5zM267 -46q11 -19 22 -43.5t11 -45.5q0 -32 -19 -45t-48 -13q-13 0 -28.5 2.5t-27.5 7.5l5 23q11 -4 25 -6.5t26 -2.5q19 0 29.5 7t10.5 27q0 21 -11 45t-23 44h28z" />
    <glyph glyph-name="dcaron" unicode="&#x10f;" horiz-adv-x="567" 
d="M622 665l-80 -213h-26l77 213h29zM453 16q-44 -10 -88 -17t-91 -7q-43 0 -80.5 10.5t-66 38t-45 74.5t-16.5 121q0 73 18 120.5t47.5 75.5t67.5 39t79 11q42 0 79 -7t68 -15v270h28v-714zM425 435q-32 9 -70.5 16t-76.5 7q-37 0 -70.5 -9.5t-58.5 -34.5t-40 -67.5
t-15 -109.5q0 -70 14 -113t38.5 -67t57 -32.5t70.5 -8.5q48 0 88 6.5t63 11.5v401z" />
    <glyph glyph-name="dcroat" unicode="&#x111;" horiz-adv-x="558" 
d="M266 614h159v116h28v-116h85v-24h-85v-574q-44 -10 -88 -17t-91 -7q-43 0 -80.5 10.5t-66 38t-45 74.5t-16.5 121q0 73 18 120.5t47.5 75.5t67.5 39t79 11q42 0 79 -7t68 -15v130h-159v24zM425 435q-32 9 -70.5 16t-76.5 7q-37 0 -70.5 -9.5t-58.5 -34.5t-40 -67.5
t-15 -109.5q0 -70 14 -113t38.5 -67t57 -32.5t70.5 -8.5q48 0 88 6.5t63 11.5v401z" />
    <glyph glyph-name="egrave" unicode="&#xe8;" horiz-adv-x="513" 
d="M95 245q0 -71 12.5 -115.5t38 -70t64 -34.5t89.5 -9q16 0 35.5 1.5t38 4t34.5 5.5t27 6l2 -25q-11 -3 -27 -5.5t-34.5 -5t-38 -4t-37.5 -1.5q-58 0 -101.5 12t-72.5 40.5t-43.5 75.5t-14.5 117q0 126 50.5 185.5t150.5 59.5q90 0 137 -56.5t47 -156.5v-24h-357zM424 269
q0 92 -41 140.5t-115 48.5q-88 0 -127.5 -47.5t-44.5 -141.5h328zM181 730l93 -161h-29l-97 161h33z" />
    <glyph glyph-name="eacute" unicode="&#xe9;" horiz-adv-x="513" 
d="M95 245q0 -71 12.5 -115.5t38 -70t64 -34.5t89.5 -9q16 0 35.5 1.5t38 4t34.5 5.5t27 6l2 -25q-11 -3 -27 -5.5t-34.5 -5t-38 -4t-37.5 -1.5q-58 0 -101.5 12t-72.5 40.5t-43.5 75.5t-14.5 117q0 126 50.5 185.5t150.5 59.5q90 0 137 -56.5t47 -156.5v-24h-357zM424 269
q0 92 -41 140.5t-115 48.5q-88 0 -127.5 -47.5t-44.5 -141.5h328zM366 730l-97 -161h-29l93 161h33z" />
    <glyph glyph-name="ecircumflex" unicode="&#xea;" horiz-adv-x="513" 
d="M95 245q0 -71 12.5 -115.5t38 -70t64 -34.5t89.5 -9q16 0 35.5 1.5t38 4t34.5 5.5t27 6l2 -25q-11 -3 -27 -5.5t-34.5 -5t-38 -4t-37.5 -1.5q-58 0 -101.5 12t-72.5 40.5t-43.5 75.5t-14.5 117q0 126 50.5 185.5t150.5 59.5q90 0 137 -56.5t47 -156.5v-24h-357zM424 269
q0 92 -41 140.5t-115 48.5q-88 0 -127.5 -47.5t-44.5 -141.5h328zM277 730l94 -161h-28l-83 137l-83 -137h-28l94 161h34z" />
    <glyph glyph-name="ecaron" unicode="&#x11b;" horiz-adv-x="513" 
d="M95 245q0 -71 12.5 -115.5t38 -70t64 -34.5t89.5 -9q16 0 35.5 1.5t38 4t34.5 5.5t27 6l2 -25q-11 -3 -27 -5.5t-34.5 -5t-38 -4t-37.5 -1.5q-58 0 -101.5 12t-72.5 40.5t-43.5 75.5t-14.5 117q0 126 50.5 185.5t150.5 59.5q90 0 137 -56.5t47 -156.5v-24h-357zM424 269
q0 92 -41 140.5t-115 48.5q-88 0 -127.5 -47.5t-44.5 -141.5h328zM243 569l-94 161h28l83 -137l83 137h28l-94 -161h-34z" />
    <glyph glyph-name="edieresis" unicode="&#xeb;" horiz-adv-x="513" 
d="M95 245q0 -71 12.5 -115.5t38 -70t64 -34.5t89.5 -9q16 0 35.5 1.5t38 4t34.5 5.5t27 6l2 -25q-11 -3 -27 -5.5t-34.5 -5t-38 -4t-37.5 -1.5q-58 0 -101.5 12t-72.5 40.5t-43.5 75.5t-14.5 117q0 126 50.5 185.5t150.5 59.5q90 0 137 -56.5t47 -156.5v-24h-357zM424 269
q0 92 -41 140.5t-115 48.5q-88 0 -127.5 -47.5t-44.5 -141.5h328zM202 655q0 -23 -25 -23t-25 23t25 23t25 -23zM368 656q0 -23 -25 -23t-25 23t25 23t25 -23z" />
    <glyph glyph-name="emacron" unicode="&#x113;" horiz-adv-x="513" 
d="M95 245q0 -71 12.5 -115.5t38 -70t64 -34.5t89.5 -9q16 0 35.5 1.5t38 4t34.5 5.5t27 6l2 -25q-11 -3 -27 -5.5t-34.5 -5t-38 -4t-37.5 -1.5q-58 0 -101.5 12t-72.5 40.5t-43.5 75.5t-14.5 117q0 126 50.5 185.5t150.5 59.5q90 0 137 -56.5t47 -156.5v-24h-357zM424 269
q0 92 -41 140.5t-115 48.5q-88 0 -127.5 -47.5t-44.5 -141.5h328zM368 661v-24h-216v24h216z" />
    <glyph glyph-name="ebreve" unicode="&#x115;" horiz-adv-x="513" 
d="M95 245q0 -71 12.5 -115.5t38 -70t64 -34.5t89.5 -9q16 0 35.5 1.5t38 4t34.5 5.5t27 6l2 -25q-11 -3 -27 -5.5t-34.5 -5t-38 -4t-37.5 -1.5q-58 0 -101.5 12t-72.5 40.5t-43.5 75.5t-14.5 117q0 126 50.5 185.5t150.5 59.5q90 0 137 -56.5t47 -156.5v-24h-357zM424 269
q0 92 -41 140.5t-115 48.5q-88 0 -127.5 -47.5t-44.5 -141.5h328zM260 591q-56 0 -93 30t-37 86h27q2 -50 30.5 -70t72.5 -20t72.5 20t30.5 70h27q0 -56 -37 -86t-93 -30z" />
    <glyph glyph-name="edotaccent" unicode="&#x117;" horiz-adv-x="513" 
d="M95 245q0 -71 12.5 -115.5t38 -70t64 -34.5t89.5 -9q16 0 35.5 1.5t38 4t34.5 5.5t27 6l2 -25q-11 -3 -27 -5.5t-34.5 -5t-38 -4t-37.5 -1.5q-58 0 -101.5 12t-72.5 40.5t-43.5 75.5t-14.5 117q0 126 50.5 185.5t150.5 59.5q90 0 137 -56.5t47 -156.5v-24h-357zM424 269
q0 92 -41 140.5t-115 48.5q-88 0 -127.5 -47.5t-44.5 -141.5h328zM285 656q0 -23 -25 -23t-25 23t25 23t25 -23z" />
    <glyph glyph-name="eogonek" unicode="&#x119;" horiz-adv-x="513" 
d="M477 -155q-8 -3 -21.5 -5t-27.5 -2q-30 0 -52 15t-22 49q0 17 5 32.5t12.5 28.5t16 23t14.5 17q-23 -4 -50.5 -7.5t-52.5 -3.5q-58 0 -101.5 12t-72.5 40.5t-43.5 75.5t-14.5 117q0 126 50.5 185.5t150.5 59.5q90 0 137 -56.5t47 -156.5v-24h-357q0 -71 12.5 -115.5
t38 -70t64 -34.5t89.5 -9q16 0 35.5 1.5t38 4t34.5 5.5t27 6l2 -25q-20 -20 -38.5 -46.5t-18.5 -57.5q0 -24 13.5 -33t35.5 -9q26 0 46 6zM424 269q0 92 -41 140.5t-115 48.5q-88 0 -127.5 -47.5t-44.5 -141.5h328z" />
    <glyph glyph-name="gcircumflex" unicode="&#x11d;" horiz-adv-x="560" 
d="M453 -33q0 -76 -45.5 -119t-139.5 -43q-43 0 -82.5 6t-82.5 20l4 24q42 -13 80 -19.5t81 -6.5q82 0 119.5 36.5t37.5 101.5v43q-37 -8 -74.5 -13t-76.5 -5q-43 0 -80.5 10.5t-66 38t-45 74.5t-16.5 121q0 73 18 120.5t47.5 75.5t67.5 39t79 11q45 0 88 -8.5t87 -22.5
v-484zM425 434q-32 11 -68.5 17.5t-78.5 6.5q-37 0 -70.5 -9.5t-58.5 -34.5t-40 -67.5t-15 -109.5q0 -70 14 -113t38.5 -67t57 -32.5t70.5 -8.5q40 0 77 5t74 13v400zM280 730l94 -161h-28l-83 137l-83 -137h-28l94 161h34z" />
    <glyph glyph-name="gbreve" unicode="&#x11f;" horiz-adv-x="560" 
d="M453 -33q0 -76 -45.5 -119t-139.5 -43q-43 0 -82.5 6t-82.5 20l4 24q42 -13 80 -19.5t81 -6.5q82 0 119.5 36.5t37.5 101.5v43q-37 -8 -74.5 -13t-76.5 -5q-43 0 -80.5 10.5t-66 38t-45 74.5t-16.5 121q0 73 18 120.5t47.5 75.5t67.5 39t79 11q45 0 88 -8.5t87 -22.5
v-484zM425 434q-32 11 -68.5 17.5t-78.5 6.5q-37 0 -70.5 -9.5t-58.5 -34.5t-40 -67.5t-15 -109.5q0 -70 14 -113t38.5 -67t57 -32.5t70.5 -8.5q40 0 77 5t74 13v400zM263 591q-56 0 -93 30t-37 86h27q2 -50 30.5 -70t72.5 -20t72.5 20t30.5 70h27q0 -56 -37 -86t-93 -30z
" />
    <glyph glyph-name="gdotaccent" unicode="&#x121;" horiz-adv-x="560" 
d="M453 -33q0 -76 -45.5 -119t-139.5 -43q-43 0 -82.5 6t-82.5 20l4 24q42 -13 80 -19.5t81 -6.5q82 0 119.5 36.5t37.5 101.5v43q-37 -8 -74.5 -13t-76.5 -5q-43 0 -80.5 10.5t-66 38t-45 74.5t-16.5 121q0 73 18 120.5t47.5 75.5t67.5 39t79 11q45 0 88 -8.5t87 -22.5
v-484zM425 434q-32 11 -68.5 17.5t-78.5 6.5q-37 0 -70.5 -9.5t-58.5 -34.5t-40 -67.5t-15 -109.5q0 -70 14 -113t38.5 -67t57 -32.5t70.5 -8.5q40 0 77 5t74 13v400zM289 656q0 -23 -25 -23t-25 23t25 23t25 -23z" />
    <glyph glyph-name="gcommaaccent" unicode="&#x123;" horiz-adv-x="560" 
d="M453 -33q0 -76 -45.5 -119t-139.5 -43q-43 0 -82.5 6t-82.5 20l4 24q42 -13 80 -19.5t81 -6.5q82 0 119.5 36.5t37.5 101.5v43q-37 -8 -74.5 -13t-76.5 -5q-43 0 -80.5 10.5t-66 38t-45 74.5t-16.5 121q0 73 18 120.5t47.5 75.5t67.5 39t79 11q45 0 88 -8.5t87 -22.5
v-484zM425 434q-32 11 -68.5 17.5t-78.5 6.5q-37 0 -70.5 -9.5t-58.5 -34.5t-40 -67.5t-15 -109.5q0 -70 14 -113t38.5 -67t57 -32.5t70.5 -8.5q40 0 77 5t74 13v400zM297 569l97 161h29l-93 -161h-33z" />
    <glyph glyph-name="hcircumflex" unicode="&#x125;" horiz-adv-x="587" 
d="M136 730v-272q36 9 78 16.5t88 7.5q40 0 74 -8t59 -26t39.5 -47t14.5 -72v-329h-28v327q0 38 -12 63.5t-33.5 40.5t-50.5 21t-63 6q-24 0 -48.5 -2.5t-47 -6.5t-41 -8.5t-29.5 -8.5v-432h-28v730h28zM140 940l94 -161h-28l-83 137l-83 -137h-28l94 161h34z" />
    <glyph glyph-name="hbar" unicode="&#x127;" horiz-adv-x="587" 
d="M23 614h85v116h28v-116h159v-24h-159v-132q36 9 78 16.5t88 7.5q40 0 74 -8t59 -26t39.5 -47t14.5 -72v-329h-28v327q0 38 -12 63.5t-33.5 40.5t-50.5 21t-63 6q-24 0 -48.5 -2.5t-47 -6.5t-41 -8.5t-29.5 -8.5v-432h-28v590h-85v24z" />
    <glyph glyph-name="igrave" unicode="&#xec;" horiz-adv-x="244" 
d="M44 730l93 -161h-29l-97 161h33zM136 474v-474h-28v474h28z" />
    <glyph glyph-name="iacute" unicode="&#xed;" horiz-adv-x="244" 
d="M234 730l-97 -161h-29l93 161h33zM136 474v-474h-28v474h28z" />
    <glyph glyph-name="icircumflex" unicode="&#xee;" horiz-adv-x="244" 
d="M136 474v-474h-28v474h28zM138 730l94 -161h-28l-83 137l-83 -137h-28l94 161h34z" />
    <glyph glyph-name="itilde" unicode="&#x129;" horiz-adv-x="244" 
d="M-13 622q7 23 22.5 40t47.5 17q14 0 31.5 -6t36 -13t35.5 -13t29 -6q22 0 30.5 11.5t13.5 27.5l25 -8q-7 -23 -22.5 -40t-47.5 -17q-14 0 -31.5 6t-36 13t-35.5 13t-29 6q-21 0 -30 -11.5t-14 -27.5zM136 474v-474h-28v474h28z" />
    <glyph glyph-name="idieresis" unicode="&#xef;" horiz-adv-x="244" 
d="M64 655q0 -23 -25 -23t-25 23t25 23t25 -23zM230 656q0 -23 -25 -23t-25 23t25 23t25 -23zM136 474v-474h-28v474h28z" />
    <glyph glyph-name="imacron" unicode="&#x12b;" horiz-adv-x="244" 
d="M230 661v-24h-216v24h216zM136 474v-474h-28v474h28z" />
    <glyph glyph-name="ibreve" unicode="&#x12d;" horiz-adv-x="244" 
d="M121 591q-56 0 -93 30t-37 86h27q2 -50 30.5 -70t72.5 -20t72.5 20t30.5 70h27q0 -56 -37 -86t-93 -30zM136 474v-474h-28v474h28z" />
    <glyph glyph-name="iogonek" unicode="&#x12f;" horiz-adv-x="244" 
d="M184 -155q-8 -3 -21.5 -5t-27.5 -2q-30 0 -52 15t-22 49t16.5 59t30.5 39v474h28v-473q-7 -8 -16 -18t-16.5 -22.5t-12.5 -27t-5 -29.5q0 -24 13.5 -33t35.5 -9q26 0 46 6zM147 656q0 -23 -25 -23t-25 23t25 23t25 -23z" />
    <glyph glyph-name="dotlessi" unicode="&#x131;" horiz-adv-x="244" 
d="M136 474v-474h-28v474h28z" />
    <glyph glyph-name="jcircumflex" unicode="&#x135;" horiz-adv-x="243" 
d="M136 474v-430q0 -39 -4 -66.5t-17 -53t-39 -53t-69 -65.5l-17 20q42 35 65.5 60.5t35 49.5t14.5 49t3 59v430h28zM140 730l94 -161h-28l-83 137l-83 -137h-28l94 161h34z" />
    <glyph glyph-name="kcommaaccent" unicode="&#x137;" horiz-adv-x="505" 
d="M316 -46l-87 -142h-28l84 142h31zM136 730v-523l298 267h38l-212 -187q53 -14 86 -50.5t56 -81.5l76 -155h-30l-70 142q-11 21 -22.5 41t-27.5 36.5t-37.5 29t-50.5 19.5l-104 -93v-175h-28v730h28z" />
    <glyph glyph-name="lacute" unicode="&#x13a;" horiz-adv-x="244" 
d="M136 730v-730h-28v730h28zM234 933l-97 -161h-29l93 161h33z" />
    <glyph glyph-name="lcaron" unicode="&#x13e;" horiz-adv-x="251" 
d="M289 665l-80 -213h-26l77 213h29zM136 730v-730h-28v730h28z" />
    <glyph glyph-name="lcommaaccent" unicode="&#x13c;" horiz-adv-x="244" 
d="M136 730v-730h-28v730h28zM139 -46l-87 -142h-28l84 142h31z" />
    <glyph glyph-name="lslash" unicode="&#x142;" horiz-adv-x="244" 
d="M136 730v-345l82 32v-26l-82 -32v-359h-28v349l-81 -33v27l81 33v354h28z" />
    <glyph glyph-name="nacute" unicode="&#x144;" horiz-adv-x="587" 
d="M108 450q40 11 89.5 21.5t104.5 10.5q40 0 74 -8t59 -26t39.5 -47t14.5 -72v-329h-28v327q0 38 -12 63.5t-33.5 40.5t-50.5 21t-63 6q-23 0 -47.5 -2.5t-47 -6.5t-41 -8.5t-30.5 -8.5v-432h-28v450zM410 730l-97 -161h-29l93 161h33z" />
    <glyph glyph-name="ncaron" unicode="&#x148;" horiz-adv-x="587" 
d="M108 450q40 11 89.5 21.5t104.5 10.5q40 0 74 -8t59 -26t39.5 -47t14.5 -72v-329h-28v327q0 38 -12 63.5t-33.5 40.5t-50.5 21t-63 6q-23 0 -47.5 -2.5t-47 -6.5t-41 -8.5t-30.5 -8.5v-432h-28v450zM282 569l-94 161h28l83 -137l83 137h28l-94 -161h-34z" />
    <glyph glyph-name="ntilde" unicode="&#xf1;" horiz-adv-x="587" 
d="M108 450q40 11 89.5 21.5t104.5 10.5q40 0 74 -8t59 -26t39.5 -47t14.5 -72v-329h-28v327q0 38 -12 63.5t-33.5 40.5t-50.5 21t-63 6q-23 0 -47.5 -2.5t-47 -6.5t-41 -8.5t-30.5 -8.5v-432h-28v450zM166 622q7 23 22.5 40t47.5 17q14 0 31.5 -6t36 -13t35.5 -13t29 -6
q22 0 30.5 11.5t13.5 27.5l25 -8q-7 -23 -22.5 -40t-47.5 -17q-14 0 -31.5 6t-36 13t-35.5 13t-29 6q-21 0 -30 -11.5t-14 -27.5z" />
    <glyph glyph-name="ncommaaccent" unicode="&#x146;" horiz-adv-x="587" 
d="M108 450q40 11 89.5 21.5t104.5 10.5q40 0 74 -8t59 -26t39.5 -47t14.5 -72v-329h-28v327q0 38 -12 63.5t-33.5 40.5t-50.5 21t-63 6q-23 0 -47.5 -2.5t-47 -6.5t-41 -8.5t-30.5 -8.5v-432h-28v450zM337 -46l-87 -142h-28l84 142h31z" />
    <glyph glyph-name="ograve" unicode="&#xf2;" horiz-adv-x="542" 
d="M476 237q0 -131 -54 -188t-152 -57q-97 0 -150.5 57t-53.5 188t53.5 188t150.5 57q98 0 152 -57t54 -188zM448 237q0 66 -13 109t-36 68t-56 34.5t-72 9.5t-72 -9.5t-56 -34.5t-36 -68t-13 -109t13 -109t36 -68t56 -34.5t72 -9.5t72 9.5t56 34.5t36 68t13 109zM192 730
l93 -161h-29l-97 161h33z" />
    <glyph glyph-name="oacute" unicode="&#xf3;" horiz-adv-x="542" 
d="M476 237q0 -131 -54 -188t-152 -57q-97 0 -150.5 57t-53.5 188t53.5 188t150.5 57q98 0 152 -57t54 -188zM448 237q0 66 -13 109t-36 68t-56 34.5t-72 9.5t-72 -9.5t-56 -34.5t-36 -68t-13 -109t13 -109t36 -68t56 -34.5t72 -9.5t72 9.5t56 34.5t36 68t13 109zM380 730
l-97 -161h-29l93 161h33z" />
    <glyph glyph-name="ocircumflex" unicode="&#xf4;" horiz-adv-x="542" 
d="M476 237q0 -131 -54 -188t-152 -57q-97 0 -150.5 57t-53.5 188t53.5 188t150.5 57q98 0 152 -57t54 -188zM448 237q0 66 -13 109t-36 68t-56 34.5t-72 9.5t-72 -9.5t-56 -34.5t-36 -68t-13 -109t13 -109t36 -68t56 -34.5t72 -9.5t72 9.5t56 34.5t36 68t13 109zM285 730
l94 -161h-28l-83 137l-83 -137h-28l94 161h34z" />
    <glyph glyph-name="otilde" unicode="&#xf5;" horiz-adv-x="542" 
d="M476 237q0 -131 -54 -188t-152 -57q-97 0 -150.5 57t-53.5 188t53.5 188t150.5 57q98 0 152 -57t54 -188zM448 237q0 66 -13 109t-36 68t-56 34.5t-72 9.5t-72 -9.5t-56 -34.5t-36 -68t-13 -109t13 -109t36 -68t56 -34.5t72 -9.5t72 9.5t56 34.5t36 68t13 109zM133 622
q7 23 22.5 40t47.5 17q14 0 31.5 -6t36 -13t35.5 -13t29 -6q22 0 30.5 11.5t13.5 27.5l25 -8q-7 -23 -22.5 -40t-47.5 -17q-14 0 -31.5 6t-36 13t-35.5 13t-29 6q-21 0 -30 -11.5t-14 -27.5z" />
    <glyph glyph-name="odieresis" unicode="&#xf6;" horiz-adv-x="542" 
d="M476 237q0 -131 -54 -188t-152 -57q-97 0 -150.5 57t-53.5 188t53.5 188t150.5 57q98 0 152 -57t54 -188zM448 237q0 66 -13 109t-36 68t-56 34.5t-72 9.5t-72 -9.5t-56 -34.5t-36 -68t-13 -109t13 -109t36 -68t56 -34.5t72 -9.5t72 9.5t56 34.5t36 68t13 109zM210 655
q0 -23 -25 -23t-25 23t25 23t25 -23zM376 656q0 -23 -25 -23t-25 23t25 23t25 -23z" />
    <glyph glyph-name="omacron" unicode="&#x14d;" horiz-adv-x="542" 
d="M476 237q0 -131 -54 -188t-152 -57q-97 0 -150.5 57t-53.5 188t53.5 188t150.5 57q98 0 152 -57t54 -188zM448 237q0 66 -13 109t-36 68t-56 34.5t-72 9.5t-72 -9.5t-56 -34.5t-36 -68t-13 -109t13 -109t36 -68t56 -34.5t72 -9.5t72 9.5t56 34.5t36 68t13 109zM377 661
v-24h-216v24h216z" />
    <glyph glyph-name="obreve" unicode="&#x14f;" horiz-adv-x="542" 
d="M476 237q0 -131 -54 -188t-152 -57q-97 0 -150.5 57t-53.5 188t53.5 188t150.5 57q98 0 152 -57t54 -188zM448 237q0 66 -13 109t-36 68t-56 34.5t-72 9.5t-72 -9.5t-56 -34.5t-36 -68t-13 -109t13 -109t36 -68t56 -34.5t72 -9.5t72 9.5t56 34.5t36 68t13 109zM269 591
q-56 0 -93 30t-37 86h27q2 -50 30.5 -70t72.5 -20t72.5 20t30.5 70h27q0 -56 -37 -86t-93 -30z" />
    <glyph glyph-name="ohungarumlaut" unicode="&#x151;" horiz-adv-x="542" 
d="M476 237q0 -131 -54 -188t-152 -57q-97 0 -150.5 57t-53.5 188t53.5 188t150.5 57q98 0 152 -57t54 -188zM448 237q0 66 -13 109t-36 68t-56 34.5t-72 9.5t-72 -9.5t-56 -34.5t-36 -68t-13 -109t13 -109t36 -68t56 -34.5t72 -9.5t72 9.5t56 34.5t36 68t13 109zM289 730
l-67 -161h-26l62 161h31zM410 730l-79 -161h-27l76 161h30z" />
    <glyph glyph-name="oslash" unicode="&#xf8;" horiz-adv-x="542" 
d="M476 236q0 -131 -54 -188t-152 -57q-68 0 -114 27l-56 -92l-22 12l57 94q-34 29 -51.5 79t-17.5 125q0 131 53.5 188t150.5 57q74 0 121 -31l49 80l21 -12l-50 -83q32 -29 48.5 -78t16.5 -121zM94 236q0 -71 14.5 -114.5t40.5 -67.5l230 376q-22 15 -49 21t-59 6
q-39 0 -72 -9.5t-56 -34.5t-36 -68t-13 -109zM448 236q0 67 -13.5 110t-37.5 68l-229 -376q21 -13 47 -18t56 -5q39 0 72 9.5t56 34.5t36 68t13 109z" />
    <glyph glyph-name="oslashacute" unicode="&#x1ff;" horiz-adv-x="542" 
d="M476 236q0 -131 -54 -188t-152 -57q-68 0 -114 27l-56 -92l-22 12l57 94q-34 29 -51.5 79t-17.5 125q0 131 53.5 188t150.5 57q74 0 121 -31l49 80l21 -12l-50 -83q32 -29 48.5 -78t16.5 -121zM94 236q0 -71 14.5 -114.5t40.5 -67.5l230 376q-22 15 -49 21t-59 6
q-39 0 -72 -9.5t-56 -34.5t-36 -68t-13 -109zM448 236q0 67 -13.5 110t-37.5 68l-229 -376q21 -13 47 -18t56 -5q39 0 72 9.5t56 34.5t36 68t13 109zM380 730l-97 -161h-29l93 161h33z" />
    <glyph glyph-name="oe" unicode="&#x153;" horiz-adv-x="892" 
d="M474 245q0 -71 12.5 -115.5t38 -70t64 -34.5t89.5 -9q16 0 35.5 1.5t38 4t34.5 5.5t27 6l2 -25q-11 -3 -27 -5.5t-34.5 -5t-38 -4t-37.5 -1.5q-89 0 -143.5 30t-74.5 107q-19 -73 -67 -105t-123 -32q-97 0 -150.5 57t-53.5 188t53.5 188t150.5 57q75 0 123 -32.5
t67 -105.5q37 138 187 138q90 0 137 -56.5t47 -156.5v-24h-357zM448 237q0 66 -13 109t-36 68t-56 34.5t-72 9.5t-72 -9.5t-56 -34.5t-36 -68t-13 -109t13 -109t36 -68t56 -34.5t72 -9.5t72 9.5t56 34.5t36 68t13 109zM803 269q0 92 -41 140.5t-115 48.5q-88 0 -127.5 -47.5
t-44.5 -141.5h328z" />
    <glyph glyph-name="racute" unicode="&#x155;" horiz-adv-x="347" 
d="M325 458q-61 0 -108 -7.5t-81 -18.5v-432h-28v450q54 15 105 23.5t112 8.5v-24zM321 730l-97 -161h-29l93 161h33z" />
    <glyph glyph-name="rcommaaccent" unicode="&#x157;" horiz-adv-x="347" 
d="M325 458q-61 0 -108 -7.5t-81 -18.5v-432h-28v450q54 15 105 23.5t112 8.5v-24zM137 -46l-87 -142h-28l84 142h31z" />
    <glyph glyph-name="rcaron" unicode="&#x159;" horiz-adv-x="347" 
d="M325 458q-61 0 -108 -7.5t-81 -18.5v-432h-28v450q54 15 105 23.5t112 8.5v-24zM201 569l-94 161h28l83 -137l83 137h28l-94 -161h-34z" />
    <glyph glyph-name="sacute" unicode="&#x15b;" horiz-adv-x="437" 
d="M352 449q-20 3 -55 6t-67 3q-66 0 -104.5 -17t-38.5 -65q0 -30 21.5 -50.5t53.5 -38t70 -33.5t70 -36.5t53.5 -47.5t21.5 -65q0 -52 -35.5 -82.5t-110.5 -30.5q-54 0 -97.5 9t-78.5 21l5 24q36 -12 78.5 -21t92.5 -9q57 0 88 20t31 68q0 33 -21.5 56.5t-53.5 42t-70 35
t-70 35.5t-53.5 43t-21.5 59q0 57 44.5 82t124.5 25q37 0 71.5 -2.5t55.5 -6.5zM326 730l-97 -161h-29l93 161h33z" />
    <glyph glyph-name="scircumflex" unicode="&#x15d;" horiz-adv-x="437" 
d="M352 449q-20 3 -55 6t-67 3q-66 0 -104.5 -17t-38.5 -65q0 -30 21.5 -50.5t53.5 -38t70 -33.5t70 -36.5t53.5 -47.5t21.5 -65q0 -52 -35.5 -82.5t-110.5 -30.5q-54 0 -97.5 9t-78.5 21l5 24q36 -12 78.5 -21t92.5 -9q57 0 88 20t31 68q0 33 -21.5 56.5t-53.5 42t-70 35
t-70 35.5t-53.5 43t-21.5 59q0 57 44.5 82t124.5 25q37 0 71.5 -2.5t55.5 -6.5zM235 730l94 -161h-28l-83 137l-83 -137h-28l94 161h34z" />
    <glyph glyph-name="scaron" unicode="&#x161;" horiz-adv-x="437" 
d="M352 449q-20 3 -55 6t-67 3q-66 0 -104.5 -17t-38.5 -65q0 -30 21.5 -50.5t53.5 -38t70 -33.5t70 -36.5t53.5 -47.5t21.5 -65q0 -52 -35.5 -82.5t-110.5 -30.5q-54 0 -97.5 9t-78.5 21l5 24q36 -12 78.5 -21t92.5 -9q57 0 88 20t31 68q0 33 -21.5 56.5t-53.5 42t-70 35
t-70 35.5t-53.5 43t-21.5 59q0 57 44.5 82t124.5 25q37 0 71.5 -2.5t55.5 -6.5zM201 569l-94 161h28l83 -137l83 137h28l-94 -161h-34z" />
    <glyph glyph-name="scedilla" unicode="&#x15f;" horiz-adv-x="437" 
d="M352 449q-20 3 -55 6t-67 3q-66 0 -104.5 -17t-38.5 -65q0 -30 21.5 -50.5t53.5 -38t70 -33.5t70 -36.5t53.5 -47.5t21.5 -65q0 -52 -35.5 -82.5t-110.5 -30.5q-54 0 -97.5 9t-78.5 21l5 24q36 -12 78.5 -21t92.5 -9q57 0 88 20t31 68q0 33 -21.5 56.5t-53.5 42t-70 35
t-70 35.5t-53.5 43t-21.5 59q0 57 44.5 82t124.5 25q37 0 71.5 -2.5t55.5 -6.5zM232 -46q11 -19 22 -43.5t11 -45.5q0 -32 -19 -45t-48 -13q-13 0 -28.5 2.5t-27.5 7.5l5 23q11 -4 25 -6.5t26 -2.5q19 0 29.5 7t10.5 27q0 21 -11 45t-23 44h28z" />
    <glyph glyph-name="scommaaccent" unicode="&#x219;" horiz-adv-x="437" 
d="M352 449q-20 3 -55 6t-67 3q-66 0 -104.5 -17t-38.5 -65q0 -30 21.5 -50.5t53.5 -38t70 -33.5t70 -36.5t53.5 -47.5t21.5 -65q0 -52 -35.5 -82.5t-110.5 -30.5q-54 0 -97.5 9t-78.5 21l5 24q36 -12 78.5 -21t92.5 -9q57 0 88 20t31 68q0 33 -21.5 56.5t-53.5 42t-70 35
t-70 35.5t-53.5 43t-21.5 59q0 57 44.5 82t124.5 25q37 0 71.5 -2.5t55.5 -6.5zM271 -46l-87 -142h-28l84 142h31z" />
    <glyph glyph-name="germandbls" unicode="&#xdf;" horiz-adv-x="501" 
d="M110 0v575q0 77 37 119t126 42q35 0 65 -8.5t52 -26.5t34.5 -45.5t12.5 -64.5q0 -34 -10 -58t-25 -42.5t-32 -33.5t-32 -30t-25 -32t-10 -40q0 -22 15 -40.5t37 -35t48.5 -33.5t48.5 -37t37 -44t15 -55q0 -34 -11.5 -56.5t-32 -36t-49 -19.5t-62.5 -6q-26 0 -60 4.5
t-60 11.5l4 24q26 -7 58.5 -11.5t57.5 -4.5q29 0 53 3.5t41 14t26 29t9 48.5q0 28 -15 49t-37 39t-48.5 34.5t-48.5 34.5t-37 39t-15 48t10 46t24.5 34.5t32 29.5t32 31t24.5 39.5t10 55.5q0 66 -37.5 93.5t-100.5 27.5q-78 0 -106.5 -34.5t-28.5 -102.5v-575h-27z" />
    <glyph glyph-name="longs" unicode="&#x17f;" horiz-adv-x="336" 
d="M131 474v99q0 44 12.5 74t34.5 48.5t52.5 26.5t67.5 8q16 0 39 -1.5t40 -4.5l-4 -24q-16 3 -37 4.5t-38 1.5q-29 0 -54.5 -6t-44.5 -21.5t-30 -41t-11 -64.5v-573h-27v450h-83v24h83z" />
    <glyph glyph-name="tcaron" unicode="&#x165;" horiz-adv-x="355" 
d="M341 665l-56 -140h-25l53 140h28zM153 621v-147h154v-24h-154v-358q0 -22 7 -36.5t18.5 -23.5t27.5 -12.5t34 -3.5q23 0 47 4.5t43 10.5l3 -24q-20 -7 -44.5 -11t-48.5 -4q-23 0 -44 5t-36.5 17t-25 31t-9.5 47v358h-84v24h84l10 147h18z" />
    <glyph glyph-name="tcommaaccent" unicode="&#x163;" horiz-adv-x="355" 
d="M153 621v-147h154v-24h-154v-358q0 -22 7 -36.5t18.5 -23.5t27.5 -12.5t34 -3.5q23 0 47 4.5t43 10.5l3 -24q-20 -7 -44.5 -11t-48.5 -4q-23 0 -44 5t-36.5 17t-25 31t-9.5 47v358h-84v24h84l10 147h18zM260 -46l-87 -142h-28l84 142h31z" />
    <glyph glyph-name="tbar" unicode="&#x167;" horiz-adv-x="383" 
d="M60 252h84v198h-84v24h84l10 147h18v-147h154v-24h-154v-198h135v-24h-135v-136q0 -22 7 -36.5t18.5 -23.5t27.5 -12.5t34 -3.5q23 0 47 4.5t43 10.5l3 -24q-20 -7 -44.5 -11t-48.5 -4q-23 0 -44 5t-36.5 17t-25 31t-9.5 47v136h-84v24z" />
    <glyph glyph-name="ugrave" unicode="&#xf9;" horiz-adv-x="568" 
d="M126 474v-318q0 -41 13 -67.5t34 -43t48.5 -23t56.5 -6.5q50 0 94 8t64 15v435h27v-451q-38 -13 -83 -22t-102 -9q-37 0 -69.5 9t-57 29t-38.5 50.5t-14 74.5v319h27zM200 730l93 -161h-29l-97 161h33z" />
    <glyph glyph-name="uacute" unicode="&#xfa;" horiz-adv-x="568" 
d="M126 474v-318q0 -41 13 -67.5t34 -43t48.5 -23t56.5 -6.5q50 0 94 8t64 15v435h27v-451q-38 -13 -83 -22t-102 -9q-37 0 -69.5 9t-57 29t-38.5 50.5t-14 74.5v319h27zM388 730l-97 -161h-29l93 161h33z" />
    <glyph glyph-name="ucircumflex" unicode="&#xfb;" horiz-adv-x="568" 
d="M126 474v-318q0 -41 13 -67.5t34 -43t48.5 -23t56.5 -6.5q50 0 94 8t64 15v435h27v-451q-38 -13 -83 -22t-102 -9q-37 0 -69.5 9t-57 29t-38.5 50.5t-14 74.5v319h27zM297 730l94 -161h-28l-83 137l-83 -137h-28l94 161h34z" />
    <glyph glyph-name="utilde" unicode="&#x169;" horiz-adv-x="568" 
d="M126 474v-318q0 -41 13 -67.5t34 -43t48.5 -23t56.5 -6.5q50 0 94 8t64 15v435h27v-451q-38 -13 -83 -22t-102 -9q-37 0 -69.5 9t-57 29t-38.5 50.5t-14 74.5v319h27zM146 622q7 23 22.5 40t47.5 17q14 0 31.5 -6t36 -13t35.5 -13t29 -6q22 0 30.5 11.5t13.5 27.5l25 -8
q-7 -23 -22.5 -40t-47.5 -17q-14 0 -31.5 6t-36 13t-35.5 13t-29 6q-21 0 -30 -11.5t-14 -27.5z" />
    <glyph glyph-name="udieresis" unicode="&#xfc;" horiz-adv-x="568" 
d="M126 474v-318q0 -41 13 -67.5t34 -43t48.5 -23t56.5 -6.5q50 0 94 8t64 15v435h27v-451q-38 -13 -83 -22t-102 -9q-37 0 -69.5 9t-57 29t-38.5 50.5t-14 74.5v319h27zM223 655q0 -23 -25 -23t-25 23t25 23t25 -23zM389 656q0 -23 -25 -23t-25 23t25 23t25 -23z" />
    <glyph glyph-name="umacron" unicode="&#x16b;" horiz-adv-x="568" 
d="M126 474v-318q0 -41 13 -67.5t34 -43t48.5 -23t56.5 -6.5q50 0 94 8t64 15v435h27v-451q-38 -13 -83 -22t-102 -9q-37 0 -69.5 9t-57 29t-38.5 50.5t-14 74.5v319h27zM399 661v-24h-216v24h216z" />
    <glyph glyph-name="ubreve" unicode="&#x16d;" horiz-adv-x="568" 
d="M126 474v-318q0 -41 13 -67.5t34 -43t48.5 -23t56.5 -6.5q50 0 94 8t64 15v435h27v-451q-38 -13 -83 -22t-102 -9q-37 0 -69.5 9t-57 29t-38.5 50.5t-14 74.5v319h27zM291 591q-56 0 -93 30t-37 86h27q2 -50 30.5 -70t72.5 -20t72.5 20t30.5 70h27q0 -56 -37 -86t-93 -30
z" />
    <glyph glyph-name="uring" unicode="&#x16f;" horiz-adv-x="568" 
d="M126 474v-318q0 -41 13 -67.5t34 -43t48.5 -23t56.5 -6.5q50 0 94 8t64 15v435h27v-451q-38 -13 -83 -22t-102 -9q-37 0 -69.5 9t-57 29t-38.5 50.5t-14 74.5v319h27zM376 649q0 -34 -22.5 -55.5t-62.5 -21.5t-62.5 21.5t-22.5 55.5q0 33 22.5 54.5t62.5 21.5t62.5 -21.5
t22.5 -54.5zM351 649q0 25 -16 38.5t-44 13.5t-44 -13.5t-16 -38.5q0 -26 16 -39.5t44 -13.5t44 13.5t16 39.5z" />
    <glyph glyph-name="uhungarumlaut" unicode="&#x171;" horiz-adv-x="568" 
d="M126 474v-318q0 -41 13 -67.5t34 -43t48.5 -23t56.5 -6.5q50 0 94 8t64 15v435h27v-451q-38 -13 -83 -22t-102 -9q-37 0 -69.5 9t-57 29t-38.5 50.5t-14 74.5v319h27zM307 730l-67 -161h-26l62 161h31zM428 730l-79 -161h-27l76 161h30z" />
    <glyph glyph-name="uogonek" unicode="&#x173;" horiz-adv-x="568" 
d="M511 -132q-8 -3 -21.5 -5t-27.5 -2q-31 0 -52.5 15t-21.5 49q0 28 11.5 50t23.5 36q-32 -8 -67.5 -13.5t-77.5 -5.5q-38 0 -70.5 9t-56.5 29t-38 50.5t-14 74.5v319h27v-318q0 -41 13 -67.5t34 -43t48.5 -23t56.5 -6.5q50 0 94 8t64 15v435h27v-450q-7 -8 -15.5 -18
t-16 -22.5t-12.5 -27t-5 -29.5q0 -24 13.5 -33t34.5 -9q26 0 46 6z" />
    <glyph glyph-name="wgrave" unicode="&#x1e81;" horiz-adv-x="782" 
d="M316 730l93 -161h-29l-97 161h33zM590 32q50 100 88 215t55 227h28q-12 -64 -26.5 -122t-33.5 -114.5t-43 -115t-55 -122.5h-29l-179 446l-179 -446h-32l-163 474h28l152 -440l178 440h32z" />
    <glyph glyph-name="wacute" unicode="&#x1e83;" horiz-adv-x="782" 
d="M509 730l-97 -161h-29l93 161h33zM590 32q50 100 88 215t55 227h28q-12 -64 -26.5 -122t-33.5 -114.5t-43 -115t-55 -122.5h-29l-179 446l-179 -446h-32l-163 474h28l152 -440l178 440h32z" />
    <glyph glyph-name="wcircumflex" unicode="&#x175;" horiz-adv-x="782" 
d="M412 730l94 -161h-28l-83 137l-83 -137h-28l94 161h34zM590 32q50 100 88 215t55 227h28q-12 -64 -26.5 -122t-33.5 -114.5t-43 -115t-55 -122.5h-29l-179 446l-179 -446h-32l-163 474h28l152 -440l178 440h32z" />
    <glyph glyph-name="wdieresis" unicode="&#x1e85;" horiz-adv-x="782" 
d="M337 655q0 -23 -25 -23t-25 23t25 23t25 -23zM503 656q0 -23 -25 -23t-25 23t25 23t25 -23zM590 32q50 100 88 215t55 227h28q-12 -64 -26.5 -122t-33.5 -114.5t-43 -115t-55 -122.5h-29l-179 446l-179 -446h-32l-163 474h28l152 -440l178 440h32z" />
    <glyph glyph-name="ygrave" unicode="&#x1ef3;" horiz-adv-x="575" 
d="M126 474v-312q0 -40 13 -66.5t34.5 -42.5t50 -22.5t60.5 -6.5q44 0 87 8t71 16v426h28v-507q0 -76 -45.5 -119t-139.5 -43q-43 0 -82.5 6t-82.5 20l4 24q42 -13 80 -19.5t81 -6.5q82 0 119.5 36.5t37.5 101.5v56q-27 -8 -69 -15.5t-89 -7.5q-39 0 -73 8.5t-58.5 27
t-39 49.5t-14.5 76v313h27zM213 730l93 -161h-29l-97 161h33z" />
    <glyph glyph-name="yacute" unicode="&#xfd;" horiz-adv-x="575" 
d="M126 474v-312q0 -40 13 -66.5t34.5 -42.5t50 -22.5t60.5 -6.5q44 0 87 8t71 16v426h28v-507q0 -76 -45.5 -119t-139.5 -43q-43 0 -82.5 6t-82.5 20l4 24q42 -13 80 -19.5t81 -6.5q82 0 119.5 36.5t37.5 101.5v56q-27 -8 -69 -15.5t-89 -7.5q-39 0 -73 8.5t-58.5 27
t-39 49.5t-14.5 76v313h27zM404 730l-97 -161h-29l93 161h33z" />
    <glyph glyph-name="ycircumflex" unicode="&#x177;" horiz-adv-x="575" 
d="M126 474v-312q0 -40 13 -66.5t34.5 -42.5t50 -22.5t60.5 -6.5q44 0 87 8t71 16v426h28v-507q0 -76 -45.5 -119t-139.5 -43q-43 0 -82.5 6t-82.5 20l4 24q42 -13 80 -19.5t81 -6.5q82 0 119.5 36.5t37.5 101.5v56q-27 -8 -69 -15.5t-89 -7.5q-39 0 -73 8.5t-58.5 27
t-39 49.5t-14.5 76v313h27zM303 730l94 -161h-28l-83 137l-83 -137h-28l94 161h34z" />
    <glyph glyph-name="ydieresis" unicode="&#xff;" horiz-adv-x="575" 
d="M126 474v-312q0 -40 13 -66.5t34.5 -42.5t50 -22.5t60.5 -6.5q44 0 87 8t71 16v426h28v-507q0 -76 -45.5 -119t-139.5 -43q-43 0 -82.5 6t-82.5 20l4 24q42 -13 80 -19.5t81 -6.5q82 0 119.5 36.5t37.5 101.5v56q-27 -8 -69 -15.5t-89 -7.5q-39 0 -73 8.5t-58.5 27
t-39 49.5t-14.5 76v313h27zM225 655q0 -23 -25 -23t-25 23t25 23t25 -23zM391 656q0 -23 -25 -23t-25 23t25 23t25 -23z" />
    <glyph glyph-name="zacute" unicode="&#x17a;" horiz-adv-x="477" 
d="M430 474v-20l-346 -430h353v-24h-391v20l347 430h-340v24h377zM348 730l-97 -161h-29l93 161h33z" />
    <glyph glyph-name="zcaron" unicode="&#x17e;" horiz-adv-x="477" 
d="M430 474v-20l-346 -430h353v-24h-391v20l347 430h-340v24h377zM221 569l-94 161h28l83 -137l83 137h28l-94 -161h-34z" />
    <glyph glyph-name="zdotaccent" unicode="&#x17c;" horiz-adv-x="477" 
d="M430 474v-20l-346 -430h353v-24h-391v20l347 430h-340v24h377zM263 656q0 -23 -25 -23t-25 23t25 23t25 -23z" />
    <glyph glyph-name="eng" unicode="&#x14b;" horiz-adv-x="587" 
d="M108 450q40 11 89.5 21.5t104.5 10.5q40 0 74 -8t59 -26t39.5 -47t14.5 -72v-285q0 -39 -4 -66.5t-17 -53t-39 -53t-69 -65.5l-17 20q42 35 65.5 60.5t35 49.5t14.5 49t3 59v283q0 38 -12 63.5t-33.5 40.5t-50.5 21t-63 6q-23 0 -47.5 -2.5t-47 -6.5t-41 -8.5t-30.5 -8.5
v-432h-28v450v0z" />
    <glyph glyph-name="eth" unicode="&#xf0;" horiz-adv-x="525" 
d="M477 237q-1 -67 -15 -113.5t-40.5 -76t-64.5 -42.5t-86 -13q-97 0 -150.5 57t-53.5 188t53.5 188t150.5 57q63 0 102 -19t62 -56q-4 21 -10.5 46.5t-14.5 52t-18.5 52t-23.5 48.5l-176 -33v25l164 29q-17 28 -37.5 54t-41.5 49h33q17 -18 36.5 -44t36.5 -53l95 19v-25
l-83 -16q39 -76 60.5 -173.5t21.5 -200.5zM449 237q0 66 -13 109t-36 68t-56 34.5t-72 9.5t-72 -9.5t-56 -34.5t-36 -68t-13 -109t13 -109t36 -68t56 -34.5t72 -9.5t72 9.5t56 34.5t36 68t13 109z" />
    <glyph glyph-name="thorn" unicode="&#xfe;" horiz-adv-x="563" 
d="M108 730h28v-272q39 11 80 17.5t77 6.5q43 0 80 -12t64 -40.5t42.5 -76t15.5 -117.5q0 -77 -18 -125t-47.5 -74.5t-66.5 -35.5t-74 -9q-41 0 -79.5 5t-73.5 13v-198h-28v918zM136 35q35 -7 70.5 -13t82.5 -6q37 0 69.5 8.5t56.5 32.5t38 67t14 113q0 67 -13.5 109.5
t-37 67.5t-55 34.5t-68.5 9.5q-42 0 -83.5 -7.5t-73.5 -18.5v-397z" />
    <glyph glyph-name="ampersand" unicode="&#x26;" horiz-adv-x="564" 
d="M467 115q23 26 38.5 50t31.5 57l23 -12q-8 -18 -15 -32.5t-16 -28t-19.5 -27t-24.5 -28.5l82 -94h-38l-64 74q-38 -35 -88.5 -59t-115.5 -24q-97 0 -149.5 46t-52.5 125q0 38 11 67.5t31.5 53t50 43.5t66.5 39q-21 25 -39 47t-31.5 43.5t-21.5 43.5t-8 48q0 31 11.5 55
t30.5 40t44.5 24.5t53.5 8.5q66 0 106 -32.5t40 -95.5q0 -33 -11 -60t-30.5 -49.5t-45 -42t-54.5 -37.5zM237 346q-37 -21 -65 -39t-46.5 -38.5t-27.5 -46t-9 -59.5q0 -70 47.5 -107t125.5 -37q58 0 104 21.5t81 53.5zM245 380q60 35 94 73t34 95q0 54 -30.5 76.5
t-83.5 22.5q-23 0 -43 -5.5t-35 -17t-24 -30.5t-9 -46q0 -23 8 -43t21 -39.5t30.5 -40.5z" />
    <glyph glyph-name="grave" unicode="`" horiz-adv-x="550" 
d="M193 730l93 -161h-29l-97 161h33z" />
    <glyph glyph-name="acute" unicode="&#xb4;" horiz-adv-x="550" 
d="M345 730l-97 -161h-29l93 161h33z" />
    <glyph glyph-name="circumflex" unicode="&#x2c6;" horiz-adv-x="550" 
d="M292 730l94 -161h-28l-83 137l-83 -137h-28l94 161h34z" />
    <glyph glyph-name="caron" unicode="&#x2c7;" horiz-adv-x="550" 
d="M258 569l-94 161h28l83 -137l83 137h28l-94 -161h-34z" />
    <glyph glyph-name="tilde" unicode="&#x2dc;" horiz-adv-x="550" 
d="M139 622q7 23 22.5 40t47.5 17q14 0 31.5 -6t36 -13t35.5 -13t29 -6q22 0 30.5 11.5t13.5 27.5l25 -8q-7 -23 -22.5 -40t-47.5 -17q-14 0 -31.5 6t-36 13t-35.5 13t-29 6q-21 0 -30 -11.5t-14 -27.5l-25 8v0z" />
    <glyph glyph-name="dieresis" unicode="&#xa8;" horiz-adv-x="550" 
d="M217 655q0 -23 -25 -23t-25 23t25 23t25 -23zM383 656q0 -23 -25 -23t-25 23t25 23t25 -23z" />
    <glyph glyph-name="macron" unicode="&#xaf;" horiz-adv-x="550" 
d="M383 661v-24h-216v24h216z" />
    <glyph glyph-name="breve" unicode="&#x2d8;" horiz-adv-x="550" 
d="M275 591q-56 0 -93 30t-37 86h27q2 -50 30.5 -70t72.5 -20t72.5 20t30.5 70h27q0 -56 -37 -86t-93 -30z" />
    <glyph glyph-name="ring" unicode="&#x2da;" horiz-adv-x="550" 
d="M359 649q0 -34 -22.5 -55.5t-62.5 -21.5t-62.5 21.5t-22.5 55.5q0 33 22.5 54.5t62.5 21.5t62.5 -21.5t22.5 -54.5zM334 649q0 25 -16 38.5t-44 13.5t-44 -13.5t-16 -38.5q0 -26 16 -39.5t44 -13.5t44 13.5t16 39.5z" />
    <glyph glyph-name="hungarumlaut" unicode="&#x2dd;" horiz-adv-x="550" 
d="M253 730l-67 -161h-26l62 161h31zM374 730l-79 -161h-27l76 161h30z" />
    <glyph glyph-name="dotaccent" unicode="&#x2d9;" horiz-adv-x="550" 
d="M300 656q0 -23 -25 -23t-25 23t25 23t25 -23z" />
    <glyph glyph-name="cedilla" unicode="&#xb8;" horiz-adv-x="550" 
d="M307 -46q11 -19 22 -43.5t11 -45.5q0 -32 -19 -45t-48 -13q-13 0 -28.5 2.5t-27.5 7.5l5 23q11 -4 25 -6.5t26 -2.5q19 0 29.5 7t10.5 27q0 21 -11 45t-23 44h28z" />
    <glyph glyph-name="ogonek" unicode="&#x2db;" horiz-adv-x="550" 
d="M340 -155q-8 -3 -21.5 -5t-27.5 -2q-31 0 -52.5 15t-21.5 49t16.5 59t29.5 39h29q-7 -8 -15.5 -18t-16 -22.5t-12.5 -26.5t-5 -29q0 -24 13.5 -33t34.5 -9q26 0 46 6z" />
    <glyph glyph-name="commaaccentcomb" horiz-adv-x="550" 
d="M317 -46l-87 -142h-28l84 142h31z" />
    <glyph glyph-name="comma" unicode="," horiz-adv-x="275" 
d="M171 36l-87 -169h-30l83 169h34z" />
    <glyph glyph-name="semicolon" unicode=";" horiz-adv-x="275" 
d="M176 36l-87 -169h-30l83 169h34zM138 482q25 0 25 -22q0 -23 -25 -23q-11 0 -18 6t-7 17t7 16.5t18 5.5z" />
    <glyph glyph-name="colon" unicode=":" horiz-adv-x="275" 
d="M138 482q25 0 25 -22q0 -23 -25 -23q-11 0 -18 6t-7 17t7 16.5t18 5.5zM137 37q25 0 25 -22q0 -23 -25 -23q-11 0 -18 6t-7 17t7 16.5t18 5.5z" />
    <glyph glyph-name="period" unicode="." horiz-adv-x="275" 
d="M137 37q25 0 25 -22q0 -23 -25 -23q-11 0 -18 6t-7 17t7 16.5t18 5.5z" />
    <glyph glyph-name="ellipsis" unicode="&#x2026;" horiz-adv-x="861" 
d="M724 38q24 0 24 -22q0 -24 -24 -24q-11 0 -18 6t-7 18q0 11 7 16.5t18 5.5zM137 38q25 0 25 -22q0 -24 -25 -24q-11 0 -18 6t-7 18q0 11 7 16.5t18 5.5zM430 38q24 0 24 -22q0 -24 -24 -24q-11 0 -18 6t-7 18q0 11 7 16.5t18 5.5z" />
    <glyph glyph-name="hyphen" unicode="-" horiz-adv-x="380" 
d="M312 283v-24h-244v24h244z" />
    <glyph glyph-name="exclam" unicode="!" horiz-adv-x="296" 
d="M162 665v-532h-28l-1 532h29zM149 42q26 0 26 -25t-26 -25q-12 0 -20 7t-8 18q0 12 8 18.5t20 6.5z" />
    <glyph glyph-name="exclamdown" unicode="&#xa1;" horiz-adv-x="296" 
d="M161 347l2 -535h-31l2 535h27zM147 432q-11 0 -18.5 6.5t-7.5 18.5q0 11 7.5 18t18.5 7q12 0 20 -7t8 -18q0 -12 -8 -18.5t-20 -6.5z" />
    <glyph glyph-name="question" unicode="?" horiz-adv-x="403" 
d="M38 650q37 12 79 18t86 6q78 0 124.5 -36.5t46.5 -114.5q0 -37 -12.5 -65t-31.5 -51.5t-40.5 -45t-40.5 -46t-31.5 -54t-12.5 -68.5v-60h-30v60q0 42 12.5 74t31 57.5t40.5 47t40.5 44t31 48.5t12.5 59q0 59 -34 91t-106 32q-45 0 -84 -6.5t-76 -18.5zM191 42
q11 0 18.5 -6.5t7.5 -18.5q0 -11 -7.5 -18t-18.5 -7q-12 0 -20 7t-8 18q0 12 8 18.5t20 6.5z" />
    <glyph glyph-name="questiondown" unicode="&#xbf;" horiz-adv-x="361" 
d="M342 -173q-37 -11 -79 -17.5t-86 -6.5q-78 0 -124.5 37.5t-46.5 113.5q0 37 12.5 65t31.5 51.5t40.5 45t40.5 46t31.5 54t12.5 68.5v60h30v-60q0 -42 -12.5 -74t-31 -57.5t-40.5 -47t-40.5 -44t-31 -48.5t-12.5 -59q0 -59 34 -91t106 -32q45 0 84 6.5t76 18.5zM189 432
q-11 0 -18.5 6.5t-7.5 18.5q0 11 7.5 18t18.5 7q12 0 20 -7t8 -18q0 -12 -8 -18.5t-20 -6.5z" />
    <glyph glyph-name="quoteleft" unicode="&#x2018;" horiz-adv-x="310" 
d="M214 665l-83 -213h-35l86 213h32z" />
    <glyph glyph-name="quoteright" unicode="&#x2019;" horiz-adv-x="310" 
d="M96 452l83 213h35l-86 -213h-32z" />
    <glyph glyph-name="quotedblleft" unicode="&#x201c;" horiz-adv-x="484" 
d="M204 665l-80 -213h-35l83 213h32zM394 665l-73 -213h-35l76 213h32z" />
    <glyph glyph-name="quotedblright" unicode="&#x201d;" horiz-adv-x="484" 
d="M279 452l80 213h35l-83 -213h-32zM89 452l73 213h35l-76 -213h-32z" />
    <glyph glyph-name="quotesinglbase" unicode="&#x201a;" horiz-adv-x="310" 
d="M96 -160l83 213h35l-86 -213h-32z" />
    <glyph glyph-name="quotedblbase" unicode="&#x201e;" horiz-adv-x="488" 
d="M281 -160l80 213h35l-83 -213h-32zM91 -160l73 213h35l-76 -213h-32z" />
    <glyph glyph-name="guilsinglleft" unicode="&#x2039;" horiz-adv-x="337" 
d="M262 452l-153 -181l153 -181h-34l-154 181l154 181h34z" />
    <glyph glyph-name="guilsinglright" unicode="&#x203a;" horiz-adv-x="337" 
d="M108 452l154 -181l-154 -181h-34l153 181l-153 181h34z" />
    <glyph glyph-name="guillemotleft" unicode="&#xab;" horiz-adv-x="526" 
d="M262 452l-153 -181l153 -181h-34l-154 181l154 181h34zM451 452l-153 -181l153 -181h-34l-154 181l154 181h34z" />
    <glyph glyph-name="guillemotright" unicode="&#xbb;" horiz-adv-x="526" 
d="M298 452l154 -181l-154 -181h-34l153 181l-153 181h34zM108 452l154 -181l-154 -181h-34l153 181l-153 181h34z" />
    <glyph glyph-name="slash" unicode="/" horiz-adv-x="479" 
d="M431 730l-353 -783h-30l353 783h30z" />
    <glyph glyph-name="bar" unicode="|" horiz-adv-x="293" 
d="M161 800v-1000h-29v1000h29z" />
    <glyph glyph-name="endash" unicode="&#x2013;" horiz-adv-x="575" 
d="M506 283v-24h-438v24h438z" />
    <glyph glyph-name="emdash" unicode="&#x2014;" horiz-adv-x="798" 
d="M730 283v-24h-662v24h662z" />
    <glyph glyph-name="bullet" unicode="&#x2022;" horiz-adv-x="385" 
d="M193 332q29 0 47.5 -16.5t18.5 -44.5q0 -27 -18.5 -44.5t-47.5 -17.5q-30 0 -49 17.5t-19 44.5q0 28 19 44.5t49 16.5z" />
    <glyph glyph-name="periodcentered" unicode="&#xb7;" horiz-adv-x="275" 
d="M137 292q25 0 25 -22q0 -23 -25 -23q-11 0 -18 6t-7 17t7 16.5t18 5.5z" />
    <glyph glyph-name="parenleft" unicode="(" horiz-adv-x="294" 
d="M284 730q-36 -43 -68 -90t-55.5 -102.5t-37 -121t-13.5 -145.5t13.5 -145.5t37 -121t55.5 -102.5t68 -90h-34q-34 40 -64.5 86t-54 101.5t-37.5 122.5t-14 149t14 149t37.5 122.5t54 101.5t64.5 86h34v0z" />
    <glyph glyph-name="parenright" unicode=")" horiz-adv-x="294" 
d="M44 730q34 -40 64.5 -86t54 -101.5t37.5 -122.5t14 -149t-14 -149t-37.5 -122.5t-54 -101.5t-64.5 -86h-34q36 43 68 90t55.5 102.5t37 121t13.5 145.5t-13.5 145.5t-37 121t-55.5 102.5t-68 90h34z" />
    <glyph glyph-name="bracketleft" unicode="[" horiz-adv-x="304" 
d="M297 729v-28h-131v-861h131v-28h-162v917h162z" />
    <glyph glyph-name="bracketright" unicode="]" horiz-adv-x="304" 
d="M167 729v-917h-162v28h131v861h-131v28h162z" />
    <glyph glyph-name="braceleft" unicode="{" horiz-adv-x="350" 
d="M64 283q51 2 73 21.5t22 63.5q0 25 -3.5 56.5t-7.5 64t-7.5 63t-3.5 54.5q0 57 28 94t96 37q17 0 39.5 -2.5t34.5 -6.5l-4 -28q-12 3 -32.5 6t-36.5 3q-29 0 -47.5 -7.5t-29.5 -21t-15 -32.5t-4 -43q0 -25 3.5 -57t7.5 -64.5t7.5 -63t3.5 -52.5q0 -24 -5 -40.5t-14 -27.5
t-20.5 -18t-24.5 -11q13 -5 24.5 -11.5t20.5 -18t14 -28.5t5 -41q0 -22 -3.5 -52.5t-7.5 -62.5t-7.5 -64t-3.5 -57q0 -24 4 -43t15 -32.5t29.5 -21t47.5 -7.5q16 0 36.5 3t32.5 6l4 -28q-12 -4 -34.5 -6.5t-39.5 -2.5q-68 0 -96 37t-28 94q0 24 3.5 54.5t7.5 62.5t7.5 63
t3.5 57q0 45 -22 64t-73 21v26z" />
    <glyph glyph-name="braceright" unicode="}" horiz-adv-x="350" 
d="M286 257q-51 -2 -73 -21t-22 -64q0 -26 3.5 -57t7.5 -63t7.5 -62.5t3.5 -54.5q0 -57 -28 -94t-96 -37q-17 0 -39.5 2.5t-34.5 6.5l4 28q12 -3 32.5 -6t36.5 -3q29 0 47.5 7.5t29.5 21t15 32.5t4 43q0 25 -3.5 57t-7.5 64t-7.5 62.5t-3.5 52.5q0 24 5 41t14 28.5t20.5 18
t24.5 11.5q-13 4 -24.5 11t-20.5 18t-14 27.5t-5 40.5q0 22 3.5 52.5t7.5 63t7.5 64.5t3.5 57q0 24 -4 43t-15 32.5t-29.5 21t-47.5 7.5q-16 0 -36.5 -3t-32.5 -6l-4 28q12 4 34.5 6.5t39.5 2.5q68 0 96 -37t28 -94q0 -24 -3.5 -54.5t-7.5 -63t-7.5 -64t-3.5 -56.5
q0 -44 22 -63.5t73 -21.5v-26z" />
    <glyph glyph-name="asterisk" unicode="*" horiz-adv-x="412" 
d="M219 665l-2 -121l137 37l8 -24l-136 -34l92 -100l-21 -18l-91 105l-91 -105l-21 18l93 100l-137 34l8 24l137 -37l-2 121h26z" />
    <glyph glyph-name="dagger" unicode="&#x2020;" horiz-adv-x="430" 
d="M229 665v-197h167v-28h-167v-292h-31v292h-165v28h165v197h31z" />
    <glyph glyph-name="daggerdbl" unicode="&#x2021;" horiz-adv-x="430" 
d="M198 496v169h31v-169h167v-28h-167v-112h167v-28h-167v-180h-31v180h-165v28h165v112h-165v28h165z" />
    <glyph glyph-name="section" unicode="&#xa7;" horiz-adv-x="538" 
d="M188 417q-41 27 -69 59.5t-28 74.5q0 40 18 64t46.5 37t64.5 17.5t72 4.5q23 0 46.5 -1.5t45 -3.5t39 -4.5t29.5 -4.5l-6 -28q-11 3 -29 5.5t-39 4.5t-43.5 3t-42.5 1q-33 0 -63.5 -3t-54 -12.5t-38 -28t-14.5 -48.5q0 -35 25 -63t62.5 -53t81 -49.5t81 -53t62.5 -62.5
t25 -78t-22.5 -75.5t-54.5 -47.5q32 -26 53 -58t21 -72q0 -38 -15 -64t-41 -42.5t-60.5 -23.5t-72.5 -7q-59 0 -114 10.5t-96 23.5l5 27q40 -13 93.5 -23t111.5 -10q72 0 115 24.5t43 80.5q0 41 -25 72.5t-62 58.5t-80.5 52t-80.5 51t-62 56.5t-25 69.5q0 47 28.5 76.5
t69.5 42.5zM219 398q-18 -3 -36 -11t-31.5 -20.5t-22 -29t-8.5 -37.5q0 -34 23.5 -61t58.5 -51t77 -47.5t79 -50.5q32 11 50.5 39t18.5 63t-19.5 63.5t-49.5 53t-67 46t-73 43.5z" />
    <glyph glyph-name="paragraph" unicode="&#xb6;" horiz-adv-x="625" 
d="M375 -158h-29v398h-69q-60 0 -100.5 11.5t-66 37t-36.5 67.5t-11 104q0 56 12 95t37.5 63.5t66 35.5t96.5 11h100v-823zM513 665v-823h-30v823h30z" />
    <glyph glyph-name="asciicircum" unicode="^" 
d="M316 665l170 -304h-31l-153 274l-153 -274h-31l170 304h28z" />
    <glyph glyph-name="asciitilde" unicode="~" 
d="M536 344q-11 -29 -35 -47t-66 -18q-23 0 -59 9.5t-74.5 20.5t-74 20.5t-57.5 9.5q-37 0 -54 -14t-26 -37l-22 10q11 29 35 47t66 18q23 0 59 -9.5t74 -20.5t73.5 -20.5t58.5 -9.5q37 0 54 14t26 37z" />
    <glyph glyph-name="brokenbar" unicode="&#xa6;" horiz-adv-x="293" 
d="M161 800v-401h-29v401h29zM161 201v-401h-29v401h29z" />
    <glyph glyph-name="backslash" unicode="\" horiz-adv-x="479" 
d="M78 730l353 -783h-30l-353 783h30z" />
    <glyph glyph-name="underscore" unicode="_" horiz-adv-x="677" 
d="M677 -11v-17h-677v17h677z" />
    <glyph glyph-name="quotesingle" unicode="'" horiz-adv-x="310" 
d="M169 665v-213h-29v213h29z" />
    <glyph glyph-name="quotedbl" unicode="&#x22;" horiz-adv-x="442" 
d="M302 665v-213h-29v213h29zM169 665v-213h-29v213h29z" />
    <glyph glyph-name="at" unicode="@" horiz-adv-x="864" 
d="M526 358q-21 6 -46.5 9.5t-49.5 3.5q-60 0 -93 -37t-33 -116q0 -52 9.5 -84t26 -50t37.5 -24.5t44 -6.5q36 0 62.5 12t47.5 25q-2 5 -2.5 13t-1.5 15q-1 8 -1 16v224zM553 135q0 -18 4 -34.5t14.5 -28.5t28.5 -19.5t45 -7.5q31 0 56 10.5t42.5 36.5t26.5 70t9 112
q0 54 -17 110t-56.5 101.5t-105.5 74t-164 28.5t-164.5 -24t-107.5 -71t-59 -115.5t-18 -158.5q0 -75 14.5 -140.5t52.5 -115t105 -78.5t172 -29q36 0 71.5 4.5t68.5 12t62 17.5t51 22l8 -27q-46 -23 -113.5 -40t-148.5 -17q-112 0 -184 32t-113.5 86t-57.5 124.5t-16 149.5
q0 95 20.5 169t65.5 124.5t117 76.5t174 26q105 0 176 -31t114.5 -80t62 -109.5t18.5 -121.5q0 -72 -11.5 -120.5t-32.5 -78.5t-51 -42.5t-68 -12.5q-43 0 -67.5 16t-34.5 33q-23 -14 -54 -27t-67 -13q-29 0 -55.5 8.5t-46 30.5t-31 58t-11.5 91q0 91 41.5 134.5t111.5 43.5
q34 0 63 -5.5t60 -13.5v-241z" />
    <glyph glyph-name="copyright" unicode="&#xa9;" horiz-adv-x="811" 
d="M249 332q0 97 42.5 141.5t119.5 44.5q29 0 59.5 -5.5t48.5 -9.5l-4 -24q-19 5 -47.5 10t-57.5 5q-66 0 -99.5 -37.5t-33.5 -124.5q0 -46 8 -77t24.5 -50t41 -27t57.5 -8q29 0 59 6t50 11l3 -24q-20 -5 -51.5 -11t-59.5 -6q-38 0 -68 10t-50.5 32.5t-31 58t-10.5 85.5z
M733 332q0 -172 -78.5 -256.5t-249.5 -84.5q-170 0 -248.5 84.5t-78.5 256.5t78.5 257.5t248.5 85.5q171 0 249.5 -85.5t78.5 -257.5zM705 333q0 158 -70.5 237t-229.5 79t-229 -79t-70 -237q0 -159 70 -236.5t229 -77.5t229.5 77.5t70.5 236.5z" />
    <glyph glyph-name="registered" unicode="&#xae;" horiz-adv-x="669" 
d="M271 423q10 -2 24.5 -3t28.5 -1q15 0 29.5 3t26.5 10.5t19.5 20t7.5 30.5q0 35 -22 47.5t-54 12.5h-60v-120zM331 567q44 0 72.5 -19t28.5 -63q0 -38 -20.5 -56.5t-44.5 -24.5q20 -6 29.5 -20t17.5 -34l26 -67h-26l-25 65q-9 23 -23.5 35t-41.5 12q-14 0 -29.5 1t-23.5 3
v-116h-25v284h85zM601 419q0 -125 -68.5 -187.5t-202.5 -62.5t-202.5 62.5t-68.5 187.5t68.5 187.5t202.5 62.5t202.5 -62.5t68.5 -187.5zM575 419q0 226 -245 226t-245 -226t245 -226t245 226z" />
    <glyph glyph-name="trademark" unicode="&#x2122;" horiz-adv-x="786" 
d="M281 665v-24h-103v-275h-27v275h-104v24h234zM514 429l-123 195v-258h-27v299h30l133 -211l133 211h30v-299h-27v258l-123 -195h-26z" />
    <glyph glyph-name="Euro" unicode="&#x20ac;" 
d="M40 413h101q6 76 25.5 126.5t50.5 80.5t74.5 42t97.5 12q34 0 67.5 -4t66.5 -9l-6 -28q-32 5 -65.5 9t-62.5 4q-51 0 -89 -11t-64.5 -37.5t-42 -71.5t-20.5 -113h295l-14 -28h-283q-1 -14 -1.5 -27.5t-0.5 -27.5q0 -23 1 -43t3 -39h234l-13 -28h-218q7 -59 23.5 -97.5
t42 -61.5t59.5 -32.5t76 -9.5q34 0 72 4.5t76 11.5l3 -28q-41 -8 -80 -12t-71 -4q-48 0 -87 11.5t-68.5 38.5t-48.5 71t-28 108h-105v28h101q-2 19 -3 39t-1 43q0 14 0.5 27.5t1.5 27.5h-99v28z" />
    <glyph glyph-name="dollar" unicode="$" 
d="M292 23q-26 1 -54.5 4.5t-56 9.5t-51.5 13t-40 15l6 27q18 -8 41.5 -15.5t51 -13t57 -9t58.5 -3.5q32 0 62.5 3t54.5 13.5t39 30.5t15 53q0 38 -27.5 69t-69 59t-89.5 55t-89.5 54.5t-69 58.5t-27.5 68q0 36 16 58.5t42.5 35t61 17.5t72.5 6v93h30v-94q18 0 38.5 -1.5
t40 -4t36.5 -5t28 -5.5l-4 -28q-11 3 -30 6t-41 5.5t-44 4t-40 1.5q-33 0 -64.5 -2t-56.5 -11t-40.5 -27t-15.5 -49t27.5 -58.5t68.5 -53.5t89.5 -53t89.5 -57t68.5 -64.5t27.5 -76.5q0 -39 -15.5 -63t-40.5 -38.5t-58 -20.5t-67 -7v-108h-30v108z" />
    <glyph glyph-name="cent" unicode="&#xa2;" 
d="M485 531q-13 3 -31 7.5t-39.5 8.5t-45 6.5t-45.5 2.5q-40 0 -77 -9t-65 -34.5t-44.5 -70t-16.5 -113.5q0 -109 52.5 -166.5t151.5 -57.5q54 0 94 10.5t72 21.5l6 -27q-33 -12 -73.5 -21.5t-81.5 -11.5v-161h-30v161q-48 2 -88 17t-69.5 45.5t-46 77t-16.5 112.5
q0 72 17 120t47 77.5t70 42.5t86 15v141h30v-141q43 -2 83.5 -11t66.5 -15l-7 -27v0z" />
    <glyph glyph-name="sterling" unicode="&#xa3;" 
d="M171 358l13 136q5 55 23 90t44 55t59.5 27.5t70.5 7.5q34 0 75 -5t70 -12l-5 -29q-31 8 -70 13t-71 5q-38 0 -66.5 -7.5t-49 -25t-33 -47t-16.5 -73.5l-14 -135h266v-28h-269l-13 -131q-5 -54 -23.5 -98t-51.5 -73h394v-28h-440v24q46 32 66 78t25 101l13 127h-95v28h98z
" />
    <glyph glyph-name="florin" unicode="&#x192;" 
d="M223 358v165q0 82 44.5 116.5t118.5 34.5q28 0 67.5 -4t68.5 -10l-6 -28q-14 3 -31.5 5.5t-35.5 4.5t-34.5 3t-28.5 1q-30 0 -54.5 -5.5t-42 -19t-27 -38t-9.5 -61.5v-164h256v-28h-256v-330h-30v330h-137v28h137z" />
    <glyph glyph-name="yen" unicode="&#xa5;" 
d="M81 665l232 -387l213 387h32l-137 -249h145v-28h-160l-70 -123h230v-28h-238v-237h-30v237h-233v28h224l-73 123h-151v28h134l-151 249h33z" />
    <glyph glyph-name="ordfeminine" unicode="&#xaa;" horiz-adv-x="358" 
d="M247 515q-19 3 -38.5 5.5t-39.5 2.5q-18 0 -34.5 -2.5t-29.5 -10t-20.5 -20t-7.5 -33.5q0 -36 24 -50.5t62 -14.5q18 0 41 3.5t43 9.5v110zM75 661q21 6 44 9.5t48 3.5q45 0 74 -19.5t29 -67.5v-197q-20 -6 -47.5 -13t-59.5 -7q-20 0 -39.5 4t-35 14t-25 27t-9.5 42t9 42
t25 27t36.5 14t43.5 4q20 0 40.5 -2t38.5 -5v50q0 20 -7 33t-18 20t-25 9.5t-29 2.5q-29 0 -49 -3.5t-41 -9.5z" />
    <glyph glyph-name="ordmasculine" unicode="&#xba;" horiz-adv-x="358" 
d="M311 517q0 -41 -10 -70.5t-27 -48t-41.5 -27t-52.5 -8.5q-29 0 -53 8.5t-41.5 27t-27.5 48t-10 70.5q0 83 37 119t95 36q57 0 94 -36t37 -119zM286 517q0 38 -8.5 63t-22.5 40t-34 21.5t-42 6.5t-41.5 -6.5t-33.5 -21.5t-22.5 -40t-8.5 -63t8.5 -62.5t22.5 -39.5
t33.5 -21.5t41.5 -6.5t42 6.5t34 21.5t22.5 39.5t8.5 62.5z" />
    <glyph glyph-name="numbersign" unicode="#" horiz-adv-x="715" 
d="M429 219h-186l-38 -219h-29l38 219h-155l5 28h155l32 177h-155l4 28h155l38 213h29l-38 -213h186l38 213h29l-38 -213h156l-4 -28h-156l-32 -177h156l-5 -28h-156l-38 -219h-29zM248 247h186l32 177h-186z" />
    <glyph glyph-name="zero" unicode="0" 
d="M496 334q0 87 -11 146.5t-34.5 96.5t-60 53t-88.5 16t-88.5 -16t-60 -53t-34.5 -96.5t-11 -146.5t11 -147t34.5 -97.5t60 -54t88.5 -16.5t88.5 16.5t60 54t34.5 97.5t11 147zM76 334q0 94 13.5 158.5t41.5 105t70.5 58.5t100.5 18t100.5 -18t70.5 -58.5t41.5 -105
t13.5 -158.5q0 -95 -13.5 -160t-41.5 -106t-70.5 -59t-100.5 -18t-100.5 18t-70.5 59t-41.5 106t-13.5 160z" />
    <glyph glyph-name="one" unicode="1" 
d="M320 665h23v-665h-30v636l-156 -44v28z" />
    <glyph glyph-name="two" unicode="2" 
d="M92 656q13 3 33.5 6.5t43 6t45 4t41.5 1.5q48 0 88 -9t68.5 -29.5t44.5 -52.5t16 -78q0 -47 -15 -84t-39.5 -70t-57 -64.5t-67.5 -67.5l-189 -193h373v-26h-415v24l213 217q33 34 63.5 63.5t53.5 60t36.5 64.5t13.5 76q0 40 -13.5 67t-38 43.5t-59 23.5t-76.5 7
q-41 0 -84 -5.5t-76 -12.5z" />
    <glyph glyph-name="three" unicode="3" 
d="M472 665v-21l-238 -265h30q43 0 82.5 -7t70.5 -27.5t49.5 -57t18.5 -95.5q0 -60 -17.5 -99t-50 -61.5t-77 -31.5t-98.5 -9q-38 0 -85 4.5t-89 12.5l4 27q40 -8 85 -12t86 -4q49 0 88.5 7.5t67 27t42 53t14.5 85.5t-16 83.5t-42.5 48t-60.5 22t-71 5.5h-72v24l235 262
h-345v28h389z" />
    <glyph glyph-name="four" unicode="4" 
d="M442 665v-449h108v-28h-108v-188h-30v188h-374v20l367 457h37zM412 216v415l-331 -415h331z" />
    <glyph glyph-name="five" unicode="5" 
d="M100 35q44 -8 86 -12t83 -4q43 0 79.5 8t63 28t41 55.5t14.5 91.5q0 55 -13 90t-37 55t-58 27.5t-77 7.5q-17 0 -37 -1.5t-40.5 -4t-40 -6t-34.5 -7.5l-15 15l25 287h338v-28h-312l-20 -242q8 2 23 4.5t34 5t39 4t39 1.5q50 0 90.5 -10.5t68.5 -35t43 -64.5t15 -99
q0 -61 -17 -101.5t-47.5 -64.5t-72.5 -34t-92 -10q-41 0 -84.5 4t-88.5 13l4 27v0z" />
    <glyph glyph-name="six" unicode="6" 
d="M504 632q-33 7 -76.5 10.5t-81.5 3.5q-56 0 -96.5 -15t-67.5 -49t-41 -89t-15 -136q43 14 92 24t101 10q49 0 87 -10t64.5 -32t40.5 -57.5t14 -87.5q0 -47 -14 -86.5t-40.5 -67.5t-64.5 -43.5t-85 -15.5q-67 0 -110.5 23.5t-69.5 67t-36.5 106t-10.5 141.5
q0 99 16.5 165.5t48.5 106t79 56.5t109 17q42 0 85 -4t78 -10zM126 327q1 -66 8 -122t27 -97.5t58 -65t102 -23.5q80 0 126 48.5t46 137.5q0 88 -42.5 123t-130.5 35q-43 0 -94.5 -9.5t-99.5 -26.5z" />
    <glyph glyph-name="seven" unicode="7" 
d="M514 665v-23l-347 -642h-33l346 637h-389v28h423z" />
    <glyph glyph-name="eight" unicode="8" 
d="M302 336q-88 0 -138.5 -38.5t-50.5 -127.5q0 -74 47.5 -112.5t141.5 -38.5t141.5 38.5t47.5 112.5q0 89 -50.5 127.5t-138.5 38.5zM302 -9q-57 0 -98.5 13.5t-68.5 37.5t-40 57t-13 72q0 45 12.5 77t33 53.5t45.5 33.5t49 15q-24 6 -46 17.5t-39.5 31t-28 46.5t-10.5 64
q0 36 13.5 66t39 52t63.5 34.5t88 12.5q49 0 87.5 -12.5t64 -34.5t39 -52t13.5 -66q0 -37 -10.5 -64t-28 -46.5t-39.5 -31t-46 -17.5q24 -3 49 -15t45.5 -33.5t33 -53.5t12.5 -77q0 -39 -13 -72t-40 -57t-68.5 -37.5t-98.5 -13.5zM302 364q38 0 70 8.5t55 26t35.5 44.5
t12.5 65q0 65 -44 101.5t-129 36.5t-129 -36.5t-44 -101.5q0 -38 12.5 -65t35.5 -44.5t55 -26t70 -8.5z" />
    <glyph glyph-name="nine" unicode="9" 
d="M108 35q39 -9 82 -12.5t81 -3.5q55 0 94.5 15t65 49t37.5 89t13 136q-43 -14 -92 -24t-101 -10q-49 0 -87 10t-64.5 32t-40.5 57.5t-14 87.5q0 47 14 86.5t40.5 67.5t64.5 43.5t85 15.5q67 0 110.5 -23.5t69.5 -67t36.5 -106t10.5 -141.5q0 -99 -15 -165.5t-45 -106
t-76 -56.5t-107 -17q-42 0 -84 4t-82 13zM481 338q-2 66 -8.5 122t-27 97.5t-58 65t-101.5 23.5q-80 0 -126 -48.5t-46 -137.5q0 -44 10.5 -74.5t32 -49t54 -26.5t76.5 -8q43 0 94.5 9.5t99.5 26.5z" />
    <glyph glyph-name="onesuperior" unicode="&#xb9;" horiz-adv-x="293" 
d="M156 665h15v-334h-26v309l-92 -24v23z" />
    <glyph glyph-name="twosuperior" unicode="&#xb2;" horiz-adv-x="330" 
d="M63 664q16 4 38 7t45 3q24 0 45.5 -4t38 -14t26.5 -27t10 -43q0 -19 -5 -34.5t-15.5 -30.5t-26.5 -31.5t-37 -38.5l-93 -95h182v-24h-220v20l116 119q21 21 35 36.5t22.5 28t11.5 24t3 26.5q0 20 -7.5 32.5t-20 20t-29 10.5t-35.5 3q-23 0 -45.5 -3.5t-36.5 -8.5z" />
    <glyph glyph-name="threesuperior" unicode="&#xb3;" horiz-adv-x="330" 
d="M255 665v-24l-124 -121h15q22 0 43 -5t37 -16.5t25.5 -29t9.5 -42.5q0 -53 -28 -80.5t-92 -27.5q-31 0 -54.5 3.5t-47.5 10.5l5 24q22 -7 44.5 -10.5t52.5 -3.5q45 0 69.5 17.5t24.5 66.5q0 22 -8.5 35.5t-23 21.5t-34 11t-41.5 3h-34v17l129 126h-178v24h210z" />
    <glyph glyph-name="fraction" unicode="&#x2044;" horiz-adv-x="501" 
d="M479 665l-429 -665h-28l428 665h29z" />
    <glyph glyph-name="onequarter" unicode="&#xbc;" horiz-adv-x="780" 
d="M673 344v-235h52v-24h-52v-85h-28v85h-168v22l159 237h37zM645 109v206l-138 -207zM596 665l-429 -665h-28l428 665h29zM164 665h15v-334h-26v309l-92 -24v23z" />
    <glyph glyph-name="onehalf" unicode="&#xbd;" horiz-adv-x="773" 
d="M478 332q16 4 38 7t45 3q24 0 45.5 -4t38 -14t26.5 -27t10 -43q0 -19 -5 -34.5t-15.5 -30.5t-26.5 -31.5t-37 -38.5l-93 -95h182v-24h-220v20l116 119q21 21 35 36.5t22.5 28t11.5 24t3 26.5q0 20 -7.5 32.5t-20 20t-29 10.5t-35.5 3q-23 0 -45.5 -3.5t-36.5 -8.5z
M596 665l-429 -665h-28l428 665h29zM164 665h15v-334h-26v309l-92 -24v23z" />
    <glyph glyph-name="threequarters" unicode="&#xbe;" horiz-adv-x="780" 
d="M673 343v-234h52v-24h-52v-85h-28v85h-168v21l159 237h37zM645 109v206l-138 -207zM635 665l-429 -665h-28l428 665h29zM252 665v-24l-124 -121h15q22 0 43 -5t37 -16.5t25.5 -29t9.5 -42.5q0 -53 -28 -80.5t-92 -27.5q-31 0 -54.5 3.5t-47.5 10.5l5 24q22 -7 44.5 -10.5
t52.5 -3.5q45 0 69.5 17.5t24.5 66.5q0 22 -8.5 35.5t-23 21.5t-34 11t-41.5 3h-34v17l129 126h-178v24h210z" />
    <glyph glyph-name="percent" unicode="%" horiz-adv-x="860" 
d="M354 502q0 -48 -11 -80.5t-30 -53t-45.5 -30t-56.5 -9.5t-56.5 9.5t-45.5 30t-30 53t-11 80.5q0 46 11 79t30 53.5t45.5 30t56.5 9.5t56.5 -9.5t45.5 -30t30 -53.5t11 -79zM327 502q0 43 -8.5 71.5t-24 45.5t-37 24t-46.5 7t-46.5 -7t-37 -24t-24 -45.5t-8.5 -71.5
q0 -44 8.5 -72.5t24 -45.5t37 -24t46.5 -7t46.5 7t37 24t24 45.5t8.5 72.5zM794 164q0 -47 -11 -79.5t-30 -53t-45.5 -30t-56.5 -9.5t-56.5 9.5t-45.5 30t-30 53t-11 79.5q0 45 11 78t30 53.5t45.5 30t56.5 9.5t56.5 -9.5t45.5 -30t30 -53.5t11 -78zM767 164q0 43 -8.5 71
t-24 45t-37 24t-46.5 7t-46.5 -7t-37 -24t-24 -45t-8.5 -71q0 -44 8.5 -72t24 -45t37 -24t46.5 -7t46.5 7t37 24t24 45t8.5 72zM660 665l-429 -665h-28l428 665h29z" />
    <glyph glyph-name="perthousand" unicode="&#x2030;" horiz-adv-x="1241" 
d="M1176 164q0 -47 -11 -79.5t-30 -53t-45.5 -30t-56.5 -9.5t-56.5 9.5t-45.5 30t-30 53t-11 79.5q0 45 11 78t30 53.5t45.5 30t56.5 9.5t56.5 -9.5t45.5 -30t30 -53.5t11 -78zM1149 164q0 43 -8.5 71t-24 45t-37 24t-46.5 7t-46.5 -7t-37 -24t-24 -45t-8.5 -71
q0 -44 8.5 -72t24 -45t37 -24t46.5 -7t46.5 7t37 24t24 45t8.5 72zM354 502q0 -48 -11 -80.5t-30 -53t-45.5 -30t-56.5 -9.5t-56.5 9.5t-45.5 30t-30 53t-11 80.5q0 46 11 79t30 53.5t45.5 30t56.5 9.5t56.5 -9.5t45.5 -30t30 -53.5t11 -79zM327 502q0 43 -8.5 71.5
t-24 45.5t-37 24t-46.5 7t-46.5 -7t-37 -24t-24 -45.5t-8.5 -71.5q0 -44 8.5 -72.5t24 -45.5t37 -24t46.5 -7t46.5 7t37 24t24 45.5t8.5 72.5zM794 164q0 -47 -11 -79.5t-30 -53t-45.5 -30t-56.5 -9.5t-56.5 9.5t-45.5 30t-30 53t-11 79.5q0 45 11 78t30 53.5t45.5 30
t56.5 9.5t56.5 -9.5t45.5 -30t30 -53.5t11 -78zM767 164q0 43 -8.5 71t-24 45t-37 24t-46.5 7t-46.5 -7t-37 -24t-24 -45t-8.5 -71q0 -44 8.5 -72t24 -45t37 -24t46.5 -7t46.5 7t37 24t24 45t8.5 72zM660 665l-429 -665h-28l428 665h29z" />
    <glyph glyph-name="plus" unicode="+" 
d="M289 331v191h26v-191h212v-24h-212v-190h-26v190h-210v24h210z" />
    <glyph glyph-name="minus" unicode="&#x2212;" 
d="M527 331v-24h-448v24h448z" />
    <glyph glyph-name="plusminus" unicode="&#xb1;" 
d="M527 24v-24h-448v24h448zM289 331v191h26v-191h212v-24h-212v-190h-26v190h-210v24h210z" />
    <glyph glyph-name="multiply" unicode="&#xd7;" 
d="M294 301l-174 -162l-18 18l175 163l-175 163l18 18l174 -162l174 162l18 -18l-175 -163l175 -163l-18 -18z" />
    <glyph glyph-name="divide" unicode="&#xf7;" 
d="M308 185q14 0 22 -7t8 -21t-8 -22t-22 -8q-12 0 -20.5 8t-8.5 22t8.5 21t20.5 7zM308 512q14 0 22 -7t8 -21t-8 -22t-22 -8q-12 0 -20.5 8t-8.5 22t8.5 21t20.5 7zM527 331v-24h-448v24h448z" />
    <glyph glyph-name="equal" unicode="=" 
d="M527 430v-24h-448v24h448zM527 230v-24h-448v24h448z" />
    <glyph glyph-name="notequal" unicode="&#x2260;" 
d="M340 430l70 150h28l-70 -150h159v-24h-170l-82 -176h252v-24h-264l-69 -148h-27l69 148h-157v24h168l82 176h-250v24h261z" />
    <glyph glyph-name="approxequal" unicode="&#x2248;" 
d="M538 430q-11 -29 -35 -47t-66 -18q-23 0 -59 9.5t-74.5 20.5t-74 20.5t-57.5 9.5q-37 0 -54 -14t-26 -37l-22 10q11 29 35 47t66 18q23 0 59 -9.5t74 -20.5t73.5 -20.5t58.5 -9.5q37 0 54 14t26 37zM538 252q-11 -29 -35 -47t-66 -18q-23 0 -59 9.5t-74.5 20.5t-74 20.5
t-57.5 9.5q-37 0 -54 -14t-26 -37l-22 10q11 29 35 47t66 18q23 0 59 -9.5t74 -20.5t73.5 -20.5t58.5 -9.5q37 0 54 14t26 37z" />
    <glyph glyph-name="less" unicode="&#x3c;" 
d="M79 333l448 190v-25l-420 -179l420 -179v-25l-448 190v28z" />
    <glyph glyph-name="greater" unicode="&#x3e;" 
d="M526 305l-448 -190v25l420 179l-420 179v25l448 -190v-28z" />
    <glyph glyph-name="lessequal" unicode="&#x2264;" 
d="M78 333l448 190v-25l-420 -179l420 -179v-25l-448 190v28zM526 24v-24h-448v24h448z" />
    <glyph glyph-name="greaterequal" unicode="&#x2265;" 
d="M526 305l-448 -190v25l420 179l-420 179v25l448 -190v-28zM526 24v-24h-448v24h448z" />
    <glyph glyph-name="logicalnot" unicode="&#xac;" 
d="M527 430v-224h-24v200h-424v24h448z" />
    <glyph glyph-name="Delta" unicode="&#x394;" 
d="M284 665h39l235 -665h-509zM302 637l-213 -609h427z" />
    <glyph glyph-name="Delta" unicode="&#x2206;" 
d="M284 665h39l235 -665h-509zM302 637l-213 -609h427z" />
    <glyph glyph-name="Omega" unicode="&#x3a9;" horiz-adv-x="693" 
d="M346 674q137 0 200 -84.5t63 -259.5q0 -66 -11 -115t-31 -84.5t-47.5 -60t-61.5 -42.5h173v-28h-239v25q45 18 79.5 40.5t58 56.5t35.5 84t12 124q0 87 -14 147.5t-42.5 98t-72 54t-102.5 16.5t-102.5 -16.5t-72 -54t-42.5 -98t-14 -147.5q0 -74 12 -124t35.5 -84
t58 -56.5t79.5 -40.5v-25h-239v28h173q-34 18 -61.5 42.5t-47.5 60t-31 84.5t-11 115q0 175 63 259.5t200 84.5z" />
    <glyph glyph-name="Omega" unicode="&#x2126;" horiz-adv-x="693" 
d="M346 674q137 0 200 -84.5t63 -259.5q0 -66 -11 -115t-31 -84.5t-47.5 -60t-61.5 -42.5h173v-28h-239v25q45 18 79.5 40.5t58 56.5t35.5 84t12 124q0 87 -14 147.5t-42.5 98t-72 54t-102.5 16.5t-102.5 -16.5t-72 -54t-42.5 -98t-14 -147.5q0 -74 12 -124t35.5 -84
t58 -56.5t79.5 -40.5v-25h-239v28h173q-34 18 -61.5 42.5t-47.5 60t-31 84.5t-11 115q0 175 63 259.5t200 84.5z" />
    <glyph glyph-name="mu" unicode="&#xb5;" horiz-adv-x="566" 
d="M96 474h27v-316q0 -41 13 -67.5t34 -43t48.5 -23t56.5 -6.5q50 0 94 8t64 15v433h27v-449q-38 -13 -83 -22t-102 -9q-48 0 -88 16t-64 52v-250h-27v662z" />
    <glyph glyph-name="mu" unicode="&#x3bc;" horiz-adv-x="566" 
d="M96 474h27v-316q0 -41 13 -67.5t34 -43t48.5 -23t56.5 -6.5q50 0 94 8t64 15v433h27v-449q-38 -13 -83 -22t-102 -9q-48 0 -88 16t-64 52v-250h-27v662z" />
    <glyph glyph-name="pi" unicode="&#x3c0;" horiz-adv-x="600" 
d="M566 474v-24h-114v-450h-28v450h-248v-450h-28v450h-114v24h532z" />
    <glyph glyph-name="degree" unicode="&#xb0;" horiz-adv-x="385" 
d="M311 561q0 -53 -32 -83t-86 -30t-86 30t-32 83q0 52 32 82.5t86 30.5t86 -30.5t32 -82.5zM283 561q0 40 -24 63.5t-66 23.5t-66 -23.5t-24 -63.5q0 -41 24 -64t66 -23t66 23t24 64z" />
    <glyph glyph-name="infinity" unicode="&#x221e;" horiz-adv-x="682" 
d="M325 318q-23 23 -42.5 40t-37 28t-35 16.5t-37.5 5.5q-41 0 -66 -22.5t-25 -67.5t25 -67.5t66 -22.5q20 0 37.5 5.5t35 16.5t37 28t42.5 40zM341 336q24 24 44.5 42t40 30t39.5 18t43 6q54 0 86.5 -30t32.5 -84t-32.5 -84t-86.5 -30q-23 0 -43 6t-39.5 18t-40 30
t-44.5 42q-47 -47 -85 -71.5t-84 -24.5q-54 0 -85.5 30.5t-31.5 83.5q0 54 32.5 84t86.5 30q23 0 43 -6t39.5 -18t40 -30t44.5 -42zM357 318q23 -23 42.5 -40t37 -28t35 -16.5t37.5 -5.5q41 0 66 22.5t25 67.5t-25 67.5t-66 22.5q-20 0 -37.5 -5.5t-35 -16.5t-37 -28
t-42.5 -40z" />
    <glyph glyph-name="partialdiff" unicode="&#x2202;" horiz-adv-x="603" 
d="M189 640q29 11 68 22.5t96 11.5q91 0 132 -45t41 -138q0 -44 -6.5 -98t-21 -109.5t-37.5 -108.5t-57.5 -93.5t-80 -65.5t-104.5 -25q-80 0 -125 44.5t-45 120.5q0 117 62.5 177.5t179.5 60.5q63 0 111.5 -14t80.5 -28q8 42 11 76.5t3 63.5q0 87 -36.5 120.5t-109.5 33.5
q-54 0 -90.5 -10.5t-67.5 -22.5zM477 322q-35 18 -82.5 31t-104.5 13q-47 0 -86 -11.5t-66.5 -36.5t-43 -65.5t-15.5 -98.5q0 -64 36.5 -100.5t105.5 -36.5q90 0 156.5 78.5t99.5 226.5z" />
    <glyph glyph-name="integral" unicode="&#x222b;" horiz-adv-x="276" 
d="M-34 -165h9q31 0 58.5 6t47.5 21.5t32 41t12 64.5v605q0 44 14 74t38 48.5t56 26.5t69 8h9v-24h-9q-31 0 -58.5 -6t-48 -21.5t-32.5 -41t-12 -64.5v-605q0 -44 -13.5 -74t-37.5 -48.5t-56 -26.5t-69 -8h-9v24z" />
    <glyph glyph-name="radical" unicode="&#x221a;" 
d="M168 474l147 -444l215 635h28l-225 -665h-36l-151 450h-97v24h119z" />
    <glyph glyph-name="summation" unicode="&#x2211;" 
d="M372 345l-253 -317h410v-28h-449v24l257 321l-257 296v24h439v-28h-400z" />
    <glyph glyph-name="product" unicode="&#x220f;" horiz-adv-x="715" 
d="M671 665v-28h-95v-637h-30v637h-382v-637h-30v637h-95v28h632z" />
    <glyph glyph-name="lozenge" unicode="&#x25ca;" 
d="M76 333l209 332h34l209 -332l-209 -333h-34zM495 333l-193 304l-192 -304l192 -305z" />
    <glyph glyph-name="apple" horiz-adv-x="1100" 
d="M821 784h5q30 0 42 -38l47 -156l-499 59l-56 -72l217 -33l-123 -351l-317 23q-13 1 -26 4.5t-23.5 10t-17 16t-6.5 22.5q0 5 1 12t3 14l153 410q7 16 29 26.5t48 12.5zM169 290q-1 -5 -1.5 -9t-0.5 -7q0 -16 12 -25t31 -11l226 -21l97 265l-188 27l-8 68l71 89l481 -54
l-34 112q-5 14 -17.5 18.5t-24.5 5.5l-452 -34q-16 -1 -33.5 -8.5t-23.5 -26.5zM944 486l80 -279q1 -2 1 -9q0 -19 -16 -29.5t-42 -10.5l-234 13v348zM815 190l151 -12h3q14 0 22.5 8.5t8.5 18.5q0 6 -1 7l-65 211l-119 22v-255zM61 9h25q19 -1 32 10t13 38q0 29 -13 40
t-32 10h-25v-98zM88 122q27 0 44.5 -15.5t18.5 -49.5q-1 -33 -18.5 -48t-44.5 -15h-45v128h45zM233 52q-3 21 -23 21q-12 0 -19 -8t-7 -21zM185 32q1 -13 8.5 -19t18.5 -6q9 -1 15.5 3t11.5 11l12 -6q-6 -10 -15.5 -16t-23.5 -6q-21 0 -34 12.5t-14 35.5q1 19 13 32t33 14
q22 -1 32 -13t11 -32zM280 21q8 -14 25 -14q22 0 19 13q1 7 -7.5 9.5t-19 5.5t-19.5 8t-9 17t10 19t27 8q25 -1 36 -18l-12 -8q-6 12 -25 12q-18 0 -18 -13q0 -7 8.5 -9.5t19 -5t19 -8t8.5 -17.5q0 -13 -9.5 -20t-26.5 -7q-15 0 -25 6t-15 16zM385 113q-2 -8 -11 -8
q-10 0 -10 8q0 9 10 9q9 0 11 -9zM383 86v-92h-18v92h18zM474 69q-7 4 -21 4q-12 0 -20 -8t-8 -24q0 -32 26 -32q17 0 23 13v47zM493 -8q0 -39 -43 -39q-28 0 -41 21l12 9q5 -8 11.5 -12t17.5 -4q26 0 24 24v16q-8 -13 -27 -13q-20 0 -30 12.5t-11 34.5q1 23 14.5 34.5
t33.5 11.5q26 -2 39 -11v-84zM541 86v-17q10 16 32 18q31 -1 32 -31v-62h-19v62q0 17 -18 17q-10 0 -15.5 -4.5t-10.5 -11.5v-63h-17v92h16zM694 52q-3 21 -23 21q-13 0 -20.5 -8t-7.5 -21zM645 32q3 -25 28 -25q18 -2 25 14l14 -6q-5 -10 -15 -16t-24 -6q-47 0 -47 48
q0 19 12 32t33 14q22 -1 32.5 -13t10.5 -32zM796 63q-8 10 -23 10q-13 0 -20 -9t-7 -24t7 -24t20 -9q15 0 23 13v43zM815 126v-108q0 -5 0.5 -12t2.5 -12l-16 -1q0 3 -1 6.5t-1 7.5q-5 -6 -12.5 -10t-18.5 -4q-19 0 -30.5 13t-11.5 35q0 21 13 33t30 13q20 -1 26 -10v49h19z
M914 20q10 -13 24 -13t20.5 9.5t6.5 24.5q0 32 -27 32q-8 0 -13.5 -4.5t-10.5 -10.5v-38zM914 126v-54q9 13 31 15q19 -1 28 -13t9 -33q0 -22 -10.5 -35t-28.5 -13q-23 0 -32 14q0 -8 -3 -14l-16 1q2 6 3.5 12.5t1.5 11.5v108h17zM1009 86l27 -75l27 75h18l-40 -100
q-6 -17 -16 -25t-29 -9l-4 13q23 1 31 21l3 7l-35 93h18zM197 -62l-1 -14h-39v-113h-18v113h-39v14h97zM305 -163q6 -13 24 -13q13 0 19 9t6 24q0 32 -24 32q-16 0 -25 -14v-38zM302 -97v-15q12 14 33 16q20 -1 29 -13.5t9 -33.5q1 -21 -9 -34.5t-32 -13.5q-10 0 -16.5 4
t-10.5 8v-50l-18 -1v132zM433 -96q22 -1 34 -14t13 -33q-1 -21 -13 -34t-34 -14q-21 1 -33 14t-13 34q1 20 13 33t33 14zM433 -111q-13 0 -20 -9t-7 -23q0 -15 7 -24t20 -9t20 9t7 24q0 14 -7 23t-20 9zM520 -163q8 -13 23 -13q14 0 20 9t6 24t-5.5 23.5t-19.5 8.5
q-15 0 -24 -14v-38zM518 -97v-15q10 14 33 16q18 -1 27.5 -13.5t9.5 -33.5q2 -21 -9 -34.5t-31 -13.5q-9 0 -16 4t-12 8v-50l-18 -1v132zM630 -57v-54q10 13 31 15q31 -1 32 -31v-62h-19v62q0 16 -18 16t-26 -16v-62h-18v131zM714 -115q6 7 15.5 12.5t24.5 6.5
q20 -2 27.5 -11t7.5 -21v-37q0 -5 1 -11.5t3 -11.5l-16 -3q-1 4 -1 7.5t-2 7.5q-4 -6 -11 -10.5t-18 -4.5q-32 0 -32 26q-1 17 19 24q5 2 17 4t22 3v7q0 7 -4 11.5t-16 4.5q-10 0 -15 -3.5t-9 -8.5zM771 -146q-8 -1 -17.5 -3t-14.5 -3q-9 -4 -9 -11q0 -13 18 -13q17 0 23 14
v16zM878 -115q-8 6 -21 4q-13 0 -21 -7.5t-8 -24.5q0 -31 27 -32q16 2 23 14v46zM895 -191q0 -39 -41 -39q-31 0 -41 21l12 9q5 -8 11.5 -12t17.5 -4q26 0 24 24v16q-8 -13 -28 -13q-19 0 -29 12.5t-10 33.5q0 23 13.5 35t33.5 12q11 -1 21 -3.5t16 -7.5v-84zM987 -131
q-1 20 -23 20q-12 0 -19 -8t-7 -20zM938 -151q2 -13 9.5 -19t18.5 -6q18 -1 25 13l13 -5q-5 -10 -14 -16.5t-24 -6.5q-21 0 -33.5 12.5t-13.5 35.5q1 20 13 33t32 14q21 -1 31.5 -13t12.5 -32zM197 -98l27 -75l27 75h18l-40 -100q-6 -17 -16 -25t-29 -9l-4 13q23 1 31 21
l4 7l-36 93h18z" />
    <glyph glyph-name="uni00A0" unicode="&#xa0;" horiz-adv-x="245" 
 />
    <glyph glyph-name="uni00AD" unicode="&#xad;" horiz-adv-x="380" 
d="M312 283v-24h-244v24h244z" />
    <glyph glyph-name="afii10017" unicode="&#x410;" horiz-adv-x="686" 
d="M141 0h-30v432q0 51 11.5 95.5t39 77t72 51t110.5 18.5t111 -18.5t72 -51.5t38.5 -77t11.5 -95v-432h-30v280h-406v-280zM547 308v123q0 45 -9 84t-32 68.5t-62.5 46t-99.5 16.5t-99.5 -16.5t-62.5 -46t-32 -68.5t-9 -84v-123h406z" />
    <glyph glyph-name="afii10065" unicode="&#x430;" horiz-adv-x="500" 
d="M100 471q25 5 58 8t65 3q37 0 70 -7t58 -24.5t39.5 -45.5t14.5 -70v-312q-22 -7 -42 -12.5t-41 -9.5t-44.5 -6.5t-52.5 -2.5q-37 0 -69 7.5t-55 25t-36.5 44.5t-13.5 66q0 40 14 66.5t38.5 42.5t58.5 22t73 6q42 0 78.5 -5t63.5 -10v79q0 35 -12.5 58.5t-33.5 37.5
t-49 20t-59 6q-30 0 -63 -3t-56 -8zM377 233q-31 6 -66 10.5t-76 4.5q-36 0 -65 -4.5t-49.5 -17.5t-31.5 -35t-11 -57q0 -33 11.5 -56t31.5 -36.5t46.5 -19.5t57.5 -6q49 0 88.5 7.5t63.5 15.5v194z" />
    <glyph glyph-name="afii10019" unicode="&#x412;" horiz-adv-x="618" 
d="M155 37q30 -7 73.5 -12.5t94.5 -5.5q55 0 91 11.5t58 32t31 48.5t9 61q0 38 -9.5 66t-32 46.5t-59 27.5t-90.5 9h-166v-284zM155 349h166q170 0 170 152q0 72 -41.5 104t-133.5 32h-161v-288zM317 665q102 0 153.5 -39.5t51.5 -124.5q0 -41 -10.5 -69.5t-26.5 -48
t-36 -30.5t-39 -16q25 -5 49 -15.5t43 -29.5t30 -48.5t11 -71.5q0 -38 -11.5 -71t-37 -57.5t-68 -38.5t-103.5 -14q-56 0 -102 7t-96 18v649h192z" />
    <glyph glyph-name="afii10022" unicode="&#x415;" horiz-adv-x="555" 
d="M478 665v-28h-328v-277h291v-28h-291v-214q0 -45 25 -67.5t73 -22.5h246v-28h-246q-62 0 -95 31t-33 86v548h358z" />
    <glyph glyph-name="afii10030" unicode="&#x41c;" horiz-adv-x="897" 
d="M433 221l-280 403v-624h-28v665h33l290 -417l290 417h33v-665h-28v624l-281 -403h-29z" />
    <glyph glyph-name="afii10028" unicode="&#x41a;" horiz-adv-x="582" 
d="M155 665v-395l362 395h35l-271 -296q39 -9 68 -23.5t51.5 -35t40.5 -48t33 -62.5l88 -200h-32l-84 189q-15 33 -31 58.5t-37 45t-49 32.5t-67 20l-107 -112v-233h-30v665h30z" />
    <glyph glyph-name="afii10031" unicode="&#x41d;" horiz-adv-x="748" 
d="M155 665v-307h438v307h30v-665h-30v330h-438v-330h-30v665h30z" />
    <glyph glyph-name="afii10032" unicode="&#x41e;" horiz-adv-x="682" 
d="M341 674q61 0 110 -17.5t83 -57.5t52 -105.5t18 -161.5q0 -95 -18 -160t-52 -105.5t-83 -58t-110 -17.5t-110 17.5t-83 58t-52 105.5t-18 160q0 96 18 161.5t52 105.5t83 57.5t110 17.5zM341 646q-56 0 -99.5 -16t-72.5 -53t-44 -97t-15 -148t15 -148t44 -96.5
t72.5 -52.5t99.5 -16t99 16t72.5 52.5t44.5 96.5t15 148t-15 148t-44.5 97t-72.5 53t-99 16z" />
    <glyph glyph-name="afii10034" unicode="&#x420;" horiz-adv-x="620" 
d="M155 303q44 -8 85 -12t79 -4q60 0 100 11.5t63.5 34t33.5 55.5t10 77q0 49 -11 82t-35 53t-62 28.5t-92 8.5h-171v-334zM326 665q56 0 99 -10t72.5 -33t44.5 -61.5t15 -95.5q0 -105 -57 -155.5t-181 -50.5q-38 0 -79.5 4t-84.5 12v-275h-30v665h201z" />
    <glyph glyph-name="afii10035" unicode="&#x421;" horiz-adv-x="578" 
d="M78 330q0 102 19.5 168.5t55 105.5t85.5 54.5t112 15.5q42 0 82 -3.5t81 -10.5l-6 -28q-38 7 -79 10.5t-77 3.5q-58 0 -103 -14.5t-75.5 -50.5t-46.5 -97t-16 -154q0 -92 16.5 -152t46.5 -95.5t72.5 -49.5t93.5 -14q40 0 84.5 4t89.5 12l3 -27q-46 -10 -93 -13.5
t-84 -3.5q-58 0 -106 17t-82.5 56.5t-53.5 104.5t-19 161z" />
    <glyph glyph-name="afii10036" unicode="&#x422;" horiz-adv-x="556" 
d="M534 665v-28h-241v-637h-30v637h-241v28h512z" />
    <glyph glyph-name="afii10039" unicode="&#x425;" horiz-adv-x="537" 
d="M35 665h34l202 -295l209 295h34l-226 -319l235 -346h-35l-218 320l-223 -320h-34l240 345z" />
    <glyph glyph-name="afii10087" unicode="&#x445;" horiz-adv-x="445" 
d="M223 225l-172 -225h-33l188 245l-180 229h32l164 -207l167 207h31l-181 -228l189 -246h-33z" />
    <glyph glyph-name="afii10083" unicode="&#x441;" horiz-adv-x="473" 
d="M397 446q-26 5 -58 8.5t-64 3.5q-41 0 -74 -9.5t-56.5 -34.5t-36.5 -67.5t-13 -109.5t13 -110t36.5 -67.5t57 -34t74.5 -9.5q35 0 63.5 4t60.5 12l3 -24q-37 -8 -65 -12t-63 -4q-44 0 -82 11t-66 39t-44 75t-16 119t15.5 119.5t43.5 75.5t66 39.5t83 11.5q33 0 67 -3.5
t59 -8.5z" />
    <glyph glyph-name="afii10082" unicode="&#x440;" horiz-adv-x="560" 
d="M106 450q45 14 94 23t91 9q43 0 80 -12t64 -40.5t42.5 -76t15.5 -117.5q0 -77 -18 -125t-47.5 -74.5t-66.5 -35.5t-74 -9q-41 0 -79.5 5t-73.5 13v-198h-28v638zM134 35q35 -7 70.5 -13t82.5 -6q37 0 69.5 8.5t56.5 32.5t38 67t14 113q0 67 -13.5 109.5t-37 67.5
t-55 34.5t-68.5 9.5q-42 0 -83.5 -7.5t-73.5 -18.5v-397z" />
    <glyph glyph-name="afii10080" unicode="&#x43e;" horiz-adv-x="542" 
d="M476 237q0 -131 -54 -188t-152 -57q-97 0 -150.5 57t-53.5 188t53.5 188t150.5 57q98 0 152 -57t54 -188zM448 237q0 66 -13 109t-36 68t-56 34.5t-72 9.5t-72 -9.5t-56 -34.5t-36 -68t-13 -109t13 -109t36 -68t56 -34.5t72 -9.5t72 9.5t56 34.5t36 68t13 109z" />
    <glyph glyph-name="afii10105" unicode="&#x458;" horiz-adv-x="243" 
d="M147 656q0 -23 -25 -23t-25 23t25 23t25 -23zM136 474v-430q0 -39 -4 -66.5t-17 -53t-39 -53t-69 -65.5l-17 20q42 35 65.5 60.5t35 49.5t14.5 49t3 59v430h28z" />
    <glyph glyph-name="afii10054" unicode="&#x405;" horiz-adv-x="534" 
d="M438 632q-38 6 -76.5 10t-78.5 4q-33 0 -63.5 -3.5t-54 -14t-38 -29t-14.5 -49.5q0 -35 26 -67.5t65.5 -65t85.5 -65t85.5 -68t65.5 -74t26 -82.5q0 -38 -15 -64t-40.5 -42.5t-60 -23.5t-73.5 -7q-59 0 -114 10.5t-96 23.5l5 27q40 -13 93.5 -23t111.5 -10
q71 0 114.5 24.5t43.5 80.5q0 41 -26 77.5t-65.5 70.5t-85.5 67t-85.5 66.5t-65.5 68t-26 73.5q0 40 18 64.5t46.5 38.5t64.5 19t72 5q47 0 84.5 -4.5t75.5 -10.5z" />
    <glyph glyph-name="afii10102" unicode="&#x455;" horiz-adv-x="437" 
d="M352 449q-20 3 -55 6t-67 3q-66 0 -104.5 -17t-38.5 -65q0 -30 21.5 -50.5t53.5 -38t70 -33.5t70 -36.5t53.5 -47.5t21.5 -65q0 -52 -35.5 -82.5t-110.5 -30.5q-54 0 -97.5 9t-78.5 21l5 24q36 -12 78.5 -21t92.5 -9q57 0 88 20t31 68q0 33 -21.5 56.5t-53.5 42t-70 35
t-70 35.5t-53.5 43t-21.5 59q0 57 44.5 82t124.5 25q37 0 71.5 -2.5t55.5 -6.5z" />
    <glyph glyph-name="afii10104" unicode="&#x457;" horiz-adv-x="244" 
d="M136 474v-474h-28v474h28zM65 655q0 -23 -25 -23t-25 23t25 23t25 -23zM231 656q0 -23 -25 -23t-25 23t25 23t25 -23z" />
    <glyph glyph-name="afii10055" unicode="&#x406;" horiz-adv-x="280" 
d="M155 665v-665h-30v665h30z" />
    <glyph glyph-name="afii10103" unicode="&#x456;" horiz-adv-x="244" 
d="M136 474v-474h-28v474h28zM147 656q0 -23 -25 -23t-25 23t25 23t25 -23z" />
    <glyph glyph-name="afii10056" unicode="&#x407;" horiz-adv-x="280" 
d="M83 846q0 -23 -25 -23t-25 23t25 23t25 -23zM249 847q0 -23 -25 -23t-25 23t25 23t25 -23zM155 665v-665h-30v665h30z" />
    <glyph glyph-name="afii10070" unicode="&#x435;" horiz-adv-x="513" 
d="M95 245q0 -71 12.5 -115.5t38 -70t64 -34.5t89.5 -9q16 0 35.5 1.5t38 4t34.5 5.5t27 6l2 -25q-11 -3 -27 -5.5t-34.5 -5t-38 -4t-37.5 -1.5q-58 0 -101.5 12t-72.5 40.5t-43.5 75.5t-14.5 117q0 126 50.5 185.5t150.5 59.5q90 0 137 -56.5t47 -156.5v-24h-357zM424 269
q0 92 -41 140.5t-115 48.5q-88 0 -127.5 -47.5t-44.5 -141.5h328z" />
    <glyph glyph-name="afii10071" unicode="&#x451;" horiz-adv-x="513" 
d="M200 655q0 -23 -25 -23t-25 23t25 23t25 -23zM366 656q0 -23 -25 -23t-25 23t25 23t25 -23zM95 245q0 -71 12.5 -115.5t38 -70t64 -34.5t89.5 -9q16 0 35.5 1.5t38 4t34.5 5.5t27 6l2 -25q-11 -3 -27 -5.5t-34.5 -5t-38 -4t-37.5 -1.5q-58 0 -101.5 12t-72.5 40.5
t-43.5 75.5t-14.5 117q0 126 50.5 185.5t150.5 59.5q90 0 137 -56.5t47 -156.5v-24h-357zM424 269q0 92 -41 140.5t-115 48.5q-88 0 -127.5 -47.5t-44.5 -141.5h328z" />
    <glyph glyph-name="afii10046" unicode="&#x42c;" horiz-adv-x="620" 
d="M155 665v-268h171q56 0 99 -10t72.5 -33t44.5 -61.5t15 -95.5q0 -105 -57 -155.5t-181 -50.5q-38 0 -84.5 5t-109.5 19v650h30zM155 35q44 -8 85 -12t79 -4q60 0 100 11.5t63.5 34t33.5 55.5t10 77q0 49 -11 82t-35 53t-62 28.5t-92 8.5h-171v-334z" />
    <glyph glyph-name="afii10018" unicode="&#x411;" horiz-adv-x="617" 
d="M479 665v-28h-324v-240h171q56 0 99 -10t72.5 -33t44.5 -61.5t15 -95.5q0 -105 -57 -155.5t-181 -50.5q-38 0 -84.5 5t-109.5 19v650h354zM155 35q44 -8 85 -12t79 -4q60 0 100 11.5t63.5 34t33.5 55.5t10 77q0 49 -11 82t-35 53t-62 28.5t-92 8.5h-171v-334z" />
    <glyph glyph-name="afii10020" unicode="&#x413;" horiz-adv-x="499" 
d="M479 665v-28h-324v-637h-30v665h354z" />
    <glyph glyph-name="afii10033" unicode="&#x41f;" horiz-adv-x="748" 
d="M623 665v-665h-30v637h-438v-637h-30v665h498z" />
    <glyph glyph-name="afii10029" unicode="&#x41b;" horiz-adv-x="678" 
d="M553 665v-665h-30v637h-293l-38 -405q-6 -66 -20.5 -111.5t-35 -74.5t-45 -42t-51.5 -13q-14 0 -23.5 1t-15.5 3q-7 2 -11 5v30q4 -3 11 -5q6 -2 15.5 -3t23.5 -1q21 0 40.5 11t35.5 36t28 65.5t18 100.5l40 431h351z" />
    <glyph glyph-name="afii10021" unicode="&#x414;" horiz-adv-x="651" 
d="M-10 28h46q23 15 42 43q17 23 32 63t21 100l40 431h352v-637h103l-10 -188h-23v160h-570l-10 -160h-23v188zM161 234q-5 -58 -19.5 -97.5t-29.5 -63.5q-18 -28 -39 -45h420v609h-294z" />
    <glyph glyph-name="afii10024" unicode="&#x416;" horiz-adv-x="854" 
d="M320 345q-39 -7 -67 -20t-49 -32.5t-37 -45t-31 -58.5l-84 -189h-32l88 200q15 35 33 62.5t40.5 48t51.5 35t68 23.5l-271 296h35l347 -379v379h30v-379l347 379h35l-271 -296q39 -9 68 -23.5t51.5 -35t40.5 -48t33 -62.5l88 -200h-32l-84 189q-15 33 -31 58.5t-37 45
t-49 32.5t-67 20l-92 -97v-248h-30v248z" />
    <glyph glyph-name="afii10026" unicode="&#x418;" horiz-adv-x="755" 
d="M155 80v-80h-30v665h30v-543l445 450v93h30v-665h-30v530z" />
    <glyph glyph-name="afii10027" unicode="&#x419;" horiz-adv-x="755" 
d="M155 80v-80h-30v665h30v-543l445 450v93h30v-665h-30v530zM377 790q-56 0 -93 30t-37 86h27q2 -50 30.5 -70t72.5 -20t72.5 20t30.5 70h27q0 -56 -37 -86t-93 -30z" />
    <glyph glyph-name="afii10040" unicode="&#x426;" horiz-adv-x="741" 
d="M125 0v665h30v-637h428v637h30v-637h103l-10 -188h-23v160h-558z" />
    <glyph glyph-name="afii10038" unicode="&#x424;" horiz-adv-x="814" 
d="M422 -20h-30v94q-71 0 -128.5 13.5t-99 43.5t-64 79.5t-22.5 121.5t22.5 121.5t64 80t99 43.5t128.5 13v95h30v-95q70 0 128 -13t99.5 -43.5t64 -80t22.5 -121.5t-22.5 -121.5t-64 -79.5t-99.5 -43.5t-128 -13.5v-94zM392 560q-63 0 -115.5 -11.5t-90 -38.5t-58 -70.5
t-20.5 -107.5t20.5 -107.5t58 -70.5t90 -38.5t115.5 -11.5v456zM706 332q0 64 -20.5 107.5t-58 70.5t-90 38.5t-115.5 11.5v-456q63 0 115.5 11.5t90 38.5t58 70.5t20.5 107.5z" />
    <glyph glyph-name="afii10042" unicode="&#x428;" horiz-adv-x="994" 
d="M125 0v665h30v-637h327v637h30v-637h327v637h30v-665h-744z" />
    <glyph glyph-name="afii10041" unicode="&#x427;" horiz-adv-x="693" 
d="M538 279q-40 -11 -86 -19t-112 -8q-69 0 -116 20t-75.5 53.5t-41 79t-12.5 96.5v164h30v-164q0 -45 10 -85t34.5 -70t66 -48t103.5 -18q75 0 122 9.5t77 17.5v358h30v-665h-30v279z" />
    <glyph glyph-name="afii10037" unicode="&#x423;" horiz-adv-x="577" 
d="M74 6q60 29 112.5 74t91.5 94l-248 491h32l236 -465q41 54 74 113t59 118.5t45 118.5t31 115h30q-13 -59 -34 -124t-50 -131t-66.5 -130t-83 -120t-98.5 -101.5t-114 -74.5z" />
    <glyph glyph-name="afii10025" unicode="&#x417;" horiz-adv-x="519" 
d="M237 360q33 0 62.5 5.5t52.5 20.5t36.5 41.5t13.5 68.5q0 43 -12.5 71.5t-36 45.5t-58 24t-78.5 7q-36 0 -76 -3t-75 -11l-4 29q38 8 79 11.5t75 3.5q48 0 87.5 -8t68 -28t44.5 -54.5t16 -87.5q0 -50 -17.5 -79t-37.5 -46q-24 -19 -54 -27q32 -8 58 -28q22 -17 40 -49
t18 -85q0 -57 -17 -94t-47.5 -58.5t-73.5 -30t-94 -8.5q-36 0 -80.5 4t-84.5 12l4 30q38 -8 81 -11.5t81 -3.5q47 0 84.5 8.5t63 27t39 49t13.5 75.5q0 80 -41.5 114t-130.5 34h-84v30h85z" />
    <glyph glyph-name="afii10043" unicode="&#x429;" horiz-adv-x="997" 
d="M125 0v665h30v-637h327v637h30v-637h327v637h30v-637h103l-10 -188h-23v160h-814z" />
    <glyph glyph-name="afii10076" unicode="&#x43a;" horiz-adv-x="492" 
d="M130 474v-277l298 277h38l-212 -197q52 -14 85.5 -50.5t56.5 -81.5l76 -145h-30l-70 132q-11 21 -23 40.5t-28 36t-37 29.5t-50 20l-104 -93v-165h-30v474h30z" />
    <glyph glyph-name="afii10045" unicode="&#x42b;" horiz-adv-x="865" 
d="M155 665v-268h166q109 0 167.5 -45t58.5 -155q0 -106 -56 -156t-177 -50q-38 0 -82 5t-107 19v650h30zM155 35q44 -8 82.5 -12t76.5 -4q58 0 97 11.5t62 34t33 55.5t10 77q0 92 -45.5 132t-149.5 40h-166v-334zM740 665v-665h-30v665h30z" />
    <glyph glyph-name="afii10044" unicode="&#x42a;" horiz-adv-x="661" 
d="M206 665v-268h166q109 0 167.5 -45t58.5 -155q0 -106 -56 -156t-177 -50q-38 0 -82 5t-107 19v622h-186v28h216zM206 35q44 -8 82.5 -12t76.5 -4q58 0 97 11.5t62 34t33 55.5t10 77q0 92 -45.5 132t-149.5 40h-166v-334z" />
    <glyph glyph-name="afii10053" unicode="&#x404;" horiz-adv-x="578" 
d="M110 325q0 -90 17 -149.5t47 -94t72 -48.5t93 -14q40 0 84.5 4t89.5 12l3 -27q-46 -10 -93 -13.5t-84 -3.5q-58 0 -106 17t-82.5 56.5t-53.5 104.5t-19 161q0 102 19.5 168.5t55 105.5t85.5 54.5t112 15.5q42 0 82 -3.5t81 -10.5l-6 -28q-38 7 -79 10.5t-77 3.5
q-56 0 -100 -13.5t-75 -47t-47.5 -90t-18.5 -142.5h320v-28h-320v0z" />
    <glyph glyph-name="afii10047" unicode="&#x42d;" horiz-adv-x="578" 
d="M148 325v28h320q-2 86 -18.5 142.5t-47.5 90t-75 47t-100 13.5q-36 0 -77 -3.5t-79 -10.5l-6 28q41 7 81 10.5t82 3.5q62 0 112 -15.5t85.5 -54.5t55 -105.5t19.5 -168.5q0 -96 -19 -161t-53.5 -104.5t-82.5 -56.5t-106 -17q-37 0 -84 3.5t-93 13.5l3 27q45 -8 89.5 -12
t84.5 -4q51 0 93 14t72 48.5t47 94t17 149.5h-320z" />
    <glyph glyph-name="afii10048" unicode="&#x42e;" horiz-adv-x="914" 
d="M583 674q57 0 104 -17.5t80 -57.5t51 -105.5t18 -161.5q0 -95 -16.5 -160t-49 -105.5t-79.5 -58t-108 -17.5q-57 0 -104 17.5t-80 57.5t-51 104.5t-18 159.5h-175v-330h-30v665h30v-307h175q2 88 21 148.5t52 98t78.5 53.5t101.5 16zM583 644q-51 0 -92 -16t-70 -52.5
t-45 -96t-16 -147.5q0 -87 16 -146t45 -96t70 -53t92 -16q54 0 95.5 16t70 53t43 96t14.5 146q0 88 -16 147.5t-45 96t-70 52.5t-92 16z" />
    <glyph glyph-name="afii10049" unicode="&#x42f;" horiz-adv-x="639" 
d="M484 637h-170q-54 0 -92 -8.5t-62.5 -27.5t-35.5 -50t-11 -77q0 -43 10.5 -74t34.5 -51t63.5 -29.5t98.5 -9.5h164v327zM514 665v-665h-30v282h-165q-33 0 -55.5 -9t-39 -25.5t-29 -40t-25.5 -53.5l-67 -154h-33l72 162q12 26 21.5 46.5t20.5 36t24.5 26.5t32.5 19
q-35 6 -64 17.5t-50 32.5t-33 53.5t-12 80.5q0 55 15 92t44.5 59t73 31t99.5 9h200z" />
    <glyph glyph-name="afii10057" unicode="&#x408;" horiz-adv-x="281" 
d="M155 665v-623q0 -30 -6 -55t-22 -51.5t-44.5 -57.5t-72.5 -71l-17 23q41 36 67 64.5t40.5 53t19.5 47.5t5 47v623h30z" />
    <glyph glyph-name="afii10062" unicode="&#x40e;" horiz-adv-x="577" 
d="M74 6q60 29 112.5 74t91.5 94l-248 491h32l236 -465q41 54 74 113t59 118.5t45 118.5t31 115h30q-13 -59 -34 -124t-50 -131t-66.5 -130t-83 -120t-98.5 -101.5t-114 -74.5zM294 790q-56 0 -93 30t-37 86h27q2 -50 30.5 -70t72.5 -20t72.5 20t30.5 70h27q0 -56 -37 -86
t-93 -30z" />
    <glyph glyph-name="afii10085" unicode="&#x443;" horiz-adv-x="451" 
d="M195 10l-185 464h29l179 -449q26 45 52.5 96.5t51.5 108t46 118t36 126.5h27q-8 -39 -24 -90.5t-39 -110.5t-53 -122t-67 -124.5t-80 -118t-92 -102.5l-17 20q53 51 90 99t58 85h-12z" />
    <glyph glyph-name="afii10110" unicode="&#x45e;" horiz-adv-x="451" 
d="M10 474h29l181 -445q52 91 103 202.5t81 242.5h27q-8 -39 -24 -90.5t-39 -110.5t-53 -122t-67 -124.5t-80 -118t-92 -102.5l-17 20q53 51 89.5 98.5t55.5 80.5zM226 591q-56 0 -93 30t-37 86h27q2 -50 30.5 -70t72.5 -20t72.5 20t30.5 70h27q0 -56 -37 -86t-93 -30z" />
    <glyph glyph-name="afii10086" unicode="&#x444;" horiz-adv-x="756" 
d="M392 -188h-28v189q-23 -3 -47.5 -5.5t-50.5 -2.5q-38 0 -74.5 9t-66 35.5t-47.5 74.5t-18 125q0 70 15.5 117.5t42.5 76t64 40.5t80 12q24 0 50 -3.5t52 -9.5v195h28v-195q26 6 51.5 9.5t50.5 3.5q43 0 80 -12t64 -40.5t42.5 -76t15.5 -117.5q0 -77 -18 -125t-47.5 -74.5
t-66.5 -35.5t-74 -9q-26 0 -50.5 2.5t-47.5 5.5v-189zM494 459q-26 0 -52 -4t-50 -9v-421q22 -4 45.5 -6t52.5 -2q37 0 69.5 8.5t56.5 32.5t38 67t14 113q0 67 -13.5 109.5t-37 67.5t-55 34.5t-68.5 9.5zM364 446q-24 5 -50 9t-52 4q-37 0 -68.5 -9.5t-55 -34.5t-37 -67.5
t-13.5 -109.5q0 -70 13.5 -113t37.5 -67t56.5 -32.5t70.5 -8.5q29 0 52.5 2t45.5 6v421z" />
    <glyph glyph-name="afii10058" unicode="&#x409;" horiz-adv-x="995" 
d="M543 665v-268h166q109 0 167.5 -45t58.5 -155q0 -106 -56 -156t-177 -50q-38 0 -82 5t-107 19v622h-283l-38 -405q-5 -64 -19 -109.5t-35 -75t-46 -43t-52 -13.5q-14 0 -23.5 1t-15.5 3q-7 2 -11 5v30q4 -3 11 -5q6 -2 15.5 -3t23.5 -1q21 0 41 12t36.5 38t28.5 66t16 97
l40 431h341zM543 35q44 -8 82.5 -12t76.5 -4q58 0 97 11.5t62 34t33 55.5t10 77q0 92 -45.5 132t-149.5 40h-166v-334z" />
    <glyph glyph-name="afii10059" unicode="&#x40a;" horiz-adv-x="1065" 
d="M155 665v-268h428v268h30v-268h166q109 0 167.5 -45t58.5 -155q0 -106 -56 -156t-177 -50q-38 0 -82 5t-107 19v354h-428v-369h-30v665h30zM613 35q44 -8 82.5 -12t76.5 -4q58 0 97 11.5t62 34t33 55.5t10 77q0 92 -45.5 132t-149.5 40h-166v-334z" />
    <glyph glyph-name="afii10052" unicode="&#x403;" horiz-adv-x="501" 
d="M479 665v-28h-324v-637h-30v665h354zM416 929l-97 -161h-29l93 161h33z" />
    <glyph glyph-name="afii10061" unicode="&#x40c;" horiz-adv-x="582" 
d="M155 665v-395l362 395h35l-271 -296q39 -9 68 -23.5t51.5 -35t40.5 -48t33 -62.5l88 -200h-32l-84 189q-15 33 -31 58.5t-37 45t-49 32.5t-67 20l-107 -112v-233h-30v665h30zM410 929l-97 -161h-29l93 161h33z" />
    <glyph glyph-name="afii10145" unicode="&#x40f;" horiz-adv-x="748" 
d="M125 0v665h30v-637h438v637h30v-665h-234v-150h-30v150h-234z" />
    <glyph glyph-name="afii10050" unicode="&#x490;" horiz-adv-x="499" 
d="M155 0h-30v665h324v115h30v-143h-324v-637z" />
    <glyph glyph-name="afii10066" unicode="&#x431;" horiz-adv-x="543" 
d="M477 229q0 -127 -54 -182t-153 -55q-97 0 -150.5 55.5t-53.5 184.5v57q0 113 13 186t40.5 117.5t70 65.5t102.5 30l156 24l4 -26l-156 -24q-47 -7 -82 -22.5t-59.5 -48t-38.5 -86t-19 -135.5q12 27 35 48q20 18 53 33t85 15q99 0 153 -55t54 -182zM94 232
q0 -114 46.5 -165t129.5 -51q86 0 132.5 50.5t46.5 162.5t-46.5 162.5t-132.5 50.5q-81 0 -127.5 -49t-48.5 -161z" />
    <glyph glyph-name="afii10068" unicode="&#x433;" horiz-adv-x="413" 
d="M403 450h-275v-450h-28v474h303v-24z" />
    <glyph glyph-name="afii10079" unicode="&#x43d;" horiz-adv-x="597" 
d="M128 474v-220h339v220h30v-474h-30v230h-339v-230h-28v474h28z" />
    <glyph glyph-name="afii10081" unicode="&#x43f;" horiz-adv-x="597" 
d="M497 474v-474h-30v450h-339v-450h-28v474h397z" />
    <glyph glyph-name="afii10084" unicode="&#x442;" horiz-adv-x="436" 
d="M10 474h416v-24h-194v-450h-28v450h-194v24z" />
    <glyph glyph-name="afii10098" unicode="&#x491;" horiz-adv-x="418" 
d="M128 458v-458h-28v482h275v128h28v-152h-275z" />
    <glyph glyph-name="afii10100" unicode="&#x453;" horiz-adv-x="426" 
d="M411 450h-275v-450h-28v474h303v-24zM377 730l-97 -161h-29l93 161h33z" />
    <glyph glyph-name="afii10060" unicode="&#x40b;" horiz-adv-x="756" 
d="M482 665v-28h-241v-264q40 11 86 19t112 8q69 0 116 -20t75.5 -53.5t41 -79t12.5 -96.5v-151h-30v151q0 45 -10 85t-34.5 70t-66 48t-103.5 18q-75 0 -122 -9.5t-77 -17.5v-345h-30v637h-241v28h512z" />
    <glyph glyph-name="afii10051" unicode="&#x402;" horiz-adv-x="742" 
d="M654 151q0 45 -10 85t-34.5 70t-66 48t-103.5 18q-75 0 -122 -9.5t-77 -17.5v-345h-30v637h-241v28h512v-28h-241v-264q40 11 86 19t112 8q69 0 116 -20t75.5 -53.5t41 -79t12.5 -96.5v-35q0 -30 -6 -55t-22 -51.5t-44.5 -57.5t-72.5 -71l-17 23q41 36 67 64.5t40.5 53
t19.5 47.5t5 47v35v0z" />
    <glyph glyph-name="afii10077" unicode="&#x43b;" horiz-adv-x="540" 
d="M440 474v-474h-30v450h-239l-32 -317q-8 -72 -38.5 -106.5t-74.5 -35.5q-17 0 -26 3q-6 2 -10 4v27q3 -2 8 -4q10 -4 24 -4q34 0 57.5 29.5t29.5 88.5l35 339h296z" />
    <glyph glyph-name="afii10094" unicode="&#x44c;" horiz-adv-x="498" 
d="M130 290q23 6 58 12t83 6q98 0 145 -41.5t47 -116.5t-48.5 -116.5t-143.5 -41.5q-47 0 -88 7t-83 17v458h30v-184zM130 34q23 -5 58 -11.5t83 -6.5q89 0 126.5 37t37.5 97q0 30 -8.5 54.5t-28 42.5t-51 27.5t-76.5 9.5q-48 0 -83 -6.5t-58 -11.5v-232z" />
    <glyph glyph-name="afii10093" unicode="&#x44b;" horiz-adv-x="721" 
d="M130 290q23 6 57 12t80 6q95 0 140.5 -41.5t45.5 -116.5t-47 -116.5t-139 -41.5q-45 0 -85 7t-82 17v458h30v-184zM130 34q23 -5 57 -11.5t80 -6.5q83 0 120 37t37 97t-36 97t-121 37q-46 0 -80 -6.5t-57 -11.5v-232zM621 474v-474h-28v474h28z" />
    <glyph glyph-name="afii10092" unicode="&#x44a;" horiz-adv-x="552" 
d="M194 290q23 6 57 12t80 6q95 0 140.5 -41.5t45.5 -116.5t-47 -116.5t-139 -41.5q-45 0 -85 7t-82 17v434h-164v24h194v-184zM194 34q23 -5 57 -11.5t80 -6.5q83 0 120 37t37 97t-36 97t-121 37q-46 0 -80 -6.5t-57 -11.5v-232z" />
    <glyph glyph-name="afii10074" unicode="&#x438;" horiz-adv-x="596" 
d="M128 474v-384l339 330v54h29v-474h-29v384l-339 -330v-54h-28v474h28z" />
    <glyph glyph-name="afii10075" unicode="&#x439;" horiz-adv-x="596" 
d="M128 474v-384l339 330v54h29v-474h-29v384l-339 -330v-54h-28v474h28zM293 591q-56 0 -93 30t-37 86h27q2 -50 30.5 -70t72.5 -20t72.5 20t30.5 70h27q0 -56 -37 -86t-93 -30z" />
    <glyph glyph-name="afii10072" unicode="&#x436;" horiz-adv-x="732" 
d="M258 258q-29 -7 -50 -20t-37 -29.5t-28 -36t-23 -40.5l-70 -132h-30l76 145q12 22 25.5 43t31 38t38.5 30.5t47 20.5l-212 197h38l288 -268v268h28v-268l288 268h38l-212 -197q52 -14 85 -50.5t57 -81.5l76 -145h-30l-70 132q-11 21 -23 41t-28 36.5t-37 29t-50 19.5
l-94 -84v-174h-28v174z" />
    <glyph glyph-name="afii10069" unicode="&#x434;" horiz-adv-x="523" 
d="M480 0h-458l-8 -130h-24v154h42q16 12 29 29q11 14 21 35t13 48l33 338h297v-450h88l-9 -154h-24v130zM124 135q-3 -26 -12.5 -47t-20.5 -35q-12 -17 -28 -29h333v426h-240z" />
    <glyph glyph-name="afii10067" unicode="&#x432;" horiz-adv-x="507" 
d="M100 460q34 8 73.5 15t81.5 7q87 0 132 -36t45 -88q0 -33 -14.5 -54.5t-31.5 -33.5q-20 -14 -45 -21q34 -6 60 -21q23 -13 42 -36t19 -62q0 -60 -49 -99t-144 -39q-47 0 -87 7t-82 17v444zM128 235v-201q23 -5 58 -11.5t83 -6.5q45 0 76 9.5t50.5 25t28.5 36t9 43.5
q0 21 -9 40t-28.5 33.5t-50.5 23t-76 8.5h-141zM255 458q-40 0 -73.5 -6.5t-53.5 -11.5v-181h127q41 0 69.5 8.5t46 22t25 31.5t7.5 37q0 18 -7.5 35.5t-25 32t-46 23.5t-69.5 9z" />
    <glyph glyph-name="afii10101" unicode="&#x454;" horiz-adv-x="473" 
d="M95 225q1 -63 14.5 -103.5t37 -64t56 -32.5t73.5 -9q35 0 63.5 4t60.5 12l3 -24q-37 -8 -65 -12t-63 -4q-44 0 -82 11t-66 39t-44 75t-16 119t15.5 119.5t43.5 75.5t66 39.5t83 11.5q33 0 67 -3.5t59 -8.5l-4 -24q-26 5 -58 8.5t-64 3.5q-40 0 -72.5 -9t-56 -32.5
t-37 -64t-14.5 -103.5h240v-24h-240z" />
    <glyph glyph-name="afii10095" unicode="&#x44d;" horiz-adv-x="473" 
d="M138 225v24h240q-1 63 -14.5 103.5t-37 64t-56 32.5t-72.5 9q-32 0 -64 -3.5t-58 -8.5l-4 24q25 5 59 8.5t67 3.5q45 0 83 -11.5t66 -39.5t43.5 -75.5t15.5 -119.5t-16 -119t-44 -75t-66 -39t-82 -11q-35 0 -63 4t-65 12l3 24q32 -8 60.5 -12t63.5 -4q40 0 73 9
t56.5 32.5t37 64t14.5 103.5h-240z" />
    <glyph glyph-name="afii10078" unicode="&#x43c;" horiz-adv-x="694" 
d="M332 134l-204 299v-433h-28v474h33l214 -313l214 313h33v-474h-28v433l-204 -299h-30z" />
    <glyph glyph-name="afii10088" unicode="&#x446;" horiz-adv-x="584" 
d="M100 0v474h28v-450h329v450h29v-450h88l-9 -154h-24v130h-441z" />
    <glyph glyph-name="afii10090" unicode="&#x448;" horiz-adv-x="847" 
d="M100 0v474h28v-450h280v450h29v-450h280v450h30v-474h-647z" />
    <glyph glyph-name="afii10091" unicode="&#x449;" horiz-adv-x="845" 
d="M747 24h88l-9 -154h-24v130h-702v474h28v-450h280v450h29v-450h280v450h30v-450z" />
    <glyph glyph-name="afii10089" unicode="&#x447;" horiz-adv-x="557" 
d="M427 215q-18 -10 -42 -18q-20 -7 -49 -12t-67 -5q-37 0 -69.5 9t-57 29t-38.5 50.5t-14 74.5v131h30v-131q0 -41 12.5 -67.5t33 -42.5t47.5 -22.5t56 -6.5q38 0 67 5.5t49 12.5q24 8 42 18v234h30v-474h-30v215z" />
    <glyph glyph-name="afii10073" unicode="&#x437;" horiz-adv-x="435" 
d="M186 482q87 0 132 -36t45 -88q0 -31 -14 -51.5t-31 -33.5q-20 -15 -45 -24q29 -5 53 -19q20 -12 37 -36t17 -64q0 -60 -50 -99t-145 -39q-35 0 -66.5 4t-68.5 12l3 24q32 -8 64.5 -12t67.5 -4q45 0 76.5 9.5t51.5 25t29 36t9 43.5q0 21 -7 40t-24 33.5t-46 23t-74 8.5
h-67v24h53q41 0 69.5 8.5t46 22t25 31.5t7.5 37q0 18 -7.5 35.5t-25 32t-46 23.5t-69.5 9q-32 0 -63.5 -3.5t-57.5 -8.5l-4 24q25 5 58.5 8.5t66.5 3.5z" />
    <glyph glyph-name="afii10096" unicode="&#x44e;" horiz-adv-x="738" 
d="M672 237q0 -131 -52 -188.5t-143 -57.5q-44 0 -80 13.5t-61 42.5t-39 74t-15 109h-154v-230h-28v474h28v-220h154q3 120 55 174t140 54q91 0 143 -57t52 -188zM644 237q0 65 -12.5 107.5t-35 68t-53 35.5t-66.5 10t-66.5 -10t-53 -35.5t-35 -68t-12.5 -107.5
q0 -67 12.5 -109.5t35 -67.5t53 -35t66.5 -10t66.5 10t53 35t35 68t12.5 109z" />
    <glyph glyph-name="afii10097" unicode="&#x44f;" horiz-adv-x="531" 
d="M403 0v196h-141q-33 -4 -57.5 -15.5t-43 -28t-32 -37t-23.5 -41.5l-36 -74h-30l42 87q18 38 38.5 60t38.5 34q21 14 42 19q-37 5 -66 21q-25 14 -45 40t-20 74q0 68 47 107.5t145 39.5q47 0 87 -7t82 -17v-458h-28zM403 440q-23 5 -58 11.5t-83 6.5q-89 0 -126.5 -34.5
t-37.5 -88.5q0 -52 37.5 -83.5t126.5 -31.5h141v220z" />
    <glyph glyph-name="afii10109" unicode="&#x45c;" horiz-adv-x="492" 
d="M130 474v-277l298 277h38l-212 -197q52 -14 85.5 -50.5t56.5 -81.5l76 -145h-30l-70 132q-11 21 -23 40.5t-28 36t-37 29.5t-50 20l-104 -93v-165h-30v474h30zM386 730l-97 -161h-29l93 161h33z" />
    <glyph glyph-name="afii10106" unicode="&#x459;" horiz-adv-x="802" 
d="M429 290q23 6 58 12t83 6q98 0 145 -41.5t47 -116.5t-48.5 -116.5t-143.5 -41.5q-47 0 -88 7t-83 17v434h-228l-33 -316q-8 -72 -37.5 -107t-75.5 -36q-8 0 -14 1t-11 3t-10 5v24q3 -2 8 -4q7 -3 24 -3q36 0 58.5 30.5t28.5 87.5l35 339h285v-184zM429 34q23 -5 58 -11.5
t83 -6.5q89 0 126.5 37t37.5 97q0 30 -8.5 54.5t-28 42.5t-51 27.5t-76.5 9.5q-48 0 -83 -6.5t-58 -11.5v-232z" />
    <glyph glyph-name="afii10107" unicode="&#x45a;" horiz-adv-x="859" 
d="M486 290q23 6 58 12t83 6q98 0 145 -41.5t47 -116.5t-48.5 -116.5t-143.5 -41.5q-47 0 -88 7t-83 17v246h-328v-262h-28v474h28v-189l328 1v188h30v-184zM486 34q23 -5 58 -11.5t83 -6.5q89 0 126.5 37t37.5 97q0 30 -8.5 54.5t-28 42.5t-51 27.5t-76.5 9.5
q-48 0 -83 -6.5t-58 -11.5v-232z" />
    <glyph glyph-name="afii10108" unicode="&#x45b;" horiz-adv-x="587" 
d="M0 640h108v90h28v-90h204v-24h-204v-190q36 9 78 16.5t88 7.5q40 0 74 -8t59 -26t39.5 -47t14.5 -72v-297h-28v295q0 38 -12 63.5t-33.5 40.5t-50.5 21t-63 6q-24 0 -48.5 -2.5t-47 -6.5t-41 -8.5t-29.5 -8.5v-400h-28v616h-108v24z" />
    <glyph glyph-name="afii10193" unicode="&#x45f;" horiz-adv-x="597" 
d="M100 0v474h28v-450h339v450h30v-474h-185v-120h-29v120h-183z" />
    <glyph glyph-name="afii61352" unicode="&#x2116;" horiz-adv-x="1154" 
d="M155 665l445 -462v462h28v-665h-28v164l-447 464v-628h-28v665h30zM1025 302q0 -47 -11 -79.5t-30 -53t-45.5 -30t-56.5 -9.5t-56.5 9.5t-45.5 30t-30 53t-11 79.5q0 46 11 79t30 53.5t45.5 30t56.5 9.5t56.5 -9.5t45.5 -30t30 -53.5t11 -79zM998 302q0 43 -8.5 71.5
t-24 45.5t-37 24t-46.5 7t-46.5 -7t-37 -24t-24 -45.5t-8.5 -71.5t8.5 -71.5t24 -45.5t37 -24t46.5 -7t46.5 7t37 24t24 45.5t8.5 71.5zM1004 24v-24h-244v24h244z" />
    <glyph glyph-name="afii10099" unicode="&#x452;" horiz-adv-x="572" 
d="M0 640h108v90h28v-90h204v-24h-204v-190q36 9 78 16.5t88 7.5q40 0 74 -8t59 -26t39.5 -47t14.5 -72v-199q0 -39 -4 -66.5t-17 -53t-39 -53t-69 -65.5l-17 20q42 35 65.5 60.5t35 49.5t14.5 49t3 59v197q0 38 -12 63.5t-33.5 40.5t-50.5 21t-63 6q-24 0 -48.5 -2.5
t-47 -6.5t-41 -8.5t-29.5 -8.5v-400h-28v616h-108v24z" />
    <glyph glyph-name="uni20BD" unicode="&#x20bd;" horiz-adv-x="620" 
d="M30 309h95v356h201q56 0 99 -10t72.5 -32.5t44.5 -59.5t15 -90t-15 -90t-44.5 -59.5t-72.5 -32.5t-99 -10h-171v-101h265v-28h-265v-152h-30v152h-95v28h95v101h-95v28zM326 309q108 0 154 38t46 126t-46 126t-154 38h-171v-328h171z" />
    <glyph glyph-name="currency" unicode="&#xa4;" horiz-adv-x="620" 
d="M30 309h95v356h201q56 0 99 -10t72.5 -32.5t44.5 -59.5t15 -90t-15 -90t-44.5 -59.5t-72.5 -32.5t-99 -10h-171v-101h265v-28h-265v-152h-30v152h-95v28h95v101h-95v28zM326 309q108 0 154 38t46 126t-46 126t-154 38h-171v-328h171z" />
    <glyph glyph-name="nonbreakingspace" horiz-adv-x="245" 
 />
    <glyph glyph-name="afii10023" unicode="&#x401;" horiz-adv-x="555" 
d="M478 665v-28h-328v-277h291v-28h-291v-214q0 -45 25 -67.5t73 -22.5h246v-28h-246q-62 0 -95 31t-33 86v548h358zM219 854q0 -23 -25 -23t-25 23t25 23t25 -23zM385 855q0 -23 -25 -23t-25 23t25 23t25 -23z" />
    </font>
</defs>
</svg>
