<svg height="16px" width="16px" viewBox="0 0 1000 1000">
	<path transform="scale(1,-1) translate(0,-650)" fill="#000" stroke="none" stroke-width="0"
d="M572 -30q-10 -10 -15 -23l-267 -87l-290 320v572l484 88l356 -180v-310q0 37 -24 53t-56 16v181l-430 -102v-541l238 78h67q4 0 6 1h3q-13 -6 -23 -16zM140 696l160 -123l364 87l-192 96zM250 23v487l-170 130v-430zM635 350v-245h-70v245h70zM980 70q0 -43 -16.5 -81.5
t-45 -67t-66.5 -45t-82 -16.5q-41 0 -79 15t-69 46l49 50q20 -20 46 -30.5t53 -10.5q29 0 54.5 11t44.5 30t30 44.5t11 54.5t-11 54.5t-30 44.5t-44.5 30t-54.5 11v-70l-105 105l105 105v-70q44 0 82 -16.5t66.5 -45t45 -66.5t16.5 -82z" />
</svg>

<svg height="16px" width="16px" viewBox="0 0 1000 1000">
	<path transform="scale(1,-1) translate(0,-650)" fill="#000" stroke="none" stroke-width="0"
d="M420 55q0 -5 2 -18t15 -38l-246 -55q-16 -4 -36 -4q-30 0 -58 10t-49.5 29t-34.5 45t-13 59v613q0 32 12.5 58.5t34 45.5t50 29.5t59.5 10.5q14 0 29 -3l572 -121q24 -5 41 -18t27.5 -30.5t15 -38.5t4.5 -44v-329q-33 13 -70 17v309q0 21 -12 35.5t-23 16.5l-561 108
q-5 1 -11.5 2t-11.5 1q-22 0 -39 -12.5t-17 -38.5v-614q0 -22 16 -35.5t36 -13.5h7l265 47q-4 -12 -4 -23zM735 206q56 0 101.5 -21.5t77.5 -48.5t49 -51t17 -30q0 -4 -6.5 -18.5t-19.5 -33.5t-33 -41t-47 -40t-61.5 -30t-77.5 -12q-42 0 -77 12t-62 30t-47 40t-33 41
t-19.5 33.5t-6.5 18.5q0 6 17 30t49 51t77.5 48.5t101.5 21.5zM770 132q-13 0 -21.5 -8.5t-8.5 -21.5t8.5 -21.5t21.5 -8.5t21.5 8.5t8.5 21.5t-8.5 21.5t-21.5 8.5zM735 -50q54 0 96.5 27.5t69.5 72.5q-32 39 -78 64q7 -15 7 -37q0 -19 -7.5 -36.5t-20.5 -30.5t-30 -20.5
t-37 -7.5q-19 0 -36.5 7.5t-30.5 20.5t-20.5 30.5t-7.5 36.5q0 22 7 37q-23 -12 -42.5 -28.5t-35.5 -35.5q27 -45 69.5 -72.5t96.5 -27.5z" />
</svg>

<svg height="16px" width="16px" viewBox="0 0 1000 1000">
	<path transform="scale(1,-1) translate(0,-650)" fill="#000" stroke="none" stroke-width="0"
d="M838 258q-28 10 -63 15v309q0 21 -12 35.5t-23 16.5l-561 108q-5 1 -11.5 2t-11.5 1q-22 0 -39 -12.5t-17 -38.5v-614q0 -22 16 -35.5t36 -13.5h7l265 47q-4 -12 -4 -23q0 -5 2 -18t15 -38l-246 -55q-16 -4 -36 -4q-30 0 -58 10t-49.5 29t-34.5 45t-13 59v613
q0 32 12.5 58.5t34 45.5t50 29.5t59.5 10.5q14 0 29 -3l572 -121q24 -5 41 -18t27.5 -30.5t15 -38.5t4.5 -44v-320zM914 136q32 -27 49 -51.5t17 -29.5q0 -4 -6.5 -18.5t-19.5 -33.5t-33 -41t-47 -40t-61.5 -30t-77.5 -12q-35 0 -67 9l-29 -29l-49 50l315 316l50 -49z
M569 50q12 -20 26 -35l-49 -50q-29 31 -42.5 58t-13.5 32q0 6 17 30t49 51t77.5 48.5t101.5 21.5q22 0 47 -5l-141 -140q-1 5 -1 16q0 22 7 37q-23 -12 -42.5 -28.5t-35.5 -35.5zM735 -50q54 0 96.5 27.5t69.5 72.5q-8 10 -16.5 19t-19.5 17l-40 -40q-7 -21 -22.5 -36.5
t-36.5 -22.5l-37 -37h6z" />
</svg>